%TF.GenerationSoftware,KiCad,Pcbnew,8.0.2*%
%TF.CreationDate,2024-06-21T01:26:05+01:00*%
%TF.ProjectId,ESP32S3_PCB_V1,45535033-3253-4335-9f50-43425f56312e,1*%
%TF.SameCoordinates,Original*%
%TF.FileFunction,Soldermask,Bot*%
%TF.FilePolarity,Negative*%
%FSLAX46Y46*%
G04 Gerber Fmt 4.6, Leading zero omitted, Abs format (unit mm)*
G04 Created by KiCad (PCBNEW 8.0.2) date 2024-06-21 01:26:05*
%MOMM*%
%LPD*%
G01*
G04 APERTURE LIST*
G04 APERTURE END LIST*
G36*
X114139412Y-108043876D02*
G01*
X114389347Y-108120971D01*
X114625000Y-108234456D01*
X114841107Y-108381795D01*
X115032841Y-108559698D01*
X115195918Y-108764190D01*
X115326696Y-108990703D01*
X115422252Y-109234178D01*
X115480454Y-109489176D01*
X115500000Y-109750000D01*
X115480454Y-110010824D01*
X115422252Y-110265822D01*
X115326696Y-110509297D01*
X115195918Y-110735810D01*
X115032841Y-110940302D01*
X114841107Y-111118205D01*
X114625000Y-111265544D01*
X114389347Y-111379029D01*
X114139412Y-111456124D01*
X113880778Y-111495107D01*
X113619222Y-111495107D01*
X113360588Y-111456124D01*
X113110653Y-111379029D01*
X112875000Y-111265544D01*
X112658893Y-111118205D01*
X112467159Y-110940302D01*
X112304082Y-110735810D01*
X112173304Y-110509297D01*
X112077748Y-110265822D01*
X112019546Y-110010824D01*
X112000000Y-109750000D01*
X112019546Y-109489176D01*
X112077748Y-109234178D01*
X112173304Y-108990703D01*
X112304082Y-108764190D01*
X112467159Y-108559698D01*
X112658893Y-108381795D01*
X112875000Y-108234456D01*
X113110653Y-108120971D01*
X113360588Y-108043876D01*
X113619222Y-108004893D01*
X113880778Y-108004893D01*
X114139412Y-108043876D01*
G37*
G36*
X183889412Y-108043876D02*
G01*
X184139347Y-108120971D01*
X184375000Y-108234456D01*
X184591107Y-108381795D01*
X184782841Y-108559698D01*
X184945918Y-108764190D01*
X185076696Y-108990703D01*
X185172252Y-109234178D01*
X185230454Y-109489176D01*
X185250000Y-109750000D01*
X185230454Y-110010824D01*
X185172252Y-110265822D01*
X185076696Y-110509297D01*
X184945918Y-110735810D01*
X184782841Y-110940302D01*
X184591107Y-111118205D01*
X184375000Y-111265544D01*
X184139347Y-111379029D01*
X183889412Y-111456124D01*
X183630778Y-111495107D01*
X183369222Y-111495107D01*
X183110588Y-111456124D01*
X182860653Y-111379029D01*
X182625000Y-111265544D01*
X182408893Y-111118205D01*
X182217159Y-110940302D01*
X182054082Y-110735810D01*
X181923304Y-110509297D01*
X181827748Y-110265822D01*
X181769546Y-110010824D01*
X181750000Y-109750000D01*
X181769546Y-109489176D01*
X181827748Y-109234178D01*
X181923304Y-108990703D01*
X182054082Y-108764190D01*
X182217159Y-108559698D01*
X182408893Y-108381795D01*
X182625000Y-108234456D01*
X182860653Y-108120971D01*
X183110588Y-108043876D01*
X183369222Y-108004893D01*
X183630778Y-108004893D01*
X183889412Y-108043876D01*
G37*
G36*
X140087664Y-109409103D02*
G01*
X140250000Y-109481379D01*
X140393761Y-109585828D01*
X140512664Y-109717884D01*
X140601514Y-109871775D01*
X140656425Y-110040776D01*
X140675000Y-110217501D01*
X140656425Y-110394226D01*
X140601514Y-110563227D01*
X140512664Y-110717118D01*
X140393761Y-110849174D01*
X140250000Y-110953623D01*
X140087664Y-111025899D01*
X139913849Y-111062845D01*
X139736151Y-111062845D01*
X139562336Y-111025899D01*
X139400000Y-110953623D01*
X139256239Y-110849174D01*
X139137336Y-110717118D01*
X139048486Y-110563227D01*
X138993575Y-110394226D01*
X138975000Y-110217501D01*
X138993575Y-110040776D01*
X139048486Y-109871775D01*
X139137336Y-109717884D01*
X139256239Y-109585828D01*
X139400000Y-109481379D01*
X139562336Y-109409103D01*
X139736151Y-109372157D01*
X139913849Y-109372157D01*
X140087664Y-109409103D01*
G37*
G36*
X159850000Y-111050000D02*
G01*
X158150000Y-111050000D01*
X158150000Y-109350000D01*
X159850000Y-109350000D01*
X159850000Y-111050000D01*
G37*
G36*
X161802664Y-109391602D02*
G01*
X161965000Y-109463878D01*
X162108761Y-109568327D01*
X162227664Y-109700383D01*
X162316514Y-109854274D01*
X162371425Y-110023275D01*
X162390000Y-110200000D01*
X162371425Y-110376725D01*
X162316514Y-110545726D01*
X162227664Y-110699617D01*
X162108761Y-110831673D01*
X161965000Y-110936122D01*
X161802664Y-111008398D01*
X161628849Y-111045344D01*
X161451151Y-111045344D01*
X161277336Y-111008398D01*
X161115000Y-110936122D01*
X160971239Y-110831673D01*
X160852336Y-110699617D01*
X160763486Y-110545726D01*
X160708575Y-110376725D01*
X160690000Y-110200000D01*
X160708575Y-110023275D01*
X160763486Y-109854274D01*
X160852336Y-109700383D01*
X160971239Y-109568327D01*
X161115000Y-109463878D01*
X161277336Y-109391602D01*
X161451151Y-109354656D01*
X161628849Y-109354656D01*
X161802664Y-109391602D01*
G37*
G36*
X164342664Y-109391602D02*
G01*
X164505000Y-109463878D01*
X164648761Y-109568327D01*
X164767664Y-109700383D01*
X164856514Y-109854274D01*
X164911425Y-110023275D01*
X164930000Y-110200000D01*
X164911425Y-110376725D01*
X164856514Y-110545726D01*
X164767664Y-110699617D01*
X164648761Y-110831673D01*
X164505000Y-110936122D01*
X164342664Y-111008398D01*
X164168849Y-111045344D01*
X163991151Y-111045344D01*
X163817336Y-111008398D01*
X163655000Y-110936122D01*
X163511239Y-110831673D01*
X163392336Y-110699617D01*
X163303486Y-110545726D01*
X163248575Y-110376725D01*
X163230000Y-110200000D01*
X163248575Y-110023275D01*
X163303486Y-109854274D01*
X163392336Y-109700383D01*
X163511239Y-109568327D01*
X163655000Y-109463878D01*
X163817336Y-109391602D01*
X163991151Y-109354656D01*
X164168849Y-109354656D01*
X164342664Y-109391602D01*
G37*
G36*
X166882664Y-109391602D02*
G01*
X167045000Y-109463878D01*
X167188761Y-109568327D01*
X167307664Y-109700383D01*
X167396514Y-109854274D01*
X167451425Y-110023275D01*
X167470000Y-110200000D01*
X167451425Y-110376725D01*
X167396514Y-110545726D01*
X167307664Y-110699617D01*
X167188761Y-110831673D01*
X167045000Y-110936122D01*
X166882664Y-111008398D01*
X166708849Y-111045344D01*
X166531151Y-111045344D01*
X166357336Y-111008398D01*
X166195000Y-110936122D01*
X166051239Y-110831673D01*
X165932336Y-110699617D01*
X165843486Y-110545726D01*
X165788575Y-110376725D01*
X165770000Y-110200000D01*
X165788575Y-110023275D01*
X165843486Y-109854274D01*
X165932336Y-109700383D01*
X166051239Y-109568327D01*
X166195000Y-109463878D01*
X166357336Y-109391602D01*
X166531151Y-109354656D01*
X166708849Y-109354656D01*
X166882664Y-109391602D01*
G37*
G36*
X169422664Y-109391602D02*
G01*
X169585000Y-109463878D01*
X169728761Y-109568327D01*
X169847664Y-109700383D01*
X169936514Y-109854274D01*
X169991425Y-110023275D01*
X170010000Y-110200000D01*
X169991425Y-110376725D01*
X169936514Y-110545726D01*
X169847664Y-110699617D01*
X169728761Y-110831673D01*
X169585000Y-110936122D01*
X169422664Y-111008398D01*
X169248849Y-111045344D01*
X169071151Y-111045344D01*
X168897336Y-111008398D01*
X168735000Y-110936122D01*
X168591239Y-110831673D01*
X168472336Y-110699617D01*
X168383486Y-110545726D01*
X168328575Y-110376725D01*
X168310000Y-110200000D01*
X168328575Y-110023275D01*
X168383486Y-109854274D01*
X168472336Y-109700383D01*
X168591239Y-109568327D01*
X168735000Y-109463878D01*
X168897336Y-109391602D01*
X169071151Y-109354656D01*
X169248849Y-109354656D01*
X169422664Y-109391602D01*
G37*
G36*
X171962664Y-109391602D02*
G01*
X172125000Y-109463878D01*
X172268761Y-109568327D01*
X172387664Y-109700383D01*
X172476514Y-109854274D01*
X172531425Y-110023275D01*
X172550000Y-110200000D01*
X172531425Y-110376725D01*
X172476514Y-110545726D01*
X172387664Y-110699617D01*
X172268761Y-110831673D01*
X172125000Y-110936122D01*
X171962664Y-111008398D01*
X171788849Y-111045344D01*
X171611151Y-111045344D01*
X171437336Y-111008398D01*
X171275000Y-110936122D01*
X171131239Y-110831673D01*
X171012336Y-110699617D01*
X170923486Y-110545726D01*
X170868575Y-110376725D01*
X170850000Y-110200000D01*
X170868575Y-110023275D01*
X170923486Y-109854274D01*
X171012336Y-109700383D01*
X171131239Y-109568327D01*
X171275000Y-109463878D01*
X171437336Y-109391602D01*
X171611151Y-109354656D01*
X171788849Y-109354656D01*
X171962664Y-109391602D01*
G37*
G36*
X174502664Y-109391602D02*
G01*
X174665000Y-109463878D01*
X174808761Y-109568327D01*
X174927664Y-109700383D01*
X175016514Y-109854274D01*
X175071425Y-110023275D01*
X175090000Y-110200000D01*
X175071425Y-110376725D01*
X175016514Y-110545726D01*
X174927664Y-110699617D01*
X174808761Y-110831673D01*
X174665000Y-110936122D01*
X174502664Y-111008398D01*
X174328849Y-111045344D01*
X174151151Y-111045344D01*
X173977336Y-111008398D01*
X173815000Y-110936122D01*
X173671239Y-110831673D01*
X173552336Y-110699617D01*
X173463486Y-110545726D01*
X173408575Y-110376725D01*
X173390000Y-110200000D01*
X173408575Y-110023275D01*
X173463486Y-109854274D01*
X173552336Y-109700383D01*
X173671239Y-109568327D01*
X173815000Y-109463878D01*
X173977336Y-109391602D01*
X174151151Y-109354656D01*
X174328849Y-109354656D01*
X174502664Y-109391602D01*
G37*
G36*
X177042664Y-109391602D02*
G01*
X177205000Y-109463878D01*
X177348761Y-109568327D01*
X177467664Y-109700383D01*
X177556514Y-109854274D01*
X177611425Y-110023275D01*
X177630000Y-110200000D01*
X177611425Y-110376725D01*
X177556514Y-110545726D01*
X177467664Y-110699617D01*
X177348761Y-110831673D01*
X177205000Y-110936122D01*
X177042664Y-111008398D01*
X176868849Y-111045344D01*
X176691151Y-111045344D01*
X176517336Y-111008398D01*
X176355000Y-110936122D01*
X176211239Y-110831673D01*
X176092336Y-110699617D01*
X176003486Y-110545726D01*
X175948575Y-110376725D01*
X175930000Y-110200000D01*
X175948575Y-110023275D01*
X176003486Y-109854274D01*
X176092336Y-109700383D01*
X176211239Y-109568327D01*
X176355000Y-109463878D01*
X176517336Y-109391602D01*
X176691151Y-109354656D01*
X176868849Y-109354656D01*
X177042664Y-109391602D01*
G37*
G36*
X179582664Y-109391602D02*
G01*
X179745000Y-109463878D01*
X179888761Y-109568327D01*
X180007664Y-109700383D01*
X180096514Y-109854274D01*
X180151425Y-110023275D01*
X180170000Y-110200000D01*
X180151425Y-110376725D01*
X180096514Y-110545726D01*
X180007664Y-110699617D01*
X179888761Y-110831673D01*
X179745000Y-110936122D01*
X179582664Y-111008398D01*
X179408849Y-111045344D01*
X179231151Y-111045344D01*
X179057336Y-111008398D01*
X178895000Y-110936122D01*
X178751239Y-110831673D01*
X178632336Y-110699617D01*
X178543486Y-110545726D01*
X178488575Y-110376725D01*
X178470000Y-110200000D01*
X178488575Y-110023275D01*
X178543486Y-109854274D01*
X178632336Y-109700383D01*
X178751239Y-109568327D01*
X178895000Y-109463878D01*
X179057336Y-109391602D01*
X179231151Y-109354656D01*
X179408849Y-109354656D01*
X179582664Y-109391602D01*
G37*
G36*
X132600000Y-109125000D02*
G01*
X130950000Y-109125000D01*
X130950000Y-107475000D01*
X132600000Y-107475000D01*
X132600000Y-109125000D01*
G37*
G36*
X135529939Y-107515378D02*
G01*
X135687500Y-107585529D01*
X135827033Y-107686906D01*
X135942439Y-107815077D01*
X136028675Y-107964442D01*
X136081972Y-108128473D01*
X136100000Y-108300000D01*
X136081972Y-108471527D01*
X136028675Y-108635558D01*
X135942439Y-108784923D01*
X135827033Y-108913094D01*
X135687500Y-109014471D01*
X135529939Y-109084622D01*
X135361236Y-109120481D01*
X135188764Y-109120481D01*
X135020061Y-109084622D01*
X134862500Y-109014471D01*
X134722967Y-108913094D01*
X134607561Y-108784923D01*
X134521325Y-108635558D01*
X134468028Y-108471527D01*
X134450000Y-108300000D01*
X134468028Y-108128473D01*
X134521325Y-107964442D01*
X134607561Y-107815077D01*
X134722967Y-107686906D01*
X134862500Y-107585529D01*
X135020061Y-107515378D01*
X135188764Y-107479519D01*
X135361236Y-107479519D01*
X135529939Y-107515378D01*
G37*
G36*
X140087664Y-106869102D02*
G01*
X140250000Y-106941378D01*
X140393761Y-107045827D01*
X140512664Y-107177883D01*
X140601514Y-107331774D01*
X140656425Y-107500775D01*
X140675000Y-107677500D01*
X140656425Y-107854225D01*
X140601514Y-108023226D01*
X140512664Y-108177117D01*
X140393761Y-108309173D01*
X140250000Y-108413622D01*
X140087664Y-108485898D01*
X139913849Y-108522844D01*
X139736151Y-108522844D01*
X139562336Y-108485898D01*
X139400000Y-108413622D01*
X139256239Y-108309173D01*
X139137336Y-108177117D01*
X139048486Y-108023226D01*
X138993575Y-107854225D01*
X138975000Y-107677500D01*
X138993575Y-107500775D01*
X139048486Y-107331774D01*
X139137336Y-107177883D01*
X139256239Y-107045827D01*
X139400000Y-106941378D01*
X139562336Y-106869102D01*
X139736151Y-106832156D01*
X139913849Y-106832156D01*
X140087664Y-106869102D01*
G37*
G36*
X153150000Y-106180000D02*
G01*
X151050000Y-106180000D01*
X151050000Y-104780000D01*
X153150000Y-104780000D01*
X153150000Y-106180000D01*
G37*
G36*
X162250000Y-106180000D02*
G01*
X160150000Y-106180000D01*
X160150000Y-104780000D01*
X162250000Y-104780000D01*
X162250000Y-106180000D01*
G37*
G36*
X173550000Y-106180000D02*
G01*
X171450000Y-106180000D01*
X171450000Y-104780000D01*
X173550000Y-104780000D01*
X173550000Y-106180000D01*
G37*
G36*
X182650000Y-106180000D02*
G01*
X180550000Y-106180000D01*
X180550000Y-104780000D01*
X182650000Y-104780000D01*
X182650000Y-106180000D01*
G37*
G36*
X140087664Y-104329103D02*
G01*
X140250000Y-104401379D01*
X140393761Y-104505828D01*
X140512664Y-104637884D01*
X140601514Y-104791775D01*
X140656425Y-104960776D01*
X140675000Y-105137501D01*
X140656425Y-105314226D01*
X140601514Y-105483227D01*
X140512664Y-105637118D01*
X140393761Y-105769174D01*
X140250000Y-105873623D01*
X140087664Y-105945899D01*
X139913849Y-105982845D01*
X139736151Y-105982845D01*
X139562336Y-105945899D01*
X139400000Y-105873623D01*
X139256239Y-105769174D01*
X139137336Y-105637118D01*
X139048486Y-105483227D01*
X138993575Y-105314226D01*
X138975000Y-105137501D01*
X138993575Y-104960776D01*
X139048486Y-104791775D01*
X139137336Y-104637884D01*
X139256239Y-104505828D01*
X139400000Y-104401379D01*
X139562336Y-104329103D01*
X139736151Y-104292157D01*
X139913849Y-104292157D01*
X140087664Y-104329103D01*
G37*
G36*
X140675000Y-103447501D02*
G01*
X138975000Y-103447501D01*
X138975000Y-101747501D01*
X140675000Y-101747501D01*
X140675000Y-103447501D01*
G37*
G36*
X126376537Y-102165224D02*
G01*
X126441421Y-102208579D01*
X126484776Y-102273463D01*
X126500000Y-102350000D01*
X126500000Y-102750000D01*
X126484776Y-102826537D01*
X126441421Y-102891421D01*
X126376537Y-102934776D01*
X126300000Y-102950000D01*
X125750000Y-102950000D01*
X125673463Y-102934776D01*
X125608579Y-102891421D01*
X125565224Y-102826537D01*
X125550000Y-102750000D01*
X125550000Y-102350000D01*
X125565224Y-102273463D01*
X125608579Y-102208579D01*
X125673463Y-102165224D01*
X125750000Y-102150000D01*
X126300000Y-102150000D01*
X126376537Y-102165224D01*
G37*
G36*
X127851537Y-102165224D02*
G01*
X127916421Y-102208579D01*
X127959776Y-102273463D01*
X127975000Y-102350000D01*
X127975000Y-102750000D01*
X127959776Y-102826537D01*
X127916421Y-102891421D01*
X127851537Y-102934776D01*
X127775000Y-102950000D01*
X127225000Y-102950000D01*
X127148463Y-102934776D01*
X127083579Y-102891421D01*
X127040224Y-102826537D01*
X127025000Y-102750000D01*
X127025000Y-102350000D01*
X127040224Y-102273463D01*
X127083579Y-102208579D01*
X127148463Y-102165224D01*
X127225000Y-102150000D01*
X127775000Y-102150000D01*
X127851537Y-102165224D01*
G37*
G36*
X153150000Y-101720000D02*
G01*
X151050000Y-101720000D01*
X151050000Y-100320000D01*
X153150000Y-100320000D01*
X153150000Y-101720000D01*
G37*
G36*
X162250000Y-101720000D02*
G01*
X160150000Y-101720000D01*
X160150000Y-100320000D01*
X162250000Y-100320000D01*
X162250000Y-101720000D01*
G37*
G36*
X173550000Y-101720000D02*
G01*
X171450000Y-101720000D01*
X171450000Y-100320000D01*
X173550000Y-100320000D01*
X173550000Y-101720000D01*
G37*
G36*
X182650000Y-101720000D02*
G01*
X180550000Y-101720000D01*
X180550000Y-100320000D01*
X182650000Y-100320000D01*
X182650000Y-101720000D01*
G37*
G36*
X126376537Y-100515224D02*
G01*
X126441421Y-100558579D01*
X126484776Y-100623463D01*
X126500000Y-100700000D01*
X126500000Y-101100000D01*
X126484776Y-101176537D01*
X126441421Y-101241421D01*
X126376537Y-101284776D01*
X126300000Y-101300000D01*
X125750000Y-101300000D01*
X125673463Y-101284776D01*
X125608579Y-101241421D01*
X125565224Y-101176537D01*
X125550000Y-101100000D01*
X125550000Y-100700000D01*
X125565224Y-100623463D01*
X125608579Y-100558579D01*
X125673463Y-100515224D01*
X125750000Y-100500000D01*
X126300000Y-100500000D01*
X126376537Y-100515224D01*
G37*
G36*
X127851537Y-100515224D02*
G01*
X127916421Y-100558579D01*
X127959776Y-100623463D01*
X127975000Y-100700000D01*
X127975000Y-101100000D01*
X127959776Y-101176537D01*
X127916421Y-101241421D01*
X127851537Y-101284776D01*
X127775000Y-101300000D01*
X127225000Y-101300000D01*
X127148463Y-101284776D01*
X127083579Y-101241421D01*
X127040224Y-101176537D01*
X127025000Y-101100000D01*
X127025000Y-100700000D01*
X127040224Y-100623463D01*
X127083579Y-100558579D01*
X127148463Y-100515224D01*
X127225000Y-100500000D01*
X127775000Y-100500000D01*
X127851537Y-100515224D01*
G37*
G36*
X143500000Y-98205000D02*
G01*
X143300000Y-98205000D01*
X143300000Y-97675000D01*
X143500000Y-97675000D01*
X143500000Y-98205000D01*
G37*
G36*
X144000000Y-98205000D02*
G01*
X143800000Y-98205000D01*
X143800000Y-97675000D01*
X144000000Y-97675000D01*
X144000000Y-98205000D01*
G37*
G36*
X144500000Y-98205000D02*
G01*
X144300000Y-98205000D01*
X144300000Y-97675000D01*
X144500000Y-97675000D01*
X144500000Y-98205000D01*
G37*
G36*
X127104961Y-96991651D02*
G01*
X127175929Y-97039070D01*
X127223348Y-97110038D01*
X127239999Y-97193750D01*
X127239999Y-97706250D01*
X127223348Y-97789962D01*
X127175929Y-97860930D01*
X127104961Y-97908349D01*
X127021249Y-97925000D01*
X126583749Y-97925000D01*
X126500037Y-97908349D01*
X126429069Y-97860930D01*
X126381650Y-97789962D01*
X126364999Y-97706250D01*
X126364999Y-97193750D01*
X126381650Y-97110038D01*
X126429069Y-97039070D01*
X126500037Y-96991651D01*
X126583749Y-96975000D01*
X127021249Y-96975000D01*
X127104961Y-96991651D01*
G37*
G36*
X128679963Y-96991651D02*
G01*
X128750931Y-97039070D01*
X128798350Y-97110038D01*
X128815001Y-97193750D01*
X128815001Y-97706250D01*
X128798350Y-97789962D01*
X128750931Y-97860930D01*
X128679963Y-97908349D01*
X128596251Y-97925000D01*
X128158751Y-97925000D01*
X128075039Y-97908349D01*
X128004071Y-97860930D01*
X127956652Y-97789962D01*
X127940001Y-97706250D01*
X127940001Y-97193750D01*
X127956652Y-97110038D01*
X128004071Y-97039070D01*
X128075039Y-96991651D01*
X128158751Y-96975000D01*
X128596251Y-96975000D01*
X128679963Y-96991651D01*
G37*
G36*
X116466319Y-97064817D02*
G01*
X116495139Y-97064817D01*
X116517341Y-97072897D01*
X116539686Y-97076437D01*
X116571247Y-97092518D01*
X116602900Y-97104039D01*
X116616878Y-97115768D01*
X116631591Y-97123265D01*
X116661728Y-97153402D01*
X116690748Y-97177753D01*
X116697126Y-97188800D01*
X116704535Y-97196209D01*
X116728056Y-97242372D01*
X116748087Y-97277066D01*
X116749332Y-97284128D01*
X116751363Y-97288114D01*
X116763086Y-97362132D01*
X116768000Y-97390001D01*
X116763085Y-97417872D01*
X116751363Y-97491887D01*
X116749332Y-97495871D01*
X116748087Y-97502936D01*
X116728052Y-97537636D01*
X116704535Y-97583792D01*
X116697127Y-97591199D01*
X116690748Y-97602249D01*
X116661722Y-97626604D01*
X116631591Y-97656736D01*
X116616881Y-97664230D01*
X116602900Y-97675963D01*
X116571240Y-97687486D01*
X116539686Y-97703564D01*
X116517345Y-97707102D01*
X116495139Y-97715185D01*
X116466313Y-97715185D01*
X116437800Y-97719701D01*
X116409287Y-97715185D01*
X116380461Y-97715185D01*
X116358254Y-97707102D01*
X116335913Y-97703564D01*
X116304356Y-97687484D01*
X116272700Y-97675963D01*
X116258719Y-97664231D01*
X116244008Y-97656736D01*
X116213871Y-97626599D01*
X116184852Y-97602249D01*
X116178473Y-97591201D01*
X116171064Y-97583792D01*
X116147539Y-97537621D01*
X116127513Y-97502936D01*
X116126267Y-97495874D01*
X116124236Y-97491887D01*
X116112504Y-97417816D01*
X116107600Y-97390001D01*
X116112504Y-97362188D01*
X116124236Y-97288114D01*
X116126268Y-97284125D01*
X116127513Y-97277066D01*
X116147534Y-97242387D01*
X116171064Y-97196209D01*
X116178475Y-97188797D01*
X116184852Y-97177753D01*
X116213865Y-97153407D01*
X116244008Y-97123265D01*
X116258722Y-97115767D01*
X116272700Y-97104039D01*
X116304349Y-97092519D01*
X116335913Y-97076437D01*
X116358259Y-97072897D01*
X116380461Y-97064817D01*
X116409280Y-97064817D01*
X116437800Y-97060300D01*
X116466319Y-97064817D01*
G37*
G36*
X143250000Y-97375000D02*
G01*
X143050000Y-97375000D01*
X143050000Y-96845000D01*
X143250000Y-96845000D01*
X143250000Y-97375000D01*
G37*
G36*
X143750000Y-97375000D02*
G01*
X143550000Y-97375000D01*
X143550000Y-96845000D01*
X143750000Y-96845000D01*
X143750000Y-97375000D01*
G37*
G36*
X144250000Y-97375000D02*
G01*
X144050000Y-97375000D01*
X144050000Y-96845000D01*
X144250000Y-96845000D01*
X144250000Y-97375000D01*
G37*
G36*
X144750000Y-97375000D02*
G01*
X144550000Y-97375000D01*
X144550000Y-96845000D01*
X144750000Y-96845000D01*
X144750000Y-97375000D01*
G37*
G36*
X127041537Y-95530224D02*
G01*
X127106421Y-95573579D01*
X127149776Y-95638463D01*
X127165000Y-95715000D01*
X127165000Y-96265000D01*
X127149776Y-96341537D01*
X127106421Y-96406421D01*
X127041537Y-96449776D01*
X126965000Y-96465000D01*
X126565000Y-96465000D01*
X126488463Y-96449776D01*
X126423579Y-96406421D01*
X126380224Y-96341537D01*
X126365000Y-96265000D01*
X126365000Y-95715000D01*
X126380224Y-95638463D01*
X126423579Y-95573579D01*
X126488463Y-95530224D01*
X126565000Y-95515000D01*
X126965000Y-95515000D01*
X127041537Y-95530224D01*
G37*
G36*
X128691537Y-95530224D02*
G01*
X128756421Y-95573579D01*
X128799776Y-95638463D01*
X128815000Y-95715000D01*
X128815000Y-96265000D01*
X128799776Y-96341537D01*
X128756421Y-96406421D01*
X128691537Y-96449776D01*
X128615000Y-96465000D01*
X128215000Y-96465000D01*
X128138463Y-96449776D01*
X128073579Y-96406421D01*
X128030224Y-96341537D01*
X128015000Y-96265000D01*
X128015000Y-95715000D01*
X128030224Y-95638463D01*
X128073579Y-95573579D01*
X128138463Y-95530224D01*
X128215000Y-95515000D01*
X128615000Y-95515000D01*
X128691537Y-95530224D01*
G37*
G36*
X127104961Y-93991651D02*
G01*
X127175929Y-94039070D01*
X127223348Y-94110038D01*
X127239999Y-94193750D01*
X127239999Y-94706250D01*
X127223348Y-94789962D01*
X127175929Y-94860930D01*
X127104961Y-94908349D01*
X127021249Y-94925000D01*
X126583749Y-94925000D01*
X126500037Y-94908349D01*
X126429069Y-94860930D01*
X126381650Y-94789962D01*
X126364999Y-94706250D01*
X126364999Y-94193750D01*
X126381650Y-94110038D01*
X126429069Y-94039070D01*
X126500037Y-93991651D01*
X126583749Y-93975000D01*
X127021249Y-93975000D01*
X127104961Y-93991651D01*
G37*
G36*
X128679963Y-93991651D02*
G01*
X128750931Y-94039070D01*
X128798350Y-94110038D01*
X128815001Y-94193750D01*
X128815001Y-94706250D01*
X128798350Y-94789962D01*
X128750931Y-94860930D01*
X128679963Y-94908349D01*
X128596251Y-94925000D01*
X128158751Y-94925000D01*
X128075039Y-94908349D01*
X128004071Y-94860930D01*
X127956652Y-94789962D01*
X127940001Y-94706250D01*
X127940001Y-94193750D01*
X127956652Y-94110038D01*
X128004071Y-94039070D01*
X128075039Y-93991651D01*
X128158751Y-93975000D01*
X128596251Y-93975000D01*
X128679963Y-93991651D01*
G37*
G36*
X139525014Y-94109950D02*
G01*
X138775014Y-94109950D01*
X138775014Y-92859950D01*
X139525014Y-92859950D01*
X139525014Y-94109950D01*
G37*
G36*
X140475014Y-94109950D02*
G01*
X139725014Y-94109950D01*
X139725014Y-92859950D01*
X140475014Y-92859950D01*
X140475014Y-94109950D01*
G37*
G36*
X141575014Y-94109950D02*
G01*
X140825014Y-94109950D01*
X140825014Y-92859950D01*
X141575014Y-92859950D01*
X141575014Y-94109950D01*
G37*
G36*
X142675015Y-94109950D02*
G01*
X141925015Y-94109950D01*
X141925015Y-92859950D01*
X142675015Y-92859950D01*
X142675015Y-94109950D01*
G37*
G36*
X143775015Y-94109950D02*
G01*
X143025015Y-94109950D01*
X143025015Y-92859950D01*
X143775015Y-92859950D01*
X143775015Y-94109950D01*
G37*
G36*
X144875013Y-94109950D02*
G01*
X144125013Y-94109950D01*
X144125013Y-92859950D01*
X144875013Y-92859950D01*
X144875013Y-94109950D01*
G37*
G36*
X145975013Y-94109950D02*
G01*
X145225013Y-94109950D01*
X145225013Y-92859950D01*
X145975013Y-92859950D01*
X145975013Y-94109950D01*
G37*
G36*
X147075014Y-94109950D02*
G01*
X146325014Y-94109950D01*
X146325014Y-92859950D01*
X147075014Y-92859950D01*
X147075014Y-94109950D01*
G37*
G36*
X148175014Y-94109950D02*
G01*
X147425014Y-94109950D01*
X147425014Y-92859950D01*
X148175014Y-92859950D01*
X148175014Y-94109950D01*
G37*
G36*
X149875054Y-94109950D02*
G01*
X148825054Y-94109950D01*
X148825054Y-92859950D01*
X149875054Y-92859950D01*
X149875054Y-94109950D01*
G37*
G36*
X127041537Y-92530224D02*
G01*
X127106421Y-92573579D01*
X127149776Y-92638463D01*
X127165000Y-92715000D01*
X127165000Y-93265000D01*
X127149776Y-93341537D01*
X127106421Y-93406421D01*
X127041537Y-93449776D01*
X126965000Y-93465000D01*
X126565000Y-93465000D01*
X126488463Y-93449776D01*
X126423579Y-93406421D01*
X126380224Y-93341537D01*
X126365000Y-93265000D01*
X126365000Y-92715000D01*
X126380224Y-92638463D01*
X126423579Y-92573579D01*
X126488463Y-92530224D01*
X126565000Y-92515000D01*
X126965000Y-92515000D01*
X127041537Y-92530224D01*
G37*
G36*
X128691537Y-92530224D02*
G01*
X128756421Y-92573579D01*
X128799776Y-92638463D01*
X128815000Y-92715000D01*
X128815000Y-93265000D01*
X128799776Y-93341537D01*
X128756421Y-93406421D01*
X128691537Y-93449776D01*
X128615000Y-93465000D01*
X128215000Y-93465000D01*
X128138463Y-93449776D01*
X128073579Y-93406421D01*
X128030224Y-93341537D01*
X128015000Y-93265000D01*
X128015000Y-92715000D01*
X128030224Y-92638463D01*
X128073579Y-92573579D01*
X128138463Y-92530224D01*
X128215000Y-92515000D01*
X128615000Y-92515000D01*
X128691537Y-92530224D01*
G37*
G36*
X116466319Y-91284815D02*
G01*
X116495139Y-91284815D01*
X116517341Y-91292895D01*
X116539686Y-91296435D01*
X116571247Y-91312516D01*
X116602900Y-91324037D01*
X116616878Y-91335766D01*
X116631591Y-91343263D01*
X116661728Y-91373400D01*
X116690748Y-91397751D01*
X116697126Y-91408798D01*
X116704535Y-91416207D01*
X116728056Y-91462370D01*
X116748087Y-91497064D01*
X116749332Y-91504126D01*
X116751363Y-91508112D01*
X116763086Y-91582130D01*
X116768000Y-91609999D01*
X116763085Y-91637870D01*
X116751363Y-91711885D01*
X116749332Y-91715869D01*
X116748087Y-91722934D01*
X116728052Y-91757634D01*
X116704535Y-91803790D01*
X116697127Y-91811197D01*
X116690748Y-91822247D01*
X116661722Y-91846602D01*
X116631591Y-91876734D01*
X116616881Y-91884228D01*
X116602900Y-91895961D01*
X116571240Y-91907484D01*
X116539686Y-91923562D01*
X116517345Y-91927100D01*
X116495139Y-91935183D01*
X116466313Y-91935183D01*
X116437800Y-91939699D01*
X116409287Y-91935183D01*
X116380461Y-91935183D01*
X116358254Y-91927100D01*
X116335913Y-91923562D01*
X116304356Y-91907482D01*
X116272700Y-91895961D01*
X116258719Y-91884229D01*
X116244008Y-91876734D01*
X116213871Y-91846597D01*
X116184852Y-91822247D01*
X116178473Y-91811199D01*
X116171064Y-91803790D01*
X116147539Y-91757619D01*
X116127513Y-91722934D01*
X116126267Y-91715872D01*
X116124236Y-91711885D01*
X116112504Y-91637814D01*
X116107600Y-91609999D01*
X116112504Y-91582186D01*
X116124236Y-91508112D01*
X116126268Y-91504123D01*
X116127513Y-91497064D01*
X116147534Y-91462385D01*
X116171064Y-91416207D01*
X116178475Y-91408795D01*
X116184852Y-91397751D01*
X116213865Y-91373405D01*
X116244008Y-91343263D01*
X116258722Y-91335765D01*
X116272700Y-91324037D01*
X116304349Y-91312517D01*
X116335913Y-91296435D01*
X116358259Y-91292895D01*
X116380461Y-91284815D01*
X116409280Y-91284815D01*
X116437800Y-91280298D01*
X116466319Y-91284815D01*
G37*
G36*
X127104961Y-90991651D02*
G01*
X127175929Y-91039070D01*
X127223348Y-91110038D01*
X127239999Y-91193750D01*
X127239999Y-91706250D01*
X127223348Y-91789962D01*
X127175929Y-91860930D01*
X127104961Y-91908349D01*
X127021249Y-91925000D01*
X126583749Y-91925000D01*
X126500037Y-91908349D01*
X126429069Y-91860930D01*
X126381650Y-91789962D01*
X126364999Y-91706250D01*
X126364999Y-91193750D01*
X126381650Y-91110038D01*
X126429069Y-91039070D01*
X126500037Y-90991651D01*
X126583749Y-90975000D01*
X127021249Y-90975000D01*
X127104961Y-90991651D01*
G37*
G36*
X128679963Y-90991651D02*
G01*
X128750931Y-91039070D01*
X128798350Y-91110038D01*
X128815001Y-91193750D01*
X128815001Y-91706250D01*
X128798350Y-91789962D01*
X128750931Y-91860930D01*
X128679963Y-91908349D01*
X128596251Y-91925000D01*
X128158751Y-91925000D01*
X128075039Y-91908349D01*
X128004071Y-91860930D01*
X127956652Y-91789962D01*
X127940001Y-91706250D01*
X127940001Y-91193750D01*
X127956652Y-91110038D01*
X128004071Y-91039070D01*
X128075039Y-90991651D01*
X128158751Y-90975000D01*
X128596251Y-90975000D01*
X128679963Y-90991651D01*
G37*
G36*
X155120000Y-91325000D02*
G01*
X153720000Y-91325000D01*
X153720000Y-89225000D01*
X155120000Y-89225000D01*
X155120000Y-91325000D01*
G37*
G36*
X159580000Y-91325000D02*
G01*
X158180000Y-91325000D01*
X158180000Y-89225000D01*
X159580000Y-89225000D01*
X159580000Y-91325000D01*
G37*
G36*
X127041537Y-89530224D02*
G01*
X127106421Y-89573579D01*
X127149776Y-89638463D01*
X127165000Y-89715000D01*
X127165000Y-90265000D01*
X127149776Y-90341537D01*
X127106421Y-90406421D01*
X127041537Y-90449776D01*
X126965000Y-90465000D01*
X126565000Y-90465000D01*
X126488463Y-90449776D01*
X126423579Y-90406421D01*
X126380224Y-90341537D01*
X126365000Y-90265000D01*
X126365000Y-89715000D01*
X126380224Y-89638463D01*
X126423579Y-89573579D01*
X126488463Y-89530224D01*
X126565000Y-89515000D01*
X126965000Y-89515000D01*
X127041537Y-89530224D01*
G37*
G36*
X128691537Y-89530224D02*
G01*
X128756421Y-89573579D01*
X128799776Y-89638463D01*
X128815000Y-89715000D01*
X128815000Y-90265000D01*
X128799776Y-90341537D01*
X128756421Y-90406421D01*
X128691537Y-90449776D01*
X128615000Y-90465000D01*
X128215000Y-90465000D01*
X128138463Y-90449776D01*
X128073579Y-90406421D01*
X128030224Y-90341537D01*
X128015000Y-90265000D01*
X128015000Y-89715000D01*
X128030224Y-89638463D01*
X128073579Y-89573579D01*
X128138463Y-89530224D01*
X128215000Y-89515000D01*
X128615000Y-89515000D01*
X128691537Y-89530224D01*
G37*
G36*
X138699962Y-89784951D02*
G01*
X137699962Y-89784951D01*
X137699962Y-88584951D01*
X138699962Y-88584951D01*
X138699962Y-89784951D01*
G37*
G36*
X173550000Y-88655000D02*
G01*
X171450000Y-88655000D01*
X171450000Y-87255000D01*
X173550000Y-87255000D01*
X173550000Y-88655000D01*
G37*
G36*
X182650000Y-88655000D02*
G01*
X180550000Y-88655000D01*
X180550000Y-87255000D01*
X182650000Y-87255000D01*
X182650000Y-88655000D01*
G37*
G36*
X173550000Y-84195000D02*
G01*
X171450000Y-84195000D01*
X171450000Y-82795000D01*
X173550000Y-82795000D01*
X173550000Y-84195000D01*
G37*
G36*
X182650000Y-84195000D02*
G01*
X180550000Y-84195000D01*
X180550000Y-82795000D01*
X182650000Y-82795000D01*
X182650000Y-84195000D01*
G37*
G36*
X138724962Y-83409950D02*
G01*
X137674962Y-83409950D01*
X137674962Y-82559950D01*
X138724962Y-82559950D01*
X138724962Y-83409950D01*
G37*
G36*
X155120000Y-82225000D02*
G01*
X153720000Y-82225000D01*
X153720000Y-80125000D01*
X155120000Y-80125000D01*
X155120000Y-82225000D01*
G37*
G36*
X159580000Y-82225000D02*
G01*
X158180000Y-82225000D01*
X158180000Y-80125000D01*
X159580000Y-80125000D01*
X159580000Y-82225000D01*
G37*
G36*
X132650000Y-81325000D02*
G01*
X131000000Y-81325000D01*
X131000000Y-79675000D01*
X132650000Y-79675000D01*
X132650000Y-81325000D01*
G37*
G36*
X135579939Y-79715378D02*
G01*
X135737500Y-79785529D01*
X135877033Y-79886906D01*
X135992439Y-80015077D01*
X136078675Y-80164442D01*
X136131972Y-80328473D01*
X136150000Y-80500000D01*
X136131972Y-80671527D01*
X136078675Y-80835558D01*
X135992439Y-80984923D01*
X135877033Y-81113094D01*
X135737500Y-81214471D01*
X135579939Y-81284622D01*
X135411236Y-81320481D01*
X135238764Y-81320481D01*
X135070061Y-81284622D01*
X134912500Y-81214471D01*
X134772967Y-81113094D01*
X134657561Y-80984923D01*
X134571325Y-80835558D01*
X134518028Y-80671527D01*
X134500000Y-80500000D01*
X134518028Y-80328473D01*
X134571325Y-80164442D01*
X134657561Y-80015077D01*
X134772967Y-79886906D01*
X134912500Y-79785529D01*
X135070061Y-79715378D01*
X135238764Y-79679519D01*
X135411236Y-79679519D01*
X135579939Y-79715378D01*
G37*
G36*
X114139412Y-77543876D02*
G01*
X114389347Y-77620971D01*
X114625000Y-77734456D01*
X114841107Y-77881795D01*
X115032841Y-78059698D01*
X115195918Y-78264190D01*
X115326696Y-78490703D01*
X115422252Y-78734178D01*
X115480454Y-78989176D01*
X115500000Y-79250000D01*
X115480454Y-79510824D01*
X115422252Y-79765822D01*
X115326696Y-80009297D01*
X115195918Y-80235810D01*
X115032841Y-80440302D01*
X114841107Y-80618205D01*
X114625000Y-80765544D01*
X114389347Y-80879029D01*
X114139412Y-80956124D01*
X113880778Y-80995107D01*
X113619222Y-80995107D01*
X113360588Y-80956124D01*
X113110653Y-80879029D01*
X112875000Y-80765544D01*
X112658893Y-80618205D01*
X112467159Y-80440302D01*
X112304082Y-80235810D01*
X112173304Y-80009297D01*
X112077748Y-79765822D01*
X112019546Y-79510824D01*
X112000000Y-79250000D01*
X112019546Y-78989176D01*
X112077748Y-78734178D01*
X112173304Y-78490703D01*
X112304082Y-78264190D01*
X112467159Y-78059698D01*
X112658893Y-77881795D01*
X112875000Y-77734456D01*
X113110653Y-77620971D01*
X113360588Y-77543876D01*
X113619222Y-77504893D01*
X113880778Y-77504893D01*
X114139412Y-77543876D01*
G37*
G36*
X183889412Y-77543876D02*
G01*
X184139347Y-77620971D01*
X184375000Y-77734456D01*
X184591107Y-77881795D01*
X184782841Y-78059698D01*
X184945918Y-78264190D01*
X185076696Y-78490703D01*
X185172252Y-78734178D01*
X185230454Y-78989176D01*
X185250000Y-79250000D01*
X185230454Y-79510824D01*
X185172252Y-79765822D01*
X185076696Y-80009297D01*
X184945918Y-80235810D01*
X184782841Y-80440302D01*
X184591107Y-80618205D01*
X184375000Y-80765544D01*
X184139347Y-80879029D01*
X183889412Y-80956124D01*
X183630778Y-80995107D01*
X183369222Y-80995107D01*
X183110588Y-80956124D01*
X182860653Y-80879029D01*
X182625000Y-80765544D01*
X182408893Y-80618205D01*
X182217159Y-80440302D01*
X182054082Y-80235810D01*
X181923304Y-80009297D01*
X181827748Y-79765822D01*
X181769546Y-79510824D01*
X181750000Y-79250000D01*
X181769546Y-78989176D01*
X181827748Y-78734178D01*
X181923304Y-78490703D01*
X182054082Y-78264190D01*
X182217159Y-78059698D01*
X182408893Y-77881795D01*
X182625000Y-77734456D01*
X182860653Y-77620971D01*
X183110588Y-77543876D01*
X183369222Y-77504893D01*
X183630778Y-77504893D01*
X183889412Y-77543876D01*
G37*
G36*
X138724962Y-80259948D02*
G01*
X137674962Y-80259948D01*
X137674962Y-77409948D01*
X138724962Y-77409948D01*
X138724962Y-80259948D01*
G37*
G36*
X172550000Y-79650000D02*
G01*
X170850000Y-79650000D01*
X170850000Y-77950000D01*
X172550000Y-77950000D01*
X172550000Y-79650000D01*
G37*
G36*
X174502664Y-77991602D02*
G01*
X174665000Y-78063878D01*
X174808761Y-78168327D01*
X174927664Y-78300383D01*
X175016514Y-78454274D01*
X175071425Y-78623275D01*
X175090000Y-78800000D01*
X175071425Y-78976725D01*
X175016514Y-79145726D01*
X174927664Y-79299617D01*
X174808761Y-79431673D01*
X174665000Y-79536122D01*
X174502664Y-79608398D01*
X174328849Y-79645344D01*
X174151151Y-79645344D01*
X173977336Y-79608398D01*
X173815000Y-79536122D01*
X173671239Y-79431673D01*
X173552336Y-79299617D01*
X173463486Y-79145726D01*
X173408575Y-78976725D01*
X173390000Y-78800000D01*
X173408575Y-78623275D01*
X173463486Y-78454274D01*
X173552336Y-78300383D01*
X173671239Y-78168327D01*
X173815000Y-78063878D01*
X173977336Y-77991602D01*
X174151151Y-77954656D01*
X174328849Y-77954656D01*
X174502664Y-77991602D01*
G37*
G36*
X177042664Y-77991602D02*
G01*
X177205000Y-78063878D01*
X177348761Y-78168327D01*
X177467664Y-78300383D01*
X177556514Y-78454274D01*
X177611425Y-78623275D01*
X177630000Y-78800000D01*
X177611425Y-78976725D01*
X177556514Y-79145726D01*
X177467664Y-79299617D01*
X177348761Y-79431673D01*
X177205000Y-79536122D01*
X177042664Y-79608398D01*
X176868849Y-79645344D01*
X176691151Y-79645344D01*
X176517336Y-79608398D01*
X176355000Y-79536122D01*
X176211239Y-79431673D01*
X176092336Y-79299617D01*
X176003486Y-79145726D01*
X175948575Y-78976725D01*
X175930000Y-78800000D01*
X175948575Y-78623275D01*
X176003486Y-78454274D01*
X176092336Y-78300383D01*
X176211239Y-78168327D01*
X176355000Y-78063878D01*
X176517336Y-77991602D01*
X176691151Y-77954656D01*
X176868849Y-77954656D01*
X177042664Y-77991602D01*
G37*
G36*
X179582664Y-77991602D02*
G01*
X179745000Y-78063878D01*
X179888761Y-78168327D01*
X180007664Y-78300383D01*
X180096514Y-78454274D01*
X180151425Y-78623275D01*
X180170000Y-78800000D01*
X180151425Y-78976725D01*
X180096514Y-79145726D01*
X180007664Y-79299617D01*
X179888761Y-79431673D01*
X179745000Y-79536122D01*
X179582664Y-79608398D01*
X179408849Y-79645344D01*
X179231151Y-79645344D01*
X179057336Y-79608398D01*
X178895000Y-79536122D01*
X178751239Y-79431673D01*
X178632336Y-79299617D01*
X178543486Y-79145726D01*
X178488575Y-78976725D01*
X178470000Y-78800000D01*
X178488575Y-78623275D01*
X178543486Y-78454274D01*
X178632336Y-78300383D01*
X178751239Y-78168327D01*
X178895000Y-78063878D01*
X179057336Y-77991602D01*
X179231151Y-77954656D01*
X179408849Y-77954656D01*
X179582664Y-77991602D01*
G37*
G36*
X152374935Y-79359949D02*
G01*
X151024935Y-79359949D01*
X151024935Y-77409949D01*
X152374935Y-77409949D01*
X152374935Y-79359949D01*
G37*
M02*
