%TF.GenerationSoftware,KiCad,Pcbnew,8.0.2*%
%TF.CreationDate,2024-06-21T01:26:05+01:00*%
%TF.ProjectId,ESP32S3_PCB_V1,45535033-3253-4335-9f50-43425f56312e,1*%
%TF.SameCoordinates,Original*%
%TF.FileFunction,Paste,Top*%
%TF.FilePolarity,Positive*%
%FSLAX46Y46*%
G04 Gerber Fmt 4.6, Leading zero omitted, Abs format (unit mm)*
G04 Created by KiCad (PCBNEW 8.0.2) date 2024-06-21 01:26:05*
%MOMM*%
%LPD*%
G01*
G04 APERTURE LIST*
G04 Aperture macros list*
%AMRoundRect*
0 Rectangle with rounded corners*
0 $1 Rounding radius*
0 $2 $3 $4 $5 $6 $7 $8 $9 X,Y pos of 4 corners*
0 Add a 4 corners polygon primitive as box body*
4,1,4,$2,$3,$4,$5,$6,$7,$8,$9,$2,$3,0*
0 Add four circle primitives for the rounded corners*
1,1,$1+$1,$2,$3*
1,1,$1+$1,$4,$5*
1,1,$1+$1,$6,$7*
1,1,$1+$1,$8,$9*
0 Add four rect primitives between the rounded corners*
20,1,$1+$1,$2,$3,$4,$5,0*
20,1,$1+$1,$4,$5,$6,$7,0*
20,1,$1+$1,$6,$7,$8,$9,0*
20,1,$1+$1,$8,$9,$2,$3,0*%
G04 Aperture macros list end*
%ADD10C,0.100000*%
%ADD11RoundRect,0.225000X0.225000X0.250000X-0.225000X0.250000X-0.225000X-0.250000X0.225000X-0.250000X0*%
%ADD12RoundRect,0.200000X-0.275000X0.200000X-0.275000X-0.200000X0.275000X-0.200000X0.275000X0.200000X0*%
%ADD13RoundRect,0.200000X0.275000X-0.200000X0.275000X0.200000X-0.275000X0.200000X-0.275000X-0.200000X0*%
%ADD14R,0.350000X0.800000*%
%ADD15R,2.500000X1.750000*%
%ADD16RoundRect,0.225000X-0.250000X0.225000X-0.250000X-0.225000X0.250000X-0.225000X0.250000X0.225000X0*%
%ADD17RoundRect,0.225000X-0.225000X-0.250000X0.225000X-0.250000X0.225000X0.250000X-0.225000X0.250000X0*%
%ADD18R,0.201598X0.634200*%
%ADD19R,0.203200X0.660400*%
%ADD20R,0.634200X0.203200*%
%ADD21R,0.660400X0.203200*%
%ADD22R,0.634200X0.201598*%
%ADD23R,0.203198X0.634200*%
%ADD24R,0.203200X0.634200*%
%ADD25RoundRect,0.200000X0.200000X0.275000X-0.200000X0.275000X-0.200000X-0.275000X0.200000X-0.275000X0*%
%ADD26R,2.100000X1.400000*%
%ADD27RoundRect,0.225000X0.250000X-0.225000X0.250000X0.225000X-0.250000X0.225000X-0.250000X-0.225000X0*%
%ADD28RoundRect,0.135000X0.135000X0.185000X-0.135000X0.185000X-0.135000X-0.185000X0.135000X-0.185000X0*%
%ADD29RoundRect,0.147500X-0.147500X-0.172500X0.147500X-0.172500X0.147500X0.172500X-0.147500X0.172500X0*%
%ADD30RoundRect,0.250000X0.285000X0.285000X-0.285000X0.285000X-0.285000X-0.285000X0.285000X-0.285000X0*%
%ADD31RoundRect,0.050000X0.350000X0.050000X-0.350000X0.050000X-0.350000X-0.050000X0.350000X-0.050000X0*%
%ADD32RoundRect,0.050000X0.050000X0.350000X-0.050000X0.350000X-0.050000X-0.350000X0.050000X-0.350000X0*%
%ADD33R,1.000000X1.000000*%
%ADD34R,0.800000X0.249999*%
%ADD35R,0.700001X0.249999*%
%ADD36RoundRect,0.147500X0.172500X-0.147500X0.172500X0.147500X-0.172500X0.147500X-0.172500X-0.147500X0*%
%ADD37RoundRect,0.140000X-0.170000X0.140000X-0.170000X-0.140000X0.170000X-0.140000X0.170000X0.140000X0*%
%ADD38R,0.300000X0.620000*%
%ADD39R,1.000000X0.900000*%
%ADD40RoundRect,0.093750X-0.156250X-0.093750X0.156250X-0.093750X0.156250X0.093750X-0.156250X0.093750X0*%
%ADD41RoundRect,0.075000X-0.250000X-0.075000X0.250000X-0.075000X0.250000X0.075000X-0.250000X0.075000X0*%
%ADD42R,2.006600X2.159000*%
%ADD43R,1.126000X0.609600*%
%ADD44R,1.143000X0.304800*%
%ADD45R,0.175000X0.600000*%
%ADD46R,0.175000X0.500000*%
%ADD47RoundRect,0.200000X-0.200000X-0.275000X0.200000X-0.275000X0.200000X0.275000X-0.200000X0.275000X0*%
%ADD48RoundRect,0.250000X0.615000X-0.435000X0.615000X0.435000X-0.615000X0.435000X-0.615000X-0.435000X0*%
%ADD49RoundRect,0.125000X0.125000X-0.250000X0.125000X0.250000X-0.125000X0.250000X-0.125000X-0.250000X0*%
%ADD50R,1.925000X1.475000*%
%ADD51RoundRect,0.200000X-0.053033X0.335876X-0.335876X0.053033X0.053033X-0.335876X0.335876X-0.053033X0*%
G04 APERTURE END LIST*
%TO.C,U7*%
D10*
X177000000Y-97100000D02*
X173000000Y-97100000D01*
X173000000Y-93100000D01*
X177000000Y-93100000D01*
X177000000Y-97100000D01*
G36*
X177000000Y-97100000D02*
G01*
X173000000Y-97100000D01*
X173000000Y-93100000D01*
X177000000Y-93100000D01*
X177000000Y-97100000D01*
G37*
%TO.C,U3*%
X129600000Y-98565000D02*
X128750000Y-98565000D01*
X128750000Y-97185000D01*
X129600000Y-97185000D01*
X129600000Y-98565000D01*
G36*
X129600000Y-98565000D02*
G01*
X128750000Y-98565000D01*
X128750000Y-97185000D01*
X129600000Y-97185000D01*
X129600000Y-98565000D01*
G37*
%TO.C,U10*%
X161497500Y-94047500D02*
X165802500Y-94047500D01*
X165802500Y-90652500D01*
X161497500Y-90652500D01*
X161497500Y-94047500D01*
G36*
X161497500Y-94047500D02*
G01*
X165802500Y-94047500D01*
X165802500Y-90652500D01*
X161497500Y-90652500D01*
X161497500Y-94047500D01*
G37*
%TD*%
D11*
%TO.C,C11*%
X161775000Y-88275000D03*
X160225000Y-88275000D03*
%TD*%
D12*
%TO.C,R23*%
X151125000Y-86450000D03*
X151125000Y-88100000D03*
%TD*%
D11*
%TO.C,C16*%
X173450000Y-100950000D03*
X171900000Y-100950000D03*
%TD*%
D13*
%TO.C,R4*%
X134300000Y-89275000D03*
X134300000Y-87625000D03*
%TD*%
D14*
%TO.C,U4*%
X133562500Y-90600000D03*
X132912500Y-90600000D03*
X132262500Y-90600000D03*
X131612500Y-90600000D03*
X131612500Y-93600000D03*
X132262500Y-93600000D03*
X132912500Y-93600000D03*
X133562500Y-93600000D03*
D15*
X132587500Y-92100000D03*
%TD*%
D16*
%TO.C,C8*%
X130550000Y-99900000D03*
X130550000Y-101450000D03*
%TD*%
D13*
%TO.C,R12*%
X142610000Y-87625000D03*
X142610000Y-85975000D03*
%TD*%
D17*
%TO.C,C17*%
X151645000Y-97510000D03*
X153195000Y-97510000D03*
%TD*%
D11*
%TO.C,C10*%
X132850000Y-89225000D03*
X131300000Y-89225000D03*
%TD*%
D18*
%TO.C,U6*%
X153649200Y-92962900D03*
D19*
X153249999Y-92976000D03*
X152850000Y-92976000D03*
X152450000Y-92976000D03*
X152050001Y-92976000D03*
D18*
X151650800Y-92962900D03*
D20*
X151112900Y-93499999D03*
D21*
X151126000Y-93900001D03*
X151126000Y-94300000D03*
X151126000Y-94700000D03*
X151126000Y-95099999D03*
D22*
X151112900Y-95499200D03*
D23*
X151650000Y-96037100D03*
D19*
X152050001Y-96024000D03*
X152450000Y-96024000D03*
X152850000Y-96024000D03*
X153249999Y-96024000D03*
D24*
X153650001Y-96037100D03*
D20*
X154187100Y-95500001D03*
D21*
X154174000Y-95099999D03*
X154174000Y-94700000D03*
X154174000Y-94300000D03*
X154174000Y-93900001D03*
D20*
X154187100Y-93499999D03*
%TD*%
D13*
%TO.C,R16*%
X155711395Y-94400000D03*
X155711395Y-92750000D03*
%TD*%
D25*
%TO.C,R31*%
X154175000Y-87900000D03*
X152525000Y-87900000D03*
%TD*%
D26*
%TO.C,BOOT*%
X117875000Y-105770000D03*
X126975000Y-105770000D03*
X117875000Y-110230000D03*
X126975000Y-110230000D03*
%TD*%
D27*
%TO.C,C31*%
X170400000Y-107665000D03*
X170400000Y-106115000D03*
%TD*%
D28*
%TO.C,R18*%
X169210000Y-91850000D03*
X168190000Y-91850000D03*
%TD*%
D17*
%TO.C,C24*%
X180775000Y-92720000D03*
X182325000Y-92720000D03*
%TD*%
D25*
%TO.C,R7*%
X129575000Y-95825000D03*
X127925000Y-95825000D03*
%TD*%
D29*
%TO.C,L3*%
X180715000Y-97700000D03*
X181685000Y-97700000D03*
%TD*%
D16*
%TO.C,C28*%
X171160000Y-83775000D03*
X171160000Y-85325000D03*
%TD*%
D12*
%TO.C,R28*%
X139675000Y-89175000D03*
X139675000Y-90825000D03*
%TD*%
D28*
%TO.C,R21*%
X169620000Y-95090000D03*
X168600000Y-95090000D03*
%TD*%
D16*
%TO.C,C12*%
X149600000Y-95750000D03*
X149600000Y-97300000D03*
%TD*%
D13*
%TO.C,R8*%
X125049998Y-96850001D03*
X125049998Y-95200001D03*
%TD*%
D30*
%TO.C,U7*%
X176330000Y-96430000D03*
X176330000Y-95100000D03*
X176330000Y-93770000D03*
X175000000Y-96430000D03*
X175000000Y-95100000D03*
X175000000Y-93770000D03*
X173670000Y-96430000D03*
X173670000Y-95100000D03*
X173670000Y-93770000D03*
D31*
X178450000Y-97700000D03*
X178450000Y-97300000D03*
X178450000Y-96900000D03*
X178450000Y-96500000D03*
X178450000Y-96100000D03*
X178450000Y-95700000D03*
X178450000Y-95300000D03*
X178450000Y-94900000D03*
X178450000Y-94500000D03*
X178450000Y-94100000D03*
X178450000Y-93700000D03*
X178450000Y-93300000D03*
X178450000Y-92900000D03*
X178450000Y-92500000D03*
D32*
X177600000Y-91650000D03*
X177200000Y-91650000D03*
X176800000Y-91650000D03*
X176400000Y-91650000D03*
X176000000Y-91650000D03*
X175600000Y-91650000D03*
X175200000Y-91650000D03*
X174800000Y-91650000D03*
X174400000Y-91650000D03*
X174000000Y-91650000D03*
X173600000Y-91650000D03*
X173200000Y-91650000D03*
X172800000Y-91650000D03*
X172400000Y-91650000D03*
D31*
X171550000Y-92500000D03*
X171550000Y-92900000D03*
X171550000Y-93300000D03*
X171550000Y-93700000D03*
X171550000Y-94100000D03*
X171550000Y-94500000D03*
X171550000Y-94900000D03*
X171550000Y-95300000D03*
X171550000Y-95700000D03*
X171550000Y-96100000D03*
X171550000Y-96500000D03*
X171550000Y-96900000D03*
X171550000Y-97300000D03*
X171550000Y-97700000D03*
D32*
X172400000Y-98550000D03*
X172800000Y-98550000D03*
X173200000Y-98550000D03*
X173600000Y-98550000D03*
X174000000Y-98550000D03*
X174400000Y-98550000D03*
X174800000Y-98550000D03*
X175200000Y-98550000D03*
X175600000Y-98550000D03*
X176000000Y-98550000D03*
X176400000Y-98550000D03*
X176800000Y-98550000D03*
X177200000Y-98550000D03*
X177600000Y-98550000D03*
D33*
X176500000Y-96600000D03*
X176500000Y-95100000D03*
X176500000Y-93600000D03*
X175000000Y-96600000D03*
X175000000Y-95100000D03*
X175000000Y-93600000D03*
X173500000Y-96600000D03*
X173500000Y-95100000D03*
X173500000Y-93600000D03*
%TD*%
D25*
%TO.C,R33*%
X154175000Y-86425000D03*
X152525000Y-86425000D03*
%TD*%
D16*
%TO.C,C29*%
X169685000Y-83775000D03*
X169685000Y-85325000D03*
%TD*%
D34*
%TO.C,U5*%
X158575000Y-89825000D03*
D35*
X158525001Y-90325000D03*
X158525001Y-90824999D03*
X159724999Y-90824999D03*
X159724999Y-90325000D03*
X159724999Y-89825001D03*
%TD*%
D17*
%TO.C,C32*%
X179925000Y-86600000D03*
X181475000Y-86600000D03*
%TD*%
D28*
%TO.C,R19*%
X169210000Y-93050000D03*
X168190000Y-93050000D03*
%TD*%
D17*
%TO.C,C25*%
X180775000Y-91260000D03*
X182325000Y-91260000D03*
%TD*%
D16*
%TO.C,C27*%
X178900000Y-103775000D03*
X178900000Y-105325000D03*
%TD*%
D17*
%TO.C,C9*%
X158625000Y-92175000D03*
X160175000Y-92175000D03*
%TD*%
%TO.C,C7*%
X179125000Y-84750000D03*
X180675000Y-84750000D03*
%TD*%
D11*
%TO.C,C14*%
X161775000Y-86810000D03*
X160225000Y-86810000D03*
%TD*%
D17*
%TO.C,C23*%
X180725000Y-96040000D03*
X182275000Y-96040000D03*
%TD*%
D27*
%TO.C,C4*%
X135120000Y-93645000D03*
X135120000Y-92095000D03*
%TD*%
D36*
%TO.C,L2*%
X176800000Y-100785000D03*
X176800000Y-99815000D03*
%TD*%
D28*
%TO.C,R20*%
X169210000Y-94000000D03*
X168190000Y-94000000D03*
%TD*%
D26*
%TO.C,RST*%
X126975000Y-83230000D03*
X117875000Y-83230000D03*
X126975000Y-78770000D03*
X117875000Y-78770000D03*
%TD*%
D12*
%TO.C,R29*%
X141149998Y-89175000D03*
X141149998Y-90825000D03*
%TD*%
D13*
%TO.C,R2*%
X114750000Y-86935000D03*
X114750000Y-85285000D03*
%TD*%
D37*
%TO.C,C21*%
X179800000Y-97695000D03*
X179800000Y-98655000D03*
%TD*%
D38*
%TO.C,Y2*%
X173100000Y-85790000D03*
X173800000Y-85790000D03*
X174500000Y-85790000D03*
X175200000Y-85790000D03*
X175900000Y-85790000D03*
X175900000Y-83910000D03*
X175200000Y-83910000D03*
X174500000Y-83910000D03*
X173800000Y-83910000D03*
X173100000Y-83910000D03*
%TD*%
D12*
%TO.C,R24*%
X142625000Y-89175000D03*
X142625000Y-90825000D03*
%TD*%
D16*
%TO.C,C15*%
X175100000Y-87825000D03*
X175100000Y-89375000D03*
%TD*%
D21*
%TO.C,U3*%
X130305300Y-98675100D03*
X130305300Y-98275050D03*
X130305300Y-97875000D03*
X130305300Y-97474950D03*
X130305300Y-97074900D03*
X128044700Y-97074900D03*
X128044700Y-97474950D03*
X128044700Y-97875000D03*
X128044700Y-98275050D03*
X128044700Y-98675100D03*
%TD*%
D39*
%TO.C,Y1*%
X176650000Y-103962000D03*
X175000000Y-103962000D03*
X175000000Y-105188000D03*
X176650000Y-105188000D03*
%TD*%
D27*
%TO.C,C30*%
X172750000Y-105325000D03*
X172750000Y-103775000D03*
%TD*%
D36*
%TO.C,L4*%
X180700000Y-94865000D03*
X180700000Y-93895000D03*
%TD*%
D16*
%TO.C,C20*%
X179725000Y-99925000D03*
X179725000Y-101475000D03*
%TD*%
D27*
%TO.C,C6*%
X132010000Y-98150000D03*
X132010000Y-96600000D03*
%TD*%
D16*
%TO.C,C13*%
X149600000Y-92200000D03*
X149600000Y-93750000D03*
%TD*%
D40*
%TO.C,U1*%
X142275000Y-105862500D03*
D41*
X142200000Y-106400000D03*
D40*
X142275000Y-106937500D03*
X143975000Y-106937500D03*
D41*
X144050000Y-106400000D03*
D40*
X143975000Y-105862500D03*
%TD*%
D12*
%TO.C,R26*%
X147049999Y-89175000D03*
X147049999Y-90825000D03*
%TD*%
D42*
%TO.C,J1*%
X116937800Y-89390000D03*
X116937800Y-99610000D03*
X113007800Y-89390000D03*
X113007800Y-99610000D03*
D43*
X117590000Y-91299999D03*
X117560000Y-92100000D03*
D44*
X117512800Y-93250000D03*
X117512800Y-94250000D03*
X117512800Y-94750000D03*
X117512800Y-95750000D03*
D43*
X117560000Y-96900000D03*
X117590000Y-97700000D03*
D44*
X117512800Y-96249999D03*
X117512800Y-95250001D03*
X117512800Y-93749999D03*
X117512800Y-92750001D03*
%TD*%
D45*
%TO.C,U8*%
X152850000Y-90550000D03*
D46*
X153200000Y-90600000D03*
X153550000Y-90600000D03*
X153900000Y-90600000D03*
X153900000Y-89700000D03*
X153550000Y-89700000D03*
X153200000Y-89700000D03*
X152850000Y-89700000D03*
%TD*%
D12*
%TO.C,R27*%
X148525000Y-89175000D03*
X148525000Y-90825000D03*
%TD*%
D27*
%TO.C,C35*%
X144100000Y-89175000D03*
X144100000Y-87625000D03*
%TD*%
D47*
%TO.C,R10*%
X139225000Y-79500000D03*
X140875000Y-79500000D03*
%TD*%
D40*
%TO.C,U2*%
X120650000Y-93462500D03*
D41*
X120575000Y-94000000D03*
D40*
X120650000Y-94537500D03*
X122350000Y-94537500D03*
D41*
X122425000Y-94000000D03*
D40*
X122350000Y-93462500D03*
%TD*%
D16*
%TO.C,C3*%
X127749999Y-99899999D03*
X127749999Y-101449999D03*
%TD*%
%TO.C,C19*%
X178250000Y-99925000D03*
X178250000Y-101475000D03*
%TD*%
D17*
%TO.C,C26*%
X180775000Y-89800000D03*
X182325000Y-89800000D03*
%TD*%
D16*
%TO.C,C5*%
X157175000Y-88450000D03*
X157175000Y-90000000D03*
%TD*%
D12*
%TO.C,R25*%
X145575000Y-89175000D03*
X145575000Y-90825000D03*
%TD*%
D28*
%TO.C,R17*%
X169210000Y-90900000D03*
X168190000Y-90900000D03*
%TD*%
D13*
%TO.C,R9*%
X126524999Y-96849999D03*
X126524999Y-95199999D03*
%TD*%
D25*
%TO.C,R34*%
X180825000Y-107650000D03*
X179175000Y-107650000D03*
%TD*%
D13*
%TO.C,R15*%
X157175000Y-94400000D03*
X157175000Y-92750000D03*
%TD*%
D29*
%TO.C,L1*%
X123340000Y-99900000D03*
X124310000Y-99900000D03*
%TD*%
D47*
%TO.C,R11*%
X142225000Y-79500000D03*
X143875000Y-79500000D03*
%TD*%
D17*
%TO.C,C34*%
X144885000Y-93180000D03*
X146435000Y-93180000D03*
%TD*%
D48*
%TO.C,U10*%
X162575000Y-93200000D03*
X164725000Y-93200000D03*
X162575000Y-91500000D03*
X164725000Y-91500000D03*
D49*
X161745000Y-95050000D03*
X163015000Y-95050000D03*
X164285000Y-95050000D03*
X165555000Y-95050000D03*
X165555000Y-89650000D03*
X164285000Y-89650000D03*
X163015000Y-89650000D03*
X161745000Y-89650000D03*
D50*
X162460000Y-93310000D03*
X164840000Y-93310000D03*
X162460000Y-91390000D03*
X164840000Y-91390000D03*
%TD*%
D37*
%TO.C,C22*%
X182600000Y-97695000D03*
X182600000Y-98655000D03*
%TD*%
D16*
%TO.C,C33*%
X151125000Y-89475000D03*
X151125000Y-91025000D03*
%TD*%
D27*
%TO.C,C18*%
X176600000Y-89375000D03*
X176600000Y-87825000D03*
%TD*%
D16*
%TO.C,C2*%
X125500000Y-99900000D03*
X125500000Y-101450000D03*
%TD*%
D13*
%TO.C,R3*%
X135775001Y-89275000D03*
X135775001Y-87625000D03*
%TD*%
D25*
%TO.C,R35*%
X181525000Y-88075000D03*
X179875000Y-88075000D03*
%TD*%
D11*
%TO.C,C1*%
X122175000Y-99900000D03*
X120625000Y-99900000D03*
%TD*%
D12*
%TO.C,R1*%
X114750000Y-102095000D03*
X114750000Y-103745000D03*
%TD*%
D51*
%TO.C,R22*%
X170783363Y-102266637D03*
X169616637Y-103433363D03*
%TD*%
M02*
