%TF.GenerationSoftware,KiCad,Pcbnew,8.0.2*%
%TF.CreationDate,2024-06-21T01:26:22+01:00*%
%TF.ProjectId,ESP32S3_PCB_V1,45535033-3253-4335-9f50-43425f56312e,1*%
%TF.SameCoordinates,Original*%
%TF.FileFunction,Drillmap*%
%TF.FilePolarity,Positive*%
%FSLAX45Y45*%
G04 Gerber Fmt 4.5, Leading zero omitted, Abs format (unit mm)*
G04 Created by KiCad (PCBNEW 8.0.2) date 2024-06-21 01:26:22*
%MOMM*%
%LPD*%
G01*
G04 APERTURE LIST*
%ADD10C,0.050000*%
%ADD11C,0.200000*%
%ADD12C,0.100000*%
%ADD13C,0.110000*%
%ADD14C,0.220000*%
G04 APERTURE END LIST*
D10*
X11150000Y-7700000D02*
X19150000Y-7700000D01*
X19150000Y-11200000D01*
X11150000Y-11200000D01*
X11150000Y-7700000D01*
D11*
D12*
X11400000Y-9435000D02*
X11430000Y-9465000D01*
X11430000Y-9435000D02*
X11400000Y-9465000D01*
X11459000Y-10456000D02*
X11489000Y-10486000D01*
X11489000Y-10456000D02*
X11459000Y-10486000D01*
X11460000Y-8422500D02*
X11490000Y-8452500D01*
X11490000Y-8422500D02*
X11460000Y-8452500D01*
X11524000Y-9955000D02*
X11554000Y-9985000D01*
X11554000Y-9955000D02*
X11524000Y-9985000D01*
X11528000Y-8930000D02*
X11558000Y-8960000D01*
X11558000Y-8930000D02*
X11528000Y-8960000D01*
X11833000Y-10780000D02*
X11863000Y-10810000D01*
X11863000Y-10780000D02*
X11833000Y-10810000D01*
X11843000Y-8073000D02*
X11873000Y-8103000D01*
X11873000Y-8073000D02*
X11843000Y-8103000D01*
X11921000Y-9385000D02*
X11951000Y-9415000D01*
X11951000Y-9385000D02*
X11921000Y-9415000D01*
X11977000Y-9385000D02*
X12007000Y-9415000D01*
X12007000Y-9385000D02*
X11977000Y-9415000D01*
X11982000Y-10292000D02*
X12012000Y-10322000D01*
X12012000Y-10292000D02*
X11982000Y-10322000D01*
X12167500Y-7827500D02*
X12197500Y-7857500D01*
X12197500Y-7827500D02*
X12167500Y-7857500D01*
X12171000Y-9022000D02*
X12201000Y-9052000D01*
X12201000Y-9022000D02*
X12171000Y-9052000D01*
X12203000Y-8478000D02*
X12233000Y-8508000D01*
X12233000Y-8478000D02*
X12203000Y-8508000D01*
X12411000Y-10781000D02*
X12441000Y-10811000D01*
X12441000Y-10781000D02*
X12411000Y-10811000D01*
X12455000Y-10127500D02*
X12485000Y-10157500D01*
X12485000Y-10127500D02*
X12455000Y-10157500D01*
X12561000Y-9446000D02*
X12591000Y-9476000D01*
X12591000Y-9446000D02*
X12561000Y-9476000D01*
X12612500Y-8755000D02*
X12642500Y-8785000D01*
X12642500Y-8755000D02*
X12612500Y-8785000D01*
X12615000Y-8065000D02*
X12645000Y-8095000D01*
X12645000Y-8065000D02*
X12615000Y-8095000D01*
X12641000Y-9823000D02*
X12671000Y-9853000D01*
X12671000Y-9823000D02*
X12641000Y-9853000D01*
X12647500Y-9975000D02*
X12677500Y-10005000D01*
X12677500Y-9975000D02*
X12647500Y-10005000D01*
X12840000Y-10132500D02*
X12870000Y-10162500D01*
X12870000Y-10132500D02*
X12840000Y-10162500D01*
X12902500Y-9730000D02*
X12932500Y-9760000D01*
X12932500Y-9730000D02*
X12902500Y-9760000D01*
X12902500Y-9815000D02*
X12932500Y-9845000D01*
X12932500Y-9815000D02*
X12902500Y-9845000D01*
X12907000Y-9429000D02*
X12937000Y-9459000D01*
X12937000Y-9429000D02*
X12907000Y-9459000D01*
X12909000Y-9131000D02*
X12939000Y-9161000D01*
X12939000Y-9131000D02*
X12909000Y-9161000D01*
X12920000Y-10512500D02*
X12950000Y-10542500D01*
X12950000Y-10512500D02*
X12920000Y-10542500D01*
X12927000Y-10947000D02*
X12957000Y-10977000D01*
X12957000Y-10947000D02*
X12927000Y-10977000D01*
X12960000Y-10135000D02*
X12990000Y-10165000D01*
X12990000Y-10135000D02*
X12960000Y-10165000D01*
X13020000Y-8245000D02*
X13050000Y-8275000D01*
X13050000Y-8245000D02*
X13020000Y-8275000D01*
X13069453Y-8725015D02*
X13099453Y-8755015D01*
X13099453Y-8725015D02*
X13069453Y-8755015D01*
X13092000Y-8991000D02*
X13122000Y-9021000D01*
X13122000Y-8991000D02*
X13092000Y-9021000D01*
X13093000Y-9723000D02*
X13123000Y-9753000D01*
X13123000Y-9723000D02*
X13093000Y-9753000D01*
X13095000Y-9645000D02*
X13125000Y-9675000D01*
X13125000Y-9645000D02*
X13095000Y-9675000D01*
X13100000Y-8780000D02*
X13130000Y-8810000D01*
X13130000Y-8780000D02*
X13100000Y-8810000D01*
X13165000Y-8780000D02*
X13195000Y-8810000D01*
X13195000Y-8780000D02*
X13165000Y-8810000D01*
X13195000Y-9193000D02*
X13225000Y-9223000D01*
X13225000Y-9193000D02*
X13195000Y-9223000D01*
X13293000Y-9193000D02*
X13323000Y-9223000D01*
X13323000Y-9193000D02*
X13293000Y-9223000D01*
X13732100Y-9317500D02*
X13762100Y-9347500D01*
X13762100Y-9317500D02*
X13732100Y-9347500D01*
X13761000Y-8773000D02*
X13791000Y-8803000D01*
X13791000Y-8773000D02*
X13761000Y-8803000D01*
X13795000Y-9317500D02*
X13825000Y-9347500D01*
X13825000Y-9317500D02*
X13795000Y-9347500D01*
X13922500Y-9192500D02*
X13952500Y-9222500D01*
X13952500Y-9192500D02*
X13922500Y-9222500D01*
X13936000Y-8386000D02*
X13966000Y-8416000D01*
X13966000Y-8386000D02*
X13936000Y-8416000D01*
X13987500Y-8015000D02*
X14017500Y-8045000D01*
X14017500Y-8015000D02*
X13987500Y-8045000D01*
X13995000Y-9190000D02*
X14025000Y-9220000D01*
X14025000Y-9190000D02*
X13995000Y-9220000D01*
X14004000Y-9860000D02*
X14034000Y-9890000D01*
X14034000Y-9860000D02*
X14004000Y-9890000D01*
X14053000Y-9436000D02*
X14083000Y-9466000D01*
X14083000Y-9436000D02*
X14053000Y-9466000D01*
X14105000Y-9192500D02*
X14135000Y-9222500D01*
X14135000Y-9192500D02*
X14105000Y-9222500D01*
X14125000Y-10625000D02*
X14155000Y-10655000D01*
X14155000Y-10625000D02*
X14125000Y-10655000D01*
X14175000Y-9195000D02*
X14205000Y-9225000D01*
X14205000Y-9195000D02*
X14175000Y-9225000D01*
X14184000Y-9885000D02*
X14214000Y-9915000D01*
X14214000Y-9885000D02*
X14184000Y-9915000D01*
X14188000Y-9640000D02*
X14218000Y-9670000D01*
X14218000Y-9640000D02*
X14188000Y-9670000D01*
X14255000Y-9195000D02*
X14285000Y-9225000D01*
X14285000Y-9195000D02*
X14255000Y-9225000D01*
X14325000Y-9195000D02*
X14355000Y-9225000D01*
X14355000Y-9195000D02*
X14325000Y-9225000D01*
X14430000Y-10289000D02*
X14460000Y-10319000D01*
X14460000Y-10289000D02*
X14430000Y-10319000D01*
X14455000Y-10730000D02*
X14485000Y-10760000D01*
X14485000Y-10730000D02*
X14455000Y-10760000D01*
X14460000Y-7935000D02*
X14490000Y-7965000D01*
X14490000Y-7935000D02*
X14460000Y-7965000D01*
X14460000Y-10515000D02*
X14490000Y-10545000D01*
X14490000Y-10515000D02*
X14460000Y-10545000D01*
X14492500Y-8750000D02*
X14522500Y-8780000D01*
X14522500Y-8750000D02*
X14492500Y-8780000D01*
X14494000Y-9859000D02*
X14524000Y-9889000D01*
X14524000Y-9859000D02*
X14494000Y-9889000D01*
X14495000Y-9150000D02*
X14525000Y-9180000D01*
X14525000Y-9150000D02*
X14495000Y-9180000D01*
X14532000Y-10223000D02*
X14562000Y-10253000D01*
X14562000Y-10223000D02*
X14532000Y-10253000D01*
X14547500Y-9195000D02*
X14577500Y-9225000D01*
X14577500Y-9195000D02*
X14547500Y-9225000D01*
X14548000Y-8372000D02*
X14578000Y-8402000D01*
X14578000Y-8372000D02*
X14548000Y-8402000D01*
X14603000Y-9436000D02*
X14633000Y-9466000D01*
X14633000Y-9436000D02*
X14603000Y-9466000D01*
X14605000Y-9147500D02*
X14635000Y-9177500D01*
X14635000Y-9147500D02*
X14605000Y-9177500D01*
X14646000Y-9829000D02*
X14676000Y-9859000D01*
X14676000Y-9829000D02*
X14646000Y-9859000D01*
X14655000Y-9195000D02*
X14685000Y-9225000D01*
X14685000Y-9195000D02*
X14655000Y-9225000D01*
X14660000Y-10195000D02*
X14690000Y-10225000D01*
X14690000Y-10195000D02*
X14660000Y-10225000D01*
X14765000Y-9195000D02*
X14795000Y-9225000D01*
X14795000Y-9195000D02*
X14765000Y-9225000D01*
X14790000Y-9812500D02*
X14820000Y-9842500D01*
X14820000Y-9812500D02*
X14790000Y-9842500D01*
X14835000Y-9192500D02*
X14865000Y-9222500D01*
X14865000Y-9192500D02*
X14835000Y-9222500D01*
X14850000Y-9680000D02*
X14880000Y-9710000D01*
X14880000Y-9680000D02*
X14850000Y-9710000D01*
X14857000Y-9445000D02*
X14887000Y-9475000D01*
X14887000Y-9445000D02*
X14857000Y-9475000D01*
X14919000Y-7910000D02*
X14949000Y-7940000D01*
X14949000Y-7910000D02*
X14919000Y-7940000D01*
X14945000Y-10517500D02*
X14975000Y-10547500D01*
X14975000Y-10517500D02*
X14945000Y-10547500D01*
X14945000Y-10730000D02*
X14975000Y-10760000D01*
X14975000Y-10730000D02*
X14945000Y-10760000D01*
X14960840Y-9447500D02*
X14990840Y-9477500D01*
X14990840Y-9447500D02*
X14960840Y-9477500D01*
X15005000Y-9120000D02*
X15035000Y-9150000D01*
X15035000Y-9120000D02*
X15005000Y-9150000D01*
X15050000Y-9675000D02*
X15080000Y-9705000D01*
X15080000Y-9675000D02*
X15050000Y-9705000D01*
X15051000Y-10104000D02*
X15081000Y-10134000D01*
X15081000Y-10104000D02*
X15051000Y-10134000D01*
X15080000Y-8373000D02*
X15110000Y-8403000D01*
X15110000Y-8373000D02*
X15080000Y-8403000D01*
X15107000Y-10413000D02*
X15137000Y-10443000D01*
X15137000Y-10413000D02*
X15107000Y-10443000D01*
X15209000Y-9060000D02*
X15239000Y-9090000D01*
X15239000Y-9060000D02*
X15209000Y-9090000D01*
X15238000Y-10311000D02*
X15268000Y-10341000D01*
X15268000Y-10311000D02*
X15238000Y-10341000D01*
X15295000Y-8143000D02*
X15325000Y-8173000D01*
X15325000Y-8143000D02*
X15295000Y-8173000D01*
X15305013Y-9129338D02*
X15335013Y-9159338D01*
X15335013Y-9129338D02*
X15305013Y-9159338D01*
X15385000Y-9665000D02*
X15415000Y-9695000D01*
X15415000Y-9665000D02*
X15385000Y-9695000D01*
X15415000Y-10520000D02*
X15445000Y-10550000D01*
X15445000Y-10520000D02*
X15415000Y-10550000D01*
X15415000Y-10730000D02*
X15445000Y-10760000D01*
X15445000Y-10730000D02*
X15415000Y-10760000D01*
X15472000Y-10209000D02*
X15502000Y-10239000D01*
X15502000Y-10209000D02*
X15472000Y-10239000D01*
X15490000Y-9504000D02*
X15520000Y-9534000D01*
X15520000Y-9504000D02*
X15490000Y-9534000D01*
X15495000Y-9814000D02*
X15525000Y-9844000D01*
X15525000Y-9814000D02*
X15495000Y-9844000D01*
X15500000Y-8627500D02*
X15530000Y-8657500D01*
X15530000Y-8627500D02*
X15500000Y-8657500D01*
X15500000Y-8700000D02*
X15530000Y-8730000D01*
X15530000Y-8700000D02*
X15500000Y-8730000D01*
X15502500Y-8775000D02*
X15532500Y-8805000D01*
X15532500Y-8775000D02*
X15502500Y-8805000D01*
X15612000Y-7898000D02*
X15642000Y-7928000D01*
X15642000Y-7898000D02*
X15612000Y-7928000D01*
X15612000Y-8994000D02*
X15642000Y-9024000D01*
X15642000Y-8994000D02*
X15612000Y-9024000D01*
X15628860Y-11001000D02*
X15658860Y-11031000D01*
X15658860Y-11001000D02*
X15628860Y-11031000D01*
X15665000Y-10620000D02*
X15695000Y-10650000D01*
X15695000Y-10620000D02*
X15665000Y-10650000D01*
X15696000Y-10415000D02*
X15726000Y-10445000D01*
X15726000Y-10415000D02*
X15696000Y-10445000D01*
X15759000Y-10102000D02*
X15789000Y-10132000D01*
X15789000Y-10102000D02*
X15759000Y-10132000D01*
X15854000Y-9854000D02*
X15884000Y-9884000D01*
X15884000Y-9854000D02*
X15854000Y-9884000D01*
X15907500Y-8810000D02*
X15937500Y-8840000D01*
X15937500Y-8810000D02*
X15907500Y-8840000D01*
X15915000Y-10520000D02*
X15945000Y-10550000D01*
X15945000Y-10520000D02*
X15915000Y-10550000D01*
X15915000Y-10730000D02*
X15945000Y-10760000D01*
X15945000Y-10730000D02*
X15915000Y-10760000D01*
X15974000Y-10311000D02*
X16004000Y-10341000D01*
X16004000Y-10311000D02*
X15974000Y-10341000D01*
X16050000Y-9090000D02*
X16080000Y-9120000D01*
X16080000Y-9090000D02*
X16050000Y-9120000D01*
X16063000Y-9933000D02*
X16093000Y-9963000D01*
X16093000Y-9933000D02*
X16063000Y-9963000D01*
X16099000Y-9559000D02*
X16129000Y-9589000D01*
X16129000Y-9559000D02*
X16099000Y-9589000D01*
X16142000Y-8141000D02*
X16172000Y-8171000D01*
X16172000Y-8141000D02*
X16142000Y-8171000D01*
X16160000Y-9590000D02*
X16190000Y-9620000D01*
X16190000Y-9590000D02*
X16160000Y-9620000D01*
X16175000Y-9220000D02*
X16205000Y-9250000D01*
X16205000Y-9220000D02*
X16175000Y-9250000D01*
X16195000Y-8398000D02*
X16225000Y-8428000D01*
X16225000Y-8398000D02*
X16195000Y-8428000D01*
X16248000Y-10207000D02*
X16278000Y-10237000D01*
X16278000Y-10207000D02*
X16248000Y-10237000D01*
X16350000Y-9085000D02*
X16380000Y-9115000D01*
X16380000Y-9085000D02*
X16350000Y-9115000D01*
X16350000Y-9220000D02*
X16380000Y-9250000D01*
X16380000Y-9220000D02*
X16350000Y-9250000D01*
X16350000Y-9355000D02*
X16380000Y-9385000D01*
X16380000Y-9355000D02*
X16350000Y-9385000D01*
X16404000Y-7902000D02*
X16434000Y-7932000D01*
X16434000Y-7902000D02*
X16404000Y-7932000D01*
X16415000Y-8874000D02*
X16445000Y-8904000D01*
X16445000Y-8874000D02*
X16415000Y-8904000D01*
X16440000Y-10520000D02*
X16470000Y-10550000D01*
X16470000Y-10520000D02*
X16440000Y-10550000D01*
X16477000Y-8846000D02*
X16507000Y-8876000D01*
X16507000Y-8846000D02*
X16477000Y-8876000D01*
X16485000Y-10730000D02*
X16515000Y-10760000D01*
X16515000Y-10730000D02*
X16485000Y-10760000D01*
X16519000Y-11003000D02*
X16549000Y-11033000D01*
X16549000Y-11003000D02*
X16519000Y-11033000D01*
X16525000Y-9220000D02*
X16555000Y-9250000D01*
X16555000Y-9220000D02*
X16525000Y-9250000D01*
X16540000Y-8873000D02*
X16570000Y-8903000D01*
X16570000Y-8873000D02*
X16540000Y-8903000D01*
X16574000Y-10103000D02*
X16604000Y-10133000D01*
X16604000Y-10103000D02*
X16574000Y-10133000D01*
X16582000Y-10414000D02*
X16612000Y-10444000D01*
X16612000Y-10414000D02*
X16582000Y-10444000D01*
X16586000Y-10311000D02*
X16616000Y-10341000D01*
X16616000Y-10311000D02*
X16586000Y-10341000D01*
X16650000Y-9815000D02*
X16680000Y-9845000D01*
X16680000Y-9815000D02*
X16650000Y-9845000D01*
X16678000Y-9297000D02*
X16708000Y-9327000D01*
X16708000Y-9297000D02*
X16678000Y-9327000D01*
X16678000Y-9654000D02*
X16708000Y-9684000D01*
X16708000Y-9654000D02*
X16678000Y-9684000D01*
X16689821Y-9229000D02*
X16719821Y-9259000D01*
X16719821Y-9229000D02*
X16689821Y-9259000D01*
X16735000Y-9513000D02*
X16765000Y-9543000D01*
X16765000Y-9513000D02*
X16735000Y-9543000D01*
X16777434Y-9457998D02*
X16807434Y-9487998D01*
X16807434Y-9457998D02*
X16777434Y-9487998D01*
X16794000Y-10402000D02*
X16824000Y-10432000D01*
X16824000Y-10402000D02*
X16794000Y-10432000D01*
X16899000Y-10611000D02*
X16929000Y-10641000D01*
X16929000Y-10611000D02*
X16899000Y-10641000D01*
X16984000Y-9295000D02*
X17014000Y-9325000D01*
X17014000Y-9295000D02*
X16984000Y-9325000D01*
X17032632Y-9342385D02*
X17062632Y-9372385D01*
X17062632Y-9342385D02*
X17032632Y-9372385D01*
X17068000Y-9050000D02*
X17098000Y-9080000D01*
X17098000Y-9050000D02*
X17068000Y-9080000D01*
X17075000Y-8650000D02*
X17105000Y-8680000D01*
X17105000Y-8650000D02*
X17075000Y-8680000D01*
X17087500Y-10490000D02*
X17117500Y-10520000D01*
X17117500Y-10490000D02*
X17087500Y-10520000D01*
X17095000Y-10105000D02*
X17125000Y-10135000D01*
X17125000Y-10105000D02*
X17095000Y-10135000D01*
X17157000Y-10353000D02*
X17187000Y-10383000D01*
X17187000Y-10353000D02*
X17157000Y-10383000D01*
X17200000Y-8430000D02*
X17230000Y-8460000D01*
X17230000Y-8430000D02*
X17200000Y-8460000D01*
X17220000Y-10645000D02*
X17250000Y-10675000D01*
X17250000Y-10645000D02*
X17220000Y-10675000D01*
X17220744Y-9776424D02*
X17250744Y-9806424D01*
X17250744Y-9776424D02*
X17220744Y-9806424D01*
X17262500Y-9925000D02*
X17292500Y-9955000D01*
X17292500Y-9925000D02*
X17262500Y-9955000D01*
X17277500Y-10262500D02*
X17307500Y-10292500D01*
X17307500Y-10262500D02*
X17277500Y-10292500D01*
X17285000Y-8660000D02*
X17315000Y-8690000D01*
X17315000Y-8660000D02*
X17285000Y-8690000D01*
X17305000Y-9772749D02*
X17335000Y-9802749D01*
X17335000Y-9772749D02*
X17305000Y-9802749D01*
X17340000Y-10350000D02*
X17370000Y-10380000D01*
X17370000Y-10350000D02*
X17340000Y-10380000D01*
X17365000Y-8310000D02*
X17395000Y-8340000D01*
X17395000Y-8310000D02*
X17365000Y-8340000D01*
X17385000Y-9772749D02*
X17415000Y-9802749D01*
X17415000Y-9772749D02*
X17385000Y-9802749D01*
X17385000Y-10610000D02*
X17415000Y-10640000D01*
X17415000Y-10610000D02*
X17385000Y-10640000D01*
X17400000Y-10350000D02*
X17430000Y-10380000D01*
X17430000Y-10350000D02*
X17400000Y-10380000D01*
X17400000Y-10410000D02*
X17430000Y-10440000D01*
X17430000Y-10410000D02*
X17400000Y-10440000D01*
X17410000Y-10265000D02*
X17440000Y-10295000D01*
X17440000Y-10265000D02*
X17410000Y-10295000D01*
X17412327Y-9067552D02*
X17442327Y-9097552D01*
X17442327Y-9067552D02*
X17412327Y-9097552D01*
X17413500Y-9950000D02*
X17443500Y-9980000D01*
X17443500Y-9950000D02*
X17413500Y-9980000D01*
X17415000Y-8830000D02*
X17445000Y-8860000D01*
X17445000Y-8830000D02*
X17415000Y-8860000D01*
X17435000Y-8310000D02*
X17465000Y-8340000D01*
X17465000Y-8310000D02*
X17435000Y-8340000D01*
X17455000Y-8660000D02*
X17485000Y-8690000D01*
X17485000Y-8660000D02*
X17455000Y-8690000D01*
X17455000Y-9014000D02*
X17485000Y-9044000D01*
X17485000Y-9014000D02*
X17455000Y-9044000D01*
X17505000Y-8310000D02*
X17535000Y-8340000D01*
X17535000Y-8310000D02*
X17505000Y-8340000D01*
X17515000Y-10610000D02*
X17545000Y-10640000D01*
X17545000Y-10610000D02*
X17515000Y-10640000D01*
X17535000Y-10255000D02*
X17565000Y-10285000D01*
X17565000Y-10255000D02*
X17535000Y-10285000D01*
X17542569Y-9232500D02*
X17572569Y-9262500D01*
X17572569Y-9232500D02*
X17542569Y-9262500D01*
X17550000Y-10015000D02*
X17580000Y-10045000D01*
X17580000Y-10015000D02*
X17550000Y-10045000D01*
X17550000Y-10095000D02*
X17580000Y-10125000D01*
X17580000Y-10095000D02*
X17550000Y-10125000D01*
X17550000Y-10175000D02*
X17580000Y-10205000D01*
X17580000Y-10175000D02*
X17550000Y-10205000D01*
X17570000Y-8830000D02*
X17600000Y-8860000D01*
X17600000Y-8830000D02*
X17570000Y-8860000D01*
X17575000Y-8630000D02*
X17605000Y-8660000D01*
X17605000Y-8630000D02*
X17575000Y-8660000D01*
X17623000Y-9014000D02*
X17653000Y-9044000D01*
X17653000Y-9014000D02*
X17623000Y-9044000D01*
X17625000Y-8026000D02*
X17655000Y-8056000D01*
X17655000Y-8026000D02*
X17625000Y-8056000D01*
X17654000Y-8298000D02*
X17684000Y-8328000D01*
X17684000Y-8298000D02*
X17654000Y-8328000D01*
X17654000Y-9076000D02*
X17684000Y-9106000D01*
X17684000Y-9076000D02*
X17654000Y-9106000D01*
X17655000Y-10610000D02*
X17685000Y-10640000D01*
X17685000Y-10610000D02*
X17655000Y-10640000D01*
X17673000Y-8428000D02*
X17703000Y-8458000D01*
X17703000Y-8428000D02*
X17673000Y-8458000D01*
X17675000Y-8567500D02*
X17705000Y-8597500D01*
X17705000Y-8567500D02*
X17675000Y-8597500D01*
X17694000Y-9011000D02*
X17724000Y-9041000D01*
X17724000Y-9011000D02*
X17694000Y-9041000D01*
X17700000Y-10135000D02*
X17730000Y-10165000D01*
X17730000Y-10135000D02*
X17700000Y-10165000D01*
X17700000Y-10205000D02*
X17730000Y-10235000D01*
X17730000Y-10205000D02*
X17700000Y-10235000D01*
X17700000Y-10275000D02*
X17730000Y-10305000D01*
X17730000Y-10275000D02*
X17700000Y-10305000D01*
X17735000Y-10475000D02*
X17765000Y-10505000D01*
X17765000Y-10475000D02*
X17735000Y-10505000D01*
X17735000Y-10535000D02*
X17765000Y-10565000D01*
X17765000Y-10535000D02*
X17735000Y-10565000D01*
X17740000Y-8740000D02*
X17770000Y-8770000D01*
X17770000Y-8740000D02*
X17740000Y-8770000D01*
X17747500Y-9358000D02*
X17777500Y-9388000D01*
X17777500Y-9358000D02*
X17747500Y-9388000D01*
X17747500Y-9529841D02*
X17777500Y-9559841D01*
X17777500Y-9529841D02*
X17747500Y-9559841D01*
X17749258Y-9293024D02*
X17779258Y-9323024D01*
X17779258Y-9293024D02*
X17749258Y-9323024D01*
X17754075Y-9464194D02*
X17784075Y-9494194D01*
X17784075Y-9464194D02*
X17754075Y-9494194D01*
X17766680Y-9086680D02*
X17796680Y-9116680D01*
X17796680Y-9086680D02*
X17766680Y-9116680D01*
X17785000Y-10275000D02*
X17815000Y-10305000D01*
X17815000Y-10275000D02*
X17785000Y-10305000D01*
X17795000Y-10535000D02*
X17825000Y-10565000D01*
X17825000Y-10535000D02*
X17795000Y-10565000D01*
X17830000Y-9145000D02*
X17860000Y-9175000D01*
X17860000Y-9145000D02*
X17830000Y-9175000D01*
X17880000Y-10275000D02*
X17910000Y-10305000D01*
X17910000Y-10275000D02*
X17880000Y-10305000D01*
X17885000Y-9824000D02*
X17915000Y-9854000D01*
X17915000Y-9824000D02*
X17885000Y-9854000D01*
X17910672Y-8718100D02*
X17940672Y-8748100D01*
X17940672Y-8718100D02*
X17910672Y-8748100D01*
X17918415Y-9587555D02*
X17948415Y-9617555D01*
X17948415Y-9587555D02*
X17918415Y-9617555D01*
X17920500Y-9392500D02*
X17950500Y-9422500D01*
X17950500Y-9392500D02*
X17920500Y-9422500D01*
X17925000Y-9525000D02*
X17955000Y-9555000D01*
X17955000Y-9525000D02*
X17925000Y-9555000D01*
X17980000Y-10405000D02*
X18010000Y-10435000D01*
X18010000Y-10405000D02*
X17980000Y-10435000D01*
X17980000Y-10542500D02*
X18010000Y-10572500D01*
X18010000Y-10542500D02*
X17980000Y-10572500D01*
X18045000Y-10405000D02*
X18075000Y-10435000D01*
X18075000Y-10405000D02*
X18045000Y-10435000D01*
X18055000Y-9835000D02*
X18085000Y-9865000D01*
X18085000Y-9835000D02*
X18055000Y-9865000D01*
X18057000Y-9682000D02*
X18087000Y-9712000D01*
X18087000Y-9682000D02*
X18057000Y-9712000D01*
X18120000Y-8545000D02*
X18150000Y-8575000D01*
X18150000Y-8545000D02*
X18120000Y-8575000D01*
X18214000Y-9502000D02*
X18244000Y-9532000D01*
X18244000Y-9502000D02*
X18214000Y-9532000D01*
X18245000Y-9684500D02*
X18275000Y-9714500D01*
X18275000Y-9684500D02*
X18245000Y-9714500D01*
X18245000Y-9925000D02*
X18275000Y-9955000D01*
X18275000Y-9925000D02*
X18245000Y-9955000D01*
X18328000Y-9684500D02*
X18358000Y-9714500D01*
X18358000Y-9684500D02*
X18328000Y-9714500D01*
X18328000Y-9824500D02*
X18358000Y-9854500D01*
X18358000Y-9824500D02*
X18328000Y-9854500D01*
X18400000Y-8240000D02*
X18430000Y-8270000D01*
X18430000Y-8240000D02*
X18400000Y-8270000D01*
X18400000Y-8494000D02*
X18430000Y-8524000D01*
X18430000Y-8494000D02*
X18400000Y-8524000D01*
X18400000Y-8748000D02*
X18430000Y-8778000D01*
X18430000Y-8748000D02*
X18400000Y-8778000D01*
X18400000Y-9002000D02*
X18430000Y-9032000D01*
X18430000Y-9002000D02*
X18400000Y-9032000D01*
X18400000Y-9256000D02*
X18430000Y-9286000D01*
X18430000Y-9256000D02*
X18400000Y-9286000D01*
X18400000Y-9510000D02*
X18430000Y-9540000D01*
X18430000Y-9510000D02*
X18400000Y-9540000D01*
X18400000Y-10018000D02*
X18430000Y-10048000D01*
X18430000Y-10018000D02*
X18400000Y-10048000D01*
X18400000Y-10272000D02*
X18430000Y-10302000D01*
X18430000Y-10272000D02*
X18400000Y-10302000D01*
X18400000Y-10526000D02*
X18430000Y-10556000D01*
X18430000Y-10526000D02*
X18400000Y-10556000D01*
X18411000Y-9684500D02*
X18441000Y-9714500D01*
X18441000Y-9684500D02*
X18411000Y-9714500D01*
X18411000Y-9824500D02*
X18441000Y-9854500D01*
X18441000Y-9824500D02*
X18411000Y-9854500D01*
X18494000Y-9684500D02*
X18524000Y-9714500D01*
X18524000Y-9684500D02*
X18494000Y-9714500D01*
X18494000Y-9824500D02*
X18524000Y-9854500D01*
X18524000Y-9824500D02*
X18494000Y-9854500D01*
X18527000Y-8113000D02*
X18557000Y-8143000D01*
X18557000Y-8113000D02*
X18527000Y-8143000D01*
X18527000Y-8367000D02*
X18557000Y-8397000D01*
X18557000Y-8367000D02*
X18527000Y-8397000D01*
X18527000Y-8621000D02*
X18557000Y-8651000D01*
X18557000Y-8621000D02*
X18527000Y-8651000D01*
X18527000Y-8875000D02*
X18557000Y-8905000D01*
X18557000Y-8875000D02*
X18527000Y-8905000D01*
X18527000Y-9129000D02*
X18557000Y-9159000D01*
X18557000Y-9129000D02*
X18527000Y-9159000D01*
X18527000Y-9383000D02*
X18557000Y-9413000D01*
X18557000Y-9383000D02*
X18527000Y-9413000D01*
X18527000Y-10145000D02*
X18557000Y-10175000D01*
X18557000Y-10145000D02*
X18527000Y-10175000D01*
X18527000Y-10399000D02*
X18557000Y-10429000D01*
X18557000Y-10399000D02*
X18527000Y-10429000D01*
X18527000Y-10653000D02*
X18557000Y-10683000D01*
X18557000Y-10653000D02*
X18527000Y-10683000D01*
X18565000Y-9860000D02*
X18595000Y-9890000D01*
X18595000Y-9860000D02*
X18565000Y-9890000D01*
X18570000Y-9650000D02*
X18600000Y-9680000D01*
X18600000Y-9650000D02*
X18570000Y-9680000D01*
X18607500Y-9980000D02*
G75*
G02*
X18577500Y-9980000I-15000J0D01*
G01*
X18577500Y-9980000D02*
G75*
G02*
X18607500Y-9980000I15000J0D01*
G01*
X14297688Y-10642842D02*
X14297688Y-10682842D01*
X14277688Y-10662842D02*
X14317688Y-10662842D01*
X14450000Y-9177500D02*
X14450000Y-9217500D01*
X14430000Y-9197500D02*
X14470000Y-9197500D01*
X14475000Y-9535000D02*
X14475000Y-9575000D01*
X14455000Y-9555000D02*
X14495000Y-9555000D01*
X14476000Y-9462000D02*
X14476000Y-9502000D01*
X14456000Y-9482000D02*
X14496000Y-9482000D01*
X15750000Y-9085000D02*
X15750000Y-9125000D01*
X15730000Y-9105000D02*
X15770000Y-9105000D01*
X16870000Y-8345000D02*
X16870000Y-8385000D01*
X16850000Y-8365000D02*
X16890000Y-8365000D01*
X16945000Y-7865000D02*
X16945000Y-7905000D01*
X16925000Y-7885000D02*
X16965000Y-7885000D01*
X17125000Y-8080000D02*
X17125000Y-8120000D01*
X17105000Y-8100000D02*
X17145000Y-8100000D01*
X17215000Y-8080000D02*
X17215000Y-8120000D01*
X17195000Y-8100000D02*
X17235000Y-8100000D01*
X17220000Y-9970000D02*
X17220000Y-10010000D01*
X17200000Y-9990000D02*
X17240000Y-9990000D01*
X16885910Y-8545910D02*
X16885910Y-8514090D01*
X16854090Y-8514090D01*
X16854090Y-8545910D01*
X16885910Y-8545910D01*
X17375910Y-10000128D02*
X17375910Y-9968308D01*
X17344090Y-9968308D01*
X17344090Y-10000128D01*
X17375910Y-10000128D01*
X11987500Y-9850000D02*
X12012500Y-9825000D01*
X11987500Y-9800000D01*
X11962500Y-9825000D01*
X11987500Y-9850000D01*
X17425000Y-9460000D02*
X17450000Y-9435000D01*
X17425000Y-9410000D01*
X17400000Y-9435000D01*
X17425000Y-9460000D01*
X17425000Y-9610000D02*
X17450000Y-9585000D01*
X17425000Y-9560000D01*
X17400000Y-9585000D01*
X17425000Y-9610000D01*
X17575000Y-9460000D02*
X17600000Y-9435000D01*
X17575000Y-9410000D01*
X17550000Y-9435000D01*
X17575000Y-9460000D01*
X17575000Y-9610000D02*
X17600000Y-9585000D01*
X17575000Y-9560000D01*
X17550000Y-9585000D01*
X17575000Y-9610000D01*
X13252500Y-10121500D02*
X13307500Y-10176500D01*
X13307500Y-10121500D02*
X13252500Y-10176500D01*
X13307500Y-10149000D02*
G75*
G02*
X13252500Y-10149000I-27500J0D01*
G01*
X13252500Y-10149000D02*
G75*
G02*
X13307500Y-10149000I27500J0D01*
G01*
X13327500Y-9577500D02*
X13382500Y-9632500D01*
X13382500Y-9577500D02*
X13327500Y-9632500D01*
X13382500Y-9605000D02*
G75*
G02*
X13327500Y-9605000I-27500J0D01*
G01*
X13327500Y-9605000D02*
G75*
G02*
X13382500Y-9605000I27500J0D01*
G01*
X13327500Y-9677500D02*
X13382500Y-9732500D01*
X13382500Y-9677500D02*
X13327500Y-9732500D01*
X13382500Y-9705000D02*
G75*
G02*
X13327500Y-9705000I-27500J0D01*
G01*
X13327500Y-9705000D02*
G75*
G02*
X13382500Y-9705000I27500J0D01*
G01*
X13327500Y-9777500D02*
X13382500Y-9832500D01*
X13382500Y-9777500D02*
X13327500Y-9832500D01*
X13382500Y-9805000D02*
G75*
G02*
X13327500Y-9805000I-27500J0D01*
G01*
X13327500Y-9805000D02*
G75*
G02*
X13382500Y-9805000I27500J0D01*
G01*
X13392500Y-10121500D02*
X13447500Y-10176500D01*
X13447500Y-10121500D02*
X13392500Y-10176500D01*
X13447500Y-10149000D02*
G75*
G02*
X13392500Y-10149000I-27500J0D01*
G01*
X13392500Y-10149000D02*
G75*
G02*
X13447500Y-10149000I27500J0D01*
G01*
X13532500Y-10121500D02*
X13587500Y-10176500D01*
X13587500Y-10121500D02*
X13532500Y-10176500D01*
X13587500Y-10149000D02*
G75*
G02*
X13532500Y-10149000I-27500J0D01*
G01*
X13532500Y-10149000D02*
G75*
G02*
X13587500Y-10149000I27500J0D01*
G01*
X15467500Y-8487500D02*
X15522500Y-8542500D01*
X15522500Y-8487500D02*
X15467500Y-8542500D01*
X15522500Y-8515000D02*
G75*
G02*
X15467500Y-8515000I-27500J0D01*
G01*
X15467500Y-8515000D02*
G75*
G02*
X15522500Y-8515000I27500J0D01*
G01*
X15582500Y-8487500D02*
X15637500Y-8542500D01*
X15637500Y-8487500D02*
X15582500Y-8542500D01*
X15637500Y-8515000D02*
G75*
G02*
X15582500Y-8515000I-27500J0D01*
G01*
X15582500Y-8515000D02*
G75*
G02*
X15637500Y-8515000I27500J0D01*
G01*
X15692500Y-8487500D02*
X15747500Y-8542500D01*
X15747500Y-8487500D02*
X15692500Y-8542500D01*
X15747500Y-8515000D02*
G75*
G02*
X15692500Y-8515000I-27500J0D01*
G01*
X15692500Y-8515000D02*
G75*
G02*
X15747500Y-8515000I27500J0D01*
G01*
X17727500Y-8904500D02*
X17782500Y-8959500D01*
X17782500Y-8904500D02*
X17727500Y-8959500D01*
X17782500Y-8932000D02*
G75*
G02*
X17727500Y-8932000I-27500J0D01*
G01*
X17727500Y-8932000D02*
G75*
G02*
X17782500Y-8932000I27500J0D01*
G01*
X17973500Y-8892500D02*
X18028500Y-8947500D01*
X18028500Y-8892500D02*
X17973500Y-8947500D01*
X18028500Y-8920000D02*
G75*
G02*
X17973500Y-8920000I-27500J0D01*
G01*
X17973500Y-8920000D02*
G75*
G02*
X18028500Y-8920000I27500J0D01*
G01*
X18062500Y-9942500D02*
X18117500Y-9997500D01*
X18117500Y-9942500D02*
X18062500Y-9997500D01*
X18117500Y-9970000D02*
G75*
G02*
X18062500Y-9970000I-27500J0D01*
G01*
X18062500Y-9970000D02*
G75*
G02*
X18117500Y-9970000I27500J0D01*
G01*
X13932500Y-10209750D02*
X14032500Y-10309750D01*
X14032500Y-10209750D02*
X13932500Y-10309750D01*
X13982500Y-10209750D02*
X13982500Y-10309750D01*
X13932500Y-10259750D02*
X14032500Y-10259750D01*
X13932500Y-10463750D02*
X14032500Y-10563750D01*
X14032500Y-10463750D02*
X13932500Y-10563750D01*
X13982500Y-10463750D02*
X13982500Y-10563750D01*
X13932500Y-10513750D02*
X14032500Y-10513750D01*
X13932500Y-10717750D02*
X14032500Y-10817750D01*
X14032500Y-10717750D02*
X13932500Y-10817750D01*
X13982500Y-10717750D02*
X13982500Y-10817750D01*
X13932500Y-10767750D02*
X14032500Y-10767750D01*
X13932500Y-10971750D02*
X14032500Y-11071750D01*
X14032500Y-10971750D02*
X13932500Y-11071750D01*
X13982500Y-10971750D02*
X13982500Y-11071750D01*
X13932500Y-11021750D02*
X14032500Y-11021750D01*
X15850000Y-10970000D02*
X15950000Y-11070000D01*
X15950000Y-10970000D02*
X15850000Y-11070000D01*
X15900000Y-10970000D02*
X15900000Y-11070000D01*
X15850000Y-11020000D02*
X15950000Y-11020000D01*
X16104000Y-10970000D02*
X16204000Y-11070000D01*
X16204000Y-10970000D02*
X16104000Y-11070000D01*
X16154000Y-10970000D02*
X16154000Y-11070000D01*
X16104000Y-11020000D02*
X16204000Y-11020000D01*
X16358000Y-10970000D02*
X16458000Y-11070000D01*
X16458000Y-10970000D02*
X16358000Y-11070000D01*
X16408000Y-10970000D02*
X16408000Y-11070000D01*
X16358000Y-11020000D02*
X16458000Y-11020000D01*
X16612000Y-10970000D02*
X16712000Y-11070000D01*
X16712000Y-10970000D02*
X16612000Y-11070000D01*
X16662000Y-10970000D02*
X16662000Y-11070000D01*
X16612000Y-11020000D02*
X16712000Y-11020000D01*
X16866000Y-10970000D02*
X16966000Y-11070000D01*
X16966000Y-10970000D02*
X16866000Y-11070000D01*
X16916000Y-10970000D02*
X16916000Y-11070000D01*
X16866000Y-11020000D02*
X16966000Y-11020000D01*
X17120000Y-7830000D02*
X17220000Y-7930000D01*
X17220000Y-7830000D02*
X17120000Y-7930000D01*
X17170000Y-7830000D02*
X17170000Y-7930000D01*
X17120000Y-7880000D02*
X17220000Y-7880000D01*
X17120000Y-10970000D02*
X17220000Y-11070000D01*
X17220000Y-10970000D02*
X17120000Y-11070000D01*
X17170000Y-10970000D02*
X17170000Y-11070000D01*
X17120000Y-11020000D02*
X17220000Y-11020000D01*
X17374000Y-7830000D02*
X17474000Y-7930000D01*
X17474000Y-7830000D02*
X17374000Y-7930000D01*
X17424000Y-7830000D02*
X17424000Y-7930000D01*
X17374000Y-7880000D02*
X17474000Y-7880000D01*
X17374000Y-10970000D02*
X17474000Y-11070000D01*
X17474000Y-10970000D02*
X17374000Y-11070000D01*
X17424000Y-10970000D02*
X17424000Y-11070000D01*
X17374000Y-11020000D02*
X17474000Y-11020000D01*
X17628000Y-7830000D02*
X17728000Y-7930000D01*
X17728000Y-7830000D02*
X17628000Y-7930000D01*
X17678000Y-7830000D02*
X17678000Y-7930000D01*
X17628000Y-7880000D02*
X17728000Y-7880000D01*
X17628000Y-10970000D02*
X17728000Y-11070000D01*
X17728000Y-10970000D02*
X17628000Y-11070000D01*
X17678000Y-10970000D02*
X17678000Y-11070000D01*
X17628000Y-11020000D02*
X17728000Y-11020000D01*
X17882000Y-7830000D02*
X17982000Y-7930000D01*
X17982000Y-7830000D02*
X17882000Y-7930000D01*
X17932000Y-7830000D02*
X17932000Y-7930000D01*
X17882000Y-7880000D02*
X17982000Y-7880000D01*
X17882000Y-10970000D02*
X17982000Y-11070000D01*
X17982000Y-10970000D02*
X17882000Y-11070000D01*
X17932000Y-10970000D02*
X17932000Y-11070000D01*
X17882000Y-11020000D02*
X17982000Y-11020000D01*
D13*
X13122500Y-10775000D02*
X13232500Y-10885000D01*
X13232500Y-10775000D02*
X13122500Y-10885000D01*
X13216391Y-10868891D02*
X13216391Y-10791109D01*
X13138609Y-10791109D01*
X13138609Y-10868891D01*
X13216391Y-10868891D01*
X13127500Y-7995000D02*
X13237500Y-8105000D01*
X13237500Y-7995000D02*
X13127500Y-8105000D01*
X13221391Y-8088891D02*
X13221391Y-8011109D01*
X13143609Y-8011109D01*
X13143609Y-8088891D01*
X13221391Y-8088891D01*
X13472500Y-10775000D02*
X13582500Y-10885000D01*
X13582500Y-10775000D02*
X13472500Y-10885000D01*
X13566391Y-10868891D02*
X13566391Y-10791109D01*
X13488609Y-10791109D01*
X13488609Y-10868891D01*
X13566391Y-10868891D01*
X13477500Y-7995000D02*
X13587500Y-8105000D01*
X13587500Y-7995000D02*
X13477500Y-8105000D01*
X13571391Y-8088891D02*
X13571391Y-8011109D01*
X13493609Y-8011109D01*
X13493609Y-8088891D01*
X13571391Y-8088891D01*
D14*
X11265000Y-7815000D02*
X11485000Y-8035000D01*
X11485000Y-7815000D02*
X11265000Y-8035000D01*
X11375000Y-8035000D02*
X11485000Y-7925000D01*
X11375000Y-7815000D01*
X11265000Y-7925000D01*
X11375000Y-8035000D01*
X11265000Y-10865000D02*
X11485000Y-11085000D01*
X11485000Y-10865000D02*
X11265000Y-11085000D01*
X11375000Y-11085000D02*
X11485000Y-10975000D01*
X11375000Y-10865000D01*
X11265000Y-10975000D01*
X11375000Y-11085000D01*
X18240000Y-7815000D02*
X18460000Y-8035000D01*
X18460000Y-7815000D02*
X18240000Y-8035000D01*
X18350000Y-8035000D02*
X18460000Y-7925000D01*
X18350000Y-7815000D01*
X18240000Y-7925000D01*
X18350000Y-8035000D01*
X18240000Y-10865000D02*
X18460000Y-11085000D01*
X18460000Y-10865000D02*
X18240000Y-11085000D01*
X18350000Y-11085000D02*
X18460000Y-10975000D01*
X18350000Y-10865000D01*
X18240000Y-10975000D01*
X18350000Y-11085000D01*
D11*
X11408277Y-11513984D02*
X11408277Y-11313984D01*
X11408277Y-11313984D02*
X11455896Y-11313984D01*
X11455896Y-11313984D02*
X11484467Y-11323508D01*
X11484467Y-11323508D02*
X11503515Y-11342555D01*
X11503515Y-11342555D02*
X11513039Y-11361603D01*
X11513039Y-11361603D02*
X11522562Y-11399698D01*
X11522562Y-11399698D02*
X11522562Y-11428269D01*
X11522562Y-11428269D02*
X11513039Y-11466365D01*
X11513039Y-11466365D02*
X11503515Y-11485412D01*
X11503515Y-11485412D02*
X11484467Y-11504460D01*
X11484467Y-11504460D02*
X11455896Y-11513984D01*
X11455896Y-11513984D02*
X11408277Y-11513984D01*
X11608277Y-11513984D02*
X11608277Y-11380650D01*
X11608277Y-11418746D02*
X11617801Y-11399698D01*
X11617801Y-11399698D02*
X11627324Y-11390174D01*
X11627324Y-11390174D02*
X11646372Y-11380650D01*
X11646372Y-11380650D02*
X11665420Y-11380650D01*
X11732086Y-11513984D02*
X11732086Y-11380650D01*
X11732086Y-11313984D02*
X11722562Y-11323508D01*
X11722562Y-11323508D02*
X11732086Y-11333031D01*
X11732086Y-11333031D02*
X11741610Y-11323508D01*
X11741610Y-11323508D02*
X11732086Y-11313984D01*
X11732086Y-11313984D02*
X11732086Y-11333031D01*
X11855896Y-11513984D02*
X11836848Y-11504460D01*
X11836848Y-11504460D02*
X11827324Y-11485412D01*
X11827324Y-11485412D02*
X11827324Y-11313984D01*
X11960658Y-11513984D02*
X11941610Y-11504460D01*
X11941610Y-11504460D02*
X11932086Y-11485412D01*
X11932086Y-11485412D02*
X11932086Y-11313984D01*
X12189229Y-11513984D02*
X12189229Y-11313984D01*
X12189229Y-11313984D02*
X12255896Y-11456841D01*
X12255896Y-11456841D02*
X12322562Y-11313984D01*
X12322562Y-11313984D02*
X12322562Y-11513984D01*
X12503515Y-11513984D02*
X12503515Y-11409222D01*
X12503515Y-11409222D02*
X12493991Y-11390174D01*
X12493991Y-11390174D02*
X12474943Y-11380650D01*
X12474943Y-11380650D02*
X12436848Y-11380650D01*
X12436848Y-11380650D02*
X12417801Y-11390174D01*
X12503515Y-11504460D02*
X12484467Y-11513984D01*
X12484467Y-11513984D02*
X12436848Y-11513984D01*
X12436848Y-11513984D02*
X12417801Y-11504460D01*
X12417801Y-11504460D02*
X12408277Y-11485412D01*
X12408277Y-11485412D02*
X12408277Y-11466365D01*
X12408277Y-11466365D02*
X12417801Y-11447317D01*
X12417801Y-11447317D02*
X12436848Y-11437793D01*
X12436848Y-11437793D02*
X12484467Y-11437793D01*
X12484467Y-11437793D02*
X12503515Y-11428269D01*
X12598753Y-11380650D02*
X12598753Y-11580650D01*
X12598753Y-11390174D02*
X12617801Y-11380650D01*
X12617801Y-11380650D02*
X12655896Y-11380650D01*
X12655896Y-11380650D02*
X12674943Y-11390174D01*
X12674943Y-11390174D02*
X12684467Y-11399698D01*
X12684467Y-11399698D02*
X12693991Y-11418746D01*
X12693991Y-11418746D02*
X12693991Y-11475888D01*
X12693991Y-11475888D02*
X12684467Y-11494936D01*
X12684467Y-11494936D02*
X12674943Y-11504460D01*
X12674943Y-11504460D02*
X12655896Y-11513984D01*
X12655896Y-11513984D02*
X12617801Y-11513984D01*
X12617801Y-11513984D02*
X12598753Y-11504460D01*
X12779705Y-11494936D02*
X12789229Y-11504460D01*
X12789229Y-11504460D02*
X12779705Y-11513984D01*
X12779705Y-11513984D02*
X12770182Y-11504460D01*
X12770182Y-11504460D02*
X12779705Y-11494936D01*
X12779705Y-11494936D02*
X12779705Y-11513984D01*
X12779705Y-11390174D02*
X12789229Y-11399698D01*
X12789229Y-11399698D02*
X12779705Y-11409222D01*
X12779705Y-11409222D02*
X12770182Y-11399698D01*
X12770182Y-11399698D02*
X12779705Y-11390174D01*
X12779705Y-11390174D02*
X12779705Y-11409222D01*
D12*
X11117500Y-11827500D02*
X11147500Y-11857500D01*
X11147500Y-11827500D02*
X11117500Y-11857500D01*
D11*
X11446372Y-11733984D02*
X11465420Y-11733984D01*
X11465420Y-11733984D02*
X11484467Y-11743508D01*
X11484467Y-11743508D02*
X11493991Y-11753031D01*
X11493991Y-11753031D02*
X11503515Y-11772079D01*
X11503515Y-11772079D02*
X11513039Y-11810174D01*
X11513039Y-11810174D02*
X11513039Y-11857793D01*
X11513039Y-11857793D02*
X11503515Y-11895888D01*
X11503515Y-11895888D02*
X11493991Y-11914936D01*
X11493991Y-11914936D02*
X11484467Y-11924460D01*
X11484467Y-11924460D02*
X11465420Y-11933984D01*
X11465420Y-11933984D02*
X11446372Y-11933984D01*
X11446372Y-11933984D02*
X11427324Y-11924460D01*
X11427324Y-11924460D02*
X11417801Y-11914936D01*
X11417801Y-11914936D02*
X11408277Y-11895888D01*
X11408277Y-11895888D02*
X11398753Y-11857793D01*
X11398753Y-11857793D02*
X11398753Y-11810174D01*
X11398753Y-11810174D02*
X11408277Y-11772079D01*
X11408277Y-11772079D02*
X11417801Y-11753031D01*
X11417801Y-11753031D02*
X11427324Y-11743508D01*
X11427324Y-11743508D02*
X11446372Y-11733984D01*
X11598753Y-11914936D02*
X11608277Y-11924460D01*
X11608277Y-11924460D02*
X11598753Y-11933984D01*
X11598753Y-11933984D02*
X11589229Y-11924460D01*
X11589229Y-11924460D02*
X11598753Y-11914936D01*
X11598753Y-11914936D02*
X11598753Y-11933984D01*
X11674943Y-11733984D02*
X11798753Y-11733984D01*
X11798753Y-11733984D02*
X11732086Y-11810174D01*
X11732086Y-11810174D02*
X11760658Y-11810174D01*
X11760658Y-11810174D02*
X11779705Y-11819698D01*
X11779705Y-11819698D02*
X11789229Y-11829222D01*
X11789229Y-11829222D02*
X11798753Y-11848269D01*
X11798753Y-11848269D02*
X11798753Y-11895888D01*
X11798753Y-11895888D02*
X11789229Y-11914936D01*
X11789229Y-11914936D02*
X11779705Y-11924460D01*
X11779705Y-11924460D02*
X11760658Y-11933984D01*
X11760658Y-11933984D02*
X11703515Y-11933984D01*
X11703515Y-11933984D02*
X11684467Y-11924460D01*
X11684467Y-11924460D02*
X11674943Y-11914936D01*
X11922562Y-11733984D02*
X11941610Y-11733984D01*
X11941610Y-11733984D02*
X11960658Y-11743508D01*
X11960658Y-11743508D02*
X11970182Y-11753031D01*
X11970182Y-11753031D02*
X11979705Y-11772079D01*
X11979705Y-11772079D02*
X11989229Y-11810174D01*
X11989229Y-11810174D02*
X11989229Y-11857793D01*
X11989229Y-11857793D02*
X11979705Y-11895888D01*
X11979705Y-11895888D02*
X11970182Y-11914936D01*
X11970182Y-11914936D02*
X11960658Y-11924460D01*
X11960658Y-11924460D02*
X11941610Y-11933984D01*
X11941610Y-11933984D02*
X11922562Y-11933984D01*
X11922562Y-11933984D02*
X11903515Y-11924460D01*
X11903515Y-11924460D02*
X11893991Y-11914936D01*
X11893991Y-11914936D02*
X11884467Y-11895888D01*
X11884467Y-11895888D02*
X11874943Y-11857793D01*
X11874943Y-11857793D02*
X11874943Y-11810174D01*
X11874943Y-11810174D02*
X11884467Y-11772079D01*
X11884467Y-11772079D02*
X11893991Y-11753031D01*
X11893991Y-11753031D02*
X11903515Y-11743508D01*
X11903515Y-11743508D02*
X11922562Y-11733984D01*
X12113039Y-11733984D02*
X12132086Y-11733984D01*
X12132086Y-11733984D02*
X12151134Y-11743508D01*
X12151134Y-11743508D02*
X12160658Y-11753031D01*
X12160658Y-11753031D02*
X12170182Y-11772079D01*
X12170182Y-11772079D02*
X12179705Y-11810174D01*
X12179705Y-11810174D02*
X12179705Y-11857793D01*
X12179705Y-11857793D02*
X12170182Y-11895888D01*
X12170182Y-11895888D02*
X12160658Y-11914936D01*
X12160658Y-11914936D02*
X12151134Y-11924460D01*
X12151134Y-11924460D02*
X12132086Y-11933984D01*
X12132086Y-11933984D02*
X12113039Y-11933984D01*
X12113039Y-11933984D02*
X12093991Y-11924460D01*
X12093991Y-11924460D02*
X12084467Y-11914936D01*
X12084467Y-11914936D02*
X12074943Y-11895888D01*
X12074943Y-11895888D02*
X12065420Y-11857793D01*
X12065420Y-11857793D02*
X12065420Y-11810174D01*
X12065420Y-11810174D02*
X12074943Y-11772079D01*
X12074943Y-11772079D02*
X12084467Y-11753031D01*
X12084467Y-11753031D02*
X12093991Y-11743508D01*
X12093991Y-11743508D02*
X12113039Y-11733984D01*
X12265420Y-11933984D02*
X12265420Y-11800650D01*
X12265420Y-11819698D02*
X12274943Y-11810174D01*
X12274943Y-11810174D02*
X12293991Y-11800650D01*
X12293991Y-11800650D02*
X12322563Y-11800650D01*
X12322563Y-11800650D02*
X12341610Y-11810174D01*
X12341610Y-11810174D02*
X12351134Y-11829222D01*
X12351134Y-11829222D02*
X12351134Y-11933984D01*
X12351134Y-11829222D02*
X12360658Y-11810174D01*
X12360658Y-11810174D02*
X12379705Y-11800650D01*
X12379705Y-11800650D02*
X12408277Y-11800650D01*
X12408277Y-11800650D02*
X12427324Y-11810174D01*
X12427324Y-11810174D02*
X12436848Y-11829222D01*
X12436848Y-11829222D02*
X12436848Y-11933984D01*
X12532086Y-11933984D02*
X12532086Y-11800650D01*
X12532086Y-11819698D02*
X12541610Y-11810174D01*
X12541610Y-11810174D02*
X12560658Y-11800650D01*
X12560658Y-11800650D02*
X12589229Y-11800650D01*
X12589229Y-11800650D02*
X12608277Y-11810174D01*
X12608277Y-11810174D02*
X12617801Y-11829222D01*
X12617801Y-11829222D02*
X12617801Y-11933984D01*
X12617801Y-11829222D02*
X12627324Y-11810174D01*
X12627324Y-11810174D02*
X12646372Y-11800650D01*
X12646372Y-11800650D02*
X12674943Y-11800650D01*
X12674943Y-11800650D02*
X12693991Y-11810174D01*
X12693991Y-11810174D02*
X12703515Y-11829222D01*
X12703515Y-11829222D02*
X12703515Y-11933984D01*
X13093991Y-11724460D02*
X12922563Y-11981603D01*
X13351134Y-11733984D02*
X13370182Y-11733984D01*
X13370182Y-11733984D02*
X13389229Y-11743508D01*
X13389229Y-11743508D02*
X13398753Y-11753031D01*
X13398753Y-11753031D02*
X13408277Y-11772079D01*
X13408277Y-11772079D02*
X13417801Y-11810174D01*
X13417801Y-11810174D02*
X13417801Y-11857793D01*
X13417801Y-11857793D02*
X13408277Y-11895888D01*
X13408277Y-11895888D02*
X13398753Y-11914936D01*
X13398753Y-11914936D02*
X13389229Y-11924460D01*
X13389229Y-11924460D02*
X13370182Y-11933984D01*
X13370182Y-11933984D02*
X13351134Y-11933984D01*
X13351134Y-11933984D02*
X13332086Y-11924460D01*
X13332086Y-11924460D02*
X13322563Y-11914936D01*
X13322563Y-11914936D02*
X13313039Y-11895888D01*
X13313039Y-11895888D02*
X13303515Y-11857793D01*
X13303515Y-11857793D02*
X13303515Y-11810174D01*
X13303515Y-11810174D02*
X13313039Y-11772079D01*
X13313039Y-11772079D02*
X13322563Y-11753031D01*
X13322563Y-11753031D02*
X13332086Y-11743508D01*
X13332086Y-11743508D02*
X13351134Y-11733984D01*
X13503515Y-11914936D02*
X13513039Y-11924460D01*
X13513039Y-11924460D02*
X13503515Y-11933984D01*
X13503515Y-11933984D02*
X13493991Y-11924460D01*
X13493991Y-11924460D02*
X13503515Y-11914936D01*
X13503515Y-11914936D02*
X13503515Y-11933984D01*
X13636848Y-11733984D02*
X13655896Y-11733984D01*
X13655896Y-11733984D02*
X13674944Y-11743508D01*
X13674944Y-11743508D02*
X13684467Y-11753031D01*
X13684467Y-11753031D02*
X13693991Y-11772079D01*
X13693991Y-11772079D02*
X13703515Y-11810174D01*
X13703515Y-11810174D02*
X13703515Y-11857793D01*
X13703515Y-11857793D02*
X13693991Y-11895888D01*
X13693991Y-11895888D02*
X13684467Y-11914936D01*
X13684467Y-11914936D02*
X13674944Y-11924460D01*
X13674944Y-11924460D02*
X13655896Y-11933984D01*
X13655896Y-11933984D02*
X13636848Y-11933984D01*
X13636848Y-11933984D02*
X13617801Y-11924460D01*
X13617801Y-11924460D02*
X13608277Y-11914936D01*
X13608277Y-11914936D02*
X13598753Y-11895888D01*
X13598753Y-11895888D02*
X13589229Y-11857793D01*
X13589229Y-11857793D02*
X13589229Y-11810174D01*
X13589229Y-11810174D02*
X13598753Y-11772079D01*
X13598753Y-11772079D02*
X13608277Y-11753031D01*
X13608277Y-11753031D02*
X13617801Y-11743508D01*
X13617801Y-11743508D02*
X13636848Y-11733984D01*
X13893991Y-11933984D02*
X13779706Y-11933984D01*
X13836848Y-11933984D02*
X13836848Y-11733984D01*
X13836848Y-11733984D02*
X13817801Y-11762555D01*
X13817801Y-11762555D02*
X13798753Y-11781603D01*
X13798753Y-11781603D02*
X13779706Y-11791127D01*
X14084467Y-11933984D02*
X13970182Y-11933984D01*
X14027325Y-11933984D02*
X14027325Y-11733984D01*
X14027325Y-11733984D02*
X14008277Y-11762555D01*
X14008277Y-11762555D02*
X13989229Y-11781603D01*
X13989229Y-11781603D02*
X13970182Y-11791127D01*
X14198753Y-11819698D02*
X14179706Y-11810174D01*
X14179706Y-11810174D02*
X14170182Y-11800650D01*
X14170182Y-11800650D02*
X14160658Y-11781603D01*
X14160658Y-11781603D02*
X14160658Y-11772079D01*
X14160658Y-11772079D02*
X14170182Y-11753031D01*
X14170182Y-11753031D02*
X14179706Y-11743508D01*
X14179706Y-11743508D02*
X14198753Y-11733984D01*
X14198753Y-11733984D02*
X14236848Y-11733984D01*
X14236848Y-11733984D02*
X14255896Y-11743508D01*
X14255896Y-11743508D02*
X14265420Y-11753031D01*
X14265420Y-11753031D02*
X14274944Y-11772079D01*
X14274944Y-11772079D02*
X14274944Y-11781603D01*
X14274944Y-11781603D02*
X14265420Y-11800650D01*
X14265420Y-11800650D02*
X14255896Y-11810174D01*
X14255896Y-11810174D02*
X14236848Y-11819698D01*
X14236848Y-11819698D02*
X14198753Y-11819698D01*
X14198753Y-11819698D02*
X14179706Y-11829222D01*
X14179706Y-11829222D02*
X14170182Y-11838746D01*
X14170182Y-11838746D02*
X14160658Y-11857793D01*
X14160658Y-11857793D02*
X14160658Y-11895888D01*
X14160658Y-11895888D02*
X14170182Y-11914936D01*
X14170182Y-11914936D02*
X14179706Y-11924460D01*
X14179706Y-11924460D02*
X14198753Y-11933984D01*
X14198753Y-11933984D02*
X14236848Y-11933984D01*
X14236848Y-11933984D02*
X14255896Y-11924460D01*
X14255896Y-11924460D02*
X14265420Y-11914936D01*
X14265420Y-11914936D02*
X14274944Y-11895888D01*
X14274944Y-11895888D02*
X14274944Y-11857793D01*
X14274944Y-11857793D02*
X14265420Y-11838746D01*
X14265420Y-11838746D02*
X14255896Y-11829222D01*
X14255896Y-11829222D02*
X14236848Y-11819698D01*
X14351134Y-11733984D02*
X14351134Y-11772079D01*
X14427325Y-11733984D02*
X14427325Y-11772079D01*
X14722563Y-12010174D02*
X14713039Y-12000650D01*
X14713039Y-12000650D02*
X14693991Y-11972079D01*
X14693991Y-11972079D02*
X14684468Y-11953031D01*
X14684468Y-11953031D02*
X14674944Y-11924460D01*
X14674944Y-11924460D02*
X14665420Y-11876841D01*
X14665420Y-11876841D02*
X14665420Y-11838746D01*
X14665420Y-11838746D02*
X14674944Y-11791127D01*
X14674944Y-11791127D02*
X14684468Y-11762555D01*
X14684468Y-11762555D02*
X14693991Y-11743508D01*
X14693991Y-11743508D02*
X14713039Y-11714936D01*
X14713039Y-11714936D02*
X14722563Y-11705412D01*
X14789229Y-11753031D02*
X14798753Y-11743508D01*
X14798753Y-11743508D02*
X14817801Y-11733984D01*
X14817801Y-11733984D02*
X14865420Y-11733984D01*
X14865420Y-11733984D02*
X14884468Y-11743508D01*
X14884468Y-11743508D02*
X14893991Y-11753031D01*
X14893991Y-11753031D02*
X14903515Y-11772079D01*
X14903515Y-11772079D02*
X14903515Y-11791127D01*
X14903515Y-11791127D02*
X14893991Y-11819698D01*
X14893991Y-11819698D02*
X14779706Y-11933984D01*
X14779706Y-11933984D02*
X14903515Y-11933984D01*
X14970182Y-11733984D02*
X15093991Y-11733984D01*
X15093991Y-11733984D02*
X15027325Y-11810174D01*
X15027325Y-11810174D02*
X15055896Y-11810174D01*
X15055896Y-11810174D02*
X15074944Y-11819698D01*
X15074944Y-11819698D02*
X15084468Y-11829222D01*
X15084468Y-11829222D02*
X15093991Y-11848269D01*
X15093991Y-11848269D02*
X15093991Y-11895888D01*
X15093991Y-11895888D02*
X15084468Y-11914936D01*
X15084468Y-11914936D02*
X15074944Y-11924460D01*
X15074944Y-11924460D02*
X15055896Y-11933984D01*
X15055896Y-11933984D02*
X14998753Y-11933984D01*
X14998753Y-11933984D02*
X14979706Y-11924460D01*
X14979706Y-11924460D02*
X14970182Y-11914936D01*
X15274944Y-11733984D02*
X15179706Y-11733984D01*
X15179706Y-11733984D02*
X15170182Y-11829222D01*
X15170182Y-11829222D02*
X15179706Y-11819698D01*
X15179706Y-11819698D02*
X15198753Y-11810174D01*
X15198753Y-11810174D02*
X15246372Y-11810174D01*
X15246372Y-11810174D02*
X15265420Y-11819698D01*
X15265420Y-11819698D02*
X15274944Y-11829222D01*
X15274944Y-11829222D02*
X15284468Y-11848269D01*
X15284468Y-11848269D02*
X15284468Y-11895888D01*
X15284468Y-11895888D02*
X15274944Y-11914936D01*
X15274944Y-11914936D02*
X15265420Y-11924460D01*
X15265420Y-11924460D02*
X15246372Y-11933984D01*
X15246372Y-11933984D02*
X15198753Y-11933984D01*
X15198753Y-11933984D02*
X15179706Y-11924460D01*
X15179706Y-11924460D02*
X15170182Y-11914936D01*
X15522563Y-11933984D02*
X15522563Y-11733984D01*
X15608277Y-11933984D02*
X15608277Y-11829222D01*
X15608277Y-11829222D02*
X15598753Y-11810174D01*
X15598753Y-11810174D02*
X15579706Y-11800650D01*
X15579706Y-11800650D02*
X15551134Y-11800650D01*
X15551134Y-11800650D02*
X15532087Y-11810174D01*
X15532087Y-11810174D02*
X15522563Y-11819698D01*
X15732087Y-11933984D02*
X15713039Y-11924460D01*
X15713039Y-11924460D02*
X15703515Y-11914936D01*
X15703515Y-11914936D02*
X15693991Y-11895888D01*
X15693991Y-11895888D02*
X15693991Y-11838746D01*
X15693991Y-11838746D02*
X15703515Y-11819698D01*
X15703515Y-11819698D02*
X15713039Y-11810174D01*
X15713039Y-11810174D02*
X15732087Y-11800650D01*
X15732087Y-11800650D02*
X15760658Y-11800650D01*
X15760658Y-11800650D02*
X15779706Y-11810174D01*
X15779706Y-11810174D02*
X15789230Y-11819698D01*
X15789230Y-11819698D02*
X15798753Y-11838746D01*
X15798753Y-11838746D02*
X15798753Y-11895888D01*
X15798753Y-11895888D02*
X15789230Y-11914936D01*
X15789230Y-11914936D02*
X15779706Y-11924460D01*
X15779706Y-11924460D02*
X15760658Y-11933984D01*
X15760658Y-11933984D02*
X15732087Y-11933984D01*
X15913039Y-11933984D02*
X15893991Y-11924460D01*
X15893991Y-11924460D02*
X15884468Y-11905412D01*
X15884468Y-11905412D02*
X15884468Y-11733984D01*
X16065420Y-11924460D02*
X16046372Y-11933984D01*
X16046372Y-11933984D02*
X16008277Y-11933984D01*
X16008277Y-11933984D02*
X15989230Y-11924460D01*
X15989230Y-11924460D02*
X15979706Y-11905412D01*
X15979706Y-11905412D02*
X15979706Y-11829222D01*
X15979706Y-11829222D02*
X15989230Y-11810174D01*
X15989230Y-11810174D02*
X16008277Y-11800650D01*
X16008277Y-11800650D02*
X16046372Y-11800650D01*
X16046372Y-11800650D02*
X16065420Y-11810174D01*
X16065420Y-11810174D02*
X16074944Y-11829222D01*
X16074944Y-11829222D02*
X16074944Y-11848269D01*
X16074944Y-11848269D02*
X15979706Y-11867317D01*
X16151134Y-11924460D02*
X16170182Y-11933984D01*
X16170182Y-11933984D02*
X16208277Y-11933984D01*
X16208277Y-11933984D02*
X16227325Y-11924460D01*
X16227325Y-11924460D02*
X16236849Y-11905412D01*
X16236849Y-11905412D02*
X16236849Y-11895888D01*
X16236849Y-11895888D02*
X16227325Y-11876841D01*
X16227325Y-11876841D02*
X16208277Y-11867317D01*
X16208277Y-11867317D02*
X16179706Y-11867317D01*
X16179706Y-11867317D02*
X16160658Y-11857793D01*
X16160658Y-11857793D02*
X16151134Y-11838746D01*
X16151134Y-11838746D02*
X16151134Y-11829222D01*
X16151134Y-11829222D02*
X16160658Y-11810174D01*
X16160658Y-11810174D02*
X16179706Y-11800650D01*
X16179706Y-11800650D02*
X16208277Y-11800650D01*
X16208277Y-11800650D02*
X16227325Y-11810174D01*
X16303515Y-12010174D02*
X16313039Y-12000650D01*
X16313039Y-12000650D02*
X16332087Y-11972079D01*
X16332087Y-11972079D02*
X16341611Y-11953031D01*
X16341611Y-11953031D02*
X16351134Y-11924460D01*
X16351134Y-11924460D02*
X16360658Y-11876841D01*
X16360658Y-11876841D02*
X16360658Y-11838746D01*
X16360658Y-11838746D02*
X16351134Y-11791127D01*
X16351134Y-11791127D02*
X16341611Y-11762555D01*
X16341611Y-11762555D02*
X16332087Y-11743508D01*
X16332087Y-11743508D02*
X16313039Y-11714936D01*
X16313039Y-11714936D02*
X16303515Y-11705412D01*
D12*
X11147500Y-12106500D02*
G75*
G02*
X11117500Y-12106500I-15000J0D01*
G01*
X11117500Y-12106500D02*
G75*
G02*
X11147500Y-12106500I15000J0D01*
G01*
D11*
X11446372Y-11997984D02*
X11465420Y-11997984D01*
X11465420Y-11997984D02*
X11484467Y-12007508D01*
X11484467Y-12007508D02*
X11493991Y-12017031D01*
X11493991Y-12017031D02*
X11503515Y-12036079D01*
X11503515Y-12036079D02*
X11513039Y-12074174D01*
X11513039Y-12074174D02*
X11513039Y-12121793D01*
X11513039Y-12121793D02*
X11503515Y-12159888D01*
X11503515Y-12159888D02*
X11493991Y-12178936D01*
X11493991Y-12178936D02*
X11484467Y-12188460D01*
X11484467Y-12188460D02*
X11465420Y-12197984D01*
X11465420Y-12197984D02*
X11446372Y-12197984D01*
X11446372Y-12197984D02*
X11427324Y-12188460D01*
X11427324Y-12188460D02*
X11417801Y-12178936D01*
X11417801Y-12178936D02*
X11408277Y-12159888D01*
X11408277Y-12159888D02*
X11398753Y-12121793D01*
X11398753Y-12121793D02*
X11398753Y-12074174D01*
X11398753Y-12074174D02*
X11408277Y-12036079D01*
X11408277Y-12036079D02*
X11417801Y-12017031D01*
X11417801Y-12017031D02*
X11427324Y-12007508D01*
X11427324Y-12007508D02*
X11446372Y-11997984D01*
X11598753Y-12178936D02*
X11608277Y-12188460D01*
X11608277Y-12188460D02*
X11598753Y-12197984D01*
X11598753Y-12197984D02*
X11589229Y-12188460D01*
X11589229Y-12188460D02*
X11598753Y-12178936D01*
X11598753Y-12178936D02*
X11598753Y-12197984D01*
X11674943Y-11997984D02*
X11798753Y-11997984D01*
X11798753Y-11997984D02*
X11732086Y-12074174D01*
X11732086Y-12074174D02*
X11760658Y-12074174D01*
X11760658Y-12074174D02*
X11779705Y-12083698D01*
X11779705Y-12083698D02*
X11789229Y-12093222D01*
X11789229Y-12093222D02*
X11798753Y-12112269D01*
X11798753Y-12112269D02*
X11798753Y-12159888D01*
X11798753Y-12159888D02*
X11789229Y-12178936D01*
X11789229Y-12178936D02*
X11779705Y-12188460D01*
X11779705Y-12188460D02*
X11760658Y-12197984D01*
X11760658Y-12197984D02*
X11703515Y-12197984D01*
X11703515Y-12197984D02*
X11684467Y-12188460D01*
X11684467Y-12188460D02*
X11674943Y-12178936D01*
X11922562Y-11997984D02*
X11941610Y-11997984D01*
X11941610Y-11997984D02*
X11960658Y-12007508D01*
X11960658Y-12007508D02*
X11970182Y-12017031D01*
X11970182Y-12017031D02*
X11979705Y-12036079D01*
X11979705Y-12036079D02*
X11989229Y-12074174D01*
X11989229Y-12074174D02*
X11989229Y-12121793D01*
X11989229Y-12121793D02*
X11979705Y-12159888D01*
X11979705Y-12159888D02*
X11970182Y-12178936D01*
X11970182Y-12178936D02*
X11960658Y-12188460D01*
X11960658Y-12188460D02*
X11941610Y-12197984D01*
X11941610Y-12197984D02*
X11922562Y-12197984D01*
X11922562Y-12197984D02*
X11903515Y-12188460D01*
X11903515Y-12188460D02*
X11893991Y-12178936D01*
X11893991Y-12178936D02*
X11884467Y-12159888D01*
X11884467Y-12159888D02*
X11874943Y-12121793D01*
X11874943Y-12121793D02*
X11874943Y-12074174D01*
X11874943Y-12074174D02*
X11884467Y-12036079D01*
X11884467Y-12036079D02*
X11893991Y-12017031D01*
X11893991Y-12017031D02*
X11903515Y-12007508D01*
X11903515Y-12007508D02*
X11922562Y-11997984D01*
X12113039Y-11997984D02*
X12132086Y-11997984D01*
X12132086Y-11997984D02*
X12151134Y-12007508D01*
X12151134Y-12007508D02*
X12160658Y-12017031D01*
X12160658Y-12017031D02*
X12170182Y-12036079D01*
X12170182Y-12036079D02*
X12179705Y-12074174D01*
X12179705Y-12074174D02*
X12179705Y-12121793D01*
X12179705Y-12121793D02*
X12170182Y-12159888D01*
X12170182Y-12159888D02*
X12160658Y-12178936D01*
X12160658Y-12178936D02*
X12151134Y-12188460D01*
X12151134Y-12188460D02*
X12132086Y-12197984D01*
X12132086Y-12197984D02*
X12113039Y-12197984D01*
X12113039Y-12197984D02*
X12093991Y-12188460D01*
X12093991Y-12188460D02*
X12084467Y-12178936D01*
X12084467Y-12178936D02*
X12074943Y-12159888D01*
X12074943Y-12159888D02*
X12065420Y-12121793D01*
X12065420Y-12121793D02*
X12065420Y-12074174D01*
X12065420Y-12074174D02*
X12074943Y-12036079D01*
X12074943Y-12036079D02*
X12084467Y-12017031D01*
X12084467Y-12017031D02*
X12093991Y-12007508D01*
X12093991Y-12007508D02*
X12113039Y-11997984D01*
X12265420Y-12197984D02*
X12265420Y-12064650D01*
X12265420Y-12083698D02*
X12274943Y-12074174D01*
X12274943Y-12074174D02*
X12293991Y-12064650D01*
X12293991Y-12064650D02*
X12322563Y-12064650D01*
X12322563Y-12064650D02*
X12341610Y-12074174D01*
X12341610Y-12074174D02*
X12351134Y-12093222D01*
X12351134Y-12093222D02*
X12351134Y-12197984D01*
X12351134Y-12093222D02*
X12360658Y-12074174D01*
X12360658Y-12074174D02*
X12379705Y-12064650D01*
X12379705Y-12064650D02*
X12408277Y-12064650D01*
X12408277Y-12064650D02*
X12427324Y-12074174D01*
X12427324Y-12074174D02*
X12436848Y-12093222D01*
X12436848Y-12093222D02*
X12436848Y-12197984D01*
X12532086Y-12197984D02*
X12532086Y-12064650D01*
X12532086Y-12083698D02*
X12541610Y-12074174D01*
X12541610Y-12074174D02*
X12560658Y-12064650D01*
X12560658Y-12064650D02*
X12589229Y-12064650D01*
X12589229Y-12064650D02*
X12608277Y-12074174D01*
X12608277Y-12074174D02*
X12617801Y-12093222D01*
X12617801Y-12093222D02*
X12617801Y-12197984D01*
X12617801Y-12093222D02*
X12627324Y-12074174D01*
X12627324Y-12074174D02*
X12646372Y-12064650D01*
X12646372Y-12064650D02*
X12674943Y-12064650D01*
X12674943Y-12064650D02*
X12693991Y-12074174D01*
X12693991Y-12074174D02*
X12703515Y-12093222D01*
X12703515Y-12093222D02*
X12703515Y-12197984D01*
X13093991Y-11988460D02*
X12922563Y-12245603D01*
X13351134Y-11997984D02*
X13370182Y-11997984D01*
X13370182Y-11997984D02*
X13389229Y-12007508D01*
X13389229Y-12007508D02*
X13398753Y-12017031D01*
X13398753Y-12017031D02*
X13408277Y-12036079D01*
X13408277Y-12036079D02*
X13417801Y-12074174D01*
X13417801Y-12074174D02*
X13417801Y-12121793D01*
X13417801Y-12121793D02*
X13408277Y-12159888D01*
X13408277Y-12159888D02*
X13398753Y-12178936D01*
X13398753Y-12178936D02*
X13389229Y-12188460D01*
X13389229Y-12188460D02*
X13370182Y-12197984D01*
X13370182Y-12197984D02*
X13351134Y-12197984D01*
X13351134Y-12197984D02*
X13332086Y-12188460D01*
X13332086Y-12188460D02*
X13322563Y-12178936D01*
X13322563Y-12178936D02*
X13313039Y-12159888D01*
X13313039Y-12159888D02*
X13303515Y-12121793D01*
X13303515Y-12121793D02*
X13303515Y-12074174D01*
X13303515Y-12074174D02*
X13313039Y-12036079D01*
X13313039Y-12036079D02*
X13322563Y-12017031D01*
X13322563Y-12017031D02*
X13332086Y-12007508D01*
X13332086Y-12007508D02*
X13351134Y-11997984D01*
X13503515Y-12178936D02*
X13513039Y-12188460D01*
X13513039Y-12188460D02*
X13503515Y-12197984D01*
X13503515Y-12197984D02*
X13493991Y-12188460D01*
X13493991Y-12188460D02*
X13503515Y-12178936D01*
X13503515Y-12178936D02*
X13503515Y-12197984D01*
X13636848Y-11997984D02*
X13655896Y-11997984D01*
X13655896Y-11997984D02*
X13674944Y-12007508D01*
X13674944Y-12007508D02*
X13684467Y-12017031D01*
X13684467Y-12017031D02*
X13693991Y-12036079D01*
X13693991Y-12036079D02*
X13703515Y-12074174D01*
X13703515Y-12074174D02*
X13703515Y-12121793D01*
X13703515Y-12121793D02*
X13693991Y-12159888D01*
X13693991Y-12159888D02*
X13684467Y-12178936D01*
X13684467Y-12178936D02*
X13674944Y-12188460D01*
X13674944Y-12188460D02*
X13655896Y-12197984D01*
X13655896Y-12197984D02*
X13636848Y-12197984D01*
X13636848Y-12197984D02*
X13617801Y-12188460D01*
X13617801Y-12188460D02*
X13608277Y-12178936D01*
X13608277Y-12178936D02*
X13598753Y-12159888D01*
X13598753Y-12159888D02*
X13589229Y-12121793D01*
X13589229Y-12121793D02*
X13589229Y-12074174D01*
X13589229Y-12074174D02*
X13598753Y-12036079D01*
X13598753Y-12036079D02*
X13608277Y-12017031D01*
X13608277Y-12017031D02*
X13617801Y-12007508D01*
X13617801Y-12007508D02*
X13636848Y-11997984D01*
X13893991Y-12197984D02*
X13779706Y-12197984D01*
X13836848Y-12197984D02*
X13836848Y-11997984D01*
X13836848Y-11997984D02*
X13817801Y-12026555D01*
X13817801Y-12026555D02*
X13798753Y-12045603D01*
X13798753Y-12045603D02*
X13779706Y-12055127D01*
X14084467Y-12197984D02*
X13970182Y-12197984D01*
X14027325Y-12197984D02*
X14027325Y-11997984D01*
X14027325Y-11997984D02*
X14008277Y-12026555D01*
X14008277Y-12026555D02*
X13989229Y-12045603D01*
X13989229Y-12045603D02*
X13970182Y-12055127D01*
X14198753Y-12083698D02*
X14179706Y-12074174D01*
X14179706Y-12074174D02*
X14170182Y-12064650D01*
X14170182Y-12064650D02*
X14160658Y-12045603D01*
X14160658Y-12045603D02*
X14160658Y-12036079D01*
X14160658Y-12036079D02*
X14170182Y-12017031D01*
X14170182Y-12017031D02*
X14179706Y-12007508D01*
X14179706Y-12007508D02*
X14198753Y-11997984D01*
X14198753Y-11997984D02*
X14236848Y-11997984D01*
X14236848Y-11997984D02*
X14255896Y-12007508D01*
X14255896Y-12007508D02*
X14265420Y-12017031D01*
X14265420Y-12017031D02*
X14274944Y-12036079D01*
X14274944Y-12036079D02*
X14274944Y-12045603D01*
X14274944Y-12045603D02*
X14265420Y-12064650D01*
X14265420Y-12064650D02*
X14255896Y-12074174D01*
X14255896Y-12074174D02*
X14236848Y-12083698D01*
X14236848Y-12083698D02*
X14198753Y-12083698D01*
X14198753Y-12083698D02*
X14179706Y-12093222D01*
X14179706Y-12093222D02*
X14170182Y-12102746D01*
X14170182Y-12102746D02*
X14160658Y-12121793D01*
X14160658Y-12121793D02*
X14160658Y-12159888D01*
X14160658Y-12159888D02*
X14170182Y-12178936D01*
X14170182Y-12178936D02*
X14179706Y-12188460D01*
X14179706Y-12188460D02*
X14198753Y-12197984D01*
X14198753Y-12197984D02*
X14236848Y-12197984D01*
X14236848Y-12197984D02*
X14255896Y-12188460D01*
X14255896Y-12188460D02*
X14265420Y-12178936D01*
X14265420Y-12178936D02*
X14274944Y-12159888D01*
X14274944Y-12159888D02*
X14274944Y-12121793D01*
X14274944Y-12121793D02*
X14265420Y-12102746D01*
X14265420Y-12102746D02*
X14255896Y-12093222D01*
X14255896Y-12093222D02*
X14236848Y-12083698D01*
X14351134Y-11997984D02*
X14351134Y-12036079D01*
X14427325Y-11997984D02*
X14427325Y-12036079D01*
X14722563Y-12274174D02*
X14713039Y-12264650D01*
X14713039Y-12264650D02*
X14693991Y-12236079D01*
X14693991Y-12236079D02*
X14684468Y-12217031D01*
X14684468Y-12217031D02*
X14674944Y-12188460D01*
X14674944Y-12188460D02*
X14665420Y-12140841D01*
X14665420Y-12140841D02*
X14665420Y-12102746D01*
X14665420Y-12102746D02*
X14674944Y-12055127D01*
X14674944Y-12055127D02*
X14684468Y-12026555D01*
X14684468Y-12026555D02*
X14693991Y-12007508D01*
X14693991Y-12007508D02*
X14713039Y-11978936D01*
X14713039Y-11978936D02*
X14722563Y-11969412D01*
X14903515Y-12197984D02*
X14789229Y-12197984D01*
X14846372Y-12197984D02*
X14846372Y-11997984D01*
X14846372Y-11997984D02*
X14827325Y-12026555D01*
X14827325Y-12026555D02*
X14808277Y-12045603D01*
X14808277Y-12045603D02*
X14789229Y-12055127D01*
X15141610Y-12197984D02*
X15141610Y-11997984D01*
X15227325Y-12197984D02*
X15227325Y-12093222D01*
X15227325Y-12093222D02*
X15217801Y-12074174D01*
X15217801Y-12074174D02*
X15198753Y-12064650D01*
X15198753Y-12064650D02*
X15170182Y-12064650D01*
X15170182Y-12064650D02*
X15151134Y-12074174D01*
X15151134Y-12074174D02*
X15141610Y-12083698D01*
X15351134Y-12197984D02*
X15332087Y-12188460D01*
X15332087Y-12188460D02*
X15322563Y-12178936D01*
X15322563Y-12178936D02*
X15313039Y-12159888D01*
X15313039Y-12159888D02*
X15313039Y-12102746D01*
X15313039Y-12102746D02*
X15322563Y-12083698D01*
X15322563Y-12083698D02*
X15332087Y-12074174D01*
X15332087Y-12074174D02*
X15351134Y-12064650D01*
X15351134Y-12064650D02*
X15379706Y-12064650D01*
X15379706Y-12064650D02*
X15398753Y-12074174D01*
X15398753Y-12074174D02*
X15408277Y-12083698D01*
X15408277Y-12083698D02*
X15417801Y-12102746D01*
X15417801Y-12102746D02*
X15417801Y-12159888D01*
X15417801Y-12159888D02*
X15408277Y-12178936D01*
X15408277Y-12178936D02*
X15398753Y-12188460D01*
X15398753Y-12188460D02*
X15379706Y-12197984D01*
X15379706Y-12197984D02*
X15351134Y-12197984D01*
X15532087Y-12197984D02*
X15513039Y-12188460D01*
X15513039Y-12188460D02*
X15503515Y-12169412D01*
X15503515Y-12169412D02*
X15503515Y-11997984D01*
X15684468Y-12188460D02*
X15665420Y-12197984D01*
X15665420Y-12197984D02*
X15627325Y-12197984D01*
X15627325Y-12197984D02*
X15608277Y-12188460D01*
X15608277Y-12188460D02*
X15598753Y-12169412D01*
X15598753Y-12169412D02*
X15598753Y-12093222D01*
X15598753Y-12093222D02*
X15608277Y-12074174D01*
X15608277Y-12074174D02*
X15627325Y-12064650D01*
X15627325Y-12064650D02*
X15665420Y-12064650D01*
X15665420Y-12064650D02*
X15684468Y-12074174D01*
X15684468Y-12074174D02*
X15693991Y-12093222D01*
X15693991Y-12093222D02*
X15693991Y-12112269D01*
X15693991Y-12112269D02*
X15598753Y-12131317D01*
X15760658Y-12274174D02*
X15770182Y-12264650D01*
X15770182Y-12264650D02*
X15789230Y-12236079D01*
X15789230Y-12236079D02*
X15798753Y-12217031D01*
X15798753Y-12217031D02*
X15808277Y-12188460D01*
X15808277Y-12188460D02*
X15817801Y-12140841D01*
X15817801Y-12140841D02*
X15817801Y-12102746D01*
X15817801Y-12102746D02*
X15808277Y-12055127D01*
X15808277Y-12055127D02*
X15798753Y-12026555D01*
X15798753Y-12026555D02*
X15789230Y-12007508D01*
X15789230Y-12007508D02*
X15770182Y-11978936D01*
X15770182Y-11978936D02*
X15760658Y-11969412D01*
D12*
X11127500Y-12350500D02*
X11127500Y-12390500D01*
X11107500Y-12370500D02*
X11147500Y-12370500D01*
D11*
X11446372Y-12261984D02*
X11465420Y-12261984D01*
X11465420Y-12261984D02*
X11484467Y-12271508D01*
X11484467Y-12271508D02*
X11493991Y-12281031D01*
X11493991Y-12281031D02*
X11503515Y-12300079D01*
X11503515Y-12300079D02*
X11513039Y-12338174D01*
X11513039Y-12338174D02*
X11513039Y-12385793D01*
X11513039Y-12385793D02*
X11503515Y-12423888D01*
X11503515Y-12423888D02*
X11493991Y-12442936D01*
X11493991Y-12442936D02*
X11484467Y-12452460D01*
X11484467Y-12452460D02*
X11465420Y-12461984D01*
X11465420Y-12461984D02*
X11446372Y-12461984D01*
X11446372Y-12461984D02*
X11427324Y-12452460D01*
X11427324Y-12452460D02*
X11417801Y-12442936D01*
X11417801Y-12442936D02*
X11408277Y-12423888D01*
X11408277Y-12423888D02*
X11398753Y-12385793D01*
X11398753Y-12385793D02*
X11398753Y-12338174D01*
X11398753Y-12338174D02*
X11408277Y-12300079D01*
X11408277Y-12300079D02*
X11417801Y-12281031D01*
X11417801Y-12281031D02*
X11427324Y-12271508D01*
X11427324Y-12271508D02*
X11446372Y-12261984D01*
X11598753Y-12442936D02*
X11608277Y-12452460D01*
X11608277Y-12452460D02*
X11598753Y-12461984D01*
X11598753Y-12461984D02*
X11589229Y-12452460D01*
X11589229Y-12452460D02*
X11598753Y-12442936D01*
X11598753Y-12442936D02*
X11598753Y-12461984D01*
X11779705Y-12328650D02*
X11779705Y-12461984D01*
X11732086Y-12252460D02*
X11684467Y-12395317D01*
X11684467Y-12395317D02*
X11808277Y-12395317D01*
X11922562Y-12261984D02*
X11941610Y-12261984D01*
X11941610Y-12261984D02*
X11960658Y-12271508D01*
X11960658Y-12271508D02*
X11970182Y-12281031D01*
X11970182Y-12281031D02*
X11979705Y-12300079D01*
X11979705Y-12300079D02*
X11989229Y-12338174D01*
X11989229Y-12338174D02*
X11989229Y-12385793D01*
X11989229Y-12385793D02*
X11979705Y-12423888D01*
X11979705Y-12423888D02*
X11970182Y-12442936D01*
X11970182Y-12442936D02*
X11960658Y-12452460D01*
X11960658Y-12452460D02*
X11941610Y-12461984D01*
X11941610Y-12461984D02*
X11922562Y-12461984D01*
X11922562Y-12461984D02*
X11903515Y-12452460D01*
X11903515Y-12452460D02*
X11893991Y-12442936D01*
X11893991Y-12442936D02*
X11884467Y-12423888D01*
X11884467Y-12423888D02*
X11874943Y-12385793D01*
X11874943Y-12385793D02*
X11874943Y-12338174D01*
X11874943Y-12338174D02*
X11884467Y-12300079D01*
X11884467Y-12300079D02*
X11893991Y-12281031D01*
X11893991Y-12281031D02*
X11903515Y-12271508D01*
X11903515Y-12271508D02*
X11922562Y-12261984D01*
X12113039Y-12261984D02*
X12132086Y-12261984D01*
X12132086Y-12261984D02*
X12151134Y-12271508D01*
X12151134Y-12271508D02*
X12160658Y-12281031D01*
X12160658Y-12281031D02*
X12170182Y-12300079D01*
X12170182Y-12300079D02*
X12179705Y-12338174D01*
X12179705Y-12338174D02*
X12179705Y-12385793D01*
X12179705Y-12385793D02*
X12170182Y-12423888D01*
X12170182Y-12423888D02*
X12160658Y-12442936D01*
X12160658Y-12442936D02*
X12151134Y-12452460D01*
X12151134Y-12452460D02*
X12132086Y-12461984D01*
X12132086Y-12461984D02*
X12113039Y-12461984D01*
X12113039Y-12461984D02*
X12093991Y-12452460D01*
X12093991Y-12452460D02*
X12084467Y-12442936D01*
X12084467Y-12442936D02*
X12074943Y-12423888D01*
X12074943Y-12423888D02*
X12065420Y-12385793D01*
X12065420Y-12385793D02*
X12065420Y-12338174D01*
X12065420Y-12338174D02*
X12074943Y-12300079D01*
X12074943Y-12300079D02*
X12084467Y-12281031D01*
X12084467Y-12281031D02*
X12093991Y-12271508D01*
X12093991Y-12271508D02*
X12113039Y-12261984D01*
X12265420Y-12461984D02*
X12265420Y-12328650D01*
X12265420Y-12347698D02*
X12274943Y-12338174D01*
X12274943Y-12338174D02*
X12293991Y-12328650D01*
X12293991Y-12328650D02*
X12322563Y-12328650D01*
X12322563Y-12328650D02*
X12341610Y-12338174D01*
X12341610Y-12338174D02*
X12351134Y-12357222D01*
X12351134Y-12357222D02*
X12351134Y-12461984D01*
X12351134Y-12357222D02*
X12360658Y-12338174D01*
X12360658Y-12338174D02*
X12379705Y-12328650D01*
X12379705Y-12328650D02*
X12408277Y-12328650D01*
X12408277Y-12328650D02*
X12427324Y-12338174D01*
X12427324Y-12338174D02*
X12436848Y-12357222D01*
X12436848Y-12357222D02*
X12436848Y-12461984D01*
X12532086Y-12461984D02*
X12532086Y-12328650D01*
X12532086Y-12347698D02*
X12541610Y-12338174D01*
X12541610Y-12338174D02*
X12560658Y-12328650D01*
X12560658Y-12328650D02*
X12589229Y-12328650D01*
X12589229Y-12328650D02*
X12608277Y-12338174D01*
X12608277Y-12338174D02*
X12617801Y-12357222D01*
X12617801Y-12357222D02*
X12617801Y-12461984D01*
X12617801Y-12357222D02*
X12627324Y-12338174D01*
X12627324Y-12338174D02*
X12646372Y-12328650D01*
X12646372Y-12328650D02*
X12674943Y-12328650D01*
X12674943Y-12328650D02*
X12693991Y-12338174D01*
X12693991Y-12338174D02*
X12703515Y-12357222D01*
X12703515Y-12357222D02*
X12703515Y-12461984D01*
X13093991Y-12252460D02*
X12922563Y-12509603D01*
X13351134Y-12261984D02*
X13370182Y-12261984D01*
X13370182Y-12261984D02*
X13389229Y-12271508D01*
X13389229Y-12271508D02*
X13398753Y-12281031D01*
X13398753Y-12281031D02*
X13408277Y-12300079D01*
X13408277Y-12300079D02*
X13417801Y-12338174D01*
X13417801Y-12338174D02*
X13417801Y-12385793D01*
X13417801Y-12385793D02*
X13408277Y-12423888D01*
X13408277Y-12423888D02*
X13398753Y-12442936D01*
X13398753Y-12442936D02*
X13389229Y-12452460D01*
X13389229Y-12452460D02*
X13370182Y-12461984D01*
X13370182Y-12461984D02*
X13351134Y-12461984D01*
X13351134Y-12461984D02*
X13332086Y-12452460D01*
X13332086Y-12452460D02*
X13322563Y-12442936D01*
X13322563Y-12442936D02*
X13313039Y-12423888D01*
X13313039Y-12423888D02*
X13303515Y-12385793D01*
X13303515Y-12385793D02*
X13303515Y-12338174D01*
X13303515Y-12338174D02*
X13313039Y-12300079D01*
X13313039Y-12300079D02*
X13322563Y-12281031D01*
X13322563Y-12281031D02*
X13332086Y-12271508D01*
X13332086Y-12271508D02*
X13351134Y-12261984D01*
X13503515Y-12442936D02*
X13513039Y-12452460D01*
X13513039Y-12452460D02*
X13503515Y-12461984D01*
X13503515Y-12461984D02*
X13493991Y-12452460D01*
X13493991Y-12452460D02*
X13503515Y-12442936D01*
X13503515Y-12442936D02*
X13503515Y-12461984D01*
X13636848Y-12261984D02*
X13655896Y-12261984D01*
X13655896Y-12261984D02*
X13674944Y-12271508D01*
X13674944Y-12271508D02*
X13684467Y-12281031D01*
X13684467Y-12281031D02*
X13693991Y-12300079D01*
X13693991Y-12300079D02*
X13703515Y-12338174D01*
X13703515Y-12338174D02*
X13703515Y-12385793D01*
X13703515Y-12385793D02*
X13693991Y-12423888D01*
X13693991Y-12423888D02*
X13684467Y-12442936D01*
X13684467Y-12442936D02*
X13674944Y-12452460D01*
X13674944Y-12452460D02*
X13655896Y-12461984D01*
X13655896Y-12461984D02*
X13636848Y-12461984D01*
X13636848Y-12461984D02*
X13617801Y-12452460D01*
X13617801Y-12452460D02*
X13608277Y-12442936D01*
X13608277Y-12442936D02*
X13598753Y-12423888D01*
X13598753Y-12423888D02*
X13589229Y-12385793D01*
X13589229Y-12385793D02*
X13589229Y-12338174D01*
X13589229Y-12338174D02*
X13598753Y-12300079D01*
X13598753Y-12300079D02*
X13608277Y-12281031D01*
X13608277Y-12281031D02*
X13617801Y-12271508D01*
X13617801Y-12271508D02*
X13636848Y-12261984D01*
X13893991Y-12461984D02*
X13779706Y-12461984D01*
X13836848Y-12461984D02*
X13836848Y-12261984D01*
X13836848Y-12261984D02*
X13817801Y-12290555D01*
X13817801Y-12290555D02*
X13798753Y-12309603D01*
X13798753Y-12309603D02*
X13779706Y-12319127D01*
X14074944Y-12261984D02*
X13979706Y-12261984D01*
X13979706Y-12261984D02*
X13970182Y-12357222D01*
X13970182Y-12357222D02*
X13979706Y-12347698D01*
X13979706Y-12347698D02*
X13998753Y-12338174D01*
X13998753Y-12338174D02*
X14046372Y-12338174D01*
X14046372Y-12338174D02*
X14065420Y-12347698D01*
X14065420Y-12347698D02*
X14074944Y-12357222D01*
X14074944Y-12357222D02*
X14084467Y-12376269D01*
X14084467Y-12376269D02*
X14084467Y-12423888D01*
X14084467Y-12423888D02*
X14074944Y-12442936D01*
X14074944Y-12442936D02*
X14065420Y-12452460D01*
X14065420Y-12452460D02*
X14046372Y-12461984D01*
X14046372Y-12461984D02*
X13998753Y-12461984D01*
X13998753Y-12461984D02*
X13979706Y-12452460D01*
X13979706Y-12452460D02*
X13970182Y-12442936D01*
X14151134Y-12261984D02*
X14284467Y-12261984D01*
X14284467Y-12261984D02*
X14198753Y-12461984D01*
X14351134Y-12261984D02*
X14351134Y-12300079D01*
X14427325Y-12261984D02*
X14427325Y-12300079D01*
X14722563Y-12538174D02*
X14713039Y-12528650D01*
X14713039Y-12528650D02*
X14693991Y-12500079D01*
X14693991Y-12500079D02*
X14684468Y-12481031D01*
X14684468Y-12481031D02*
X14674944Y-12452460D01*
X14674944Y-12452460D02*
X14665420Y-12404841D01*
X14665420Y-12404841D02*
X14665420Y-12366746D01*
X14665420Y-12366746D02*
X14674944Y-12319127D01*
X14674944Y-12319127D02*
X14684468Y-12290555D01*
X14684468Y-12290555D02*
X14693991Y-12271508D01*
X14693991Y-12271508D02*
X14713039Y-12242936D01*
X14713039Y-12242936D02*
X14722563Y-12233412D01*
X14903515Y-12461984D02*
X14789229Y-12461984D01*
X14846372Y-12461984D02*
X14846372Y-12261984D01*
X14846372Y-12261984D02*
X14827325Y-12290555D01*
X14827325Y-12290555D02*
X14808277Y-12309603D01*
X14808277Y-12309603D02*
X14789229Y-12319127D01*
X15027325Y-12261984D02*
X15046372Y-12261984D01*
X15046372Y-12261984D02*
X15065420Y-12271508D01*
X15065420Y-12271508D02*
X15074944Y-12281031D01*
X15074944Y-12281031D02*
X15084468Y-12300079D01*
X15084468Y-12300079D02*
X15093991Y-12338174D01*
X15093991Y-12338174D02*
X15093991Y-12385793D01*
X15093991Y-12385793D02*
X15084468Y-12423888D01*
X15084468Y-12423888D02*
X15074944Y-12442936D01*
X15074944Y-12442936D02*
X15065420Y-12452460D01*
X15065420Y-12452460D02*
X15046372Y-12461984D01*
X15046372Y-12461984D02*
X15027325Y-12461984D01*
X15027325Y-12461984D02*
X15008277Y-12452460D01*
X15008277Y-12452460D02*
X14998753Y-12442936D01*
X14998753Y-12442936D02*
X14989229Y-12423888D01*
X14989229Y-12423888D02*
X14979706Y-12385793D01*
X14979706Y-12385793D02*
X14979706Y-12338174D01*
X14979706Y-12338174D02*
X14989229Y-12300079D01*
X14989229Y-12300079D02*
X14998753Y-12281031D01*
X14998753Y-12281031D02*
X15008277Y-12271508D01*
X15008277Y-12271508D02*
X15027325Y-12261984D01*
X15332087Y-12461984D02*
X15332087Y-12261984D01*
X15417801Y-12461984D02*
X15417801Y-12357222D01*
X15417801Y-12357222D02*
X15408277Y-12338174D01*
X15408277Y-12338174D02*
X15389230Y-12328650D01*
X15389230Y-12328650D02*
X15360658Y-12328650D01*
X15360658Y-12328650D02*
X15341610Y-12338174D01*
X15341610Y-12338174D02*
X15332087Y-12347698D01*
X15541610Y-12461984D02*
X15522563Y-12452460D01*
X15522563Y-12452460D02*
X15513039Y-12442936D01*
X15513039Y-12442936D02*
X15503515Y-12423888D01*
X15503515Y-12423888D02*
X15503515Y-12366746D01*
X15503515Y-12366746D02*
X15513039Y-12347698D01*
X15513039Y-12347698D02*
X15522563Y-12338174D01*
X15522563Y-12338174D02*
X15541610Y-12328650D01*
X15541610Y-12328650D02*
X15570182Y-12328650D01*
X15570182Y-12328650D02*
X15589230Y-12338174D01*
X15589230Y-12338174D02*
X15598753Y-12347698D01*
X15598753Y-12347698D02*
X15608277Y-12366746D01*
X15608277Y-12366746D02*
X15608277Y-12423888D01*
X15608277Y-12423888D02*
X15598753Y-12442936D01*
X15598753Y-12442936D02*
X15589230Y-12452460D01*
X15589230Y-12452460D02*
X15570182Y-12461984D01*
X15570182Y-12461984D02*
X15541610Y-12461984D01*
X15722563Y-12461984D02*
X15703515Y-12452460D01*
X15703515Y-12452460D02*
X15693991Y-12433412D01*
X15693991Y-12433412D02*
X15693991Y-12261984D01*
X15874944Y-12452460D02*
X15855896Y-12461984D01*
X15855896Y-12461984D02*
X15817801Y-12461984D01*
X15817801Y-12461984D02*
X15798753Y-12452460D01*
X15798753Y-12452460D02*
X15789230Y-12433412D01*
X15789230Y-12433412D02*
X15789230Y-12357222D01*
X15789230Y-12357222D02*
X15798753Y-12338174D01*
X15798753Y-12338174D02*
X15817801Y-12328650D01*
X15817801Y-12328650D02*
X15855896Y-12328650D01*
X15855896Y-12328650D02*
X15874944Y-12338174D01*
X15874944Y-12338174D02*
X15884468Y-12357222D01*
X15884468Y-12357222D02*
X15884468Y-12376269D01*
X15884468Y-12376269D02*
X15789230Y-12395317D01*
X15960658Y-12452460D02*
X15979706Y-12461984D01*
X15979706Y-12461984D02*
X16017801Y-12461984D01*
X16017801Y-12461984D02*
X16036849Y-12452460D01*
X16036849Y-12452460D02*
X16046372Y-12433412D01*
X16046372Y-12433412D02*
X16046372Y-12423888D01*
X16046372Y-12423888D02*
X16036849Y-12404841D01*
X16036849Y-12404841D02*
X16017801Y-12395317D01*
X16017801Y-12395317D02*
X15989230Y-12395317D01*
X15989230Y-12395317D02*
X15970182Y-12385793D01*
X15970182Y-12385793D02*
X15960658Y-12366746D01*
X15960658Y-12366746D02*
X15960658Y-12357222D01*
X15960658Y-12357222D02*
X15970182Y-12338174D01*
X15970182Y-12338174D02*
X15989230Y-12328650D01*
X15989230Y-12328650D02*
X16017801Y-12328650D01*
X16017801Y-12328650D02*
X16036849Y-12338174D01*
X16113039Y-12538174D02*
X16122563Y-12528650D01*
X16122563Y-12528650D02*
X16141611Y-12500079D01*
X16141611Y-12500079D02*
X16151134Y-12481031D01*
X16151134Y-12481031D02*
X16160658Y-12452460D01*
X16160658Y-12452460D02*
X16170182Y-12404841D01*
X16170182Y-12404841D02*
X16170182Y-12366746D01*
X16170182Y-12366746D02*
X16160658Y-12319127D01*
X16160658Y-12319127D02*
X16151134Y-12290555D01*
X16151134Y-12290555D02*
X16141611Y-12271508D01*
X16141611Y-12271508D02*
X16122563Y-12242936D01*
X16122563Y-12242936D02*
X16113039Y-12233412D01*
D12*
X11140910Y-12650410D02*
X11140910Y-12618590D01*
X11109090Y-12618590D01*
X11109090Y-12650410D01*
X11140910Y-12650410D01*
D11*
X11446372Y-12525984D02*
X11465420Y-12525984D01*
X11465420Y-12525984D02*
X11484467Y-12535508D01*
X11484467Y-12535508D02*
X11493991Y-12545031D01*
X11493991Y-12545031D02*
X11503515Y-12564079D01*
X11503515Y-12564079D02*
X11513039Y-12602174D01*
X11513039Y-12602174D02*
X11513039Y-12649793D01*
X11513039Y-12649793D02*
X11503515Y-12687888D01*
X11503515Y-12687888D02*
X11493991Y-12706936D01*
X11493991Y-12706936D02*
X11484467Y-12716460D01*
X11484467Y-12716460D02*
X11465420Y-12725984D01*
X11465420Y-12725984D02*
X11446372Y-12725984D01*
X11446372Y-12725984D02*
X11427324Y-12716460D01*
X11427324Y-12716460D02*
X11417801Y-12706936D01*
X11417801Y-12706936D02*
X11408277Y-12687888D01*
X11408277Y-12687888D02*
X11398753Y-12649793D01*
X11398753Y-12649793D02*
X11398753Y-12602174D01*
X11398753Y-12602174D02*
X11408277Y-12564079D01*
X11408277Y-12564079D02*
X11417801Y-12545031D01*
X11417801Y-12545031D02*
X11427324Y-12535508D01*
X11427324Y-12535508D02*
X11446372Y-12525984D01*
X11598753Y-12706936D02*
X11608277Y-12716460D01*
X11608277Y-12716460D02*
X11598753Y-12725984D01*
X11598753Y-12725984D02*
X11589229Y-12716460D01*
X11589229Y-12716460D02*
X11598753Y-12706936D01*
X11598753Y-12706936D02*
X11598753Y-12725984D01*
X11779705Y-12592650D02*
X11779705Y-12725984D01*
X11732086Y-12516460D02*
X11684467Y-12659317D01*
X11684467Y-12659317D02*
X11808277Y-12659317D01*
X11979705Y-12525984D02*
X11884467Y-12525984D01*
X11884467Y-12525984D02*
X11874943Y-12621222D01*
X11874943Y-12621222D02*
X11884467Y-12611698D01*
X11884467Y-12611698D02*
X11903515Y-12602174D01*
X11903515Y-12602174D02*
X11951134Y-12602174D01*
X11951134Y-12602174D02*
X11970182Y-12611698D01*
X11970182Y-12611698D02*
X11979705Y-12621222D01*
X11979705Y-12621222D02*
X11989229Y-12640269D01*
X11989229Y-12640269D02*
X11989229Y-12687888D01*
X11989229Y-12687888D02*
X11979705Y-12706936D01*
X11979705Y-12706936D02*
X11970182Y-12716460D01*
X11970182Y-12716460D02*
X11951134Y-12725984D01*
X11951134Y-12725984D02*
X11903515Y-12725984D01*
X11903515Y-12725984D02*
X11884467Y-12716460D01*
X11884467Y-12716460D02*
X11874943Y-12706936D01*
X12113039Y-12525984D02*
X12132086Y-12525984D01*
X12132086Y-12525984D02*
X12151134Y-12535508D01*
X12151134Y-12535508D02*
X12160658Y-12545031D01*
X12160658Y-12545031D02*
X12170182Y-12564079D01*
X12170182Y-12564079D02*
X12179705Y-12602174D01*
X12179705Y-12602174D02*
X12179705Y-12649793D01*
X12179705Y-12649793D02*
X12170182Y-12687888D01*
X12170182Y-12687888D02*
X12160658Y-12706936D01*
X12160658Y-12706936D02*
X12151134Y-12716460D01*
X12151134Y-12716460D02*
X12132086Y-12725984D01*
X12132086Y-12725984D02*
X12113039Y-12725984D01*
X12113039Y-12725984D02*
X12093991Y-12716460D01*
X12093991Y-12716460D02*
X12084467Y-12706936D01*
X12084467Y-12706936D02*
X12074943Y-12687888D01*
X12074943Y-12687888D02*
X12065420Y-12649793D01*
X12065420Y-12649793D02*
X12065420Y-12602174D01*
X12065420Y-12602174D02*
X12074943Y-12564079D01*
X12074943Y-12564079D02*
X12084467Y-12545031D01*
X12084467Y-12545031D02*
X12093991Y-12535508D01*
X12093991Y-12535508D02*
X12113039Y-12525984D01*
X12265420Y-12725984D02*
X12265420Y-12592650D01*
X12265420Y-12611698D02*
X12274943Y-12602174D01*
X12274943Y-12602174D02*
X12293991Y-12592650D01*
X12293991Y-12592650D02*
X12322563Y-12592650D01*
X12322563Y-12592650D02*
X12341610Y-12602174D01*
X12341610Y-12602174D02*
X12351134Y-12621222D01*
X12351134Y-12621222D02*
X12351134Y-12725984D01*
X12351134Y-12621222D02*
X12360658Y-12602174D01*
X12360658Y-12602174D02*
X12379705Y-12592650D01*
X12379705Y-12592650D02*
X12408277Y-12592650D01*
X12408277Y-12592650D02*
X12427324Y-12602174D01*
X12427324Y-12602174D02*
X12436848Y-12621222D01*
X12436848Y-12621222D02*
X12436848Y-12725984D01*
X12532086Y-12725984D02*
X12532086Y-12592650D01*
X12532086Y-12611698D02*
X12541610Y-12602174D01*
X12541610Y-12602174D02*
X12560658Y-12592650D01*
X12560658Y-12592650D02*
X12589229Y-12592650D01*
X12589229Y-12592650D02*
X12608277Y-12602174D01*
X12608277Y-12602174D02*
X12617801Y-12621222D01*
X12617801Y-12621222D02*
X12617801Y-12725984D01*
X12617801Y-12621222D02*
X12627324Y-12602174D01*
X12627324Y-12602174D02*
X12646372Y-12592650D01*
X12646372Y-12592650D02*
X12674943Y-12592650D01*
X12674943Y-12592650D02*
X12693991Y-12602174D01*
X12693991Y-12602174D02*
X12703515Y-12621222D01*
X12703515Y-12621222D02*
X12703515Y-12725984D01*
X13093991Y-12516460D02*
X12922563Y-12773603D01*
X13351134Y-12525984D02*
X13370182Y-12525984D01*
X13370182Y-12525984D02*
X13389229Y-12535508D01*
X13389229Y-12535508D02*
X13398753Y-12545031D01*
X13398753Y-12545031D02*
X13408277Y-12564079D01*
X13408277Y-12564079D02*
X13417801Y-12602174D01*
X13417801Y-12602174D02*
X13417801Y-12649793D01*
X13417801Y-12649793D02*
X13408277Y-12687888D01*
X13408277Y-12687888D02*
X13398753Y-12706936D01*
X13398753Y-12706936D02*
X13389229Y-12716460D01*
X13389229Y-12716460D02*
X13370182Y-12725984D01*
X13370182Y-12725984D02*
X13351134Y-12725984D01*
X13351134Y-12725984D02*
X13332086Y-12716460D01*
X13332086Y-12716460D02*
X13322563Y-12706936D01*
X13322563Y-12706936D02*
X13313039Y-12687888D01*
X13313039Y-12687888D02*
X13303515Y-12649793D01*
X13303515Y-12649793D02*
X13303515Y-12602174D01*
X13303515Y-12602174D02*
X13313039Y-12564079D01*
X13313039Y-12564079D02*
X13322563Y-12545031D01*
X13322563Y-12545031D02*
X13332086Y-12535508D01*
X13332086Y-12535508D02*
X13351134Y-12525984D01*
X13503515Y-12706936D02*
X13513039Y-12716460D01*
X13513039Y-12716460D02*
X13503515Y-12725984D01*
X13503515Y-12725984D02*
X13493991Y-12716460D01*
X13493991Y-12716460D02*
X13503515Y-12706936D01*
X13503515Y-12706936D02*
X13503515Y-12725984D01*
X13636848Y-12525984D02*
X13655896Y-12525984D01*
X13655896Y-12525984D02*
X13674944Y-12535508D01*
X13674944Y-12535508D02*
X13684467Y-12545031D01*
X13684467Y-12545031D02*
X13693991Y-12564079D01*
X13693991Y-12564079D02*
X13703515Y-12602174D01*
X13703515Y-12602174D02*
X13703515Y-12649793D01*
X13703515Y-12649793D02*
X13693991Y-12687888D01*
X13693991Y-12687888D02*
X13684467Y-12706936D01*
X13684467Y-12706936D02*
X13674944Y-12716460D01*
X13674944Y-12716460D02*
X13655896Y-12725984D01*
X13655896Y-12725984D02*
X13636848Y-12725984D01*
X13636848Y-12725984D02*
X13617801Y-12716460D01*
X13617801Y-12716460D02*
X13608277Y-12706936D01*
X13608277Y-12706936D02*
X13598753Y-12687888D01*
X13598753Y-12687888D02*
X13589229Y-12649793D01*
X13589229Y-12649793D02*
X13589229Y-12602174D01*
X13589229Y-12602174D02*
X13598753Y-12564079D01*
X13598753Y-12564079D02*
X13608277Y-12545031D01*
X13608277Y-12545031D02*
X13617801Y-12535508D01*
X13617801Y-12535508D02*
X13636848Y-12525984D01*
X13893991Y-12725984D02*
X13779706Y-12725984D01*
X13836848Y-12725984D02*
X13836848Y-12525984D01*
X13836848Y-12525984D02*
X13817801Y-12554555D01*
X13817801Y-12554555D02*
X13798753Y-12573603D01*
X13798753Y-12573603D02*
X13779706Y-12583127D01*
X13960658Y-12525984D02*
X14093991Y-12525984D01*
X14093991Y-12525984D02*
X14008277Y-12725984D01*
X14151134Y-12525984D02*
X14284467Y-12525984D01*
X14284467Y-12525984D02*
X14198753Y-12725984D01*
X14351134Y-12525984D02*
X14351134Y-12564079D01*
X14427325Y-12525984D02*
X14427325Y-12564079D01*
X14722563Y-12802174D02*
X14713039Y-12792650D01*
X14713039Y-12792650D02*
X14693991Y-12764079D01*
X14693991Y-12764079D02*
X14684468Y-12745031D01*
X14684468Y-12745031D02*
X14674944Y-12716460D01*
X14674944Y-12716460D02*
X14665420Y-12668841D01*
X14665420Y-12668841D02*
X14665420Y-12630746D01*
X14665420Y-12630746D02*
X14674944Y-12583127D01*
X14674944Y-12583127D02*
X14684468Y-12554555D01*
X14684468Y-12554555D02*
X14693991Y-12535508D01*
X14693991Y-12535508D02*
X14713039Y-12506936D01*
X14713039Y-12506936D02*
X14722563Y-12497412D01*
X14789229Y-12545031D02*
X14798753Y-12535508D01*
X14798753Y-12535508D02*
X14817801Y-12525984D01*
X14817801Y-12525984D02*
X14865420Y-12525984D01*
X14865420Y-12525984D02*
X14884468Y-12535508D01*
X14884468Y-12535508D02*
X14893991Y-12545031D01*
X14893991Y-12545031D02*
X14903515Y-12564079D01*
X14903515Y-12564079D02*
X14903515Y-12583127D01*
X14903515Y-12583127D02*
X14893991Y-12611698D01*
X14893991Y-12611698D02*
X14779706Y-12725984D01*
X14779706Y-12725984D02*
X14903515Y-12725984D01*
X15141610Y-12725984D02*
X15141610Y-12525984D01*
X15227325Y-12725984D02*
X15227325Y-12621222D01*
X15227325Y-12621222D02*
X15217801Y-12602174D01*
X15217801Y-12602174D02*
X15198753Y-12592650D01*
X15198753Y-12592650D02*
X15170182Y-12592650D01*
X15170182Y-12592650D02*
X15151134Y-12602174D01*
X15151134Y-12602174D02*
X15141610Y-12611698D01*
X15351134Y-12725984D02*
X15332087Y-12716460D01*
X15332087Y-12716460D02*
X15322563Y-12706936D01*
X15322563Y-12706936D02*
X15313039Y-12687888D01*
X15313039Y-12687888D02*
X15313039Y-12630746D01*
X15313039Y-12630746D02*
X15322563Y-12611698D01*
X15322563Y-12611698D02*
X15332087Y-12602174D01*
X15332087Y-12602174D02*
X15351134Y-12592650D01*
X15351134Y-12592650D02*
X15379706Y-12592650D01*
X15379706Y-12592650D02*
X15398753Y-12602174D01*
X15398753Y-12602174D02*
X15408277Y-12611698D01*
X15408277Y-12611698D02*
X15417801Y-12630746D01*
X15417801Y-12630746D02*
X15417801Y-12687888D01*
X15417801Y-12687888D02*
X15408277Y-12706936D01*
X15408277Y-12706936D02*
X15398753Y-12716460D01*
X15398753Y-12716460D02*
X15379706Y-12725984D01*
X15379706Y-12725984D02*
X15351134Y-12725984D01*
X15532087Y-12725984D02*
X15513039Y-12716460D01*
X15513039Y-12716460D02*
X15503515Y-12697412D01*
X15503515Y-12697412D02*
X15503515Y-12525984D01*
X15684468Y-12716460D02*
X15665420Y-12725984D01*
X15665420Y-12725984D02*
X15627325Y-12725984D01*
X15627325Y-12725984D02*
X15608277Y-12716460D01*
X15608277Y-12716460D02*
X15598753Y-12697412D01*
X15598753Y-12697412D02*
X15598753Y-12621222D01*
X15598753Y-12621222D02*
X15608277Y-12602174D01*
X15608277Y-12602174D02*
X15627325Y-12592650D01*
X15627325Y-12592650D02*
X15665420Y-12592650D01*
X15665420Y-12592650D02*
X15684468Y-12602174D01*
X15684468Y-12602174D02*
X15693991Y-12621222D01*
X15693991Y-12621222D02*
X15693991Y-12640269D01*
X15693991Y-12640269D02*
X15598753Y-12659317D01*
X15770182Y-12716460D02*
X15789230Y-12725984D01*
X15789230Y-12725984D02*
X15827325Y-12725984D01*
X15827325Y-12725984D02*
X15846372Y-12716460D01*
X15846372Y-12716460D02*
X15855896Y-12697412D01*
X15855896Y-12697412D02*
X15855896Y-12687888D01*
X15855896Y-12687888D02*
X15846372Y-12668841D01*
X15846372Y-12668841D02*
X15827325Y-12659317D01*
X15827325Y-12659317D02*
X15798753Y-12659317D01*
X15798753Y-12659317D02*
X15779706Y-12649793D01*
X15779706Y-12649793D02*
X15770182Y-12630746D01*
X15770182Y-12630746D02*
X15770182Y-12621222D01*
X15770182Y-12621222D02*
X15779706Y-12602174D01*
X15779706Y-12602174D02*
X15798753Y-12592650D01*
X15798753Y-12592650D02*
X15827325Y-12592650D01*
X15827325Y-12592650D02*
X15846372Y-12602174D01*
X15922563Y-12802174D02*
X15932087Y-12792650D01*
X15932087Y-12792650D02*
X15951134Y-12764079D01*
X15951134Y-12764079D02*
X15960658Y-12745031D01*
X15960658Y-12745031D02*
X15970182Y-12716460D01*
X15970182Y-12716460D02*
X15979706Y-12668841D01*
X15979706Y-12668841D02*
X15979706Y-12630746D01*
X15979706Y-12630746D02*
X15970182Y-12583127D01*
X15970182Y-12583127D02*
X15960658Y-12554555D01*
X15960658Y-12554555D02*
X15951134Y-12535508D01*
X15951134Y-12535508D02*
X15932087Y-12506936D01*
X15932087Y-12506936D02*
X15922563Y-12497412D01*
D12*
X11122500Y-12923500D02*
X11147500Y-12898500D01*
X11122500Y-12873500D01*
X11097500Y-12898500D01*
X11122500Y-12923500D01*
D11*
X11446372Y-12789984D02*
X11465420Y-12789984D01*
X11465420Y-12789984D02*
X11484467Y-12799508D01*
X11484467Y-12799508D02*
X11493991Y-12809031D01*
X11493991Y-12809031D02*
X11503515Y-12828079D01*
X11503515Y-12828079D02*
X11513039Y-12866174D01*
X11513039Y-12866174D02*
X11513039Y-12913793D01*
X11513039Y-12913793D02*
X11503515Y-12951888D01*
X11503515Y-12951888D02*
X11493991Y-12970936D01*
X11493991Y-12970936D02*
X11484467Y-12980460D01*
X11484467Y-12980460D02*
X11465420Y-12989984D01*
X11465420Y-12989984D02*
X11446372Y-12989984D01*
X11446372Y-12989984D02*
X11427324Y-12980460D01*
X11427324Y-12980460D02*
X11417801Y-12970936D01*
X11417801Y-12970936D02*
X11408277Y-12951888D01*
X11408277Y-12951888D02*
X11398753Y-12913793D01*
X11398753Y-12913793D02*
X11398753Y-12866174D01*
X11398753Y-12866174D02*
X11408277Y-12828079D01*
X11408277Y-12828079D02*
X11417801Y-12809031D01*
X11417801Y-12809031D02*
X11427324Y-12799508D01*
X11427324Y-12799508D02*
X11446372Y-12789984D01*
X11598753Y-12970936D02*
X11608277Y-12980460D01*
X11608277Y-12980460D02*
X11598753Y-12989984D01*
X11598753Y-12989984D02*
X11589229Y-12980460D01*
X11589229Y-12980460D02*
X11598753Y-12970936D01*
X11598753Y-12970936D02*
X11598753Y-12989984D01*
X11789229Y-12789984D02*
X11693991Y-12789984D01*
X11693991Y-12789984D02*
X11684467Y-12885222D01*
X11684467Y-12885222D02*
X11693991Y-12875698D01*
X11693991Y-12875698D02*
X11713039Y-12866174D01*
X11713039Y-12866174D02*
X11760658Y-12866174D01*
X11760658Y-12866174D02*
X11779705Y-12875698D01*
X11779705Y-12875698D02*
X11789229Y-12885222D01*
X11789229Y-12885222D02*
X11798753Y-12904269D01*
X11798753Y-12904269D02*
X11798753Y-12951888D01*
X11798753Y-12951888D02*
X11789229Y-12970936D01*
X11789229Y-12970936D02*
X11779705Y-12980460D01*
X11779705Y-12980460D02*
X11760658Y-12989984D01*
X11760658Y-12989984D02*
X11713039Y-12989984D01*
X11713039Y-12989984D02*
X11693991Y-12980460D01*
X11693991Y-12980460D02*
X11684467Y-12970936D01*
X11922562Y-12789984D02*
X11941610Y-12789984D01*
X11941610Y-12789984D02*
X11960658Y-12799508D01*
X11960658Y-12799508D02*
X11970182Y-12809031D01*
X11970182Y-12809031D02*
X11979705Y-12828079D01*
X11979705Y-12828079D02*
X11989229Y-12866174D01*
X11989229Y-12866174D02*
X11989229Y-12913793D01*
X11989229Y-12913793D02*
X11979705Y-12951888D01*
X11979705Y-12951888D02*
X11970182Y-12970936D01*
X11970182Y-12970936D02*
X11960658Y-12980460D01*
X11960658Y-12980460D02*
X11941610Y-12989984D01*
X11941610Y-12989984D02*
X11922562Y-12989984D01*
X11922562Y-12989984D02*
X11903515Y-12980460D01*
X11903515Y-12980460D02*
X11893991Y-12970936D01*
X11893991Y-12970936D02*
X11884467Y-12951888D01*
X11884467Y-12951888D02*
X11874943Y-12913793D01*
X11874943Y-12913793D02*
X11874943Y-12866174D01*
X11874943Y-12866174D02*
X11884467Y-12828079D01*
X11884467Y-12828079D02*
X11893991Y-12809031D01*
X11893991Y-12809031D02*
X11903515Y-12799508D01*
X11903515Y-12799508D02*
X11922562Y-12789984D01*
X12113039Y-12789984D02*
X12132086Y-12789984D01*
X12132086Y-12789984D02*
X12151134Y-12799508D01*
X12151134Y-12799508D02*
X12160658Y-12809031D01*
X12160658Y-12809031D02*
X12170182Y-12828079D01*
X12170182Y-12828079D02*
X12179705Y-12866174D01*
X12179705Y-12866174D02*
X12179705Y-12913793D01*
X12179705Y-12913793D02*
X12170182Y-12951888D01*
X12170182Y-12951888D02*
X12160658Y-12970936D01*
X12160658Y-12970936D02*
X12151134Y-12980460D01*
X12151134Y-12980460D02*
X12132086Y-12989984D01*
X12132086Y-12989984D02*
X12113039Y-12989984D01*
X12113039Y-12989984D02*
X12093991Y-12980460D01*
X12093991Y-12980460D02*
X12084467Y-12970936D01*
X12084467Y-12970936D02*
X12074943Y-12951888D01*
X12074943Y-12951888D02*
X12065420Y-12913793D01*
X12065420Y-12913793D02*
X12065420Y-12866174D01*
X12065420Y-12866174D02*
X12074943Y-12828079D01*
X12074943Y-12828079D02*
X12084467Y-12809031D01*
X12084467Y-12809031D02*
X12093991Y-12799508D01*
X12093991Y-12799508D02*
X12113039Y-12789984D01*
X12265420Y-12989984D02*
X12265420Y-12856650D01*
X12265420Y-12875698D02*
X12274943Y-12866174D01*
X12274943Y-12866174D02*
X12293991Y-12856650D01*
X12293991Y-12856650D02*
X12322563Y-12856650D01*
X12322563Y-12856650D02*
X12341610Y-12866174D01*
X12341610Y-12866174D02*
X12351134Y-12885222D01*
X12351134Y-12885222D02*
X12351134Y-12989984D01*
X12351134Y-12885222D02*
X12360658Y-12866174D01*
X12360658Y-12866174D02*
X12379705Y-12856650D01*
X12379705Y-12856650D02*
X12408277Y-12856650D01*
X12408277Y-12856650D02*
X12427324Y-12866174D01*
X12427324Y-12866174D02*
X12436848Y-12885222D01*
X12436848Y-12885222D02*
X12436848Y-12989984D01*
X12532086Y-12989984D02*
X12532086Y-12856650D01*
X12532086Y-12875698D02*
X12541610Y-12866174D01*
X12541610Y-12866174D02*
X12560658Y-12856650D01*
X12560658Y-12856650D02*
X12589229Y-12856650D01*
X12589229Y-12856650D02*
X12608277Y-12866174D01*
X12608277Y-12866174D02*
X12617801Y-12885222D01*
X12617801Y-12885222D02*
X12617801Y-12989984D01*
X12617801Y-12885222D02*
X12627324Y-12866174D01*
X12627324Y-12866174D02*
X12646372Y-12856650D01*
X12646372Y-12856650D02*
X12674943Y-12856650D01*
X12674943Y-12856650D02*
X12693991Y-12866174D01*
X12693991Y-12866174D02*
X12703515Y-12885222D01*
X12703515Y-12885222D02*
X12703515Y-12989984D01*
X13093991Y-12780460D02*
X12922563Y-13037603D01*
X13351134Y-12789984D02*
X13370182Y-12789984D01*
X13370182Y-12789984D02*
X13389229Y-12799508D01*
X13389229Y-12799508D02*
X13398753Y-12809031D01*
X13398753Y-12809031D02*
X13408277Y-12828079D01*
X13408277Y-12828079D02*
X13417801Y-12866174D01*
X13417801Y-12866174D02*
X13417801Y-12913793D01*
X13417801Y-12913793D02*
X13408277Y-12951888D01*
X13408277Y-12951888D02*
X13398753Y-12970936D01*
X13398753Y-12970936D02*
X13389229Y-12980460D01*
X13389229Y-12980460D02*
X13370182Y-12989984D01*
X13370182Y-12989984D02*
X13351134Y-12989984D01*
X13351134Y-12989984D02*
X13332086Y-12980460D01*
X13332086Y-12980460D02*
X13322563Y-12970936D01*
X13322563Y-12970936D02*
X13313039Y-12951888D01*
X13313039Y-12951888D02*
X13303515Y-12913793D01*
X13303515Y-12913793D02*
X13303515Y-12866174D01*
X13303515Y-12866174D02*
X13313039Y-12828079D01*
X13313039Y-12828079D02*
X13322563Y-12809031D01*
X13322563Y-12809031D02*
X13332086Y-12799508D01*
X13332086Y-12799508D02*
X13351134Y-12789984D01*
X13503515Y-12970936D02*
X13513039Y-12980460D01*
X13513039Y-12980460D02*
X13503515Y-12989984D01*
X13503515Y-12989984D02*
X13493991Y-12980460D01*
X13493991Y-12980460D02*
X13503515Y-12970936D01*
X13503515Y-12970936D02*
X13503515Y-12989984D01*
X13636848Y-12789984D02*
X13655896Y-12789984D01*
X13655896Y-12789984D02*
X13674944Y-12799508D01*
X13674944Y-12799508D02*
X13684467Y-12809031D01*
X13684467Y-12809031D02*
X13693991Y-12828079D01*
X13693991Y-12828079D02*
X13703515Y-12866174D01*
X13703515Y-12866174D02*
X13703515Y-12913793D01*
X13703515Y-12913793D02*
X13693991Y-12951888D01*
X13693991Y-12951888D02*
X13684467Y-12970936D01*
X13684467Y-12970936D02*
X13674944Y-12980460D01*
X13674944Y-12980460D02*
X13655896Y-12989984D01*
X13655896Y-12989984D02*
X13636848Y-12989984D01*
X13636848Y-12989984D02*
X13617801Y-12980460D01*
X13617801Y-12980460D02*
X13608277Y-12970936D01*
X13608277Y-12970936D02*
X13598753Y-12951888D01*
X13598753Y-12951888D02*
X13589229Y-12913793D01*
X13589229Y-12913793D02*
X13589229Y-12866174D01*
X13589229Y-12866174D02*
X13598753Y-12828079D01*
X13598753Y-12828079D02*
X13608277Y-12809031D01*
X13608277Y-12809031D02*
X13617801Y-12799508D01*
X13617801Y-12799508D02*
X13636848Y-12789984D01*
X13893991Y-12989984D02*
X13779706Y-12989984D01*
X13836848Y-12989984D02*
X13836848Y-12789984D01*
X13836848Y-12789984D02*
X13817801Y-12818555D01*
X13817801Y-12818555D02*
X13798753Y-12837603D01*
X13798753Y-12837603D02*
X13779706Y-12847127D01*
X13989229Y-12989984D02*
X14027325Y-12989984D01*
X14027325Y-12989984D02*
X14046372Y-12980460D01*
X14046372Y-12980460D02*
X14055896Y-12970936D01*
X14055896Y-12970936D02*
X14074944Y-12942365D01*
X14074944Y-12942365D02*
X14084467Y-12904269D01*
X14084467Y-12904269D02*
X14084467Y-12828079D01*
X14084467Y-12828079D02*
X14074944Y-12809031D01*
X14074944Y-12809031D02*
X14065420Y-12799508D01*
X14065420Y-12799508D02*
X14046372Y-12789984D01*
X14046372Y-12789984D02*
X14008277Y-12789984D01*
X14008277Y-12789984D02*
X13989229Y-12799508D01*
X13989229Y-12799508D02*
X13979706Y-12809031D01*
X13979706Y-12809031D02*
X13970182Y-12828079D01*
X13970182Y-12828079D02*
X13970182Y-12875698D01*
X13970182Y-12875698D02*
X13979706Y-12894746D01*
X13979706Y-12894746D02*
X13989229Y-12904269D01*
X13989229Y-12904269D02*
X14008277Y-12913793D01*
X14008277Y-12913793D02*
X14046372Y-12913793D01*
X14046372Y-12913793D02*
X14065420Y-12904269D01*
X14065420Y-12904269D02*
X14074944Y-12894746D01*
X14074944Y-12894746D02*
X14084467Y-12875698D01*
X14151134Y-12789984D02*
X14284467Y-12789984D01*
X14284467Y-12789984D02*
X14198753Y-12989984D01*
X14351134Y-12789984D02*
X14351134Y-12828079D01*
X14427325Y-12789984D02*
X14427325Y-12828079D01*
X14722563Y-13066174D02*
X14713039Y-13056650D01*
X14713039Y-13056650D02*
X14693991Y-13028079D01*
X14693991Y-13028079D02*
X14684468Y-13009031D01*
X14684468Y-13009031D02*
X14674944Y-12980460D01*
X14674944Y-12980460D02*
X14665420Y-12932841D01*
X14665420Y-12932841D02*
X14665420Y-12894746D01*
X14665420Y-12894746D02*
X14674944Y-12847127D01*
X14674944Y-12847127D02*
X14684468Y-12818555D01*
X14684468Y-12818555D02*
X14693991Y-12799508D01*
X14693991Y-12799508D02*
X14713039Y-12770936D01*
X14713039Y-12770936D02*
X14722563Y-12761412D01*
X14893991Y-12789984D02*
X14798753Y-12789984D01*
X14798753Y-12789984D02*
X14789229Y-12885222D01*
X14789229Y-12885222D02*
X14798753Y-12875698D01*
X14798753Y-12875698D02*
X14817801Y-12866174D01*
X14817801Y-12866174D02*
X14865420Y-12866174D01*
X14865420Y-12866174D02*
X14884468Y-12875698D01*
X14884468Y-12875698D02*
X14893991Y-12885222D01*
X14893991Y-12885222D02*
X14903515Y-12904269D01*
X14903515Y-12904269D02*
X14903515Y-12951888D01*
X14903515Y-12951888D02*
X14893991Y-12970936D01*
X14893991Y-12970936D02*
X14884468Y-12980460D01*
X14884468Y-12980460D02*
X14865420Y-12989984D01*
X14865420Y-12989984D02*
X14817801Y-12989984D01*
X14817801Y-12989984D02*
X14798753Y-12980460D01*
X14798753Y-12980460D02*
X14789229Y-12970936D01*
X15141610Y-12989984D02*
X15141610Y-12789984D01*
X15227325Y-12989984D02*
X15227325Y-12885222D01*
X15227325Y-12885222D02*
X15217801Y-12866174D01*
X15217801Y-12866174D02*
X15198753Y-12856650D01*
X15198753Y-12856650D02*
X15170182Y-12856650D01*
X15170182Y-12856650D02*
X15151134Y-12866174D01*
X15151134Y-12866174D02*
X15141610Y-12875698D01*
X15351134Y-12989984D02*
X15332087Y-12980460D01*
X15332087Y-12980460D02*
X15322563Y-12970936D01*
X15322563Y-12970936D02*
X15313039Y-12951888D01*
X15313039Y-12951888D02*
X15313039Y-12894746D01*
X15313039Y-12894746D02*
X15322563Y-12875698D01*
X15322563Y-12875698D02*
X15332087Y-12866174D01*
X15332087Y-12866174D02*
X15351134Y-12856650D01*
X15351134Y-12856650D02*
X15379706Y-12856650D01*
X15379706Y-12856650D02*
X15398753Y-12866174D01*
X15398753Y-12866174D02*
X15408277Y-12875698D01*
X15408277Y-12875698D02*
X15417801Y-12894746D01*
X15417801Y-12894746D02*
X15417801Y-12951888D01*
X15417801Y-12951888D02*
X15408277Y-12970936D01*
X15408277Y-12970936D02*
X15398753Y-12980460D01*
X15398753Y-12980460D02*
X15379706Y-12989984D01*
X15379706Y-12989984D02*
X15351134Y-12989984D01*
X15532087Y-12989984D02*
X15513039Y-12980460D01*
X15513039Y-12980460D02*
X15503515Y-12961412D01*
X15503515Y-12961412D02*
X15503515Y-12789984D01*
X15684468Y-12980460D02*
X15665420Y-12989984D01*
X15665420Y-12989984D02*
X15627325Y-12989984D01*
X15627325Y-12989984D02*
X15608277Y-12980460D01*
X15608277Y-12980460D02*
X15598753Y-12961412D01*
X15598753Y-12961412D02*
X15598753Y-12885222D01*
X15598753Y-12885222D02*
X15608277Y-12866174D01*
X15608277Y-12866174D02*
X15627325Y-12856650D01*
X15627325Y-12856650D02*
X15665420Y-12856650D01*
X15665420Y-12856650D02*
X15684468Y-12866174D01*
X15684468Y-12866174D02*
X15693991Y-12885222D01*
X15693991Y-12885222D02*
X15693991Y-12904269D01*
X15693991Y-12904269D02*
X15598753Y-12923317D01*
X15770182Y-12980460D02*
X15789230Y-12989984D01*
X15789230Y-12989984D02*
X15827325Y-12989984D01*
X15827325Y-12989984D02*
X15846372Y-12980460D01*
X15846372Y-12980460D02*
X15855896Y-12961412D01*
X15855896Y-12961412D02*
X15855896Y-12951888D01*
X15855896Y-12951888D02*
X15846372Y-12932841D01*
X15846372Y-12932841D02*
X15827325Y-12923317D01*
X15827325Y-12923317D02*
X15798753Y-12923317D01*
X15798753Y-12923317D02*
X15779706Y-12913793D01*
X15779706Y-12913793D02*
X15770182Y-12894746D01*
X15770182Y-12894746D02*
X15770182Y-12885222D01*
X15770182Y-12885222D02*
X15779706Y-12866174D01*
X15779706Y-12866174D02*
X15798753Y-12856650D01*
X15798753Y-12856650D02*
X15827325Y-12856650D01*
X15827325Y-12856650D02*
X15846372Y-12866174D01*
X15922563Y-13066174D02*
X15932087Y-13056650D01*
X15932087Y-13056650D02*
X15951134Y-13028079D01*
X15951134Y-13028079D02*
X15960658Y-13009031D01*
X15960658Y-13009031D02*
X15970182Y-12980460D01*
X15970182Y-12980460D02*
X15979706Y-12932841D01*
X15979706Y-12932841D02*
X15979706Y-12894746D01*
X15979706Y-12894746D02*
X15970182Y-12847127D01*
X15970182Y-12847127D02*
X15960658Y-12818555D01*
X15960658Y-12818555D02*
X15951134Y-12799508D01*
X15951134Y-12799508D02*
X15932087Y-12770936D01*
X15932087Y-12770936D02*
X15922563Y-12761412D01*
D12*
X11092500Y-13135000D02*
X11147500Y-13190000D01*
X11147500Y-13135000D02*
X11092500Y-13190000D01*
X11147500Y-13162500D02*
G75*
G02*
X11092500Y-13162500I-27500J0D01*
G01*
X11092500Y-13162500D02*
G75*
G02*
X11147500Y-13162500I27500J0D01*
G01*
D11*
X11446372Y-13053984D02*
X11465420Y-13053984D01*
X11465420Y-13053984D02*
X11484467Y-13063508D01*
X11484467Y-13063508D02*
X11493991Y-13073031D01*
X11493991Y-13073031D02*
X11503515Y-13092079D01*
X11503515Y-13092079D02*
X11513039Y-13130174D01*
X11513039Y-13130174D02*
X11513039Y-13177793D01*
X11513039Y-13177793D02*
X11503515Y-13215888D01*
X11503515Y-13215888D02*
X11493991Y-13234936D01*
X11493991Y-13234936D02*
X11484467Y-13244460D01*
X11484467Y-13244460D02*
X11465420Y-13253984D01*
X11465420Y-13253984D02*
X11446372Y-13253984D01*
X11446372Y-13253984D02*
X11427324Y-13244460D01*
X11427324Y-13244460D02*
X11417801Y-13234936D01*
X11417801Y-13234936D02*
X11408277Y-13215888D01*
X11408277Y-13215888D02*
X11398753Y-13177793D01*
X11398753Y-13177793D02*
X11398753Y-13130174D01*
X11398753Y-13130174D02*
X11408277Y-13092079D01*
X11408277Y-13092079D02*
X11417801Y-13073031D01*
X11417801Y-13073031D02*
X11427324Y-13063508D01*
X11427324Y-13063508D02*
X11446372Y-13053984D01*
X11598753Y-13234936D02*
X11608277Y-13244460D01*
X11608277Y-13244460D02*
X11598753Y-13253984D01*
X11598753Y-13253984D02*
X11589229Y-13244460D01*
X11589229Y-13244460D02*
X11598753Y-13234936D01*
X11598753Y-13234936D02*
X11598753Y-13253984D01*
X11789229Y-13053984D02*
X11693991Y-13053984D01*
X11693991Y-13053984D02*
X11684467Y-13149222D01*
X11684467Y-13149222D02*
X11693991Y-13139698D01*
X11693991Y-13139698D02*
X11713039Y-13130174D01*
X11713039Y-13130174D02*
X11760658Y-13130174D01*
X11760658Y-13130174D02*
X11779705Y-13139698D01*
X11779705Y-13139698D02*
X11789229Y-13149222D01*
X11789229Y-13149222D02*
X11798753Y-13168269D01*
X11798753Y-13168269D02*
X11798753Y-13215888D01*
X11798753Y-13215888D02*
X11789229Y-13234936D01*
X11789229Y-13234936D02*
X11779705Y-13244460D01*
X11779705Y-13244460D02*
X11760658Y-13253984D01*
X11760658Y-13253984D02*
X11713039Y-13253984D01*
X11713039Y-13253984D02*
X11693991Y-13244460D01*
X11693991Y-13244460D02*
X11684467Y-13234936D01*
X11979705Y-13053984D02*
X11884467Y-13053984D01*
X11884467Y-13053984D02*
X11874943Y-13149222D01*
X11874943Y-13149222D02*
X11884467Y-13139698D01*
X11884467Y-13139698D02*
X11903515Y-13130174D01*
X11903515Y-13130174D02*
X11951134Y-13130174D01*
X11951134Y-13130174D02*
X11970182Y-13139698D01*
X11970182Y-13139698D02*
X11979705Y-13149222D01*
X11979705Y-13149222D02*
X11989229Y-13168269D01*
X11989229Y-13168269D02*
X11989229Y-13215888D01*
X11989229Y-13215888D02*
X11979705Y-13234936D01*
X11979705Y-13234936D02*
X11970182Y-13244460D01*
X11970182Y-13244460D02*
X11951134Y-13253984D01*
X11951134Y-13253984D02*
X11903515Y-13253984D01*
X11903515Y-13253984D02*
X11884467Y-13244460D01*
X11884467Y-13244460D02*
X11874943Y-13234936D01*
X12113039Y-13053984D02*
X12132086Y-13053984D01*
X12132086Y-13053984D02*
X12151134Y-13063508D01*
X12151134Y-13063508D02*
X12160658Y-13073031D01*
X12160658Y-13073031D02*
X12170182Y-13092079D01*
X12170182Y-13092079D02*
X12179705Y-13130174D01*
X12179705Y-13130174D02*
X12179705Y-13177793D01*
X12179705Y-13177793D02*
X12170182Y-13215888D01*
X12170182Y-13215888D02*
X12160658Y-13234936D01*
X12160658Y-13234936D02*
X12151134Y-13244460D01*
X12151134Y-13244460D02*
X12132086Y-13253984D01*
X12132086Y-13253984D02*
X12113039Y-13253984D01*
X12113039Y-13253984D02*
X12093991Y-13244460D01*
X12093991Y-13244460D02*
X12084467Y-13234936D01*
X12084467Y-13234936D02*
X12074943Y-13215888D01*
X12074943Y-13215888D02*
X12065420Y-13177793D01*
X12065420Y-13177793D02*
X12065420Y-13130174D01*
X12065420Y-13130174D02*
X12074943Y-13092079D01*
X12074943Y-13092079D02*
X12084467Y-13073031D01*
X12084467Y-13073031D02*
X12093991Y-13063508D01*
X12093991Y-13063508D02*
X12113039Y-13053984D01*
X12265420Y-13253984D02*
X12265420Y-13120650D01*
X12265420Y-13139698D02*
X12274943Y-13130174D01*
X12274943Y-13130174D02*
X12293991Y-13120650D01*
X12293991Y-13120650D02*
X12322563Y-13120650D01*
X12322563Y-13120650D02*
X12341610Y-13130174D01*
X12341610Y-13130174D02*
X12351134Y-13149222D01*
X12351134Y-13149222D02*
X12351134Y-13253984D01*
X12351134Y-13149222D02*
X12360658Y-13130174D01*
X12360658Y-13130174D02*
X12379705Y-13120650D01*
X12379705Y-13120650D02*
X12408277Y-13120650D01*
X12408277Y-13120650D02*
X12427324Y-13130174D01*
X12427324Y-13130174D02*
X12436848Y-13149222D01*
X12436848Y-13149222D02*
X12436848Y-13253984D01*
X12532086Y-13253984D02*
X12532086Y-13120650D01*
X12532086Y-13139698D02*
X12541610Y-13130174D01*
X12541610Y-13130174D02*
X12560658Y-13120650D01*
X12560658Y-13120650D02*
X12589229Y-13120650D01*
X12589229Y-13120650D02*
X12608277Y-13130174D01*
X12608277Y-13130174D02*
X12617801Y-13149222D01*
X12617801Y-13149222D02*
X12617801Y-13253984D01*
X12617801Y-13149222D02*
X12627324Y-13130174D01*
X12627324Y-13130174D02*
X12646372Y-13120650D01*
X12646372Y-13120650D02*
X12674943Y-13120650D01*
X12674943Y-13120650D02*
X12693991Y-13130174D01*
X12693991Y-13130174D02*
X12703515Y-13149222D01*
X12703515Y-13149222D02*
X12703515Y-13253984D01*
X13093991Y-13044460D02*
X12922563Y-13301603D01*
X13351134Y-13053984D02*
X13370182Y-13053984D01*
X13370182Y-13053984D02*
X13389229Y-13063508D01*
X13389229Y-13063508D02*
X13398753Y-13073031D01*
X13398753Y-13073031D02*
X13408277Y-13092079D01*
X13408277Y-13092079D02*
X13417801Y-13130174D01*
X13417801Y-13130174D02*
X13417801Y-13177793D01*
X13417801Y-13177793D02*
X13408277Y-13215888D01*
X13408277Y-13215888D02*
X13398753Y-13234936D01*
X13398753Y-13234936D02*
X13389229Y-13244460D01*
X13389229Y-13244460D02*
X13370182Y-13253984D01*
X13370182Y-13253984D02*
X13351134Y-13253984D01*
X13351134Y-13253984D02*
X13332086Y-13244460D01*
X13332086Y-13244460D02*
X13322563Y-13234936D01*
X13322563Y-13234936D02*
X13313039Y-13215888D01*
X13313039Y-13215888D02*
X13303515Y-13177793D01*
X13303515Y-13177793D02*
X13303515Y-13130174D01*
X13303515Y-13130174D02*
X13313039Y-13092079D01*
X13313039Y-13092079D02*
X13322563Y-13073031D01*
X13322563Y-13073031D02*
X13332086Y-13063508D01*
X13332086Y-13063508D02*
X13351134Y-13053984D01*
X13503515Y-13234936D02*
X13513039Y-13244460D01*
X13513039Y-13244460D02*
X13503515Y-13253984D01*
X13503515Y-13253984D02*
X13493991Y-13244460D01*
X13493991Y-13244460D02*
X13503515Y-13234936D01*
X13503515Y-13234936D02*
X13503515Y-13253984D01*
X13636848Y-13053984D02*
X13655896Y-13053984D01*
X13655896Y-13053984D02*
X13674944Y-13063508D01*
X13674944Y-13063508D02*
X13684467Y-13073031D01*
X13684467Y-13073031D02*
X13693991Y-13092079D01*
X13693991Y-13092079D02*
X13703515Y-13130174D01*
X13703515Y-13130174D02*
X13703515Y-13177793D01*
X13703515Y-13177793D02*
X13693991Y-13215888D01*
X13693991Y-13215888D02*
X13684467Y-13234936D01*
X13684467Y-13234936D02*
X13674944Y-13244460D01*
X13674944Y-13244460D02*
X13655896Y-13253984D01*
X13655896Y-13253984D02*
X13636848Y-13253984D01*
X13636848Y-13253984D02*
X13617801Y-13244460D01*
X13617801Y-13244460D02*
X13608277Y-13234936D01*
X13608277Y-13234936D02*
X13598753Y-13215888D01*
X13598753Y-13215888D02*
X13589229Y-13177793D01*
X13589229Y-13177793D02*
X13589229Y-13130174D01*
X13589229Y-13130174D02*
X13598753Y-13092079D01*
X13598753Y-13092079D02*
X13608277Y-13073031D01*
X13608277Y-13073031D02*
X13617801Y-13063508D01*
X13617801Y-13063508D02*
X13636848Y-13053984D01*
X13779706Y-13073031D02*
X13789229Y-13063508D01*
X13789229Y-13063508D02*
X13808277Y-13053984D01*
X13808277Y-13053984D02*
X13855896Y-13053984D01*
X13855896Y-13053984D02*
X13874944Y-13063508D01*
X13874944Y-13063508D02*
X13884467Y-13073031D01*
X13884467Y-13073031D02*
X13893991Y-13092079D01*
X13893991Y-13092079D02*
X13893991Y-13111127D01*
X13893991Y-13111127D02*
X13884467Y-13139698D01*
X13884467Y-13139698D02*
X13770182Y-13253984D01*
X13770182Y-13253984D02*
X13893991Y-13253984D01*
X14084467Y-13253984D02*
X13970182Y-13253984D01*
X14027325Y-13253984D02*
X14027325Y-13053984D01*
X14027325Y-13053984D02*
X14008277Y-13082555D01*
X14008277Y-13082555D02*
X13989229Y-13101603D01*
X13989229Y-13101603D02*
X13970182Y-13111127D01*
X14151134Y-13053984D02*
X14284467Y-13053984D01*
X14284467Y-13053984D02*
X14198753Y-13253984D01*
X14351134Y-13053984D02*
X14351134Y-13092079D01*
X14427325Y-13053984D02*
X14427325Y-13092079D01*
X14722563Y-13330174D02*
X14713039Y-13320650D01*
X14713039Y-13320650D02*
X14693991Y-13292079D01*
X14693991Y-13292079D02*
X14684468Y-13273031D01*
X14684468Y-13273031D02*
X14674944Y-13244460D01*
X14674944Y-13244460D02*
X14665420Y-13196841D01*
X14665420Y-13196841D02*
X14665420Y-13158746D01*
X14665420Y-13158746D02*
X14674944Y-13111127D01*
X14674944Y-13111127D02*
X14684468Y-13082555D01*
X14684468Y-13082555D02*
X14693991Y-13063508D01*
X14693991Y-13063508D02*
X14713039Y-13034936D01*
X14713039Y-13034936D02*
X14722563Y-13025412D01*
X14903515Y-13253984D02*
X14789229Y-13253984D01*
X14846372Y-13253984D02*
X14846372Y-13053984D01*
X14846372Y-13053984D02*
X14827325Y-13082555D01*
X14827325Y-13082555D02*
X14808277Y-13101603D01*
X14808277Y-13101603D02*
X14789229Y-13111127D01*
X14979706Y-13073031D02*
X14989229Y-13063508D01*
X14989229Y-13063508D02*
X15008277Y-13053984D01*
X15008277Y-13053984D02*
X15055896Y-13053984D01*
X15055896Y-13053984D02*
X15074944Y-13063508D01*
X15074944Y-13063508D02*
X15084468Y-13073031D01*
X15084468Y-13073031D02*
X15093991Y-13092079D01*
X15093991Y-13092079D02*
X15093991Y-13111127D01*
X15093991Y-13111127D02*
X15084468Y-13139698D01*
X15084468Y-13139698D02*
X14970182Y-13253984D01*
X14970182Y-13253984D02*
X15093991Y-13253984D01*
X15332087Y-13253984D02*
X15332087Y-13053984D01*
X15417801Y-13253984D02*
X15417801Y-13149222D01*
X15417801Y-13149222D02*
X15408277Y-13130174D01*
X15408277Y-13130174D02*
X15389230Y-13120650D01*
X15389230Y-13120650D02*
X15360658Y-13120650D01*
X15360658Y-13120650D02*
X15341610Y-13130174D01*
X15341610Y-13130174D02*
X15332087Y-13139698D01*
X15541610Y-13253984D02*
X15522563Y-13244460D01*
X15522563Y-13244460D02*
X15513039Y-13234936D01*
X15513039Y-13234936D02*
X15503515Y-13215888D01*
X15503515Y-13215888D02*
X15503515Y-13158746D01*
X15503515Y-13158746D02*
X15513039Y-13139698D01*
X15513039Y-13139698D02*
X15522563Y-13130174D01*
X15522563Y-13130174D02*
X15541610Y-13120650D01*
X15541610Y-13120650D02*
X15570182Y-13120650D01*
X15570182Y-13120650D02*
X15589230Y-13130174D01*
X15589230Y-13130174D02*
X15598753Y-13139698D01*
X15598753Y-13139698D02*
X15608277Y-13158746D01*
X15608277Y-13158746D02*
X15608277Y-13215888D01*
X15608277Y-13215888D02*
X15598753Y-13234936D01*
X15598753Y-13234936D02*
X15589230Y-13244460D01*
X15589230Y-13244460D02*
X15570182Y-13253984D01*
X15570182Y-13253984D02*
X15541610Y-13253984D01*
X15722563Y-13253984D02*
X15703515Y-13244460D01*
X15703515Y-13244460D02*
X15693991Y-13225412D01*
X15693991Y-13225412D02*
X15693991Y-13053984D01*
X15874944Y-13244460D02*
X15855896Y-13253984D01*
X15855896Y-13253984D02*
X15817801Y-13253984D01*
X15817801Y-13253984D02*
X15798753Y-13244460D01*
X15798753Y-13244460D02*
X15789230Y-13225412D01*
X15789230Y-13225412D02*
X15789230Y-13149222D01*
X15789230Y-13149222D02*
X15798753Y-13130174D01*
X15798753Y-13130174D02*
X15817801Y-13120650D01*
X15817801Y-13120650D02*
X15855896Y-13120650D01*
X15855896Y-13120650D02*
X15874944Y-13130174D01*
X15874944Y-13130174D02*
X15884468Y-13149222D01*
X15884468Y-13149222D02*
X15884468Y-13168269D01*
X15884468Y-13168269D02*
X15789230Y-13187317D01*
X15960658Y-13244460D02*
X15979706Y-13253984D01*
X15979706Y-13253984D02*
X16017801Y-13253984D01*
X16017801Y-13253984D02*
X16036849Y-13244460D01*
X16036849Y-13244460D02*
X16046372Y-13225412D01*
X16046372Y-13225412D02*
X16046372Y-13215888D01*
X16046372Y-13215888D02*
X16036849Y-13196841D01*
X16036849Y-13196841D02*
X16017801Y-13187317D01*
X16017801Y-13187317D02*
X15989230Y-13187317D01*
X15989230Y-13187317D02*
X15970182Y-13177793D01*
X15970182Y-13177793D02*
X15960658Y-13158746D01*
X15960658Y-13158746D02*
X15960658Y-13149222D01*
X15960658Y-13149222D02*
X15970182Y-13130174D01*
X15970182Y-13130174D02*
X15989230Y-13120650D01*
X15989230Y-13120650D02*
X16017801Y-13120650D01*
X16017801Y-13120650D02*
X16036849Y-13130174D01*
X16113039Y-13330174D02*
X16122563Y-13320650D01*
X16122563Y-13320650D02*
X16141611Y-13292079D01*
X16141611Y-13292079D02*
X16151134Y-13273031D01*
X16151134Y-13273031D02*
X16160658Y-13244460D01*
X16160658Y-13244460D02*
X16170182Y-13196841D01*
X16170182Y-13196841D02*
X16170182Y-13158746D01*
X16170182Y-13158746D02*
X16160658Y-13111127D01*
X16160658Y-13111127D02*
X16151134Y-13082555D01*
X16151134Y-13082555D02*
X16141611Y-13063508D01*
X16141611Y-13063508D02*
X16122563Y-13034936D01*
X16122563Y-13034936D02*
X16113039Y-13025412D01*
D12*
X11047500Y-13376500D02*
X11147500Y-13476500D01*
X11147500Y-13376500D02*
X11047500Y-13476500D01*
X11097500Y-13376500D02*
X11097500Y-13476500D01*
X11047500Y-13426500D02*
X11147500Y-13426500D01*
D11*
X11513039Y-13517984D02*
X11398753Y-13517984D01*
X11455896Y-13517984D02*
X11455896Y-13317984D01*
X11455896Y-13317984D02*
X11436848Y-13346555D01*
X11436848Y-13346555D02*
X11417801Y-13365603D01*
X11417801Y-13365603D02*
X11398753Y-13375127D01*
X11598753Y-13498936D02*
X11608277Y-13508460D01*
X11608277Y-13508460D02*
X11598753Y-13517984D01*
X11598753Y-13517984D02*
X11589229Y-13508460D01*
X11589229Y-13508460D02*
X11598753Y-13498936D01*
X11598753Y-13498936D02*
X11598753Y-13517984D01*
X11732086Y-13317984D02*
X11751134Y-13317984D01*
X11751134Y-13317984D02*
X11770182Y-13327508D01*
X11770182Y-13327508D02*
X11779705Y-13337031D01*
X11779705Y-13337031D02*
X11789229Y-13356079D01*
X11789229Y-13356079D02*
X11798753Y-13394174D01*
X11798753Y-13394174D02*
X11798753Y-13441793D01*
X11798753Y-13441793D02*
X11789229Y-13479888D01*
X11789229Y-13479888D02*
X11779705Y-13498936D01*
X11779705Y-13498936D02*
X11770182Y-13508460D01*
X11770182Y-13508460D02*
X11751134Y-13517984D01*
X11751134Y-13517984D02*
X11732086Y-13517984D01*
X11732086Y-13517984D02*
X11713039Y-13508460D01*
X11713039Y-13508460D02*
X11703515Y-13498936D01*
X11703515Y-13498936D02*
X11693991Y-13479888D01*
X11693991Y-13479888D02*
X11684467Y-13441793D01*
X11684467Y-13441793D02*
X11684467Y-13394174D01*
X11684467Y-13394174D02*
X11693991Y-13356079D01*
X11693991Y-13356079D02*
X11703515Y-13337031D01*
X11703515Y-13337031D02*
X11713039Y-13327508D01*
X11713039Y-13327508D02*
X11732086Y-13317984D01*
X11922562Y-13317984D02*
X11941610Y-13317984D01*
X11941610Y-13317984D02*
X11960658Y-13327508D01*
X11960658Y-13327508D02*
X11970182Y-13337031D01*
X11970182Y-13337031D02*
X11979705Y-13356079D01*
X11979705Y-13356079D02*
X11989229Y-13394174D01*
X11989229Y-13394174D02*
X11989229Y-13441793D01*
X11989229Y-13441793D02*
X11979705Y-13479888D01*
X11979705Y-13479888D02*
X11970182Y-13498936D01*
X11970182Y-13498936D02*
X11960658Y-13508460D01*
X11960658Y-13508460D02*
X11941610Y-13517984D01*
X11941610Y-13517984D02*
X11922562Y-13517984D01*
X11922562Y-13517984D02*
X11903515Y-13508460D01*
X11903515Y-13508460D02*
X11893991Y-13498936D01*
X11893991Y-13498936D02*
X11884467Y-13479888D01*
X11884467Y-13479888D02*
X11874943Y-13441793D01*
X11874943Y-13441793D02*
X11874943Y-13394174D01*
X11874943Y-13394174D02*
X11884467Y-13356079D01*
X11884467Y-13356079D02*
X11893991Y-13337031D01*
X11893991Y-13337031D02*
X11903515Y-13327508D01*
X11903515Y-13327508D02*
X11922562Y-13317984D01*
X12113039Y-13317984D02*
X12132086Y-13317984D01*
X12132086Y-13317984D02*
X12151134Y-13327508D01*
X12151134Y-13327508D02*
X12160658Y-13337031D01*
X12160658Y-13337031D02*
X12170182Y-13356079D01*
X12170182Y-13356079D02*
X12179705Y-13394174D01*
X12179705Y-13394174D02*
X12179705Y-13441793D01*
X12179705Y-13441793D02*
X12170182Y-13479888D01*
X12170182Y-13479888D02*
X12160658Y-13498936D01*
X12160658Y-13498936D02*
X12151134Y-13508460D01*
X12151134Y-13508460D02*
X12132086Y-13517984D01*
X12132086Y-13517984D02*
X12113039Y-13517984D01*
X12113039Y-13517984D02*
X12093991Y-13508460D01*
X12093991Y-13508460D02*
X12084467Y-13498936D01*
X12084467Y-13498936D02*
X12074943Y-13479888D01*
X12074943Y-13479888D02*
X12065420Y-13441793D01*
X12065420Y-13441793D02*
X12065420Y-13394174D01*
X12065420Y-13394174D02*
X12074943Y-13356079D01*
X12074943Y-13356079D02*
X12084467Y-13337031D01*
X12084467Y-13337031D02*
X12093991Y-13327508D01*
X12093991Y-13327508D02*
X12113039Y-13317984D01*
X12265420Y-13517984D02*
X12265420Y-13384650D01*
X12265420Y-13403698D02*
X12274943Y-13394174D01*
X12274943Y-13394174D02*
X12293991Y-13384650D01*
X12293991Y-13384650D02*
X12322563Y-13384650D01*
X12322563Y-13384650D02*
X12341610Y-13394174D01*
X12341610Y-13394174D02*
X12351134Y-13413222D01*
X12351134Y-13413222D02*
X12351134Y-13517984D01*
X12351134Y-13413222D02*
X12360658Y-13394174D01*
X12360658Y-13394174D02*
X12379705Y-13384650D01*
X12379705Y-13384650D02*
X12408277Y-13384650D01*
X12408277Y-13384650D02*
X12427324Y-13394174D01*
X12427324Y-13394174D02*
X12436848Y-13413222D01*
X12436848Y-13413222D02*
X12436848Y-13517984D01*
X12532086Y-13517984D02*
X12532086Y-13384650D01*
X12532086Y-13403698D02*
X12541610Y-13394174D01*
X12541610Y-13394174D02*
X12560658Y-13384650D01*
X12560658Y-13384650D02*
X12589229Y-13384650D01*
X12589229Y-13384650D02*
X12608277Y-13394174D01*
X12608277Y-13394174D02*
X12617801Y-13413222D01*
X12617801Y-13413222D02*
X12617801Y-13517984D01*
X12617801Y-13413222D02*
X12627324Y-13394174D01*
X12627324Y-13394174D02*
X12646372Y-13384650D01*
X12646372Y-13384650D02*
X12674943Y-13384650D01*
X12674943Y-13384650D02*
X12693991Y-13394174D01*
X12693991Y-13394174D02*
X12703515Y-13413222D01*
X12703515Y-13413222D02*
X12703515Y-13517984D01*
X13093991Y-13308460D02*
X12922563Y-13565603D01*
X13351134Y-13317984D02*
X13370182Y-13317984D01*
X13370182Y-13317984D02*
X13389229Y-13327508D01*
X13389229Y-13327508D02*
X13398753Y-13337031D01*
X13398753Y-13337031D02*
X13408277Y-13356079D01*
X13408277Y-13356079D02*
X13417801Y-13394174D01*
X13417801Y-13394174D02*
X13417801Y-13441793D01*
X13417801Y-13441793D02*
X13408277Y-13479888D01*
X13408277Y-13479888D02*
X13398753Y-13498936D01*
X13398753Y-13498936D02*
X13389229Y-13508460D01*
X13389229Y-13508460D02*
X13370182Y-13517984D01*
X13370182Y-13517984D02*
X13351134Y-13517984D01*
X13351134Y-13517984D02*
X13332086Y-13508460D01*
X13332086Y-13508460D02*
X13322563Y-13498936D01*
X13322563Y-13498936D02*
X13313039Y-13479888D01*
X13313039Y-13479888D02*
X13303515Y-13441793D01*
X13303515Y-13441793D02*
X13303515Y-13394174D01*
X13303515Y-13394174D02*
X13313039Y-13356079D01*
X13313039Y-13356079D02*
X13322563Y-13337031D01*
X13322563Y-13337031D02*
X13332086Y-13327508D01*
X13332086Y-13327508D02*
X13351134Y-13317984D01*
X13503515Y-13498936D02*
X13513039Y-13508460D01*
X13513039Y-13508460D02*
X13503515Y-13517984D01*
X13503515Y-13517984D02*
X13493991Y-13508460D01*
X13493991Y-13508460D02*
X13503515Y-13498936D01*
X13503515Y-13498936D02*
X13503515Y-13517984D01*
X13636848Y-13317984D02*
X13655896Y-13317984D01*
X13655896Y-13317984D02*
X13674944Y-13327508D01*
X13674944Y-13327508D02*
X13684467Y-13337031D01*
X13684467Y-13337031D02*
X13693991Y-13356079D01*
X13693991Y-13356079D02*
X13703515Y-13394174D01*
X13703515Y-13394174D02*
X13703515Y-13441793D01*
X13703515Y-13441793D02*
X13693991Y-13479888D01*
X13693991Y-13479888D02*
X13684467Y-13498936D01*
X13684467Y-13498936D02*
X13674944Y-13508460D01*
X13674944Y-13508460D02*
X13655896Y-13517984D01*
X13655896Y-13517984D02*
X13636848Y-13517984D01*
X13636848Y-13517984D02*
X13617801Y-13508460D01*
X13617801Y-13508460D02*
X13608277Y-13498936D01*
X13608277Y-13498936D02*
X13598753Y-13479888D01*
X13598753Y-13479888D02*
X13589229Y-13441793D01*
X13589229Y-13441793D02*
X13589229Y-13394174D01*
X13589229Y-13394174D02*
X13598753Y-13356079D01*
X13598753Y-13356079D02*
X13608277Y-13337031D01*
X13608277Y-13337031D02*
X13617801Y-13327508D01*
X13617801Y-13327508D02*
X13636848Y-13317984D01*
X13770182Y-13317984D02*
X13893991Y-13317984D01*
X13893991Y-13317984D02*
X13827325Y-13394174D01*
X13827325Y-13394174D02*
X13855896Y-13394174D01*
X13855896Y-13394174D02*
X13874944Y-13403698D01*
X13874944Y-13403698D02*
X13884467Y-13413222D01*
X13884467Y-13413222D02*
X13893991Y-13432269D01*
X13893991Y-13432269D02*
X13893991Y-13479888D01*
X13893991Y-13479888D02*
X13884467Y-13498936D01*
X13884467Y-13498936D02*
X13874944Y-13508460D01*
X13874944Y-13508460D02*
X13855896Y-13517984D01*
X13855896Y-13517984D02*
X13798753Y-13517984D01*
X13798753Y-13517984D02*
X13779706Y-13508460D01*
X13779706Y-13508460D02*
X13770182Y-13498936D01*
X13989229Y-13517984D02*
X14027325Y-13517984D01*
X14027325Y-13517984D02*
X14046372Y-13508460D01*
X14046372Y-13508460D02*
X14055896Y-13498936D01*
X14055896Y-13498936D02*
X14074944Y-13470365D01*
X14074944Y-13470365D02*
X14084467Y-13432269D01*
X14084467Y-13432269D02*
X14084467Y-13356079D01*
X14084467Y-13356079D02*
X14074944Y-13337031D01*
X14074944Y-13337031D02*
X14065420Y-13327508D01*
X14065420Y-13327508D02*
X14046372Y-13317984D01*
X14046372Y-13317984D02*
X14008277Y-13317984D01*
X14008277Y-13317984D02*
X13989229Y-13327508D01*
X13989229Y-13327508D02*
X13979706Y-13337031D01*
X13979706Y-13337031D02*
X13970182Y-13356079D01*
X13970182Y-13356079D02*
X13970182Y-13403698D01*
X13970182Y-13403698D02*
X13979706Y-13422746D01*
X13979706Y-13422746D02*
X13989229Y-13432269D01*
X13989229Y-13432269D02*
X14008277Y-13441793D01*
X14008277Y-13441793D02*
X14046372Y-13441793D01*
X14046372Y-13441793D02*
X14065420Y-13432269D01*
X14065420Y-13432269D02*
X14074944Y-13422746D01*
X14074944Y-13422746D02*
X14084467Y-13403698D01*
X14255896Y-13384650D02*
X14255896Y-13517984D01*
X14208277Y-13308460D02*
X14160658Y-13451317D01*
X14160658Y-13451317D02*
X14284467Y-13451317D01*
X14351134Y-13317984D02*
X14351134Y-13356079D01*
X14427325Y-13317984D02*
X14427325Y-13356079D01*
X14722563Y-13594174D02*
X14713039Y-13584650D01*
X14713039Y-13584650D02*
X14693991Y-13556079D01*
X14693991Y-13556079D02*
X14684468Y-13537031D01*
X14684468Y-13537031D02*
X14674944Y-13508460D01*
X14674944Y-13508460D02*
X14665420Y-13460841D01*
X14665420Y-13460841D02*
X14665420Y-13422746D01*
X14665420Y-13422746D02*
X14674944Y-13375127D01*
X14674944Y-13375127D02*
X14684468Y-13346555D01*
X14684468Y-13346555D02*
X14693991Y-13327508D01*
X14693991Y-13327508D02*
X14713039Y-13298936D01*
X14713039Y-13298936D02*
X14722563Y-13289412D01*
X14903515Y-13517984D02*
X14789229Y-13517984D01*
X14846372Y-13517984D02*
X14846372Y-13317984D01*
X14846372Y-13317984D02*
X14827325Y-13346555D01*
X14827325Y-13346555D02*
X14808277Y-13365603D01*
X14808277Y-13365603D02*
X14789229Y-13375127D01*
X14970182Y-13317984D02*
X15103515Y-13317984D01*
X15103515Y-13317984D02*
X15017801Y-13517984D01*
X15332087Y-13517984D02*
X15332087Y-13317984D01*
X15417801Y-13517984D02*
X15417801Y-13413222D01*
X15417801Y-13413222D02*
X15408277Y-13394174D01*
X15408277Y-13394174D02*
X15389230Y-13384650D01*
X15389230Y-13384650D02*
X15360658Y-13384650D01*
X15360658Y-13384650D02*
X15341610Y-13394174D01*
X15341610Y-13394174D02*
X15332087Y-13403698D01*
X15541610Y-13517984D02*
X15522563Y-13508460D01*
X15522563Y-13508460D02*
X15513039Y-13498936D01*
X15513039Y-13498936D02*
X15503515Y-13479888D01*
X15503515Y-13479888D02*
X15503515Y-13422746D01*
X15503515Y-13422746D02*
X15513039Y-13403698D01*
X15513039Y-13403698D02*
X15522563Y-13394174D01*
X15522563Y-13394174D02*
X15541610Y-13384650D01*
X15541610Y-13384650D02*
X15570182Y-13384650D01*
X15570182Y-13384650D02*
X15589230Y-13394174D01*
X15589230Y-13394174D02*
X15598753Y-13403698D01*
X15598753Y-13403698D02*
X15608277Y-13422746D01*
X15608277Y-13422746D02*
X15608277Y-13479888D01*
X15608277Y-13479888D02*
X15598753Y-13498936D01*
X15598753Y-13498936D02*
X15589230Y-13508460D01*
X15589230Y-13508460D02*
X15570182Y-13517984D01*
X15570182Y-13517984D02*
X15541610Y-13517984D01*
X15722563Y-13517984D02*
X15703515Y-13508460D01*
X15703515Y-13508460D02*
X15693991Y-13489412D01*
X15693991Y-13489412D02*
X15693991Y-13317984D01*
X15874944Y-13508460D02*
X15855896Y-13517984D01*
X15855896Y-13517984D02*
X15817801Y-13517984D01*
X15817801Y-13517984D02*
X15798753Y-13508460D01*
X15798753Y-13508460D02*
X15789230Y-13489412D01*
X15789230Y-13489412D02*
X15789230Y-13413222D01*
X15789230Y-13413222D02*
X15798753Y-13394174D01*
X15798753Y-13394174D02*
X15817801Y-13384650D01*
X15817801Y-13384650D02*
X15855896Y-13384650D01*
X15855896Y-13384650D02*
X15874944Y-13394174D01*
X15874944Y-13394174D02*
X15884468Y-13413222D01*
X15884468Y-13413222D02*
X15884468Y-13432269D01*
X15884468Y-13432269D02*
X15789230Y-13451317D01*
X15960658Y-13508460D02*
X15979706Y-13517984D01*
X15979706Y-13517984D02*
X16017801Y-13517984D01*
X16017801Y-13517984D02*
X16036849Y-13508460D01*
X16036849Y-13508460D02*
X16046372Y-13489412D01*
X16046372Y-13489412D02*
X16046372Y-13479888D01*
X16046372Y-13479888D02*
X16036849Y-13460841D01*
X16036849Y-13460841D02*
X16017801Y-13451317D01*
X16017801Y-13451317D02*
X15989230Y-13451317D01*
X15989230Y-13451317D02*
X15970182Y-13441793D01*
X15970182Y-13441793D02*
X15960658Y-13422746D01*
X15960658Y-13422746D02*
X15960658Y-13413222D01*
X15960658Y-13413222D02*
X15970182Y-13394174D01*
X15970182Y-13394174D02*
X15989230Y-13384650D01*
X15989230Y-13384650D02*
X16017801Y-13384650D01*
X16017801Y-13384650D02*
X16036849Y-13394174D01*
X16113039Y-13594174D02*
X16122563Y-13584650D01*
X16122563Y-13584650D02*
X16141611Y-13556079D01*
X16141611Y-13556079D02*
X16151134Y-13537031D01*
X16151134Y-13537031D02*
X16160658Y-13508460D01*
X16160658Y-13508460D02*
X16170182Y-13460841D01*
X16170182Y-13460841D02*
X16170182Y-13422746D01*
X16170182Y-13422746D02*
X16160658Y-13375127D01*
X16160658Y-13375127D02*
X16151134Y-13346555D01*
X16151134Y-13346555D02*
X16141611Y-13327508D01*
X16141611Y-13327508D02*
X16122563Y-13298936D01*
X16122563Y-13298936D02*
X16113039Y-13289412D01*
D13*
X11037500Y-13635500D02*
X11147500Y-13745500D01*
X11147500Y-13635500D02*
X11037500Y-13745500D01*
X11131391Y-13729391D02*
X11131391Y-13651609D01*
X11053609Y-13651609D01*
X11053609Y-13729391D01*
X11131391Y-13729391D01*
D11*
X11513039Y-13781984D02*
X11398753Y-13781984D01*
X11455896Y-13781984D02*
X11455896Y-13581984D01*
X11455896Y-13581984D02*
X11436848Y-13610555D01*
X11436848Y-13610555D02*
X11417801Y-13629603D01*
X11417801Y-13629603D02*
X11398753Y-13639127D01*
X11598753Y-13762936D02*
X11608277Y-13772460D01*
X11608277Y-13772460D02*
X11598753Y-13781984D01*
X11598753Y-13781984D02*
X11589229Y-13772460D01*
X11589229Y-13772460D02*
X11598753Y-13762936D01*
X11598753Y-13762936D02*
X11598753Y-13781984D01*
X11798753Y-13781984D02*
X11684467Y-13781984D01*
X11741610Y-13781984D02*
X11741610Y-13581984D01*
X11741610Y-13581984D02*
X11722562Y-13610555D01*
X11722562Y-13610555D02*
X11703515Y-13629603D01*
X11703515Y-13629603D02*
X11684467Y-13639127D01*
X11922562Y-13581984D02*
X11941610Y-13581984D01*
X11941610Y-13581984D02*
X11960658Y-13591508D01*
X11960658Y-13591508D02*
X11970182Y-13601031D01*
X11970182Y-13601031D02*
X11979705Y-13620079D01*
X11979705Y-13620079D02*
X11989229Y-13658174D01*
X11989229Y-13658174D02*
X11989229Y-13705793D01*
X11989229Y-13705793D02*
X11979705Y-13743888D01*
X11979705Y-13743888D02*
X11970182Y-13762936D01*
X11970182Y-13762936D02*
X11960658Y-13772460D01*
X11960658Y-13772460D02*
X11941610Y-13781984D01*
X11941610Y-13781984D02*
X11922562Y-13781984D01*
X11922562Y-13781984D02*
X11903515Y-13772460D01*
X11903515Y-13772460D02*
X11893991Y-13762936D01*
X11893991Y-13762936D02*
X11884467Y-13743888D01*
X11884467Y-13743888D02*
X11874943Y-13705793D01*
X11874943Y-13705793D02*
X11874943Y-13658174D01*
X11874943Y-13658174D02*
X11884467Y-13620079D01*
X11884467Y-13620079D02*
X11893991Y-13601031D01*
X11893991Y-13601031D02*
X11903515Y-13591508D01*
X11903515Y-13591508D02*
X11922562Y-13581984D01*
X12113039Y-13581984D02*
X12132086Y-13581984D01*
X12132086Y-13581984D02*
X12151134Y-13591508D01*
X12151134Y-13591508D02*
X12160658Y-13601031D01*
X12160658Y-13601031D02*
X12170182Y-13620079D01*
X12170182Y-13620079D02*
X12179705Y-13658174D01*
X12179705Y-13658174D02*
X12179705Y-13705793D01*
X12179705Y-13705793D02*
X12170182Y-13743888D01*
X12170182Y-13743888D02*
X12160658Y-13762936D01*
X12160658Y-13762936D02*
X12151134Y-13772460D01*
X12151134Y-13772460D02*
X12132086Y-13781984D01*
X12132086Y-13781984D02*
X12113039Y-13781984D01*
X12113039Y-13781984D02*
X12093991Y-13772460D01*
X12093991Y-13772460D02*
X12084467Y-13762936D01*
X12084467Y-13762936D02*
X12074943Y-13743888D01*
X12074943Y-13743888D02*
X12065420Y-13705793D01*
X12065420Y-13705793D02*
X12065420Y-13658174D01*
X12065420Y-13658174D02*
X12074943Y-13620079D01*
X12074943Y-13620079D02*
X12084467Y-13601031D01*
X12084467Y-13601031D02*
X12093991Y-13591508D01*
X12093991Y-13591508D02*
X12113039Y-13581984D01*
X12265420Y-13781984D02*
X12265420Y-13648650D01*
X12265420Y-13667698D02*
X12274943Y-13658174D01*
X12274943Y-13658174D02*
X12293991Y-13648650D01*
X12293991Y-13648650D02*
X12322563Y-13648650D01*
X12322563Y-13648650D02*
X12341610Y-13658174D01*
X12341610Y-13658174D02*
X12351134Y-13677222D01*
X12351134Y-13677222D02*
X12351134Y-13781984D01*
X12351134Y-13677222D02*
X12360658Y-13658174D01*
X12360658Y-13658174D02*
X12379705Y-13648650D01*
X12379705Y-13648650D02*
X12408277Y-13648650D01*
X12408277Y-13648650D02*
X12427324Y-13658174D01*
X12427324Y-13658174D02*
X12436848Y-13677222D01*
X12436848Y-13677222D02*
X12436848Y-13781984D01*
X12532086Y-13781984D02*
X12532086Y-13648650D01*
X12532086Y-13667698D02*
X12541610Y-13658174D01*
X12541610Y-13658174D02*
X12560658Y-13648650D01*
X12560658Y-13648650D02*
X12589229Y-13648650D01*
X12589229Y-13648650D02*
X12608277Y-13658174D01*
X12608277Y-13658174D02*
X12617801Y-13677222D01*
X12617801Y-13677222D02*
X12617801Y-13781984D01*
X12617801Y-13677222D02*
X12627324Y-13658174D01*
X12627324Y-13658174D02*
X12646372Y-13648650D01*
X12646372Y-13648650D02*
X12674943Y-13648650D01*
X12674943Y-13648650D02*
X12693991Y-13658174D01*
X12693991Y-13658174D02*
X12703515Y-13677222D01*
X12703515Y-13677222D02*
X12703515Y-13781984D01*
X13093991Y-13572460D02*
X12922563Y-13829603D01*
X13351134Y-13581984D02*
X13370182Y-13581984D01*
X13370182Y-13581984D02*
X13389229Y-13591508D01*
X13389229Y-13591508D02*
X13398753Y-13601031D01*
X13398753Y-13601031D02*
X13408277Y-13620079D01*
X13408277Y-13620079D02*
X13417801Y-13658174D01*
X13417801Y-13658174D02*
X13417801Y-13705793D01*
X13417801Y-13705793D02*
X13408277Y-13743888D01*
X13408277Y-13743888D02*
X13398753Y-13762936D01*
X13398753Y-13762936D02*
X13389229Y-13772460D01*
X13389229Y-13772460D02*
X13370182Y-13781984D01*
X13370182Y-13781984D02*
X13351134Y-13781984D01*
X13351134Y-13781984D02*
X13332086Y-13772460D01*
X13332086Y-13772460D02*
X13322563Y-13762936D01*
X13322563Y-13762936D02*
X13313039Y-13743888D01*
X13313039Y-13743888D02*
X13303515Y-13705793D01*
X13303515Y-13705793D02*
X13303515Y-13658174D01*
X13303515Y-13658174D02*
X13313039Y-13620079D01*
X13313039Y-13620079D02*
X13322563Y-13601031D01*
X13322563Y-13601031D02*
X13332086Y-13591508D01*
X13332086Y-13591508D02*
X13351134Y-13581984D01*
X13503515Y-13762936D02*
X13513039Y-13772460D01*
X13513039Y-13772460D02*
X13503515Y-13781984D01*
X13503515Y-13781984D02*
X13493991Y-13772460D01*
X13493991Y-13772460D02*
X13503515Y-13762936D01*
X13503515Y-13762936D02*
X13503515Y-13781984D01*
X13636848Y-13581984D02*
X13655896Y-13581984D01*
X13655896Y-13581984D02*
X13674944Y-13591508D01*
X13674944Y-13591508D02*
X13684467Y-13601031D01*
X13684467Y-13601031D02*
X13693991Y-13620079D01*
X13693991Y-13620079D02*
X13703515Y-13658174D01*
X13703515Y-13658174D02*
X13703515Y-13705793D01*
X13703515Y-13705793D02*
X13693991Y-13743888D01*
X13693991Y-13743888D02*
X13684467Y-13762936D01*
X13684467Y-13762936D02*
X13674944Y-13772460D01*
X13674944Y-13772460D02*
X13655896Y-13781984D01*
X13655896Y-13781984D02*
X13636848Y-13781984D01*
X13636848Y-13781984D02*
X13617801Y-13772460D01*
X13617801Y-13772460D02*
X13608277Y-13762936D01*
X13608277Y-13762936D02*
X13598753Y-13743888D01*
X13598753Y-13743888D02*
X13589229Y-13705793D01*
X13589229Y-13705793D02*
X13589229Y-13658174D01*
X13589229Y-13658174D02*
X13598753Y-13620079D01*
X13598753Y-13620079D02*
X13608277Y-13601031D01*
X13608277Y-13601031D02*
X13617801Y-13591508D01*
X13617801Y-13591508D02*
X13636848Y-13581984D01*
X13874944Y-13648650D02*
X13874944Y-13781984D01*
X13827325Y-13572460D02*
X13779706Y-13715317D01*
X13779706Y-13715317D02*
X13903515Y-13715317D01*
X13960658Y-13581984D02*
X14084467Y-13581984D01*
X14084467Y-13581984D02*
X14017801Y-13658174D01*
X14017801Y-13658174D02*
X14046372Y-13658174D01*
X14046372Y-13658174D02*
X14065420Y-13667698D01*
X14065420Y-13667698D02*
X14074944Y-13677222D01*
X14074944Y-13677222D02*
X14084467Y-13696269D01*
X14084467Y-13696269D02*
X14084467Y-13743888D01*
X14084467Y-13743888D02*
X14074944Y-13762936D01*
X14074944Y-13762936D02*
X14065420Y-13772460D01*
X14065420Y-13772460D02*
X14046372Y-13781984D01*
X14046372Y-13781984D02*
X13989229Y-13781984D01*
X13989229Y-13781984D02*
X13970182Y-13772460D01*
X13970182Y-13772460D02*
X13960658Y-13762936D01*
X14151134Y-13581984D02*
X14274944Y-13581984D01*
X14274944Y-13581984D02*
X14208277Y-13658174D01*
X14208277Y-13658174D02*
X14236848Y-13658174D01*
X14236848Y-13658174D02*
X14255896Y-13667698D01*
X14255896Y-13667698D02*
X14265420Y-13677222D01*
X14265420Y-13677222D02*
X14274944Y-13696269D01*
X14274944Y-13696269D02*
X14274944Y-13743888D01*
X14274944Y-13743888D02*
X14265420Y-13762936D01*
X14265420Y-13762936D02*
X14255896Y-13772460D01*
X14255896Y-13772460D02*
X14236848Y-13781984D01*
X14236848Y-13781984D02*
X14179706Y-13781984D01*
X14179706Y-13781984D02*
X14160658Y-13772460D01*
X14160658Y-13772460D02*
X14151134Y-13762936D01*
X14351134Y-13581984D02*
X14351134Y-13620079D01*
X14427325Y-13581984D02*
X14427325Y-13620079D01*
X14722563Y-13858174D02*
X14713039Y-13848650D01*
X14713039Y-13848650D02*
X14693991Y-13820079D01*
X14693991Y-13820079D02*
X14684468Y-13801031D01*
X14684468Y-13801031D02*
X14674944Y-13772460D01*
X14674944Y-13772460D02*
X14665420Y-13724841D01*
X14665420Y-13724841D02*
X14665420Y-13686746D01*
X14665420Y-13686746D02*
X14674944Y-13639127D01*
X14674944Y-13639127D02*
X14684468Y-13610555D01*
X14684468Y-13610555D02*
X14693991Y-13591508D01*
X14693991Y-13591508D02*
X14713039Y-13562936D01*
X14713039Y-13562936D02*
X14722563Y-13553412D01*
X14884468Y-13648650D02*
X14884468Y-13781984D01*
X14836848Y-13572460D02*
X14789229Y-13715317D01*
X14789229Y-13715317D02*
X14913039Y-13715317D01*
X15141610Y-13781984D02*
X15141610Y-13581984D01*
X15227325Y-13781984D02*
X15227325Y-13677222D01*
X15227325Y-13677222D02*
X15217801Y-13658174D01*
X15217801Y-13658174D02*
X15198753Y-13648650D01*
X15198753Y-13648650D02*
X15170182Y-13648650D01*
X15170182Y-13648650D02*
X15151134Y-13658174D01*
X15151134Y-13658174D02*
X15141610Y-13667698D01*
X15351134Y-13781984D02*
X15332087Y-13772460D01*
X15332087Y-13772460D02*
X15322563Y-13762936D01*
X15322563Y-13762936D02*
X15313039Y-13743888D01*
X15313039Y-13743888D02*
X15313039Y-13686746D01*
X15313039Y-13686746D02*
X15322563Y-13667698D01*
X15322563Y-13667698D02*
X15332087Y-13658174D01*
X15332087Y-13658174D02*
X15351134Y-13648650D01*
X15351134Y-13648650D02*
X15379706Y-13648650D01*
X15379706Y-13648650D02*
X15398753Y-13658174D01*
X15398753Y-13658174D02*
X15408277Y-13667698D01*
X15408277Y-13667698D02*
X15417801Y-13686746D01*
X15417801Y-13686746D02*
X15417801Y-13743888D01*
X15417801Y-13743888D02*
X15408277Y-13762936D01*
X15408277Y-13762936D02*
X15398753Y-13772460D01*
X15398753Y-13772460D02*
X15379706Y-13781984D01*
X15379706Y-13781984D02*
X15351134Y-13781984D01*
X15532087Y-13781984D02*
X15513039Y-13772460D01*
X15513039Y-13772460D02*
X15503515Y-13753412D01*
X15503515Y-13753412D02*
X15503515Y-13581984D01*
X15684468Y-13772460D02*
X15665420Y-13781984D01*
X15665420Y-13781984D02*
X15627325Y-13781984D01*
X15627325Y-13781984D02*
X15608277Y-13772460D01*
X15608277Y-13772460D02*
X15598753Y-13753412D01*
X15598753Y-13753412D02*
X15598753Y-13677222D01*
X15598753Y-13677222D02*
X15608277Y-13658174D01*
X15608277Y-13658174D02*
X15627325Y-13648650D01*
X15627325Y-13648650D02*
X15665420Y-13648650D01*
X15665420Y-13648650D02*
X15684468Y-13658174D01*
X15684468Y-13658174D02*
X15693991Y-13677222D01*
X15693991Y-13677222D02*
X15693991Y-13696269D01*
X15693991Y-13696269D02*
X15598753Y-13715317D01*
X15770182Y-13772460D02*
X15789230Y-13781984D01*
X15789230Y-13781984D02*
X15827325Y-13781984D01*
X15827325Y-13781984D02*
X15846372Y-13772460D01*
X15846372Y-13772460D02*
X15855896Y-13753412D01*
X15855896Y-13753412D02*
X15855896Y-13743888D01*
X15855896Y-13743888D02*
X15846372Y-13724841D01*
X15846372Y-13724841D02*
X15827325Y-13715317D01*
X15827325Y-13715317D02*
X15798753Y-13715317D01*
X15798753Y-13715317D02*
X15779706Y-13705793D01*
X15779706Y-13705793D02*
X15770182Y-13686746D01*
X15770182Y-13686746D02*
X15770182Y-13677222D01*
X15770182Y-13677222D02*
X15779706Y-13658174D01*
X15779706Y-13658174D02*
X15798753Y-13648650D01*
X15798753Y-13648650D02*
X15827325Y-13648650D01*
X15827325Y-13648650D02*
X15846372Y-13658174D01*
X15922563Y-13858174D02*
X15932087Y-13848650D01*
X15932087Y-13848650D02*
X15951134Y-13820079D01*
X15951134Y-13820079D02*
X15960658Y-13801031D01*
X15960658Y-13801031D02*
X15970182Y-13772460D01*
X15970182Y-13772460D02*
X15979706Y-13724841D01*
X15979706Y-13724841D02*
X15979706Y-13686746D01*
X15979706Y-13686746D02*
X15970182Y-13639127D01*
X15970182Y-13639127D02*
X15960658Y-13610555D01*
X15960658Y-13610555D02*
X15951134Y-13591508D01*
X15951134Y-13591508D02*
X15932087Y-13562936D01*
X15932087Y-13562936D02*
X15922563Y-13553412D01*
X10947500Y-13854500D02*
X11147500Y-14054500D01*
X11147500Y-13854500D02*
X10947500Y-14054500D01*
X11047500Y-14054500D02*
X11147500Y-13954500D01*
X11047500Y-13854500D01*
X10947500Y-13954500D01*
X11047500Y-14054500D01*
X11398753Y-13865031D02*
X11408277Y-13855508D01*
X11408277Y-13855508D02*
X11427324Y-13845984D01*
X11427324Y-13845984D02*
X11474943Y-13845984D01*
X11474943Y-13845984D02*
X11493991Y-13855508D01*
X11493991Y-13855508D02*
X11503515Y-13865031D01*
X11503515Y-13865031D02*
X11513039Y-13884079D01*
X11513039Y-13884079D02*
X11513039Y-13903127D01*
X11513039Y-13903127D02*
X11503515Y-13931698D01*
X11503515Y-13931698D02*
X11389229Y-14045984D01*
X11389229Y-14045984D02*
X11513039Y-14045984D01*
X11598753Y-14026936D02*
X11608277Y-14036460D01*
X11608277Y-14036460D02*
X11598753Y-14045984D01*
X11598753Y-14045984D02*
X11589229Y-14036460D01*
X11589229Y-14036460D02*
X11598753Y-14026936D01*
X11598753Y-14026936D02*
X11598753Y-14045984D01*
X11684467Y-13865031D02*
X11693991Y-13855508D01*
X11693991Y-13855508D02*
X11713039Y-13845984D01*
X11713039Y-13845984D02*
X11760658Y-13845984D01*
X11760658Y-13845984D02*
X11779705Y-13855508D01*
X11779705Y-13855508D02*
X11789229Y-13865031D01*
X11789229Y-13865031D02*
X11798753Y-13884079D01*
X11798753Y-13884079D02*
X11798753Y-13903127D01*
X11798753Y-13903127D02*
X11789229Y-13931698D01*
X11789229Y-13931698D02*
X11674943Y-14045984D01*
X11674943Y-14045984D02*
X11798753Y-14045984D01*
X11922562Y-13845984D02*
X11941610Y-13845984D01*
X11941610Y-13845984D02*
X11960658Y-13855508D01*
X11960658Y-13855508D02*
X11970182Y-13865031D01*
X11970182Y-13865031D02*
X11979705Y-13884079D01*
X11979705Y-13884079D02*
X11989229Y-13922174D01*
X11989229Y-13922174D02*
X11989229Y-13969793D01*
X11989229Y-13969793D02*
X11979705Y-14007888D01*
X11979705Y-14007888D02*
X11970182Y-14026936D01*
X11970182Y-14026936D02*
X11960658Y-14036460D01*
X11960658Y-14036460D02*
X11941610Y-14045984D01*
X11941610Y-14045984D02*
X11922562Y-14045984D01*
X11922562Y-14045984D02*
X11903515Y-14036460D01*
X11903515Y-14036460D02*
X11893991Y-14026936D01*
X11893991Y-14026936D02*
X11884467Y-14007888D01*
X11884467Y-14007888D02*
X11874943Y-13969793D01*
X11874943Y-13969793D02*
X11874943Y-13922174D01*
X11874943Y-13922174D02*
X11884467Y-13884079D01*
X11884467Y-13884079D02*
X11893991Y-13865031D01*
X11893991Y-13865031D02*
X11903515Y-13855508D01*
X11903515Y-13855508D02*
X11922562Y-13845984D01*
X12113039Y-13845984D02*
X12132086Y-13845984D01*
X12132086Y-13845984D02*
X12151134Y-13855508D01*
X12151134Y-13855508D02*
X12160658Y-13865031D01*
X12160658Y-13865031D02*
X12170182Y-13884079D01*
X12170182Y-13884079D02*
X12179705Y-13922174D01*
X12179705Y-13922174D02*
X12179705Y-13969793D01*
X12179705Y-13969793D02*
X12170182Y-14007888D01*
X12170182Y-14007888D02*
X12160658Y-14026936D01*
X12160658Y-14026936D02*
X12151134Y-14036460D01*
X12151134Y-14036460D02*
X12132086Y-14045984D01*
X12132086Y-14045984D02*
X12113039Y-14045984D01*
X12113039Y-14045984D02*
X12093991Y-14036460D01*
X12093991Y-14036460D02*
X12084467Y-14026936D01*
X12084467Y-14026936D02*
X12074943Y-14007888D01*
X12074943Y-14007888D02*
X12065420Y-13969793D01*
X12065420Y-13969793D02*
X12065420Y-13922174D01*
X12065420Y-13922174D02*
X12074943Y-13884079D01*
X12074943Y-13884079D02*
X12084467Y-13865031D01*
X12084467Y-13865031D02*
X12093991Y-13855508D01*
X12093991Y-13855508D02*
X12113039Y-13845984D01*
X12265420Y-14045984D02*
X12265420Y-13912650D01*
X12265420Y-13931698D02*
X12274943Y-13922174D01*
X12274943Y-13922174D02*
X12293991Y-13912650D01*
X12293991Y-13912650D02*
X12322563Y-13912650D01*
X12322563Y-13912650D02*
X12341610Y-13922174D01*
X12341610Y-13922174D02*
X12351134Y-13941222D01*
X12351134Y-13941222D02*
X12351134Y-14045984D01*
X12351134Y-13941222D02*
X12360658Y-13922174D01*
X12360658Y-13922174D02*
X12379705Y-13912650D01*
X12379705Y-13912650D02*
X12408277Y-13912650D01*
X12408277Y-13912650D02*
X12427324Y-13922174D01*
X12427324Y-13922174D02*
X12436848Y-13941222D01*
X12436848Y-13941222D02*
X12436848Y-14045984D01*
X12532086Y-14045984D02*
X12532086Y-13912650D01*
X12532086Y-13931698D02*
X12541610Y-13922174D01*
X12541610Y-13922174D02*
X12560658Y-13912650D01*
X12560658Y-13912650D02*
X12589229Y-13912650D01*
X12589229Y-13912650D02*
X12608277Y-13922174D01*
X12608277Y-13922174D02*
X12617801Y-13941222D01*
X12617801Y-13941222D02*
X12617801Y-14045984D01*
X12617801Y-13941222D02*
X12627324Y-13922174D01*
X12627324Y-13922174D02*
X12646372Y-13912650D01*
X12646372Y-13912650D02*
X12674943Y-13912650D01*
X12674943Y-13912650D02*
X12693991Y-13922174D01*
X12693991Y-13922174D02*
X12703515Y-13941222D01*
X12703515Y-13941222D02*
X12703515Y-14045984D01*
X13093991Y-13836460D02*
X12922563Y-14093603D01*
X13351134Y-13845984D02*
X13370182Y-13845984D01*
X13370182Y-13845984D02*
X13389229Y-13855508D01*
X13389229Y-13855508D02*
X13398753Y-13865031D01*
X13398753Y-13865031D02*
X13408277Y-13884079D01*
X13408277Y-13884079D02*
X13417801Y-13922174D01*
X13417801Y-13922174D02*
X13417801Y-13969793D01*
X13417801Y-13969793D02*
X13408277Y-14007888D01*
X13408277Y-14007888D02*
X13398753Y-14026936D01*
X13398753Y-14026936D02*
X13389229Y-14036460D01*
X13389229Y-14036460D02*
X13370182Y-14045984D01*
X13370182Y-14045984D02*
X13351134Y-14045984D01*
X13351134Y-14045984D02*
X13332086Y-14036460D01*
X13332086Y-14036460D02*
X13322563Y-14026936D01*
X13322563Y-14026936D02*
X13313039Y-14007888D01*
X13313039Y-14007888D02*
X13303515Y-13969793D01*
X13303515Y-13969793D02*
X13303515Y-13922174D01*
X13303515Y-13922174D02*
X13313039Y-13884079D01*
X13313039Y-13884079D02*
X13322563Y-13865031D01*
X13322563Y-13865031D02*
X13332086Y-13855508D01*
X13332086Y-13855508D02*
X13351134Y-13845984D01*
X13503515Y-14026936D02*
X13513039Y-14036460D01*
X13513039Y-14036460D02*
X13503515Y-14045984D01*
X13503515Y-14045984D02*
X13493991Y-14036460D01*
X13493991Y-14036460D02*
X13503515Y-14026936D01*
X13503515Y-14026936D02*
X13503515Y-14045984D01*
X13636848Y-13845984D02*
X13655896Y-13845984D01*
X13655896Y-13845984D02*
X13674944Y-13855508D01*
X13674944Y-13855508D02*
X13684467Y-13865031D01*
X13684467Y-13865031D02*
X13693991Y-13884079D01*
X13693991Y-13884079D02*
X13703515Y-13922174D01*
X13703515Y-13922174D02*
X13703515Y-13969793D01*
X13703515Y-13969793D02*
X13693991Y-14007888D01*
X13693991Y-14007888D02*
X13684467Y-14026936D01*
X13684467Y-14026936D02*
X13674944Y-14036460D01*
X13674944Y-14036460D02*
X13655896Y-14045984D01*
X13655896Y-14045984D02*
X13636848Y-14045984D01*
X13636848Y-14045984D02*
X13617801Y-14036460D01*
X13617801Y-14036460D02*
X13608277Y-14026936D01*
X13608277Y-14026936D02*
X13598753Y-14007888D01*
X13598753Y-14007888D02*
X13589229Y-13969793D01*
X13589229Y-13969793D02*
X13589229Y-13922174D01*
X13589229Y-13922174D02*
X13598753Y-13884079D01*
X13598753Y-13884079D02*
X13608277Y-13865031D01*
X13608277Y-13865031D02*
X13617801Y-13855508D01*
X13617801Y-13855508D02*
X13636848Y-13845984D01*
X13817801Y-13931698D02*
X13798753Y-13922174D01*
X13798753Y-13922174D02*
X13789229Y-13912650D01*
X13789229Y-13912650D02*
X13779706Y-13893603D01*
X13779706Y-13893603D02*
X13779706Y-13884079D01*
X13779706Y-13884079D02*
X13789229Y-13865031D01*
X13789229Y-13865031D02*
X13798753Y-13855508D01*
X13798753Y-13855508D02*
X13817801Y-13845984D01*
X13817801Y-13845984D02*
X13855896Y-13845984D01*
X13855896Y-13845984D02*
X13874944Y-13855508D01*
X13874944Y-13855508D02*
X13884467Y-13865031D01*
X13884467Y-13865031D02*
X13893991Y-13884079D01*
X13893991Y-13884079D02*
X13893991Y-13893603D01*
X13893991Y-13893603D02*
X13884467Y-13912650D01*
X13884467Y-13912650D02*
X13874944Y-13922174D01*
X13874944Y-13922174D02*
X13855896Y-13931698D01*
X13855896Y-13931698D02*
X13817801Y-13931698D01*
X13817801Y-13931698D02*
X13798753Y-13941222D01*
X13798753Y-13941222D02*
X13789229Y-13950746D01*
X13789229Y-13950746D02*
X13779706Y-13969793D01*
X13779706Y-13969793D02*
X13779706Y-14007888D01*
X13779706Y-14007888D02*
X13789229Y-14026936D01*
X13789229Y-14026936D02*
X13798753Y-14036460D01*
X13798753Y-14036460D02*
X13817801Y-14045984D01*
X13817801Y-14045984D02*
X13855896Y-14045984D01*
X13855896Y-14045984D02*
X13874944Y-14036460D01*
X13874944Y-14036460D02*
X13884467Y-14026936D01*
X13884467Y-14026936D02*
X13893991Y-14007888D01*
X13893991Y-14007888D02*
X13893991Y-13969793D01*
X13893991Y-13969793D02*
X13884467Y-13950746D01*
X13884467Y-13950746D02*
X13874944Y-13941222D01*
X13874944Y-13941222D02*
X13855896Y-13931698D01*
X14065420Y-13845984D02*
X14027325Y-13845984D01*
X14027325Y-13845984D02*
X14008277Y-13855508D01*
X14008277Y-13855508D02*
X13998753Y-13865031D01*
X13998753Y-13865031D02*
X13979706Y-13893603D01*
X13979706Y-13893603D02*
X13970182Y-13931698D01*
X13970182Y-13931698D02*
X13970182Y-14007888D01*
X13970182Y-14007888D02*
X13979706Y-14026936D01*
X13979706Y-14026936D02*
X13989229Y-14036460D01*
X13989229Y-14036460D02*
X14008277Y-14045984D01*
X14008277Y-14045984D02*
X14046372Y-14045984D01*
X14046372Y-14045984D02*
X14065420Y-14036460D01*
X14065420Y-14036460D02*
X14074944Y-14026936D01*
X14074944Y-14026936D02*
X14084467Y-14007888D01*
X14084467Y-14007888D02*
X14084467Y-13960269D01*
X14084467Y-13960269D02*
X14074944Y-13941222D01*
X14074944Y-13941222D02*
X14065420Y-13931698D01*
X14065420Y-13931698D02*
X14046372Y-13922174D01*
X14046372Y-13922174D02*
X14008277Y-13922174D01*
X14008277Y-13922174D02*
X13989229Y-13931698D01*
X13989229Y-13931698D02*
X13979706Y-13941222D01*
X13979706Y-13941222D02*
X13970182Y-13960269D01*
X14255896Y-13845984D02*
X14217801Y-13845984D01*
X14217801Y-13845984D02*
X14198753Y-13855508D01*
X14198753Y-13855508D02*
X14189229Y-13865031D01*
X14189229Y-13865031D02*
X14170182Y-13893603D01*
X14170182Y-13893603D02*
X14160658Y-13931698D01*
X14160658Y-13931698D02*
X14160658Y-14007888D01*
X14160658Y-14007888D02*
X14170182Y-14026936D01*
X14170182Y-14026936D02*
X14179706Y-14036460D01*
X14179706Y-14036460D02*
X14198753Y-14045984D01*
X14198753Y-14045984D02*
X14236848Y-14045984D01*
X14236848Y-14045984D02*
X14255896Y-14036460D01*
X14255896Y-14036460D02*
X14265420Y-14026936D01*
X14265420Y-14026936D02*
X14274944Y-14007888D01*
X14274944Y-14007888D02*
X14274944Y-13960269D01*
X14274944Y-13960269D02*
X14265420Y-13941222D01*
X14265420Y-13941222D02*
X14255896Y-13931698D01*
X14255896Y-13931698D02*
X14236848Y-13922174D01*
X14236848Y-13922174D02*
X14198753Y-13922174D01*
X14198753Y-13922174D02*
X14179706Y-13931698D01*
X14179706Y-13931698D02*
X14170182Y-13941222D01*
X14170182Y-13941222D02*
X14160658Y-13960269D01*
X14351134Y-13845984D02*
X14351134Y-13884079D01*
X14427325Y-13845984D02*
X14427325Y-13884079D01*
X14722563Y-14122174D02*
X14713039Y-14112650D01*
X14713039Y-14112650D02*
X14693991Y-14084079D01*
X14693991Y-14084079D02*
X14684468Y-14065031D01*
X14684468Y-14065031D02*
X14674944Y-14036460D01*
X14674944Y-14036460D02*
X14665420Y-13988841D01*
X14665420Y-13988841D02*
X14665420Y-13950746D01*
X14665420Y-13950746D02*
X14674944Y-13903127D01*
X14674944Y-13903127D02*
X14684468Y-13874555D01*
X14684468Y-13874555D02*
X14693991Y-13855508D01*
X14693991Y-13855508D02*
X14713039Y-13826936D01*
X14713039Y-13826936D02*
X14722563Y-13817412D01*
X14884468Y-13912650D02*
X14884468Y-14045984D01*
X14836848Y-13836460D02*
X14789229Y-13979317D01*
X14789229Y-13979317D02*
X14913039Y-13979317D01*
X15141610Y-14045984D02*
X15141610Y-13845984D01*
X15227325Y-14045984D02*
X15227325Y-13941222D01*
X15227325Y-13941222D02*
X15217801Y-13922174D01*
X15217801Y-13922174D02*
X15198753Y-13912650D01*
X15198753Y-13912650D02*
X15170182Y-13912650D01*
X15170182Y-13912650D02*
X15151134Y-13922174D01*
X15151134Y-13922174D02*
X15141610Y-13931698D01*
X15351134Y-14045984D02*
X15332087Y-14036460D01*
X15332087Y-14036460D02*
X15322563Y-14026936D01*
X15322563Y-14026936D02*
X15313039Y-14007888D01*
X15313039Y-14007888D02*
X15313039Y-13950746D01*
X15313039Y-13950746D02*
X15322563Y-13931698D01*
X15322563Y-13931698D02*
X15332087Y-13922174D01*
X15332087Y-13922174D02*
X15351134Y-13912650D01*
X15351134Y-13912650D02*
X15379706Y-13912650D01*
X15379706Y-13912650D02*
X15398753Y-13922174D01*
X15398753Y-13922174D02*
X15408277Y-13931698D01*
X15408277Y-13931698D02*
X15417801Y-13950746D01*
X15417801Y-13950746D02*
X15417801Y-14007888D01*
X15417801Y-14007888D02*
X15408277Y-14026936D01*
X15408277Y-14026936D02*
X15398753Y-14036460D01*
X15398753Y-14036460D02*
X15379706Y-14045984D01*
X15379706Y-14045984D02*
X15351134Y-14045984D01*
X15532087Y-14045984D02*
X15513039Y-14036460D01*
X15513039Y-14036460D02*
X15503515Y-14017412D01*
X15503515Y-14017412D02*
X15503515Y-13845984D01*
X15684468Y-14036460D02*
X15665420Y-14045984D01*
X15665420Y-14045984D02*
X15627325Y-14045984D01*
X15627325Y-14045984D02*
X15608277Y-14036460D01*
X15608277Y-14036460D02*
X15598753Y-14017412D01*
X15598753Y-14017412D02*
X15598753Y-13941222D01*
X15598753Y-13941222D02*
X15608277Y-13922174D01*
X15608277Y-13922174D02*
X15627325Y-13912650D01*
X15627325Y-13912650D02*
X15665420Y-13912650D01*
X15665420Y-13912650D02*
X15684468Y-13922174D01*
X15684468Y-13922174D02*
X15693991Y-13941222D01*
X15693991Y-13941222D02*
X15693991Y-13960269D01*
X15693991Y-13960269D02*
X15598753Y-13979317D01*
X15770182Y-14036460D02*
X15789230Y-14045984D01*
X15789230Y-14045984D02*
X15827325Y-14045984D01*
X15827325Y-14045984D02*
X15846372Y-14036460D01*
X15846372Y-14036460D02*
X15855896Y-14017412D01*
X15855896Y-14017412D02*
X15855896Y-14007888D01*
X15855896Y-14007888D02*
X15846372Y-13988841D01*
X15846372Y-13988841D02*
X15827325Y-13979317D01*
X15827325Y-13979317D02*
X15798753Y-13979317D01*
X15798753Y-13979317D02*
X15779706Y-13969793D01*
X15779706Y-13969793D02*
X15770182Y-13950746D01*
X15770182Y-13950746D02*
X15770182Y-13941222D01*
X15770182Y-13941222D02*
X15779706Y-13922174D01*
X15779706Y-13922174D02*
X15798753Y-13912650D01*
X15798753Y-13912650D02*
X15827325Y-13912650D01*
X15827325Y-13912650D02*
X15846372Y-13922174D01*
X15922563Y-14122174D02*
X15932087Y-14112650D01*
X15932087Y-14112650D02*
X15951134Y-14084079D01*
X15951134Y-14084079D02*
X15960658Y-14065031D01*
X15960658Y-14065031D02*
X15970182Y-14036460D01*
X15970182Y-14036460D02*
X15979706Y-13988841D01*
X15979706Y-13988841D02*
X15979706Y-13950746D01*
X15979706Y-13950746D02*
X15970182Y-13903127D01*
X15970182Y-13903127D02*
X15960658Y-13874555D01*
X15960658Y-13874555D02*
X15951134Y-13855508D01*
X15951134Y-13855508D02*
X15932087Y-13826936D01*
X15932087Y-13826936D02*
X15922563Y-13817412D01*
M02*
