%TF.GenerationSoftware,KiCad,Pcbnew,8.0.2*%
%TF.CreationDate,2024-06-21T01:26:05+01:00*%
%TF.ProjectId,ESP32S3_PCB_V1,45535033-3253-4335-9f50-43425f56312e,1*%
%TF.SameCoordinates,Original*%
%TF.FileFunction,Copper,L4,Bot*%
%TF.FilePolarity,Positive*%
%FSLAX46Y46*%
G04 Gerber Fmt 4.6, Leading zero omitted, Abs format (unit mm)*
G04 Created by KiCad (PCBNEW 8.0.2) date 2024-06-21 01:26:05*
%MOMM*%
%LPD*%
G01*
G04 APERTURE LIST*
G04 Aperture macros list*
%AMRoundRect*
0 Rectangle with rounded corners*
0 $1 Rounding radius*
0 $2 $3 $4 $5 $6 $7 $8 $9 X,Y pos of 4 corners*
0 Add a 4 corners polygon primitive as box body*
4,1,4,$2,$3,$4,$5,$6,$7,$8,$9,$2,$3,0*
0 Add four circle primitives for the rounded corners*
1,1,$1+$1,$2,$3*
1,1,$1+$1,$4,$5*
1,1,$1+$1,$6,$7*
1,1,$1+$1,$8,$9*
0 Add four rect primitives between the rounded corners*
20,1,$1+$1,$2,$3,$4,$5,0*
20,1,$1+$1,$4,$5,$6,$7,0*
20,1,$1+$1,$6,$7,$8,$9,0*
20,1,$1+$1,$8,$9,$2,$3,0*%
G04 Aperture macros list end*
%TA.AperFunction,ComponentPad*%
%ADD10C,3.500000*%
%TD*%
%TA.AperFunction,ComponentPad*%
%ADD11R,1.700000X1.700000*%
%TD*%
%TA.AperFunction,ComponentPad*%
%ADD12O,1.700000X1.700000*%
%TD*%
%TA.AperFunction,ComponentPad*%
%ADD13R,1.650000X1.650000*%
%TD*%
%TA.AperFunction,ComponentPad*%
%ADD14C,1.650000*%
%TD*%
%TA.AperFunction,ComponentPad*%
%ADD15R,0.500000X0.900000*%
%TD*%
%TA.AperFunction,SMDPad,CuDef*%
%ADD16R,0.750000X1.250000*%
%TD*%
%TA.AperFunction,SMDPad,CuDef*%
%ADD17R,1.050000X1.250000*%
%TD*%
%TA.AperFunction,SMDPad,CuDef*%
%ADD18R,1.000000X1.200000*%
%TD*%
%TA.AperFunction,SMDPad,CuDef*%
%ADD19R,1.050000X0.850000*%
%TD*%
%TA.AperFunction,SMDPad,CuDef*%
%ADD20R,1.050000X2.849999*%
%TD*%
%TA.AperFunction,SMDPad,CuDef*%
%ADD21R,1.350000X1.950000*%
%TD*%
%TA.AperFunction,SMDPad,CuDef*%
%ADD22R,1.400000X2.100000*%
%TD*%
%TA.AperFunction,SMDPad,CuDef*%
%ADD23RoundRect,0.200000X0.200000X0.275000X-0.200000X0.275000X-0.200000X-0.275000X0.200000X-0.275000X0*%
%TD*%
%TA.AperFunction,SMDPad,CuDef*%
%ADD24R,2.100000X1.400000*%
%TD*%
%TA.AperFunction,SMDPad,CuDef*%
%ADD25RoundRect,0.218750X0.218750X0.256250X-0.218750X0.256250X-0.218750X-0.256250X0.218750X-0.256250X0*%
%TD*%
%TA.AperFunction,SMDPad,CuDef*%
%ADD26RoundRect,0.200000X0.275000X-0.200000X0.275000X0.200000X-0.275000X0.200000X-0.275000X-0.200000X0*%
%TD*%
%TA.AperFunction,SMDPad,CuDef*%
%ADD27RoundRect,0.200000X-0.275000X0.200000X-0.275000X-0.200000X0.275000X-0.200000X0.275000X0.200000X0*%
%TD*%
%TA.AperFunction,SMDPad,CuDef*%
%ADD28R,0.200000X0.530000*%
%TD*%
%TA.AperFunction,ViaPad*%
%ADD29C,0.450000*%
%TD*%
%TA.AperFunction,ViaPad*%
%ADD30C,0.700000*%
%TD*%
%TA.AperFunction,ViaPad*%
%ADD31C,0.550000*%
%TD*%
%TA.AperFunction,ViaPad*%
%ADD32C,0.600000*%
%TD*%
%TA.AperFunction,Conductor*%
%ADD33C,0.500000*%
%TD*%
%TA.AperFunction,Conductor*%
%ADD34C,1.000000*%
%TD*%
%TA.AperFunction,Conductor*%
%ADD35C,0.300000*%
%TD*%
%TA.AperFunction,Conductor*%
%ADD36C,0.200000*%
%TD*%
%TA.AperFunction,Conductor*%
%ADD37C,0.180000*%
%TD*%
%TA.AperFunction,Conductor*%
%ADD38C,0.199400*%
%TD*%
G04 APERTURE END LIST*
D10*
%TO.P,H4,1,1*%
%TO.N,GND*%
X183500000Y-109750000D03*
%TD*%
D11*
%TO.P,J4,1,Pin_1*%
%TO.N,/GPIO3*%
X159000000Y-110200000D03*
D12*
%TO.P,J4,2,Pin_2*%
%TO.N,/ELECTROMAGNET*%
X161540000Y-110200000D03*
%TO.P,J4,3,Pin_3*%
%TO.N,/GPIO38*%
X164080000Y-110200000D03*
%TO.P,J4,4,Pin_4*%
%TO.N,/MTDO*%
X166620000Y-110200000D03*
%TO.P,J4,5,Pin_5*%
%TO.N,/MTDI*%
X169160000Y-110200000D03*
%TO.P,J4,6,Pin_6*%
%TO.N,/MTCK*%
X171700000Y-110200000D03*
%TO.P,J4,7,Pin_7*%
%TO.N,/MTMS*%
X174240000Y-110200000D03*
%TO.P,J4,8,Pin_8*%
%TO.N,GND*%
X176780000Y-110200000D03*
%TO.P,J4,9,Pin_9*%
%TO.N,+3.3V*%
X179320000Y-110200000D03*
%TD*%
D11*
%TO.P,J2,1,Pin_1*%
%TO.N,VBUS*%
X139825000Y-102597501D03*
D12*
%TO.P,J2,2,Pin_2*%
%TO.N,Net-(J2-Pin_2)*%
X139825000Y-105137501D03*
%TO.P,J2,3,Pin_3*%
%TO.N,Net-(J2-Pin_3)*%
X139825000Y-107677500D03*
%TO.P,J2,4,Pin_4*%
%TO.N,GND*%
X139825000Y-110217501D03*
%TD*%
D13*
%TO.P,BAT,1,Pin_1*%
%TO.N,VBAT*%
X131825000Y-80500000D03*
D14*
%TO.P,BAT,2,Pin_2*%
%TO.N,GND*%
X135325000Y-80500000D03*
%TD*%
D10*
%TO.P,H2,1,1*%
%TO.N,GND*%
X113750000Y-79250000D03*
%TD*%
%TO.P,H1,1,1*%
%TO.N,GND*%
X183500000Y-79250000D03*
%TD*%
%TO.P,H3,1,1*%
%TO.N,GND*%
X113750000Y-109750000D03*
%TD*%
D13*
%TO.P,LOAD,1,Pin_1*%
%TO.N,/SYS*%
X131775000Y-108300000D03*
D14*
%TO.P,LOAD,2,Pin_2*%
%TO.N,GND*%
X135275000Y-108300000D03*
%TD*%
D15*
%TO.P,AE1,2,Ground_Via*%
%TO.N,GND*%
X185925000Y-99800000D03*
%TD*%
D11*
%TO.P,J6,1,Pin_1*%
%TO.N,+3.3V*%
X171700000Y-78800000D03*
D12*
%TO.P,J6,2,Pin_2*%
%TO.N,GND*%
X174240000Y-78800000D03*
%TO.P,J6,3,Pin_3*%
%TO.N,/SCL*%
X176780000Y-78800000D03*
%TO.P,J6,4,Pin_4*%
%TO.N,/SDA*%
X179320000Y-78800000D03*
%TD*%
D16*
%TO.P,J5,1,DAT2*%
%TO.N,/SD_DAT2*%
X147800014Y-93484950D03*
%TO.P,J5,2,CD/DAT3*%
%TO.N,/SD_DAT3*%
X146700014Y-93484950D03*
%TO.P,J5,3,CMD*%
%TO.N,/SD_CMD*%
X145600013Y-93484950D03*
%TO.P,J5,4,VDD*%
%TO.N,+3.3V*%
X144500013Y-93484950D03*
%TO.P,J5,5,CLK*%
%TO.N,/SD_CLK*%
X143400015Y-93484950D03*
%TO.P,J5,6,VSS*%
%TO.N,GND*%
X142300015Y-93484950D03*
%TO.P,J5,7,DAT0*%
%TO.N,/SD_DAT0*%
X141200014Y-93484950D03*
%TO.P,J5,8,DAT1*%
%TO.N,/SD_DAT1*%
X140100014Y-93484950D03*
%TO.P,J5,9,Card_Detect*%
%TO.N,/SD_CARD_DETECT*%
X139150014Y-93484950D03*
D17*
%TO.P,J5,10,MP1*%
%TO.N,GND*%
X149350054Y-93484950D03*
D18*
%TO.P,J5,11,MP2*%
X138199962Y-89184951D03*
D19*
%TO.P,J5,12,MP3*%
X138199962Y-82984950D03*
D20*
%TO.P,J5,13,MP4*%
X138199962Y-78834948D03*
D21*
%TO.P,J5,14,MP5*%
X151699935Y-78384949D03*
%TD*%
D22*
%TO.P,MENU,1,1*%
%TO.N,GND*%
X154420000Y-90275000D03*
X154420000Y-81175000D03*
%TO.P,MENU,2,2*%
%TO.N,/MENU*%
X158880000Y-90275000D03*
X158880000Y-81175000D03*
%TD*%
D23*
%TO.P,R32,1*%
%TO.N,/LED2*%
X128415000Y-92990000D03*
%TO.P,R32,2*%
%TO.N,Net-(D2-A)*%
X126765000Y-92990000D03*
%TD*%
D24*
%TO.P,SLEEP,1,1*%
%TO.N,GND*%
X172500000Y-101020000D03*
X181600000Y-101020000D03*
%TO.P,SLEEP,2,2*%
%TO.N,/DEEP_SLEEP*%
X172500000Y-105480000D03*
X181600000Y-105480000D03*
%TD*%
D25*
%TO.P,CHG,1,K*%
%TO.N,GND*%
X128377501Y-94450000D03*
%TO.P,CHG,2,A*%
%TO.N,Net-(D2-A)*%
X126802499Y-94450000D03*
%TD*%
D24*
%TO.P,S-MENU,1,1*%
%TO.N,GND*%
X152100000Y-101020000D03*
X161200000Y-101020000D03*
%TO.P,S-MENU,2,2*%
%TO.N,/SUBMENU*%
X152100000Y-105480000D03*
X161200000Y-105480000D03*
%TD*%
D26*
%TO.P,R6,1*%
%TO.N,/VBUS_MONITOR*%
X127500000Y-102550000D03*
%TO.P,R6,2*%
%TO.N,GND*%
X127500000Y-100900000D03*
%TD*%
D25*
%TO.P,ERR,1,K*%
%TO.N,GND*%
X128377501Y-97450000D03*
%TO.P,ERR,2,A*%
%TO.N,Net-(D1-A)*%
X126802499Y-97450000D03*
%TD*%
D27*
%TO.P,R5,1*%
%TO.N,/VBUS_FILT*%
X126025000Y-100900000D03*
%TO.P,R5,2*%
%TO.N,/VBUS_MONITOR*%
X126025000Y-102550000D03*
%TD*%
D24*
%TO.P,ACT,1,1*%
%TO.N,GND*%
X172500000Y-83495000D03*
X181600000Y-83495000D03*
%TO.P,ACT,2,2*%
%TO.N,/ACTIVATE*%
X172500000Y-87955000D03*
X181600000Y-87955000D03*
%TD*%
D25*
%TO.P,SYNC,1,K*%
%TO.N,GND*%
X128377501Y-91450000D03*
%TO.P,SYNC,2,A*%
%TO.N,Net-(D3-A)*%
X126802499Y-91450000D03*
%TD*%
D23*
%TO.P,R30,1*%
%TO.N,/LED1*%
X128415000Y-95990000D03*
%TO.P,R30,2*%
%TO.N,Net-(D1-A)*%
X126765000Y-95990000D03*
%TD*%
D28*
%TO.P,U9,1,CH1*%
%TO.N,/SD_CLK*%
X143150000Y-97110000D03*
%TO.P,U9,2,GND*%
%TO.N,GND*%
X143650000Y-97110000D03*
%TO.P,U9,3,CH2*%
%TO.N,/SD_CMD*%
X144150000Y-97110000D03*
%TO.P,U9,4,CH3*%
%TO.N,/SD_DAT3*%
X144650000Y-97110000D03*
%TO.P,U9,5,CH4*%
%TO.N,/SD_DAT2*%
X144400000Y-97940000D03*
%TO.P,U9,6,CH5*%
%TO.N,/SD_DAT1*%
X143900000Y-97940000D03*
%TO.P,U9,7,CH6*%
%TO.N,/SD_DAT0*%
X143400000Y-97940000D03*
%TD*%
D23*
%TO.P,R36,1*%
%TO.N,/LED3*%
X128415000Y-89990000D03*
%TO.P,R36,2*%
%TO.N,Net-(D3-A)*%
X126765000Y-89990000D03*
%TD*%
D29*
%TO.N,GND*%
X174700000Y-90290000D03*
X185420000Y-81280000D03*
X174500000Y-83250000D03*
X150950000Y-83880000D03*
X140025000Y-80300000D03*
X115430000Y-89450000D03*
X157740000Y-101170000D03*
X175500000Y-102700000D03*
X159300000Y-107450000D03*
X141400000Y-106400000D03*
X178000000Y-102900000D03*
X140190000Y-98750000D03*
X167500000Y-95280000D03*
X184150000Y-90170000D03*
X185090000Y-98395000D03*
X156800000Y-106350000D03*
X129350000Y-105275000D03*
D30*
X119875000Y-98250000D03*
D29*
X149600000Y-107450000D03*
X150660000Y-101190000D03*
X129175000Y-98300000D03*
X125760000Y-94610000D03*
X118580000Y-80880000D03*
X128550000Y-101475000D03*
X165890000Y-101180000D03*
X158690000Y-98690000D03*
X133080000Y-92080000D03*
X154000000Y-96800000D03*
X173550000Y-103650000D03*
X165340000Y-110180000D03*
X177500000Y-104900000D03*
X184150000Y-85090000D03*
X166010000Y-103260000D03*
X184150000Y-82550000D03*
X170900000Y-86650000D03*
D31*
X169450000Y-78850000D03*
D29*
X121860000Y-90370000D03*
X114150000Y-94500000D03*
X185420000Y-106680000D03*
X131070000Y-90060000D03*
X177500000Y-105500000D03*
X154870000Y-102240000D03*
D30*
X175750000Y-95850000D03*
D29*
X119360000Y-94000000D03*
X176700000Y-106250000D03*
X121825000Y-78425000D03*
X163650000Y-92350000D03*
X184150000Y-95250000D03*
X183430000Y-96995000D03*
X156270000Y-90090000D03*
X142700000Y-92100000D03*
X179950000Y-105575000D03*
X124260000Y-107960000D03*
X155100000Y-98290000D03*
X184150000Y-87630000D03*
X171100000Y-101200000D03*
X144450000Y-103040000D03*
X155150000Y-87150000D03*
X172350000Y-106600000D03*
X180720000Y-96970000D03*
X172925000Y-102775000D03*
X185850000Y-96650000D03*
X145090000Y-98740000D03*
X156438600Y-110160000D03*
X159300000Y-105350000D03*
X165400000Y-92350000D03*
X119970000Y-103070000D03*
D31*
X142976881Y-106628421D03*
D29*
X161900000Y-92350000D03*
X171720000Y-103680000D03*
X184260000Y-98395000D03*
X184150000Y-100330000D03*
X148650000Y-96950000D03*
X142030000Y-96550000D03*
X163650000Y-93700000D03*
X129240000Y-91460000D03*
X154300000Y-105350000D03*
X115390000Y-99700000D03*
X149600000Y-105325000D03*
X185420000Y-104140000D03*
X166930000Y-96690000D03*
X168090000Y-104170000D03*
X141990000Y-99000000D03*
X170830000Y-90650000D03*
X146180000Y-94510000D03*
X126300000Y-80800000D03*
X169990000Y-93100000D03*
X164920000Y-88610000D03*
X174000000Y-106250000D03*
X159225000Y-88250000D03*
X165000000Y-107450000D03*
X146750000Y-102100000D03*
X146200000Y-91625000D03*
X174150000Y-104250000D03*
X173000000Y-86750000D03*
X119920000Y-94000000D03*
X145630000Y-83870000D03*
X176900000Y-85825000D03*
X176690000Y-83130000D03*
X174300000Y-88450000D03*
D31*
X144750000Y-95550000D03*
D29*
X131100000Y-96600000D03*
X145470000Y-102380000D03*
X175650000Y-100300000D03*
X177150000Y-102900000D03*
X177150000Y-102200000D03*
X144750000Y-79500000D03*
X173800000Y-83250000D03*
X174700000Y-86750000D03*
X185420000Y-88900000D03*
X156270000Y-79130000D03*
X159890000Y-103260000D03*
X177550000Y-87550000D03*
X182600000Y-96995000D03*
X141900000Y-92100000D03*
X144700000Y-107450000D03*
X164550000Y-105350000D03*
X148500000Y-92075000D03*
X155050000Y-95190000D03*
X118480000Y-107950000D03*
X162630000Y-102220000D03*
X152240000Y-90750000D03*
X137470997Y-93325000D03*
X175300000Y-106250000D03*
X185800000Y-98750000D03*
X184150000Y-92710000D03*
X154300000Y-107450000D03*
X150200000Y-91350000D03*
X172150000Y-84450000D03*
X152530000Y-103260000D03*
X124700000Y-101425000D03*
X153100000Y-81580000D03*
X149758400Y-94624999D03*
D30*
X174250000Y-95850000D03*
D29*
X129750000Y-101500000D03*
D30*
X175750000Y-94350000D03*
D29*
X162100000Y-84130000D03*
X161570000Y-81560000D03*
X181350000Y-85600000D03*
X139375000Y-92075000D03*
X179000000Y-98390000D03*
X169140000Y-106260000D03*
X175650000Y-101100000D03*
X185090000Y-96995000D03*
X160780000Y-99480000D03*
X174250000Y-102800000D03*
X137760000Y-87880000D03*
X174150000Y-103650000D03*
X166650000Y-98300000D03*
X151220000Y-104280000D03*
X129220000Y-94440000D03*
X145075000Y-87650000D03*
X114740000Y-104710000D03*
X183430000Y-98395000D03*
X167048210Y-92440000D03*
X114750000Y-84375000D03*
D31*
X144760000Y-94820000D03*
D29*
X171024998Y-105050000D03*
X144750000Y-105300000D03*
X140680000Y-94510000D03*
X164190000Y-79170000D03*
X182600000Y-99400000D03*
X160650000Y-91050000D03*
X175900000Y-86450000D03*
X177150000Y-101500000D03*
X179950000Y-104200000D03*
X130844529Y-87400153D03*
X184150000Y-105410000D03*
X185420000Y-91440000D03*
X165970000Y-104290000D03*
X178100000Y-105500000D03*
X149340000Y-79250000D03*
X185420000Y-93980000D03*
X184260000Y-96995000D03*
X122180000Y-84930000D03*
X185420000Y-86360000D03*
D31*
X172200000Y-99900000D03*
D29*
X129175000Y-97450000D03*
D30*
X174250000Y-94350000D03*
D29*
X177090000Y-90260000D03*
X148050000Y-98275000D03*
D31*
X168700000Y-83650000D03*
D29*
X161140000Y-95740000D03*
X176400000Y-80410000D03*
X175850000Y-88450000D03*
X126275000Y-87700000D03*
X145100000Y-91650000D03*
X185420000Y-83820000D03*
X185420000Y-101600000D03*
X129420000Y-109620000D03*
X175200000Y-83250000D03*
X176880000Y-84430000D03*
X139510000Y-84010000D03*
X132100000Y-92080000D03*
X157110000Y-104300000D03*
X146610000Y-98440000D03*
X175650000Y-101900000D03*
X184150000Y-102870000D03*
X182290000Y-95170000D03*
X180700000Y-98500000D03*
X163650000Y-91000000D03*
X178950000Y-102900000D03*
D30*
%TO.N,+3.3V*%
X156100000Y-85150000D03*
D32*
X173600000Y-99842178D03*
D31*
X171250000Y-81000000D03*
X144500000Y-91975000D03*
X172150000Y-81000000D03*
D30*
X157200000Y-85150000D03*
X177550000Y-89320000D03*
D32*
X168700000Y-85300000D03*
D30*
X180010000Y-89200000D03*
X154950000Y-85150000D03*
X180900000Y-99700000D03*
D29*
%TO.N,/GPIO0*%
X179334153Y-96025546D03*
X180600003Y-104200000D03*
%TO.N,/VBUS_FILT*%
X126625000Y-99900000D03*
D30*
%TO.N,/SYS*%
X134200000Y-101490000D03*
X132800000Y-101490000D03*
X135600000Y-101490000D03*
%TO.N,VBAT*%
X133550000Y-98050000D03*
X133550000Y-96050000D03*
X133550000Y-97050000D03*
D29*
%TO.N,+1V8*%
X150650000Y-96900000D03*
X153200130Y-91443381D03*
X148720000Y-94600000D03*
D31*
X157500000Y-91050000D03*
D29*
%TO.N,/SD_DAT3*%
X146700000Y-92100000D03*
%TO.N,/SD_CMD*%
X145625000Y-92100000D03*
%TO.N,/SD_CLK*%
X143400000Y-92100000D03*
%TO.N,/SD_DAT0*%
X141200000Y-92075000D03*
%TO.N,/SD_DAT2*%
X147800000Y-92100000D03*
%TO.N,/SD_DAT1*%
X140100000Y-92050000D03*
%TO.N,/SD_CARD_DETECT*%
X138100000Y-93325000D03*
%TO.N,/SCL*%
X155175000Y-87900000D03*
X176380000Y-90290000D03*
%TO.N,/SDA*%
X174273266Y-90825523D03*
X155150000Y-86425000D03*
%TO.N,/GPIO3*%
X177690753Y-94791938D03*
%TO.N,/MTDI*%
X174000000Y-97877491D03*
%TO.N,/ELECTROMAGNET*%
X177625000Y-95448414D03*
%TO.N,/MTCK*%
X172775000Y-99400000D03*
%TO.N,/MTDO*%
X173200000Y-97877491D03*
%TO.N,/GPIO38*%
X172357440Y-97914240D03*
%TO.N,/MTMS*%
X174285001Y-99650000D03*
%TO.N,/SPICLK*%
X166930000Y-93120000D03*
X164300000Y-88890000D03*
%TO.N,/SPID*%
X167924338Y-94729981D03*
X165550000Y-88880000D03*
%TO.N,/VBUS_MONITOR*%
X177625000Y-93730001D03*
%TO.N,/LED1*%
X177642578Y-93080238D03*
%TO.N,/STAT1*%
X130350000Y-82600000D03*
X126560000Y-98380000D03*
X131150000Y-87950000D03*
%TO.N,/STAT2*%
X131800000Y-87950000D03*
X177816800Y-91016800D03*
X131080000Y-97380000D03*
%TO.N,/LED2*%
X178450000Y-91600000D03*
%TO.N,/LED3*%
X175575691Y-92475000D03*
%TO.N,/MENU*%
X176690000Y-90910000D03*
%TO.N,/SUBMENU*%
X179355000Y-94075000D03*
%TO.N,/ACTIVATE*%
X179256715Y-87331003D03*
%TO.N,/DEEP_SLEEP*%
X179400000Y-95400000D03*
%TO.N,/SPICS0*%
X170476321Y-93573852D03*
X161750000Y-96050000D03*
%TD*%
D33*
%TO.N,+3.3V*%
X171250000Y-81000000D02*
X170475000Y-81775000D01*
X168700000Y-84750000D02*
X168700000Y-85300000D01*
D34*
X180070000Y-89260000D02*
X180070000Y-89320000D01*
X180900000Y-95228450D02*
X181696000Y-96024450D01*
X168700000Y-85300000D02*
X168550000Y-85150000D01*
D33*
X173600000Y-99380406D02*
X174330406Y-98650000D01*
D34*
X180070000Y-89320000D02*
X180900000Y-90150000D01*
X181696000Y-96024450D02*
X181696000Y-98824000D01*
X170750000Y-89355000D02*
X168700000Y-87305000D01*
D33*
X178300000Y-97050000D02*
X178300000Y-95320405D01*
D34*
X180900000Y-94080000D02*
X180900000Y-94625000D01*
D33*
X171250000Y-81000000D02*
X172150000Y-81000000D01*
X173600000Y-99842178D02*
X173600000Y-99380406D01*
D34*
X177550000Y-89320000D02*
X177515000Y-89355000D01*
X168550000Y-85150000D02*
X154950000Y-85150000D01*
D33*
X174330406Y-98650000D02*
X176700000Y-98650000D01*
D34*
X180010000Y-89200000D02*
X180070000Y-89260000D01*
X177515000Y-89355000D02*
X170750000Y-89355000D01*
D33*
X180250000Y-94730000D02*
X180900000Y-94080000D01*
X170475000Y-81775000D02*
X170475000Y-82975000D01*
D34*
X177550000Y-89320000D02*
X179890000Y-89320000D01*
D33*
X180775000Y-94750000D02*
X180900000Y-94625000D01*
X176700000Y-98650000D02*
X178300000Y-97050000D01*
X178300000Y-95320405D02*
X178890405Y-94730000D01*
X178890405Y-94730000D02*
X180250000Y-94730000D01*
D35*
X144500013Y-93484950D02*
X144500013Y-91975013D01*
X144500013Y-91975013D02*
X144500000Y-91975000D01*
D34*
X168700000Y-87305000D02*
X168700000Y-85300000D01*
X181696000Y-98824000D02*
X180900000Y-99620000D01*
X179890000Y-89320000D02*
X180010000Y-89200000D01*
X180900000Y-90150000D02*
X180900000Y-94080000D01*
X180900000Y-94625000D02*
X180900000Y-95228450D01*
D33*
X170475000Y-82975000D02*
X168700000Y-84750000D01*
D36*
%TO.N,/GPIO0*%
X179334153Y-96025546D02*
X180100000Y-96791393D01*
X180600003Y-103057540D02*
X180600003Y-104200000D01*
X180100000Y-96791393D02*
X180100000Y-102557537D01*
X180100000Y-102557537D02*
X180600003Y-103057540D01*
D37*
%TO.N,/VBUS_FILT*%
X126025000Y-100500000D02*
X126625000Y-99900000D01*
X126025000Y-100900000D02*
X126025000Y-100500000D01*
D35*
%TO.N,+1V8*%
X150650000Y-94649052D02*
X150650000Y-93993511D01*
X157500000Y-91050000D02*
X156875000Y-91675000D01*
X149319999Y-95199999D02*
X150099053Y-95199999D01*
X148720000Y-94600000D02*
X149319999Y-95199999D01*
X156875000Y-91675000D02*
X153431749Y-91675000D01*
X150099053Y-95199999D02*
X150650000Y-94649052D01*
X150650000Y-93993511D02*
X150650000Y-96900000D01*
X153431749Y-91675000D02*
X153200130Y-91443381D01*
X153200130Y-91443381D02*
X150650000Y-93993511D01*
%TO.N,Net-(D1-A)*%
X126765000Y-95990000D02*
X126765000Y-97412501D01*
X126765000Y-97412501D02*
X126802499Y-97450000D01*
%TO.N,Net-(D2-A)*%
X126765000Y-94412501D02*
X126802499Y-94450000D01*
X126765000Y-92990000D02*
X126765000Y-94412501D01*
%TO.N,Net-(D3-A)*%
X126765000Y-91412501D02*
X126802499Y-91450000D01*
X126765000Y-89990000D02*
X126765000Y-91412501D01*
%TO.N,/SD_DAT3*%
X146780000Y-93564936D02*
X146780000Y-95695000D01*
X146780000Y-95695000D02*
X145365000Y-97110000D01*
D38*
X146700014Y-93484950D02*
X146700014Y-92100014D01*
D35*
X146700014Y-93484950D02*
X146780000Y-93564936D01*
D38*
X146700014Y-92100014D02*
X146700000Y-92100000D01*
D35*
X145365000Y-97110000D02*
X144650000Y-97110000D01*
%TO.N,/SD_CMD*%
X144150000Y-96600000D02*
X144150000Y-97110000D01*
D38*
X145600013Y-93484950D02*
X145600013Y-92124987D01*
D35*
X145600013Y-93484950D02*
X145600013Y-95799987D01*
X144450000Y-96300000D02*
X144150000Y-96600000D01*
X145100000Y-96300000D02*
X144450000Y-96300000D01*
X145600013Y-95799987D02*
X145100000Y-96300000D01*
D38*
X145600013Y-92124987D02*
X145625000Y-92100000D01*
D35*
%TO.N,/SD_CLK*%
X143400015Y-93484950D02*
X143150000Y-93734965D01*
D38*
X143400015Y-93484950D02*
X143400015Y-92100015D01*
D35*
X143150000Y-93734965D02*
X143150000Y-97110000D01*
D38*
X143400015Y-92100015D02*
X143400000Y-92100000D01*
%TO.N,/SD_DAT0*%
X141200014Y-93484950D02*
X141200014Y-92075014D01*
D35*
X141200014Y-93484950D02*
X141330000Y-93614936D01*
D38*
X141200014Y-92075014D02*
X141200000Y-92075000D01*
D35*
X141330000Y-96640000D02*
X142630000Y-97940000D01*
X142630000Y-97940000D02*
X143400000Y-97940000D01*
X141330000Y-93614936D02*
X141330000Y-96640000D01*
%TO.N,/SD_DAT2*%
X147800014Y-96024986D02*
X145885000Y-97940000D01*
D38*
X147800014Y-93484950D02*
X147800014Y-92100014D01*
D35*
X147800014Y-93484950D02*
X147800014Y-96024986D01*
D38*
X147800014Y-92100014D02*
X147800000Y-92100000D01*
D35*
X145885000Y-97940000D02*
X144400000Y-97940000D01*
%TO.N,/SD_DAT1*%
X143645000Y-98555000D02*
X143900000Y-98300000D01*
D38*
X140100014Y-92050014D02*
X140100000Y-92050000D01*
X140100014Y-93484950D02*
X140100014Y-92050014D01*
D35*
X142320000Y-98550000D02*
X142945000Y-98550000D01*
X143900000Y-98300000D02*
X143900000Y-97940000D01*
X142945000Y-98550000D02*
X142950000Y-98555000D01*
X140100014Y-96330014D02*
X142320000Y-98550000D01*
X142950000Y-98555000D02*
X143645000Y-98555000D01*
X140100014Y-93484950D02*
X140100014Y-96330014D01*
D37*
%TO.N,/SD_CARD_DETECT*%
X138990064Y-93325000D02*
X138100000Y-93325000D01*
X139150014Y-93484950D02*
X138990064Y-93325000D01*
%TO.N,/SCL*%
X169850000Y-91150000D02*
X166150000Y-87450000D01*
X152690000Y-84060000D02*
X153900000Y-82850000D01*
X176780000Y-79170000D02*
X176780000Y-78800000D01*
X162385000Y-80015000D02*
X175935000Y-80015000D01*
X176380000Y-90290000D02*
X175710000Y-90290000D01*
X173450000Y-91150000D02*
X169850000Y-91150000D01*
X166150000Y-87450000D02*
X155625000Y-87450000D01*
X152690000Y-86630000D02*
X152690000Y-84060000D01*
X159550000Y-82850000D02*
X162385000Y-80015000D01*
X174679701Y-91320299D02*
X173620299Y-91320299D01*
X175935000Y-80015000D02*
X176780000Y-79170000D01*
X153960000Y-87900000D02*
X152690000Y-86630000D01*
X153900000Y-82850000D02*
X159550000Y-82850000D01*
X155175000Y-87900000D02*
X153960000Y-87900000D01*
X155625000Y-87450000D02*
X155175000Y-87900000D01*
X175710000Y-90290000D02*
X174679701Y-91320299D01*
X173620299Y-91320299D02*
X173450000Y-91150000D01*
%TO.N,/SDA*%
X174273266Y-90825523D02*
X173597743Y-90150000D01*
X154305000Y-86425000D02*
X153730000Y-85850000D01*
X153730000Y-85850000D02*
X153730000Y-84490000D01*
X172899031Y-80950000D02*
X177170000Y-80950000D01*
X177170000Y-80950000D02*
X179320000Y-78800000D01*
X154320000Y-83900000D02*
X160000000Y-83900000D01*
X162950000Y-80950000D02*
X170500969Y-80950000D01*
X172384031Y-80435000D02*
X172899031Y-80950000D01*
X160000000Y-83900000D02*
X162950000Y-80950000D01*
X170125000Y-90150000D02*
X166400000Y-86425000D01*
X166400000Y-86425000D02*
X155150000Y-86425000D01*
X155150000Y-86425000D02*
X154305000Y-86425000D01*
X173597743Y-90150000D02*
X170125000Y-90150000D01*
X153730000Y-84490000D02*
X154320000Y-83900000D01*
X171015969Y-80435000D02*
X172384031Y-80435000D01*
X170500969Y-80950000D02*
X171015969Y-80435000D01*
%TO.N,/GPIO3*%
X159000000Y-110010000D02*
X159000000Y-110200000D01*
X166272012Y-101752400D02*
X165522600Y-101752400D01*
X177553156Y-94791938D02*
X177050000Y-95295094D01*
X163775000Y-105235000D02*
X159000000Y-110010000D01*
X171124412Y-96900000D02*
X166272012Y-101752400D01*
X177050000Y-96500000D02*
X176650000Y-96900000D01*
X176650000Y-96900000D02*
X171124412Y-96900000D01*
X165522600Y-101752400D02*
X163775000Y-103500000D01*
X177690753Y-94791938D02*
X177553156Y-94791938D01*
X163775000Y-103500000D02*
X163775000Y-105235000D01*
X177050000Y-95295094D02*
X177050000Y-96500000D01*
%TO.N,/MTDI*%
X174000000Y-97877491D02*
X174000000Y-98200000D01*
X168600000Y-102000000D02*
X168600000Y-107090000D01*
X173315000Y-98885000D02*
X171715000Y-98885000D01*
X174000000Y-98200000D02*
X173315000Y-98885000D01*
X171715000Y-98885000D02*
X168600000Y-102000000D01*
X168600000Y-107090000D02*
X169160000Y-107650000D01*
X169160000Y-107650000D02*
X169160000Y-110200000D01*
%TO.N,/ELECTROMAGNET*%
X177050000Y-97350000D02*
X171211814Y-97350000D01*
X171211814Y-97350000D02*
X165225000Y-103336814D01*
X177625000Y-95448414D02*
X177625000Y-96775000D01*
X177625000Y-96775000D02*
X177050000Y-97350000D01*
X165225000Y-103336814D02*
X165225000Y-106515000D01*
X165225000Y-106515000D02*
X161540000Y-110200000D01*
%TO.N,/MTCK*%
X169700000Y-106750000D02*
X171700000Y-108750000D01*
X171700000Y-108750000D02*
X171700000Y-110200000D01*
X171965000Y-99335000D02*
X169700000Y-101600000D01*
X172775000Y-99400000D02*
X172710000Y-99335000D01*
X169700000Y-101600000D02*
X169700000Y-106750000D01*
X172710000Y-99335000D02*
X171965000Y-99335000D01*
%TO.N,/MTDO*%
X171395000Y-98505000D02*
X167530000Y-102370000D01*
X173200000Y-97877491D02*
X173122509Y-97877491D01*
X167530000Y-102370000D02*
X167530000Y-109290000D01*
X172495000Y-98505000D02*
X171395000Y-98505000D01*
X167530000Y-109290000D02*
X166620000Y-110200000D01*
X173122509Y-97877491D02*
X172495000Y-98505000D01*
%TO.N,/GPIO38*%
X171184976Y-97914240D02*
X166630000Y-102469216D01*
X172357440Y-97914240D02*
X171184976Y-97914240D01*
X166630000Y-102469216D02*
X166630000Y-107650000D01*
X166630000Y-107650000D02*
X164080000Y-110200000D01*
%TO.N,/MTMS*%
X174285001Y-101564999D02*
X173590000Y-102260000D01*
X173590000Y-102260000D02*
X171390000Y-102260000D01*
X170500000Y-106300000D02*
X174240000Y-110040000D01*
X174285001Y-99650000D02*
X174285001Y-101564999D01*
X174240000Y-110040000D02*
X174240000Y-110200000D01*
X170500000Y-103150000D02*
X170500000Y-106300000D01*
X171390000Y-102260000D02*
X170500000Y-103150000D01*
%TO.N,/SPICLK*%
X164300000Y-90480000D02*
X166930000Y-93110000D01*
X164300000Y-88890000D02*
X164300000Y-90480000D01*
X166930000Y-93110000D02*
X166930000Y-93120000D01*
%TO.N,/SPID*%
X165550000Y-88880000D02*
X167610000Y-90940000D01*
X167610000Y-94415643D02*
X167924338Y-94729981D01*
X167610000Y-90940000D02*
X167610000Y-94415643D01*
%TO.N,/VBUS_MONITOR*%
X137550000Y-100750000D02*
X129475000Y-100750000D01*
X127500000Y-102550000D02*
X126025000Y-102550000D01*
X149425000Y-101500000D02*
X138300000Y-101500000D01*
X129044000Y-101181000D02*
X129044000Y-101681000D01*
X177486968Y-93730001D02*
X176116969Y-95100000D01*
X177625000Y-93730001D02*
X177486968Y-93730001D01*
X129475000Y-100750000D02*
X129044000Y-101181000D01*
X176116969Y-95100000D02*
X171849608Y-95100000D01*
X138300000Y-101500000D02*
X137550000Y-100750000D01*
X171849608Y-95100000D02*
X166949608Y-100000000D01*
X129044000Y-101681000D02*
X128175000Y-102550000D01*
X128175000Y-102550000D02*
X127500000Y-102550000D01*
X166949608Y-100000000D02*
X150925000Y-100000000D01*
X150925000Y-100000000D02*
X149425000Y-101500000D01*
%TO.N,/LED1*%
X149150000Y-101000000D02*
X138525000Y-101000000D01*
X129669000Y-98589000D02*
X129669000Y-97244000D01*
X166000000Y-99400000D02*
X165560000Y-98960000D01*
X176153815Y-93700000D02*
X172712206Y-93700000D01*
X150966000Y-99184000D02*
X149150000Y-101000000D01*
X138525000Y-101000000D02*
X137800000Y-100275000D01*
X159118622Y-98960000D02*
X158894622Y-99184000D01*
X172712206Y-93700000D02*
X167012206Y-99400000D01*
X129669000Y-97244000D02*
X128415000Y-95990000D01*
X176773577Y-93080238D02*
X176153815Y-93700000D01*
X165560000Y-98960000D02*
X159118622Y-98960000D01*
X131355000Y-100275000D02*
X129669000Y-98589000D01*
X177642578Y-93080238D02*
X176773577Y-93080238D01*
X167012206Y-99400000D02*
X166000000Y-99400000D01*
X137800000Y-100275000D02*
X131355000Y-100275000D01*
X158894622Y-99184000D02*
X150966000Y-99184000D01*
%TO.N,/STAT1*%
X130350000Y-82600000D02*
X125100000Y-87850000D01*
X125100000Y-89750000D02*
X125100000Y-97450000D01*
X125100000Y-87850000D02*
X125100000Y-89750000D01*
X131150000Y-87950000D02*
X126900000Y-87950000D01*
X126900000Y-87950000D02*
X125100000Y-89750000D01*
X126030000Y-98380000D02*
X126560000Y-98380000D01*
X125100000Y-97450000D02*
X126030000Y-98380000D01*
%TO.N,/STAT2*%
X167400001Y-97400000D02*
X150375000Y-97400000D01*
X131080000Y-97730000D02*
X131080000Y-97380000D01*
X172500001Y-92300000D02*
X167400001Y-97400000D01*
X175372371Y-91950000D02*
X175022371Y-92300000D01*
X148275000Y-99500000D02*
X139250000Y-99500000D01*
X132150000Y-98800000D02*
X131080000Y-97730000D01*
X150375000Y-97400000D02*
X148275000Y-99500000D01*
X177816800Y-91016800D02*
X176883600Y-91950000D01*
X176883600Y-91950000D02*
X175372371Y-91950000D01*
X131600000Y-96860000D02*
X131080000Y-97380000D01*
X139250000Y-99500000D02*
X138550000Y-98800000D01*
X131800000Y-87998622D02*
X131600000Y-88198622D01*
X131600000Y-88198622D02*
X131600000Y-96860000D01*
X138550000Y-98800000D02*
X132150000Y-98800000D01*
X131800000Y-87950000D02*
X131800000Y-87998622D01*
X175022371Y-92300000D02*
X172500001Y-92300000D01*
%TO.N,/LED2*%
X167080804Y-98794000D02*
X166445378Y-98794000D01*
X138075000Y-99800000D02*
X131640000Y-99800000D01*
X150566000Y-98784000D02*
X148850000Y-100500000D01*
X131640000Y-99800000D02*
X130110000Y-98270000D01*
X166445378Y-98794000D02*
X165847378Y-98196000D01*
X148850000Y-100500000D02*
X138775000Y-100500000D01*
X130110000Y-94110000D02*
X128990000Y-92990000D01*
X177716413Y-91600000D02*
X176066413Y-93250000D01*
X172624804Y-93250000D02*
X167080804Y-98794000D01*
X130110000Y-98270000D02*
X130110000Y-94110000D01*
X155892622Y-98196000D02*
X155304622Y-98784000D01*
X128990000Y-92990000D02*
X128415000Y-92990000D01*
X138775000Y-100500000D02*
X138075000Y-99800000D01*
X155304622Y-98784000D02*
X150566000Y-98784000D01*
X176066413Y-93250000D02*
X172624804Y-93250000D01*
X165847378Y-98196000D02*
X155892622Y-98196000D01*
X178450000Y-91600000D02*
X177716413Y-91600000D01*
%TO.N,/LED3*%
X139025000Y-100000000D02*
X138325000Y-99300000D01*
X148550000Y-100000000D02*
X139025000Y-100000000D01*
X175250691Y-92800000D02*
X172537403Y-92800000D01*
X130570000Y-91430000D02*
X129130000Y-89990000D01*
X175575691Y-92475000D02*
X175250691Y-92800000D01*
X131880000Y-99300000D02*
X130570000Y-97990000D01*
X167547403Y-97790000D02*
X150760000Y-97790000D01*
X138325000Y-99300000D02*
X131880000Y-99300000D01*
X130570000Y-97990000D02*
X130570000Y-91430000D01*
X129130000Y-89990000D02*
X128415000Y-89990000D01*
X172537403Y-92800000D02*
X167547403Y-97790000D01*
X150760000Y-97790000D02*
X148550000Y-100000000D01*
%TO.N,/MENU*%
X165680380Y-88050000D02*
X161105000Y-88050000D01*
X176690000Y-90910000D02*
X176563670Y-91036330D01*
X175513670Y-91036330D02*
X174680000Y-91870000D01*
X174680000Y-91870000D02*
X169500380Y-91870000D01*
X176563670Y-91036330D02*
X175513670Y-91036330D01*
X161105000Y-88050000D02*
X158880000Y-90275000D01*
X169500380Y-91870000D02*
X165680380Y-88050000D01*
%TO.N,/SUBMENU*%
X176450000Y-96200000D02*
X176150000Y-96500000D01*
X179355000Y-94075000D02*
X178781730Y-94075000D01*
X176150000Y-96500000D02*
X170987010Y-96500000D01*
X176450000Y-95304371D02*
X176450000Y-96200000D01*
X177504371Y-94250000D02*
X176450000Y-95304371D01*
X165450000Y-100600000D02*
X161200000Y-104850000D01*
X178781730Y-94075000D02*
X178606730Y-94250000D01*
X178606730Y-94250000D02*
X177504371Y-94250000D01*
X170987010Y-96500000D02*
X166887010Y-100600000D01*
X166887010Y-100600000D02*
X165450000Y-100600000D01*
X161200000Y-104850000D02*
X161200000Y-105480000D01*
%TO.N,/ACTIVATE*%
X179256715Y-87331003D02*
X179880712Y-87955000D01*
X179880712Y-87955000D02*
X181600000Y-87955000D01*
%TO.N,/DEEP_SLEEP*%
X179110000Y-95400000D02*
X178840000Y-95670000D01*
X172520000Y-105500000D02*
X172500000Y-105480000D01*
X181195000Y-105075000D02*
X181600000Y-105480000D01*
X176300000Y-104600000D02*
X175400000Y-105500000D01*
X175400000Y-105500000D02*
X172520000Y-105500000D01*
X176300000Y-100100000D02*
X176300000Y-104600000D01*
X178840000Y-95670000D02*
X178840000Y-97560000D01*
X181145000Y-105025000D02*
X181600000Y-105480000D01*
X179400000Y-95400000D02*
X179110000Y-95400000D01*
X178840000Y-97560000D02*
X176300000Y-100100000D01*
%TO.N,/SPICS0*%
X170476321Y-93573852D02*
X170409793Y-93640380D01*
X169839620Y-93640380D02*
X167430000Y-96050000D01*
X170409793Y-93640380D02*
X169839620Y-93640380D01*
X167430000Y-96050000D02*
X161750000Y-96050000D01*
%TD*%
%TA.AperFunction,Conductor*%
%TO.N,GND*%
G36*
X112910967Y-110466602D02*
G01*
X113033398Y-110589033D01*
X113167262Y-110686290D01*
X112416658Y-111436894D01*
X112468795Y-111479312D01*
X112508375Y-111536890D01*
X112510543Y-111606726D01*
X112474611Y-111666648D01*
X112411986Y-111697631D01*
X112390539Y-111699500D01*
X111924500Y-111699500D01*
X111857461Y-111679815D01*
X111811706Y-111627011D01*
X111800500Y-111575500D01*
X111800500Y-111107114D01*
X111820185Y-111040075D01*
X111872989Y-110994320D01*
X111942147Y-110984376D01*
X112005703Y-111013401D01*
X112025804Y-111035606D01*
X112060990Y-111085453D01*
X112060991Y-111085454D01*
X112813708Y-110332736D01*
X112910967Y-110466602D01*
G37*
%TD.AperFunction*%
%TA.AperFunction,Conductor*%
G36*
X166732181Y-100810185D02*
G01*
X166777936Y-100862989D01*
X166787880Y-100932147D01*
X166758855Y-100995703D01*
X166752823Y-101002181D01*
X166229424Y-101525581D01*
X166168101Y-101559066D01*
X166141743Y-101561900D01*
X165484704Y-101561900D01*
X165457694Y-101573089D01*
X165457693Y-101573089D01*
X165414696Y-101590898D01*
X165414688Y-101590903D01*
X163613502Y-103392089D01*
X163584500Y-103462105D01*
X163584500Y-105104730D01*
X163564815Y-105171769D01*
X163548181Y-105192411D01*
X162562180Y-106178411D01*
X162500857Y-106211896D01*
X162431165Y-106206912D01*
X162375232Y-106165040D01*
X162350815Y-106099576D01*
X162350499Y-106090756D01*
X162350499Y-104770102D01*
X162344669Y-104740787D01*
X162342175Y-104737054D01*
X162322457Y-104707542D01*
X162289214Y-104685332D01*
X162289215Y-104685332D01*
X162289213Y-104685331D01*
X162289211Y-104685330D01*
X162289208Y-104685329D01*
X162259901Y-104679500D01*
X162259899Y-104679500D01*
X161939268Y-104679500D01*
X161872229Y-104659815D01*
X161826474Y-104607011D01*
X161816530Y-104537853D01*
X161845555Y-104474297D01*
X161851587Y-104467819D01*
X163607909Y-102711498D01*
X165492588Y-100826819D01*
X165553911Y-100793334D01*
X165580269Y-100790500D01*
X166665142Y-100790500D01*
X166732181Y-100810185D01*
G37*
%TD.AperFunction*%
%TA.AperFunction,Conductor*%
G36*
X165496770Y-99170185D02*
G01*
X165517412Y-99186819D01*
X165831431Y-99500838D01*
X165831434Y-99500842D01*
X165838502Y-99507910D01*
X165892090Y-99561498D01*
X165914883Y-99570939D01*
X165969287Y-99614781D01*
X165991351Y-99681075D01*
X165974071Y-99748774D01*
X165922934Y-99796384D01*
X165867430Y-99809500D01*
X150909269Y-99809500D01*
X150842230Y-99789815D01*
X150796475Y-99737011D01*
X150786531Y-99667853D01*
X150815556Y-99604297D01*
X150821588Y-99597819D01*
X151008588Y-99410819D01*
X151069911Y-99377334D01*
X151096269Y-99374500D01*
X158932513Y-99374500D01*
X158932514Y-99374500D01*
X158932515Y-99374500D01*
X159002532Y-99345498D01*
X159056120Y-99291910D01*
X159056120Y-99291909D01*
X159073553Y-99274476D01*
X159073562Y-99274466D01*
X159161212Y-99186818D01*
X159222535Y-99153333D01*
X159248892Y-99150500D01*
X165429731Y-99150500D01*
X165496770Y-99170185D01*
G37*
%TD.AperFunction*%
%TA.AperFunction,Conductor*%
G36*
X165784148Y-98406185D02*
G01*
X165804790Y-98422819D01*
X166276809Y-98894838D01*
X166276812Y-98894842D01*
X166283880Y-98901910D01*
X166337468Y-98955498D01*
X166374748Y-98970939D01*
X166429150Y-99014781D01*
X166451214Y-99081075D01*
X166433934Y-99148774D01*
X166382797Y-99196384D01*
X166327293Y-99209500D01*
X166130269Y-99209500D01*
X166063230Y-99189815D01*
X166042588Y-99173181D01*
X165738939Y-98869532D01*
X165738937Y-98869529D01*
X165667910Y-98798502D01*
X165597894Y-98769500D01*
X165597893Y-98769500D01*
X159080729Y-98769500D01*
X159080727Y-98769500D01*
X159010711Y-98798502D01*
X159010710Y-98798503D01*
X158852033Y-98957181D01*
X158790710Y-98990666D01*
X158764352Y-98993500D01*
X155663890Y-98993500D01*
X155596851Y-98973815D01*
X155551096Y-98921011D01*
X155541152Y-98851853D01*
X155570177Y-98788297D01*
X155576209Y-98781819D01*
X155595665Y-98762364D01*
X155935211Y-98422819D01*
X155996534Y-98389334D01*
X156022892Y-98386500D01*
X165717109Y-98386500D01*
X165784148Y-98406185D01*
G37*
%TD.AperFunction*%
%TA.AperFunction,Conductor*%
G36*
X180242538Y-95100185D02*
G01*
X180288293Y-95152989D01*
X180299499Y-95204500D01*
X180299499Y-95307504D01*
X180299498Y-95307504D01*
X180340424Y-95460239D01*
X180340425Y-95460240D01*
X180355063Y-95485593D01*
X180355064Y-95485594D01*
X180419477Y-95597162D01*
X180419481Y-95597167D01*
X180538349Y-95716035D01*
X180538355Y-95716040D01*
X181059181Y-96236866D01*
X181092666Y-96298189D01*
X181095500Y-96324547D01*
X181095500Y-98523903D01*
X181075815Y-98590942D01*
X181059181Y-98611584D01*
X180512181Y-99158584D01*
X180450858Y-99192069D01*
X180381166Y-99187085D01*
X180325233Y-99145213D01*
X180300816Y-99079749D01*
X180300500Y-99070903D01*
X180300500Y-96751512D01*
X180300499Y-96751509D01*
X180289103Y-96723997D01*
X180269976Y-96677819D01*
X180213574Y-96621417D01*
X179771144Y-96178987D01*
X179737659Y-96117664D01*
X179736352Y-96071907D01*
X179743695Y-96025546D01*
X179743695Y-96025542D01*
X179723652Y-95898994D01*
X179723651Y-95898991D01*
X179692012Y-95836897D01*
X179679965Y-95813254D01*
X179667069Y-95744587D01*
X179693345Y-95679846D01*
X179702754Y-95669294D01*
X179731326Y-95640723D01*
X179789498Y-95526555D01*
X179789499Y-95526551D01*
X179809542Y-95400003D01*
X179809542Y-95399996D01*
X179789499Y-95273448D01*
X179789498Y-95273445D01*
X179783053Y-95260796D01*
X179770156Y-95192126D01*
X179796432Y-95127386D01*
X179853538Y-95087128D01*
X179893537Y-95080500D01*
X180175499Y-95080500D01*
X180242538Y-95100185D01*
G37*
%TD.AperFunction*%
%TA.AperFunction,Conductor*%
G36*
X130910803Y-82550441D02*
G01*
X130969036Y-82589050D01*
X130983739Y-82610844D01*
X134130070Y-88548988D01*
X134144500Y-88607044D01*
X134144500Y-94330772D01*
X134124815Y-94397811D01*
X134110518Y-94416052D01*
X132807412Y-95791552D01*
X132807379Y-95791589D01*
X132800954Y-95799040D01*
X132800940Y-95799058D01*
X132786653Y-95817286D01*
X132786648Y-95817294D01*
X132768459Y-95852644D01*
X132748775Y-95919678D01*
X132748774Y-95919686D01*
X132745078Y-95945395D01*
X132744500Y-95949413D01*
X132744500Y-98476010D01*
X132744653Y-98478867D01*
X132728583Y-98546863D01*
X132678302Y-98595377D01*
X132620831Y-98609500D01*
X132280270Y-98609500D01*
X132213231Y-98589815D01*
X132192589Y-98573181D01*
X131413409Y-97794001D01*
X131379924Y-97732678D01*
X131384908Y-97662986D01*
X131406551Y-97629312D01*
X131405592Y-97628615D01*
X131411324Y-97620725D01*
X131411324Y-97620724D01*
X131411326Y-97620723D01*
X131469498Y-97506555D01*
X131469498Y-97506553D01*
X131469499Y-97506552D01*
X131469499Y-97506551D01*
X131489542Y-97380003D01*
X131489542Y-97379998D01*
X131480265Y-97321427D01*
X131489219Y-97252134D01*
X131515054Y-97214351D01*
X131690468Y-97038938D01*
X131690471Y-97038936D01*
X131707909Y-97021498D01*
X131707910Y-97021498D01*
X131761498Y-96967910D01*
X131790500Y-96897893D01*
X131790500Y-88466953D01*
X131810185Y-88399914D01*
X131862989Y-88354159D01*
X131895100Y-88344479D01*
X131926555Y-88339498D01*
X132040723Y-88281326D01*
X132131326Y-88190723D01*
X132189498Y-88076555D01*
X132191659Y-88062910D01*
X132209542Y-87950003D01*
X132209542Y-87949996D01*
X132189499Y-87823448D01*
X132189498Y-87823446D01*
X132189498Y-87823445D01*
X132131326Y-87709277D01*
X132131322Y-87709273D01*
X132131321Y-87709271D01*
X132040728Y-87618678D01*
X132040725Y-87618676D01*
X132040723Y-87618674D01*
X131926555Y-87560502D01*
X131926554Y-87560501D01*
X131926551Y-87560500D01*
X131800003Y-87540458D01*
X131799997Y-87540458D01*
X131673448Y-87560500D01*
X131617493Y-87589011D01*
X131559277Y-87618674D01*
X131559276Y-87618675D01*
X131551378Y-87624413D01*
X131549832Y-87622285D01*
X131501358Y-87648754D01*
X131431666Y-87643770D01*
X131399552Y-87623131D01*
X131398622Y-87624413D01*
X131390726Y-87618677D01*
X131390723Y-87618674D01*
X131276555Y-87560502D01*
X131276554Y-87560501D01*
X131276551Y-87560500D01*
X131150003Y-87540458D01*
X131149997Y-87540458D01*
X131023448Y-87560500D01*
X130967493Y-87589011D01*
X130909277Y-87618674D01*
X130909276Y-87618675D01*
X130909271Y-87618678D01*
X130811773Y-87716177D01*
X130810659Y-87715063D01*
X130764000Y-87751048D01*
X130719004Y-87759500D01*
X126862105Y-87759500D01*
X126792089Y-87788502D01*
X126792088Y-87788503D01*
X125502181Y-89078411D01*
X125440858Y-89111896D01*
X125371166Y-89106912D01*
X125315233Y-89065040D01*
X125290816Y-88999576D01*
X125290500Y-88990730D01*
X125290500Y-87980269D01*
X125310185Y-87913230D01*
X125326819Y-87892588D01*
X127700698Y-85518709D01*
X130184351Y-83035055D01*
X130245672Y-83001572D01*
X130291429Y-83000265D01*
X130349998Y-83009542D01*
X130350000Y-83009542D01*
X130350003Y-83009542D01*
X130476551Y-82989499D01*
X130476552Y-82989498D01*
X130476555Y-82989498D01*
X130590723Y-82931326D01*
X130681326Y-82840723D01*
X130739498Y-82726555D01*
X130745525Y-82688502D01*
X130751701Y-82649510D01*
X130781630Y-82586375D01*
X130840941Y-82549443D01*
X130910803Y-82550441D01*
G37*
%TD.AperFunction*%
%TA.AperFunction,Conductor*%
G36*
X167392573Y-98000185D02*
G01*
X167438328Y-98052989D01*
X167448272Y-98122147D01*
X167419247Y-98185703D01*
X167413215Y-98192181D01*
X167038216Y-98567181D01*
X166976893Y-98600666D01*
X166950535Y-98603500D01*
X166575647Y-98603500D01*
X166508608Y-98583815D01*
X166487966Y-98567181D01*
X166112966Y-98192181D01*
X166079481Y-98130858D01*
X166084465Y-98061166D01*
X166126337Y-98005233D01*
X166191801Y-97980816D01*
X166200647Y-97980500D01*
X167325534Y-97980500D01*
X167392573Y-98000185D01*
G37*
%TD.AperFunction*%
%TA.AperFunction,Conductor*%
G36*
X155606391Y-98000185D02*
G01*
X155652146Y-98052989D01*
X155662090Y-98122147D01*
X155633065Y-98185703D01*
X155627033Y-98192181D01*
X155262034Y-98557181D01*
X155200711Y-98590666D01*
X155174353Y-98593500D01*
X150525269Y-98593500D01*
X150458230Y-98573815D01*
X150412475Y-98521011D01*
X150402531Y-98451853D01*
X150431556Y-98388297D01*
X150437588Y-98381819D01*
X150802588Y-98016819D01*
X150863911Y-97983334D01*
X150890269Y-97980500D01*
X155539352Y-97980500D01*
X155606391Y-98000185D01*
G37*
%TD.AperFunction*%
%TA.AperFunction,Conductor*%
G36*
X164303913Y-88259424D02*
G01*
X164344643Y-88241523D01*
X164360536Y-88240500D01*
X165426325Y-88240500D01*
X165493364Y-88260185D01*
X165539119Y-88312989D01*
X165549063Y-88382147D01*
X165520038Y-88445703D01*
X165461260Y-88483477D01*
X165445722Y-88486973D01*
X165423448Y-88490500D01*
X165367493Y-88519011D01*
X165309277Y-88548674D01*
X165309276Y-88548675D01*
X165309271Y-88548678D01*
X165218678Y-88639271D01*
X165218675Y-88639276D01*
X165218674Y-88639277D01*
X165196900Y-88682011D01*
X165160500Y-88753448D01*
X165140458Y-88879996D01*
X165140458Y-88880003D01*
X165160500Y-89006551D01*
X165160501Y-89006554D01*
X165160502Y-89006555D01*
X165218674Y-89120723D01*
X165218676Y-89120725D01*
X165218678Y-89120728D01*
X165309271Y-89211321D01*
X165309273Y-89211322D01*
X165309277Y-89211326D01*
X165423445Y-89269498D01*
X165423446Y-89269498D01*
X165423448Y-89269499D01*
X165549997Y-89289542D01*
X165550000Y-89289542D01*
X165550001Y-89289542D01*
X165581892Y-89284490D01*
X165608570Y-89280265D01*
X165677863Y-89289219D01*
X165715650Y-89315057D01*
X167383181Y-90982588D01*
X167416666Y-91043911D01*
X167419500Y-91070269D01*
X167419500Y-92738088D01*
X167399815Y-92805127D01*
X167347011Y-92850882D01*
X167277853Y-92860826D01*
X167214297Y-92831801D01*
X167207819Y-92825769D01*
X167170728Y-92788678D01*
X167170725Y-92788676D01*
X167170723Y-92788674D01*
X167056555Y-92730502D01*
X167056554Y-92730501D01*
X167056551Y-92730500D01*
X166930003Y-92710458D01*
X166930001Y-92710458D01*
X166930000Y-92710458D01*
X166919276Y-92712156D01*
X166880057Y-92718367D01*
X166810764Y-92709410D01*
X166772981Y-92683574D01*
X164526819Y-90437412D01*
X164493334Y-90376089D01*
X164490500Y-90349731D01*
X164490500Y-89320996D01*
X164510185Y-89253957D01*
X164534164Y-89228568D01*
X164533823Y-89228227D01*
X164631321Y-89130728D01*
X164631326Y-89130723D01*
X164689498Y-89016555D01*
X164691082Y-89006555D01*
X164709542Y-88890003D01*
X164709542Y-88889996D01*
X164689499Y-88763448D01*
X164689498Y-88763446D01*
X164689498Y-88763445D01*
X164631326Y-88649277D01*
X164631322Y-88649273D01*
X164631321Y-88649271D01*
X164540728Y-88558678D01*
X164540725Y-88558676D01*
X164540723Y-88558674D01*
X164426555Y-88500502D01*
X164426554Y-88500501D01*
X164426551Y-88500500D01*
X164341139Y-88486973D01*
X164299599Y-88467281D01*
X164274399Y-88483477D01*
X164258861Y-88486973D01*
X164173448Y-88500500D01*
X164117493Y-88529011D01*
X164059277Y-88558674D01*
X164059276Y-88558675D01*
X164059271Y-88558678D01*
X163968678Y-88649271D01*
X163968675Y-88649276D01*
X163968674Y-88649277D01*
X163960715Y-88664898D01*
X163910500Y-88763448D01*
X163890458Y-88889996D01*
X163890458Y-88890003D01*
X163910500Y-89016551D01*
X163910501Y-89016554D01*
X163910502Y-89016555D01*
X163968674Y-89130723D01*
X163968676Y-89130725D01*
X163968678Y-89130728D01*
X164066177Y-89228227D01*
X164065063Y-89229340D01*
X164101048Y-89276000D01*
X164109500Y-89320996D01*
X164109500Y-90517894D01*
X164138502Y-90587910D01*
X164209526Y-90658934D01*
X164209532Y-90658939D01*
X166496309Y-92945716D01*
X166529794Y-93007039D01*
X166531102Y-93052793D01*
X166520458Y-93120001D01*
X166520458Y-93120003D01*
X166540500Y-93246551D01*
X166540501Y-93246554D01*
X166540502Y-93246555D01*
X166598674Y-93360723D01*
X166598676Y-93360725D01*
X166598678Y-93360728D01*
X166689271Y-93451321D01*
X166689273Y-93451322D01*
X166689277Y-93451326D01*
X166803445Y-93509498D01*
X166803446Y-93509498D01*
X166803448Y-93509499D01*
X166929997Y-93529542D01*
X166930000Y-93529542D01*
X166930003Y-93529542D01*
X167056551Y-93509499D01*
X167056552Y-93509498D01*
X167056555Y-93509498D01*
X167170723Y-93451326D01*
X167189078Y-93432971D01*
X167207819Y-93414231D01*
X167269142Y-93380746D01*
X167338834Y-93385730D01*
X167394767Y-93427602D01*
X167419184Y-93493066D01*
X167419500Y-93501912D01*
X167419500Y-94453537D01*
X167448502Y-94523553D01*
X167489280Y-94564331D01*
X167522765Y-94625654D01*
X167524072Y-94671409D01*
X167514796Y-94729977D01*
X167514796Y-94729984D01*
X167534838Y-94856532D01*
X167534839Y-94856535D01*
X167534840Y-94856536D01*
X167593012Y-94970704D01*
X167593014Y-94970706D01*
X167593016Y-94970709D01*
X167683609Y-95061302D01*
X167683611Y-95061303D01*
X167683615Y-95061307D01*
X167797783Y-95119479D01*
X167810635Y-95121514D01*
X167873770Y-95151441D01*
X167910704Y-95210751D01*
X167909709Y-95280614D01*
X167878922Y-95331669D01*
X167387412Y-95823181D01*
X167326089Y-95856666D01*
X167299731Y-95859500D01*
X162180996Y-95859500D01*
X162113957Y-95839815D01*
X162088568Y-95815835D01*
X162088227Y-95816177D01*
X161990728Y-95718678D01*
X161990725Y-95718676D01*
X161990723Y-95718674D01*
X161876555Y-95660502D01*
X161876554Y-95660501D01*
X161876551Y-95660500D01*
X161750003Y-95640458D01*
X161749997Y-95640458D01*
X161623448Y-95660500D01*
X161576311Y-95684518D01*
X161509277Y-95718674D01*
X161509276Y-95718675D01*
X161509271Y-95718678D01*
X161418678Y-95809271D01*
X161418675Y-95809276D01*
X161418674Y-95809277D01*
X161404601Y-95836897D01*
X161360500Y-95923448D01*
X161340458Y-96049996D01*
X161340458Y-96050003D01*
X161360500Y-96176551D01*
X161360501Y-96176554D01*
X161360502Y-96176555D01*
X161418674Y-96290723D01*
X161418676Y-96290725D01*
X161418678Y-96290728D01*
X161509271Y-96381321D01*
X161509273Y-96381322D01*
X161509277Y-96381326D01*
X161623445Y-96439498D01*
X161623446Y-96439498D01*
X161623448Y-96439499D01*
X161749997Y-96459542D01*
X161750000Y-96459542D01*
X161750003Y-96459542D01*
X161876551Y-96439499D01*
X161876552Y-96439498D01*
X161876555Y-96439498D01*
X161990723Y-96381326D01*
X162037062Y-96334987D01*
X162088227Y-96283823D01*
X162089340Y-96284936D01*
X162136000Y-96248952D01*
X162180996Y-96240500D01*
X167467891Y-96240500D01*
X167467892Y-96240500D01*
X167467893Y-96240500D01*
X167537910Y-96211498D01*
X167591498Y-96157910D01*
X167591498Y-96157909D01*
X167608936Y-96140471D01*
X167608937Y-96140468D01*
X169882209Y-93867199D01*
X169943532Y-93833714D01*
X169969890Y-93830880D01*
X170109938Y-93830880D01*
X170176977Y-93850565D01*
X170197620Y-93867200D01*
X170235593Y-93905174D01*
X170235595Y-93905175D01*
X170235598Y-93905178D01*
X170341767Y-93959274D01*
X170392562Y-94007248D01*
X170409357Y-94075069D01*
X170386819Y-94141204D01*
X170373152Y-94157439D01*
X167357413Y-97173181D01*
X167296090Y-97206666D01*
X167269732Y-97209500D01*
X151148632Y-97209500D01*
X151081593Y-97189815D01*
X151035838Y-97137011D01*
X151025894Y-97067853D01*
X151038149Y-97029202D01*
X151039498Y-97026555D01*
X151040299Y-97021498D01*
X151059542Y-96900003D01*
X151059542Y-96899996D01*
X151039499Y-96773448D01*
X151039498Y-96773446D01*
X151039498Y-96773445D01*
X150981326Y-96659277D01*
X150981322Y-96659273D01*
X150981321Y-96659271D01*
X150936819Y-96614769D01*
X150903334Y-96553446D01*
X150900500Y-96527088D01*
X150900500Y-94713321D01*
X150900501Y-94713312D01*
X150900501Y-94589235D01*
X150900500Y-94589221D01*
X150900500Y-94148633D01*
X150920185Y-94081594D01*
X150936814Y-94060957D01*
X153108529Y-91889241D01*
X153169852Y-91855757D01*
X153196210Y-91852923D01*
X153204049Y-91852923D01*
X153271088Y-91872608D01*
X153287196Y-91885588D01*
X153289848Y-91887360D01*
X153289852Y-91887364D01*
X153301498Y-91892188D01*
X153301500Y-91892189D01*
X153301501Y-91892189D01*
X153381921Y-91925501D01*
X153381922Y-91925501D01*
X153496011Y-91925501D01*
X153496019Y-91925500D01*
X156924826Y-91925500D01*
X156924828Y-91925500D01*
X157016897Y-91887364D01*
X157363441Y-91540818D01*
X157424764Y-91507334D01*
X157451122Y-91504500D01*
X157565347Y-91504500D01*
X157690748Y-91467679D01*
X157800695Y-91397021D01*
X157871591Y-91315201D01*
X157930369Y-91277427D01*
X158000238Y-91277427D01*
X158059017Y-91315201D01*
X158078019Y-91354021D01*
X158080657Y-91352929D01*
X158085330Y-91364211D01*
X158107542Y-91397457D01*
X158124219Y-91408599D01*
X158140787Y-91419669D01*
X158140790Y-91419669D01*
X158140791Y-91419670D01*
X158150647Y-91421630D01*
X158170101Y-91425500D01*
X159589898Y-91425499D01*
X159619213Y-91419669D01*
X159652457Y-91397457D01*
X159674669Y-91364213D01*
X159680500Y-91334899D01*
X159680499Y-89795268D01*
X159700184Y-89728230D01*
X159716813Y-89707593D01*
X161147589Y-88276819D01*
X161208912Y-88243334D01*
X161235270Y-88240500D01*
X164239464Y-88240500D01*
X164303913Y-88259424D01*
G37*
%TD.AperFunction*%
%TA.AperFunction,Conductor*%
G36*
X176202539Y-95310185D02*
G01*
X176248294Y-95362989D01*
X176259500Y-95414500D01*
X176259500Y-96069731D01*
X176239815Y-96136770D01*
X176223181Y-96157412D01*
X176107412Y-96273181D01*
X176046089Y-96306666D01*
X176019731Y-96309500D01*
X171208877Y-96309500D01*
X171141838Y-96289815D01*
X171096083Y-96237011D01*
X171086139Y-96167853D01*
X171115164Y-96104297D01*
X171121196Y-96097819D01*
X171405760Y-95813256D01*
X171892197Y-95326819D01*
X171953520Y-95293334D01*
X171979878Y-95290500D01*
X176135500Y-95290500D01*
X176202539Y-95310185D01*
G37*
%TD.AperFunction*%
%TA.AperFunction,Conductor*%
G36*
X177278621Y-93290423D02*
G01*
X177311966Y-93321943D01*
X177312499Y-93322678D01*
X177335919Y-93388505D01*
X177320033Y-93456545D01*
X177299800Y-93483151D01*
X177293677Y-93489274D01*
X177293675Y-93489277D01*
X177293674Y-93489278D01*
X177268566Y-93538554D01*
X177235500Y-93603449D01*
X177221364Y-93692704D01*
X177191435Y-93755839D01*
X177186572Y-93760987D01*
X176074381Y-94873181D01*
X176013058Y-94906666D01*
X175986700Y-94909500D01*
X172071475Y-94909500D01*
X172004436Y-94889815D01*
X171958681Y-94837011D01*
X171948737Y-94767853D01*
X171977762Y-94704297D01*
X171983794Y-94697819D01*
X172270116Y-94411498D01*
X172754795Y-93926819D01*
X172816118Y-93893334D01*
X172842476Y-93890500D01*
X176191706Y-93890500D01*
X176191707Y-93890500D01*
X176191708Y-93890500D01*
X176261725Y-93861498D01*
X176315313Y-93807910D01*
X176315313Y-93807909D01*
X176332751Y-93790471D01*
X176332752Y-93790468D01*
X176816165Y-93307057D01*
X176877488Y-93273572D01*
X176903846Y-93270738D01*
X177211582Y-93270738D01*
X177278621Y-93290423D01*
G37*
%TD.AperFunction*%
%TA.AperFunction,Conductor*%
G36*
X166119054Y-88778347D02*
G01*
X166170105Y-88809132D01*
X169331811Y-91970838D01*
X169331814Y-91970842D01*
X169338882Y-91977910D01*
X169392470Y-92031498D01*
X169462487Y-92060500D01*
X169462488Y-92060500D01*
X169462489Y-92060500D01*
X172170731Y-92060500D01*
X172237770Y-92080185D01*
X172283525Y-92132989D01*
X172293469Y-92202147D01*
X172264444Y-92265703D01*
X172258412Y-92272181D01*
X171059908Y-93470683D01*
X170998585Y-93504168D01*
X170928893Y-93499184D01*
X170872960Y-93457312D01*
X170861746Y-93439303D01*
X170807647Y-93333129D01*
X170807643Y-93333125D01*
X170807642Y-93333123D01*
X170717049Y-93242530D01*
X170717046Y-93242528D01*
X170717044Y-93242526D01*
X170602876Y-93184354D01*
X170602875Y-93184353D01*
X170602872Y-93184352D01*
X170476324Y-93164310D01*
X170476318Y-93164310D01*
X170349769Y-93184352D01*
X170322111Y-93198445D01*
X170235598Y-93242526D01*
X170235597Y-93242527D01*
X170235592Y-93242530D01*
X170144999Y-93333123D01*
X170144994Y-93333130D01*
X170120004Y-93382176D01*
X170072030Y-93432971D01*
X170009520Y-93449880D01*
X169801725Y-93449880D01*
X169731709Y-93478882D01*
X168526026Y-94684565D01*
X168464703Y-94718050D01*
X168395011Y-94713066D01*
X168339078Y-94671194D01*
X168315871Y-94616277D01*
X168313836Y-94603427D01*
X168313836Y-94603426D01*
X168255664Y-94489258D01*
X168255660Y-94489254D01*
X168255659Y-94489252D01*
X168165066Y-94398659D01*
X168165063Y-94398657D01*
X168165061Y-94398655D01*
X168050893Y-94340483D01*
X168050892Y-94340482D01*
X168050889Y-94340481D01*
X167914700Y-94318912D01*
X167914904Y-94317621D01*
X167857461Y-94300754D01*
X167811706Y-94247950D01*
X167800500Y-94196439D01*
X167800500Y-90902108D01*
X167800499Y-90902105D01*
X167795588Y-90890248D01*
X167771498Y-90832090D01*
X167717910Y-90778502D01*
X167710845Y-90771437D01*
X167710838Y-90771431D01*
X165985057Y-89045650D01*
X165951572Y-88984327D01*
X165950265Y-88938571D01*
X165950807Y-88935146D01*
X165959542Y-88880000D01*
X165959541Y-88879998D01*
X165959951Y-88877415D01*
X165989880Y-88814281D01*
X166049191Y-88777349D01*
X166119054Y-88778347D01*
G37*
%TD.AperFunction*%
%TA.AperFunction,Conductor*%
G36*
X179836942Y-89940185D02*
G01*
X179857584Y-89956819D01*
X180263181Y-90362416D01*
X180296666Y-90423739D01*
X180299500Y-90450097D01*
X180299500Y-94133456D01*
X180279815Y-94200495D01*
X180263181Y-94221137D01*
X180141137Y-94343181D01*
X180079814Y-94376666D01*
X180053456Y-94379500D01*
X179856180Y-94379500D01*
X179789141Y-94359815D01*
X179743386Y-94307011D01*
X179733442Y-94237853D01*
X179741959Y-94210988D01*
X179741483Y-94210834D01*
X179744499Y-94201551D01*
X179764542Y-94075003D01*
X179764542Y-94074996D01*
X179744499Y-93948448D01*
X179744498Y-93948446D01*
X179744498Y-93948445D01*
X179686326Y-93834277D01*
X179686322Y-93834273D01*
X179686321Y-93834271D01*
X179595728Y-93743678D01*
X179595725Y-93743676D01*
X179595723Y-93743674D01*
X179481555Y-93685502D01*
X179481554Y-93685501D01*
X179481551Y-93685500D01*
X179355003Y-93665458D01*
X179354997Y-93665458D01*
X179228448Y-93685500D01*
X179214310Y-93692704D01*
X179114277Y-93743674D01*
X179114276Y-93743675D01*
X179114271Y-93743678D01*
X179016773Y-93841177D01*
X179015659Y-93840063D01*
X178969000Y-93876048D01*
X178924004Y-93884500D01*
X178743835Y-93884500D01*
X178673819Y-93913502D01*
X178564142Y-94023181D01*
X178502819Y-94056666D01*
X178476460Y-94059500D01*
X178113442Y-94059500D01*
X178046403Y-94039815D01*
X178000648Y-93987011D01*
X177990704Y-93917853D01*
X178002958Y-93879204D01*
X178005355Y-93874500D01*
X178014498Y-93856556D01*
X178016934Y-93841177D01*
X178034542Y-93730004D01*
X178034542Y-93729997D01*
X178014499Y-93603449D01*
X178014498Y-93603447D01*
X178014498Y-93603446D01*
X177956326Y-93489278D01*
X177956324Y-93489276D01*
X177956321Y-93489270D01*
X177955140Y-93487644D01*
X177954316Y-93485334D01*
X177951895Y-93480583D01*
X177952509Y-93480269D01*
X177931664Y-93421837D01*
X177947493Y-93353784D01*
X177967780Y-93327084D01*
X177973904Y-93320961D01*
X178032076Y-93206793D01*
X178033398Y-93198448D01*
X178052120Y-93080241D01*
X178052120Y-93080234D01*
X178032077Y-92953686D01*
X178032076Y-92953684D01*
X178032076Y-92953683D01*
X177973904Y-92839515D01*
X177973900Y-92839511D01*
X177973899Y-92839509D01*
X177883306Y-92748916D01*
X177883303Y-92748914D01*
X177883301Y-92748912D01*
X177769133Y-92690740D01*
X177769132Y-92690739D01*
X177769129Y-92690738D01*
X177642581Y-92670696D01*
X177642575Y-92670696D01*
X177516026Y-92690738D01*
X177466982Y-92715728D01*
X177401855Y-92748912D01*
X177401854Y-92748913D01*
X177401849Y-92748916D01*
X177304351Y-92846415D01*
X177303237Y-92845301D01*
X177256578Y-92881286D01*
X177211582Y-92889738D01*
X176995443Y-92889738D01*
X176928404Y-92870053D01*
X176882649Y-92817249D01*
X176872705Y-92748091D01*
X176901730Y-92684535D01*
X176907762Y-92678057D01*
X176950370Y-92635450D01*
X177759002Y-91826819D01*
X177820325Y-91793334D01*
X177846683Y-91790500D01*
X178019004Y-91790500D01*
X178086043Y-91810185D01*
X178111431Y-91834164D01*
X178111773Y-91833823D01*
X178209271Y-91931321D01*
X178209273Y-91931322D01*
X178209277Y-91931326D01*
X178323445Y-91989498D01*
X178323446Y-91989498D01*
X178323448Y-91989499D01*
X178449997Y-92009542D01*
X178450000Y-92009542D01*
X178450003Y-92009542D01*
X178576551Y-91989499D01*
X178576552Y-91989498D01*
X178576555Y-91989498D01*
X178690723Y-91931326D01*
X178781326Y-91840723D01*
X178839498Y-91726555D01*
X178839499Y-91726551D01*
X178859542Y-91600003D01*
X178859542Y-91599996D01*
X178839499Y-91473448D01*
X178839498Y-91473446D01*
X178839498Y-91473445D01*
X178781326Y-91359277D01*
X178781322Y-91359273D01*
X178781321Y-91359271D01*
X178690728Y-91268678D01*
X178690725Y-91268676D01*
X178690723Y-91268674D01*
X178576555Y-91210502D01*
X178576554Y-91210501D01*
X178576551Y-91210500D01*
X178450003Y-91190458D01*
X178449997Y-91190458D01*
X178360944Y-91204562D01*
X178291651Y-91195607D01*
X178238199Y-91150611D01*
X178217560Y-91083859D01*
X178219074Y-91062691D01*
X178226342Y-91016802D01*
X178226342Y-91016796D01*
X178206299Y-90890248D01*
X178206298Y-90890246D01*
X178206298Y-90890245D01*
X178148126Y-90776077D01*
X178148122Y-90776073D01*
X178148121Y-90776071D01*
X178057528Y-90685478D01*
X178057525Y-90685476D01*
X178057523Y-90685474D01*
X177943355Y-90627302D01*
X177943354Y-90627301D01*
X177943351Y-90627300D01*
X177816803Y-90607258D01*
X177816797Y-90607258D01*
X177690248Y-90627300D01*
X177664093Y-90640627D01*
X177576077Y-90685474D01*
X177576076Y-90685475D01*
X177576071Y-90685478D01*
X177485478Y-90776071D01*
X177485475Y-90776076D01*
X177485474Y-90776077D01*
X177465632Y-90815019D01*
X177427300Y-90890248D01*
X177407258Y-91016796D01*
X177407258Y-91016803D01*
X177416534Y-91075371D01*
X177407579Y-91144664D01*
X177381742Y-91182449D01*
X176841012Y-91723181D01*
X176779689Y-91756666D01*
X176753331Y-91759500D01*
X175359269Y-91759500D01*
X175292230Y-91739815D01*
X175246475Y-91687011D01*
X175236531Y-91617853D01*
X175265556Y-91554297D01*
X175271588Y-91547819D01*
X175409908Y-91409500D01*
X175556259Y-91263149D01*
X175617582Y-91229664D01*
X175643940Y-91226830D01*
X176391058Y-91226830D01*
X176447353Y-91240345D01*
X176449275Y-91241324D01*
X176449277Y-91241326D01*
X176563445Y-91299498D01*
X176563446Y-91299498D01*
X176563448Y-91299499D01*
X176689997Y-91319542D01*
X176690000Y-91319542D01*
X176690003Y-91319542D01*
X176816551Y-91299499D01*
X176816552Y-91299498D01*
X176816555Y-91299498D01*
X176930723Y-91241326D01*
X177021326Y-91150723D01*
X177079498Y-91036555D01*
X177079499Y-91036551D01*
X177099542Y-90910003D01*
X177099542Y-90909996D01*
X177079499Y-90783448D01*
X177079498Y-90783446D01*
X177079498Y-90783445D01*
X177021326Y-90669277D01*
X177021322Y-90669273D01*
X177021321Y-90669271D01*
X176930728Y-90578678D01*
X176930724Y-90578675D01*
X176930723Y-90578674D01*
X176851984Y-90538554D01*
X176838048Y-90531453D01*
X176787253Y-90483479D01*
X176770458Y-90415658D01*
X176771871Y-90401571D01*
X176789542Y-90290001D01*
X176789542Y-90289996D01*
X176769499Y-90163448D01*
X176769498Y-90163445D01*
X176755410Y-90135796D01*
X176742513Y-90067126D01*
X176768789Y-90002386D01*
X176825895Y-89962128D01*
X176865894Y-89955500D01*
X177428331Y-89955500D01*
X177428347Y-89955501D01*
X177435943Y-89955501D01*
X177594055Y-89955501D01*
X177594057Y-89955501D01*
X177708912Y-89924724D01*
X177741006Y-89920500D01*
X179769903Y-89920500D01*
X179836942Y-89940185D01*
G37*
%TD.AperFunction*%
%TA.AperFunction,Conductor*%
G36*
X170743738Y-80225185D02*
G01*
X170789493Y-80277989D01*
X170799437Y-80347147D01*
X170770412Y-80410703D01*
X170764380Y-80417181D01*
X170458381Y-80723181D01*
X170397058Y-80756666D01*
X170370700Y-80759500D01*
X162912105Y-80759500D01*
X162842089Y-80788502D01*
X162842088Y-80788503D01*
X162792884Y-80837708D01*
X162788502Y-80842090D01*
X162788501Y-80842091D01*
X161358697Y-82271896D01*
X159957412Y-83673181D01*
X159896089Y-83706666D01*
X159869731Y-83709500D01*
X154282105Y-83709500D01*
X154212089Y-83738502D01*
X153568502Y-84382089D01*
X153539500Y-84452105D01*
X153539500Y-85887894D01*
X153568502Y-85957910D01*
X153639526Y-86028934D01*
X153639532Y-86028939D01*
X154136431Y-86525838D01*
X154136434Y-86525842D01*
X154143502Y-86532910D01*
X154197090Y-86586498D01*
X154267107Y-86615500D01*
X154267108Y-86615500D01*
X154342893Y-86615500D01*
X154719004Y-86615500D01*
X154786043Y-86635185D01*
X154811431Y-86659164D01*
X154811773Y-86658823D01*
X154909271Y-86756321D01*
X154909273Y-86756322D01*
X154909277Y-86756326D01*
X155023445Y-86814498D01*
X155023446Y-86814498D01*
X155023448Y-86814499D01*
X155149997Y-86834542D01*
X155150000Y-86834542D01*
X155150003Y-86834542D01*
X155276551Y-86814499D01*
X155276552Y-86814498D01*
X155276555Y-86814498D01*
X155390723Y-86756326D01*
X155409139Y-86737910D01*
X155488227Y-86658823D01*
X155489340Y-86659936D01*
X155536000Y-86623952D01*
X155580996Y-86615500D01*
X166269731Y-86615500D01*
X166336770Y-86635185D01*
X166357411Y-86651818D01*
X170017091Y-90311499D01*
X170087108Y-90340501D01*
X170087110Y-90340501D01*
X170177327Y-90340501D01*
X170177335Y-90340500D01*
X173467474Y-90340500D01*
X173534513Y-90360185D01*
X173555155Y-90376819D01*
X173838208Y-90659872D01*
X173871693Y-90721195D01*
X173873000Y-90766948D01*
X173866461Y-90808245D01*
X173863724Y-90825525D01*
X173863724Y-90825526D01*
X173883766Y-90952074D01*
X173886783Y-90961357D01*
X173884802Y-90962000D01*
X173895353Y-91018170D01*
X173869079Y-91082911D01*
X173811973Y-91123170D01*
X173771972Y-91129799D01*
X173750570Y-91129799D01*
X173683531Y-91110114D01*
X173662890Y-91093481D01*
X173611499Y-91042091D01*
X173557910Y-90988502D01*
X173487894Y-90959500D01*
X173487893Y-90959500D01*
X169980270Y-90959500D01*
X169913231Y-90939815D01*
X169892589Y-90923181D01*
X166328939Y-87359532D01*
X166328937Y-87359529D01*
X166257910Y-87288502D01*
X166187894Y-87259500D01*
X166187893Y-87259500D01*
X155662892Y-87259500D01*
X155587107Y-87259500D01*
X155587105Y-87259500D01*
X155517089Y-87288502D01*
X155340649Y-87464942D01*
X155279326Y-87498427D01*
X155233571Y-87499734D01*
X155175003Y-87490458D01*
X155174997Y-87490458D01*
X155048448Y-87510500D01*
X154996862Y-87536785D01*
X154934277Y-87568674D01*
X154934276Y-87568675D01*
X154934271Y-87568678D01*
X154836773Y-87666177D01*
X154835659Y-87665063D01*
X154789000Y-87701048D01*
X154744004Y-87709500D01*
X154090270Y-87709500D01*
X154023231Y-87689815D01*
X154002589Y-87673181D01*
X152916819Y-86587411D01*
X152883334Y-86526088D01*
X152880500Y-86499730D01*
X152880500Y-84190269D01*
X152900185Y-84123230D01*
X152916819Y-84102588D01*
X153942589Y-83076819D01*
X154003912Y-83043334D01*
X154030270Y-83040500D01*
X159587891Y-83040500D01*
X159587892Y-83040500D01*
X159587893Y-83040500D01*
X159657910Y-83011498D01*
X159711498Y-82957910D01*
X159711498Y-82957909D01*
X159728936Y-82940471D01*
X159728937Y-82940468D01*
X162427589Y-80241819D01*
X162488912Y-80208334D01*
X162515270Y-80205500D01*
X170676699Y-80205500D01*
X170743738Y-80225185D01*
G37*
%TD.AperFunction*%
%TA.AperFunction,Conductor*%
G36*
X175542769Y-89975185D02*
G01*
X175588524Y-90027989D01*
X175598468Y-90097147D01*
X175569443Y-90160703D01*
X175563411Y-90167181D01*
X175548501Y-90182091D01*
X174885281Y-90845310D01*
X174823958Y-90878795D01*
X174754266Y-90873811D01*
X174698333Y-90831939D01*
X174675127Y-90777029D01*
X174662764Y-90698968D01*
X174604592Y-90584800D01*
X174604588Y-90584796D01*
X174604587Y-90584794D01*
X174513994Y-90494201D01*
X174513991Y-90494199D01*
X174513989Y-90494197D01*
X174399821Y-90436025D01*
X174399820Y-90436024D01*
X174399817Y-90436023D01*
X174273269Y-90415981D01*
X174273267Y-90415981D01*
X174273266Y-90415981D01*
X174214692Y-90425257D01*
X174145400Y-90416302D01*
X174107615Y-90390465D01*
X173884331Y-90167181D01*
X173850846Y-90105858D01*
X173855830Y-90036166D01*
X173897702Y-89980233D01*
X173963166Y-89955816D01*
X173972012Y-89955500D01*
X175475730Y-89955500D01*
X175542769Y-89975185D01*
G37*
%TD.AperFunction*%
%TA.AperFunction,Conductor*%
G36*
X170381495Y-81160185D02*
G01*
X170427250Y-81212989D01*
X170437194Y-81282147D01*
X170408169Y-81345703D01*
X170402137Y-81352181D01*
X170194531Y-81559786D01*
X170194527Y-81559791D01*
X170148387Y-81639709D01*
X170148386Y-81639712D01*
X170124500Y-81728856D01*
X170124500Y-82778456D01*
X170104815Y-82845495D01*
X170088181Y-82866137D01*
X168441137Y-84513181D01*
X168379814Y-84546666D01*
X168353456Y-84549500D01*
X154870943Y-84549500D01*
X154718216Y-84590423D01*
X154718209Y-84590426D01*
X154581290Y-84669475D01*
X154581282Y-84669481D01*
X154469481Y-84781282D01*
X154469475Y-84781290D01*
X154390426Y-84918209D01*
X154390423Y-84918216D01*
X154349500Y-85070943D01*
X154349500Y-85229057D01*
X154389693Y-85379057D01*
X154390423Y-85381783D01*
X154390426Y-85381790D01*
X154469475Y-85518709D01*
X154469479Y-85518714D01*
X154469480Y-85518716D01*
X154581284Y-85630520D01*
X154581286Y-85630521D01*
X154581290Y-85630524D01*
X154718209Y-85709573D01*
X154718216Y-85709577D01*
X154870943Y-85750500D01*
X167975500Y-85750500D01*
X168042539Y-85770185D01*
X168088294Y-85822989D01*
X168099500Y-85874500D01*
X168099500Y-87218330D01*
X168099499Y-87218348D01*
X168099499Y-87384054D01*
X168099498Y-87384054D01*
X168140423Y-87536787D01*
X168140424Y-87536788D01*
X168160204Y-87571048D01*
X168176677Y-87638948D01*
X168153824Y-87704975D01*
X168098903Y-87748166D01*
X168029350Y-87754807D01*
X167967247Y-87722791D01*
X167965136Y-87720729D01*
X166578939Y-86334532D01*
X166578937Y-86334529D01*
X166507910Y-86263502D01*
X166437894Y-86234500D01*
X166437893Y-86234500D01*
X155580996Y-86234500D01*
X155513957Y-86214815D01*
X155488568Y-86190835D01*
X155488227Y-86191177D01*
X155390728Y-86093678D01*
X155390725Y-86093676D01*
X155390723Y-86093674D01*
X155276555Y-86035502D01*
X155276554Y-86035501D01*
X155276551Y-86035500D01*
X155150003Y-86015458D01*
X155149997Y-86015458D01*
X155023448Y-86035500D01*
X154967493Y-86064011D01*
X154909277Y-86093674D01*
X154909276Y-86093675D01*
X154909271Y-86093678D01*
X154811773Y-86191177D01*
X154810659Y-86190063D01*
X154764000Y-86226048D01*
X154719004Y-86234500D01*
X154435269Y-86234500D01*
X154368230Y-86214815D01*
X154347588Y-86198181D01*
X153956819Y-85807412D01*
X153923334Y-85746089D01*
X153920500Y-85719731D01*
X153920500Y-84620269D01*
X153940185Y-84553230D01*
X153956819Y-84532588D01*
X154362588Y-84126819D01*
X154423911Y-84093334D01*
X154450269Y-84090500D01*
X160037891Y-84090500D01*
X160037892Y-84090500D01*
X160037893Y-84090500D01*
X160107910Y-84061498D01*
X160161498Y-84007910D01*
X160161498Y-84007909D01*
X160178936Y-83990471D01*
X160178937Y-83990468D01*
X162992588Y-81176819D01*
X163053911Y-81143334D01*
X163080269Y-81140500D01*
X170314456Y-81140500D01*
X170381495Y-81160185D01*
G37*
%TD.AperFunction*%
%TA.AperFunction,Conductor*%
G36*
X145132865Y-94159878D02*
G01*
X145151311Y-94181163D01*
X145152553Y-94182405D01*
X145152556Y-94182407D01*
X145185800Y-94204619D01*
X145185803Y-94204619D01*
X145185804Y-94204620D01*
X145215109Y-94210449D01*
X145215114Y-94210450D01*
X145225508Y-94210449D01*
X145292546Y-94230129D01*
X145338304Y-94282931D01*
X145349513Y-94334449D01*
X145349513Y-95644864D01*
X145329828Y-95711903D01*
X145313194Y-95732545D01*
X145032558Y-96013181D01*
X144971235Y-96046666D01*
X144944877Y-96049500D01*
X144400170Y-96049500D01*
X144308102Y-96087636D01*
X143937636Y-96458102D01*
X143899500Y-96550170D01*
X143899500Y-97159829D01*
X143940061Y-97257751D01*
X143949500Y-97305203D01*
X143949500Y-97384894D01*
X143949501Y-97384902D01*
X143957713Y-97426193D01*
X143953297Y-97427071D01*
X143958156Y-97472620D01*
X143926828Y-97535073D01*
X143866709Y-97570674D01*
X143836147Y-97574500D01*
X143790106Y-97574500D01*
X143790097Y-97574501D01*
X143760788Y-97580330D01*
X143718886Y-97608326D01*
X143652207Y-97629201D01*
X143584828Y-97610714D01*
X143581111Y-97608325D01*
X143539213Y-97580331D01*
X143539208Y-97580329D01*
X143509901Y-97574500D01*
X143463855Y-97574500D01*
X143396816Y-97554815D01*
X143351061Y-97502011D01*
X143341117Y-97432853D01*
X143342913Y-97426314D01*
X143342287Y-97426190D01*
X143350499Y-97384902D01*
X143350500Y-97384899D01*
X143350499Y-97305205D01*
X143359938Y-97257753D01*
X143367912Y-97238502D01*
X143400500Y-97159828D01*
X143400500Y-94334449D01*
X143420185Y-94267410D01*
X143472989Y-94221655D01*
X143524500Y-94210449D01*
X143784910Y-94210449D01*
X143784913Y-94210449D01*
X143814228Y-94204619D01*
X143847472Y-94182407D01*
X143847472Y-94182405D01*
X143847474Y-94182405D01*
X143856109Y-94173771D01*
X143857084Y-94174746D01*
X143900508Y-94138447D01*
X143969832Y-94129730D01*
X144032863Y-94159877D01*
X144051313Y-94181165D01*
X144052553Y-94182405D01*
X144052556Y-94182407D01*
X144085800Y-94204619D01*
X144085803Y-94204619D01*
X144085804Y-94204620D01*
X144095660Y-94206580D01*
X144115114Y-94210450D01*
X144884911Y-94210449D01*
X144914226Y-94204619D01*
X144947470Y-94182407D01*
X144947470Y-94182405D01*
X144947472Y-94182405D01*
X144956107Y-94173771D01*
X144957082Y-94174746D01*
X145000510Y-94138444D01*
X145069834Y-94129730D01*
X145132865Y-94159878D01*
G37*
%TD.AperFunction*%
%TA.AperFunction,Conductor*%
G36*
X146232868Y-94159879D02*
G01*
X146251316Y-94181167D01*
X146252554Y-94182405D01*
X146252557Y-94182407D01*
X146285801Y-94204619D01*
X146285804Y-94204619D01*
X146285805Y-94204620D01*
X146295661Y-94206580D01*
X146315115Y-94210450D01*
X146405500Y-94210449D01*
X146472538Y-94230133D01*
X146518294Y-94282936D01*
X146529500Y-94334449D01*
X146529500Y-95539877D01*
X146509815Y-95606916D01*
X146493181Y-95627558D01*
X145297558Y-96823181D01*
X145236235Y-96856666D01*
X145209877Y-96859500D01*
X144946838Y-96859500D01*
X144879799Y-96839815D01*
X144843734Y-96804388D01*
X144838643Y-96796769D01*
X144822457Y-96772543D01*
X144822455Y-96772540D01*
X144813821Y-96763906D01*
X144816415Y-96761311D01*
X144785227Y-96723997D01*
X144776515Y-96654673D01*
X144806666Y-96591643D01*
X144866107Y-96554920D01*
X144898920Y-96550500D01*
X145149826Y-96550500D01*
X145149828Y-96550500D01*
X145241897Y-96512364D01*
X145812377Y-95941884D01*
X145850513Y-95849815D01*
X145850513Y-95750159D01*
X145850513Y-94334449D01*
X145870198Y-94267410D01*
X145923002Y-94221655D01*
X145974513Y-94210449D01*
X145984908Y-94210449D01*
X145984911Y-94210449D01*
X146014226Y-94204619D01*
X146047470Y-94182407D01*
X146047470Y-94182405D01*
X146047472Y-94182405D01*
X146056107Y-94173771D01*
X146057081Y-94174745D01*
X146100514Y-94138442D01*
X146169838Y-94129729D01*
X146232868Y-94159879D01*
G37*
%TD.AperFunction*%
%TA.AperFunction,Conductor*%
G36*
X140732866Y-94159878D02*
G01*
X140751312Y-94181163D01*
X140752554Y-94182405D01*
X140752557Y-94182407D01*
X140785801Y-94204619D01*
X140785804Y-94204619D01*
X140785805Y-94204620D01*
X140795661Y-94206580D01*
X140815115Y-94210450D01*
X140955500Y-94210449D01*
X141022539Y-94230133D01*
X141068294Y-94282937D01*
X141079500Y-94334449D01*
X141079500Y-96655877D01*
X141059815Y-96722916D01*
X141007011Y-96768671D01*
X140937853Y-96778615D01*
X140874297Y-96749590D01*
X140867819Y-96743558D01*
X140386833Y-96262572D01*
X140353348Y-96201249D01*
X140350514Y-96174891D01*
X140350514Y-94334449D01*
X140370199Y-94267410D01*
X140423003Y-94221655D01*
X140474514Y-94210449D01*
X140484909Y-94210449D01*
X140484912Y-94210449D01*
X140514227Y-94204619D01*
X140547471Y-94182407D01*
X140547471Y-94182405D01*
X140547473Y-94182405D01*
X140556108Y-94173771D01*
X140557083Y-94174746D01*
X140600511Y-94138444D01*
X140669835Y-94129730D01*
X140732866Y-94159878D01*
G37*
%TD.AperFunction*%
%TA.AperFunction,Conductor*%
G36*
X182207579Y-77320185D02*
G01*
X182253334Y-77372989D01*
X182263278Y-77442147D01*
X182234253Y-77505703D01*
X182218795Y-77520688D01*
X182166657Y-77563104D01*
X182917262Y-78313709D01*
X182783398Y-78410967D01*
X182660967Y-78533398D01*
X182563709Y-78667263D01*
X181810991Y-77914545D01*
X181810990Y-77914545D01*
X181658710Y-78130276D01*
X181658706Y-78130282D01*
X181523386Y-78391439D01*
X181424891Y-78668575D01*
X181424890Y-78668578D01*
X181365047Y-78956563D01*
X181344976Y-79250000D01*
X181365047Y-79543436D01*
X181424890Y-79831421D01*
X181424891Y-79831424D01*
X181523386Y-80108560D01*
X181523385Y-80108560D01*
X181658706Y-80369716D01*
X181810991Y-80585453D01*
X182563708Y-79832736D01*
X182660967Y-79966602D01*
X182783398Y-80089033D01*
X182917262Y-80186290D01*
X182166658Y-80936894D01*
X182257240Y-81010590D01*
X182257246Y-81010594D01*
X182508550Y-81163415D01*
X182778322Y-81280593D01*
X183061541Y-81359948D01*
X183061547Y-81359949D01*
X183352935Y-81400000D01*
X183647065Y-81400000D01*
X183938452Y-81359949D01*
X183938458Y-81359948D01*
X184221677Y-81280593D01*
X184491449Y-81163415D01*
X184742753Y-81010594D01*
X184742767Y-81010584D01*
X184833340Y-80936895D01*
X184833341Y-80936894D01*
X184082737Y-80186290D01*
X184216602Y-80089033D01*
X184339033Y-79966602D01*
X184436290Y-79832737D01*
X185189007Y-80585453D01*
X185189008Y-80585453D01*
X185341293Y-80369716D01*
X185476613Y-80108560D01*
X185575108Y-79831424D01*
X185575109Y-79831421D01*
X185634952Y-79543436D01*
X185655023Y-79250000D01*
X185634952Y-78956563D01*
X185575109Y-78668578D01*
X185575108Y-78668575D01*
X185476613Y-78391439D01*
X185476614Y-78391439D01*
X185341293Y-78130283D01*
X185189007Y-77914545D01*
X184436290Y-78667261D01*
X184339033Y-78533398D01*
X184216602Y-78410967D01*
X184082736Y-78313709D01*
X184833341Y-77563104D01*
X184781205Y-77520688D01*
X184741624Y-77463111D01*
X184739456Y-77393275D01*
X184775388Y-77333352D01*
X184838012Y-77302369D01*
X184859460Y-77300500D01*
X186051000Y-77300500D01*
X186118039Y-77320185D01*
X186163794Y-77372989D01*
X186175000Y-77424500D01*
X186175000Y-85056749D01*
X186155315Y-85123788D01*
X186125400Y-85155949D01*
X185800000Y-85399999D01*
X185800000Y-86700000D01*
X185799999Y-86700000D01*
X186125400Y-86944050D01*
X186167221Y-87000021D01*
X186175000Y-87043250D01*
X186175000Y-111575500D01*
X186155315Y-111642539D01*
X186102511Y-111688294D01*
X186051000Y-111699500D01*
X184859460Y-111699500D01*
X184792421Y-111679815D01*
X184746666Y-111627011D01*
X184736722Y-111557853D01*
X184765747Y-111494297D01*
X184781204Y-111479313D01*
X184833340Y-111436895D01*
X184833341Y-111436894D01*
X184082737Y-110686290D01*
X184216602Y-110589033D01*
X184339033Y-110466602D01*
X184436290Y-110332737D01*
X185189007Y-111085453D01*
X185189008Y-111085453D01*
X185341293Y-110869716D01*
X185476613Y-110608560D01*
X185575108Y-110331424D01*
X185575109Y-110331421D01*
X185634952Y-110043436D01*
X185655023Y-109750000D01*
X185634952Y-109456563D01*
X185575109Y-109168578D01*
X185575108Y-109168575D01*
X185476613Y-108891439D01*
X185476614Y-108891439D01*
X185341293Y-108630283D01*
X185189007Y-108414545D01*
X184436290Y-109167262D01*
X184339033Y-109033398D01*
X184216602Y-108910967D01*
X184082736Y-108813709D01*
X184833341Y-108063104D01*
X184742756Y-107989407D01*
X184491449Y-107836584D01*
X184221677Y-107719406D01*
X183938458Y-107640051D01*
X183938452Y-107640050D01*
X183647065Y-107600000D01*
X183352935Y-107600000D01*
X183061547Y-107640050D01*
X183061541Y-107640051D01*
X182778322Y-107719406D01*
X182508550Y-107836584D01*
X182257243Y-107989407D01*
X182166657Y-108063104D01*
X182917262Y-108813709D01*
X182783398Y-108910967D01*
X182660967Y-109033398D01*
X182563709Y-109167263D01*
X181810991Y-108414545D01*
X181810990Y-108414545D01*
X181658710Y-108630276D01*
X181658706Y-108630282D01*
X181523386Y-108891439D01*
X181424891Y-109168575D01*
X181424890Y-109168578D01*
X181365047Y-109456563D01*
X181344976Y-109750000D01*
X181365047Y-110043436D01*
X181424890Y-110331421D01*
X181424891Y-110331424D01*
X181523386Y-110608560D01*
X181523385Y-110608560D01*
X181658706Y-110869716D01*
X181810991Y-111085453D01*
X182563708Y-110332736D01*
X182660967Y-110466602D01*
X182783398Y-110589033D01*
X182917262Y-110686290D01*
X182166658Y-111436894D01*
X182218795Y-111479312D01*
X182258375Y-111536890D01*
X182260543Y-111606726D01*
X182224611Y-111666648D01*
X182161986Y-111697631D01*
X182140539Y-111699500D01*
X140063452Y-111699500D01*
X139996413Y-111679815D01*
X139950658Y-111627011D01*
X139940714Y-111557853D01*
X139969739Y-111494297D01*
X140028517Y-111456523D01*
X140041920Y-111453384D01*
X140042886Y-111453213D01*
X140254150Y-111396606D01*
X140254159Y-111396602D01*
X140452387Y-111304167D01*
X140631554Y-111178713D01*
X140786212Y-111024055D01*
X140911666Y-110844888D01*
X141004101Y-110646660D01*
X141004105Y-110646651D01*
X141052108Y-110467501D01*
X140258012Y-110467501D01*
X140290925Y-110410494D01*
X140325000Y-110283327D01*
X140325000Y-110151675D01*
X140290925Y-110024508D01*
X140258012Y-109967501D01*
X141052108Y-109967501D01*
X141052108Y-109967500D01*
X141004105Y-109788350D01*
X141004101Y-109788341D01*
X140911666Y-109590113D01*
X140911664Y-109590109D01*
X140786216Y-109410951D01*
X140786211Y-109410945D01*
X140631554Y-109256288D01*
X140452387Y-109130834D01*
X140254159Y-109038399D01*
X140254150Y-109038395D01*
X140075000Y-108990392D01*
X140075000Y-109784489D01*
X140017993Y-109751576D01*
X139890826Y-109717501D01*
X139759174Y-109717501D01*
X139632007Y-109751576D01*
X139575000Y-109784489D01*
X139575000Y-108990393D01*
X139574999Y-108990392D01*
X139395849Y-109038395D01*
X139395840Y-109038399D01*
X139197612Y-109130834D01*
X139197608Y-109130836D01*
X139018450Y-109256284D01*
X139018444Y-109256289D01*
X138863788Y-109410945D01*
X138863783Y-109410951D01*
X138738335Y-109590109D01*
X138738333Y-109590113D01*
X138645898Y-109788341D01*
X138645894Y-109788350D01*
X138597891Y-109967500D01*
X138597892Y-109967501D01*
X139391988Y-109967501D01*
X139359075Y-110024508D01*
X139325000Y-110151675D01*
X139325000Y-110283327D01*
X139359075Y-110410494D01*
X139391988Y-110467501D01*
X138597892Y-110467501D01*
X138645894Y-110646651D01*
X138645898Y-110646660D01*
X138738333Y-110844888D01*
X138863787Y-111024055D01*
X139018445Y-111178713D01*
X139197612Y-111304167D01*
X139395840Y-111396602D01*
X139395849Y-111396606D01*
X139607113Y-111453213D01*
X139608080Y-111453384D01*
X139608468Y-111453576D01*
X139612340Y-111454614D01*
X139612131Y-111455391D01*
X139670683Y-111484410D01*
X139706573Y-111544357D01*
X139704357Y-111614191D01*
X139664737Y-111671742D01*
X139600293Y-111698736D01*
X139586548Y-111699500D01*
X115109460Y-111699500D01*
X115042421Y-111679815D01*
X114996666Y-111627011D01*
X114986722Y-111557853D01*
X115015747Y-111494297D01*
X115031204Y-111479313D01*
X115083340Y-111436895D01*
X115083341Y-111436894D01*
X114332737Y-110686290D01*
X114466602Y-110589033D01*
X114589033Y-110466602D01*
X114686290Y-110332737D01*
X115439007Y-111085453D01*
X115439008Y-111085453D01*
X115591293Y-110869716D01*
X115726613Y-110608560D01*
X115825108Y-110331424D01*
X115825109Y-110331421D01*
X115884952Y-110043436D01*
X115905023Y-109750000D01*
X115884952Y-109456563D01*
X115825109Y-109168578D01*
X115825108Y-109168575D01*
X115726613Y-108891439D01*
X115726614Y-108891439D01*
X115591293Y-108630283D01*
X115439007Y-108414545D01*
X114686290Y-109167262D01*
X114589033Y-109033398D01*
X114466602Y-108910967D01*
X114332736Y-108813709D01*
X115083341Y-108063104D01*
X114992756Y-107989407D01*
X114741449Y-107836584D01*
X114471677Y-107719406D01*
X114188458Y-107640051D01*
X114188452Y-107640050D01*
X113897065Y-107600000D01*
X113602935Y-107600000D01*
X113311547Y-107640050D01*
X113311541Y-107640051D01*
X113028322Y-107719406D01*
X112758550Y-107836584D01*
X112507243Y-107989407D01*
X112416657Y-108063104D01*
X113167262Y-108813709D01*
X113033398Y-108910967D01*
X112910967Y-109033398D01*
X112813709Y-109167263D01*
X112060991Y-108414545D01*
X112060990Y-108414545D01*
X112025804Y-108464393D01*
X111971062Y-108507811D01*
X111901537Y-108514740D01*
X111839302Y-108482981D01*
X111804117Y-108422618D01*
X111800500Y-108392885D01*
X111800500Y-100655131D01*
X125449500Y-100655131D01*
X125449500Y-101144856D01*
X125449502Y-101144882D01*
X125452413Y-101169987D01*
X125452415Y-101169991D01*
X125497793Y-101272764D01*
X125497794Y-101272765D01*
X125577235Y-101352206D01*
X125680009Y-101397585D01*
X125705135Y-101400500D01*
X126344864Y-101400499D01*
X126344879Y-101400497D01*
X126344882Y-101400497D01*
X126369987Y-101397586D01*
X126369988Y-101397585D01*
X126369991Y-101397585D01*
X126472765Y-101352206D01*
X126552206Y-101272765D01*
X126597585Y-101169991D01*
X126600500Y-101144865D01*
X126600499Y-100655136D01*
X126600497Y-100655117D01*
X126597586Y-100630012D01*
X126597585Y-100630010D01*
X126597585Y-100630009D01*
X126552206Y-100527235D01*
X126546194Y-100521223D01*
X126512709Y-100459900D01*
X126517693Y-100390208D01*
X126559565Y-100334275D01*
X126615720Y-100313330D01*
X126615362Y-100311069D01*
X126751551Y-100289499D01*
X126751552Y-100289498D01*
X126751555Y-100289498D01*
X126865723Y-100231326D01*
X126956326Y-100140723D01*
X127014498Y-100026555D01*
X127015382Y-100020974D01*
X127034542Y-99900003D01*
X127034542Y-99899996D01*
X127014499Y-99773448D01*
X127014498Y-99773446D01*
X127014498Y-99773445D01*
X126956326Y-99659277D01*
X126956322Y-99659273D01*
X126956321Y-99659271D01*
X126865728Y-99568678D01*
X126865725Y-99568676D01*
X126865723Y-99568674D01*
X126751555Y-99510502D01*
X126751554Y-99510501D01*
X126751551Y-99510500D01*
X126625003Y-99490458D01*
X126624997Y-99490458D01*
X126498448Y-99510500D01*
X126473043Y-99523445D01*
X126384277Y-99568674D01*
X126384276Y-99568675D01*
X126384271Y-99568678D01*
X126293678Y-99659271D01*
X126293675Y-99659276D01*
X126293674Y-99659277D01*
X126271502Y-99702792D01*
X126235500Y-99773448D01*
X126215458Y-99899996D01*
X126215458Y-99900003D01*
X126224734Y-99958571D01*
X126215779Y-100027864D01*
X126189942Y-100065649D01*
X125917091Y-100338501D01*
X125917088Y-100338504D01*
X125892408Y-100363183D01*
X125831085Y-100396667D01*
X125804730Y-100399500D01*
X125705143Y-100399500D01*
X125705118Y-100399502D01*
X125680011Y-100402414D01*
X125680008Y-100402415D01*
X125577235Y-100447793D01*
X125497794Y-100527234D01*
X125452415Y-100630006D01*
X125452415Y-100630008D01*
X125449500Y-100655131D01*
X111800500Y-100655131D01*
X111800500Y-97313024D01*
X115853100Y-97313024D01*
X115853100Y-97466978D01*
X115891825Y-97611498D01*
X115892948Y-97615690D01*
X115933927Y-97686666D01*
X115969924Y-97749015D01*
X116078786Y-97857877D01*
X116151099Y-97899627D01*
X116212110Y-97934852D01*
X116212111Y-97934852D01*
X116212114Y-97934854D01*
X116360823Y-97974701D01*
X116360826Y-97974701D01*
X116514774Y-97974701D01*
X116514777Y-97974701D01*
X116663486Y-97934854D01*
X116796814Y-97857877D01*
X116905676Y-97749015D01*
X116982653Y-97615687D01*
X117022500Y-97466978D01*
X117022500Y-97313024D01*
X116982653Y-97164315D01*
X116980759Y-97161035D01*
X116951205Y-97109845D01*
X116905676Y-97030987D01*
X116796814Y-96922125D01*
X116721586Y-96878692D01*
X116663489Y-96845149D01*
X116663490Y-96845149D01*
X116625994Y-96835102D01*
X116514777Y-96805301D01*
X116360823Y-96805301D01*
X116249606Y-96835102D01*
X116212110Y-96845149D01*
X116078789Y-96922123D01*
X116078783Y-96922127D01*
X115969926Y-97030984D01*
X115969922Y-97030990D01*
X115892948Y-97164311D01*
X115892947Y-97164315D01*
X115853100Y-97313024D01*
X111800500Y-97313024D01*
X111800500Y-91533022D01*
X115853100Y-91533022D01*
X115853100Y-91686976D01*
X115892570Y-91834277D01*
X115892948Y-91835688D01*
X115943615Y-91923445D01*
X115969924Y-91969013D01*
X116078786Y-92077875D01*
X116172502Y-92131982D01*
X116212110Y-92154850D01*
X116212111Y-92154850D01*
X116212114Y-92154852D01*
X116360823Y-92194699D01*
X116360826Y-92194699D01*
X116514774Y-92194699D01*
X116514777Y-92194699D01*
X116663486Y-92154852D01*
X116796814Y-92077875D01*
X116905676Y-91969013D01*
X116982653Y-91835685D01*
X117022500Y-91686976D01*
X117022500Y-91533022D01*
X116982653Y-91384313D01*
X116978326Y-91376819D01*
X116946729Y-91322091D01*
X116905676Y-91250985D01*
X116796814Y-91142123D01*
X116744742Y-91112059D01*
X116663489Y-91065147D01*
X116663490Y-91065147D01*
X116621452Y-91053883D01*
X116514777Y-91025299D01*
X116360823Y-91025299D01*
X116254148Y-91053883D01*
X116212110Y-91065147D01*
X116078789Y-91142121D01*
X116078783Y-91142125D01*
X115969926Y-91250982D01*
X115969922Y-91250988D01*
X115892948Y-91384309D01*
X115892947Y-91384313D01*
X115853100Y-91533022D01*
X111800500Y-91533022D01*
X111800500Y-87812105D01*
X124909500Y-87812105D01*
X124909500Y-97487894D01*
X124938502Y-97557910D01*
X125009526Y-97628934D01*
X125009532Y-97628939D01*
X125922088Y-98541497D01*
X125922089Y-98541497D01*
X125922091Y-98541499D01*
X125963102Y-98558485D01*
X125963104Y-98558487D01*
X125992104Y-98570499D01*
X125992105Y-98570499D01*
X125992107Y-98570500D01*
X125992108Y-98570500D01*
X126067893Y-98570500D01*
X126129004Y-98570500D01*
X126196043Y-98590185D01*
X126221431Y-98614164D01*
X126221773Y-98613823D01*
X126319271Y-98711321D01*
X126319273Y-98711322D01*
X126319277Y-98711326D01*
X126433445Y-98769498D01*
X126433446Y-98769498D01*
X126433448Y-98769499D01*
X126559997Y-98789542D01*
X126560000Y-98789542D01*
X126560003Y-98789542D01*
X126686551Y-98769499D01*
X126686552Y-98769498D01*
X126686555Y-98769498D01*
X126800723Y-98711326D01*
X126891326Y-98620723D01*
X126949498Y-98506555D01*
X126949630Y-98505724D01*
X126969542Y-98380003D01*
X126969542Y-98379996D01*
X126949499Y-98253448D01*
X126949498Y-98253446D01*
X126949498Y-98253445D01*
X126925217Y-98205792D01*
X126912322Y-98137125D01*
X126938598Y-98072385D01*
X126995704Y-98032127D01*
X127035703Y-98025499D01*
X127058652Y-98025499D01*
X127058657Y-98025499D01*
X127105152Y-98019379D01*
X127207188Y-97971799D01*
X127286798Y-97892189D01*
X127334378Y-97790153D01*
X127340499Y-97743659D01*
X127340498Y-97156342D01*
X127334378Y-97109847D01*
X127286798Y-97007811D01*
X127207188Y-96928201D01*
X127157043Y-96904818D01*
X127105149Y-96880619D01*
X127104802Y-96880518D01*
X127104451Y-96880293D01*
X127096554Y-96876611D01*
X127097046Y-96875555D01*
X127045949Y-96842861D01*
X127016797Y-96779363D01*
X127015500Y-96761472D01*
X127015500Y-96651989D01*
X127035185Y-96584950D01*
X127087989Y-96539195D01*
X127089295Y-96538607D01*
X127137765Y-96517206D01*
X127217206Y-96437765D01*
X127262585Y-96334991D01*
X127265500Y-96309865D01*
X127265499Y-95670136D01*
X127263829Y-95655734D01*
X127262586Y-95645012D01*
X127262585Y-95645010D01*
X127262585Y-95645009D01*
X127217206Y-95542235D01*
X127137765Y-95462794D01*
X127131981Y-95460240D01*
X127034992Y-95417415D01*
X127009865Y-95414500D01*
X126520143Y-95414500D01*
X126520117Y-95414502D01*
X126495012Y-95417413D01*
X126495008Y-95417415D01*
X126392235Y-95462793D01*
X126312794Y-95542234D01*
X126267415Y-95645006D01*
X126267415Y-95645008D01*
X126264500Y-95670131D01*
X126264500Y-96309856D01*
X126264502Y-96309882D01*
X126267413Y-96334987D01*
X126267415Y-96334991D01*
X126312793Y-96437764D01*
X126312794Y-96437765D01*
X126392235Y-96517206D01*
X126440588Y-96538556D01*
X126493962Y-96583640D01*
X126514490Y-96650426D01*
X126514500Y-96651989D01*
X126514500Y-96794790D01*
X126494815Y-96861829D01*
X126442907Y-96907171D01*
X126397810Y-96928200D01*
X126318200Y-97007810D01*
X126270620Y-97109845D01*
X126270619Y-97109846D01*
X126264499Y-97156340D01*
X126264499Y-97743652D01*
X126264500Y-97743658D01*
X126270620Y-97790153D01*
X126270621Y-97790155D01*
X126270621Y-97790156D01*
X126318199Y-97892187D01*
X126323409Y-97899627D01*
X126345737Y-97965833D01*
X126328728Y-98033600D01*
X126309517Y-98058433D01*
X126231361Y-98136590D01*
X126170038Y-98170075D01*
X126100346Y-98165091D01*
X126055998Y-98136590D01*
X125326819Y-97407411D01*
X125293334Y-97346088D01*
X125290500Y-97319730D01*
X125290500Y-94156340D01*
X126264499Y-94156340D01*
X126264499Y-94743652D01*
X126264500Y-94743658D01*
X126270620Y-94790153D01*
X126270621Y-94790155D01*
X126270621Y-94790156D01*
X126292470Y-94837011D01*
X126318200Y-94892189D01*
X126397810Y-94971799D01*
X126482025Y-95011069D01*
X126499844Y-95019378D01*
X126499845Y-95019379D01*
X126505966Y-95020184D01*
X126546340Y-95025500D01*
X127058657Y-95025499D01*
X127105152Y-95019379D01*
X127207188Y-94971799D01*
X127286798Y-94892189D01*
X127334378Y-94790153D01*
X127340499Y-94743659D01*
X127340498Y-94156342D01*
X127334378Y-94109847D01*
X127286798Y-94007811D01*
X127207188Y-93928201D01*
X127157811Y-93905176D01*
X127105149Y-93880619D01*
X127104802Y-93880518D01*
X127104451Y-93880293D01*
X127096554Y-93876611D01*
X127097046Y-93875555D01*
X127045949Y-93842861D01*
X127016797Y-93779363D01*
X127015500Y-93761472D01*
X127015500Y-93651989D01*
X127035185Y-93584950D01*
X127087989Y-93539195D01*
X127089295Y-93538607D01*
X127137765Y-93517206D01*
X127217206Y-93437765D01*
X127262585Y-93334991D01*
X127265500Y-93309865D01*
X127265499Y-92670136D01*
X127265497Y-92670117D01*
X127262586Y-92645012D01*
X127262585Y-92645010D01*
X127262585Y-92645009D01*
X127217206Y-92542235D01*
X127137765Y-92462794D01*
X127113242Y-92451966D01*
X127034992Y-92417415D01*
X127009865Y-92414500D01*
X126520143Y-92414500D01*
X126520117Y-92414502D01*
X126495012Y-92417413D01*
X126495008Y-92417415D01*
X126392235Y-92462793D01*
X126312794Y-92542234D01*
X126267415Y-92645006D01*
X126267415Y-92645008D01*
X126264500Y-92670131D01*
X126264500Y-93309856D01*
X126264502Y-93309882D01*
X126267413Y-93334987D01*
X126267415Y-93334991D01*
X126312793Y-93437764D01*
X126312794Y-93437765D01*
X126392235Y-93517206D01*
X126440588Y-93538556D01*
X126493962Y-93583640D01*
X126514490Y-93650426D01*
X126514500Y-93651989D01*
X126514500Y-93794790D01*
X126494815Y-93861829D01*
X126442907Y-93907171D01*
X126397810Y-93928200D01*
X126318200Y-94007810D01*
X126270620Y-94109845D01*
X126270619Y-94109846D01*
X126264499Y-94156340D01*
X125290500Y-94156340D01*
X125290500Y-91156340D01*
X126264499Y-91156340D01*
X126264499Y-91743652D01*
X126265692Y-91752715D01*
X126270620Y-91790153D01*
X126270621Y-91790155D01*
X126270621Y-91790156D01*
X126302850Y-91859271D01*
X126318200Y-91892189D01*
X126397810Y-91971799D01*
X126484556Y-92012249D01*
X126499844Y-92019378D01*
X126499845Y-92019379D01*
X126505966Y-92020184D01*
X126546340Y-92025500D01*
X127058657Y-92025499D01*
X127105152Y-92019379D01*
X127207188Y-91971799D01*
X127286798Y-91892189D01*
X127334378Y-91790153D01*
X127340499Y-91743659D01*
X127340498Y-91156342D01*
X127334378Y-91109847D01*
X127286798Y-91007811D01*
X127207188Y-90928201D01*
X127190956Y-90920632D01*
X127105149Y-90880619D01*
X127104802Y-90880518D01*
X127104451Y-90880293D01*
X127096554Y-90876611D01*
X127097046Y-90875555D01*
X127045949Y-90842861D01*
X127016797Y-90779363D01*
X127015500Y-90761472D01*
X127015500Y-90651989D01*
X127035185Y-90584950D01*
X127087989Y-90539195D01*
X127089295Y-90538607D01*
X127137765Y-90517206D01*
X127217206Y-90437765D01*
X127262585Y-90334991D01*
X127265500Y-90309865D01*
X127265499Y-89670136D01*
X127264921Y-89665149D01*
X127262586Y-89645012D01*
X127262585Y-89645010D01*
X127262585Y-89645009D01*
X127217206Y-89542235D01*
X127137765Y-89462794D01*
X127137763Y-89462793D01*
X127034992Y-89417415D01*
X127009865Y-89414500D01*
X126520143Y-89414500D01*
X126520117Y-89414502D01*
X126495012Y-89417413D01*
X126495008Y-89417415D01*
X126392235Y-89462793D01*
X126312794Y-89542234D01*
X126267415Y-89645006D01*
X126267415Y-89645008D01*
X126264500Y-89670131D01*
X126264500Y-90309856D01*
X126264502Y-90309882D01*
X126267413Y-90334987D01*
X126267415Y-90334991D01*
X126312793Y-90437764D01*
X126312794Y-90437765D01*
X126392235Y-90517206D01*
X126440588Y-90538556D01*
X126493962Y-90583640D01*
X126514490Y-90650426D01*
X126514500Y-90651989D01*
X126514500Y-90794790D01*
X126494815Y-90861829D01*
X126442907Y-90907171D01*
X126397810Y-90928200D01*
X126318200Y-91007810D01*
X126270620Y-91109845D01*
X126270619Y-91109846D01*
X126264499Y-91156340D01*
X125290500Y-91156340D01*
X125290500Y-89880269D01*
X125310185Y-89813230D01*
X125326819Y-89792588D01*
X126942589Y-88176819D01*
X127003912Y-88143334D01*
X127030270Y-88140500D01*
X130719004Y-88140500D01*
X130786043Y-88160185D01*
X130811431Y-88184164D01*
X130811773Y-88183823D01*
X130909271Y-88281321D01*
X130909273Y-88281322D01*
X130909277Y-88281326D01*
X131023445Y-88339498D01*
X131023446Y-88339498D01*
X131023448Y-88339499D01*
X131149997Y-88359542D01*
X131150000Y-88359542D01*
X131150003Y-88359542D01*
X131266103Y-88341154D01*
X131335396Y-88350109D01*
X131388848Y-88395105D01*
X131409487Y-88461857D01*
X131409500Y-88463627D01*
X131409500Y-96729730D01*
X131389815Y-96796769D01*
X131373181Y-96817412D01*
X131245649Y-96944943D01*
X131184326Y-96978427D01*
X131138571Y-96979734D01*
X131080003Y-96970458D01*
X131079997Y-96970458D01*
X130953448Y-96990500D01*
X130953445Y-96990501D01*
X130940791Y-96996949D01*
X130872122Y-97009843D01*
X130807382Y-96983564D01*
X130767127Y-96926457D01*
X130760500Y-96886462D01*
X130760500Y-91482335D01*
X130760501Y-91482326D01*
X130760501Y-91392109D01*
X130760500Y-91392106D01*
X130757272Y-91384313D01*
X130731499Y-91322091D01*
X129308938Y-89899531D01*
X129308937Y-89899529D01*
X129237910Y-89828502D01*
X129167894Y-89799500D01*
X129167893Y-89799500D01*
X129039499Y-89799500D01*
X128972460Y-89779815D01*
X128926705Y-89727011D01*
X128915499Y-89675500D01*
X128915499Y-89670143D01*
X128915499Y-89670136D01*
X128914921Y-89665149D01*
X128912586Y-89645012D01*
X128912585Y-89645010D01*
X128912585Y-89645009D01*
X128867206Y-89542235D01*
X128787765Y-89462794D01*
X128787763Y-89462793D01*
X128684992Y-89417415D01*
X128659865Y-89414500D01*
X128170143Y-89414500D01*
X128170117Y-89414502D01*
X128145012Y-89417413D01*
X128145008Y-89417415D01*
X128042235Y-89462793D01*
X127962794Y-89542234D01*
X127917415Y-89645006D01*
X127917415Y-89645008D01*
X127914500Y-89670131D01*
X127914500Y-90309856D01*
X127914502Y-90309882D01*
X127917413Y-90334987D01*
X127917415Y-90334991D01*
X127962793Y-90437764D01*
X127962794Y-90437765D01*
X128042235Y-90517206D01*
X128145009Y-90562585D01*
X128170135Y-90565500D01*
X128659864Y-90565499D01*
X128659879Y-90565497D01*
X128659882Y-90565497D01*
X128684987Y-90562586D01*
X128684988Y-90562585D01*
X128684991Y-90562585D01*
X128787765Y-90517206D01*
X128867206Y-90437765D01*
X128912585Y-90334991D01*
X128913494Y-90327148D01*
X128940769Y-90262828D01*
X128998492Y-90223460D01*
X129068336Y-90221549D01*
X129124349Y-90253756D01*
X130343181Y-91472588D01*
X130376666Y-91533911D01*
X130379500Y-91560269D01*
X130379500Y-93810730D01*
X130359815Y-93877769D01*
X130307011Y-93923524D01*
X130237853Y-93933468D01*
X130174297Y-93904443D01*
X130167819Y-93898411D01*
X129168939Y-92899532D01*
X129168937Y-92899529D01*
X129097910Y-92828502D01*
X129027894Y-92799500D01*
X129015916Y-92797118D01*
X129016769Y-92792825D01*
X128972460Y-92779815D01*
X128926705Y-92727011D01*
X128915499Y-92675500D01*
X128915499Y-92670143D01*
X128915499Y-92670136D01*
X128915497Y-92670117D01*
X128912586Y-92645012D01*
X128912585Y-92645010D01*
X128912585Y-92645009D01*
X128867206Y-92542235D01*
X128787765Y-92462794D01*
X128763242Y-92451966D01*
X128684992Y-92417415D01*
X128659865Y-92414500D01*
X128170143Y-92414500D01*
X128170117Y-92414502D01*
X128145012Y-92417413D01*
X128145008Y-92417415D01*
X128042235Y-92462793D01*
X127962794Y-92542234D01*
X127917415Y-92645006D01*
X127917415Y-92645008D01*
X127914500Y-92670131D01*
X127914500Y-93309856D01*
X127914502Y-93309882D01*
X127917413Y-93334987D01*
X127917415Y-93334991D01*
X127962793Y-93437764D01*
X127962794Y-93437765D01*
X128042235Y-93517206D01*
X128145009Y-93562585D01*
X128170135Y-93565500D01*
X128659864Y-93565499D01*
X128659879Y-93565497D01*
X128659882Y-93565497D01*
X128684987Y-93562586D01*
X128684988Y-93562585D01*
X128684991Y-93562585D01*
X128787765Y-93517206D01*
X128867206Y-93437765D01*
X128886332Y-93394449D01*
X128931418Y-93341072D01*
X128998204Y-93320545D01*
X129065486Y-93339383D01*
X129087447Y-93356854D01*
X129883181Y-94152588D01*
X129916666Y-94213911D01*
X129919500Y-94240269D01*
X129919500Y-96925731D01*
X129899815Y-96992770D01*
X129847011Y-97038525D01*
X129777853Y-97048469D01*
X129714297Y-97019444D01*
X129707819Y-97013412D01*
X128951818Y-96257411D01*
X128918333Y-96196088D01*
X128915499Y-96169730D01*
X128915499Y-95670143D01*
X128915499Y-95670136D01*
X128913829Y-95655734D01*
X128912586Y-95645012D01*
X128912585Y-95645010D01*
X128912585Y-95645009D01*
X128867206Y-95542235D01*
X128787765Y-95462794D01*
X128781981Y-95460240D01*
X128684992Y-95417415D01*
X128659865Y-95414500D01*
X128170143Y-95414500D01*
X128170117Y-95414502D01*
X128145012Y-95417413D01*
X128145008Y-95417415D01*
X128042235Y-95462793D01*
X127962794Y-95542234D01*
X127917415Y-95645006D01*
X127917415Y-95645008D01*
X127914500Y-95670131D01*
X127914500Y-96309856D01*
X127914502Y-96309882D01*
X127917413Y-96334987D01*
X127917415Y-96334991D01*
X127962793Y-96437764D01*
X127962794Y-96437765D01*
X128042235Y-96517206D01*
X128145009Y-96562585D01*
X128170135Y-96565500D01*
X128659864Y-96565499D01*
X128659875Y-96565497D01*
X128662219Y-96565362D01*
X128662810Y-96565499D01*
X128663444Y-96565499D01*
X128663444Y-96565645D01*
X128730284Y-96581139D01*
X128757067Y-96601474D01*
X129442181Y-97286588D01*
X129475666Y-97347911D01*
X129478500Y-97374269D01*
X129478500Y-98626894D01*
X129507502Y-98696910D01*
X129578526Y-98767934D01*
X129578532Y-98767939D01*
X131158412Y-100347819D01*
X131191897Y-100409142D01*
X131186913Y-100478834D01*
X131145041Y-100534767D01*
X131079577Y-100559184D01*
X131070731Y-100559500D01*
X129437105Y-100559500D01*
X129367089Y-100588502D01*
X128882502Y-101073089D01*
X128853500Y-101143105D01*
X128853500Y-101550730D01*
X128833815Y-101617769D01*
X128817181Y-101638411D01*
X128232131Y-102223460D01*
X128170808Y-102256945D01*
X128101116Y-102251961D01*
X128045183Y-102210089D01*
X128031018Y-102185870D01*
X128027206Y-102177235D01*
X127947765Y-102097794D01*
X127947763Y-102097793D01*
X127844992Y-102052415D01*
X127819865Y-102049500D01*
X127180143Y-102049500D01*
X127180117Y-102049502D01*
X127155012Y-102052413D01*
X127155008Y-102052415D01*
X127052235Y-102097793D01*
X126972794Y-102177234D01*
X126972793Y-102177236D01*
X126924952Y-102285586D01*
X126879866Y-102338963D01*
X126813080Y-102359490D01*
X126811518Y-102359500D01*
X126713482Y-102359500D01*
X126646443Y-102339815D01*
X126600688Y-102287011D01*
X126600048Y-102285586D01*
X126552206Y-102177236D01*
X126552205Y-102177234D01*
X126472765Y-102097794D01*
X126369992Y-102052415D01*
X126344865Y-102049500D01*
X125705143Y-102049500D01*
X125705117Y-102049502D01*
X125680012Y-102052413D01*
X125680008Y-102052415D01*
X125577235Y-102097793D01*
X125497794Y-102177234D01*
X125452415Y-102280006D01*
X125452415Y-102280008D01*
X125449500Y-102305131D01*
X125449500Y-102794856D01*
X125449502Y-102794882D01*
X125452413Y-102819987D01*
X125452415Y-102819991D01*
X125497793Y-102922764D01*
X125497794Y-102922765D01*
X125577235Y-103002206D01*
X125680009Y-103047585D01*
X125705135Y-103050500D01*
X126344864Y-103050499D01*
X126344879Y-103050497D01*
X126344882Y-103050497D01*
X126369987Y-103047586D01*
X126369988Y-103047585D01*
X126369991Y-103047585D01*
X126472765Y-103002206D01*
X126552206Y-102922765D01*
X126597585Y-102819991D01*
X126600048Y-102814414D01*
X126645134Y-102761037D01*
X126711920Y-102740510D01*
X126713482Y-102740500D01*
X126811518Y-102740500D01*
X126878557Y-102760185D01*
X126924312Y-102812989D01*
X126924952Y-102814414D01*
X126957251Y-102887564D01*
X126972794Y-102922765D01*
X127052235Y-103002206D01*
X127155009Y-103047585D01*
X127180135Y-103050500D01*
X127819864Y-103050499D01*
X127819879Y-103050497D01*
X127819882Y-103050497D01*
X127844987Y-103047586D01*
X127844988Y-103047585D01*
X127844991Y-103047585D01*
X127947765Y-103002206D01*
X128027206Y-102922765D01*
X128072585Y-102819991D01*
X128075048Y-102814414D01*
X128120134Y-102761037D01*
X128186920Y-102740510D01*
X128188482Y-102740500D01*
X128212891Y-102740500D01*
X128212892Y-102740500D01*
X128212893Y-102740500D01*
X128282910Y-102711498D01*
X128336498Y-102657910D01*
X128336498Y-102657909D01*
X128353936Y-102640471D01*
X128353937Y-102640468D01*
X129205499Y-101788909D01*
X129234501Y-101718892D01*
X129234501Y-101643107D01*
X129234501Y-101633118D01*
X129234500Y-101633104D01*
X129234500Y-101311269D01*
X129254185Y-101244230D01*
X129270819Y-101223588D01*
X129517588Y-100976819D01*
X129578911Y-100943334D01*
X129605269Y-100940500D01*
X130120863Y-100940500D01*
X130187902Y-100960185D01*
X130233657Y-101012989D01*
X130243865Y-101069571D01*
X130244500Y-101069571D01*
X130244500Y-101073093D01*
X130244547Y-101073354D01*
X130244502Y-101073989D01*
X130244500Y-101074000D01*
X130244500Y-101074010D01*
X130244500Y-109326002D01*
X130246910Y-109348426D01*
X130258117Y-109399938D01*
X130281474Y-109446600D01*
X130304151Y-109472770D01*
X130327229Y-109499403D01*
X130377237Y-109531541D01*
X130444276Y-109551226D01*
X130474000Y-109555500D01*
X130474004Y-109555500D01*
X133126000Y-109555500D01*
X133148427Y-109553089D01*
X133199938Y-109541883D01*
X133246599Y-109518526D01*
X133299403Y-109472771D01*
X133331541Y-109422763D01*
X133351226Y-109355724D01*
X133355500Y-109326000D01*
X133355500Y-108299999D01*
X134045321Y-108299999D01*
X134045321Y-108300000D01*
X134064002Y-108513527D01*
X134064004Y-108513537D01*
X134119477Y-108720567D01*
X134119481Y-108720576D01*
X134210066Y-108914838D01*
X134210067Y-108914840D01*
X134249825Y-108971620D01*
X134249826Y-108971621D01*
X134751212Y-108470234D01*
X134762482Y-108512292D01*
X134834890Y-108637708D01*
X134937292Y-108740110D01*
X135062708Y-108812518D01*
X135104764Y-108823787D01*
X134603377Y-109325173D01*
X134660161Y-109364933D01*
X134854423Y-109455518D01*
X134854432Y-109455522D01*
X135061462Y-109510995D01*
X135061472Y-109510997D01*
X135274999Y-109529679D01*
X135275001Y-109529679D01*
X135488527Y-109510997D01*
X135488537Y-109510995D01*
X135695567Y-109455522D01*
X135695576Y-109455518D01*
X135889839Y-109364933D01*
X135946621Y-109325173D01*
X135445235Y-108823787D01*
X135487292Y-108812518D01*
X135612708Y-108740110D01*
X135715110Y-108637708D01*
X135787518Y-108512292D01*
X135798787Y-108470235D01*
X136300173Y-108971621D01*
X136339933Y-108914839D01*
X136430518Y-108720576D01*
X136430522Y-108720567D01*
X136485995Y-108513537D01*
X136485997Y-108513527D01*
X136504679Y-108300000D01*
X136504679Y-108299999D01*
X136485997Y-108086472D01*
X136485995Y-108086462D01*
X136430522Y-107879432D01*
X136430518Y-107879423D01*
X136339933Y-107685162D01*
X136334568Y-107677500D01*
X138869901Y-107677500D01*
X138888252Y-107863831D01*
X138888253Y-107863833D01*
X138942604Y-108043002D01*
X139030862Y-108208123D01*
X139030864Y-108208126D01*
X139149642Y-108352857D01*
X139294373Y-108471635D01*
X139294376Y-108471637D01*
X139375017Y-108514740D01*
X139459499Y-108559896D01*
X139553800Y-108588502D01*
X139638666Y-108614246D01*
X139638668Y-108614247D01*
X139655374Y-108615892D01*
X139825000Y-108632599D01*
X140011331Y-108614247D01*
X140190501Y-108559896D01*
X140355625Y-108471636D01*
X140500357Y-108352857D01*
X140619136Y-108208125D01*
X140707396Y-108043001D01*
X140761747Y-107863831D01*
X140780099Y-107677500D01*
X140761747Y-107491169D01*
X140707396Y-107311999D01*
X140684380Y-107268939D01*
X140619137Y-107146876D01*
X140619135Y-107146873D01*
X140500357Y-107002142D01*
X140355626Y-106883364D01*
X140355623Y-106883362D01*
X140190502Y-106795104D01*
X140011333Y-106740753D01*
X140011331Y-106740752D01*
X139825000Y-106722401D01*
X139638668Y-106740752D01*
X139638666Y-106740753D01*
X139459497Y-106795104D01*
X139294376Y-106883362D01*
X139294373Y-106883364D01*
X139149642Y-107002142D01*
X139030864Y-107146873D01*
X139030862Y-107146876D01*
X138942604Y-107311997D01*
X138888253Y-107491166D01*
X138888252Y-107491168D01*
X138869901Y-107677500D01*
X136334568Y-107677500D01*
X136300172Y-107628379D01*
X135798787Y-108129764D01*
X135787518Y-108087708D01*
X135715110Y-107962292D01*
X135612708Y-107859890D01*
X135487292Y-107787482D01*
X135445235Y-107776212D01*
X135946621Y-107274826D01*
X135946620Y-107274825D01*
X135889840Y-107235067D01*
X135889838Y-107235066D01*
X135695576Y-107144481D01*
X135695567Y-107144477D01*
X135488537Y-107089004D01*
X135488527Y-107089002D01*
X135275001Y-107070321D01*
X135274999Y-107070321D01*
X135061472Y-107089002D01*
X135061462Y-107089004D01*
X134854432Y-107144477D01*
X134854423Y-107144481D01*
X134660162Y-107235066D01*
X134603378Y-107274826D01*
X135104765Y-107776212D01*
X135062708Y-107787482D01*
X134937292Y-107859890D01*
X134834890Y-107962292D01*
X134762482Y-108087708D01*
X134751212Y-108129764D01*
X134249826Y-107628378D01*
X134210066Y-107685162D01*
X134119481Y-107879423D01*
X134119477Y-107879432D01*
X134064004Y-108086462D01*
X134064002Y-108086472D01*
X134045321Y-108299999D01*
X133355500Y-108299999D01*
X133355500Y-105137501D01*
X138869901Y-105137501D01*
X138888252Y-105323832D01*
X138888253Y-105323834D01*
X138942604Y-105503003D01*
X139030862Y-105668124D01*
X139030864Y-105668127D01*
X139149642Y-105812858D01*
X139294373Y-105931636D01*
X139294376Y-105931638D01*
X139459497Y-106019896D01*
X139459499Y-106019897D01*
X139638666Y-106074247D01*
X139638668Y-106074248D01*
X139655374Y-106075893D01*
X139825000Y-106092600D01*
X140011331Y-106074248D01*
X140190501Y-106019897D01*
X140355625Y-105931637D01*
X140500357Y-105812858D01*
X140619136Y-105668126D01*
X140707396Y-105503002D01*
X140761747Y-105323832D01*
X140780099Y-105137501D01*
X140761747Y-104951170D01*
X140707396Y-104772000D01*
X140706379Y-104770098D01*
X150949500Y-104770098D01*
X150949500Y-106189894D01*
X150949501Y-106189902D01*
X150955330Y-106219212D01*
X150977542Y-106252457D01*
X150994219Y-106263599D01*
X151010787Y-106274669D01*
X151010790Y-106274669D01*
X151010791Y-106274670D01*
X151020647Y-106276630D01*
X151040101Y-106280500D01*
X153159898Y-106280499D01*
X153189213Y-106274669D01*
X153222457Y-106252457D01*
X153244669Y-106219213D01*
X153250500Y-106189899D01*
X153250499Y-104770102D01*
X153244669Y-104740787D01*
X153242175Y-104737054D01*
X153222457Y-104707542D01*
X153189214Y-104685332D01*
X153189215Y-104685332D01*
X153189213Y-104685331D01*
X153189211Y-104685330D01*
X153189208Y-104685329D01*
X153159901Y-104679500D01*
X151040105Y-104679500D01*
X151040097Y-104679501D01*
X151010787Y-104685330D01*
X150977542Y-104707542D01*
X150955332Y-104740785D01*
X150955329Y-104740791D01*
X150949500Y-104770098D01*
X140706379Y-104770098D01*
X140690715Y-104740791D01*
X140619137Y-104606877D01*
X140619135Y-104606874D01*
X140500357Y-104462143D01*
X140355626Y-104343365D01*
X140355623Y-104343363D01*
X140190502Y-104255105D01*
X140011333Y-104200754D01*
X140011331Y-104200753D01*
X139825000Y-104182402D01*
X139638668Y-104200753D01*
X139638666Y-104200754D01*
X139459497Y-104255105D01*
X139294376Y-104343363D01*
X139294373Y-104343365D01*
X139149642Y-104462143D01*
X139030864Y-104606874D01*
X139030862Y-104606877D01*
X138942604Y-104771998D01*
X138888253Y-104951167D01*
X138888252Y-104951169D01*
X138869901Y-105137501D01*
X133355500Y-105137501D01*
X133355500Y-103529500D01*
X133375185Y-103462461D01*
X133427989Y-103416706D01*
X133479500Y-103405500D01*
X136026000Y-103405500D01*
X136048427Y-103403089D01*
X136099938Y-103391883D01*
X136146599Y-103368526D01*
X136199403Y-103322771D01*
X136231541Y-103272763D01*
X136251226Y-103205724D01*
X136255500Y-103176000D01*
X136255500Y-101074000D01*
X136255500Y-101073989D01*
X136255347Y-101071133D01*
X136271417Y-101003137D01*
X136321698Y-100954623D01*
X136379169Y-100940500D01*
X137419731Y-100940500D01*
X137486770Y-100960185D01*
X137507411Y-100976818D01*
X138192090Y-101661498D01*
X138262107Y-101690500D01*
X138337892Y-101690500D01*
X138750500Y-101690500D01*
X138817539Y-101710185D01*
X138863294Y-101762989D01*
X138874500Y-101814500D01*
X138874500Y-103457395D01*
X138874501Y-103457403D01*
X138880330Y-103486713D01*
X138902542Y-103519958D01*
X138916824Y-103529500D01*
X138935787Y-103542170D01*
X138935790Y-103542170D01*
X138935791Y-103542171D01*
X138937888Y-103542588D01*
X138965101Y-103548001D01*
X140684898Y-103548000D01*
X140714213Y-103542170D01*
X140747457Y-103519958D01*
X140769669Y-103486714D01*
X140775500Y-103457400D01*
X140775499Y-101814499D01*
X140795184Y-101747461D01*
X140847987Y-101701706D01*
X140899499Y-101690500D01*
X149462891Y-101690500D01*
X149462892Y-101690500D01*
X149462893Y-101690500D01*
X149532910Y-101661498D01*
X149586498Y-101607910D01*
X149586498Y-101607909D01*
X149603936Y-101590471D01*
X149603937Y-101590468D01*
X150967589Y-100226819D01*
X151028912Y-100193334D01*
X151055270Y-100190500D01*
X165317430Y-100190500D01*
X165384469Y-100210185D01*
X165430224Y-100262989D01*
X165440168Y-100332147D01*
X165411143Y-100395703D01*
X165364883Y-100429061D01*
X165342089Y-100438502D01*
X165342088Y-100438503D01*
X165288501Y-100492091D01*
X161137410Y-104643181D01*
X161076087Y-104676666D01*
X161049729Y-104679500D01*
X160140105Y-104679500D01*
X160140097Y-104679501D01*
X160110787Y-104685330D01*
X160077542Y-104707542D01*
X160055332Y-104740785D01*
X160055329Y-104740791D01*
X160049500Y-104770098D01*
X160049500Y-106189894D01*
X160049501Y-106189902D01*
X160055330Y-106219212D01*
X160077542Y-106252457D01*
X160094219Y-106263599D01*
X160110787Y-106274669D01*
X160110790Y-106274669D01*
X160110791Y-106274670D01*
X160120647Y-106276630D01*
X160140101Y-106280500D01*
X162160731Y-106280499D01*
X162227770Y-106300184D01*
X162273525Y-106352987D01*
X162283469Y-106422146D01*
X162254444Y-106485702D01*
X162248412Y-106492180D01*
X159527410Y-109213181D01*
X159466087Y-109246666D01*
X159439729Y-109249500D01*
X158140105Y-109249500D01*
X158140097Y-109249501D01*
X158110787Y-109255330D01*
X158077542Y-109277542D01*
X158055332Y-109310785D01*
X158055329Y-109310791D01*
X158049500Y-109340098D01*
X158049500Y-111059894D01*
X158049501Y-111059902D01*
X158055330Y-111089212D01*
X158077542Y-111122457D01*
X158094219Y-111133599D01*
X158110787Y-111144669D01*
X158110790Y-111144669D01*
X158110791Y-111144670D01*
X158120647Y-111146630D01*
X158140101Y-111150500D01*
X159859898Y-111150499D01*
X159889213Y-111144669D01*
X159922457Y-111122457D01*
X159944669Y-111089213D01*
X159950500Y-111059899D01*
X159950499Y-109380267D01*
X159970184Y-109313229D01*
X159986813Y-109292592D01*
X163865468Y-105413938D01*
X163865471Y-105413936D01*
X163882909Y-105396498D01*
X163882910Y-105396498D01*
X163936498Y-105342910D01*
X163965500Y-105272893D01*
X163965500Y-103630269D01*
X163985185Y-103563230D01*
X164001819Y-103542588D01*
X165565189Y-101979219D01*
X165626512Y-101945734D01*
X165652870Y-101942900D01*
X166050144Y-101942900D01*
X166117183Y-101962585D01*
X166162938Y-102015389D01*
X166172882Y-102084547D01*
X166143857Y-102148103D01*
X166137825Y-102154581D01*
X165063503Y-103228902D01*
X165063502Y-103228903D01*
X165034500Y-103298919D01*
X165034500Y-106384730D01*
X165014815Y-106451769D01*
X164998181Y-106472411D01*
X162131810Y-109338781D01*
X162070487Y-109372266D01*
X162000795Y-109367282D01*
X161985676Y-109360458D01*
X161905502Y-109317604D01*
X161726333Y-109263253D01*
X161726331Y-109263252D01*
X161540000Y-109244901D01*
X161353668Y-109263252D01*
X161353666Y-109263253D01*
X161174497Y-109317604D01*
X161009376Y-109405862D01*
X161009373Y-109405864D01*
X160864642Y-109524642D01*
X160745864Y-109669373D01*
X160745862Y-109669376D01*
X160657604Y-109834497D01*
X160603253Y-110013666D01*
X160603252Y-110013668D01*
X160584901Y-110200000D01*
X160603252Y-110386331D01*
X160603253Y-110386333D01*
X160657604Y-110565502D01*
X160745862Y-110730623D01*
X160745864Y-110730626D01*
X160864642Y-110875357D01*
X161009373Y-110994135D01*
X161009376Y-110994137D01*
X161132415Y-111059902D01*
X161174499Y-111082396D01*
X161306562Y-111122457D01*
X161353666Y-111136746D01*
X161353668Y-111136747D01*
X161370374Y-111138392D01*
X161540000Y-111155099D01*
X161726331Y-111136747D01*
X161905501Y-111082396D01*
X162070625Y-110994136D01*
X162215357Y-110875357D01*
X162334136Y-110730625D01*
X162422396Y-110565501D01*
X162476747Y-110386331D01*
X162495099Y-110200000D01*
X162476747Y-110013669D01*
X162422396Y-109834499D01*
X162379539Y-109754319D01*
X162365298Y-109685921D01*
X162390297Y-109620677D01*
X162401210Y-109608195D01*
X165315468Y-106693938D01*
X165315471Y-106693936D01*
X165332909Y-106676498D01*
X165332910Y-106676498D01*
X165386498Y-106622910D01*
X165415500Y-106552893D01*
X165415500Y-103467082D01*
X165435185Y-103400043D01*
X165451814Y-103379405D01*
X166227819Y-102603400D01*
X166289142Y-102569916D01*
X166358834Y-102574900D01*
X166414767Y-102616772D01*
X166439184Y-102682236D01*
X166439500Y-102691082D01*
X166439500Y-107519730D01*
X166419815Y-107586769D01*
X166403181Y-107607411D01*
X164671810Y-109338781D01*
X164610487Y-109372266D01*
X164540795Y-109367282D01*
X164525676Y-109360458D01*
X164445502Y-109317604D01*
X164266333Y-109263253D01*
X164266331Y-109263252D01*
X164080000Y-109244901D01*
X163893668Y-109263252D01*
X163893666Y-109263253D01*
X163714497Y-109317604D01*
X163549376Y-109405862D01*
X163549373Y-109405864D01*
X163404642Y-109524642D01*
X163285864Y-109669373D01*
X163285862Y-109669376D01*
X163197604Y-109834497D01*
X163143253Y-110013666D01*
X163143252Y-110013668D01*
X163124901Y-110200000D01*
X163143252Y-110386331D01*
X163143253Y-110386333D01*
X163197604Y-110565502D01*
X163285862Y-110730623D01*
X163285864Y-110730626D01*
X163404642Y-110875357D01*
X163549373Y-110994135D01*
X163549376Y-110994137D01*
X163672415Y-111059902D01*
X163714499Y-111082396D01*
X163846562Y-111122457D01*
X163893666Y-111136746D01*
X163893668Y-111136747D01*
X163910374Y-111138392D01*
X164080000Y-111155099D01*
X164266331Y-111136747D01*
X164445501Y-111082396D01*
X164610625Y-110994136D01*
X164755357Y-110875357D01*
X164874136Y-110730625D01*
X164962396Y-110565501D01*
X165016747Y-110386331D01*
X165035099Y-110200000D01*
X165016747Y-110013669D01*
X164962396Y-109834499D01*
X164919539Y-109754319D01*
X164905298Y-109685921D01*
X164930297Y-109620677D01*
X164941209Y-109608196D01*
X166791499Y-107757909D01*
X166820501Y-107687892D01*
X166820501Y-107612107D01*
X166820501Y-107612106D01*
X166820501Y-107602118D01*
X166820500Y-107602104D01*
X166820500Y-102599485D01*
X166840185Y-102532446D01*
X166856819Y-102511804D01*
X167127819Y-102240804D01*
X167189142Y-102207319D01*
X167258834Y-102212303D01*
X167314767Y-102254175D01*
X167339184Y-102319639D01*
X167339500Y-102328485D01*
X167339500Y-109159730D01*
X167319815Y-109226769D01*
X167303185Y-109247406D01*
X167239807Y-109310785D01*
X167211810Y-109338782D01*
X167150486Y-109372266D01*
X167080795Y-109367282D01*
X167065676Y-109360458D01*
X166985502Y-109317604D01*
X166806333Y-109263253D01*
X166806331Y-109263252D01*
X166620000Y-109244901D01*
X166433668Y-109263252D01*
X166433666Y-109263253D01*
X166254497Y-109317604D01*
X166089376Y-109405862D01*
X166089373Y-109405864D01*
X165944642Y-109524642D01*
X165825864Y-109669373D01*
X165825862Y-109669376D01*
X165737604Y-109834497D01*
X165683253Y-110013666D01*
X165683252Y-110013668D01*
X165664901Y-110200000D01*
X165683252Y-110386331D01*
X165683253Y-110386333D01*
X165737604Y-110565502D01*
X165825862Y-110730623D01*
X165825864Y-110730626D01*
X165944642Y-110875357D01*
X166089373Y-110994135D01*
X166089376Y-110994137D01*
X166212415Y-111059902D01*
X166254499Y-111082396D01*
X166386562Y-111122457D01*
X166433666Y-111136746D01*
X166433668Y-111136747D01*
X166450374Y-111138392D01*
X166620000Y-111155099D01*
X166806331Y-111136747D01*
X166985501Y-111082396D01*
X167150625Y-110994136D01*
X167295357Y-110875357D01*
X167414136Y-110730625D01*
X167502396Y-110565501D01*
X167556747Y-110386331D01*
X167575099Y-110200000D01*
X167556747Y-110013669D01*
X167502396Y-109834499D01*
X167459540Y-109754322D01*
X167445299Y-109685921D01*
X167470299Y-109620677D01*
X167481218Y-109608188D01*
X167691498Y-109397910D01*
X167720500Y-109327893D01*
X167720500Y-109252108D01*
X167720500Y-102500269D01*
X167740185Y-102433230D01*
X167756819Y-102412588D01*
X168197819Y-101971588D01*
X168259142Y-101938103D01*
X168328834Y-101943087D01*
X168384767Y-101984959D01*
X168409184Y-102050423D01*
X168409500Y-102059269D01*
X168409500Y-107127894D01*
X168438502Y-107197910D01*
X168509526Y-107268934D01*
X168509532Y-107268939D01*
X168933181Y-107692588D01*
X168966666Y-107753911D01*
X168969500Y-107780269D01*
X168969500Y-109172553D01*
X168949815Y-109239592D01*
X168897011Y-109285347D01*
X168881496Y-109291213D01*
X168794497Y-109317604D01*
X168629376Y-109405862D01*
X168629373Y-109405864D01*
X168484642Y-109524642D01*
X168365864Y-109669373D01*
X168365862Y-109669376D01*
X168277604Y-109834497D01*
X168223253Y-110013666D01*
X168223252Y-110013668D01*
X168204901Y-110200000D01*
X168223252Y-110386331D01*
X168223253Y-110386333D01*
X168277604Y-110565502D01*
X168365862Y-110730623D01*
X168365864Y-110730626D01*
X168484642Y-110875357D01*
X168629373Y-110994135D01*
X168629376Y-110994137D01*
X168752415Y-111059902D01*
X168794499Y-111082396D01*
X168926562Y-111122457D01*
X168973666Y-111136746D01*
X168973668Y-111136747D01*
X168990374Y-111138392D01*
X169160000Y-111155099D01*
X169346331Y-111136747D01*
X169525501Y-111082396D01*
X169690625Y-110994136D01*
X169835357Y-110875357D01*
X169954136Y-110730625D01*
X170042396Y-110565501D01*
X170096747Y-110386331D01*
X170115099Y-110200000D01*
X170096747Y-110013669D01*
X170042396Y-109834499D01*
X169999542Y-109754324D01*
X169954137Y-109669376D01*
X169954135Y-109669373D01*
X169835357Y-109524642D01*
X169690626Y-109405864D01*
X169690623Y-109405862D01*
X169525502Y-109317604D01*
X169438504Y-109291213D01*
X169380066Y-109252916D01*
X169351609Y-109189103D01*
X169350500Y-109172553D01*
X169350500Y-107702335D01*
X169350501Y-107702326D01*
X169350501Y-107612109D01*
X169350500Y-107612107D01*
X169321499Y-107542091D01*
X168826819Y-107047411D01*
X168793334Y-106986088D01*
X168790500Y-106959730D01*
X168790500Y-102130269D01*
X168810185Y-102063230D01*
X168826819Y-102042588D01*
X169297819Y-101571588D01*
X169359142Y-101538103D01*
X169428834Y-101543087D01*
X169484767Y-101584959D01*
X169509184Y-101650423D01*
X169509500Y-101659269D01*
X169509500Y-106787894D01*
X169538502Y-106857910D01*
X169609526Y-106928934D01*
X169609532Y-106928939D01*
X171473181Y-108792588D01*
X171506666Y-108853911D01*
X171509500Y-108880269D01*
X171509500Y-109172553D01*
X171489815Y-109239592D01*
X171437011Y-109285347D01*
X171421496Y-109291213D01*
X171334497Y-109317604D01*
X171169376Y-109405862D01*
X171169373Y-109405864D01*
X171024642Y-109524642D01*
X170905864Y-109669373D01*
X170905862Y-109669376D01*
X170817604Y-109834497D01*
X170763253Y-110013666D01*
X170763252Y-110013668D01*
X170744901Y-110200000D01*
X170763252Y-110386331D01*
X170763253Y-110386333D01*
X170817604Y-110565502D01*
X170905862Y-110730623D01*
X170905864Y-110730626D01*
X171024642Y-110875357D01*
X171169373Y-110994135D01*
X171169376Y-110994137D01*
X171292415Y-111059902D01*
X171334499Y-111082396D01*
X171466562Y-111122457D01*
X171513666Y-111136746D01*
X171513668Y-111136747D01*
X171530374Y-111138392D01*
X171700000Y-111155099D01*
X171886331Y-111136747D01*
X172065501Y-111082396D01*
X172230625Y-110994136D01*
X172375357Y-110875357D01*
X172494136Y-110730625D01*
X172582396Y-110565501D01*
X172636747Y-110386331D01*
X172655099Y-110200000D01*
X172636747Y-110013669D01*
X172582396Y-109834499D01*
X172539542Y-109754324D01*
X172494137Y-109669376D01*
X172494135Y-109669373D01*
X172375357Y-109524642D01*
X172230626Y-109405864D01*
X172230623Y-109405862D01*
X172065502Y-109317604D01*
X171978504Y-109291213D01*
X171920066Y-109252916D01*
X171891609Y-109189103D01*
X171890500Y-109172553D01*
X171890500Y-108712108D01*
X171890499Y-108712105D01*
X171861498Y-108642090D01*
X171807910Y-108588502D01*
X171807909Y-108588501D01*
X169926819Y-106707411D01*
X169893334Y-106646088D01*
X169890500Y-106619730D01*
X169890500Y-101730269D01*
X169910185Y-101663230D01*
X169926819Y-101642588D01*
X172007588Y-99561819D01*
X172068911Y-99528334D01*
X172095269Y-99525500D01*
X172308978Y-99525500D01*
X172376017Y-99545185D01*
X172419461Y-99593202D01*
X172443674Y-99640723D01*
X172443676Y-99640725D01*
X172443678Y-99640728D01*
X172534271Y-99731321D01*
X172534273Y-99731322D01*
X172534277Y-99731326D01*
X172648445Y-99789498D01*
X172648446Y-99789498D01*
X172648448Y-99789499D01*
X172774997Y-99809542D01*
X172775000Y-99809542D01*
X172775003Y-99809542D01*
X172901551Y-99789499D01*
X172901552Y-99789498D01*
X172901555Y-99789498D01*
X172939528Y-99770149D01*
X173008194Y-99757253D01*
X173072935Y-99783528D01*
X173113193Y-99840634D01*
X173118560Y-99862986D01*
X173135191Y-99978656D01*
X173135192Y-99978658D01*
X173192468Y-100104077D01*
X173192470Y-100104079D01*
X173192471Y-100104081D01*
X173282765Y-100208287D01*
X173398760Y-100282832D01*
X173398762Y-100282832D01*
X173398763Y-100282833D01*
X173531057Y-100321678D01*
X173531058Y-100321678D01*
X173668942Y-100321678D01*
X173801240Y-100282832D01*
X173903462Y-100217137D01*
X173970502Y-100197454D01*
X174037541Y-100217139D01*
X174083296Y-100269943D01*
X174094501Y-100321454D01*
X174094501Y-101434730D01*
X174074816Y-101501769D01*
X174058182Y-101522411D01*
X173547412Y-102033181D01*
X173486089Y-102066666D01*
X173459731Y-102069500D01*
X171352105Y-102069500D01*
X171282089Y-102098502D01*
X170338502Y-103042089D01*
X170309500Y-103112105D01*
X170309500Y-106337894D01*
X170338502Y-106407910D01*
X170409526Y-106478934D01*
X170409532Y-106478939D01*
X173435857Y-109505264D01*
X173469342Y-109566587D01*
X173464358Y-109636279D01*
X173448515Y-109663815D01*
X173449250Y-109664307D01*
X173445862Y-109669376D01*
X173357604Y-109834497D01*
X173303253Y-110013666D01*
X173303252Y-110013668D01*
X173284901Y-110200000D01*
X173303252Y-110386331D01*
X173303253Y-110386333D01*
X173357604Y-110565502D01*
X173445862Y-110730623D01*
X173445864Y-110730626D01*
X173564642Y-110875357D01*
X173709373Y-110994135D01*
X173709376Y-110994137D01*
X173832415Y-111059902D01*
X173874499Y-111082396D01*
X174006562Y-111122457D01*
X174053666Y-111136746D01*
X174053668Y-111136747D01*
X174070374Y-111138392D01*
X174240000Y-111155099D01*
X174426331Y-111136747D01*
X174605501Y-111082396D01*
X174770625Y-110994136D01*
X174915357Y-110875357D01*
X175034136Y-110730625D01*
X175122396Y-110565501D01*
X175176747Y-110386331D01*
X175195099Y-110200000D01*
X175176747Y-110013669D01*
X175157433Y-109949999D01*
X175552891Y-109949999D01*
X175552892Y-109950000D01*
X176346988Y-109950000D01*
X176314075Y-110007007D01*
X176280000Y-110134174D01*
X176280000Y-110265826D01*
X176314075Y-110392993D01*
X176346988Y-110450000D01*
X175552892Y-110450000D01*
X175600894Y-110629150D01*
X175600898Y-110629159D01*
X175693333Y-110827387D01*
X175818787Y-111006554D01*
X175973445Y-111161212D01*
X176152612Y-111286666D01*
X176350843Y-111379103D01*
X176530000Y-111427106D01*
X176530000Y-110633012D01*
X176587007Y-110665925D01*
X176714174Y-110700000D01*
X176845826Y-110700000D01*
X176972993Y-110665925D01*
X177030000Y-110633012D01*
X177030000Y-111427105D01*
X177209156Y-111379103D01*
X177209157Y-111379103D01*
X177407387Y-111286666D01*
X177586554Y-111161212D01*
X177741212Y-111006554D01*
X177866666Y-110827387D01*
X177959101Y-110629159D01*
X177959105Y-110629150D01*
X178007108Y-110450000D01*
X177213012Y-110450000D01*
X177245925Y-110392993D01*
X177280000Y-110265826D01*
X177280000Y-110200000D01*
X178364901Y-110200000D01*
X178383252Y-110386331D01*
X178383253Y-110386333D01*
X178437604Y-110565502D01*
X178525862Y-110730623D01*
X178525864Y-110730626D01*
X178644642Y-110875357D01*
X178789373Y-110994135D01*
X178789376Y-110994137D01*
X178912415Y-111059902D01*
X178954499Y-111082396D01*
X179086562Y-111122457D01*
X179133666Y-111136746D01*
X179133668Y-111136747D01*
X179150374Y-111138392D01*
X179320000Y-111155099D01*
X179506331Y-111136747D01*
X179685501Y-111082396D01*
X179850625Y-110994136D01*
X179995357Y-110875357D01*
X180114136Y-110730625D01*
X180202396Y-110565501D01*
X180256747Y-110386331D01*
X180275099Y-110200000D01*
X180256747Y-110013669D01*
X180202396Y-109834499D01*
X180159542Y-109754324D01*
X180114137Y-109669376D01*
X180114135Y-109669373D01*
X179995357Y-109524642D01*
X179850626Y-109405864D01*
X179850623Y-109405862D01*
X179685502Y-109317604D01*
X179506333Y-109263253D01*
X179506331Y-109263252D01*
X179320000Y-109244901D01*
X179133668Y-109263252D01*
X179133666Y-109263253D01*
X178954497Y-109317604D01*
X178789376Y-109405862D01*
X178789373Y-109405864D01*
X178644642Y-109524642D01*
X178525864Y-109669373D01*
X178525862Y-109669376D01*
X178437604Y-109834497D01*
X178383253Y-110013666D01*
X178383252Y-110013668D01*
X178364901Y-110200000D01*
X177280000Y-110200000D01*
X177280000Y-110134174D01*
X177245925Y-110007007D01*
X177213012Y-109950000D01*
X178007108Y-109950000D01*
X178007108Y-109949999D01*
X177959105Y-109770849D01*
X177959101Y-109770840D01*
X177866666Y-109572612D01*
X177866664Y-109572608D01*
X177741216Y-109393450D01*
X177741211Y-109393444D01*
X177586554Y-109238787D01*
X177407387Y-109113333D01*
X177209159Y-109020898D01*
X177209150Y-109020894D01*
X177030000Y-108972891D01*
X177030000Y-109766988D01*
X176972993Y-109734075D01*
X176845826Y-109700000D01*
X176714174Y-109700000D01*
X176587007Y-109734075D01*
X176530000Y-109766988D01*
X176530000Y-108972892D01*
X176529999Y-108972891D01*
X176350849Y-109020894D01*
X176350840Y-109020898D01*
X176152612Y-109113333D01*
X176152608Y-109113335D01*
X175973450Y-109238783D01*
X175973444Y-109238788D01*
X175818788Y-109393444D01*
X175818783Y-109393450D01*
X175693335Y-109572608D01*
X175693333Y-109572612D01*
X175600898Y-109770840D01*
X175600894Y-109770849D01*
X175552891Y-109949999D01*
X175157433Y-109949999D01*
X175122396Y-109834499D01*
X175079542Y-109754324D01*
X175034137Y-109669376D01*
X175034135Y-109669373D01*
X174915357Y-109524642D01*
X174770626Y-109405864D01*
X174770623Y-109405862D01*
X174605502Y-109317604D01*
X174426333Y-109263253D01*
X174426331Y-109263252D01*
X174240000Y-109244901D01*
X174053672Y-109263252D01*
X174053669Y-109263253D01*
X173878494Y-109316392D01*
X173808629Y-109317015D01*
X173754819Y-109285412D01*
X170726819Y-106257412D01*
X170693334Y-106196089D01*
X170690500Y-106169731D01*
X170690500Y-103280269D01*
X170710185Y-103213230D01*
X170726819Y-103192588D01*
X171432588Y-102486819D01*
X171493911Y-102453334D01*
X171520269Y-102450500D01*
X173627891Y-102450500D01*
X173627892Y-102450500D01*
X173627893Y-102450500D01*
X173697910Y-102421498D01*
X173751498Y-102367910D01*
X173751498Y-102367909D01*
X173768936Y-102350471D01*
X173768938Y-102350468D01*
X174375469Y-101743937D01*
X174375472Y-101743935D01*
X174392910Y-101726497D01*
X174392911Y-101726497D01*
X174446499Y-101672909D01*
X174475501Y-101602892D01*
X174475501Y-100080996D01*
X174495186Y-100013957D01*
X174519165Y-99988568D01*
X174518824Y-99988227D01*
X174616322Y-99890728D01*
X174616327Y-99890723D01*
X174674499Y-99776555D01*
X174674992Y-99773445D01*
X174694543Y-99650003D01*
X174694543Y-99649996D01*
X174674500Y-99523448D01*
X174674499Y-99523446D01*
X174674499Y-99523445D01*
X174616327Y-99409277D01*
X174616323Y-99409273D01*
X174616322Y-99409271D01*
X174525729Y-99318678D01*
X174525725Y-99318675D01*
X174525724Y-99318674D01*
X174522285Y-99316921D01*
X174433801Y-99271836D01*
X174383006Y-99223862D01*
X174366211Y-99156040D01*
X174388749Y-99089906D01*
X174402413Y-99073674D01*
X174439270Y-99036818D01*
X174500594Y-99003333D01*
X174526950Y-99000500D01*
X176746141Y-99000500D01*
X176746144Y-99000500D01*
X176823624Y-98979739D01*
X176893471Y-98981402D01*
X176951333Y-99020564D01*
X176978838Y-99084792D01*
X176967252Y-99153695D01*
X176943396Y-99187195D01*
X176192091Y-99938501D01*
X176138503Y-99992088D01*
X176138502Y-99992089D01*
X176109500Y-100062105D01*
X176109500Y-104469730D01*
X176089815Y-104536769D01*
X176073181Y-104557411D01*
X175357412Y-105273181D01*
X175296089Y-105306666D01*
X175269731Y-105309500D01*
X173774499Y-105309500D01*
X173707460Y-105289815D01*
X173661705Y-105237011D01*
X173650499Y-105185500D01*
X173650499Y-104770105D01*
X173650498Y-104770097D01*
X173644669Y-104740787D01*
X173622457Y-104707542D01*
X173589214Y-104685332D01*
X173589215Y-104685332D01*
X173589213Y-104685331D01*
X173589211Y-104685330D01*
X173589208Y-104685329D01*
X173559901Y-104679500D01*
X171440105Y-104679500D01*
X171440097Y-104679501D01*
X171410787Y-104685330D01*
X171377542Y-104707542D01*
X171355332Y-104740785D01*
X171355329Y-104740791D01*
X171349500Y-104770098D01*
X171349500Y-106189894D01*
X171349501Y-106189902D01*
X171355330Y-106219212D01*
X171377542Y-106252457D01*
X171394219Y-106263599D01*
X171410787Y-106274669D01*
X171410790Y-106274669D01*
X171410791Y-106274670D01*
X171420647Y-106276630D01*
X171440101Y-106280500D01*
X173559898Y-106280499D01*
X173589213Y-106274669D01*
X173622457Y-106252457D01*
X173644669Y-106219213D01*
X173644670Y-106219208D01*
X173650500Y-106189901D01*
X173650500Y-105814500D01*
X173670185Y-105747461D01*
X173722989Y-105701706D01*
X173774500Y-105690500D01*
X175437891Y-105690500D01*
X175437892Y-105690500D01*
X175437893Y-105690500D01*
X175507910Y-105661498D01*
X175561498Y-105607910D01*
X175561498Y-105607909D01*
X175578936Y-105590471D01*
X175578937Y-105590468D01*
X176461498Y-104707910D01*
X176490500Y-104637893D01*
X176490500Y-104562108D01*
X176490500Y-100230269D01*
X176510185Y-100163230D01*
X176526819Y-100142588D01*
X177738937Y-98930470D01*
X179001498Y-97667910D01*
X179030500Y-97597893D01*
X179030500Y-97522108D01*
X179030500Y-96527157D01*
X179050185Y-96460118D01*
X179102989Y-96414363D01*
X179172147Y-96404419D01*
X179198116Y-96412653D01*
X179198319Y-96412029D01*
X179207601Y-96415045D01*
X179334150Y-96435088D01*
X179334153Y-96435088D01*
X179334154Y-96435088D01*
X179380514Y-96427745D01*
X179449808Y-96436699D01*
X179487594Y-96462537D01*
X179863181Y-96838124D01*
X179896666Y-96899447D01*
X179899500Y-96925805D01*
X179899500Y-102597420D01*
X179930024Y-102671111D01*
X180363184Y-103104271D01*
X180396669Y-103165594D01*
X180399503Y-103191952D01*
X180399503Y-103777088D01*
X180379818Y-103844127D01*
X180363184Y-103864769D01*
X180268681Y-103959271D01*
X180268678Y-103959276D01*
X180210503Y-104073448D01*
X180190461Y-104199996D01*
X180190461Y-104200003D01*
X180210503Y-104326551D01*
X180210504Y-104326554D01*
X180210505Y-104326555D01*
X180268677Y-104440723D01*
X180268679Y-104440725D01*
X180268681Y-104440728D01*
X180359274Y-104531321D01*
X180359279Y-104531325D01*
X180359280Y-104531326D01*
X180411014Y-104557686D01*
X180461809Y-104605660D01*
X180478604Y-104673481D01*
X180457825Y-104737054D01*
X180455332Y-104740785D01*
X180455329Y-104740791D01*
X180449500Y-104770098D01*
X180449500Y-106189894D01*
X180449501Y-106189902D01*
X180455330Y-106219212D01*
X180477542Y-106252457D01*
X180494219Y-106263599D01*
X180510787Y-106274669D01*
X180510790Y-106274669D01*
X180510791Y-106274670D01*
X180520647Y-106276630D01*
X180540101Y-106280500D01*
X182659898Y-106280499D01*
X182689213Y-106274669D01*
X182722457Y-106252457D01*
X182744669Y-106219213D01*
X182750500Y-106189899D01*
X182750499Y-104770102D01*
X182744669Y-104740787D01*
X182742175Y-104737054D01*
X182722457Y-104707542D01*
X182689214Y-104685332D01*
X182689215Y-104685332D01*
X182689213Y-104685331D01*
X182689211Y-104685330D01*
X182689208Y-104685329D01*
X182659901Y-104679500D01*
X180991914Y-104679500D01*
X180924875Y-104659815D01*
X180879120Y-104607011D01*
X180869176Y-104537853D01*
X180898201Y-104474297D01*
X180904220Y-104467831D01*
X180931329Y-104440723D01*
X180989501Y-104326555D01*
X180989502Y-104326551D01*
X181009545Y-104200003D01*
X181009545Y-104199996D01*
X180989502Y-104073448D01*
X180989501Y-104073446D01*
X180989501Y-104073445D01*
X180931329Y-103959277D01*
X180931325Y-103959273D01*
X180931324Y-103959271D01*
X180836822Y-103864769D01*
X180803337Y-103803446D01*
X180800503Y-103777088D01*
X180800503Y-103017659D01*
X180800502Y-103017656D01*
X180769979Y-102943966D01*
X180713577Y-102887564D01*
X180336819Y-102510806D01*
X180303334Y-102449483D01*
X180300500Y-102423125D01*
X180300500Y-100169097D01*
X180320185Y-100102058D01*
X180372989Y-100056303D01*
X180442147Y-100046359D01*
X180505703Y-100075384D01*
X180512181Y-100081416D01*
X180531284Y-100100519D01*
X180608600Y-100145158D01*
X180622076Y-100154162D01*
X180632965Y-100162517D01*
X180645638Y-100167766D01*
X180660178Y-100174936D01*
X180668215Y-100179577D01*
X180677170Y-100181976D01*
X180692532Y-100187190D01*
X180733747Y-100204262D01*
X180761773Y-100215871D01*
X180900000Y-100234069D01*
X180900001Y-100234069D01*
X180955069Y-100226819D01*
X181038227Y-100215871D01*
X181107469Y-100187188D01*
X181122816Y-100181979D01*
X181131785Y-100179577D01*
X181139817Y-100174938D01*
X181154364Y-100167764D01*
X181167035Y-100162517D01*
X181177918Y-100154165D01*
X181191390Y-100145162D01*
X181268716Y-100100519D01*
X182064713Y-99304521D01*
X182064716Y-99304520D01*
X182176520Y-99192716D01*
X182226639Y-99105904D01*
X182255577Y-99055785D01*
X182296501Y-98903057D01*
X182296501Y-98744943D01*
X182296501Y-98737348D01*
X182296500Y-98737330D01*
X182296500Y-96113509D01*
X182296501Y-96113496D01*
X182296501Y-95945395D01*
X182296501Y-95945393D01*
X182255577Y-95792665D01*
X182216799Y-95725500D01*
X182176520Y-95655734D01*
X182064716Y-95543930D01*
X182064715Y-95543929D01*
X182060385Y-95539599D01*
X182060374Y-95539589D01*
X181536819Y-95016034D01*
X181503334Y-94954711D01*
X181500500Y-94928353D01*
X181500500Y-90070946D01*
X181500500Y-90070943D01*
X181482499Y-90003760D01*
X181459577Y-89918215D01*
X181430639Y-89868095D01*
X181380520Y-89781284D01*
X181268716Y-89669480D01*
X181268715Y-89669479D01*
X181264385Y-89665149D01*
X181264374Y-89665139D01*
X180644028Y-89044793D01*
X180624322Y-89019113D01*
X180586692Y-88953937D01*
X180586692Y-88953936D01*
X180579513Y-88941502D01*
X180563038Y-88873603D01*
X180585888Y-88807575D01*
X180640808Y-88764383D01*
X180686893Y-88755499D01*
X182659898Y-88755499D01*
X182689213Y-88749669D01*
X182722457Y-88727457D01*
X182744669Y-88694213D01*
X182750500Y-88664899D01*
X182750499Y-87245102D01*
X182744669Y-87215787D01*
X182737093Y-87204448D01*
X182722457Y-87182542D01*
X182689214Y-87160332D01*
X182689215Y-87160332D01*
X182689213Y-87160331D01*
X182689211Y-87160330D01*
X182689208Y-87160329D01*
X182659901Y-87154500D01*
X180540105Y-87154500D01*
X180540097Y-87154501D01*
X180510787Y-87160330D01*
X180477542Y-87182542D01*
X180455332Y-87215785D01*
X180455329Y-87215791D01*
X180449500Y-87245098D01*
X180449500Y-87640500D01*
X180429815Y-87707539D01*
X180377011Y-87753294D01*
X180325500Y-87764500D01*
X180010981Y-87764500D01*
X179943942Y-87744815D01*
X179923300Y-87728181D01*
X179691772Y-87496653D01*
X179658287Y-87435330D01*
X179656980Y-87389573D01*
X179666257Y-87331004D01*
X179666257Y-87330999D01*
X179646214Y-87204451D01*
X179646213Y-87204449D01*
X179646213Y-87204448D01*
X179588041Y-87090280D01*
X179588037Y-87090276D01*
X179588036Y-87090274D01*
X179497443Y-86999681D01*
X179497440Y-86999679D01*
X179497438Y-86999677D01*
X179383270Y-86941505D01*
X179383269Y-86941504D01*
X179383266Y-86941503D01*
X179256718Y-86921461D01*
X179256712Y-86921461D01*
X179130163Y-86941503D01*
X179074208Y-86970014D01*
X179015992Y-86999677D01*
X179015991Y-86999678D01*
X179015986Y-86999681D01*
X178925393Y-87090274D01*
X178925390Y-87090279D01*
X178867215Y-87204451D01*
X178847173Y-87330999D01*
X178847173Y-87331006D01*
X178867215Y-87457554D01*
X178867216Y-87457557D01*
X178867217Y-87457558D01*
X178925389Y-87571726D01*
X178925391Y-87571728D01*
X178925393Y-87571731D01*
X179015986Y-87662324D01*
X179015988Y-87662325D01*
X179015992Y-87662329D01*
X179130160Y-87720501D01*
X179130161Y-87720501D01*
X179130163Y-87720502D01*
X179256712Y-87740545D01*
X179256715Y-87740545D01*
X179256716Y-87740545D01*
X179295834Y-87734349D01*
X179315285Y-87731268D01*
X179384578Y-87740222D01*
X179422365Y-87766060D01*
X179712143Y-88055838D01*
X179712146Y-88055842D01*
X179719214Y-88062910D01*
X179772802Y-88116498D01*
X179842819Y-88145500D01*
X179842820Y-88145500D01*
X179918604Y-88145500D01*
X180325501Y-88145500D01*
X180392540Y-88165185D01*
X180438295Y-88217989D01*
X180449501Y-88269500D01*
X180449501Y-88545573D01*
X180429816Y-88612612D01*
X180377012Y-88658367D01*
X180307854Y-88668311D01*
X180263501Y-88652960D01*
X180241788Y-88640424D01*
X180241789Y-88640424D01*
X180223739Y-88635587D01*
X180089058Y-88599499D01*
X180089057Y-88599499D01*
X179930943Y-88599499D01*
X179816397Y-88630192D01*
X179778214Y-88640423D01*
X179766122Y-88647404D01*
X179762891Y-88649271D01*
X179762882Y-88649276D01*
X179762880Y-88649277D01*
X179670024Y-88702887D01*
X179608024Y-88719500D01*
X177470941Y-88719500D01*
X177441246Y-88727456D01*
X177441247Y-88727457D01*
X177356089Y-88750275D01*
X177323995Y-88754500D01*
X173774500Y-88754500D01*
X173707461Y-88734815D01*
X173661706Y-88682011D01*
X173650500Y-88630500D01*
X173650499Y-87245105D01*
X173650498Y-87245097D01*
X173644669Y-87215787D01*
X173622457Y-87182542D01*
X173589214Y-87160332D01*
X173589215Y-87160332D01*
X173589213Y-87160331D01*
X173589211Y-87160330D01*
X173589208Y-87160329D01*
X173559901Y-87154500D01*
X171440105Y-87154500D01*
X171440097Y-87154501D01*
X171410787Y-87160330D01*
X171377542Y-87182542D01*
X171355332Y-87215785D01*
X171355329Y-87215791D01*
X171349500Y-87245098D01*
X171349500Y-87245100D01*
X171349500Y-87245101D01*
X171349500Y-87950003D01*
X171349501Y-88630500D01*
X171329816Y-88697539D01*
X171277013Y-88743294D01*
X171225501Y-88754500D01*
X171050098Y-88754500D01*
X170983059Y-88734815D01*
X170962417Y-88718181D01*
X169336819Y-87092583D01*
X169303334Y-87031260D01*
X169300500Y-87004902D01*
X169300500Y-85389059D01*
X169300501Y-85389046D01*
X169300501Y-85220945D01*
X169300501Y-85220943D01*
X169259577Y-85068215D01*
X169200108Y-84965212D01*
X169180520Y-84931284D01*
X169175574Y-84924839D01*
X169178057Y-84922933D01*
X169151655Y-84874581D01*
X169156639Y-84804889D01*
X169185140Y-84760542D01*
X169955217Y-83990465D01*
X170755470Y-83190212D01*
X170801614Y-83110288D01*
X170825500Y-83021144D01*
X170825500Y-81971544D01*
X170845185Y-81904505D01*
X170861819Y-81883863D01*
X171034687Y-81710995D01*
X171258759Y-81486922D01*
X171311504Y-81455628D01*
X171315346Y-81454500D01*
X171315347Y-81454500D01*
X171440745Y-81417680D01*
X171440746Y-81417680D01*
X171514653Y-81370184D01*
X171581691Y-81350500D01*
X171818309Y-81350500D01*
X171885347Y-81370184D01*
X171959252Y-81417679D01*
X172021952Y-81436089D01*
X172084652Y-81454500D01*
X172084653Y-81454500D01*
X172215347Y-81454500D01*
X172340748Y-81417679D01*
X172450695Y-81347021D01*
X172536282Y-81248248D01*
X172584859Y-81141877D01*
X172630612Y-81089076D01*
X172697651Y-81069391D01*
X172764691Y-81089075D01*
X172785333Y-81105710D01*
X172791121Y-81111498D01*
X172861138Y-81140500D01*
X172861139Y-81140500D01*
X172861140Y-81140500D01*
X177207891Y-81140500D01*
X177207892Y-81140500D01*
X177207893Y-81140500D01*
X177277910Y-81111498D01*
X177331498Y-81057910D01*
X177331498Y-81057909D01*
X177348936Y-81040471D01*
X177348938Y-81040468D01*
X178728190Y-79661215D01*
X178789511Y-79627732D01*
X178859203Y-79632716D01*
X178874310Y-79639534D01*
X178954499Y-79682396D01*
X179048496Y-79710910D01*
X179133666Y-79736746D01*
X179133668Y-79736747D01*
X179150374Y-79738392D01*
X179320000Y-79755099D01*
X179506331Y-79736747D01*
X179685501Y-79682396D01*
X179850625Y-79594136D01*
X179995357Y-79475357D01*
X180114136Y-79330625D01*
X180202396Y-79165501D01*
X180256747Y-78986331D01*
X180275099Y-78800000D01*
X180256747Y-78613669D01*
X180202396Y-78434499D01*
X180135421Y-78309196D01*
X180114137Y-78269376D01*
X180114135Y-78269373D01*
X179995357Y-78124642D01*
X179850626Y-78005864D01*
X179850623Y-78005862D01*
X179685502Y-77917604D01*
X179506333Y-77863253D01*
X179506331Y-77863252D01*
X179320000Y-77844901D01*
X179133668Y-77863252D01*
X179133666Y-77863253D01*
X178954497Y-77917604D01*
X178789376Y-78005862D01*
X178789373Y-78005864D01*
X178644642Y-78124642D01*
X178525864Y-78269373D01*
X178525862Y-78269376D01*
X178437604Y-78434497D01*
X178383253Y-78613666D01*
X178383252Y-78613668D01*
X178364901Y-78800000D01*
X178383252Y-78986331D01*
X178383253Y-78986333D01*
X178437604Y-79165502D01*
X178480458Y-79245676D01*
X178494700Y-79314078D01*
X178469700Y-79379322D01*
X178458781Y-79391810D01*
X177127412Y-80723181D01*
X177066089Y-80756666D01*
X177039731Y-80759500D01*
X173029300Y-80759500D01*
X172962261Y-80739815D01*
X172941619Y-80723181D01*
X172635619Y-80417181D01*
X172602134Y-80355858D01*
X172607118Y-80286166D01*
X172648990Y-80230233D01*
X172714454Y-80205816D01*
X172723300Y-80205500D01*
X175972891Y-80205500D01*
X175972892Y-80205500D01*
X175972893Y-80205500D01*
X176042910Y-80176498D01*
X176096498Y-80122910D01*
X176096498Y-80122909D01*
X176113936Y-80105471D01*
X176113937Y-80105468D01*
X176455943Y-79763462D01*
X176517265Y-79729979D01*
X176579618Y-79732484D01*
X176593669Y-79736747D01*
X176780000Y-79755099D01*
X176966331Y-79736747D01*
X177145501Y-79682396D01*
X177310625Y-79594136D01*
X177455357Y-79475357D01*
X177574136Y-79330625D01*
X177662396Y-79165501D01*
X177716747Y-78986331D01*
X177735099Y-78800000D01*
X177716747Y-78613669D01*
X177662396Y-78434499D01*
X177595421Y-78309196D01*
X177574137Y-78269376D01*
X177574135Y-78269373D01*
X177455357Y-78124642D01*
X177310626Y-78005864D01*
X177310623Y-78005862D01*
X177145502Y-77917604D01*
X176966333Y-77863253D01*
X176966331Y-77863252D01*
X176780000Y-77844901D01*
X176593668Y-77863252D01*
X176593666Y-77863253D01*
X176414497Y-77917604D01*
X176249376Y-78005862D01*
X176249373Y-78005864D01*
X176104642Y-78124642D01*
X175985864Y-78269373D01*
X175985862Y-78269376D01*
X175897604Y-78434497D01*
X175843253Y-78613666D01*
X175843252Y-78613668D01*
X175824901Y-78800000D01*
X175843252Y-78986331D01*
X175843253Y-78986333D01*
X175897604Y-79165502D01*
X175985862Y-79330623D01*
X175985864Y-79330626D01*
X176078686Y-79443729D01*
X176105999Y-79508039D01*
X176094208Y-79576906D01*
X176070515Y-79610075D01*
X175892412Y-79788181D01*
X175831089Y-79821666D01*
X175804730Y-79824500D01*
X175282629Y-79824500D01*
X175215590Y-79804815D01*
X175169835Y-79752011D01*
X175159891Y-79682853D01*
X175188916Y-79619297D01*
X175194948Y-79612819D01*
X175201209Y-79606557D01*
X175201212Y-79606554D01*
X175326666Y-79427387D01*
X175419101Y-79229159D01*
X175419105Y-79229150D01*
X175467108Y-79050000D01*
X174673012Y-79050000D01*
X174705925Y-78992993D01*
X174740000Y-78865826D01*
X174740000Y-78734174D01*
X174705925Y-78607007D01*
X174673012Y-78550000D01*
X175467108Y-78550000D01*
X175467108Y-78549999D01*
X175419105Y-78370849D01*
X175419101Y-78370840D01*
X175326666Y-78172612D01*
X175326664Y-78172608D01*
X175201216Y-77993450D01*
X175201211Y-77993444D01*
X175046554Y-77838787D01*
X174867387Y-77713333D01*
X174669159Y-77620898D01*
X174669150Y-77620894D01*
X174490000Y-77572891D01*
X174490000Y-78366988D01*
X174432993Y-78334075D01*
X174305826Y-78300000D01*
X174174174Y-78300000D01*
X174047007Y-78334075D01*
X173990000Y-78366988D01*
X173990000Y-77572892D01*
X173989999Y-77572891D01*
X173810849Y-77620894D01*
X173810840Y-77620898D01*
X173612612Y-77713333D01*
X173612608Y-77713335D01*
X173433450Y-77838783D01*
X173433444Y-77838788D01*
X173278788Y-77993444D01*
X173278783Y-77993450D01*
X173153335Y-78172608D01*
X173153333Y-78172612D01*
X173060898Y-78370840D01*
X173060894Y-78370849D01*
X173012891Y-78549999D01*
X173012892Y-78550000D01*
X173806988Y-78550000D01*
X173774075Y-78607007D01*
X173740000Y-78734174D01*
X173740000Y-78865826D01*
X173774075Y-78992993D01*
X173806988Y-79050000D01*
X173012892Y-79050000D01*
X173060894Y-79229150D01*
X173060898Y-79229159D01*
X173153333Y-79427387D01*
X173278787Y-79606554D01*
X173285052Y-79612819D01*
X173318537Y-79674142D01*
X173313553Y-79743834D01*
X173271681Y-79799767D01*
X173206217Y-79824184D01*
X173197371Y-79824500D01*
X172768853Y-79824500D01*
X172701814Y-79804815D01*
X172656059Y-79752011D01*
X172646115Y-79682853D01*
X172647236Y-79676306D01*
X172650500Y-79659899D01*
X172650499Y-77940102D01*
X172644669Y-77910787D01*
X172632708Y-77892885D01*
X172622457Y-77877542D01*
X172589214Y-77855332D01*
X172589215Y-77855332D01*
X172589213Y-77855331D01*
X172589211Y-77855330D01*
X172589208Y-77855329D01*
X172559901Y-77849500D01*
X170840105Y-77849500D01*
X170840097Y-77849501D01*
X170810787Y-77855330D01*
X170777542Y-77877542D01*
X170755332Y-77910785D01*
X170755329Y-77910791D01*
X170749500Y-77940098D01*
X170749500Y-79659894D01*
X170749501Y-79659897D01*
X170752766Y-79676316D01*
X170746534Y-79745908D01*
X170703668Y-79801082D01*
X170637776Y-79824323D01*
X170631147Y-79824500D01*
X162347105Y-79824500D01*
X162277089Y-79853502D01*
X159892180Y-82238411D01*
X159830857Y-82271896D01*
X159761165Y-82266912D01*
X159705232Y-82225040D01*
X159680815Y-82159576D01*
X159680499Y-82150756D01*
X159680499Y-80115102D01*
X159674669Y-80085787D01*
X159657366Y-80059890D01*
X159652457Y-80052542D01*
X159619214Y-80030332D01*
X159619215Y-80030332D01*
X159619213Y-80030331D01*
X159619211Y-80030330D01*
X159619208Y-80030329D01*
X159589901Y-80024500D01*
X158170105Y-80024500D01*
X158170097Y-80024501D01*
X158140787Y-80030330D01*
X158107542Y-80052542D01*
X158085332Y-80085785D01*
X158085329Y-80085791D01*
X158079500Y-80115098D01*
X158079500Y-82234894D01*
X158079501Y-82234902D01*
X158085330Y-82264212D01*
X158107542Y-82297457D01*
X158124219Y-82308599D01*
X158140787Y-82319669D01*
X158140790Y-82319669D01*
X158140791Y-82319670D01*
X158150647Y-82321630D01*
X158170101Y-82325500D01*
X159505731Y-82325499D01*
X159572770Y-82345184D01*
X159618525Y-82397987D01*
X159628469Y-82467146D01*
X159599444Y-82530702D01*
X159593413Y-82537179D01*
X159507410Y-82623182D01*
X159446090Y-82656666D01*
X159419731Y-82659500D01*
X153862105Y-82659500D01*
X153792089Y-82688502D01*
X152528502Y-83952089D01*
X152499500Y-84022105D01*
X152499500Y-86667894D01*
X152528502Y-86737910D01*
X152599526Y-86808934D01*
X152599531Y-86808938D01*
X153798501Y-88007909D01*
X153798502Y-88007910D01*
X153852090Y-88061498D01*
X153922107Y-88090500D01*
X154744004Y-88090500D01*
X154811043Y-88110185D01*
X154836431Y-88134164D01*
X154836773Y-88133823D01*
X154934271Y-88231321D01*
X154934273Y-88231322D01*
X154934277Y-88231326D01*
X155048445Y-88289498D01*
X155048446Y-88289498D01*
X155048448Y-88289499D01*
X155174997Y-88309542D01*
X155175000Y-88309542D01*
X155175003Y-88309542D01*
X155301551Y-88289499D01*
X155301552Y-88289498D01*
X155301555Y-88289498D01*
X155415723Y-88231326D01*
X155506326Y-88140723D01*
X155564498Y-88026555D01*
X155567451Y-88007910D01*
X155584542Y-87900003D01*
X155584542Y-87899999D01*
X155575265Y-87841430D01*
X155584219Y-87772136D01*
X155610058Y-87734349D01*
X155667590Y-87676818D01*
X155728913Y-87643334D01*
X155755270Y-87640500D01*
X160972430Y-87640500D01*
X161039469Y-87660185D01*
X161085224Y-87712989D01*
X161095168Y-87782147D01*
X161066143Y-87845703D01*
X161019883Y-87879061D01*
X160997089Y-87888502D01*
X160997088Y-87888503D01*
X159772725Y-89112865D01*
X159711402Y-89146350D01*
X159641710Y-89141366D01*
X159624117Y-89132362D01*
X159619208Y-89130329D01*
X159589901Y-89124500D01*
X158170105Y-89124500D01*
X158170097Y-89124501D01*
X158140787Y-89130330D01*
X158107542Y-89152542D01*
X158085332Y-89185785D01*
X158085329Y-89185791D01*
X158079500Y-89215098D01*
X158079500Y-90692281D01*
X158059815Y-90759320D01*
X158007011Y-90805075D01*
X157937853Y-90815019D01*
X157874297Y-90785994D01*
X157861792Y-90773489D01*
X157800695Y-90702979D01*
X157690748Y-90632321D01*
X157690746Y-90632320D01*
X157690744Y-90632319D01*
X157565348Y-90595500D01*
X157565347Y-90595500D01*
X157434653Y-90595500D01*
X157434652Y-90595500D01*
X157309255Y-90632319D01*
X157199306Y-90702978D01*
X157199305Y-90702978D01*
X157199305Y-90702979D01*
X157186120Y-90718195D01*
X157113719Y-90801750D01*
X157113717Y-90801753D01*
X157059426Y-90920632D01*
X157059425Y-90920637D01*
X157040826Y-91050000D01*
X157040826Y-91050002D01*
X157045180Y-91080288D01*
X157035236Y-91149446D01*
X157010123Y-91185614D01*
X156807556Y-91388182D01*
X156746236Y-91421666D01*
X156719877Y-91424500D01*
X153712588Y-91424500D01*
X153645549Y-91404815D01*
X153599794Y-91352011D01*
X153590114Y-91319896D01*
X153590058Y-91319542D01*
X153589628Y-91316826D01*
X153531456Y-91202658D01*
X153531452Y-91202654D01*
X153531451Y-91202652D01*
X153440858Y-91112059D01*
X153440855Y-91112057D01*
X153440853Y-91112055D01*
X153326685Y-91053883D01*
X153326684Y-91053882D01*
X153326681Y-91053881D01*
X153200133Y-91033839D01*
X153200127Y-91033839D01*
X153073578Y-91053881D01*
X153056288Y-91062691D01*
X152959407Y-91112055D01*
X152959406Y-91112056D01*
X152959401Y-91112059D01*
X152868808Y-91202652D01*
X152868805Y-91202657D01*
X152868804Y-91202658D01*
X152840849Y-91257523D01*
X152810630Y-91316829D01*
X152790588Y-91443377D01*
X152790588Y-91447299D01*
X152789239Y-91451890D01*
X152789061Y-91453019D01*
X152788915Y-91452995D01*
X152770903Y-91514338D01*
X152754269Y-91534980D01*
X150508103Y-93781147D01*
X150437637Y-93851612D01*
X150437636Y-93851613D01*
X150399500Y-93943681D01*
X150399500Y-94493929D01*
X150379815Y-94560968D01*
X150363181Y-94581610D01*
X150031611Y-94913180D01*
X149970288Y-94946665D01*
X149943930Y-94949499D01*
X149475121Y-94949499D01*
X149408082Y-94929814D01*
X149387440Y-94913180D01*
X149165861Y-94691600D01*
X149132376Y-94630277D01*
X149129542Y-94603919D01*
X149129542Y-94599997D01*
X149109499Y-94473448D01*
X149109498Y-94473446D01*
X149109498Y-94473445D01*
X149051326Y-94359277D01*
X149051322Y-94359273D01*
X149051321Y-94359271D01*
X148960728Y-94268678D01*
X148960725Y-94268676D01*
X148960723Y-94268674D01*
X148846555Y-94210502D01*
X148846554Y-94210501D01*
X148846551Y-94210500D01*
X148720003Y-94190458D01*
X148719997Y-94190458D01*
X148593448Y-94210500D01*
X148571556Y-94221655D01*
X148479277Y-94268674D01*
X148479276Y-94268675D01*
X148479268Y-94268680D01*
X148477006Y-94270943D01*
X148473578Y-94272814D01*
X148471378Y-94274413D01*
X148471171Y-94274128D01*
X148415681Y-94304425D01*
X148391630Y-94302703D01*
X148389799Y-94354002D01*
X148382629Y-94371140D01*
X148330500Y-94473447D01*
X148330500Y-94473448D01*
X148310458Y-94599996D01*
X148310458Y-94600003D01*
X148330500Y-94726551D01*
X148330501Y-94726554D01*
X148330502Y-94726555D01*
X148388674Y-94840723D01*
X148388676Y-94840725D01*
X148388678Y-94840728D01*
X148479271Y-94931321D01*
X148479273Y-94931322D01*
X148479277Y-94931326D01*
X148593445Y-94989498D01*
X148593446Y-94989498D01*
X148593448Y-94989499D01*
X148719998Y-95009542D01*
X148723919Y-95009542D01*
X148728510Y-95010890D01*
X148729639Y-95011069D01*
X148729615Y-95011214D01*
X148790958Y-95029227D01*
X148811600Y-95045861D01*
X149100564Y-95334824D01*
X149100567Y-95334828D01*
X149100568Y-95334828D01*
X149107634Y-95341894D01*
X149107635Y-95341896D01*
X149178102Y-95412363D01*
X149183254Y-95414497D01*
X149183263Y-95414504D01*
X149183264Y-95414501D01*
X149270172Y-95450500D01*
X149270173Y-95450500D01*
X149384261Y-95450500D01*
X149384269Y-95450499D01*
X150148879Y-95450499D01*
X150148881Y-95450499D01*
X150228048Y-95417706D01*
X150297516Y-95410238D01*
X150359995Y-95441513D01*
X150395648Y-95501602D01*
X150399500Y-95532268D01*
X150399500Y-96527088D01*
X150379815Y-96594127D01*
X150363181Y-96614769D01*
X150318678Y-96659271D01*
X150318675Y-96659276D01*
X150318674Y-96659277D01*
X150302765Y-96690500D01*
X150260500Y-96773448D01*
X150240458Y-96899996D01*
X150240458Y-96900003D01*
X150260500Y-97026551D01*
X150260500Y-97026552D01*
X150293366Y-97091053D01*
X150306262Y-97159722D01*
X150279986Y-97224462D01*
X150270562Y-97235029D01*
X148232412Y-99273181D01*
X148171089Y-99306666D01*
X148144731Y-99309500D01*
X139380270Y-99309500D01*
X139313231Y-99289815D01*
X139292589Y-99273181D01*
X138728939Y-98709532D01*
X138728937Y-98709529D01*
X138657910Y-98638502D01*
X138587894Y-98609500D01*
X138587893Y-98609500D01*
X136679137Y-98609500D01*
X136612098Y-98589815D01*
X136566343Y-98537011D01*
X136556135Y-98480429D01*
X136555500Y-98480429D01*
X136555500Y-98476906D01*
X136555453Y-98476646D01*
X136555498Y-98476010D01*
X136555500Y-98476000D01*
X136555500Y-93324996D01*
X137690458Y-93324996D01*
X137690458Y-93325003D01*
X137710500Y-93451551D01*
X137710501Y-93451554D01*
X137710502Y-93451555D01*
X137768674Y-93565723D01*
X137768676Y-93565725D01*
X137768678Y-93565728D01*
X137859271Y-93656321D01*
X137859273Y-93656322D01*
X137859277Y-93656326D01*
X137973445Y-93714498D01*
X137973446Y-93714498D01*
X137973448Y-93714499D01*
X138099997Y-93734542D01*
X138100000Y-93734542D01*
X138100003Y-93734542D01*
X138226551Y-93714499D01*
X138226552Y-93714498D01*
X138226555Y-93714498D01*
X138340723Y-93656326D01*
X138372306Y-93624743D01*
X138438227Y-93558823D01*
X138439340Y-93559936D01*
X138486000Y-93523952D01*
X138530996Y-93515500D01*
X138550515Y-93515500D01*
X138617554Y-93535185D01*
X138663309Y-93587989D01*
X138674515Y-93639500D01*
X138674515Y-94119852D01*
X138680344Y-94149162D01*
X138702556Y-94182407D01*
X138717058Y-94192096D01*
X138735801Y-94204619D01*
X138735804Y-94204619D01*
X138735805Y-94204620D01*
X138745661Y-94206580D01*
X138765115Y-94210450D01*
X139534912Y-94210449D01*
X139564227Y-94204619D01*
X139564228Y-94204617D01*
X139575510Y-94199946D01*
X139576983Y-94203503D01*
X139622777Y-94189155D01*
X139673258Y-94202993D01*
X139674521Y-94199946D01*
X139685798Y-94204617D01*
X139685801Y-94204619D01*
X139685804Y-94204619D01*
X139685805Y-94204620D01*
X139715110Y-94210449D01*
X139715115Y-94210450D01*
X139725509Y-94210449D01*
X139792547Y-94230129D01*
X139838305Y-94282931D01*
X139849514Y-94334449D01*
X139849514Y-96379843D01*
X139881644Y-96457411D01*
X139887650Y-96471911D01*
X142178103Y-98762364D01*
X142270172Y-98800500D01*
X142369827Y-98800500D01*
X142863435Y-98800500D01*
X142887749Y-98805339D01*
X142888192Y-98803117D01*
X142900171Y-98805499D01*
X142900172Y-98805500D01*
X142900173Y-98805500D01*
X143694826Y-98805500D01*
X143694828Y-98805500D01*
X143786897Y-98767364D01*
X144112364Y-98441897D01*
X144139146Y-98377236D01*
X144182986Y-98322834D01*
X144249280Y-98300769D01*
X144277899Y-98303072D01*
X144290101Y-98305500D01*
X144509898Y-98305499D01*
X144539213Y-98299669D01*
X144572457Y-98277457D01*
X144593734Y-98245611D01*
X144647345Y-98200806D01*
X144696838Y-98190500D01*
X145934826Y-98190500D01*
X145934828Y-98190500D01*
X146026897Y-98152364D01*
X147924469Y-96254789D01*
X147924472Y-96254788D01*
X147941910Y-96237350D01*
X147941911Y-96237350D01*
X148012378Y-96166883D01*
X148032771Y-96117650D01*
X148050515Y-96074814D01*
X148050515Y-95975158D01*
X148050515Y-95965169D01*
X148050514Y-95965155D01*
X148050514Y-94334449D01*
X148070199Y-94267410D01*
X148123003Y-94221655D01*
X148174514Y-94210449D01*
X148184909Y-94210449D01*
X148184912Y-94210449D01*
X148199569Y-94207534D01*
X148214223Y-94204620D01*
X148214223Y-94204619D01*
X148214227Y-94204619D01*
X148214229Y-94204617D01*
X148224689Y-94200285D01*
X148267002Y-94195735D01*
X148265645Y-94192096D01*
X148267713Y-94159063D01*
X148269681Y-94149164D01*
X148269683Y-94149163D01*
X148275514Y-94119849D01*
X148275513Y-92850052D01*
X148269683Y-92820737D01*
X148269682Y-92820735D01*
X148247471Y-92787492D01*
X148216644Y-92766896D01*
X148214227Y-92765281D01*
X148214225Y-92765280D01*
X148214222Y-92765279D01*
X148184915Y-92759450D01*
X148184913Y-92759450D01*
X148124214Y-92759450D01*
X148057175Y-92739765D01*
X148011420Y-92686961D01*
X148000214Y-92635450D01*
X148000214Y-92523197D01*
X148019899Y-92456158D01*
X148036533Y-92435515D01*
X148040720Y-92431327D01*
X148040723Y-92431326D01*
X148131326Y-92340723D01*
X148189498Y-92226555D01*
X148193458Y-92201555D01*
X148209542Y-92100003D01*
X148209542Y-92099996D01*
X148189499Y-91973448D01*
X148189498Y-91973446D01*
X148189498Y-91973445D01*
X148131326Y-91859277D01*
X148131322Y-91859273D01*
X148131321Y-91859271D01*
X148040728Y-91768678D01*
X148040725Y-91768676D01*
X148040723Y-91768674D01*
X147926555Y-91710502D01*
X147926554Y-91710501D01*
X147926551Y-91710500D01*
X147800003Y-91690458D01*
X147799997Y-91690458D01*
X147673448Y-91710500D01*
X147617493Y-91739011D01*
X147559277Y-91768674D01*
X147559276Y-91768675D01*
X147559271Y-91768678D01*
X147468678Y-91859271D01*
X147468675Y-91859276D01*
X147468674Y-91859277D01*
X147439011Y-91917493D01*
X147410500Y-91973448D01*
X147390458Y-92099996D01*
X147390458Y-92100003D01*
X147410500Y-92226551D01*
X147410501Y-92226554D01*
X147410502Y-92226555D01*
X147468674Y-92340723D01*
X147559277Y-92431326D01*
X147559278Y-92431326D01*
X147563495Y-92435543D01*
X147596980Y-92496866D01*
X147599814Y-92523225D01*
X147599814Y-92635450D01*
X147580129Y-92702489D01*
X147527325Y-92748244D01*
X147475816Y-92759450D01*
X147415119Y-92759450D01*
X147415111Y-92759451D01*
X147385801Y-92765280D01*
X147352554Y-92787494D01*
X147343920Y-92796129D01*
X147342946Y-92795155D01*
X147299502Y-92831461D01*
X147230177Y-92840167D01*
X147167150Y-92810011D01*
X147148711Y-92788732D01*
X147147473Y-92787494D01*
X147116644Y-92766896D01*
X147114227Y-92765281D01*
X147114225Y-92765280D01*
X147114222Y-92765279D01*
X147084915Y-92759450D01*
X147084913Y-92759450D01*
X147024214Y-92759450D01*
X146957175Y-92739765D01*
X146911420Y-92686961D01*
X146900214Y-92635450D01*
X146900214Y-92523197D01*
X146919899Y-92456158D01*
X146936533Y-92435515D01*
X146940720Y-92431327D01*
X146940723Y-92431326D01*
X147031326Y-92340723D01*
X147089498Y-92226555D01*
X147093458Y-92201555D01*
X147109542Y-92100003D01*
X147109542Y-92099996D01*
X147089499Y-91973448D01*
X147089498Y-91973446D01*
X147089498Y-91973445D01*
X147031326Y-91859277D01*
X147031322Y-91859273D01*
X147031321Y-91859271D01*
X146940728Y-91768678D01*
X146940725Y-91768676D01*
X146940723Y-91768674D01*
X146826555Y-91710502D01*
X146826554Y-91710501D01*
X146826551Y-91710500D01*
X146700003Y-91690458D01*
X146699997Y-91690458D01*
X146573448Y-91710500D01*
X146517493Y-91739011D01*
X146459277Y-91768674D01*
X146459276Y-91768675D01*
X146459271Y-91768678D01*
X146368678Y-91859271D01*
X146368675Y-91859276D01*
X146368674Y-91859277D01*
X146339011Y-91917493D01*
X146310500Y-91973448D01*
X146290458Y-92099996D01*
X146290458Y-92100003D01*
X146310500Y-92226551D01*
X146310501Y-92226554D01*
X146310502Y-92226555D01*
X146368674Y-92340723D01*
X146459277Y-92431326D01*
X146459278Y-92431326D01*
X146463495Y-92435543D01*
X146496980Y-92496866D01*
X146499814Y-92523225D01*
X146499814Y-92635450D01*
X146480129Y-92702489D01*
X146427325Y-92748244D01*
X146375816Y-92759450D01*
X146315119Y-92759450D01*
X146315111Y-92759451D01*
X146285801Y-92765280D01*
X146252554Y-92787494D01*
X146243920Y-92796129D01*
X146242946Y-92795155D01*
X146199498Y-92831463D01*
X146130173Y-92840167D01*
X146067147Y-92810010D01*
X146048718Y-92788740D01*
X146047472Y-92787494D01*
X146016643Y-92766896D01*
X146014226Y-92765281D01*
X146014224Y-92765280D01*
X146014221Y-92765279D01*
X145984914Y-92759450D01*
X145984912Y-92759450D01*
X145924213Y-92759450D01*
X145857174Y-92739765D01*
X145811419Y-92686961D01*
X145800213Y-92635450D01*
X145800213Y-92540691D01*
X145819898Y-92473652D01*
X145858829Y-92438433D01*
X145857831Y-92437059D01*
X145865716Y-92431329D01*
X145865723Y-92431326D01*
X145956326Y-92340723D01*
X146014498Y-92226555D01*
X146018458Y-92201555D01*
X146034542Y-92100003D01*
X146034542Y-92099996D01*
X146014499Y-91973448D01*
X146014498Y-91973446D01*
X146014498Y-91973445D01*
X145956326Y-91859277D01*
X145956322Y-91859273D01*
X145956321Y-91859271D01*
X145865728Y-91768678D01*
X145865725Y-91768676D01*
X145865723Y-91768674D01*
X145751555Y-91710502D01*
X145751554Y-91710501D01*
X145751551Y-91710500D01*
X145625003Y-91690458D01*
X145624997Y-91690458D01*
X145498448Y-91710500D01*
X145442493Y-91739011D01*
X145384277Y-91768674D01*
X145384276Y-91768675D01*
X145384271Y-91768678D01*
X145293678Y-91859271D01*
X145293675Y-91859276D01*
X145293674Y-91859277D01*
X145264011Y-91917493D01*
X145235500Y-91973448D01*
X145215458Y-92099996D01*
X145215458Y-92100003D01*
X145235500Y-92226551D01*
X145235501Y-92226554D01*
X145235502Y-92226555D01*
X145293674Y-92340723D01*
X145293676Y-92340725D01*
X145293678Y-92340728D01*
X145363494Y-92410544D01*
X145396979Y-92471867D01*
X145399813Y-92498225D01*
X145399813Y-92635450D01*
X145380128Y-92702489D01*
X145327324Y-92748244D01*
X145275815Y-92759450D01*
X145215118Y-92759450D01*
X145215110Y-92759451D01*
X145185800Y-92765280D01*
X145152553Y-92787494D01*
X145143919Y-92796129D01*
X145142945Y-92795155D01*
X145099501Y-92831461D01*
X145030176Y-92840167D01*
X144967149Y-92810011D01*
X144948710Y-92788732D01*
X144947472Y-92787494D01*
X144916643Y-92766896D01*
X144914226Y-92765281D01*
X144914224Y-92765280D01*
X144914221Y-92765279D01*
X144884914Y-92759450D01*
X144884912Y-92759450D01*
X144874513Y-92759450D01*
X144807474Y-92739765D01*
X144761719Y-92686961D01*
X144750513Y-92635450D01*
X144750513Y-92421979D01*
X144770198Y-92354940D01*
X144795540Y-92329613D01*
X144793993Y-92327828D01*
X144800687Y-92322025D01*
X144800695Y-92322021D01*
X144886282Y-92223248D01*
X144927502Y-92132989D01*
X144940573Y-92104367D01*
X144940574Y-92104362D01*
X144944382Y-92077876D01*
X144959174Y-91975000D01*
X144940574Y-91845636D01*
X144940573Y-91845635D01*
X144940573Y-91845632D01*
X144899943Y-91756666D01*
X144886282Y-91726752D01*
X144800695Y-91627979D01*
X144690748Y-91557321D01*
X144690746Y-91557320D01*
X144690744Y-91557319D01*
X144565348Y-91520500D01*
X144565347Y-91520500D01*
X144434653Y-91520500D01*
X144434652Y-91520500D01*
X144309255Y-91557319D01*
X144199306Y-91627978D01*
X144113719Y-91726750D01*
X144113717Y-91726753D01*
X144059426Y-91845632D01*
X144059425Y-91845637D01*
X144040826Y-91975000D01*
X144040826Y-91975006D01*
X144040856Y-91975215D01*
X144040826Y-91975423D01*
X144040826Y-91983869D01*
X144039611Y-91983869D01*
X144032412Y-92033908D01*
X144052519Y-92065195D01*
X144056280Y-92082483D01*
X144059425Y-92104363D01*
X144059426Y-92104367D01*
X144109033Y-92212989D01*
X144113718Y-92223248D01*
X144199305Y-92322021D01*
X144199307Y-92322022D01*
X144206010Y-92327831D01*
X144203667Y-92330534D01*
X144238256Y-92370371D01*
X144249513Y-92421996D01*
X144249513Y-92635450D01*
X144229828Y-92702489D01*
X144177024Y-92748244D01*
X144125521Y-92759450D01*
X144115121Y-92759450D01*
X144115110Y-92759451D01*
X144085800Y-92765280D01*
X144052553Y-92787494D01*
X144043919Y-92796129D01*
X144042944Y-92795154D01*
X143999505Y-92831459D01*
X143930180Y-92840166D01*
X143867152Y-92810012D01*
X143848715Y-92788735D01*
X143847474Y-92787494D01*
X143816645Y-92766896D01*
X143814228Y-92765281D01*
X143814226Y-92765280D01*
X143814223Y-92765279D01*
X143784916Y-92759450D01*
X143784914Y-92759450D01*
X143724215Y-92759450D01*
X143657176Y-92739765D01*
X143611421Y-92686961D01*
X143600215Y-92635450D01*
X143600215Y-92523197D01*
X143619900Y-92456158D01*
X143636534Y-92435516D01*
X143731321Y-92340728D01*
X143731326Y-92340723D01*
X143789498Y-92226555D01*
X143793458Y-92201555D01*
X143811069Y-92090362D01*
X143812350Y-92090564D01*
X143820704Y-92062114D01*
X143805319Y-92044356D01*
X143795644Y-92012254D01*
X143789498Y-91973445D01*
X143731326Y-91859277D01*
X143731322Y-91859273D01*
X143731321Y-91859271D01*
X143640728Y-91768678D01*
X143640725Y-91768676D01*
X143640723Y-91768674D01*
X143526555Y-91710502D01*
X143526554Y-91710501D01*
X143526551Y-91710500D01*
X143400003Y-91690458D01*
X143399997Y-91690458D01*
X143273448Y-91710500D01*
X143217493Y-91739011D01*
X143159277Y-91768674D01*
X143159276Y-91768675D01*
X143159271Y-91768678D01*
X143068678Y-91859271D01*
X143068675Y-91859276D01*
X143068674Y-91859277D01*
X143039011Y-91917493D01*
X143010500Y-91973448D01*
X142990458Y-92099996D01*
X142990458Y-92100003D01*
X143010500Y-92226551D01*
X143010501Y-92226554D01*
X143010502Y-92226555D01*
X143068674Y-92340723D01*
X143068676Y-92340725D01*
X143068678Y-92340728D01*
X143163496Y-92435546D01*
X143196981Y-92496869D01*
X143199815Y-92523227D01*
X143199815Y-92635450D01*
X143180130Y-92702489D01*
X143127326Y-92748244D01*
X143075817Y-92759450D01*
X143015120Y-92759450D01*
X143015112Y-92759451D01*
X142985802Y-92765280D01*
X142952557Y-92787492D01*
X142930347Y-92820735D01*
X142930344Y-92820741D01*
X142924515Y-92850048D01*
X142924515Y-93600078D01*
X142915077Y-93647528D01*
X142899501Y-93685133D01*
X142899500Y-93685139D01*
X142899500Y-97159829D01*
X142940061Y-97257751D01*
X142949500Y-97305203D01*
X142949500Y-97384894D01*
X142949501Y-97384902D01*
X142955330Y-97414212D01*
X142977543Y-97447458D01*
X142999901Y-97462396D01*
X143044708Y-97516006D01*
X143053418Y-97585331D01*
X143023265Y-97648360D01*
X142963823Y-97685081D01*
X142931014Y-97689500D01*
X142785122Y-97689500D01*
X142718083Y-97669815D01*
X142697441Y-97653181D01*
X141616819Y-96572558D01*
X141583334Y-96511235D01*
X141580500Y-96484877D01*
X141580500Y-94293434D01*
X141600185Y-94226395D01*
X141635613Y-94190329D01*
X141647471Y-94182407D01*
X141669683Y-94149163D01*
X141675514Y-94119849D01*
X141675513Y-92850052D01*
X141669683Y-92820737D01*
X141669682Y-92820735D01*
X141647471Y-92787492D01*
X141616644Y-92766896D01*
X141614227Y-92765281D01*
X141614225Y-92765280D01*
X141614222Y-92765279D01*
X141584915Y-92759450D01*
X141584913Y-92759450D01*
X141524214Y-92759450D01*
X141457175Y-92739765D01*
X141411420Y-92686961D01*
X141400214Y-92635450D01*
X141400214Y-92498197D01*
X141419899Y-92431158D01*
X141436533Y-92410515D01*
X141440720Y-92406327D01*
X141440723Y-92406326D01*
X141531326Y-92315723D01*
X141589498Y-92201555D01*
X141593458Y-92176555D01*
X141609542Y-92075003D01*
X141609542Y-92074996D01*
X141589499Y-91948448D01*
X141589498Y-91948446D01*
X141589498Y-91948445D01*
X141531326Y-91834277D01*
X141531322Y-91834273D01*
X141531321Y-91834271D01*
X141440728Y-91743678D01*
X141440725Y-91743676D01*
X141440723Y-91743674D01*
X141326555Y-91685502D01*
X141326554Y-91685501D01*
X141326551Y-91685500D01*
X141200003Y-91665458D01*
X141199997Y-91665458D01*
X141073448Y-91685500D01*
X141070483Y-91687011D01*
X140959277Y-91743674D01*
X140959276Y-91743675D01*
X140959271Y-91743678D01*
X140868678Y-91834271D01*
X140868675Y-91834276D01*
X140868674Y-91834277D01*
X140855936Y-91859277D01*
X140810500Y-91948448D01*
X140790458Y-92074996D01*
X140790458Y-92075003D01*
X140810500Y-92201551D01*
X140810501Y-92201554D01*
X140810502Y-92201555D01*
X140868674Y-92315723D01*
X140959277Y-92406326D01*
X140959278Y-92406326D01*
X140963495Y-92410543D01*
X140996980Y-92471866D01*
X140999814Y-92498225D01*
X140999814Y-92635450D01*
X140980129Y-92702489D01*
X140927325Y-92748244D01*
X140875816Y-92759450D01*
X140815119Y-92759450D01*
X140815111Y-92759451D01*
X140785801Y-92765280D01*
X140752554Y-92787494D01*
X140743920Y-92796129D01*
X140742946Y-92795155D01*
X140699502Y-92831461D01*
X140630177Y-92840167D01*
X140567150Y-92810011D01*
X140548711Y-92788732D01*
X140547473Y-92787494D01*
X140516644Y-92766896D01*
X140514227Y-92765281D01*
X140514225Y-92765280D01*
X140514222Y-92765279D01*
X140484915Y-92759450D01*
X140484913Y-92759450D01*
X140424214Y-92759450D01*
X140357175Y-92739765D01*
X140311420Y-92686961D01*
X140300214Y-92635450D01*
X140300214Y-92473197D01*
X140319899Y-92406158D01*
X140336533Y-92385515D01*
X140340720Y-92381327D01*
X140340723Y-92381326D01*
X140431326Y-92290723D01*
X140489498Y-92176555D01*
X140492091Y-92160185D01*
X140509542Y-92050003D01*
X140509542Y-92049996D01*
X140489499Y-91923448D01*
X140489498Y-91923446D01*
X140489498Y-91923445D01*
X140431326Y-91809277D01*
X140431322Y-91809273D01*
X140431321Y-91809271D01*
X140340728Y-91718678D01*
X140340725Y-91718676D01*
X140340723Y-91718674D01*
X140226555Y-91660502D01*
X140226554Y-91660501D01*
X140226551Y-91660500D01*
X140100003Y-91640458D01*
X140099997Y-91640458D01*
X139973448Y-91660500D01*
X139924384Y-91685500D01*
X139859277Y-91718674D01*
X139859276Y-91718675D01*
X139859271Y-91718678D01*
X139768678Y-91809271D01*
X139768675Y-91809276D01*
X139768674Y-91809277D01*
X139746435Y-91852923D01*
X139710500Y-91923448D01*
X139690458Y-92049996D01*
X139690458Y-92050003D01*
X139710500Y-92176551D01*
X139710501Y-92176554D01*
X139710502Y-92176555D01*
X139768674Y-92290723D01*
X139859277Y-92381326D01*
X139859278Y-92381326D01*
X139863495Y-92385543D01*
X139896980Y-92446866D01*
X139899814Y-92473225D01*
X139899814Y-92635450D01*
X139880129Y-92702489D01*
X139827325Y-92748244D01*
X139775816Y-92759450D01*
X139715119Y-92759450D01*
X139715111Y-92759451D01*
X139685801Y-92765280D01*
X139674518Y-92769954D01*
X139673046Y-92766402D01*
X139627180Y-92780745D01*
X139576773Y-92766896D01*
X139575507Y-92769954D01*
X139564222Y-92765279D01*
X139534915Y-92759450D01*
X138765119Y-92759450D01*
X138765111Y-92759451D01*
X138735801Y-92765280D01*
X138702556Y-92787492D01*
X138680346Y-92820735D01*
X138680343Y-92820741D01*
X138674514Y-92850048D01*
X138674514Y-93010500D01*
X138654829Y-93077539D01*
X138602025Y-93123294D01*
X138550514Y-93134500D01*
X138530996Y-93134500D01*
X138463957Y-93114815D01*
X138438568Y-93090835D01*
X138438227Y-93091177D01*
X138340728Y-92993678D01*
X138340725Y-92993676D01*
X138340723Y-92993674D01*
X138226555Y-92935502D01*
X138226554Y-92935501D01*
X138226551Y-92935500D01*
X138100003Y-92915458D01*
X138099997Y-92915458D01*
X137973448Y-92935500D01*
X137937763Y-92953683D01*
X137859277Y-92993674D01*
X137859276Y-92993675D01*
X137859271Y-92993678D01*
X137768678Y-93084271D01*
X137768675Y-93084276D01*
X137768674Y-93084277D01*
X137753114Y-93114815D01*
X137710500Y-93198448D01*
X137690458Y-93324996D01*
X136555500Y-93324996D01*
X136555500Y-92100000D01*
X136555500Y-88580435D01*
X136552458Y-88555285D01*
X136552457Y-88555280D01*
X136538367Y-88497878D01*
X136535581Y-88490500D01*
X136529417Y-88474174D01*
X134883294Y-85323025D01*
X134021435Y-83673181D01*
X133069593Y-81851083D01*
X133055500Y-81793669D01*
X133055500Y-80499999D01*
X134095321Y-80499999D01*
X134095321Y-80500000D01*
X134114002Y-80713527D01*
X134114004Y-80713537D01*
X134169477Y-80920567D01*
X134169481Y-80920576D01*
X134260066Y-81114838D01*
X134260067Y-81114840D01*
X134299825Y-81171620D01*
X134299826Y-81171621D01*
X134801212Y-80670234D01*
X134812482Y-80712292D01*
X134884890Y-80837708D01*
X134987292Y-80940110D01*
X135112708Y-81012518D01*
X135154764Y-81023787D01*
X134653377Y-81525173D01*
X134710161Y-81564933D01*
X134904423Y-81655518D01*
X134904432Y-81655522D01*
X135111462Y-81710995D01*
X135111472Y-81710997D01*
X135324999Y-81729679D01*
X135325001Y-81729679D01*
X135538527Y-81710997D01*
X135538537Y-81710995D01*
X135745567Y-81655522D01*
X135745576Y-81655518D01*
X135939839Y-81564933D01*
X135996621Y-81525173D01*
X135495235Y-81023787D01*
X135537292Y-81012518D01*
X135662708Y-80940110D01*
X135765110Y-80837708D01*
X135837518Y-80712292D01*
X135848787Y-80670235D01*
X136350173Y-81171621D01*
X136389933Y-81114839D01*
X136480518Y-80920576D01*
X136480522Y-80920567D01*
X136535995Y-80713537D01*
X136535997Y-80713527D01*
X136554679Y-80500000D01*
X136554679Y-80499999D01*
X136535997Y-80286472D01*
X136535995Y-80286462D01*
X136480522Y-80079432D01*
X136480518Y-80079423D01*
X136389933Y-79885162D01*
X136350172Y-79828379D01*
X135848787Y-80329764D01*
X135837518Y-80287708D01*
X135765110Y-80162292D01*
X135662708Y-80059890D01*
X135537292Y-79987482D01*
X135495235Y-79976212D01*
X135996621Y-79474826D01*
X135996620Y-79474825D01*
X135939840Y-79435067D01*
X135939838Y-79435066D01*
X135745576Y-79344481D01*
X135745567Y-79344477D01*
X135538537Y-79289004D01*
X135538527Y-79289002D01*
X135325001Y-79270321D01*
X135324999Y-79270321D01*
X135111472Y-79289002D01*
X135111462Y-79289004D01*
X134904432Y-79344477D01*
X134904423Y-79344481D01*
X134710162Y-79435066D01*
X134653378Y-79474826D01*
X135154765Y-79976212D01*
X135112708Y-79987482D01*
X134987292Y-80059890D01*
X134884890Y-80162292D01*
X134812482Y-80287708D01*
X134801212Y-80329764D01*
X134299826Y-79828378D01*
X134260066Y-79885162D01*
X134169481Y-80079423D01*
X134169477Y-80079432D01*
X134114004Y-80286462D01*
X134114002Y-80286472D01*
X134095321Y-80499999D01*
X133055500Y-80499999D01*
X133055500Y-79424000D01*
X133053089Y-79401573D01*
X133041883Y-79350062D01*
X133018526Y-79303401D01*
X133018525Y-79303399D01*
X132972770Y-79250596D01*
X132943015Y-79231474D01*
X132922763Y-79218459D01*
X132855729Y-79198775D01*
X132855725Y-79198774D01*
X132855724Y-79198774D01*
X132826000Y-79194500D01*
X130824000Y-79194500D01*
X130823997Y-79194500D01*
X130801573Y-79196910D01*
X130750061Y-79208117D01*
X130703399Y-79231474D01*
X130650596Y-79277229D01*
X130618460Y-79327235D01*
X130618459Y-79327236D01*
X130598775Y-79394270D01*
X130598774Y-79394275D01*
X130598774Y-79394276D01*
X130594501Y-79423997D01*
X130594500Y-79424003D01*
X130594500Y-81819181D01*
X130597615Y-81844631D01*
X130612045Y-81902683D01*
X130621201Y-81926615D01*
X130621208Y-81926631D01*
X130697071Y-82069809D01*
X130711064Y-82138263D01*
X130685827Y-82203415D01*
X130629372Y-82244581D01*
X130559623Y-82248690D01*
X130531205Y-82238348D01*
X130524426Y-82234894D01*
X130505087Y-82225040D01*
X130476554Y-82210501D01*
X130476551Y-82210500D01*
X130350003Y-82190458D01*
X130349997Y-82190458D01*
X130223448Y-82210500D01*
X130175558Y-82234902D01*
X130109277Y-82268674D01*
X130109276Y-82268675D01*
X130109271Y-82268678D01*
X130018678Y-82359271D01*
X130018675Y-82359276D01*
X129960500Y-82473448D01*
X129940458Y-82599996D01*
X129940458Y-82600002D01*
X129949734Y-82658569D01*
X129940779Y-82727863D01*
X129914942Y-82765648D01*
X124992091Y-87688501D01*
X124938503Y-87742088D01*
X124938502Y-87742089D01*
X124909500Y-87812105D01*
X111800500Y-87812105D01*
X111800500Y-80607114D01*
X111820185Y-80540075D01*
X111872989Y-80494320D01*
X111942147Y-80484376D01*
X112005703Y-80513401D01*
X112025804Y-80535606D01*
X112060990Y-80585453D01*
X112060991Y-80585454D01*
X112813708Y-79832736D01*
X112910967Y-79966602D01*
X113033398Y-80089033D01*
X113167262Y-80186290D01*
X112416658Y-80936894D01*
X112507240Y-81010590D01*
X112507246Y-81010594D01*
X112758550Y-81163415D01*
X113028322Y-81280593D01*
X113311541Y-81359948D01*
X113311547Y-81359949D01*
X113602935Y-81400000D01*
X113897065Y-81400000D01*
X114188452Y-81359949D01*
X114188458Y-81359948D01*
X114471677Y-81280593D01*
X114741449Y-81163415D01*
X114992753Y-81010594D01*
X114992767Y-81010584D01*
X115083340Y-80936895D01*
X115083341Y-80936894D01*
X114332737Y-80186290D01*
X114466602Y-80089033D01*
X114589033Y-79966602D01*
X114686290Y-79832737D01*
X115439007Y-80585453D01*
X115439008Y-80585453D01*
X115591293Y-80369716D01*
X115726613Y-80108560D01*
X115825108Y-79831424D01*
X115825109Y-79831421D01*
X115884952Y-79543436D01*
X115905023Y-79250000D01*
X115884952Y-78956563D01*
X115825109Y-78668578D01*
X115825108Y-78668575D01*
X115726613Y-78391439D01*
X115726614Y-78391439D01*
X115591293Y-78130283D01*
X115439007Y-77914545D01*
X114686290Y-78667262D01*
X114589033Y-78533398D01*
X114466602Y-78410967D01*
X114332736Y-78313709D01*
X115083341Y-77563104D01*
X115031205Y-77520688D01*
X114991624Y-77463111D01*
X114989456Y-77393275D01*
X115025388Y-77333352D01*
X115088012Y-77302369D01*
X115109460Y-77300500D01*
X182140540Y-77300500D01*
X182207579Y-77320185D01*
G37*
%TD.AperFunction*%
%TA.AperFunction,Conductor*%
G36*
X112457579Y-77320185D02*
G01*
X112503334Y-77372989D01*
X112513278Y-77442147D01*
X112484253Y-77505703D01*
X112468795Y-77520688D01*
X112416657Y-77563104D01*
X113167262Y-78313709D01*
X113033398Y-78410967D01*
X112910967Y-78533398D01*
X112813709Y-78667263D01*
X112060991Y-77914545D01*
X112060990Y-77914545D01*
X112025804Y-77964393D01*
X111971062Y-78007811D01*
X111901537Y-78014740D01*
X111839302Y-77982981D01*
X111804117Y-77922618D01*
X111800500Y-77892885D01*
X111800500Y-77424500D01*
X111820185Y-77357461D01*
X111872989Y-77311706D01*
X111924500Y-77300500D01*
X112390540Y-77300500D01*
X112457579Y-77320185D01*
G37*
%TD.AperFunction*%
%TD*%
%TA.AperFunction,Conductor*%
%TO.N,VBAT*%
G36*
X136450000Y-98476000D02*
G01*
X136430315Y-98543039D01*
X136377511Y-98588794D01*
X136326000Y-98600000D01*
X134250000Y-98600000D01*
X132974000Y-98600000D01*
X132906961Y-98580315D01*
X132861206Y-98527511D01*
X132850000Y-98476000D01*
X132850000Y-95949410D01*
X132869685Y-95882371D01*
X132883982Y-95864130D01*
X134250000Y-94422222D01*
X136450000Y-92100000D01*
X136450000Y-98476000D01*
G37*
%TD.AperFunction*%
%TD*%
%TA.AperFunction,Conductor*%
%TO.N,VBAT*%
G36*
X132893039Y-79319685D02*
G01*
X132938794Y-79372489D01*
X132950000Y-79424000D01*
X132950000Y-81849999D01*
X132950001Y-81850003D01*
X134789784Y-85371873D01*
X136435907Y-88523022D01*
X136450000Y-88580435D01*
X136450000Y-92100000D01*
X134250000Y-94422222D01*
X134250000Y-88550000D01*
X130714430Y-81877234D01*
X130700000Y-81819178D01*
X130700000Y-79424000D01*
X130719685Y-79356961D01*
X130772489Y-79311206D01*
X130824000Y-79300000D01*
X132826000Y-79300000D01*
X132893039Y-79319685D01*
G37*
%TD.AperFunction*%
%TD*%
%TA.AperFunction,Conductor*%
%TO.N,/SYS*%
G36*
X136093039Y-100969685D02*
G01*
X136138794Y-101022489D01*
X136150000Y-101074000D01*
X136150000Y-103176000D01*
X136130315Y-103243039D01*
X136077511Y-103288794D01*
X136026000Y-103300000D01*
X133250000Y-103300000D01*
X133250000Y-109326000D01*
X133230315Y-109393039D01*
X133177511Y-109438794D01*
X133126000Y-109450000D01*
X130474000Y-109450000D01*
X130406961Y-109430315D01*
X130361206Y-109377511D01*
X130350000Y-109326000D01*
X130350000Y-101074000D01*
X130369685Y-101006961D01*
X130422489Y-100961206D01*
X130474000Y-100950000D01*
X136026000Y-100950000D01*
X136093039Y-100969685D01*
G37*
%TD.AperFunction*%
%TD*%
M02*
