M48
; DRILL file {KiCad 8.0.2} date 2024-06-21T01:26:20+0100
; FORMAT={-:-/ absolute / metric / decimal}
; #@! TF.CreationDate,2024-06-21T01:26:20+01:00
; #@! TF.GenerationSoftware,Kicad,Pcbnew,8.0.2
; #@! TF.FileFunction,Plated,1,4,PTH
FMAT,2
METRIC
; #@! TA.AperFunction,Plated,PTH,ViaDrill
T1C0.300
; #@! TA.AperFunction,Plated,PTH,ComponentDrill
T2C0.300
; #@! TA.AperFunction,Plated,PTH,ViaDrill
T3C0.400
; #@! TA.AperFunction,Plated,PTH,ViaDrill
T4C0.450
; #@! TA.AperFunction,Plated,PTH,ViaDrill
T5C0.500
; #@! TA.AperFunction,Plated,PTH,ViaDrill
T6C0.550
; #@! TA.AperFunction,Plated,PTH,ComponentDrill
T7C1.000
; #@! TA.AperFunction,Plated,PTH,ComponentDrill
T8C1.100
; #@! TA.AperFunction,Plated,PTH,ComponentDrill
T9C2.200
%
G90
G05
T1
X114.15Y-94.5
X114.74Y-104.71
X114.75Y-84.375
X115.39Y-99.7
X115.43Y-89.45
X118.48Y-107.95
X118.58Y-80.88
X119.36Y-94.0
X119.92Y-94.0
X119.97Y-103.07
X121.825Y-78.425
X121.86Y-90.37
X122.18Y-84.93
X124.26Y-107.96
X124.7Y-101.425
X125.76Y-94.61
X126.275Y-87.7
X126.3Y-80.8
X126.56Y-98.38
X126.625Y-99.9
X128.55Y-101.475
X129.175Y-97.45
X129.175Y-98.3
X129.22Y-94.44
X129.24Y-91.46
X129.35Y-105.275
X129.42Y-109.62
X129.75Y-101.5
X130.35Y-82.6
X130.845Y-87.4
X131.07Y-90.06
X131.08Y-97.38
X131.1Y-96.6
X131.15Y-87.95
X131.8Y-87.95
X132.1Y-92.08
X133.08Y-92.08
X137.471Y-93.325
X137.76Y-87.88
X138.1Y-93.325
X139.375Y-92.075
X139.51Y-84.01
X140.025Y-80.3
X140.1Y-92.05
X140.19Y-98.75
X140.68Y-94.51
X141.2Y-92.075
X141.4Y-106.4
X141.9Y-92.1
X141.99Y-99.0
X142.03Y-96.55
X142.7Y-92.1
X143.4Y-92.1
X144.45Y-103.04
X144.7Y-107.45
X144.75Y-79.5
X144.75Y-105.3
X145.075Y-87.65
X145.09Y-98.74
X145.1Y-91.65
X145.47Y-102.38
X145.625Y-92.1
X145.63Y-83.87
X146.18Y-94.51
X146.2Y-91.625
X146.61Y-98.44
X146.7Y-92.1
X146.75Y-102.1
X147.8Y-92.1
X148.05Y-98.275
X148.5Y-92.075
X148.65Y-96.95
X148.72Y-94.6
X149.34Y-79.25
X149.6Y-105.325
X149.6Y-107.45
X149.758Y-94.625
X150.2Y-91.35
X150.65Y-96.9
X150.66Y-101.19
X150.95Y-83.88
X151.22Y-104.28
X152.24Y-90.75
X152.53Y-103.26
X153.1Y-81.58
X153.2Y-91.443
X154.0Y-96.8
X154.3Y-105.35
X154.3Y-107.45
X154.87Y-102.24
X155.05Y-95.19
X155.1Y-98.29
X155.15Y-86.425
X155.15Y-87.15
X155.175Y-87.9
X156.27Y-79.13
X156.27Y-90.09
X156.439Y-110.16
X156.8Y-106.35
X157.11Y-104.3
X157.74Y-101.17
X158.69Y-98.69
X159.225Y-88.25
X159.3Y-105.35
X159.3Y-107.45
X159.89Y-103.26
X160.65Y-91.05
X160.78Y-99.48
X161.14Y-95.74
X161.57Y-81.56
X161.75Y-96.05
X161.9Y-92.35
X162.1Y-84.13
X162.63Y-102.22
X163.65Y-91.0
X163.65Y-92.35
X163.65Y-93.7
X164.19Y-79.17
X164.3Y-88.89
X164.55Y-105.35
X164.92Y-88.61
X165.0Y-107.45
X165.34Y-110.18
X165.4Y-92.35
X165.55Y-88.88
X165.89Y-101.18
X165.97Y-104.29
X166.01Y-103.26
X166.65Y-98.3
X166.93Y-93.12
X166.93Y-96.69
X167.048Y-92.44
X167.5Y-95.28
X167.924Y-94.73
X168.09Y-104.17
X169.14Y-106.26
X169.99Y-93.1
X170.476Y-93.574
X170.83Y-90.65
X170.9Y-86.65
X171.025Y-105.05
X171.1Y-101.2
X171.72Y-103.68
X172.15Y-84.45
X172.35Y-106.6
X172.357Y-97.914
X172.775Y-99.4
X172.925Y-102.775
X173.0Y-86.75
X173.2Y-97.877
X173.55Y-103.65
X173.8Y-83.25
X174.0Y-97.877
X174.0Y-106.25
X174.15Y-103.65
X174.15Y-104.25
X174.25Y-102.8
X174.273Y-90.826
X174.285Y-99.65
X174.3Y-88.45
X174.5Y-83.25
X174.7Y-86.75
X174.7Y-90.29
X175.2Y-83.25
X175.3Y-106.25
X175.5Y-102.7
X175.576Y-92.475
X175.65Y-100.3
X175.65Y-101.1
X175.65Y-101.9
X175.85Y-88.45
X175.9Y-86.45
X176.38Y-90.29
X176.4Y-80.41
X176.69Y-83.13
X176.69Y-90.91
X176.7Y-106.25
X176.88Y-84.43
X176.9Y-85.825
X177.09Y-90.26
X177.15Y-101.5
X177.15Y-102.2
X177.15Y-102.9
X177.5Y-104.9
X177.5Y-105.5
X177.55Y-87.55
X177.625Y-93.73
X177.625Y-95.448
X177.643Y-93.08
X177.691Y-94.792
X177.817Y-91.017
X178.0Y-102.9
X178.1Y-105.5
X178.45Y-91.6
X178.95Y-102.9
X179.0Y-98.39
X179.257Y-87.331
X179.334Y-96.026
X179.355Y-94.075
X179.4Y-95.4
X179.95Y-104.2
X179.95Y-105.575
X180.6Y-104.2
X180.7Y-98.5
X180.72Y-96.97
X181.35Y-85.6
X182.29Y-95.17
X182.6Y-96.995
X182.6Y-99.4
X183.43Y-96.995
X183.43Y-98.395
X184.15Y-82.55
X184.15Y-85.09
X184.15Y-87.63
X184.15Y-90.17
X184.15Y-92.71
X184.15Y-95.25
X184.15Y-100.33
X184.15Y-102.87
X184.15Y-105.41
X184.26Y-96.995
X184.26Y-98.395
X185.09Y-96.995
X185.09Y-98.395
X185.42Y-81.28
X185.42Y-83.82
X185.42Y-86.36
X185.42Y-88.9
X185.42Y-91.44
X185.42Y-93.98
X185.42Y-101.6
X185.42Y-104.14
X185.42Y-106.68
X185.8Y-98.75
X185.85Y-96.65
T2
X185.925Y-99.8
T3
X142.977Y-106.628
X144.5Y-91.975
X144.75Y-95.55
X144.76Y-94.82
X157.5Y-91.05
X168.7Y-83.65
X169.45Y-78.85
X171.25Y-81.0
X172.15Y-81.0
X172.2Y-99.9
T4
X168.7Y-85.3
X173.6Y-99.842
T5
X119.875Y-98.25
X174.25Y-94.35
X174.25Y-95.85
X175.75Y-94.35
X175.75Y-95.85
T6
X132.8Y-101.49
X133.55Y-96.05
X133.55Y-97.05
X133.55Y-98.05
X134.2Y-101.49
X135.6Y-101.49
X154.95Y-85.15
X156.1Y-85.15
X157.2Y-85.15
X177.55Y-89.32
X180.01Y-89.2
X180.9Y-99.7
T7
X139.825Y-102.598
X139.825Y-105.138
X139.825Y-107.677
X139.825Y-110.218
X159.0Y-110.2
X161.54Y-110.2
X164.08Y-110.2
X166.62Y-110.2
X169.16Y-110.2
X171.7Y-78.8
X171.7Y-110.2
X174.24Y-78.8
X174.24Y-110.2
X176.78Y-78.8
X176.78Y-110.2
X179.32Y-78.8
X179.32Y-110.2
T8
X131.775Y-108.3
X131.825Y-80.5
X135.275Y-108.3
X135.325Y-80.5
T9
X113.75Y-79.25
X113.75Y-109.75
X183.5Y-79.25
X183.5Y-109.75
M30
