%TF.GenerationSoftware,KiCad,Pcbnew,8.0.2*%
%TF.CreationDate,2024-06-21T01:26:05+01:00*%
%TF.ProjectId,ESP32S3_PCB_V1,45535033-3253-4335-9f50-43425f56312e,1*%
%TF.SameCoordinates,Original*%
%TF.FileFunction,Legend,Bot*%
%TF.FilePolarity,Positive*%
%FSLAX46Y46*%
G04 Gerber Fmt 4.6, Leading zero omitted, Abs format (unit mm)*
G04 Created by KiCad (PCBNEW 8.0.2) date 2024-06-21 01:26:05*
%MOMM*%
%LPD*%
G01*
G04 APERTURE LIST*
%ADD10C,0.500000*%
%ADD11C,0.400000*%
%ADD12C,0.200000*%
%ADD13C,0.280000*%
%ADD14C,0.260000*%
%ADD15C,0.300000*%
%ADD16C,0.152400*%
%ADD17C,0.508000*%
%ADD18C,0.100000*%
%ADD19C,0.120000*%
%ADD20C,0.000000*%
G04 APERTURE END LIST*
D10*
X155040084Y-94500000D02*
G75*
G02*
X150259916Y-94500000I-2390084J0D01*
G01*
X150259916Y-94500000D02*
G75*
G02*
X155040084Y-94500000I2390084J0D01*
G01*
D11*
X152650000Y-92109917D02*
X152650000Y-96890083D01*
D12*
X186175000Y-77300000D02*
X186175000Y-111700000D01*
D11*
X155040083Y-94500000D02*
X150259917Y-94500000D01*
D13*
G36*
X187493431Y-109243046D02*
G01*
X187564905Y-109250219D01*
X187630835Y-109269346D01*
X187696956Y-109304193D01*
X187713751Y-109316163D01*
X187764134Y-109363179D01*
X187805901Y-109421149D01*
X187836126Y-109482686D01*
X187855331Y-109444274D01*
X187896171Y-109387638D01*
X187951702Y-109339413D01*
X187985943Y-109319428D01*
X188055005Y-109295335D01*
X188125065Y-109288122D01*
X188199800Y-109295068D01*
X188267740Y-109315905D01*
X188328883Y-109350633D01*
X188383230Y-109399253D01*
X188407192Y-109428435D01*
X188445532Y-109495199D01*
X188468596Y-109562804D01*
X188481875Y-109638982D01*
X188485470Y-109711102D01*
X188483872Y-109760427D01*
X188475485Y-109828965D01*
X188456615Y-109900660D01*
X188427960Y-109963454D01*
X188383230Y-110024319D01*
X188328883Y-110072490D01*
X188267740Y-110106898D01*
X188199800Y-110127542D01*
X188125065Y-110134424D01*
X188091217Y-110132753D01*
X188021426Y-110117668D01*
X187956489Y-110086894D01*
X187916001Y-110055615D01*
X187870095Y-109999772D01*
X187836126Y-109934389D01*
X187825865Y-109956765D01*
X187790429Y-110016967D01*
X187742871Y-110071678D01*
X187686698Y-110113565D01*
X187674527Y-110120439D01*
X187611428Y-110148155D01*
X187544590Y-110164784D01*
X187474011Y-110170327D01*
X187398417Y-110165014D01*
X187329098Y-110149074D01*
X187256157Y-110117046D01*
X187191757Y-110070553D01*
X187143355Y-110019190D01*
X187113901Y-109977648D01*
X187081053Y-109914188D01*
X187057989Y-109844542D01*
X187044710Y-109768712D01*
X187041361Y-109703579D01*
X187259957Y-109703579D01*
X187260945Y-109724513D01*
X187279972Y-109790878D01*
X187323216Y-109846510D01*
X187362913Y-109874114D01*
X187428045Y-109896867D01*
X187499999Y-109903614D01*
X187520072Y-109902856D01*
X187587382Y-109888251D01*
X187650110Y-109855059D01*
X187670108Y-109838650D01*
X187708068Y-109779558D01*
X187718873Y-109711444D01*
X187938366Y-109711444D01*
X187946743Y-109772106D01*
X187982134Y-109833175D01*
X188034451Y-109867283D01*
X188103865Y-109878653D01*
X188162629Y-109869817D01*
X188221834Y-109832491D01*
X188255430Y-109778379D01*
X188266628Y-109708367D01*
X188258185Y-109648471D01*
X188222518Y-109588004D01*
X188174703Y-109555115D01*
X188104891Y-109542184D01*
X188042919Y-109551019D01*
X187982476Y-109588346D01*
X187949393Y-109642201D01*
X187938366Y-109711444D01*
X187718873Y-109711444D01*
X187719524Y-109707341D01*
X187718986Y-109691574D01*
X187700158Y-109620583D01*
X187658317Y-109566120D01*
X187634098Y-109547178D01*
X187566741Y-109518221D01*
X187496921Y-109510383D01*
X187449225Y-109513018D01*
X187379413Y-109529791D01*
X187320822Y-109565436D01*
X187309945Y-109575946D01*
X187271607Y-109636073D01*
X187259957Y-109703579D01*
X187041361Y-109703579D01*
X187041115Y-109698792D01*
X187044129Y-109636255D01*
X187055702Y-109566499D01*
X187080173Y-109492410D01*
X187116457Y-109426175D01*
X187164556Y-109367794D01*
X187205041Y-109331839D01*
X187267779Y-109291739D01*
X187337585Y-109263584D01*
X187414460Y-109247374D01*
X187485979Y-109242986D01*
X187493431Y-109243046D01*
G37*
G36*
X187812324Y-108162309D02*
G01*
X187883037Y-108165128D01*
X187971076Y-108172645D01*
X188051977Y-108184458D01*
X188125740Y-108200567D01*
X188207905Y-108226743D01*
X188278918Y-108259632D01*
X188338778Y-108299232D01*
X188388630Y-108345698D01*
X188433755Y-108407810D01*
X188464841Y-108478430D01*
X188480313Y-108545733D01*
X188485470Y-108619288D01*
X188481939Y-108681091D01*
X188468379Y-108749436D01*
X188439705Y-108821150D01*
X188397188Y-108884224D01*
X188340829Y-108938660D01*
X188280445Y-108978555D01*
X188209142Y-109011689D01*
X188144238Y-109033328D01*
X188072345Y-109050638D01*
X187993464Y-109063621D01*
X187907594Y-109072277D01*
X187838606Y-109075928D01*
X187765686Y-109077145D01*
X187740476Y-109077022D01*
X187667758Y-109075179D01*
X187577598Y-109069281D01*
X187495206Y-109059450D01*
X187420583Y-109045687D01*
X187338229Y-109022953D01*
X187268013Y-108994075D01*
X187199775Y-108951311D01*
X187180563Y-108935228D01*
X187130362Y-108883244D01*
X187091316Y-108825658D01*
X187063427Y-108762470D01*
X187046693Y-108693680D01*
X187041115Y-108619288D01*
X187281841Y-108619288D01*
X187283700Y-108643074D01*
X187311590Y-108706482D01*
X187364376Y-108745071D01*
X187431611Y-108769399D01*
X187470764Y-108777882D01*
X187539462Y-108786463D01*
X187615035Y-108791411D01*
X187691299Y-108793752D01*
X187762951Y-108794361D01*
X187820963Y-108793923D01*
X187899847Y-108791623D01*
X187968969Y-108787351D01*
X188037275Y-108779876D01*
X188105575Y-108766322D01*
X188157571Y-108748178D01*
X188214311Y-108706824D01*
X188227626Y-108686864D01*
X188244744Y-108619288D01*
X188242842Y-108595523D01*
X188214311Y-108532435D01*
X188161141Y-108493570D01*
X188093607Y-108469176D01*
X188054581Y-108460693D01*
X187986054Y-108452112D01*
X187910631Y-108447164D01*
X187834496Y-108444824D01*
X187762951Y-108444214D01*
X187704874Y-108444653D01*
X187625974Y-108446953D01*
X187556932Y-108451224D01*
X187488841Y-108458699D01*
X187421011Y-108472254D01*
X187369014Y-108490398D01*
X187312274Y-108531751D01*
X187298959Y-108551712D01*
X187281841Y-108619288D01*
X187041115Y-108619288D01*
X187044647Y-108557583D01*
X187058207Y-108489334D01*
X187086881Y-108417702D01*
X187129397Y-108354677D01*
X187185756Y-108300258D01*
X187246190Y-108260362D01*
X187317643Y-108227228D01*
X187382740Y-108205590D01*
X187454889Y-108188279D01*
X187534091Y-108175296D01*
X187620346Y-108166641D01*
X187689665Y-108162989D01*
X187762951Y-108161772D01*
X187812324Y-108162309D01*
G37*
G36*
X187063000Y-107513796D02*
G01*
X187592665Y-107145526D01*
X188091555Y-107498408D01*
X188091555Y-107168778D01*
X187808771Y-106987892D01*
X188091555Y-106797431D01*
X188091555Y-106480111D01*
X187604290Y-106826154D01*
X187063000Y-106448311D01*
X187063000Y-106779993D01*
X187381688Y-106987892D01*
X187063000Y-107197501D01*
X187063000Y-107513796D01*
G37*
G36*
X187466831Y-105816748D02*
G01*
X187500683Y-105555163D01*
X187433471Y-105541496D01*
X187369250Y-105512528D01*
X187337919Y-105487801D01*
X187297668Y-105431401D01*
X187282060Y-105364783D01*
X187281841Y-105355129D01*
X187294080Y-105287164D01*
X187330797Y-105229279D01*
X187345784Y-105214591D01*
X187405130Y-105177397D01*
X187473035Y-105159894D01*
X187518464Y-105157145D01*
X187589437Y-105164887D01*
X187652869Y-105190747D01*
X187681227Y-105212198D01*
X187724424Y-105268748D01*
X187741173Y-105335817D01*
X187741408Y-105345554D01*
X187734296Y-105414387D01*
X187721234Y-105469678D01*
X187938366Y-105439930D01*
X187942223Y-105370650D01*
X187961575Y-105304714D01*
X187981450Y-105272721D01*
X188034793Y-105229380D01*
X188103181Y-105214933D01*
X188170643Y-105229881D01*
X188206105Y-105257334D01*
X188239310Y-105320993D01*
X188244744Y-105369832D01*
X188232102Y-105437624D01*
X188199950Y-105488143D01*
X188141042Y-105529288D01*
X188069671Y-105547641D01*
X188108994Y-105796573D01*
X188178303Y-105779872D01*
X188245542Y-105756431D01*
X188307626Y-105724706D01*
X188317577Y-105718269D01*
X188371593Y-105673213D01*
X188416184Y-105616520D01*
X188440676Y-105572260D01*
X188466179Y-105504986D01*
X188481095Y-105432459D01*
X188485470Y-105361967D01*
X188481106Y-105290116D01*
X188464984Y-105213309D01*
X188436984Y-105144061D01*
X188397104Y-105082372D01*
X188361346Y-105042937D01*
X188302111Y-104995002D01*
X188238656Y-104962755D01*
X188170982Y-104946196D01*
X188131562Y-104943775D01*
X188055643Y-104953478D01*
X187986760Y-104982586D01*
X187924912Y-105031101D01*
X187877500Y-105088130D01*
X187841939Y-105146545D01*
X187818824Y-105075633D01*
X187782821Y-105014204D01*
X187733927Y-104962258D01*
X187722602Y-104953007D01*
X187661126Y-104914599D01*
X187592104Y-104890416D01*
X187523531Y-104880814D01*
X187499315Y-104880174D01*
X187429992Y-104884946D01*
X187354099Y-104902578D01*
X187283572Y-104933201D01*
X187218413Y-104976816D01*
X187175156Y-105015924D01*
X187129603Y-105069046D01*
X187088370Y-105136948D01*
X187059965Y-105211231D01*
X187045828Y-105279981D01*
X187041115Y-105353419D01*
X187045251Y-105422814D01*
X187060528Y-105498001D01*
X187087064Y-105566971D01*
X187124856Y-105629723D01*
X187158743Y-105670739D01*
X187213807Y-105720736D01*
X187275776Y-105760620D01*
X187344650Y-105790392D01*
X187420428Y-105810053D01*
X187466831Y-105816748D01*
G37*
G36*
X187469908Y-104713307D02*
G01*
X187500683Y-104444200D01*
X187430895Y-104429134D01*
X187368532Y-104398486D01*
X187340655Y-104375812D01*
X187298440Y-104318841D01*
X187281899Y-104249791D01*
X187281841Y-104245191D01*
X187293622Y-104176030D01*
X187328965Y-104116948D01*
X187343390Y-104101919D01*
X187404004Y-104063839D01*
X187471425Y-104046781D01*
X187529748Y-104043105D01*
X187603197Y-104049974D01*
X187672080Y-104075803D01*
X187704821Y-104101235D01*
X187744792Y-104158840D01*
X187762379Y-104229927D01*
X187763293Y-104252714D01*
X187752607Y-104323039D01*
X187720550Y-104388689D01*
X187673426Y-104443776D01*
X187653872Y-104461297D01*
X187687724Y-104680481D01*
X188463586Y-104541995D01*
X188463586Y-103827683D01*
X188200976Y-103827683D01*
X188200976Y-104337173D01*
X187954095Y-104379574D01*
X187982518Y-104317027D01*
X188000069Y-104247688D01*
X188004018Y-104194926D01*
X187997784Y-104118872D01*
X187979082Y-104048086D01*
X187947912Y-103982568D01*
X187904273Y-103922320D01*
X187873739Y-103890258D01*
X187813161Y-103841493D01*
X187745122Y-103804706D01*
X187669621Y-103779896D01*
X187598968Y-103768163D01*
X187535903Y-103765108D01*
X187461973Y-103769935D01*
X187391577Y-103784415D01*
X187324716Y-103808550D01*
X187261389Y-103842338D01*
X187226789Y-103865980D01*
X187173299Y-103911549D01*
X187121078Y-103973130D01*
X187081913Y-104042237D01*
X187055802Y-104118869D01*
X187044016Y-104188477D01*
X187041115Y-104247927D01*
X187045203Y-104318608D01*
X187060303Y-104394658D01*
X187086529Y-104463803D01*
X187123882Y-104526043D01*
X187157375Y-104566273D01*
X187212067Y-104615384D01*
X187274417Y-104655004D01*
X187344425Y-104685134D01*
X187410526Y-104703406D01*
X187469908Y-104713307D01*
G37*
G36*
X187063000Y-101938122D02*
G01*
X188485470Y-101938122D01*
X188485470Y-101512065D01*
X187515044Y-101256294D01*
X188485470Y-101003258D01*
X188485470Y-100576517D01*
X187063000Y-100576517D01*
X187063000Y-100840837D01*
X188182853Y-100840837D01*
X187063000Y-101120886D01*
X187063000Y-101394780D01*
X188182853Y-101673803D01*
X187063000Y-101673803D01*
X187063000Y-101938122D01*
G37*
G36*
X187325609Y-99449483D02*
G01*
X187063000Y-99449483D01*
X187063000Y-100396999D01*
X187132670Y-100385458D01*
X187200459Y-100366224D01*
X187266368Y-100339296D01*
X187330397Y-100304675D01*
X187389691Y-100263832D01*
X187446793Y-100217390D01*
X187498803Y-100170625D01*
X187554838Y-100116531D01*
X187614896Y-100055107D01*
X187665840Y-100000690D01*
X187715964Y-99946978D01*
X187769082Y-99891648D01*
X187821360Y-99839677D01*
X187873235Y-99792763D01*
X187894598Y-99776378D01*
X187956628Y-99742413D01*
X188023176Y-99723309D01*
X188058729Y-99720642D01*
X188129199Y-99729935D01*
X188190342Y-99763317D01*
X188196531Y-99769197D01*
X188234150Y-99831210D01*
X188244744Y-99903237D01*
X188233624Y-99975075D01*
X188197250Y-100034808D01*
X188194137Y-100037962D01*
X188131967Y-100075523D01*
X188061025Y-100092265D01*
X188025903Y-100095750D01*
X188052574Y-100365198D01*
X188121718Y-100355206D01*
X188196250Y-100336581D01*
X188261574Y-100310719D01*
X188326147Y-100271400D01*
X188378187Y-100222231D01*
X188384598Y-100214403D01*
X188423902Y-100155725D01*
X188453553Y-100090993D01*
X188473550Y-100020207D01*
X188483894Y-99943367D01*
X188485470Y-99896741D01*
X188481527Y-99821659D01*
X188469698Y-99752853D01*
X188445930Y-99680511D01*
X188411429Y-99616709D01*
X188373314Y-99568820D01*
X188321760Y-99522321D01*
X188256391Y-99483163D01*
X188184140Y-99458923D01*
X188115276Y-99449949D01*
X188094632Y-99449483D01*
X188024845Y-99454292D01*
X187957557Y-99468717D01*
X187914088Y-99483677D01*
X187848772Y-99514900D01*
X187786787Y-99553322D01*
X187734570Y-99591730D01*
X187680201Y-99639719D01*
X187629327Y-99690227D01*
X187576839Y-99745568D01*
X187555393Y-99768855D01*
X187508111Y-99820322D01*
X187458282Y-99873318D01*
X187408082Y-99923700D01*
X187400152Y-99930935D01*
X187346160Y-99973376D01*
X187325609Y-99986329D01*
X187325609Y-99449483D01*
G37*
G36*
X186669085Y-98221919D02*
G01*
X186669085Y-98407592D01*
X186737676Y-98451829D01*
X186807103Y-98492643D01*
X186877364Y-98530034D01*
X186948460Y-98564003D01*
X187020391Y-98594549D01*
X187093157Y-98621672D01*
X187122497Y-98631563D01*
X187195745Y-98653727D01*
X187268242Y-98672135D01*
X187339988Y-98686786D01*
X187410982Y-98697680D01*
X187481225Y-98704818D01*
X187550717Y-98708199D01*
X187578303Y-98708499D01*
X187662963Y-98706170D01*
X187746188Y-98699183D01*
X187827976Y-98687537D01*
X187908329Y-98671233D01*
X187987245Y-98650271D01*
X188064726Y-98624650D01*
X188095316Y-98613098D01*
X188160651Y-98586162D01*
X188224365Y-98557072D01*
X188286460Y-98525828D01*
X188346936Y-98492430D01*
X188405792Y-98456879D01*
X188463029Y-98419174D01*
X188485470Y-98403489D01*
X188485470Y-98218841D01*
X188415249Y-98250471D01*
X188347689Y-98279535D01*
X188282790Y-98306036D01*
X188205408Y-98335555D01*
X188132183Y-98361067D01*
X188063116Y-98382572D01*
X187998205Y-98400069D01*
X187922082Y-98416919D01*
X187844252Y-98430283D01*
X187764715Y-98440160D01*
X187683471Y-98446552D01*
X187614464Y-98449215D01*
X187572490Y-98449651D01*
X187494549Y-98447834D01*
X187425544Y-98443264D01*
X187355787Y-98435913D01*
X187285277Y-98425780D01*
X187254828Y-98420586D01*
X187184537Y-98406689D01*
X187115785Y-98390731D01*
X187048571Y-98372712D01*
X186982895Y-98352630D01*
X186946056Y-98340230D01*
X186877575Y-98314130D01*
X186810960Y-98286134D01*
X186744048Y-98256448D01*
X186680287Y-98227148D01*
X186669085Y-98221919D01*
G37*
G36*
X187569148Y-97136812D02*
G01*
X187637109Y-97148128D01*
X187709832Y-97172057D01*
X187775488Y-97207538D01*
X187834074Y-97254570D01*
X187863647Y-97285505D01*
X187905911Y-97343292D01*
X187936099Y-97405727D01*
X187954212Y-97472808D01*
X187960250Y-97544535D01*
X187952791Y-97616514D01*
X187930416Y-97682337D01*
X187893123Y-97742006D01*
X187840913Y-97795519D01*
X187871033Y-97793425D01*
X187953539Y-97785090D01*
X188024265Y-97773678D01*
X188100240Y-97753674D01*
X188165756Y-97720976D01*
X188188511Y-97701848D01*
X188229625Y-97646096D01*
X188244744Y-97576336D01*
X188240300Y-97534774D01*
X188207131Y-97471360D01*
X188159601Y-97438705D01*
X188091555Y-97421437D01*
X188119594Y-97159853D01*
X188141574Y-97163743D01*
X188213288Y-97182068D01*
X188276886Y-97207725D01*
X188339632Y-97246022D01*
X188391778Y-97293893D01*
X188432768Y-97350014D01*
X188462047Y-97413060D01*
X188479614Y-97483029D01*
X188485470Y-97559923D01*
X188484798Y-97588184D01*
X188474720Y-97668959D01*
X188452549Y-97743723D01*
X188418284Y-97812477D01*
X188371926Y-97875221D01*
X188313474Y-97931953D01*
X188279381Y-97957558D01*
X188214076Y-97994635D01*
X188138170Y-98024717D01*
X188069811Y-98043745D01*
X187994667Y-98058297D01*
X187912738Y-98068370D01*
X187824023Y-98073967D01*
X187753034Y-98075226D01*
X187729541Y-98075092D01*
X187639723Y-98071870D01*
X187556552Y-98064353D01*
X187480027Y-98052540D01*
X187410148Y-98036431D01*
X187332146Y-98010255D01*
X187264530Y-97977367D01*
X187207298Y-97937766D01*
X187187174Y-97920286D01*
X187134593Y-97864271D01*
X187093697Y-97802894D01*
X187064485Y-97736155D01*
X187046958Y-97664055D01*
X187041115Y-97586594D01*
X187041804Y-97573258D01*
X187281841Y-97573258D01*
X187282373Y-97587723D01*
X187300991Y-97655448D01*
X187342364Y-97711744D01*
X187375981Y-97738223D01*
X187444192Y-97765116D01*
X187515044Y-97772267D01*
X187539493Y-97771429D01*
X187608324Y-97757116D01*
X187667549Y-97718583D01*
X187670747Y-97715183D01*
X187708104Y-97654424D01*
X187719524Y-97586594D01*
X187719312Y-97576612D01*
X187704180Y-97508476D01*
X187665156Y-97452212D01*
X187634232Y-97428575D01*
X187567297Y-97404569D01*
X187494528Y-97398185D01*
X187460703Y-97399404D01*
X187392125Y-97412275D01*
X187331422Y-97448108D01*
X187294236Y-97504357D01*
X187281841Y-97573258D01*
X187041804Y-97573258D01*
X187044238Y-97526165D01*
X187056227Y-97458301D01*
X187081579Y-97385537D01*
X187119170Y-97319679D01*
X187169001Y-97260725D01*
X187219903Y-97217613D01*
X187286734Y-97178589D01*
X187361583Y-97151705D01*
X187432120Y-97138325D01*
X187508547Y-97133866D01*
X187569148Y-97136812D01*
G37*
G36*
X187795439Y-96065095D02*
G01*
X187885636Y-96068317D01*
X187969123Y-96075834D01*
X188045899Y-96087647D01*
X188115965Y-96103756D01*
X188194110Y-96129932D01*
X188261770Y-96162821D01*
X188318945Y-96202421D01*
X188339110Y-96219904D01*
X188391800Y-96275959D01*
X188432780Y-96337425D01*
X188462052Y-96404299D01*
X188479615Y-96476583D01*
X188485470Y-96554277D01*
X188482331Y-96614230D01*
X188470278Y-96681678D01*
X188444790Y-96754168D01*
X188406997Y-96819982D01*
X188356900Y-96879120D01*
X188305942Y-96922349D01*
X188239228Y-96961478D01*
X188164693Y-96988434D01*
X188094580Y-97001850D01*
X188018722Y-97006322D01*
X187957727Y-97003375D01*
X187889382Y-96992059D01*
X187816331Y-96968130D01*
X187750479Y-96932650D01*
X187691827Y-96885617D01*
X187662415Y-96854725D01*
X187620380Y-96797218D01*
X187590355Y-96735326D01*
X187572340Y-96669050D01*
X187566335Y-96598387D01*
X187570961Y-96552568D01*
X187807061Y-96552568D01*
X187807272Y-96562551D01*
X187822309Y-96630782D01*
X187861087Y-96687292D01*
X187891948Y-96710779D01*
X187958504Y-96734633D01*
X188030690Y-96740976D01*
X188064712Y-96739766D01*
X188133626Y-96726983D01*
X188194479Y-96691395D01*
X188232178Y-96635488D01*
X188244744Y-96566929D01*
X188244206Y-96552287D01*
X188225378Y-96484126D01*
X188183537Y-96428101D01*
X188150005Y-96401772D01*
X188082298Y-96375031D01*
X188012225Y-96367920D01*
X187987766Y-96368753D01*
X187918752Y-96382975D01*
X187859036Y-96421263D01*
X187855838Y-96424621D01*
X187818481Y-96484887D01*
X187807061Y-96552568D01*
X187570961Y-96552568D01*
X187573730Y-96525148D01*
X187595913Y-96458278D01*
X187632885Y-96397776D01*
X187684646Y-96343642D01*
X187654649Y-96345859D01*
X187572447Y-96354499D01*
X187501930Y-96366119D01*
X187426084Y-96386251D01*
X187360487Y-96418869D01*
X187337830Y-96437759D01*
X187296894Y-96492656D01*
X187281841Y-96561116D01*
X187287130Y-96607214D01*
X187319454Y-96667801D01*
X187367155Y-96700457D01*
X187435030Y-96717725D01*
X187406991Y-96979309D01*
X187384522Y-96975432D01*
X187311476Y-96957364D01*
X187247134Y-96932292D01*
X187184260Y-96895063D01*
X187132755Y-96848688D01*
X187088457Y-96786339D01*
X187061251Y-96722471D01*
X187045500Y-96650653D01*
X187041115Y-96581290D01*
X187041786Y-96552905D01*
X187051844Y-96471806D01*
X187073971Y-96396788D01*
X187108168Y-96327854D01*
X187154434Y-96265003D01*
X187212769Y-96208234D01*
X187246851Y-96182630D01*
X187312081Y-96145552D01*
X187387847Y-96115470D01*
X187456046Y-96096442D01*
X187530987Y-96081891D01*
X187612670Y-96071817D01*
X187701097Y-96066220D01*
X187771841Y-96064961D01*
X187795439Y-96065095D01*
G37*
G36*
X187063000Y-95837571D02*
G01*
X187325609Y-95837571D01*
X187325609Y-95567096D01*
X187063000Y-95567096D01*
X187063000Y-95837571D01*
G37*
G36*
X188200976Y-95350648D02*
G01*
X188463586Y-95350648D01*
X188463586Y-94426385D01*
X188266628Y-94426385D01*
X188212233Y-94476680D01*
X188158081Y-94520077D01*
X188096980Y-94563739D01*
X188028932Y-94607665D01*
X187966917Y-94644472D01*
X187940759Y-94659246D01*
X187873849Y-94694849D01*
X187805620Y-94727714D01*
X187736071Y-94757841D01*
X187665204Y-94785229D01*
X187593017Y-94809880D01*
X187519512Y-94831792D01*
X187489741Y-94839790D01*
X187416390Y-94857595D01*
X187345511Y-94872328D01*
X187277103Y-94883989D01*
X187198275Y-94893926D01*
X187123006Y-94899440D01*
X187063000Y-94900655D01*
X187063000Y-95161214D01*
X187136180Y-95157832D01*
X187209713Y-95151105D01*
X187283599Y-95141034D01*
X187357837Y-95127618D01*
X187432428Y-95110858D01*
X187507372Y-95090753D01*
X187582668Y-95067303D01*
X187658317Y-95040509D01*
X187733218Y-95010846D01*
X187806099Y-94978789D01*
X187876961Y-94944338D01*
X187945803Y-94907494D01*
X188012626Y-94868257D01*
X188077429Y-94826625D01*
X188140212Y-94782601D01*
X188200976Y-94736182D01*
X188200976Y-95350648D01*
G37*
G36*
X187469908Y-94256782D02*
G01*
X187500683Y-93987676D01*
X187430895Y-93972609D01*
X187368532Y-93941961D01*
X187340655Y-93919288D01*
X187298440Y-93862317D01*
X187281899Y-93793266D01*
X187281841Y-93788667D01*
X187293622Y-93719505D01*
X187328965Y-93660423D01*
X187343390Y-93645394D01*
X187404004Y-93607314D01*
X187471425Y-93590256D01*
X187529748Y-93586580D01*
X187603197Y-93593449D01*
X187672080Y-93619278D01*
X187704821Y-93644710D01*
X187744792Y-93702315D01*
X187762379Y-93773402D01*
X187763293Y-93796189D01*
X187752607Y-93866514D01*
X187720550Y-93932164D01*
X187673426Y-93987252D01*
X187653872Y-94004773D01*
X187687724Y-94223956D01*
X188463586Y-94085471D01*
X188463586Y-93371158D01*
X188200976Y-93371158D01*
X188200976Y-93880648D01*
X187954095Y-93923049D01*
X187982518Y-93860502D01*
X188000069Y-93791163D01*
X188004018Y-93738401D01*
X187997784Y-93662347D01*
X187979082Y-93591561D01*
X187947912Y-93526044D01*
X187904273Y-93465795D01*
X187873739Y-93433733D01*
X187813161Y-93384968D01*
X187745122Y-93348181D01*
X187669621Y-93323371D01*
X187598968Y-93311638D01*
X187535903Y-93308583D01*
X187461973Y-93313410D01*
X187391577Y-93327890D01*
X187324716Y-93352025D01*
X187261389Y-93385813D01*
X187226789Y-93409455D01*
X187173299Y-93455024D01*
X187121078Y-93516606D01*
X187081913Y-93585712D01*
X187055802Y-93662344D01*
X187044016Y-93731953D01*
X187041115Y-93791402D01*
X187045203Y-93862084D01*
X187060303Y-93938133D01*
X187086529Y-94007278D01*
X187123882Y-94069519D01*
X187157375Y-94109748D01*
X187212067Y-94158859D01*
X187274417Y-94198479D01*
X187344425Y-94228609D01*
X187410526Y-94246882D01*
X187469908Y-94256782D01*
G37*
G36*
X187063000Y-92698220D02*
G01*
X187592665Y-92329951D01*
X188091555Y-92682833D01*
X188091555Y-92353203D01*
X187808771Y-92172316D01*
X188091555Y-91981856D01*
X188091555Y-91664535D01*
X187604290Y-92010579D01*
X187063000Y-91632735D01*
X187063000Y-91964417D01*
X187381688Y-92172316D01*
X187063000Y-92381926D01*
X187063000Y-92698220D01*
G37*
G36*
X187466831Y-91001172D02*
G01*
X187500683Y-90739588D01*
X187433471Y-90725920D01*
X187369250Y-90696952D01*
X187337919Y-90672226D01*
X187297668Y-90615826D01*
X187282060Y-90549207D01*
X187281841Y-90539553D01*
X187294080Y-90471588D01*
X187330797Y-90413703D01*
X187345784Y-90399016D01*
X187405130Y-90361822D01*
X187473035Y-90344319D01*
X187518464Y-90341570D01*
X187589437Y-90349311D01*
X187652869Y-90375171D01*
X187681227Y-90396622D01*
X187724424Y-90453172D01*
X187741173Y-90520241D01*
X187741408Y-90529979D01*
X187734296Y-90598811D01*
X187721234Y-90654103D01*
X187938366Y-90624354D01*
X187942223Y-90555074D01*
X187961575Y-90489138D01*
X187981450Y-90457145D01*
X188034793Y-90413804D01*
X188103181Y-90399357D01*
X188170643Y-90414305D01*
X188206105Y-90441758D01*
X188239310Y-90505418D01*
X188244744Y-90554256D01*
X188232102Y-90622048D01*
X188199950Y-90672568D01*
X188141042Y-90713713D01*
X188069671Y-90732065D01*
X188108994Y-90980997D01*
X188178303Y-90964297D01*
X188245542Y-90940855D01*
X188307626Y-90909130D01*
X188317577Y-90902693D01*
X188371593Y-90857637D01*
X188416184Y-90800945D01*
X188440676Y-90756685D01*
X188466179Y-90689410D01*
X188481095Y-90616883D01*
X188485470Y-90546392D01*
X188481106Y-90474540D01*
X188464984Y-90397733D01*
X188436984Y-90328485D01*
X188397104Y-90266797D01*
X188361346Y-90227362D01*
X188302111Y-90179427D01*
X188238656Y-90147179D01*
X188170982Y-90130620D01*
X188131562Y-90128199D01*
X188055643Y-90137902D01*
X187986760Y-90167011D01*
X187924912Y-90215525D01*
X187877500Y-90272554D01*
X187841939Y-90330969D01*
X187818824Y-90260057D01*
X187782821Y-90198628D01*
X187733927Y-90146683D01*
X187722602Y-90137431D01*
X187661126Y-90099023D01*
X187592104Y-90074840D01*
X187523531Y-90065238D01*
X187499315Y-90064598D01*
X187429992Y-90069371D01*
X187354099Y-90087002D01*
X187283572Y-90117626D01*
X187218413Y-90161241D01*
X187175156Y-90200348D01*
X187129603Y-90253471D01*
X187088370Y-90321372D01*
X187059965Y-90395655D01*
X187045828Y-90464405D01*
X187041115Y-90537843D01*
X187045251Y-90607238D01*
X187060528Y-90682426D01*
X187087064Y-90751395D01*
X187124856Y-90814147D01*
X187158743Y-90855163D01*
X187213807Y-90905160D01*
X187275776Y-90945044D01*
X187344650Y-90974817D01*
X187420428Y-90994477D01*
X187466831Y-91001172D01*
G37*
G36*
X187812324Y-88987682D02*
G01*
X187883037Y-88990501D01*
X187971076Y-88998019D01*
X188051977Y-89009832D01*
X188125740Y-89025940D01*
X188207905Y-89052117D01*
X188278918Y-89085005D01*
X188338778Y-89124605D01*
X188388630Y-89171072D01*
X188433755Y-89233183D01*
X188464841Y-89303803D01*
X188480313Y-89371107D01*
X188485470Y-89444661D01*
X188481939Y-89506464D01*
X188468379Y-89574809D01*
X188439705Y-89646523D01*
X188397188Y-89709598D01*
X188340829Y-89764033D01*
X188280445Y-89803929D01*
X188209142Y-89837063D01*
X188144238Y-89858701D01*
X188072345Y-89876012D01*
X187993464Y-89888995D01*
X187907594Y-89897650D01*
X187838606Y-89901302D01*
X187765686Y-89902519D01*
X187740476Y-89902396D01*
X187667758Y-89900553D01*
X187577598Y-89894654D01*
X187495206Y-89884823D01*
X187420583Y-89871060D01*
X187338229Y-89848327D01*
X187268013Y-89819449D01*
X187199775Y-89776685D01*
X187180563Y-89760602D01*
X187130362Y-89708617D01*
X187091316Y-89651031D01*
X187063427Y-89587843D01*
X187046693Y-89519053D01*
X187041115Y-89444661D01*
X187281841Y-89444661D01*
X187283700Y-89468447D01*
X187311590Y-89531856D01*
X187364376Y-89570444D01*
X187431611Y-89594773D01*
X187470764Y-89603256D01*
X187539462Y-89611836D01*
X187615035Y-89616785D01*
X187691299Y-89619125D01*
X187762951Y-89619734D01*
X187820963Y-89619296D01*
X187899847Y-89616996D01*
X187968969Y-89612725D01*
X188037275Y-89605249D01*
X188105575Y-89591695D01*
X188157571Y-89573551D01*
X188214311Y-89532198D01*
X188227626Y-89512237D01*
X188244744Y-89444661D01*
X188242842Y-89420896D01*
X188214311Y-89357808D01*
X188161141Y-89318943D01*
X188093607Y-89294549D01*
X188054581Y-89286066D01*
X187986054Y-89277486D01*
X187910631Y-89272537D01*
X187834496Y-89270197D01*
X187762951Y-89269588D01*
X187704874Y-89270026D01*
X187625974Y-89272326D01*
X187556932Y-89276598D01*
X187488841Y-89284073D01*
X187421011Y-89297627D01*
X187369014Y-89315771D01*
X187312274Y-89357124D01*
X187298959Y-89377085D01*
X187281841Y-89444661D01*
X187041115Y-89444661D01*
X187044647Y-89382957D01*
X187058207Y-89314707D01*
X187086881Y-89243075D01*
X187129397Y-89180050D01*
X187185756Y-89125631D01*
X187246190Y-89085735D01*
X187317643Y-89052601D01*
X187382740Y-89030963D01*
X187454889Y-89013652D01*
X187534091Y-89000669D01*
X187620346Y-88992014D01*
X187689665Y-88988363D01*
X187762951Y-88987145D01*
X187812324Y-88987682D01*
G37*
G36*
X187063000Y-88753942D02*
G01*
X187325609Y-88753942D01*
X187325609Y-88483468D01*
X187063000Y-88483468D01*
X187063000Y-88753942D01*
G37*
G36*
X187469908Y-88263258D02*
G01*
X187500683Y-87994152D01*
X187430895Y-87979085D01*
X187368532Y-87948437D01*
X187340655Y-87925764D01*
X187298440Y-87868793D01*
X187281899Y-87799742D01*
X187281841Y-87795143D01*
X187293622Y-87725981D01*
X187328965Y-87666899D01*
X187343390Y-87651870D01*
X187404004Y-87613790D01*
X187471425Y-87596732D01*
X187529748Y-87593056D01*
X187603197Y-87599925D01*
X187672080Y-87625754D01*
X187704821Y-87651186D01*
X187744792Y-87708791D01*
X187762379Y-87779878D01*
X187763293Y-87802665D01*
X187752607Y-87872990D01*
X187720550Y-87938640D01*
X187673426Y-87993728D01*
X187653872Y-88011249D01*
X187687724Y-88230432D01*
X188463586Y-88091946D01*
X188463586Y-87377634D01*
X188200976Y-87377634D01*
X188200976Y-87887124D01*
X187954095Y-87929525D01*
X187982518Y-87866978D01*
X188000069Y-87797639D01*
X188004018Y-87744877D01*
X187997784Y-87668823D01*
X187979082Y-87598037D01*
X187947912Y-87532520D01*
X187904273Y-87472271D01*
X187873739Y-87440209D01*
X187813161Y-87391444D01*
X187745122Y-87354657D01*
X187669621Y-87329847D01*
X187598968Y-87318114D01*
X187535903Y-87315059D01*
X187461973Y-87319886D01*
X187391577Y-87334366D01*
X187324716Y-87358501D01*
X187261389Y-87392289D01*
X187226789Y-87415931D01*
X187173299Y-87461500D01*
X187121078Y-87523082D01*
X187081913Y-87592188D01*
X187055802Y-87668820D01*
X187044016Y-87738429D01*
X187041115Y-87797878D01*
X187045203Y-87868559D01*
X187060303Y-87944609D01*
X187086529Y-88013754D01*
X187123882Y-88075994D01*
X187157375Y-88116224D01*
X187212067Y-88165335D01*
X187274417Y-88204955D01*
X187344425Y-88235085D01*
X187410526Y-88253357D01*
X187469908Y-88263258D01*
G37*
G36*
X186669085Y-87194354D02*
G01*
X186738940Y-87161622D01*
X186801302Y-87133439D01*
X186870470Y-87103888D01*
X186927249Y-87081856D01*
X186992074Y-87059894D01*
X187063363Y-87039144D01*
X187133781Y-87021332D01*
X187205916Y-87005244D01*
X187275713Y-86992027D01*
X187349790Y-86980805D01*
X187356384Y-86979958D01*
X187429591Y-86972170D01*
X187503928Y-86967616D01*
X187572490Y-86966280D01*
X187642209Y-86967482D01*
X187710742Y-86971089D01*
X187791417Y-86978590D01*
X187870385Y-86989553D01*
X187947646Y-87003979D01*
X187998205Y-87015519D01*
X188076596Y-87036777D01*
X188146495Y-87058955D01*
X188220552Y-87085190D01*
X188298766Y-87115482D01*
X188364330Y-87142637D01*
X188432555Y-87172388D01*
X188485470Y-87196406D01*
X188485470Y-87012442D01*
X188421396Y-86968623D01*
X188356120Y-86927992D01*
X188289642Y-86890551D01*
X188221962Y-86856298D01*
X188153080Y-86825235D01*
X188082996Y-86797360D01*
X188054625Y-86787103D01*
X187983292Y-86763954D01*
X187911625Y-86744728D01*
X187839624Y-86729426D01*
X187767289Y-86718048D01*
X187694620Y-86710593D01*
X187621617Y-86707061D01*
X187592323Y-86706748D01*
X187517326Y-86708984D01*
X187440309Y-86715691D01*
X187361273Y-86726871D01*
X187293866Y-86739604D01*
X187225058Y-86755442D01*
X187169001Y-86770348D01*
X187089987Y-86795076D01*
X187011308Y-86824378D01*
X186932962Y-86858254D01*
X186870526Y-86888650D01*
X186808304Y-86921973D01*
X186746295Y-86958224D01*
X186684500Y-86997403D01*
X186669085Y-87007655D01*
X186669085Y-87194354D01*
G37*
D14*
G36*
X114584292Y-106261115D02*
G01*
X114649746Y-106273656D01*
X114708293Y-106295319D01*
X114765901Y-106330591D01*
X114793853Y-106354258D01*
X114835976Y-106401216D01*
X114867569Y-106453777D01*
X114888633Y-106511941D01*
X114894087Y-106537835D01*
X114901573Y-106604355D01*
X114905326Y-106673791D01*
X114907100Y-106745633D01*
X114907562Y-106814192D01*
X114907562Y-107222077D01*
X113637500Y-107222077D01*
X113637500Y-106967759D01*
X114125985Y-106967759D01*
X114125985Y-106828541D01*
X114340919Y-106828541D01*
X114340919Y-106967759D01*
X114692629Y-106967759D01*
X114692629Y-106845027D01*
X114692220Y-106789318D01*
X114690216Y-106724990D01*
X114684080Y-106662151D01*
X114666531Y-106608810D01*
X114629125Y-106559874D01*
X114579285Y-106529649D01*
X114517690Y-106519574D01*
X114478363Y-106523610D01*
X114421214Y-106548272D01*
X114393164Y-106572887D01*
X114360153Y-106627651D01*
X114357824Y-106634375D01*
X114346347Y-106697033D01*
X114342121Y-106759657D01*
X114340919Y-106828541D01*
X114125985Y-106828541D01*
X114125985Y-106801980D01*
X114126847Y-106730413D01*
X114129433Y-106666648D01*
X114134499Y-106603326D01*
X114143998Y-106538503D01*
X114149316Y-106517573D01*
X114172056Y-106459603D01*
X114203532Y-106406612D01*
X114224789Y-106379376D01*
X114272870Y-106334531D01*
X114327180Y-106299755D01*
X114337169Y-106294653D01*
X114397226Y-106272477D01*
X114459336Y-106260956D01*
X114521353Y-106257623D01*
X114584292Y-106261115D01*
G37*
G36*
X114125985Y-105250427D02*
G01*
X114047827Y-105004047D01*
X113985376Y-105023626D01*
X113928157Y-105046873D01*
X113866401Y-105079610D01*
X113812180Y-105117627D01*
X113765493Y-105160925D01*
X113738555Y-105192725D01*
X113704212Y-105244570D01*
X113676974Y-105301417D01*
X113656842Y-105363266D01*
X113643815Y-105430117D01*
X113637894Y-105501970D01*
X113637500Y-105527032D01*
X113640152Y-105588303D01*
X113650927Y-105660973D01*
X113669990Y-105729291D01*
X113697343Y-105793255D01*
X113732983Y-105852867D01*
X113776912Y-105908126D01*
X113807248Y-105939192D01*
X113863336Y-105985631D01*
X113925506Y-106024200D01*
X113993758Y-106054897D01*
X114052739Y-106073788D01*
X114115612Y-106087641D01*
X114182378Y-106096456D01*
X114253037Y-106100235D01*
X114271310Y-106100392D01*
X114346987Y-106097859D01*
X114418313Y-106090260D01*
X114485289Y-106077594D01*
X114547915Y-106059863D01*
X114606190Y-106037065D01*
X114672915Y-106001444D01*
X114732843Y-105957907D01*
X114754911Y-105938276D01*
X114804516Y-105885030D01*
X114845714Y-105826804D01*
X114878505Y-105763600D01*
X114902887Y-105695416D01*
X114918862Y-105622254D01*
X114925588Y-105560139D01*
X114927102Y-105511461D01*
X114923569Y-105441362D01*
X114912970Y-105375512D01*
X114895304Y-105313910D01*
X114870573Y-105256557D01*
X114838775Y-105203452D01*
X114799912Y-105154596D01*
X114782388Y-105136243D01*
X114734837Y-105096020D01*
X114677974Y-105061139D01*
X114620581Y-105035001D01*
X114556058Y-105012953D01*
X114536313Y-105007405D01*
X114497234Y-105258975D01*
X114560718Y-105280034D01*
X114614317Y-105312565D01*
X114654466Y-105352093D01*
X114687318Y-105404397D01*
X114706533Y-105463915D01*
X114712168Y-105524284D01*
X114705947Y-105590917D01*
X114687286Y-105650985D01*
X114656183Y-105704490D01*
X114612639Y-105751430D01*
X114555147Y-105789498D01*
X114492162Y-105813885D01*
X114428757Y-105828160D01*
X114356657Y-105836317D01*
X114289933Y-105838442D01*
X114219317Y-105836347D01*
X114155349Y-105830064D01*
X114087364Y-105816994D01*
X114028954Y-105797892D01*
X113972908Y-105767983D01*
X113952878Y-105752651D01*
X113908933Y-105706531D01*
X113877544Y-105653962D01*
X113858711Y-105594943D01*
X113852433Y-105529474D01*
X113860226Y-105463144D01*
X113883603Y-105403524D01*
X113918379Y-105355146D01*
X113966989Y-105313566D01*
X114023382Y-105283027D01*
X114083565Y-105261356D01*
X114125985Y-105250427D01*
G37*
G36*
X114016805Y-103737890D02*
G01*
X114081234Y-103746363D01*
X114140119Y-103766941D01*
X114193457Y-103799624D01*
X114208211Y-103811657D01*
X114251383Y-103858550D01*
X114285312Y-103915878D01*
X114307946Y-103976395D01*
X114329069Y-103937755D01*
X114369555Y-103887738D01*
X114420603Y-103847252D01*
X114459071Y-103826415D01*
X114520208Y-103806322D01*
X114585467Y-103799624D01*
X114616028Y-103800988D01*
X114678268Y-103813294D01*
X114735066Y-103838398D01*
X114751361Y-103848320D01*
X114801784Y-103887857D01*
X114841922Y-103934874D01*
X114851563Y-103949619D01*
X114878469Y-104005059D01*
X114894740Y-104066460D01*
X114899736Y-104102154D01*
X114904745Y-104165767D01*
X114906949Y-104227348D01*
X114907562Y-104289026D01*
X114907562Y-104792166D01*
X113637500Y-104792166D01*
X113637500Y-104363520D01*
X113637886Y-104319531D01*
X113638097Y-104302765D01*
X113852433Y-104302765D01*
X113852433Y-104538154D01*
X114184603Y-104538154D01*
X114184603Y-104371458D01*
X114399537Y-104371458D01*
X114399537Y-104538154D01*
X114692629Y-104538154D01*
X114692629Y-104392219D01*
X114692624Y-104381137D01*
X114692361Y-104311313D01*
X114691422Y-104241461D01*
X114688354Y-104174842D01*
X114678365Y-104131637D01*
X114643780Y-104079282D01*
X114610335Y-104058329D01*
X114548220Y-104046920D01*
X114502290Y-104053118D01*
X114449302Y-104084473D01*
X114420603Y-104125563D01*
X114403811Y-104187055D01*
X114400890Y-104240082D01*
X114399804Y-104304291D01*
X114399537Y-104371458D01*
X114184603Y-104371458D01*
X114184603Y-104332990D01*
X114184445Y-104301488D01*
X114182844Y-104236312D01*
X114178253Y-104169645D01*
X114166591Y-104107370D01*
X114151891Y-104074574D01*
X114109804Y-104027991D01*
X114075479Y-104010201D01*
X114015160Y-104000514D01*
X113965765Y-104006409D01*
X113909525Y-104036235D01*
X113882362Y-104068537D01*
X113860066Y-104128436D01*
X113855124Y-104175029D01*
X113852910Y-104240349D01*
X113852433Y-104302765D01*
X113638097Y-104302765D01*
X113638721Y-104253229D01*
X113640037Y-104185237D01*
X113642007Y-104121866D01*
X113646048Y-104056995D01*
X113655348Y-104002540D01*
X113674718Y-103942936D01*
X113705887Y-103886636D01*
X113732201Y-103853949D01*
X113779327Y-103811717D01*
X113835642Y-103777643D01*
X113876686Y-103760145D01*
X113939325Y-103743272D01*
X114003253Y-103737648D01*
X114016805Y-103737890D01*
G37*
G36*
X113637500Y-102723124D02*
G01*
X114907562Y-103173142D01*
X114907562Y-102897452D01*
X113969670Y-102579021D01*
X114907562Y-102270664D01*
X114907562Y-102001081D01*
X113637500Y-102451709D01*
X113637500Y-102723124D01*
G37*
G36*
X113637500Y-101878044D02*
G01*
X114907562Y-101878044D01*
X114907562Y-100944731D01*
X114692629Y-100944731D01*
X114692629Y-101623726D01*
X114419077Y-101623726D01*
X114419077Y-100991748D01*
X114204143Y-100991748D01*
X114204143Y-101623726D01*
X113852433Y-101623726D01*
X113852433Y-100920612D01*
X113637500Y-100920612D01*
X113637500Y-101878044D01*
G37*
G36*
X113884795Y-99732981D02*
G01*
X113937145Y-99765789D01*
X113990190Y-99800755D01*
X114040221Y-99836352D01*
X114090570Y-99877695D01*
X114122451Y-99910042D01*
X114162629Y-99960310D01*
X114197121Y-100013555D01*
X114200442Y-99993156D01*
X114216293Y-99926848D01*
X114238719Y-99868459D01*
X114272397Y-99811425D01*
X114314663Y-99764733D01*
X114364351Y-99728268D01*
X114420298Y-99702222D01*
X114482503Y-99686594D01*
X114550968Y-99681385D01*
X114564989Y-99681599D01*
X114632126Y-99689113D01*
X114694314Y-99707359D01*
X114751552Y-99736339D01*
X114801098Y-99774264D01*
X114843547Y-99824245D01*
X114873368Y-99882885D01*
X114883219Y-99914110D01*
X114895508Y-99975295D01*
X114902754Y-100040164D01*
X114906360Y-100104185D01*
X114907562Y-100175976D01*
X114907562Y-100710868D01*
X113637500Y-100710868D01*
X113637500Y-100456856D01*
X114165064Y-100456856D01*
X114165064Y-100405259D01*
X114165050Y-100399829D01*
X114162376Y-100337648D01*
X114151020Y-100277337D01*
X114147102Y-100268789D01*
X114379998Y-100268789D01*
X114379998Y-100456856D01*
X114692629Y-100456856D01*
X114692629Y-100258408D01*
X114692424Y-100196739D01*
X114691560Y-100134837D01*
X114688354Y-100073089D01*
X114675533Y-100027369D01*
X114640116Y-99977224D01*
X114602107Y-99954058D01*
X114539672Y-99943335D01*
X114506762Y-99945869D01*
X114447165Y-99969286D01*
X114426193Y-99987252D01*
X114394958Y-100040422D01*
X114387726Y-100076877D01*
X114382467Y-100142875D01*
X114380524Y-100205040D01*
X114379998Y-100268789D01*
X114147102Y-100268789D01*
X114138551Y-100250136D01*
X114099118Y-100201011D01*
X114073645Y-100179125D01*
X114022966Y-100140873D01*
X113967353Y-100101555D01*
X113916852Y-100066983D01*
X113637500Y-99883190D01*
X113637500Y-99579108D01*
X113884795Y-99732981D01*
G37*
G36*
X113637500Y-99450881D02*
G01*
X113871973Y-99450881D01*
X113871973Y-99209385D01*
X113637500Y-99209385D01*
X113637500Y-99450881D01*
G37*
G36*
X113637500Y-97912761D02*
G01*
X113637500Y-98153951D01*
X114556463Y-98153951D01*
X114509201Y-98205188D01*
X114466790Y-98259753D01*
X114429230Y-98317645D01*
X114396522Y-98378864D01*
X114368666Y-98443411D01*
X114360458Y-98465666D01*
X114594931Y-98465666D01*
X114619129Y-98405094D01*
X114649982Y-98347827D01*
X114684625Y-98294732D01*
X114709726Y-98260502D01*
X114753918Y-98209440D01*
X114801622Y-98167079D01*
X114852837Y-98133419D01*
X114907562Y-98108461D01*
X114907562Y-97912761D01*
X113637500Y-97912761D01*
G37*
D15*
G36*
X117864240Y-107020931D02*
G01*
X117929025Y-107024447D01*
X117999330Y-107032359D01*
X118063953Y-107044373D01*
X118130849Y-107063126D01*
X118169478Y-107077482D01*
X118234166Y-107108168D01*
X118292625Y-107145083D01*
X118344855Y-107188227D01*
X118370938Y-107214724D01*
X118411325Y-107266444D01*
X118443273Y-107323337D01*
X118466781Y-107385404D01*
X118477755Y-107433131D01*
X118486353Y-107498446D01*
X118490665Y-107566836D01*
X118491865Y-107634654D01*
X118491865Y-108117913D01*
X117171000Y-108117913D01*
X117171000Y-107656245D01*
X117394531Y-107656245D01*
X117394531Y-107853422D01*
X118268334Y-107853422D01*
X118268334Y-107734672D01*
X118268321Y-107724674D01*
X118267329Y-107652177D01*
X118264315Y-107586510D01*
X118255633Y-107517808D01*
X118254592Y-107513190D01*
X118231978Y-107450098D01*
X118193400Y-107395565D01*
X118181404Y-107383837D01*
X118126344Y-107345865D01*
X118065759Y-107320631D01*
X118038430Y-107312856D01*
X117973402Y-107301259D01*
X117903052Y-107295329D01*
X117831115Y-107293642D01*
X117793856Y-107294064D01*
X117725352Y-107297438D01*
X117657868Y-107305265D01*
X117589168Y-107320631D01*
X117572996Y-107325771D01*
X117513043Y-107351271D01*
X117461844Y-107389849D01*
X117430709Y-107434254D01*
X117407231Y-107496217D01*
X117402282Y-107520696D01*
X117396031Y-107587340D01*
X117394531Y-107656245D01*
X117171000Y-107656245D01*
X117171000Y-107620366D01*
X117171436Y-107584690D01*
X117174929Y-107518845D01*
X117183033Y-107453546D01*
X117198941Y-107386357D01*
X117203781Y-107371938D01*
X117228444Y-107311691D01*
X117261387Y-107253645D01*
X117304356Y-107200610D01*
X117309986Y-107194956D01*
X117358888Y-107152692D01*
X117414657Y-107115706D01*
X117477292Y-107083999D01*
X117537730Y-107060586D01*
X117552669Y-107055703D01*
X117615925Y-107039321D01*
X117684776Y-107027980D01*
X117749611Y-107022191D01*
X117818732Y-107020261D01*
X117864240Y-107020931D01*
G37*
G36*
X117171000Y-106803715D02*
G01*
X118491865Y-106803715D01*
X118491865Y-105833070D01*
X118268334Y-105833070D01*
X118268334Y-106539225D01*
X117983840Y-106539225D01*
X117983840Y-105881967D01*
X117760309Y-105881967D01*
X117760309Y-106539225D01*
X117394531Y-106539225D01*
X117394531Y-105807986D01*
X117171000Y-105807986D01*
X117171000Y-106803715D01*
G37*
G36*
X118155664Y-104591405D02*
G01*
X118223736Y-104604448D01*
X118284625Y-104626976D01*
X118344538Y-104663660D01*
X118373607Y-104688273D01*
X118417415Y-104737110D01*
X118450272Y-104791774D01*
X118472179Y-104852264D01*
X118477850Y-104879194D01*
X118485636Y-104948374D01*
X118489539Y-105020588D01*
X118491384Y-105095303D01*
X118491865Y-105166605D01*
X118491865Y-105590806D01*
X117171000Y-105590806D01*
X117171000Y-105326315D01*
X117679025Y-105326315D01*
X117679025Y-105181528D01*
X117902556Y-105181528D01*
X117902556Y-105326315D01*
X118268334Y-105326315D01*
X118268334Y-105198674D01*
X118267908Y-105140736D01*
X118265825Y-105073834D01*
X118259443Y-105008482D01*
X118241192Y-104953008D01*
X118202290Y-104902114D01*
X118150456Y-104870680D01*
X118086397Y-104860202D01*
X118045497Y-104864399D01*
X117986062Y-104890048D01*
X117956891Y-104915648D01*
X117922559Y-104972602D01*
X117920137Y-104979595D01*
X117908201Y-105044760D01*
X117903806Y-105109888D01*
X117902556Y-105181528D01*
X117679025Y-105181528D01*
X117679025Y-105153904D01*
X117679921Y-105079475D01*
X117682610Y-105013159D01*
X117687879Y-104947304D01*
X117697758Y-104879888D01*
X117703288Y-104858121D01*
X117726938Y-104797832D01*
X117759674Y-104742721D01*
X117781780Y-104714396D01*
X117831784Y-104667758D01*
X117888267Y-104631591D01*
X117898656Y-104626285D01*
X117961115Y-104603221D01*
X118025710Y-104591239D01*
X118090207Y-104587773D01*
X118155664Y-104591405D01*
G37*
G36*
X117171000Y-104083241D02*
G01*
X118268334Y-104083241D01*
X118268334Y-104471563D01*
X118491865Y-104471563D01*
X118491865Y-103431381D01*
X118268334Y-103431381D01*
X118268334Y-103818750D01*
X117171000Y-103818750D01*
X117171000Y-104083241D01*
G37*
G36*
X117171000Y-103470436D02*
G01*
X117414852Y-103470436D01*
X117414852Y-103219281D01*
X117171000Y-103219281D01*
X117171000Y-103470436D01*
G37*
G36*
X117869181Y-101241836D02*
G01*
X117945176Y-101247264D01*
X118016756Y-101258119D01*
X118083920Y-101274402D01*
X118146669Y-101296112D01*
X118205003Y-101323249D01*
X118271711Y-101364804D01*
X118331519Y-101414839D01*
X118383567Y-101471944D01*
X118426793Y-101534707D01*
X118461197Y-101603130D01*
X118486780Y-101677211D01*
X118500894Y-101740551D01*
X118509363Y-101807512D01*
X118512186Y-101878094D01*
X118511982Y-101897913D01*
X118508067Y-101964993D01*
X118499168Y-102028517D01*
X118482895Y-102096764D01*
X118460113Y-102160366D01*
X118457652Y-102166087D01*
X118425256Y-102227178D01*
X118387340Y-102279785D01*
X118341362Y-102329602D01*
X118331318Y-102339120D01*
X118278643Y-102382915D01*
X118221875Y-102420384D01*
X118161013Y-102451528D01*
X118098197Y-102474787D01*
X118029211Y-102492333D01*
X117965171Y-102502826D01*
X117896599Y-102509122D01*
X117823494Y-102511221D01*
X117803980Y-102511052D01*
X117728557Y-102507011D01*
X117657352Y-102497583D01*
X117590364Y-102482766D01*
X117527592Y-102462562D01*
X117455058Y-102429730D01*
X117389113Y-102388479D01*
X117329757Y-102338810D01*
X117278167Y-102282009D01*
X117235321Y-102219363D01*
X117201219Y-102150872D01*
X117175861Y-102076537D01*
X117161871Y-102012860D01*
X117153477Y-101945442D01*
X117150715Y-101875237D01*
X117374210Y-101875237D01*
X117374663Y-101894786D01*
X117383402Y-101959811D01*
X117407007Y-102027650D01*
X117445139Y-102088583D01*
X117490420Y-102136235D01*
X117505412Y-102148654D01*
X117564582Y-102185811D01*
X117623595Y-102209848D01*
X117690266Y-102226674D01*
X117764595Y-102236288D01*
X117832385Y-102238792D01*
X117846580Y-102238695D01*
X117914181Y-102235276D01*
X117987873Y-102224727D01*
X118053461Y-102207146D01*
X118119738Y-102177746D01*
X118174984Y-102138775D01*
X118188749Y-102126025D01*
X118234928Y-102070062D01*
X118266898Y-102006162D01*
X118283215Y-101943738D01*
X118288655Y-101875237D01*
X118288216Y-101855088D01*
X118279764Y-101788534D01*
X118256932Y-101720025D01*
X118220051Y-101659573D01*
X118176254Y-101613286D01*
X118169136Y-101607211D01*
X118112950Y-101570084D01*
X118045642Y-101542408D01*
X117979097Y-101526207D01*
X117904382Y-101516950D01*
X117835877Y-101514539D01*
X117821563Y-101514638D01*
X117753367Y-101518100D01*
X117678960Y-101528782D01*
X117612658Y-101546587D01*
X117545547Y-101576360D01*
X117489468Y-101615826D01*
X117475511Y-101628709D01*
X117433752Y-101677296D01*
X117399535Y-101739485D01*
X117379725Y-101808778D01*
X117374210Y-101875237D01*
X117150715Y-101875237D01*
X117150678Y-101874284D01*
X117153491Y-101804019D01*
X117161930Y-101737375D01*
X117175995Y-101674354D01*
X117201488Y-101600669D01*
X117235771Y-101532644D01*
X117278845Y-101470277D01*
X117330710Y-101413569D01*
X117353756Y-101392691D01*
X117416113Y-101346389D01*
X117485246Y-101308506D01*
X117545430Y-101284261D01*
X117609950Y-101265403D01*
X117678806Y-101251934D01*
X117751999Y-101243852D01*
X117829527Y-101241158D01*
X117869181Y-101241836D01*
G37*
G36*
X117171000Y-101040806D02*
G01*
X118491865Y-101040806D01*
X118491865Y-100143506D01*
X118268334Y-100143506D01*
X118268334Y-100776632D01*
X117963519Y-100776632D01*
X117963519Y-100230188D01*
X117739988Y-100230188D01*
X117739988Y-100776632D01*
X117171000Y-100776632D01*
X117171000Y-101040806D01*
G37*
G36*
X117171000Y-99425921D02*
G01*
X118491865Y-99425921D01*
X118491865Y-98455275D01*
X118268334Y-98455275D01*
X118268334Y-99161430D01*
X117983840Y-99161430D01*
X117983840Y-98504173D01*
X117760309Y-98504173D01*
X117760309Y-99161430D01*
X117394531Y-99161430D01*
X117394531Y-98430191D01*
X117171000Y-98430191D01*
X117171000Y-99425921D01*
G37*
G36*
X117373755Y-97097811D02*
G01*
X117411359Y-97152508D01*
X117417283Y-97160746D01*
X117457081Y-97212995D01*
X117498993Y-97261099D01*
X117535519Y-97236763D01*
X117592660Y-97207438D01*
X117643919Y-97187375D01*
X117706910Y-97166788D01*
X117769834Y-97148381D01*
X117820637Y-97375404D01*
X117798242Y-97381338D01*
X117732997Y-97402541D01*
X117672039Y-97430652D01*
X117914621Y-97612906D01*
X117936401Y-97578456D01*
X117978234Y-97518604D01*
X118022544Y-97465693D01*
X118072744Y-97421762D01*
X118094767Y-97408132D01*
X118153841Y-97383507D01*
X118220389Y-97374452D01*
X118257675Y-97376785D01*
X118320181Y-97392745D01*
X118376759Y-97423824D01*
X118427409Y-97470024D01*
X118437675Y-97482259D01*
X118472116Y-97536981D01*
X118495959Y-97600951D01*
X118508129Y-97664510D01*
X118512186Y-97735150D01*
X118512107Y-97746065D01*
X118507125Y-97818061D01*
X118494395Y-97882339D01*
X118470358Y-97946348D01*
X118431219Y-98006308D01*
X118415785Y-98023274D01*
X118365732Y-98064160D01*
X118303518Y-98091974D01*
X118234360Y-98101245D01*
X118226471Y-98101114D01*
X118161222Y-98090596D01*
X118101003Y-98067588D01*
X118060929Y-98045866D01*
X118005622Y-98008776D01*
X117953041Y-97966618D01*
X117943449Y-97984982D01*
X117908220Y-98044685D01*
X117870407Y-98097276D01*
X117824030Y-98148674D01*
X117774279Y-98190785D01*
X117741487Y-98212372D01*
X117679219Y-98242009D01*
X117612782Y-98259791D01*
X117542175Y-98265718D01*
X117473413Y-98259745D01*
X117408739Y-98241825D01*
X117348153Y-98211959D01*
X117291655Y-98170146D01*
X117251042Y-98128678D01*
X117211392Y-98071079D01*
X117181655Y-98004929D01*
X117164446Y-97943272D01*
X117154120Y-97875678D01*
X117151183Y-97812941D01*
X117374210Y-97812941D01*
X117375465Y-97839947D01*
X117390485Y-97901963D01*
X117425647Y-97955505D01*
X117435613Y-97964982D01*
X117493315Y-97998381D01*
X117559004Y-98008531D01*
X117563049Y-98008489D01*
X117627019Y-97996433D01*
X117685692Y-97965666D01*
X117711914Y-97944816D01*
X117756017Y-97894969D01*
X117791425Y-97836120D01*
X117669760Y-97738007D01*
X118065124Y-97738007D01*
X118136882Y-97799605D01*
X118187551Y-97836609D01*
X118249918Y-97856758D01*
X118264455Y-97855564D01*
X118319454Y-97822784D01*
X118337835Y-97793687D01*
X118349618Y-97729117D01*
X118345566Y-97689770D01*
X118315326Y-97631322D01*
X118295085Y-97613824D01*
X118233090Y-97595125D01*
X118225902Y-97595418D01*
X118164508Y-97621542D01*
X118117196Y-97670059D01*
X118065124Y-97738007D01*
X117669760Y-97738007D01*
X117474862Y-97580837D01*
X117468234Y-97588817D01*
X117428505Y-97642594D01*
X117397388Y-97699588D01*
X117381543Y-97748164D01*
X117374210Y-97812941D01*
X117151183Y-97812941D01*
X117150678Y-97802145D01*
X117150821Y-97786879D01*
X117154993Y-97721463D01*
X117166404Y-97655082D01*
X117187193Y-97589727D01*
X117189515Y-97584141D01*
X117220294Y-97524002D01*
X117256610Y-97471413D01*
X117300863Y-97420809D01*
X117261011Y-97375499D01*
X117220264Y-97322638D01*
X117184638Y-97268626D01*
X117150678Y-97206486D01*
X117348173Y-97054713D01*
X117373755Y-97097811D01*
G37*
G36*
X117171000Y-96899766D02*
G01*
X118491865Y-96899766D01*
X118491865Y-95929120D01*
X118268334Y-95929120D01*
X118268334Y-96635275D01*
X117983840Y-96635275D01*
X117983840Y-95978018D01*
X117760309Y-95978018D01*
X117760309Y-96635275D01*
X117394531Y-96635275D01*
X117394531Y-95904036D01*
X117171000Y-95904036D01*
X117171000Y-96899766D01*
G37*
G36*
X117171000Y-95181371D02*
G01*
X118491865Y-95181371D01*
X118491865Y-94210725D01*
X118268334Y-94210725D01*
X118268334Y-94916880D01*
X117983840Y-94916880D01*
X117983840Y-94259623D01*
X117760309Y-94259623D01*
X117760309Y-94916880D01*
X117394531Y-94916880D01*
X117394531Y-94185642D01*
X117171000Y-94185642D01*
X117171000Y-95181371D01*
G37*
G36*
X117171000Y-93965603D02*
G01*
X118491865Y-93965603D01*
X118491865Y-93708415D01*
X117599328Y-93172766D01*
X118491865Y-93172766D01*
X118491865Y-92927327D01*
X117171000Y-92927327D01*
X117171000Y-93192452D01*
X118050200Y-93720163D01*
X117171000Y-93720163D01*
X117171000Y-93965603D01*
G37*
G36*
X117658704Y-92046221D02*
G01*
X117882235Y-92046221D01*
X117882235Y-91476280D01*
X117351348Y-91476280D01*
X117308026Y-91528951D01*
X117272048Y-91585638D01*
X117242520Y-91642857D01*
X117214815Y-91707187D01*
X117211006Y-91716957D01*
X117187500Y-91786055D01*
X117169767Y-91855549D01*
X117157807Y-91925437D01*
X117151621Y-91995721D01*
X117150678Y-92036060D01*
X117153726Y-92111244D01*
X117162868Y-92182723D01*
X117178105Y-92250495D01*
X117199437Y-92314561D01*
X117226864Y-92374921D01*
X117237360Y-92394218D01*
X117272478Y-92448822D01*
X117312820Y-92498090D01*
X117366488Y-92548826D01*
X117418149Y-92586534D01*
X117475034Y-92618905D01*
X117485023Y-92623782D01*
X117546503Y-92649895D01*
X117609970Y-92670605D01*
X117675424Y-92685913D01*
X117742865Y-92695818D01*
X117812293Y-92700320D01*
X117835877Y-92700621D01*
X117911415Y-92697607D01*
X117983716Y-92688565D01*
X118052779Y-92673495D01*
X118118605Y-92652398D01*
X118181194Y-92625273D01*
X118201338Y-92614891D01*
X118258725Y-92579952D01*
X118310866Y-92539432D01*
X118357760Y-92493330D01*
X118399408Y-92441647D01*
X118435810Y-92384382D01*
X118446778Y-92364054D01*
X118475394Y-92297197D01*
X118493726Y-92232414D01*
X118505798Y-92161765D01*
X118511164Y-92096542D01*
X118512186Y-92050666D01*
X118509550Y-91977075D01*
X118501643Y-91908708D01*
X118488465Y-91845566D01*
X118465693Y-91776692D01*
X118435331Y-91715342D01*
X118404230Y-91669965D01*
X118360845Y-91621965D01*
X118311655Y-91580842D01*
X118256660Y-91546595D01*
X118195861Y-91519224D01*
X118129257Y-91498729D01*
X118105766Y-91493426D01*
X118065124Y-91756011D01*
X118125570Y-91778051D01*
X118182247Y-91813326D01*
X118228644Y-91860157D01*
X118262810Y-91917049D01*
X118282794Y-91982946D01*
X118288655Y-92050666D01*
X118283322Y-92123109D01*
X118267323Y-92188746D01*
X118240658Y-92247575D01*
X118203327Y-92299598D01*
X118177207Y-92326270D01*
X118123406Y-92366107D01*
X118059243Y-92396160D01*
X117996000Y-92414132D01*
X117925143Y-92424915D01*
X117860280Y-92428410D01*
X117846673Y-92428510D01*
X117775734Y-92425983D01*
X117710563Y-92418401D01*
X117639970Y-92402632D01*
X117577683Y-92379585D01*
X117515510Y-92343498D01*
X117492325Y-92325000D01*
X117446302Y-92276506D01*
X117411582Y-92221874D01*
X117388167Y-92161104D01*
X117376055Y-92094195D01*
X117374210Y-92053206D01*
X117379712Y-91985768D01*
X117394558Y-91923332D01*
X117407549Y-91886828D01*
X117434562Y-91827502D01*
X117468362Y-91770690D01*
X117488515Y-91743311D01*
X117658704Y-91743311D01*
X117658704Y-92046221D01*
G37*
G36*
X117171000Y-91248304D02*
G01*
X118491865Y-91248304D01*
X118491865Y-90984131D01*
X117171000Y-90984131D01*
X117171000Y-91248304D01*
G37*
G36*
X117171000Y-90732023D02*
G01*
X118491865Y-90732023D01*
X118491865Y-90474836D01*
X117599328Y-89939187D01*
X118491865Y-89939187D01*
X118491865Y-89693747D01*
X117171000Y-89693747D01*
X117171000Y-89958872D01*
X118050200Y-90486584D01*
X117171000Y-90486584D01*
X117171000Y-90732023D01*
G37*
G36*
X117171000Y-89421636D02*
G01*
X118491865Y-89421636D01*
X118491865Y-88450990D01*
X118268334Y-88450990D01*
X118268334Y-89157145D01*
X117983840Y-89157145D01*
X117983840Y-88499888D01*
X117760309Y-88499888D01*
X117760309Y-89157145D01*
X117394531Y-89157145D01*
X117394531Y-88425907D01*
X117171000Y-88425907D01*
X117171000Y-89421636D01*
G37*
G36*
X117171000Y-88208726D02*
G01*
X118491865Y-88208726D01*
X118491865Y-87238080D01*
X118268334Y-87238080D01*
X118268334Y-87944235D01*
X117983840Y-87944235D01*
X117983840Y-87286978D01*
X117760309Y-87286978D01*
X117760309Y-87944235D01*
X117394531Y-87944235D01*
X117394531Y-87212997D01*
X117171000Y-87212997D01*
X117171000Y-88208726D01*
G37*
G36*
X117428187Y-85977861D02*
G01*
X117482631Y-86011981D01*
X117537797Y-86048346D01*
X117589830Y-86085366D01*
X117642193Y-86128363D01*
X117675349Y-86162005D01*
X117717134Y-86214283D01*
X117753006Y-86269658D01*
X117756460Y-86248442D01*
X117772945Y-86179483D01*
X117796267Y-86118758D01*
X117831293Y-86059442D01*
X117875249Y-86010882D01*
X117926925Y-85972959D01*
X117985110Y-85945871D01*
X118049804Y-85929618D01*
X118121006Y-85924200D01*
X118135589Y-85924424D01*
X118205411Y-85932238D01*
X118270086Y-85951214D01*
X118329614Y-85981353D01*
X118381142Y-86020795D01*
X118425289Y-86072775D01*
X118456303Y-86133761D01*
X118466548Y-86166235D01*
X118479328Y-86229867D01*
X118486864Y-86297331D01*
X118490615Y-86363913D01*
X118491865Y-86438576D01*
X118491865Y-86994863D01*
X117171000Y-86994863D01*
X117171000Y-86730690D01*
X117719667Y-86730690D01*
X117719667Y-86677030D01*
X117719652Y-86671383D01*
X117716871Y-86606714D01*
X117705061Y-86543991D01*
X117700986Y-86535101D01*
X117943198Y-86535101D01*
X117943198Y-86730690D01*
X118268334Y-86730690D01*
X118268334Y-86524305D01*
X118268121Y-86460169D01*
X118267222Y-86395791D01*
X118263889Y-86331573D01*
X118250554Y-86284024D01*
X118213721Y-86231873D01*
X118174192Y-86207780D01*
X118109258Y-86196629D01*
X118075032Y-86199265D01*
X118013051Y-86223618D01*
X117991241Y-86242303D01*
X117958756Y-86297599D01*
X117951235Y-86335513D01*
X117945765Y-86404151D01*
X117943745Y-86468802D01*
X117943198Y-86535101D01*
X117700986Y-86535101D01*
X117692093Y-86515702D01*
X117651083Y-86464612D01*
X117624591Y-86441850D01*
X117571884Y-86402068D01*
X117514047Y-86361178D01*
X117461526Y-86325223D01*
X117171000Y-86134078D01*
X117171000Y-85817833D01*
X117428187Y-85977861D01*
G37*
G36*
X117171000Y-85690509D02*
G01*
X118491865Y-85690509D01*
X118491865Y-85426336D01*
X117171000Y-85426336D01*
X117171000Y-85690509D01*
G37*
G36*
X117171000Y-85174228D02*
G01*
X118491865Y-85174228D01*
X118491865Y-84917041D01*
X117599328Y-84381392D01*
X118491865Y-84381392D01*
X118491865Y-84135952D01*
X117171000Y-84135952D01*
X117171000Y-84401078D01*
X118050200Y-84928789D01*
X117171000Y-84928789D01*
X117171000Y-85174228D01*
G37*
G36*
X117658704Y-83254846D02*
G01*
X117882235Y-83254846D01*
X117882235Y-82684905D01*
X117351348Y-82684905D01*
X117308026Y-82737576D01*
X117272048Y-82794263D01*
X117242520Y-82851482D01*
X117214815Y-82915812D01*
X117211006Y-82925582D01*
X117187500Y-82994681D01*
X117169767Y-83064174D01*
X117157807Y-83134063D01*
X117151621Y-83204346D01*
X117150678Y-83244685D01*
X117153726Y-83319870D01*
X117162868Y-83391348D01*
X117178105Y-83459120D01*
X117199437Y-83523186D01*
X117226864Y-83583547D01*
X117237360Y-83602843D01*
X117272478Y-83657447D01*
X117312820Y-83706715D01*
X117366488Y-83757451D01*
X117418149Y-83795159D01*
X117475034Y-83827531D01*
X117485023Y-83832407D01*
X117546503Y-83858520D01*
X117609970Y-83879231D01*
X117675424Y-83894538D01*
X117742865Y-83904443D01*
X117812293Y-83908946D01*
X117835877Y-83909246D01*
X117911415Y-83906232D01*
X117983716Y-83897190D01*
X118052779Y-83882121D01*
X118118605Y-83861023D01*
X118181194Y-83833898D01*
X118201338Y-83823517D01*
X118258725Y-83788577D01*
X118310866Y-83748057D01*
X118357760Y-83701955D01*
X118399408Y-83650272D01*
X118435810Y-83593008D01*
X118446778Y-83572679D01*
X118475394Y-83505822D01*
X118493726Y-83441039D01*
X118505798Y-83370391D01*
X118511164Y-83305167D01*
X118512186Y-83259291D01*
X118509550Y-83185700D01*
X118501643Y-83117333D01*
X118488465Y-83054191D01*
X118465693Y-82985318D01*
X118435331Y-82923968D01*
X118404230Y-82878590D01*
X118360845Y-82830590D01*
X118311655Y-82789467D01*
X118256660Y-82755220D01*
X118195861Y-82727849D01*
X118129257Y-82707355D01*
X118105766Y-82702051D01*
X118065124Y-82964637D01*
X118125570Y-82986677D01*
X118182247Y-83021951D01*
X118228644Y-83068782D01*
X118262810Y-83125674D01*
X118282794Y-83191571D01*
X118288655Y-83259291D01*
X118283322Y-83331734D01*
X118267323Y-83397371D01*
X118240658Y-83456201D01*
X118203327Y-83508224D01*
X118177207Y-83534895D01*
X118123406Y-83574733D01*
X118059243Y-83604785D01*
X117996000Y-83622757D01*
X117925143Y-83633541D01*
X117860280Y-83637035D01*
X117846673Y-83637135D01*
X117775734Y-83634608D01*
X117710563Y-83627026D01*
X117639970Y-83611257D01*
X117577683Y-83588210D01*
X117515510Y-83552123D01*
X117492325Y-83533625D01*
X117446302Y-83485131D01*
X117411582Y-83430499D01*
X117388167Y-83369729D01*
X117376055Y-83302821D01*
X117374210Y-83261831D01*
X117379712Y-83194393D01*
X117394558Y-83131957D01*
X117407549Y-83095453D01*
X117434562Y-83036127D01*
X117468362Y-82979315D01*
X117488515Y-82951936D01*
X117658704Y-82951936D01*
X117658704Y-83254846D01*
G37*
D13*
G36*
X113612500Y-92941434D02*
G01*
X114147086Y-92941434D01*
X114882562Y-93402442D01*
X114882562Y-93104466D01*
X114373316Y-92808321D01*
X114882562Y-92518283D01*
X114882562Y-92225191D01*
X114145254Y-92688032D01*
X113612500Y-92688032D01*
X113612500Y-92941434D01*
G37*
G36*
X114882562Y-92107650D02*
G01*
X114882562Y-91853332D01*
X114193187Y-91853332D01*
X114126982Y-91852879D01*
X114064843Y-91851252D01*
X114002957Y-91847084D01*
X113980696Y-91843867D01*
X113922282Y-91823263D01*
X113870757Y-91784394D01*
X113855216Y-91766320D01*
X113824577Y-91708856D01*
X113810851Y-91648740D01*
X113807894Y-91598403D01*
X113812247Y-91535882D01*
X113828962Y-91474630D01*
X113852468Y-91435066D01*
X113898970Y-91393206D01*
X113958333Y-91369850D01*
X113962377Y-91369120D01*
X114023257Y-91362237D01*
X114084807Y-91359159D01*
X114150953Y-91357923D01*
X114178532Y-91357824D01*
X114882562Y-91357824D01*
X114882562Y-91103811D01*
X114216695Y-91103811D01*
X114148603Y-91104318D01*
X114087055Y-91105839D01*
X114021835Y-91109002D01*
X113957657Y-91114536D01*
X113893989Y-91124572D01*
X113832595Y-91142784D01*
X113773519Y-91172114D01*
X113734621Y-91200593D01*
X113689770Y-91247318D01*
X113655144Y-91299428D01*
X113631428Y-91348665D01*
X113611142Y-91412057D01*
X113599309Y-91478644D01*
X113593899Y-91545415D01*
X113592960Y-91590771D01*
X113594431Y-91655271D01*
X113599863Y-91722816D01*
X113610973Y-91789849D01*
X113629722Y-91852306D01*
X113634787Y-91864323D01*
X113663534Y-91918705D01*
X113700735Y-91969710D01*
X113743780Y-92011479D01*
X113795057Y-92046813D01*
X113852641Y-92073367D01*
X113884525Y-92082615D01*
X113945509Y-92093567D01*
X114009515Y-92100584D01*
X114072283Y-92104691D01*
X114142350Y-92107038D01*
X114206315Y-92107650D01*
X114882562Y-92107650D01*
G37*
G36*
X113612500Y-90971004D02*
G01*
X114273176Y-90535642D01*
X114882562Y-90930704D01*
X114882562Y-90633644D01*
X114502459Y-90384516D01*
X114882562Y-90133862D01*
X114882562Y-89839244D01*
X114274703Y-90234918D01*
X113612500Y-89800776D01*
X113612500Y-90107301D01*
X114042672Y-90386043D01*
X113612500Y-90666311D01*
X113612500Y-90971004D01*
G37*
G36*
X114882562Y-89678654D02*
G01*
X114882562Y-89424337D01*
X114193187Y-89424337D01*
X114126982Y-89423884D01*
X114064843Y-89422257D01*
X114002957Y-89418089D01*
X113980696Y-89414872D01*
X113922282Y-89394268D01*
X113870757Y-89355399D01*
X113855216Y-89337325D01*
X113824577Y-89279861D01*
X113810851Y-89219745D01*
X113807894Y-89169408D01*
X113812247Y-89106886D01*
X113828962Y-89045635D01*
X113852468Y-89006071D01*
X113898970Y-88964211D01*
X113958333Y-88940855D01*
X113962377Y-88940125D01*
X114023257Y-88933241D01*
X114084807Y-88930164D01*
X114150953Y-88928928D01*
X114178532Y-88928829D01*
X114882562Y-88928829D01*
X114882562Y-88674816D01*
X114216695Y-88674816D01*
X114148603Y-88675323D01*
X114087055Y-88676844D01*
X114021835Y-88680006D01*
X113957657Y-88685541D01*
X113893989Y-88695577D01*
X113832595Y-88713789D01*
X113773519Y-88743119D01*
X113734621Y-88771598D01*
X113689770Y-88818323D01*
X113655144Y-88870433D01*
X113631428Y-88919670D01*
X113611142Y-88983062D01*
X113599309Y-89049649D01*
X113593899Y-89116420D01*
X113592960Y-89161775D01*
X113594431Y-89226276D01*
X113599863Y-89293820D01*
X113610973Y-89360854D01*
X113629722Y-89423311D01*
X113634787Y-89435327D01*
X113663534Y-89489710D01*
X113700735Y-89540714D01*
X113743780Y-89582484D01*
X113795057Y-89617818D01*
X113852641Y-89644372D01*
X113884525Y-89653620D01*
X113945509Y-89664572D01*
X114009515Y-89671589D01*
X114072283Y-89675696D01*
X114142350Y-89678043D01*
X114206315Y-89678654D01*
X114882562Y-89678654D01*
G37*
G36*
X114882562Y-87783025D02*
G01*
X114882562Y-88051692D01*
X113612500Y-88542009D01*
X113612500Y-88272426D01*
X113905591Y-88168623D01*
X113905591Y-88090465D01*
X114120525Y-88090465D01*
X114569931Y-87920411D01*
X114120525Y-87746999D01*
X114120525Y-88090465D01*
X113905591Y-88090465D01*
X113905591Y-87665177D01*
X113612500Y-87555268D01*
X113612500Y-87278968D01*
X114882562Y-87783025D01*
G37*
G36*
X113612500Y-87148604D02*
G01*
X114882562Y-87148604D01*
X114882562Y-86901308D01*
X114024354Y-86386261D01*
X114882562Y-86386261D01*
X114882562Y-86150261D01*
X113612500Y-86150261D01*
X113612500Y-86405190D01*
X114457885Y-86912604D01*
X113612500Y-86912604D01*
X113612500Y-87148604D01*
G37*
G36*
X113612500Y-85401657D02*
G01*
X114882562Y-85401657D01*
X114882562Y-85147644D01*
X114374537Y-85147644D01*
X114374537Y-84649389D01*
X114882562Y-84649389D01*
X114882562Y-84395376D01*
X113612500Y-84395376D01*
X113612500Y-84649389D01*
X114159603Y-84649389D01*
X114159603Y-85147644D01*
X113612500Y-85147644D01*
X113612500Y-85401657D01*
G37*
G36*
X114882562Y-83508775D02*
G01*
X114882562Y-83777442D01*
X113612500Y-84267759D01*
X113612500Y-83998176D01*
X113905591Y-83894373D01*
X113905591Y-83816215D01*
X114120525Y-83816215D01*
X114569931Y-83646161D01*
X114120525Y-83472749D01*
X114120525Y-83816215D01*
X113905591Y-83816215D01*
X113905591Y-83390928D01*
X113612500Y-83281018D01*
X113612500Y-83004719D01*
X114882562Y-83508775D01*
G37*
G36*
X113612500Y-82874354D02*
G01*
X114882562Y-82874354D01*
X114882562Y-82627058D01*
X114024354Y-82112011D01*
X114882562Y-82112011D01*
X114882562Y-81876011D01*
X113612500Y-81876011D01*
X113612500Y-82130940D01*
X114457885Y-82638354D01*
X113612500Y-82638354D01*
X113612500Y-82874354D01*
G37*
D12*
G36*
X162802500Y-88689706D02*
G01*
X164326575Y-88689706D01*
X164326575Y-88233216D01*
X163286833Y-87959176D01*
X164326575Y-87688066D01*
X164326575Y-87230843D01*
X162802500Y-87230843D01*
X162802500Y-87514043D01*
X164002342Y-87514043D01*
X162802500Y-87814095D01*
X162802500Y-88107553D01*
X164002342Y-88406506D01*
X162802500Y-88406506D01*
X162802500Y-88689706D01*
G37*
G36*
X162802500Y-86937386D02*
G01*
X164326575Y-86937386D01*
X164326575Y-85817410D01*
X164068654Y-85817410D01*
X164068654Y-86632204D01*
X163740392Y-86632204D01*
X163740392Y-85873830D01*
X163482472Y-85873830D01*
X163482472Y-86632204D01*
X163060420Y-86632204D01*
X163060420Y-85788467D01*
X162802500Y-85788467D01*
X162802500Y-86937386D01*
G37*
G36*
X162802500Y-85534577D02*
G01*
X164326575Y-85534577D01*
X164326575Y-85237822D01*
X163296725Y-84619765D01*
X164326575Y-84619765D01*
X164326575Y-84336566D01*
X162802500Y-84336566D01*
X162802500Y-84642480D01*
X163816962Y-85251377D01*
X162802500Y-85251377D01*
X162802500Y-85534577D01*
G37*
G36*
X164326575Y-84024790D02*
G01*
X164326575Y-83719608D01*
X163499324Y-83719608D01*
X163419878Y-83719065D01*
X163345312Y-83717113D01*
X163271048Y-83712111D01*
X163244335Y-83708251D01*
X163174238Y-83683526D01*
X163112408Y-83636883D01*
X163093759Y-83615194D01*
X163056992Y-83546237D01*
X163040522Y-83474098D01*
X163036973Y-83413694D01*
X163042196Y-83338668D01*
X163062255Y-83265166D01*
X163090462Y-83217689D01*
X163146264Y-83167457D01*
X163217499Y-83139430D01*
X163222353Y-83138554D01*
X163295408Y-83130294D01*
X163369269Y-83126601D01*
X163448644Y-83125118D01*
X163481739Y-83124999D01*
X164326575Y-83124999D01*
X164326575Y-82820184D01*
X163527534Y-82820184D01*
X163445823Y-82820792D01*
X163371966Y-82822617D01*
X163293702Y-82826412D01*
X163216688Y-82833054D01*
X163140287Y-82845097D01*
X163066614Y-82866951D01*
X162995722Y-82902148D01*
X162949045Y-82936321D01*
X162895224Y-82992392D01*
X162853672Y-83054924D01*
X162825214Y-83114008D01*
X162800871Y-83190079D01*
X162786671Y-83269983D01*
X162780179Y-83350108D01*
X162779052Y-83404535D01*
X162780817Y-83481935D01*
X162787336Y-83562989D01*
X162800668Y-83643429D01*
X162823166Y-83718377D01*
X162829244Y-83732797D01*
X162863741Y-83798056D01*
X162908382Y-83859262D01*
X162960036Y-83909385D01*
X163021568Y-83951786D01*
X163090670Y-83983651D01*
X163128930Y-83994748D01*
X163202111Y-84007891D01*
X163278918Y-84016311D01*
X163354240Y-84021240D01*
X163438320Y-84024056D01*
X163515078Y-84024790D01*
X164326575Y-84024790D01*
G37*
G36*
X169994893Y-106613956D02*
G01*
X170018340Y-106317201D01*
X169942819Y-106297810D01*
X169873181Y-106266068D01*
X169813935Y-106218755D01*
X169805116Y-106208757D01*
X169766320Y-106145583D01*
X169743627Y-106068903D01*
X169736973Y-105987473D01*
X169741812Y-105910367D01*
X169758542Y-105838153D01*
X169794391Y-105770198D01*
X169798155Y-105765456D01*
X169855938Y-105714365D01*
X169926563Y-105691375D01*
X169941770Y-105690718D01*
X170014587Y-105709948D01*
X170031530Y-105722225D01*
X170075993Y-105783617D01*
X170096010Y-105831768D01*
X170118429Y-105905048D01*
X170138915Y-105979781D01*
X170158134Y-106052853D01*
X170164153Y-106076133D01*
X170184393Y-106149157D01*
X170210428Y-106227365D01*
X170238369Y-106295294D01*
X170273376Y-106361554D01*
X170316561Y-106420149D01*
X170374346Y-106474395D01*
X170437425Y-106515318D01*
X170505799Y-106542917D01*
X170579467Y-106557192D01*
X170623941Y-106559367D01*
X170702262Y-106551662D01*
X170777034Y-106528544D01*
X170841927Y-106494155D01*
X170900825Y-106447551D01*
X170950205Y-106389712D01*
X170990069Y-106320640D01*
X170996899Y-106305477D01*
X171022579Y-106232029D01*
X171038350Y-106160027D01*
X171047480Y-106081705D01*
X171050022Y-106007989D01*
X171046901Y-105922581D01*
X171037536Y-105844041D01*
X171021928Y-105772371D01*
X170994957Y-105695435D01*
X170958996Y-105628390D01*
X170922161Y-105580076D01*
X170862137Y-105523623D01*
X170793944Y-105480249D01*
X170717581Y-105449952D01*
X170645624Y-105434393D01*
X170581076Y-105428767D01*
X170581076Y-105733949D01*
X170656518Y-105754849D01*
X170722005Y-105795250D01*
X170742643Y-105817846D01*
X170776453Y-105886608D01*
X170790363Y-105965193D01*
X170792102Y-106011287D01*
X170786878Y-106088595D01*
X170769066Y-106160742D01*
X170738613Y-106219381D01*
X170676995Y-106263916D01*
X170646289Y-106267741D01*
X170576153Y-106242188D01*
X170556530Y-106222312D01*
X170519830Y-106155937D01*
X170494276Y-106085870D01*
X170471203Y-106007619D01*
X170454314Y-105942044D01*
X170433903Y-105862596D01*
X170413338Y-105791313D01*
X170389150Y-105718472D01*
X170361249Y-105648834D01*
X170343672Y-105612682D01*
X170304366Y-105550593D01*
X170251791Y-105492792D01*
X170189433Y-105445986D01*
X170116770Y-105411570D01*
X170041322Y-105392679D01*
X169965771Y-105385772D01*
X169947998Y-105385536D01*
X169868092Y-105392585D01*
X169791406Y-105413729D01*
X169717940Y-105448970D01*
X169703633Y-105457710D01*
X169644179Y-105503032D01*
X169593999Y-105557801D01*
X169553092Y-105622017D01*
X169534373Y-105661775D01*
X169510170Y-105731773D01*
X169492882Y-105809878D01*
X169483428Y-105884868D01*
X169479268Y-105966065D01*
X169479052Y-105990404D01*
X169482263Y-106076687D01*
X169491896Y-106156477D01*
X169507952Y-106229773D01*
X169535695Y-106309157D01*
X169572687Y-106379190D01*
X169610577Y-106430407D01*
X169664274Y-106483632D01*
X169726445Y-106528175D01*
X169797092Y-106564037D01*
X169876214Y-106591218D01*
X169948623Y-106607238D01*
X169994893Y-106613956D01*
G37*
G36*
X169502500Y-105128715D02*
G01*
X171026575Y-105128715D01*
X171026575Y-104823900D01*
X169760420Y-104823900D01*
X169760420Y-104065526D01*
X169502500Y-104065526D01*
X169502500Y-105128715D01*
G37*
G36*
X169502500Y-103854866D02*
G01*
X171026575Y-103854866D01*
X171026575Y-102734891D01*
X170768654Y-102734891D01*
X170768654Y-103549685D01*
X170440392Y-103549685D01*
X170440392Y-102791311D01*
X170182472Y-102791311D01*
X170182472Y-103549685D01*
X169760420Y-103549685D01*
X169760420Y-102705948D01*
X169502500Y-102705948D01*
X169502500Y-103854866D01*
G37*
G36*
X169502500Y-102455355D02*
G01*
X171026575Y-102455355D01*
X171026575Y-101335379D01*
X170768654Y-101335379D01*
X170768654Y-102150173D01*
X170440392Y-102150173D01*
X170440392Y-101391799D01*
X170182472Y-101391799D01*
X170182472Y-102150173D01*
X169760420Y-102150173D01*
X169760420Y-101306437D01*
X169502500Y-101306437D01*
X169502500Y-102455355D01*
G37*
G36*
X170638651Y-99902689D02*
G01*
X170717196Y-99917738D01*
X170787452Y-99943733D01*
X170856582Y-99986060D01*
X170890123Y-100014460D01*
X170940671Y-100070810D01*
X170978583Y-100133883D01*
X171003860Y-100203680D01*
X171010404Y-100234753D01*
X171019388Y-100314577D01*
X171023891Y-100397900D01*
X171026020Y-100484110D01*
X171026575Y-100566381D01*
X171026575Y-101055843D01*
X169502500Y-101055843D01*
X169502500Y-100750662D01*
X170088682Y-100750662D01*
X170088682Y-100583600D01*
X170346603Y-100583600D01*
X170346603Y-100750662D01*
X170768654Y-100750662D01*
X170768654Y-100603384D01*
X170768164Y-100536532D01*
X170765759Y-100459338D01*
X170758396Y-100383931D01*
X170737337Y-100319923D01*
X170692451Y-100261199D01*
X170632642Y-100224929D01*
X170558728Y-100212839D01*
X170511535Y-100217682D01*
X170442957Y-100247277D01*
X170409297Y-100276816D01*
X170369684Y-100342532D01*
X170366889Y-100350601D01*
X170353117Y-100425791D01*
X170348045Y-100500939D01*
X170346603Y-100583600D01*
X170088682Y-100583600D01*
X170088682Y-100551726D01*
X170089717Y-100465846D01*
X170092820Y-100389328D01*
X170098899Y-100313342D01*
X170110298Y-100235554D01*
X170116679Y-100210438D01*
X170143967Y-100140874D01*
X170181739Y-100077284D01*
X170207247Y-100044601D01*
X170264944Y-99990788D01*
X170330116Y-99949057D01*
X170342103Y-99942935D01*
X170414171Y-99916322D01*
X170488703Y-99902498D01*
X170563124Y-99898499D01*
X170638651Y-99902689D01*
G37*
G36*
X133505795Y-94458896D02*
G01*
X133229849Y-94546432D01*
X133251778Y-94616378D01*
X133277814Y-94680463D01*
X133314480Y-94749630D01*
X133357059Y-94810358D01*
X133405553Y-94862647D01*
X133441168Y-94892817D01*
X133499235Y-94931282D01*
X133562904Y-94961788D01*
X133632175Y-94984336D01*
X133707048Y-94998926D01*
X133787523Y-95005557D01*
X133815593Y-95006000D01*
X133884216Y-95003029D01*
X133965607Y-94990961D01*
X134042122Y-94969610D01*
X134113763Y-94938975D01*
X134180528Y-94899058D01*
X134242418Y-94849857D01*
X134277212Y-94815881D01*
X134329224Y-94753063D01*
X134372420Y-94683433D01*
X134406801Y-94606990D01*
X134427959Y-94540932D01*
X134443475Y-94470513D01*
X134453348Y-94395735D01*
X134457580Y-94316598D01*
X134457756Y-94296132D01*
X134454919Y-94211374D01*
X134446408Y-94131488D01*
X134432223Y-94056475D01*
X134412363Y-93986334D01*
X134386830Y-93921067D01*
X134346934Y-93846334D01*
X134298173Y-93779215D01*
X134276186Y-93754499D01*
X134216550Y-93698941D01*
X134151338Y-93652799D01*
X134080549Y-93616074D01*
X134004183Y-93588765D01*
X133922241Y-93570873D01*
X133852672Y-93563340D01*
X133798154Y-93561645D01*
X133719643Y-93565602D01*
X133645890Y-93577473D01*
X133576896Y-93597258D01*
X133512660Y-93624957D01*
X133453183Y-93660571D01*
X133398465Y-93704098D01*
X133377909Y-93723725D01*
X133332859Y-93776982D01*
X133293792Y-93840668D01*
X133264518Y-93904949D01*
X133239824Y-93977214D01*
X133233611Y-93999328D01*
X133515369Y-94043096D01*
X133538955Y-93971995D01*
X133575389Y-93911964D01*
X133619661Y-93866997D01*
X133678241Y-93830203D01*
X133744902Y-93808682D01*
X133812515Y-93802371D01*
X133887144Y-93809338D01*
X133954420Y-93830239D01*
X134014345Y-93865074D01*
X134066918Y-93913843D01*
X134109554Y-93978235D01*
X134136868Y-94048778D01*
X134152856Y-94119792D01*
X134161992Y-94200543D01*
X134164371Y-94275274D01*
X134162026Y-94354364D01*
X134154988Y-94426008D01*
X134140350Y-94502151D01*
X134118956Y-94567571D01*
X134085458Y-94630342D01*
X134068286Y-94652775D01*
X134016632Y-94701993D01*
X133957754Y-94737149D01*
X133891653Y-94758243D01*
X133818328Y-94765274D01*
X133744038Y-94756546D01*
X133677263Y-94730364D01*
X133623080Y-94691415D01*
X133576511Y-94636971D01*
X133542307Y-94573811D01*
X133518035Y-94506406D01*
X133505795Y-94458896D01*
G37*
G36*
X132992543Y-95006000D02*
G01*
X132992543Y-93583529D01*
X132708049Y-93583529D01*
X132708049Y-94152517D01*
X132150003Y-94152517D01*
X132150003Y-93583529D01*
X131865509Y-93583529D01*
X131865509Y-95006000D01*
X132150003Y-95006000D01*
X132150003Y-94393243D01*
X132708049Y-94393243D01*
X132708049Y-95006000D01*
X132992543Y-95006000D01*
G37*
G36*
X130923464Y-94480780D02*
G01*
X130923464Y-94240054D01*
X130309682Y-94240054D01*
X130309682Y-94811778D01*
X130366405Y-94858432D01*
X130427452Y-94897178D01*
X130489072Y-94928978D01*
X130558350Y-94958813D01*
X130568872Y-94962915D01*
X130643286Y-94988230D01*
X130718125Y-95007327D01*
X130793390Y-95020207D01*
X130869080Y-95026869D01*
X130912522Y-95027884D01*
X130993490Y-95024602D01*
X131070466Y-95014756D01*
X131143452Y-94998347D01*
X131212446Y-94975375D01*
X131277450Y-94945838D01*
X131298230Y-94934534D01*
X131357035Y-94896715D01*
X131410093Y-94853270D01*
X131464731Y-94795473D01*
X131505340Y-94739839D01*
X131540201Y-94678578D01*
X131545453Y-94667821D01*
X131573575Y-94601611D01*
X131595878Y-94533262D01*
X131612364Y-94462773D01*
X131623031Y-94390144D01*
X131627879Y-94315376D01*
X131628202Y-94289977D01*
X131624957Y-94208629D01*
X131615219Y-94130767D01*
X131598991Y-94056391D01*
X131576270Y-93985501D01*
X131547059Y-93918097D01*
X131535879Y-93896404D01*
X131498252Y-93834603D01*
X131454615Y-93778451D01*
X131404966Y-93727949D01*
X131349308Y-93683098D01*
X131287638Y-93643896D01*
X131265746Y-93632085D01*
X131193746Y-93601267D01*
X131123980Y-93581525D01*
X131047897Y-93568524D01*
X130977656Y-93562746D01*
X130928251Y-93561645D01*
X130848999Y-93564483D01*
X130775373Y-93572998D01*
X130707374Y-93587190D01*
X130633203Y-93611714D01*
X130567134Y-93644412D01*
X130518265Y-93677905D01*
X130466574Y-93724627D01*
X130422287Y-93777601D01*
X130385406Y-93836827D01*
X130355929Y-93902303D01*
X130333858Y-93974030D01*
X130328147Y-93999328D01*
X130610931Y-94043096D01*
X130634666Y-93978001D01*
X130672655Y-93916964D01*
X130723087Y-93866997D01*
X130784356Y-93830203D01*
X130855322Y-93808682D01*
X130928251Y-93802371D01*
X131006267Y-93808114D01*
X131076952Y-93825344D01*
X131140308Y-93854059D01*
X131196332Y-93894262D01*
X131225055Y-93922392D01*
X131267957Y-93980331D01*
X131300322Y-94049429D01*
X131319676Y-94117538D01*
X131331289Y-94193845D01*
X131335052Y-94263698D01*
X131335160Y-94278351D01*
X131332438Y-94354747D01*
X131324274Y-94424931D01*
X131307292Y-94500954D01*
X131282472Y-94568033D01*
X131243609Y-94634988D01*
X131223687Y-94659956D01*
X131171464Y-94709520D01*
X131112629Y-94746911D01*
X131047184Y-94772127D01*
X130975129Y-94785170D01*
X130930987Y-94787158D01*
X130858361Y-94781232D01*
X130791122Y-94765244D01*
X130751810Y-94751254D01*
X130687921Y-94722163D01*
X130626738Y-94685763D01*
X130597253Y-94664060D01*
X130597253Y-94480780D01*
X130923464Y-94480780D01*
G37*
G36*
X163169893Y-107312246D02*
G01*
X163193340Y-107015491D01*
X163117819Y-106996100D01*
X163048181Y-106964358D01*
X162988935Y-106917045D01*
X162980116Y-106907047D01*
X162941320Y-106843873D01*
X162918627Y-106767193D01*
X162911973Y-106685763D01*
X162916812Y-106608657D01*
X162933542Y-106536443D01*
X162969391Y-106468488D01*
X162973155Y-106463746D01*
X163030938Y-106412655D01*
X163101563Y-106389665D01*
X163116770Y-106389008D01*
X163189587Y-106408238D01*
X163206530Y-106420515D01*
X163250993Y-106481907D01*
X163271010Y-106530058D01*
X163293429Y-106603338D01*
X163313915Y-106678071D01*
X163333134Y-106751143D01*
X163339153Y-106774423D01*
X163359393Y-106847447D01*
X163385428Y-106925655D01*
X163413369Y-106993584D01*
X163448376Y-107059844D01*
X163491561Y-107118439D01*
X163549346Y-107172685D01*
X163612425Y-107213608D01*
X163680799Y-107241207D01*
X163754467Y-107255482D01*
X163798941Y-107257657D01*
X163877262Y-107249952D01*
X163952034Y-107226834D01*
X164016927Y-107192445D01*
X164075825Y-107145841D01*
X164125205Y-107088002D01*
X164165069Y-107018930D01*
X164171899Y-107003767D01*
X164197579Y-106930319D01*
X164213350Y-106858317D01*
X164222480Y-106779995D01*
X164225022Y-106706279D01*
X164221901Y-106620871D01*
X164212536Y-106542331D01*
X164196928Y-106470661D01*
X164169957Y-106393725D01*
X164133996Y-106326680D01*
X164097161Y-106278366D01*
X164037137Y-106221913D01*
X163968944Y-106178539D01*
X163892581Y-106148242D01*
X163820624Y-106132683D01*
X163756076Y-106127057D01*
X163756076Y-106432239D01*
X163831518Y-106453139D01*
X163897005Y-106493540D01*
X163917643Y-106516136D01*
X163951453Y-106584898D01*
X163965363Y-106663483D01*
X163967102Y-106709577D01*
X163961878Y-106786885D01*
X163944066Y-106859032D01*
X163913613Y-106917671D01*
X163851995Y-106962206D01*
X163821289Y-106966031D01*
X163751153Y-106940478D01*
X163731530Y-106920602D01*
X163694830Y-106854227D01*
X163669276Y-106784160D01*
X163646203Y-106705909D01*
X163629314Y-106640334D01*
X163608903Y-106560886D01*
X163588338Y-106489603D01*
X163564150Y-106416762D01*
X163536249Y-106347124D01*
X163518672Y-106310972D01*
X163479366Y-106248883D01*
X163426791Y-106191082D01*
X163364433Y-106144276D01*
X163291770Y-106109860D01*
X163216322Y-106090969D01*
X163140771Y-106084062D01*
X163122998Y-106083826D01*
X163043092Y-106090875D01*
X162966406Y-106112019D01*
X162892940Y-106147260D01*
X162878633Y-106156000D01*
X162819179Y-106201322D01*
X162768999Y-106256091D01*
X162728092Y-106320307D01*
X162709373Y-106360065D01*
X162685170Y-106430063D01*
X162667882Y-106508168D01*
X162658428Y-106583158D01*
X162654268Y-106664355D01*
X162654052Y-106688694D01*
X162657263Y-106774977D01*
X162666896Y-106854767D01*
X162682952Y-106928063D01*
X162710695Y-107007447D01*
X162747687Y-107077480D01*
X162785577Y-107128697D01*
X162839274Y-107181922D01*
X162901445Y-107226465D01*
X162972092Y-107262327D01*
X163051214Y-107289508D01*
X163123623Y-107305528D01*
X163169893Y-107312246D01*
G37*
G36*
X163076104Y-105870602D02*
G01*
X163334024Y-105870602D01*
X163334024Y-105301639D01*
X163076104Y-105301639D01*
X163076104Y-105870602D01*
G37*
G36*
X162677500Y-105140438D02*
G01*
X164201575Y-105140438D01*
X164201575Y-104683948D01*
X163161833Y-104409908D01*
X164201575Y-104138798D01*
X164201575Y-103681576D01*
X162677500Y-103681576D01*
X162677500Y-103964775D01*
X163877342Y-103964775D01*
X162677500Y-104264828D01*
X162677500Y-104558286D01*
X163877342Y-104857239D01*
X162677500Y-104857239D01*
X162677500Y-105140438D01*
G37*
G36*
X162677500Y-103388118D02*
G01*
X164201575Y-103388118D01*
X164201575Y-102268142D01*
X163943654Y-102268142D01*
X163943654Y-103082937D01*
X163615392Y-103082937D01*
X163615392Y-102324563D01*
X163357472Y-102324563D01*
X163357472Y-103082937D01*
X162935420Y-103082937D01*
X162935420Y-102239200D01*
X162677500Y-102239200D01*
X162677500Y-103388118D01*
G37*
G36*
X162677500Y-101985309D02*
G01*
X164201575Y-101985309D01*
X164201575Y-101688554D01*
X163171725Y-101070498D01*
X164201575Y-101070498D01*
X164201575Y-100787298D01*
X162677500Y-100787298D01*
X162677500Y-101093212D01*
X163691962Y-101702110D01*
X162677500Y-101702110D01*
X162677500Y-101985309D01*
G37*
G36*
X164201575Y-100475522D02*
G01*
X164201575Y-100170341D01*
X163374324Y-100170341D01*
X163294878Y-100169797D01*
X163220312Y-100167845D01*
X163146048Y-100162843D01*
X163119335Y-100158983D01*
X163049238Y-100134258D01*
X162987408Y-100087615D01*
X162968759Y-100065927D01*
X162931992Y-99996969D01*
X162915522Y-99924831D01*
X162911973Y-99864426D01*
X162917196Y-99789401D01*
X162937255Y-99715899D01*
X162965462Y-99668422D01*
X163021264Y-99618190D01*
X163092499Y-99590163D01*
X163097353Y-99589287D01*
X163170408Y-99581027D01*
X163244269Y-99577333D01*
X163323644Y-99575851D01*
X163356739Y-99575731D01*
X164201575Y-99575731D01*
X164201575Y-99270916D01*
X163402534Y-99270916D01*
X163320823Y-99271525D01*
X163246966Y-99273349D01*
X163168702Y-99277145D01*
X163091688Y-99283786D01*
X163015287Y-99295829D01*
X162941614Y-99317683D01*
X162870722Y-99352880D01*
X162824045Y-99387054D01*
X162770224Y-99443125D01*
X162728672Y-99505657D01*
X162700214Y-99564740D01*
X162675871Y-99640811D01*
X162661671Y-99720715D01*
X162655179Y-99800840D01*
X162654052Y-99855267D01*
X162655817Y-99932668D01*
X162662336Y-100013721D01*
X162675668Y-100094161D01*
X162698166Y-100169110D01*
X162704244Y-100183530D01*
X162738741Y-100248788D01*
X162783382Y-100309994D01*
X162835036Y-100360117D01*
X162896568Y-100402518D01*
X162965670Y-100434383D01*
X163003930Y-100445480D01*
X163077111Y-100458624D01*
X163153918Y-100467043D01*
X163229240Y-100471972D01*
X163313320Y-100474789D01*
X163390078Y-100475522D01*
X164201575Y-100475522D01*
G37*
G36*
X134274096Y-98006000D02*
G01*
X134274096Y-96583529D01*
X133228785Y-96583529D01*
X133228785Y-96824255D01*
X133989260Y-96824255D01*
X133989260Y-97130633D01*
X133281444Y-97130633D01*
X133281444Y-97371359D01*
X133989260Y-97371359D01*
X133989260Y-97765274D01*
X133201772Y-97765274D01*
X133201772Y-98006000D01*
X134274096Y-98006000D01*
G37*
G36*
X132966859Y-98006000D02*
G01*
X132682365Y-98006000D01*
X132682365Y-97415127D01*
X132624577Y-97415127D01*
X132618495Y-97415143D01*
X132548852Y-97418138D01*
X132481304Y-97430856D01*
X132450839Y-97444822D01*
X132395819Y-97488986D01*
X132371306Y-97517517D01*
X132328464Y-97574278D01*
X132284428Y-97636564D01*
X132245708Y-97693124D01*
X132039860Y-98006000D01*
X131699288Y-98006000D01*
X131871625Y-97729028D01*
X131908370Y-97670396D01*
X131947533Y-97610987D01*
X131987401Y-97554951D01*
X132033705Y-97498561D01*
X132069934Y-97462854D01*
X132126234Y-97417854D01*
X132185868Y-97379224D01*
X132163021Y-97375504D01*
X132088757Y-97357750D01*
X132023361Y-97332634D01*
X131959483Y-97294914D01*
X131907187Y-97247577D01*
X131866347Y-97191926D01*
X131837175Y-97129265D01*
X131819672Y-97059595D01*
X131814800Y-96995567D01*
X132107222Y-96995567D01*
X132110060Y-97032426D01*
X132136287Y-97099175D01*
X132156409Y-97122663D01*
X132215959Y-97157646D01*
X132256789Y-97165746D01*
X132330707Y-97171636D01*
X132400331Y-97173812D01*
X132471730Y-97174401D01*
X132682365Y-97174401D01*
X132682365Y-96824255D01*
X132460104Y-96824255D01*
X132391034Y-96824484D01*
X132321704Y-96825452D01*
X132252546Y-96829042D01*
X132201340Y-96843402D01*
X132145177Y-96883069D01*
X132119231Y-96925639D01*
X132107222Y-96995567D01*
X131814800Y-96995567D01*
X131813837Y-96982915D01*
X131814078Y-96967211D01*
X131822493Y-96892018D01*
X131842929Y-96822368D01*
X131875387Y-96758260D01*
X131917862Y-96702769D01*
X131973841Y-96655227D01*
X132039518Y-96621826D01*
X132074490Y-96610794D01*
X132143017Y-96597030D01*
X132215670Y-96588915D01*
X132287374Y-96584876D01*
X132367780Y-96583529D01*
X132966859Y-96583529D01*
X132966859Y-98006000D01*
G37*
G36*
X131552595Y-98006000D02*
G01*
X131268101Y-98006000D01*
X131268101Y-97415127D01*
X131210313Y-97415127D01*
X131204232Y-97415143D01*
X131134588Y-97418138D01*
X131067041Y-97430856D01*
X131036575Y-97444822D01*
X130981556Y-97488986D01*
X130957043Y-97517517D01*
X130914200Y-97574278D01*
X130870165Y-97636564D01*
X130831444Y-97693124D01*
X130625596Y-98006000D01*
X130285024Y-98006000D01*
X130457362Y-97729028D01*
X130494107Y-97670396D01*
X130533269Y-97610987D01*
X130573137Y-97554951D01*
X130619441Y-97498561D01*
X130655670Y-97462854D01*
X130711970Y-97417854D01*
X130771604Y-97379224D01*
X130748757Y-97375504D01*
X130674493Y-97357750D01*
X130609097Y-97332634D01*
X130545219Y-97294914D01*
X130492923Y-97247577D01*
X130452083Y-97191926D01*
X130422911Y-97129265D01*
X130405408Y-97059595D01*
X130400537Y-96995567D01*
X130692958Y-96995567D01*
X130695797Y-97032426D01*
X130722023Y-97099175D01*
X130742145Y-97122663D01*
X130801695Y-97157646D01*
X130842526Y-97165746D01*
X130916443Y-97171636D01*
X130986068Y-97173812D01*
X131057466Y-97174401D01*
X131268101Y-97174401D01*
X131268101Y-96824255D01*
X131045840Y-96824255D01*
X130976770Y-96824484D01*
X130907440Y-96825452D01*
X130838283Y-96829042D01*
X130787076Y-96843402D01*
X130730914Y-96883069D01*
X130704967Y-96925639D01*
X130692958Y-96995567D01*
X130400537Y-96995567D01*
X130399574Y-96982915D01*
X130399814Y-96967211D01*
X130408229Y-96892018D01*
X130428665Y-96822368D01*
X130461123Y-96758260D01*
X130503598Y-96702769D01*
X130559578Y-96655227D01*
X130625254Y-96621826D01*
X130660226Y-96610794D01*
X130728753Y-96597030D01*
X130801407Y-96588915D01*
X130873110Y-96584876D01*
X130953516Y-96583529D01*
X131552595Y-96583529D01*
X131552595Y-98006000D01*
G37*
G36*
X171076575Y-86970638D02*
G01*
X171076575Y-87293038D01*
X169552500Y-87881420D01*
X169552500Y-87557920D01*
X169904209Y-87433356D01*
X169904209Y-87339567D01*
X170162130Y-87339567D01*
X170701418Y-87135502D01*
X170162130Y-86927407D01*
X170162130Y-87339567D01*
X169904209Y-87339567D01*
X169904209Y-86829221D01*
X169552500Y-86697330D01*
X169552500Y-86365771D01*
X171076575Y-86970638D01*
G37*
G36*
X170138682Y-85246161D02*
G01*
X170044893Y-84950505D01*
X169969951Y-84974001D01*
X169901288Y-85001897D01*
X169827181Y-85041180D01*
X169762116Y-85086801D01*
X169706092Y-85138759D01*
X169673766Y-85176918D01*
X169632554Y-85239133D01*
X169599869Y-85307350D01*
X169575711Y-85381569D01*
X169560079Y-85461790D01*
X169552973Y-85548013D01*
X169552500Y-85578087D01*
X169555682Y-85651612D01*
X169568612Y-85738817D01*
X169591489Y-85820798D01*
X169624311Y-85897556D01*
X169667080Y-85969090D01*
X169719795Y-86035400D01*
X169756198Y-86072679D01*
X169823503Y-86128407D01*
X169898107Y-86174689D01*
X169980009Y-86211525D01*
X170050786Y-86234194D01*
X170126235Y-86250818D01*
X170206354Y-86261397D01*
X170291144Y-86265931D01*
X170313072Y-86266119D01*
X170403884Y-86263080D01*
X170489476Y-86253961D01*
X170569847Y-86238762D01*
X170644998Y-86217485D01*
X170714928Y-86190127D01*
X170794998Y-86147382D01*
X170866911Y-86095138D01*
X170893393Y-86071580D01*
X170952920Y-86007684D01*
X171002357Y-85937814D01*
X171041706Y-85861969D01*
X171070965Y-85780149D01*
X171090135Y-85692354D01*
X171098206Y-85617816D01*
X171100022Y-85559403D01*
X171095783Y-85475284D01*
X171083064Y-85396263D01*
X171061865Y-85322341D01*
X171032188Y-85253517D01*
X170994031Y-85189792D01*
X170947394Y-85131164D01*
X170926366Y-85109141D01*
X170869304Y-85060873D01*
X170801069Y-85019015D01*
X170732197Y-84987650D01*
X170654769Y-84961193D01*
X170631076Y-84954535D01*
X170584181Y-85256420D01*
X170660362Y-85281690D01*
X170724681Y-85320726D01*
X170772859Y-85368161D01*
X170812281Y-85430925D01*
X170835340Y-85502347D01*
X170842102Y-85574790D01*
X170834637Y-85654749D01*
X170812243Y-85726831D01*
X170774920Y-85791037D01*
X170722667Y-85847365D01*
X170653676Y-85893046D01*
X170578094Y-85922311D01*
X170502008Y-85939441D01*
X170415489Y-85949230D01*
X170335420Y-85951779D01*
X170250680Y-85949265D01*
X170173919Y-85941725D01*
X170092337Y-85926042D01*
X170022244Y-85903120D01*
X169954990Y-85867229D01*
X169930954Y-85848831D01*
X169878220Y-85793487D01*
X169840553Y-85730403D01*
X169817953Y-85659580D01*
X169810420Y-85581018D01*
X169819771Y-85501422D01*
X169847823Y-85429877D01*
X169889555Y-85371824D01*
X169947887Y-85321929D01*
X170015558Y-85285282D01*
X170087778Y-85259276D01*
X170138682Y-85246161D01*
G37*
G36*
X169552500Y-84357362D02*
G01*
X170818654Y-84357362D01*
X170818654Y-84805425D01*
X171076575Y-84805425D01*
X171076575Y-83605216D01*
X170818654Y-83605216D01*
X170818654Y-84052180D01*
X169552500Y-84052180D01*
X169552500Y-84357362D01*
G37*
G36*
X135574350Y-91546432D02*
G01*
X135297379Y-91524548D01*
X135279280Y-91595035D01*
X135249655Y-91660030D01*
X135205496Y-91715326D01*
X135196164Y-91723557D01*
X135137202Y-91759767D01*
X135065634Y-91780947D01*
X134989633Y-91787158D01*
X134917667Y-91782641D01*
X134850267Y-91767027D01*
X134786843Y-91733567D01*
X134782417Y-91730054D01*
X134734732Y-91676124D01*
X134713274Y-91610207D01*
X134712661Y-91596013D01*
X134730610Y-91528051D01*
X134742068Y-91512238D01*
X134799367Y-91470739D01*
X134844308Y-91452057D01*
X134912703Y-91431132D01*
X134982454Y-91412012D01*
X135050654Y-91394074D01*
X135072382Y-91388456D01*
X135140538Y-91369566D01*
X135213532Y-91345267D01*
X135276932Y-91319188D01*
X135338775Y-91286515D01*
X135393464Y-91246209D01*
X135444094Y-91192276D01*
X135482288Y-91133402D01*
X135508047Y-91069586D01*
X135521371Y-91000830D01*
X135523401Y-90959321D01*
X135516209Y-90886221D01*
X135494633Y-90816434D01*
X135462536Y-90755867D01*
X135419038Y-90700896D01*
X135365056Y-90654808D01*
X135300588Y-90617602D01*
X135286437Y-90611226D01*
X135217885Y-90587259D01*
X135150683Y-90572539D01*
X135077583Y-90564018D01*
X135008781Y-90561645D01*
X134929066Y-90564559D01*
X134855763Y-90573299D01*
X134788871Y-90587867D01*
X134717064Y-90613039D01*
X134654489Y-90646603D01*
X134609395Y-90680982D01*
X134556706Y-90737004D01*
X134516223Y-90800652D01*
X134487947Y-90871924D01*
X134473425Y-90939083D01*
X134468174Y-90999328D01*
X134753010Y-90999328D01*
X134772517Y-90928915D01*
X134810225Y-90867795D01*
X134831314Y-90848533D01*
X134895492Y-90816977D01*
X134968838Y-90803994D01*
X135011859Y-90802371D01*
X135084013Y-90807246D01*
X135151350Y-90823871D01*
X135206081Y-90852294D01*
X135247646Y-90909804D01*
X135251217Y-90938463D01*
X135227366Y-91003923D01*
X135208816Y-91022238D01*
X135146866Y-91056491D01*
X135081470Y-91080341D01*
X135008436Y-91101876D01*
X134947232Y-91117639D01*
X134873080Y-91136689D01*
X134806550Y-91155883D01*
X134738565Y-91178459D01*
X134673570Y-91204500D01*
X134639828Y-91220905D01*
X134581879Y-91257590D01*
X134527930Y-91306660D01*
X134484245Y-91364862D01*
X134452123Y-91432680D01*
X134434492Y-91503098D01*
X134428046Y-91573612D01*
X134427825Y-91590200D01*
X134434404Y-91664779D01*
X134454139Y-91736353D01*
X134487030Y-91804921D01*
X134495187Y-91818274D01*
X134537487Y-91873765D01*
X134588605Y-91920600D01*
X134648540Y-91958780D01*
X134685648Y-91976251D01*
X134750980Y-91998840D01*
X134823877Y-92014975D01*
X134893868Y-92023799D01*
X134969652Y-92027682D01*
X134992368Y-92027884D01*
X135072899Y-92024887D01*
X135147370Y-92015896D01*
X135215779Y-92000911D01*
X135289871Y-91975017D01*
X135355235Y-91940492D01*
X135403038Y-91905127D01*
X135452714Y-91855010D01*
X135494288Y-91796983D01*
X135527759Y-91731046D01*
X135553128Y-91657199D01*
X135568080Y-91589618D01*
X135574350Y-91546432D01*
G37*
G36*
X133825669Y-92006000D02*
G01*
X133825669Y-91407263D01*
X134341998Y-90583529D01*
X134008265Y-90583529D01*
X133676583Y-91153885D01*
X133351740Y-90583529D01*
X133023478Y-90583529D01*
X133541859Y-91409314D01*
X133541859Y-92006000D01*
X133825669Y-92006000D01*
G37*
G36*
X132886702Y-92006000D02*
G01*
X132886702Y-90583529D01*
X132609730Y-90583529D01*
X132032878Y-91544722D01*
X132032878Y-90583529D01*
X131768558Y-90583529D01*
X131768558Y-92006000D01*
X132054078Y-92006000D01*
X132622382Y-91059168D01*
X132622382Y-92006000D01*
X132886702Y-92006000D01*
G37*
G36*
X130573478Y-91458896D02*
G01*
X130297532Y-91546432D01*
X130319461Y-91616378D01*
X130345497Y-91680463D01*
X130382162Y-91749630D01*
X130424742Y-91810358D01*
X130473236Y-91862647D01*
X130508851Y-91892817D01*
X130566918Y-91931282D01*
X130630587Y-91961788D01*
X130699858Y-91984336D01*
X130774731Y-91998926D01*
X130855206Y-92005557D01*
X130883275Y-92006000D01*
X130951898Y-92003029D01*
X131033289Y-91990961D01*
X131109805Y-91969610D01*
X131181446Y-91938975D01*
X131248211Y-91899058D01*
X131310101Y-91849857D01*
X131344894Y-91815881D01*
X131396907Y-91753063D01*
X131440103Y-91683433D01*
X131474484Y-91606990D01*
X131495642Y-91540932D01*
X131511157Y-91470513D01*
X131521031Y-91395735D01*
X131525262Y-91316598D01*
X131525439Y-91296132D01*
X131522602Y-91211374D01*
X131514090Y-91131488D01*
X131499905Y-91056475D01*
X131480046Y-90986334D01*
X131454513Y-90921067D01*
X131414617Y-90846334D01*
X131365855Y-90779215D01*
X131343868Y-90754499D01*
X131284233Y-90698941D01*
X131219020Y-90652799D01*
X131148231Y-90616074D01*
X131071866Y-90588765D01*
X130989924Y-90570873D01*
X130920355Y-90563340D01*
X130865836Y-90561645D01*
X130787325Y-90565602D01*
X130713573Y-90577473D01*
X130644579Y-90597258D01*
X130580343Y-90624957D01*
X130520866Y-90660571D01*
X130466147Y-90704098D01*
X130445592Y-90723725D01*
X130400542Y-90776982D01*
X130361475Y-90840668D01*
X130332200Y-90904949D01*
X130307507Y-90977214D01*
X130301293Y-90999328D01*
X130583052Y-91043096D01*
X130606638Y-90971995D01*
X130643072Y-90911964D01*
X130687344Y-90866997D01*
X130745924Y-90830203D01*
X130812585Y-90808682D01*
X130880198Y-90802371D01*
X130954826Y-90809338D01*
X131022103Y-90830239D01*
X131082028Y-90865074D01*
X131134601Y-90913843D01*
X131177237Y-90978235D01*
X131204550Y-91048778D01*
X131220539Y-91119792D01*
X131229675Y-91200543D01*
X131232054Y-91275274D01*
X131229708Y-91354364D01*
X131222671Y-91426008D01*
X131208033Y-91502151D01*
X131186639Y-91567571D01*
X131153140Y-91630342D01*
X131135969Y-91652775D01*
X131084315Y-91701993D01*
X131025437Y-91737149D01*
X130959336Y-91758243D01*
X130886011Y-91765274D01*
X130811721Y-91756546D01*
X130744946Y-91730364D01*
X130690763Y-91691415D01*
X130644194Y-91636971D01*
X130609990Y-91573811D01*
X130585718Y-91506406D01*
X130573478Y-91458896D01*
G37*
D16*
%TO.C,J5*%
X137448000Y-80503267D02*
X137448000Y-82316631D01*
X137448000Y-83653270D02*
X137448000Y-88367623D01*
X137448000Y-90002278D02*
X137448000Y-93712000D01*
X137448000Y-93712000D02*
X138442274Y-93712000D01*
X150207794Y-93712000D02*
X151752000Y-93712000D01*
X150708198Y-77307999D02*
X139041699Y-77307999D01*
X151752000Y-93712000D02*
X151752000Y-79692689D01*
D17*
X148200000Y-95410000D02*
G75*
G02*
X147438000Y-95410000I-381000J0D01*
G01*
X147438000Y-95410000D02*
G75*
G02*
X148200000Y-95410000I381000J0D01*
G01*
D18*
%TO.C,MENU*%
X153650000Y-88725000D02*
X153650000Y-82725000D01*
D12*
X154419999Y-79025000D02*
X154419999Y-79025000D01*
X154420000Y-79225000D02*
X154420000Y-79225000D01*
D18*
X159650000Y-88725000D02*
X159650000Y-82725000D01*
D12*
X154419999Y-79025000D02*
G75*
G02*
X154420000Y-79225000I1J-100000D01*
G01*
X154420000Y-79225000D02*
G75*
G02*
X154419999Y-79025000I0J100000D01*
G01*
D19*
%TO.C,R32*%
X127352742Y-92467500D02*
X127827258Y-92467500D01*
X127352742Y-93512500D02*
X127827258Y-93512500D01*
D18*
%TO.C,SLEEP*%
X174050000Y-100250000D02*
X180050000Y-100250000D01*
X174050000Y-106250000D02*
X180050000Y-106250000D01*
D12*
X183550000Y-101020000D02*
X183550000Y-101020000D01*
X183750000Y-101019999D02*
X183750000Y-101019999D01*
X183550000Y-101020000D02*
G75*
G02*
X183750000Y-101019999I100000J0D01*
G01*
X183750000Y-101019999D02*
G75*
G02*
X183550000Y-101020000I-100000J-1D01*
G01*
D20*
%TO.C,G\u002A\u002A\u002A*%
G36*
X122024938Y-102153130D02*
G01*
X122075786Y-102154005D01*
X122121179Y-102155382D01*
X122158643Y-102157264D01*
X122185700Y-102159650D01*
X122199876Y-102162544D01*
X122203477Y-102164248D01*
X122212663Y-102170607D01*
X122217682Y-102180759D01*
X122219779Y-102198756D01*
X122220201Y-102228652D01*
X122220204Y-102232237D01*
X122220041Y-102254025D01*
X122218406Y-102271376D01*
X122213688Y-102284807D01*
X122204278Y-102294834D01*
X122188568Y-102301974D01*
X122164946Y-102306744D01*
X122131804Y-102309661D01*
X122087533Y-102311240D01*
X122030522Y-102312000D01*
X121959162Y-102312457D01*
X121954565Y-102312483D01*
X121877626Y-102312562D01*
X121816157Y-102311856D01*
X121770276Y-102310369D01*
X121740101Y-102308103D01*
X121725750Y-102305063D01*
X121724452Y-102304345D01*
X121716609Y-102297636D01*
X121712077Y-102286244D01*
X121709991Y-102266416D01*
X121709487Y-102234397D01*
X121710536Y-102202391D01*
X121713865Y-102176266D01*
X121719063Y-102162859D01*
X121724302Y-102160926D01*
X121743992Y-102158331D01*
X121775562Y-102156229D01*
X121816535Y-102154618D01*
X121864436Y-102153500D01*
X121916787Y-102152879D01*
X121971113Y-102152755D01*
X122024938Y-102153130D01*
G37*
G36*
X122024938Y-102392526D02*
G01*
X122075786Y-102393402D01*
X122121179Y-102394779D01*
X122158643Y-102396660D01*
X122185700Y-102399047D01*
X122199877Y-102401941D01*
X122203477Y-102403645D01*
X122212663Y-102410006D01*
X122217681Y-102420156D01*
X122219779Y-102438153D01*
X122220201Y-102468049D01*
X122220204Y-102471634D01*
X122220041Y-102493422D01*
X122218406Y-102510773D01*
X122213688Y-102524204D01*
X122204278Y-102534231D01*
X122188568Y-102541371D01*
X122164946Y-102546141D01*
X122131804Y-102549057D01*
X122087533Y-102550637D01*
X122030522Y-102551397D01*
X121959162Y-102551853D01*
X121954565Y-102551879D01*
X121877626Y-102551959D01*
X121816157Y-102551253D01*
X121770276Y-102549765D01*
X121740101Y-102547500D01*
X121725750Y-102544460D01*
X121724452Y-102543741D01*
X121716609Y-102537033D01*
X121712077Y-102525641D01*
X121709991Y-102505813D01*
X121709488Y-102473794D01*
X121710536Y-102441788D01*
X121713865Y-102415665D01*
X121719063Y-102402256D01*
X121724302Y-102400325D01*
X121743992Y-102397729D01*
X121775562Y-102395626D01*
X121816535Y-102394014D01*
X121864436Y-102392897D01*
X121916787Y-102392276D01*
X121971113Y-102392152D01*
X122024938Y-102392526D01*
G37*
G36*
X122024938Y-102631923D02*
G01*
X122075786Y-102632799D01*
X122121179Y-102634175D01*
X122158643Y-102636058D01*
X122185700Y-102638444D01*
X122199876Y-102641338D01*
X122203477Y-102643042D01*
X122212663Y-102649402D01*
X122217682Y-102659553D01*
X122219779Y-102677550D01*
X122220201Y-102707446D01*
X122220204Y-102711031D01*
X122220041Y-102732820D01*
X122218406Y-102750170D01*
X122213688Y-102763600D01*
X122204278Y-102773627D01*
X122188568Y-102780768D01*
X122164945Y-102785538D01*
X122131803Y-102788454D01*
X122087533Y-102790034D01*
X122030522Y-102790794D01*
X121959162Y-102791250D01*
X121954565Y-102791278D01*
X121877625Y-102791356D01*
X121816157Y-102790650D01*
X121770276Y-102789162D01*
X121740101Y-102786896D01*
X121725750Y-102783856D01*
X121724452Y-102783138D01*
X121716609Y-102776430D01*
X121712077Y-102765038D01*
X121709991Y-102745210D01*
X121709488Y-102713191D01*
X121710536Y-102681185D01*
X121713865Y-102655061D01*
X121719063Y-102641652D01*
X121724302Y-102639721D01*
X121743992Y-102637126D01*
X121775562Y-102635022D01*
X121816536Y-102633411D01*
X121864436Y-102632294D01*
X121916787Y-102631674D01*
X121971113Y-102631548D01*
X122024938Y-102631923D01*
G37*
G36*
X122024938Y-102871320D02*
G01*
X122075786Y-102872195D01*
X122121179Y-102873573D01*
X122158643Y-102875454D01*
X122185700Y-102877841D01*
X122199876Y-102880734D01*
X122203477Y-102882438D01*
X122212663Y-102888799D01*
X122217682Y-102898950D01*
X122219779Y-102916946D01*
X122220201Y-102946842D01*
X122220204Y-102950427D01*
X122220041Y-102972215D01*
X122218406Y-102989566D01*
X122213688Y-103002997D01*
X122204278Y-103013024D01*
X122188568Y-103020164D01*
X122164946Y-103024934D01*
X122131804Y-103027851D01*
X122087534Y-103029431D01*
X122030522Y-103030190D01*
X121959162Y-103030647D01*
X121954565Y-103030674D01*
X121877626Y-103030753D01*
X121816157Y-103030046D01*
X121770276Y-103028559D01*
X121740101Y-103026293D01*
X121725750Y-103023255D01*
X121724452Y-103022535D01*
X121716609Y-103015827D01*
X121712077Y-103004435D01*
X121709991Y-102984606D01*
X121709488Y-102952588D01*
X121710536Y-102920581D01*
X121713865Y-102894456D01*
X121719063Y-102881050D01*
X121724302Y-102879116D01*
X121743992Y-102876523D01*
X121775562Y-102874419D01*
X121816535Y-102872808D01*
X121864436Y-102871691D01*
X121916787Y-102871069D01*
X121971113Y-102870945D01*
X122024938Y-102871320D01*
G37*
G36*
X122024938Y-103110717D02*
G01*
X122075786Y-103111592D01*
X122121179Y-103112970D01*
X122158643Y-103114851D01*
X122185700Y-103117238D01*
X122199877Y-103120131D01*
X122203477Y-103121837D01*
X122212663Y-103128196D01*
X122217682Y-103138347D01*
X122219779Y-103156343D01*
X122220201Y-103186240D01*
X122220204Y-103189824D01*
X122220041Y-103211611D01*
X122218406Y-103228963D01*
X122213688Y-103242394D01*
X122204278Y-103252421D01*
X122188568Y-103259561D01*
X122164946Y-103264331D01*
X122131804Y-103267248D01*
X122087533Y-103268827D01*
X122030522Y-103269587D01*
X121959163Y-103270044D01*
X121954565Y-103270069D01*
X121877626Y-103270149D01*
X121816157Y-103269443D01*
X121770276Y-103267957D01*
X121740101Y-103265690D01*
X121725750Y-103262650D01*
X121724453Y-103261932D01*
X121716609Y-103255223D01*
X121712077Y-103243832D01*
X121709991Y-103224003D01*
X121709487Y-103191985D01*
X121710536Y-103159978D01*
X121713865Y-103133854D01*
X121719063Y-103120446D01*
X121724302Y-103118515D01*
X121743992Y-103115919D01*
X121775562Y-103113816D01*
X121816535Y-103112205D01*
X121864436Y-103111088D01*
X121916787Y-103110466D01*
X121971113Y-103110342D01*
X122024938Y-103110717D01*
G37*
G36*
X125300439Y-87685737D02*
G01*
X125300439Y-97900000D01*
X125300439Y-108114263D01*
X122631327Y-108114263D01*
X122300000Y-108114264D01*
X121565849Y-108114263D01*
X119299560Y-108114263D01*
X119299560Y-104402423D01*
X119299560Y-102468489D01*
X121465951Y-102468489D01*
X121465959Y-102561913D01*
X121466036Y-102662673D01*
X121466179Y-102763246D01*
X121466382Y-102861377D01*
X121466637Y-102954813D01*
X121466938Y-103041302D01*
X121467281Y-103118591D01*
X121467658Y-103184426D01*
X121468063Y-103236554D01*
X121470325Y-103477946D01*
X121518087Y-103477945D01*
X121565849Y-103477946D01*
X121565849Y-103450016D01*
X121565849Y-103422086D01*
X121613730Y-103422086D01*
X121661608Y-103422086D01*
X121661608Y-103394157D01*
X121661611Y-103392299D01*
X121663111Y-103374554D01*
X121670660Y-103367495D01*
X121689067Y-103366227D01*
X121691509Y-103366196D01*
X121710846Y-103363644D01*
X121721457Y-103358247D01*
X121728138Y-103356136D01*
X121748805Y-103354015D01*
X121780969Y-103352346D01*
X121822195Y-103351125D01*
X121870049Y-103350346D01*
X121922099Y-103350002D01*
X121975910Y-103350089D01*
X122029048Y-103350601D01*
X122079079Y-103351533D01*
X122123570Y-103352878D01*
X122160087Y-103354631D01*
X122186196Y-103356788D01*
X122199464Y-103359340D01*
X122213188Y-103369446D01*
X122221784Y-103384950D01*
X122222961Y-103389679D01*
X122233181Y-103400720D01*
X122255935Y-103408050D01*
X122262197Y-103409540D01*
X122282706Y-103417335D01*
X122294236Y-103426330D01*
X122302313Y-103433545D01*
X122319712Y-103438045D01*
X122320933Y-103438032D01*
X122335814Y-103432951D01*
X122343194Y-103416101D01*
X122344236Y-103411174D01*
X122348533Y-103391049D01*
X122355610Y-103358013D01*
X122365095Y-103313806D01*
X122376614Y-103260165D01*
X122389792Y-103198828D01*
X122404257Y-103131538D01*
X122419638Y-103060029D01*
X122423319Y-103042862D01*
X122475557Y-103042862D01*
X122476048Y-103044134D01*
X122485528Y-103046938D01*
X122501856Y-103046687D01*
X122518125Y-103043889D01*
X122527427Y-103039051D01*
X122529967Y-103036513D01*
X122545416Y-103031928D01*
X122567718Y-103031640D01*
X122590578Y-103035358D01*
X122607695Y-103042788D01*
X122619035Y-103050499D01*
X122631327Y-103053927D01*
X122635597Y-103045036D01*
X122642981Y-103029087D01*
X122663955Y-103014392D01*
X122696008Y-103003255D01*
X122736646Y-102996868D01*
X122742000Y-102996388D01*
X122810295Y-102982346D01*
X122870987Y-102954280D01*
X122923915Y-102912293D01*
X122968915Y-102856484D01*
X122984018Y-102833584D01*
X122997140Y-102814085D01*
X123004497Y-102803645D01*
X123010752Y-102795408D01*
X123022300Y-102779705D01*
X123025017Y-102776087D01*
X123033840Y-102768894D01*
X123041036Y-102774662D01*
X123044280Y-102778543D01*
X123052540Y-102779030D01*
X123066004Y-102767800D01*
X123067049Y-102766765D01*
X123077997Y-102757944D01*
X123090971Y-102753428D01*
X123110583Y-102752367D01*
X123141446Y-102753912D01*
X123141671Y-102753927D01*
X123172231Y-102755461D01*
X123190931Y-102754521D01*
X123201745Y-102750434D01*
X123208648Y-102742526D01*
X123220012Y-102730616D01*
X123239386Y-102719191D01*
X123260585Y-102711131D01*
X123234878Y-102695498D01*
X123231405Y-102693311D01*
X123214186Y-102680073D01*
X123204987Y-102668961D01*
X123202746Y-102665710D01*
X123192519Y-102661704D01*
X123172170Y-102660532D01*
X123138857Y-102661888D01*
X123115241Y-102663059D01*
X123089937Y-102662753D01*
X123074156Y-102659523D01*
X123064103Y-102652909D01*
X123053999Y-102646041D01*
X123039960Y-102644452D01*
X123038121Y-102644707D01*
X123026251Y-102637210D01*
X123007713Y-102615690D01*
X122982358Y-102579981D01*
X122942531Y-102526939D01*
X122897022Y-102481870D01*
X122847835Y-102449859D01*
X122792585Y-102429391D01*
X122728889Y-102418951D01*
X122710025Y-102417041D01*
X122684784Y-102412258D01*
X122666655Y-102404046D01*
X122649917Y-102390335D01*
X122624839Y-102366369D01*
X122597693Y-102380988D01*
X122582938Y-102388081D01*
X122565005Y-102391304D01*
X122544430Y-102386164D01*
X122543615Y-102385872D01*
X122517956Y-102378983D01*
X122495761Y-102376844D01*
X122480963Y-102379426D01*
X122477496Y-102386695D01*
X122477729Y-102387416D01*
X122480967Y-102400275D01*
X122486897Y-102425789D01*
X122494942Y-102461420D01*
X122504530Y-102504631D01*
X122515087Y-102552885D01*
X122549032Y-102709100D01*
X122512295Y-102873896D01*
X122508585Y-102890557D01*
X122498054Y-102938106D01*
X122488976Y-102979454D01*
X122481861Y-103012258D01*
X122477218Y-103034175D01*
X122475557Y-103042862D01*
X122423319Y-103042862D01*
X122428316Y-103019558D01*
X122442989Y-102950529D01*
X122456362Y-102886847D01*
X122468087Y-102830222D01*
X122477814Y-102782361D01*
X122485194Y-102744971D01*
X122489878Y-102719760D01*
X122491517Y-102708436D01*
X122490982Y-102703815D01*
X122487578Y-102684400D01*
X122481331Y-102652065D01*
X122472590Y-102608514D01*
X122461703Y-102555456D01*
X122449019Y-102494595D01*
X122434884Y-102427639D01*
X122419650Y-102356293D01*
X122411042Y-102316205D01*
X122396135Y-102246758D01*
X122382347Y-102182492D01*
X122370049Y-102125143D01*
X122359613Y-102076449D01*
X122351413Y-102038148D01*
X122345821Y-102011976D01*
X122343206Y-101999670D01*
X122341569Y-101993795D01*
X122330391Y-101979820D01*
X122313632Y-101979285D01*
X122294325Y-101992626D01*
X122292749Y-101994143D01*
X122273966Y-102005409D01*
X122250125Y-102012938D01*
X122245901Y-102013762D01*
X122226298Y-102021015D01*
X122220202Y-102032226D01*
X122220198Y-102032447D01*
X122213630Y-102045981D01*
X122198223Y-102059086D01*
X122191580Y-102062337D01*
X122180881Y-102065463D01*
X122165516Y-102067772D01*
X122143604Y-102069344D01*
X122113262Y-102070265D01*
X122072609Y-102070617D01*
X122019762Y-102070485D01*
X121952841Y-102069951D01*
X121950210Y-102069926D01*
X121890308Y-102069141D01*
X121834122Y-102068027D01*
X121784103Y-102066664D01*
X121742697Y-102065127D01*
X121712354Y-102063494D01*
X121695523Y-102061841D01*
X121685738Y-102060022D01*
X121669404Y-102054934D01*
X121662825Y-102045941D01*
X121661608Y-102028757D01*
X121661608Y-102001665D01*
X121613729Y-102001665D01*
X121565849Y-102001665D01*
X121565849Y-101969365D01*
X121565849Y-101937065D01*
X121515975Y-101939440D01*
X121466101Y-101941816D01*
X121465951Y-102468489D01*
X119299560Y-102468489D01*
X119299560Y-100690583D01*
X119340953Y-100745637D01*
X119359409Y-100768722D01*
X119388747Y-100802629D01*
X119421913Y-100838820D01*
X119454666Y-100872562D01*
X119475628Y-100892996D01*
X119580323Y-100983724D01*
X119691169Y-101061230D01*
X119809393Y-101126120D01*
X119936221Y-101178999D01*
X120072877Y-101220475D01*
X120220590Y-101251154D01*
X120225706Y-101252002D01*
X120251268Y-101256189D01*
X120275652Y-101260020D01*
X120299636Y-101263510D01*
X120323998Y-101266678D01*
X120349519Y-101269541D01*
X120376977Y-101272118D01*
X120407150Y-101274425D01*
X120440819Y-101276481D01*
X120478763Y-101278303D01*
X120521759Y-101279909D01*
X120570588Y-101281317D01*
X120626028Y-101282543D01*
X120688858Y-101283607D01*
X120759858Y-101284525D01*
X120839806Y-101285316D01*
X120929482Y-101285996D01*
X121029664Y-101286584D01*
X121141133Y-101287098D01*
X121264663Y-101287554D01*
X121401040Y-101287971D01*
X121551039Y-101288367D01*
X121715438Y-101288759D01*
X121895020Y-101289164D01*
X123289506Y-101292275D01*
X123289506Y-100613742D01*
X123289505Y-99935209D01*
X121851131Y-99932918D01*
X121729010Y-99932733D01*
X121558721Y-99932497D01*
X121403195Y-99932287D01*
X121261714Y-99932076D01*
X121133560Y-99931840D01*
X121018014Y-99931547D01*
X120914359Y-99931172D01*
X120821876Y-99930688D01*
X120739849Y-99930068D01*
X120667557Y-99929285D01*
X120604285Y-99928310D01*
X120549313Y-99927119D01*
X120501923Y-99925682D01*
X120461398Y-99923973D01*
X120427019Y-99921965D01*
X120398069Y-99919631D01*
X120373830Y-99916944D01*
X120353582Y-99913876D01*
X120336609Y-99910401D01*
X120322193Y-99906491D01*
X120309614Y-99902118D01*
X120298157Y-99897257D01*
X120287101Y-99891879D01*
X120275729Y-99885959D01*
X120263324Y-99879468D01*
X120249168Y-99872379D01*
X120212009Y-99850939D01*
X120163123Y-99814322D01*
X120115792Y-99770754D01*
X120074479Y-99724425D01*
X120043645Y-99679516D01*
X120041430Y-99675539D01*
X120006411Y-99597076D01*
X119981881Y-99509833D01*
X119968140Y-99417149D01*
X119965493Y-99322364D01*
X119974242Y-99228817D01*
X119994687Y-99139846D01*
X120002226Y-99116725D01*
X120039235Y-99029862D01*
X120086423Y-98955210D01*
X120144183Y-98892398D01*
X120212908Y-98841056D01*
X120292992Y-98800812D01*
X120384825Y-98771296D01*
X120389166Y-98770315D01*
X120398029Y-98768783D01*
X120409501Y-98767381D01*
X120424283Y-98766100D01*
X120443079Y-98764934D01*
X120466592Y-98763876D01*
X120495524Y-98762918D01*
X120530578Y-98762053D01*
X120572456Y-98761274D01*
X120621862Y-98760573D01*
X120679497Y-98759943D01*
X120746066Y-98759377D01*
X120822270Y-98758867D01*
X120908812Y-98758407D01*
X121006394Y-98757989D01*
X121115721Y-98757604D01*
X121237493Y-98757247D01*
X121372415Y-98756911D01*
X121521188Y-98756587D01*
X121684516Y-98756268D01*
X121863101Y-98755947D01*
X123289506Y-98753469D01*
X123289505Y-98075067D01*
X123289506Y-97396664D01*
X121926940Y-97399590D01*
X121785760Y-97399891D01*
X121622322Y-97400241D01*
X121473423Y-97400582D01*
X121338275Y-97400932D01*
X121216086Y-97401312D01*
X121106066Y-97401742D01*
X121007425Y-97402243D01*
X120919374Y-97402835D01*
X120841121Y-97403539D01*
X120771876Y-97404374D01*
X120710851Y-97405360D01*
X120657253Y-97406519D01*
X120610294Y-97407871D01*
X120569182Y-97409436D01*
X120533128Y-97411233D01*
X120501342Y-97413284D01*
X120473033Y-97415609D01*
X120447412Y-97418228D01*
X120423687Y-97421161D01*
X120401070Y-97424430D01*
X120378769Y-97428054D01*
X120355994Y-97432051D01*
X120331956Y-97436445D01*
X120305864Y-97441255D01*
X120298290Y-97442659D01*
X120135770Y-97480334D01*
X119982917Y-97530660D01*
X119839601Y-97593696D01*
X119705688Y-97669499D01*
X119581046Y-97758129D01*
X119545222Y-97787848D01*
X119491486Y-97836629D01*
X119438633Y-97888982D01*
X119390795Y-97940763D01*
X119352102Y-97987828D01*
X119347022Y-97994538D01*
X119328486Y-98018845D01*
X119313966Y-98037611D01*
X119306248Y-98047229D01*
X119306150Y-98047232D01*
X119305325Y-98038559D01*
X119304530Y-98014974D01*
X119303771Y-97977414D01*
X119303055Y-97926816D01*
X119302388Y-97864120D01*
X119301776Y-97790262D01*
X119301224Y-97706180D01*
X119300742Y-97612812D01*
X119300333Y-97511096D01*
X119300004Y-97401968D01*
X119299761Y-97286368D01*
X119299611Y-97165233D01*
X119299560Y-97039501D01*
X119299560Y-96024191D01*
X119362946Y-96102262D01*
X119422149Y-96172387D01*
X119535827Y-96292040D01*
X119656166Y-96399399D01*
X119785210Y-96496073D01*
X119925006Y-96583669D01*
X120077599Y-96663795D01*
X120158063Y-96700633D01*
X120334213Y-96768728D01*
X120515419Y-96822541D01*
X120700524Y-96862153D01*
X120888377Y-96887644D01*
X121077823Y-96899095D01*
X121267708Y-96896584D01*
X121456879Y-96880194D01*
X121644181Y-96850002D01*
X121828461Y-96806090D01*
X122008565Y-96748537D01*
X122183339Y-96677424D01*
X122351630Y-96592831D01*
X122512283Y-96494837D01*
X122652177Y-96393281D01*
X122790776Y-96274328D01*
X122916839Y-96145650D01*
X123030123Y-96007604D01*
X123130384Y-95860549D01*
X123217384Y-95704841D01*
X123290877Y-95540842D01*
X123350620Y-95368905D01*
X123396374Y-95189390D01*
X123403036Y-95156594D01*
X123431066Y-94974034D01*
X123445233Y-94786631D01*
X123445681Y-94596715D01*
X123432558Y-94406612D01*
X123406008Y-94218650D01*
X123366175Y-94035157D01*
X123313206Y-93858461D01*
X123270780Y-93744493D01*
X123193510Y-93571606D01*
X123104192Y-93408396D01*
X123003195Y-93255320D01*
X122890887Y-93112829D01*
X122767636Y-92981374D01*
X122633811Y-92861410D01*
X122489779Y-92753387D01*
X122335909Y-92657759D01*
X122264090Y-92617346D01*
X121983597Y-93181555D01*
X121703105Y-93745763D01*
X121820010Y-93802849D01*
X121841337Y-93813370D01*
X121923610Y-93856560D01*
X121994311Y-93898704D01*
X122056642Y-93941983D01*
X122113794Y-93988572D01*
X122168965Y-94040651D01*
X122208727Y-94082904D01*
X122272700Y-94164476D01*
X122322931Y-94250213D01*
X122360876Y-94342794D01*
X122387988Y-94444904D01*
X122391396Y-94461948D01*
X122397182Y-94495608D01*
X122400801Y-94527417D01*
X122402535Y-94561817D01*
X122402671Y-94603254D01*
X122401490Y-94656174D01*
X122400418Y-94686624D01*
X122396219Y-94751549D01*
X122389026Y-94807211D01*
X122377909Y-94858292D01*
X122361940Y-94909479D01*
X122340192Y-94965452D01*
X122334662Y-94978259D01*
X122293691Y-95055230D01*
X122240654Y-95131888D01*
X122178491Y-95204729D01*
X122110145Y-95270248D01*
X122038556Y-95324939D01*
X121993662Y-95353144D01*
X121879964Y-95411410D01*
X121755473Y-95457985D01*
X121620255Y-95492852D01*
X121474376Y-95515998D01*
X121317901Y-95527406D01*
X121150895Y-95527063D01*
X120989596Y-95516338D01*
X120836597Y-95495607D01*
X120695818Y-95464967D01*
X120567070Y-95424368D01*
X120450169Y-95373759D01*
X120344925Y-95313093D01*
X120344331Y-95312700D01*
X120300911Y-95280577D01*
X120253689Y-95240132D01*
X120207020Y-95195523D01*
X120165263Y-95150912D01*
X120132771Y-95110456D01*
X120109053Y-95074944D01*
X120059981Y-94981869D01*
X120023484Y-94880828D01*
X119999869Y-94773516D01*
X119989445Y-94661631D01*
X119992520Y-94546870D01*
X120009401Y-94430928D01*
X120010156Y-94427303D01*
X120040523Y-94321251D01*
X120085315Y-94221190D01*
X120143936Y-94127747D01*
X120215793Y-94041552D01*
X120300289Y-93963234D01*
X120396830Y-93893421D01*
X120504821Y-93832742D01*
X120623666Y-93781826D01*
X120632433Y-93778514D01*
X120658498Y-93767640D01*
X120676389Y-93758569D01*
X120682646Y-93752991D01*
X120680962Y-93749103D01*
X120673007Y-93732064D01*
X120659039Y-93702617D01*
X120639622Y-93661936D01*
X120615318Y-93611198D01*
X120586690Y-93551575D01*
X120554304Y-93484242D01*
X120518721Y-93410372D01*
X120480506Y-93331141D01*
X120440221Y-93247723D01*
X120418224Y-93202195D01*
X120377509Y-93117888D01*
X120338425Y-93036916D01*
X120301637Y-92960657D01*
X120267810Y-92890489D01*
X120237607Y-92827793D01*
X120211694Y-92773948D01*
X120190737Y-92730333D01*
X120175397Y-92698328D01*
X120166339Y-92679311D01*
X120133459Y-92609643D01*
X120017750Y-92674137D01*
X119945932Y-92715292D01*
X119824424Y-92791274D01*
X119715336Y-92868909D01*
X119616410Y-92950112D01*
X119525384Y-93036803D01*
X119439998Y-93130902D01*
X119357995Y-93234327D01*
X119299560Y-93312701D01*
X119299560Y-92689699D01*
X119299560Y-92066698D01*
X121298523Y-92066698D01*
X123297487Y-92066698D01*
X123297486Y-91392397D01*
X123297486Y-90718096D01*
X121725447Y-90718096D01*
X120153408Y-90718096D01*
X120153408Y-89844298D01*
X120153408Y-88970500D01*
X119726483Y-88970500D01*
X119299561Y-88970500D01*
X119299560Y-88328118D01*
X119299560Y-87685737D01*
X122300000Y-87685736D01*
X125300439Y-87685737D01*
G37*
D19*
%TO.C,CHG*%
X126790000Y-95185000D02*
X129075000Y-95185000D01*
X129075000Y-93715000D02*
X126790000Y-93715000D01*
X129075000Y-95185000D02*
X129075000Y-93715000D01*
D18*
%TO.C,S-MENU*%
X153650000Y-100250000D02*
X159650000Y-100250000D01*
X153650000Y-106250000D02*
X159650000Y-106250000D01*
D12*
X161670000Y-99210000D02*
X161670000Y-99210000D01*
X161870000Y-99209999D02*
X161870000Y-99209999D01*
X161670000Y-99210000D02*
G75*
G02*
X161870000Y-99209999I100000J0D01*
G01*
X161870000Y-99209999D02*
G75*
G02*
X161670000Y-99210000I-100000J-1D01*
G01*
D19*
%TO.C,R6*%
X126977500Y-101487742D02*
X126977500Y-101962258D01*
X128022500Y-101487742D02*
X128022500Y-101962258D01*
%TO.C,ERR*%
X126790000Y-98185000D02*
X129075000Y-98185000D01*
X129075000Y-96715000D02*
X126790000Y-96715000D01*
X129075000Y-98185000D02*
X129075000Y-96715000D01*
%TO.C,R5*%
X125502500Y-101962258D02*
X125502500Y-101487742D01*
X126547500Y-101962258D02*
X126547500Y-101487742D01*
D18*
%TO.C,ACT*%
X174050000Y-82725000D02*
X180050000Y-82725000D01*
X174050000Y-88725000D02*
X180050000Y-88725000D01*
D12*
X183550000Y-83495000D02*
X183550000Y-83495000D01*
X183750000Y-83494999D02*
X183750000Y-83494999D01*
X183550000Y-83495000D02*
G75*
G02*
X183750000Y-83494999I100000J0D01*
G01*
X183750000Y-83494999D02*
G75*
G02*
X183550000Y-83495000I-100000J-1D01*
G01*
D19*
%TO.C,SYNC*%
X126790000Y-92185000D02*
X129075000Y-92185000D01*
X129075000Y-90715000D02*
X126790000Y-90715000D01*
X129075000Y-92185000D02*
X129075000Y-90715000D01*
%TO.C,R30*%
X127352742Y-95467500D02*
X127827258Y-95467500D01*
X127352742Y-96512500D02*
X127827258Y-96512500D01*
D18*
%TO.C,U9*%
X142837000Y-97925000D02*
X142837000Y-97125000D01*
X143100000Y-96325000D02*
X143100000Y-96325000D01*
X143200000Y-96325000D02*
X143200000Y-96325000D01*
X144963000Y-97925000D02*
X144963000Y-97110000D01*
X143100000Y-96325000D02*
G75*
G02*
X143200000Y-96325000I50000J0D01*
G01*
X143200000Y-96325000D02*
G75*
G02*
X143100000Y-96325000I-50000J0D01*
G01*
D19*
%TO.C,R36*%
X127352742Y-89467500D02*
X127827258Y-89467500D01*
X127352742Y-90512500D02*
X127827258Y-90512500D01*
%TD*%
M02*
