%TF.GenerationSoftware,KiCad,Pcbnew,8.0.2*%
%TF.CreationDate,2024-06-21T01:26:05+01:00*%
%TF.ProjectId,ESP32S3_PCB_V1,45535033-3253-4335-9f50-43425f56312e,1*%
%TF.SameCoordinates,Original*%
%TF.FileFunction,Soldermask,Top*%
%TF.FilePolarity,Negative*%
%FSLAX46Y46*%
G04 Gerber Fmt 4.6, Leading zero omitted, Abs format (unit mm)*
G04 Created by KiCad (PCBNEW 8.0.2) date 2024-06-21 01:26:05*
%MOMM*%
%LPD*%
G01*
G04 APERTURE LIST*
G04 APERTURE END LIST*
G36*
X114139412Y-108043876D02*
G01*
X114389347Y-108120971D01*
X114625000Y-108234456D01*
X114841107Y-108381795D01*
X115032841Y-108559698D01*
X115195918Y-108764190D01*
X115326696Y-108990703D01*
X115422252Y-109234178D01*
X115480454Y-109489176D01*
X115500000Y-109750000D01*
X115480454Y-110010824D01*
X115422252Y-110265822D01*
X115326696Y-110509297D01*
X115195918Y-110735810D01*
X115032841Y-110940302D01*
X114841107Y-111118205D01*
X114625000Y-111265544D01*
X114389347Y-111379029D01*
X114139412Y-111456124D01*
X113880778Y-111495107D01*
X113619222Y-111495107D01*
X113360588Y-111456124D01*
X113110653Y-111379029D01*
X112875000Y-111265544D01*
X112658893Y-111118205D01*
X112467159Y-110940302D01*
X112304082Y-110735810D01*
X112173304Y-110509297D01*
X112077748Y-110265822D01*
X112019546Y-110010824D01*
X112000000Y-109750000D01*
X112019546Y-109489176D01*
X112077748Y-109234178D01*
X112173304Y-108990703D01*
X112304082Y-108764190D01*
X112467159Y-108559698D01*
X112658893Y-108381795D01*
X112875000Y-108234456D01*
X113110653Y-108120971D01*
X113360588Y-108043876D01*
X113619222Y-108004893D01*
X113880778Y-108004893D01*
X114139412Y-108043876D01*
G37*
G36*
X183889412Y-108043876D02*
G01*
X184139347Y-108120971D01*
X184375000Y-108234456D01*
X184591107Y-108381795D01*
X184782841Y-108559698D01*
X184945918Y-108764190D01*
X185076696Y-108990703D01*
X185172252Y-109234178D01*
X185230454Y-109489176D01*
X185250000Y-109750000D01*
X185230454Y-110010824D01*
X185172252Y-110265822D01*
X185076696Y-110509297D01*
X184945918Y-110735810D01*
X184782841Y-110940302D01*
X184591107Y-111118205D01*
X184375000Y-111265544D01*
X184139347Y-111379029D01*
X183889412Y-111456124D01*
X183630778Y-111495107D01*
X183369222Y-111495107D01*
X183110588Y-111456124D01*
X182860653Y-111379029D01*
X182625000Y-111265544D01*
X182408893Y-111118205D01*
X182217159Y-110940302D01*
X182054082Y-110735810D01*
X181923304Y-110509297D01*
X181827748Y-110265822D01*
X181769546Y-110010824D01*
X181750000Y-109750000D01*
X181769546Y-109489176D01*
X181827748Y-109234178D01*
X181923304Y-108990703D01*
X182054082Y-108764190D01*
X182217159Y-108559698D01*
X182408893Y-108381795D01*
X182625000Y-108234456D01*
X182860653Y-108120971D01*
X183110588Y-108043876D01*
X183369222Y-108004893D01*
X183630778Y-108004893D01*
X183889412Y-108043876D01*
G37*
G36*
X140087664Y-109409103D02*
G01*
X140250000Y-109481379D01*
X140393761Y-109585828D01*
X140512664Y-109717884D01*
X140601514Y-109871775D01*
X140656425Y-110040776D01*
X140675000Y-110217501D01*
X140656425Y-110394226D01*
X140601514Y-110563227D01*
X140512664Y-110717118D01*
X140393761Y-110849174D01*
X140250000Y-110953623D01*
X140087664Y-111025899D01*
X139913849Y-111062845D01*
X139736151Y-111062845D01*
X139562336Y-111025899D01*
X139400000Y-110953623D01*
X139256239Y-110849174D01*
X139137336Y-110717118D01*
X139048486Y-110563227D01*
X138993575Y-110394226D01*
X138975000Y-110217501D01*
X138993575Y-110040776D01*
X139048486Y-109871775D01*
X139137336Y-109717884D01*
X139256239Y-109585828D01*
X139400000Y-109481379D01*
X139562336Y-109409103D01*
X139736151Y-109372157D01*
X139913849Y-109372157D01*
X140087664Y-109409103D01*
G37*
G36*
X159850000Y-111050000D02*
G01*
X158150000Y-111050000D01*
X158150000Y-109350000D01*
X159850000Y-109350000D01*
X159850000Y-111050000D01*
G37*
G36*
X161802664Y-109391602D02*
G01*
X161965000Y-109463878D01*
X162108761Y-109568327D01*
X162227664Y-109700383D01*
X162316514Y-109854274D01*
X162371425Y-110023275D01*
X162390000Y-110200000D01*
X162371425Y-110376725D01*
X162316514Y-110545726D01*
X162227664Y-110699617D01*
X162108761Y-110831673D01*
X161965000Y-110936122D01*
X161802664Y-111008398D01*
X161628849Y-111045344D01*
X161451151Y-111045344D01*
X161277336Y-111008398D01*
X161115000Y-110936122D01*
X160971239Y-110831673D01*
X160852336Y-110699617D01*
X160763486Y-110545726D01*
X160708575Y-110376725D01*
X160690000Y-110200000D01*
X160708575Y-110023275D01*
X160763486Y-109854274D01*
X160852336Y-109700383D01*
X160971239Y-109568327D01*
X161115000Y-109463878D01*
X161277336Y-109391602D01*
X161451151Y-109354656D01*
X161628849Y-109354656D01*
X161802664Y-109391602D01*
G37*
G36*
X164342664Y-109391602D02*
G01*
X164505000Y-109463878D01*
X164648761Y-109568327D01*
X164767664Y-109700383D01*
X164856514Y-109854274D01*
X164911425Y-110023275D01*
X164930000Y-110200000D01*
X164911425Y-110376725D01*
X164856514Y-110545726D01*
X164767664Y-110699617D01*
X164648761Y-110831673D01*
X164505000Y-110936122D01*
X164342664Y-111008398D01*
X164168849Y-111045344D01*
X163991151Y-111045344D01*
X163817336Y-111008398D01*
X163655000Y-110936122D01*
X163511239Y-110831673D01*
X163392336Y-110699617D01*
X163303486Y-110545726D01*
X163248575Y-110376725D01*
X163230000Y-110200000D01*
X163248575Y-110023275D01*
X163303486Y-109854274D01*
X163392336Y-109700383D01*
X163511239Y-109568327D01*
X163655000Y-109463878D01*
X163817336Y-109391602D01*
X163991151Y-109354656D01*
X164168849Y-109354656D01*
X164342664Y-109391602D01*
G37*
G36*
X166882664Y-109391602D02*
G01*
X167045000Y-109463878D01*
X167188761Y-109568327D01*
X167307664Y-109700383D01*
X167396514Y-109854274D01*
X167451425Y-110023275D01*
X167470000Y-110200000D01*
X167451425Y-110376725D01*
X167396514Y-110545726D01*
X167307664Y-110699617D01*
X167188761Y-110831673D01*
X167045000Y-110936122D01*
X166882664Y-111008398D01*
X166708849Y-111045344D01*
X166531151Y-111045344D01*
X166357336Y-111008398D01*
X166195000Y-110936122D01*
X166051239Y-110831673D01*
X165932336Y-110699617D01*
X165843486Y-110545726D01*
X165788575Y-110376725D01*
X165770000Y-110200000D01*
X165788575Y-110023275D01*
X165843486Y-109854274D01*
X165932336Y-109700383D01*
X166051239Y-109568327D01*
X166195000Y-109463878D01*
X166357336Y-109391602D01*
X166531151Y-109354656D01*
X166708849Y-109354656D01*
X166882664Y-109391602D01*
G37*
G36*
X169422664Y-109391602D02*
G01*
X169585000Y-109463878D01*
X169728761Y-109568327D01*
X169847664Y-109700383D01*
X169936514Y-109854274D01*
X169991425Y-110023275D01*
X170010000Y-110200000D01*
X169991425Y-110376725D01*
X169936514Y-110545726D01*
X169847664Y-110699617D01*
X169728761Y-110831673D01*
X169585000Y-110936122D01*
X169422664Y-111008398D01*
X169248849Y-111045344D01*
X169071151Y-111045344D01*
X168897336Y-111008398D01*
X168735000Y-110936122D01*
X168591239Y-110831673D01*
X168472336Y-110699617D01*
X168383486Y-110545726D01*
X168328575Y-110376725D01*
X168310000Y-110200000D01*
X168328575Y-110023275D01*
X168383486Y-109854274D01*
X168472336Y-109700383D01*
X168591239Y-109568327D01*
X168735000Y-109463878D01*
X168897336Y-109391602D01*
X169071151Y-109354656D01*
X169248849Y-109354656D01*
X169422664Y-109391602D01*
G37*
G36*
X171962664Y-109391602D02*
G01*
X172125000Y-109463878D01*
X172268761Y-109568327D01*
X172387664Y-109700383D01*
X172476514Y-109854274D01*
X172531425Y-110023275D01*
X172550000Y-110200000D01*
X172531425Y-110376725D01*
X172476514Y-110545726D01*
X172387664Y-110699617D01*
X172268761Y-110831673D01*
X172125000Y-110936122D01*
X171962664Y-111008398D01*
X171788849Y-111045344D01*
X171611151Y-111045344D01*
X171437336Y-111008398D01*
X171275000Y-110936122D01*
X171131239Y-110831673D01*
X171012336Y-110699617D01*
X170923486Y-110545726D01*
X170868575Y-110376725D01*
X170850000Y-110200000D01*
X170868575Y-110023275D01*
X170923486Y-109854274D01*
X171012336Y-109700383D01*
X171131239Y-109568327D01*
X171275000Y-109463878D01*
X171437336Y-109391602D01*
X171611151Y-109354656D01*
X171788849Y-109354656D01*
X171962664Y-109391602D01*
G37*
G36*
X174502664Y-109391602D02*
G01*
X174665000Y-109463878D01*
X174808761Y-109568327D01*
X174927664Y-109700383D01*
X175016514Y-109854274D01*
X175071425Y-110023275D01*
X175090000Y-110200000D01*
X175071425Y-110376725D01*
X175016514Y-110545726D01*
X174927664Y-110699617D01*
X174808761Y-110831673D01*
X174665000Y-110936122D01*
X174502664Y-111008398D01*
X174328849Y-111045344D01*
X174151151Y-111045344D01*
X173977336Y-111008398D01*
X173815000Y-110936122D01*
X173671239Y-110831673D01*
X173552336Y-110699617D01*
X173463486Y-110545726D01*
X173408575Y-110376725D01*
X173390000Y-110200000D01*
X173408575Y-110023275D01*
X173463486Y-109854274D01*
X173552336Y-109700383D01*
X173671239Y-109568327D01*
X173815000Y-109463878D01*
X173977336Y-109391602D01*
X174151151Y-109354656D01*
X174328849Y-109354656D01*
X174502664Y-109391602D01*
G37*
G36*
X177042664Y-109391602D02*
G01*
X177205000Y-109463878D01*
X177348761Y-109568327D01*
X177467664Y-109700383D01*
X177556514Y-109854274D01*
X177611425Y-110023275D01*
X177630000Y-110200000D01*
X177611425Y-110376725D01*
X177556514Y-110545726D01*
X177467664Y-110699617D01*
X177348761Y-110831673D01*
X177205000Y-110936122D01*
X177042664Y-111008398D01*
X176868849Y-111045344D01*
X176691151Y-111045344D01*
X176517336Y-111008398D01*
X176355000Y-110936122D01*
X176211239Y-110831673D01*
X176092336Y-110699617D01*
X176003486Y-110545726D01*
X175948575Y-110376725D01*
X175930000Y-110200000D01*
X175948575Y-110023275D01*
X176003486Y-109854274D01*
X176092336Y-109700383D01*
X176211239Y-109568327D01*
X176355000Y-109463878D01*
X176517336Y-109391602D01*
X176691151Y-109354656D01*
X176868849Y-109354656D01*
X177042664Y-109391602D01*
G37*
G36*
X179582664Y-109391602D02*
G01*
X179745000Y-109463878D01*
X179888761Y-109568327D01*
X180007664Y-109700383D01*
X180096514Y-109854274D01*
X180151425Y-110023275D01*
X180170000Y-110200000D01*
X180151425Y-110376725D01*
X180096514Y-110545726D01*
X180007664Y-110699617D01*
X179888761Y-110831673D01*
X179745000Y-110936122D01*
X179582664Y-111008398D01*
X179408849Y-111045344D01*
X179231151Y-111045344D01*
X179057336Y-111008398D01*
X178895000Y-110936122D01*
X178751239Y-110831673D01*
X178632336Y-110699617D01*
X178543486Y-110545726D01*
X178488575Y-110376725D01*
X178470000Y-110200000D01*
X178488575Y-110023275D01*
X178543486Y-109854274D01*
X178632336Y-109700383D01*
X178751239Y-109568327D01*
X178895000Y-109463878D01*
X179057336Y-109391602D01*
X179231151Y-109354656D01*
X179408849Y-109354656D01*
X179582664Y-109391602D01*
G37*
G36*
X118925000Y-110930000D02*
G01*
X116825000Y-110930000D01*
X116825000Y-109530000D01*
X118925000Y-109530000D01*
X118925000Y-110930000D01*
G37*
G36*
X128025000Y-110930000D02*
G01*
X125925000Y-110930000D01*
X125925000Y-109530000D01*
X128025000Y-109530000D01*
X128025000Y-110930000D01*
G37*
G36*
X132600000Y-109125000D02*
G01*
X130950000Y-109125000D01*
X130950000Y-107475000D01*
X132600000Y-107475000D01*
X132600000Y-109125000D01*
G37*
G36*
X135529939Y-107515378D02*
G01*
X135687500Y-107585529D01*
X135827033Y-107686906D01*
X135942439Y-107815077D01*
X136028675Y-107964442D01*
X136081972Y-108128473D01*
X136100000Y-108300000D01*
X136081972Y-108471527D01*
X136028675Y-108635558D01*
X135942439Y-108784923D01*
X135827033Y-108913094D01*
X135687500Y-109014471D01*
X135529939Y-109084622D01*
X135361236Y-109120481D01*
X135188764Y-109120481D01*
X135020061Y-109084622D01*
X134862500Y-109014471D01*
X134722967Y-108913094D01*
X134607561Y-108784923D01*
X134521325Y-108635558D01*
X134468028Y-108471527D01*
X134450000Y-108300000D01*
X134468028Y-108128473D01*
X134521325Y-107964442D01*
X134607561Y-107815077D01*
X134722967Y-107686906D01*
X134862500Y-107585529D01*
X135020061Y-107515378D01*
X135188764Y-107479519D01*
X135361236Y-107479519D01*
X135529939Y-107515378D01*
G37*
G36*
X140087664Y-106869102D02*
G01*
X140250000Y-106941378D01*
X140393761Y-107045827D01*
X140512664Y-107177883D01*
X140601514Y-107331774D01*
X140656425Y-107500775D01*
X140675000Y-107677500D01*
X140656425Y-107854225D01*
X140601514Y-108023226D01*
X140512664Y-108177117D01*
X140393761Y-108309173D01*
X140250000Y-108413622D01*
X140087664Y-108485898D01*
X139913849Y-108522844D01*
X139736151Y-108522844D01*
X139562336Y-108485898D01*
X139400000Y-108413622D01*
X139256239Y-108309173D01*
X139137336Y-108177117D01*
X139048486Y-108023226D01*
X138993575Y-107854225D01*
X138975000Y-107677500D01*
X138993575Y-107500775D01*
X139048486Y-107331774D01*
X139137336Y-107177883D01*
X139256239Y-107045827D01*
X139400000Y-106941378D01*
X139562336Y-106869102D01*
X139736151Y-106832156D01*
X139913849Y-106832156D01*
X140087664Y-106869102D01*
G37*
G36*
X179451537Y-107190224D02*
G01*
X179516421Y-107233579D01*
X179559776Y-107298463D01*
X179575000Y-107375000D01*
X179575000Y-107925000D01*
X179559776Y-108001537D01*
X179516421Y-108066421D01*
X179451537Y-108109776D01*
X179375000Y-108125000D01*
X178975000Y-108125000D01*
X178898463Y-108109776D01*
X178833579Y-108066421D01*
X178790224Y-108001537D01*
X178775000Y-107925000D01*
X178775000Y-107375000D01*
X178790224Y-107298463D01*
X178833579Y-107233579D01*
X178898463Y-107190224D01*
X178975000Y-107175000D01*
X179375000Y-107175000D01*
X179451537Y-107190224D01*
G37*
G36*
X181101537Y-107190224D02*
G01*
X181166421Y-107233579D01*
X181209776Y-107298463D01*
X181225000Y-107375000D01*
X181225000Y-107925000D01*
X181209776Y-108001537D01*
X181166421Y-108066421D01*
X181101537Y-108109776D01*
X181025000Y-108125000D01*
X180625000Y-108125000D01*
X180548463Y-108109776D01*
X180483579Y-108066421D01*
X180440224Y-108001537D01*
X180425000Y-107925000D01*
X180425000Y-107375000D01*
X180440224Y-107298463D01*
X180483579Y-107233579D01*
X180548463Y-107190224D01*
X180625000Y-107175000D01*
X181025000Y-107175000D01*
X181101537Y-107190224D01*
G37*
G36*
X170736104Y-107232127D02*
G01*
X170809099Y-107280901D01*
X170857873Y-107353896D01*
X170875000Y-107440000D01*
X170875000Y-107890000D01*
X170857873Y-107976104D01*
X170809099Y-108049099D01*
X170736104Y-108097873D01*
X170650000Y-108115000D01*
X170150000Y-108115000D01*
X170063896Y-108097873D01*
X169990901Y-108049099D01*
X169942127Y-107976104D01*
X169925000Y-107890000D01*
X169925000Y-107440000D01*
X169942127Y-107353896D01*
X169990901Y-107280901D01*
X170063896Y-107232127D01*
X170150000Y-107215000D01*
X170650000Y-107215000D01*
X170736104Y-107232127D01*
G37*
G36*
X142467127Y-106757136D02*
G01*
X142497541Y-106777459D01*
X142517864Y-106807873D01*
X142525000Y-106843750D01*
X142525000Y-107031250D01*
X142517864Y-107067127D01*
X142497541Y-107097541D01*
X142467127Y-107117864D01*
X142431250Y-107125000D01*
X142118750Y-107125000D01*
X142082873Y-107117864D01*
X142052459Y-107097541D01*
X142032136Y-107067127D01*
X142025000Y-107031250D01*
X142025000Y-106843750D01*
X142032136Y-106807873D01*
X142052459Y-106777459D01*
X142082873Y-106757136D01*
X142118750Y-106750000D01*
X142431250Y-106750000D01*
X142467127Y-106757136D01*
G37*
G36*
X144167127Y-106757136D02*
G01*
X144197541Y-106777459D01*
X144217864Y-106807873D01*
X144225000Y-106843750D01*
X144225000Y-107031250D01*
X144217864Y-107067127D01*
X144197541Y-107097541D01*
X144167127Y-107117864D01*
X144131250Y-107125000D01*
X143818750Y-107125000D01*
X143782873Y-107117864D01*
X143752459Y-107097541D01*
X143732136Y-107067127D01*
X143725000Y-107031250D01*
X143725000Y-106843750D01*
X143732136Y-106807873D01*
X143752459Y-106777459D01*
X143782873Y-106757136D01*
X143818750Y-106750000D01*
X144131250Y-106750000D01*
X144167127Y-106757136D01*
G37*
G36*
X170736104Y-105682127D02*
G01*
X170809099Y-105730901D01*
X170857873Y-105803896D01*
X170875000Y-105890000D01*
X170875000Y-106340000D01*
X170857873Y-106426104D01*
X170809099Y-106499099D01*
X170736104Y-106547873D01*
X170650000Y-106565000D01*
X170150000Y-106565000D01*
X170063896Y-106547873D01*
X169990901Y-106499099D01*
X169942127Y-106426104D01*
X169925000Y-106340000D01*
X169925000Y-105890000D01*
X169942127Y-105803896D01*
X169990901Y-105730901D01*
X170063896Y-105682127D01*
X170150000Y-105665000D01*
X170650000Y-105665000D01*
X170736104Y-105682127D01*
G37*
G36*
X142478701Y-106255709D02*
G01*
X142503033Y-106271967D01*
X142519291Y-106296299D01*
X142525000Y-106325000D01*
X142525000Y-106475000D01*
X142519291Y-106503701D01*
X142503033Y-106528033D01*
X142478701Y-106544291D01*
X142450000Y-106550000D01*
X141950000Y-106550000D01*
X141921299Y-106544291D01*
X141896967Y-106528033D01*
X141880709Y-106503701D01*
X141875000Y-106475000D01*
X141875000Y-106325000D01*
X141880709Y-106296299D01*
X141896967Y-106271967D01*
X141921299Y-106255709D01*
X141950000Y-106250000D01*
X142450000Y-106250000D01*
X142478701Y-106255709D01*
G37*
G36*
X144328701Y-106255709D02*
G01*
X144353033Y-106271967D01*
X144369291Y-106296299D01*
X144375000Y-106325000D01*
X144375000Y-106475000D01*
X144369291Y-106503701D01*
X144353033Y-106528033D01*
X144328701Y-106544291D01*
X144300000Y-106550000D01*
X143800000Y-106550000D01*
X143771299Y-106544291D01*
X143746967Y-106528033D01*
X143730709Y-106503701D01*
X143725000Y-106475000D01*
X143725000Y-106325000D01*
X143730709Y-106296299D01*
X143746967Y-106271967D01*
X143771299Y-106255709D01*
X143800000Y-106250000D01*
X144300000Y-106250000D01*
X144328701Y-106255709D01*
G37*
G36*
X118925000Y-106470000D02*
G01*
X116825000Y-106470000D01*
X116825000Y-105070000D01*
X118925000Y-105070000D01*
X118925000Y-106470000D01*
G37*
G36*
X128025000Y-106470000D02*
G01*
X125925000Y-106470000D01*
X125925000Y-105070000D01*
X128025000Y-105070000D01*
X128025000Y-106470000D01*
G37*
G36*
X142467127Y-105682136D02*
G01*
X142497541Y-105702459D01*
X142517864Y-105732873D01*
X142525000Y-105768750D01*
X142525000Y-105956250D01*
X142517864Y-105992127D01*
X142497541Y-106022541D01*
X142467127Y-106042864D01*
X142431250Y-106050000D01*
X142118750Y-106050000D01*
X142082873Y-106042864D01*
X142052459Y-106022541D01*
X142032136Y-105992127D01*
X142025000Y-105956250D01*
X142025000Y-105768750D01*
X142032136Y-105732873D01*
X142052459Y-105702459D01*
X142082873Y-105682136D01*
X142118750Y-105675000D01*
X142431250Y-105675000D01*
X142467127Y-105682136D01*
G37*
G36*
X144167127Y-105682136D02*
G01*
X144197541Y-105702459D01*
X144217864Y-105732873D01*
X144225000Y-105768750D01*
X144225000Y-105956250D01*
X144217864Y-105992127D01*
X144197541Y-106022541D01*
X144167127Y-106042864D01*
X144131250Y-106050000D01*
X143818750Y-106050000D01*
X143782873Y-106042864D01*
X143752459Y-106022541D01*
X143732136Y-105992127D01*
X143725000Y-105956250D01*
X143725000Y-105768750D01*
X143732136Y-105732873D01*
X143752459Y-105702459D01*
X143782873Y-105682136D01*
X143818750Y-105675000D01*
X144131250Y-105675000D01*
X144167127Y-105682136D01*
G37*
G36*
X140087664Y-104329103D02*
G01*
X140250000Y-104401379D01*
X140393761Y-104505828D01*
X140512664Y-104637884D01*
X140601514Y-104791775D01*
X140656425Y-104960776D01*
X140675000Y-105137501D01*
X140656425Y-105314226D01*
X140601514Y-105483227D01*
X140512664Y-105637118D01*
X140393761Y-105769174D01*
X140250000Y-105873623D01*
X140087664Y-105945899D01*
X139913849Y-105982845D01*
X139736151Y-105982845D01*
X139562336Y-105945899D01*
X139400000Y-105873623D01*
X139256239Y-105769174D01*
X139137336Y-105637118D01*
X139048486Y-105483227D01*
X138993575Y-105314226D01*
X138975000Y-105137501D01*
X138993575Y-104960776D01*
X139048486Y-104791775D01*
X139137336Y-104637884D01*
X139256239Y-104505828D01*
X139400000Y-104401379D01*
X139562336Y-104329103D01*
X139736151Y-104292157D01*
X139913849Y-104292157D01*
X140087664Y-104329103D01*
G37*
G36*
X173086104Y-104892127D02*
G01*
X173159099Y-104940901D01*
X173207873Y-105013896D01*
X173225000Y-105100000D01*
X173225000Y-105550000D01*
X173207873Y-105636104D01*
X173159099Y-105709099D01*
X173086104Y-105757873D01*
X173000000Y-105775000D01*
X172500000Y-105775000D01*
X172413896Y-105757873D01*
X172340901Y-105709099D01*
X172292127Y-105636104D01*
X172275000Y-105550000D01*
X172275000Y-105100000D01*
X172292127Y-105013896D01*
X172340901Y-104940901D01*
X172413896Y-104892127D01*
X172500000Y-104875000D01*
X173000000Y-104875000D01*
X173086104Y-104892127D01*
G37*
G36*
X179236104Y-104892127D02*
G01*
X179309099Y-104940901D01*
X179357873Y-105013896D01*
X179375000Y-105100000D01*
X179375000Y-105550000D01*
X179357873Y-105636104D01*
X179309099Y-105709099D01*
X179236104Y-105757873D01*
X179150000Y-105775000D01*
X178650000Y-105775000D01*
X178563896Y-105757873D01*
X178490901Y-105709099D01*
X178442127Y-105636104D01*
X178425000Y-105550000D01*
X178425000Y-105100000D01*
X178442127Y-105013896D01*
X178490901Y-104940901D01*
X178563896Y-104892127D01*
X178650000Y-104875000D01*
X179150000Y-104875000D01*
X179236104Y-104892127D01*
G37*
G36*
X175500000Y-105638000D02*
G01*
X174500000Y-105638000D01*
X174500000Y-104738000D01*
X175500000Y-104738000D01*
X175500000Y-105638000D01*
G37*
G36*
X177150000Y-105638000D02*
G01*
X176150000Y-105638000D01*
X176150000Y-104738000D01*
X177150000Y-104738000D01*
X177150000Y-105638000D01*
G37*
G36*
X175500000Y-104412000D02*
G01*
X174500000Y-104412000D01*
X174500000Y-103512000D01*
X175500000Y-103512000D01*
X175500000Y-104412000D01*
G37*
G36*
X177150000Y-104412000D02*
G01*
X176150000Y-104412000D01*
X176150000Y-103512000D01*
X177150000Y-103512000D01*
X177150000Y-104412000D01*
G37*
G36*
X173086104Y-103342127D02*
G01*
X173159099Y-103390901D01*
X173207873Y-103463896D01*
X173225000Y-103550000D01*
X173225000Y-104000000D01*
X173207873Y-104086104D01*
X173159099Y-104159099D01*
X173086104Y-104207873D01*
X173000000Y-104225000D01*
X172500000Y-104225000D01*
X172413896Y-104207873D01*
X172340901Y-104159099D01*
X172292127Y-104086104D01*
X172275000Y-104000000D01*
X172275000Y-103550000D01*
X172292127Y-103463896D01*
X172340901Y-103390901D01*
X172413896Y-103342127D01*
X172500000Y-103325000D01*
X173000000Y-103325000D01*
X173086104Y-103342127D01*
G37*
G36*
X179236104Y-103342127D02*
G01*
X179309099Y-103390901D01*
X179357873Y-103463896D01*
X179375000Y-103550000D01*
X179375000Y-104000000D01*
X179357873Y-104086104D01*
X179309099Y-104159099D01*
X179236104Y-104207873D01*
X179150000Y-104225000D01*
X178650000Y-104225000D01*
X178563896Y-104207873D01*
X178490901Y-104159099D01*
X178442127Y-104086104D01*
X178425000Y-104000000D01*
X178425000Y-103550000D01*
X178442127Y-103463896D01*
X178490901Y-103390901D01*
X178563896Y-103342127D01*
X178650000Y-103325000D01*
X179150000Y-103325000D01*
X179236104Y-103342127D01*
G37*
G36*
X115101537Y-103360224D02*
G01*
X115166421Y-103403579D01*
X115209776Y-103468463D01*
X115225000Y-103545000D01*
X115225000Y-103945000D01*
X115209776Y-104021537D01*
X115166421Y-104086421D01*
X115101537Y-104129776D01*
X115025000Y-104145000D01*
X114475000Y-104145000D01*
X114398463Y-104129776D01*
X114333579Y-104086421D01*
X114290224Y-104021537D01*
X114275000Y-103945000D01*
X114275000Y-103545000D01*
X114290224Y-103468463D01*
X114333579Y-103403579D01*
X114398463Y-103360224D01*
X114475000Y-103345000D01*
X115025000Y-103345000D01*
X115101537Y-103360224D01*
G37*
G36*
X169640141Y-102912711D02*
G01*
X169705025Y-102956066D01*
X169899480Y-103150521D01*
X170091148Y-103342188D01*
X170091150Y-103342191D01*
X170093934Y-103344975D01*
X170137289Y-103409859D01*
X170152512Y-103486396D01*
X170137289Y-103562933D01*
X170093934Y-103627817D01*
X169811091Y-103910660D01*
X169746207Y-103954015D01*
X169669670Y-103969238D01*
X169593133Y-103954015D01*
X169528249Y-103910660D01*
X169245406Y-103627817D01*
X169142125Y-103524537D01*
X169142122Y-103524533D01*
X169139340Y-103521751D01*
X169095985Y-103456867D01*
X169080762Y-103380330D01*
X169095985Y-103303793D01*
X169139340Y-103238909D01*
X169142129Y-103236120D01*
X169419396Y-102958851D01*
X169419402Y-102958846D01*
X169422183Y-102956066D01*
X169487067Y-102912711D01*
X169563604Y-102897488D01*
X169640141Y-102912711D01*
G37*
G36*
X140675000Y-103447501D02*
G01*
X138975000Y-103447501D01*
X138975000Y-101747501D01*
X140675000Y-101747501D01*
X140675000Y-103447501D01*
G37*
G36*
X170806867Y-101745985D02*
G01*
X170871751Y-101789340D01*
X170977411Y-101895000D01*
X171257874Y-102175462D01*
X171257876Y-102175465D01*
X171260660Y-102178249D01*
X171304015Y-102243133D01*
X171319238Y-102319670D01*
X171304015Y-102396207D01*
X171260660Y-102461091D01*
X170977817Y-102743934D01*
X170912933Y-102787289D01*
X170836396Y-102802512D01*
X170759859Y-102787289D01*
X170694975Y-102743934D01*
X170412132Y-102461091D01*
X170308851Y-102357811D01*
X170308848Y-102357807D01*
X170306066Y-102355025D01*
X170262711Y-102290141D01*
X170247488Y-102213604D01*
X170262711Y-102137067D01*
X170306066Y-102072183D01*
X170308855Y-102069394D01*
X170586122Y-101792125D01*
X170586128Y-101792120D01*
X170588909Y-101789340D01*
X170653793Y-101745985D01*
X170730330Y-101730762D01*
X170806867Y-101745985D01*
G37*
G36*
X115101537Y-101710224D02*
G01*
X115166421Y-101753579D01*
X115209776Y-101818463D01*
X115225000Y-101895000D01*
X115225000Y-102295000D01*
X115209776Y-102371537D01*
X115166421Y-102436421D01*
X115101537Y-102479776D01*
X115025000Y-102495000D01*
X114475000Y-102495000D01*
X114398463Y-102479776D01*
X114333579Y-102436421D01*
X114290224Y-102371537D01*
X114275000Y-102295000D01*
X114275000Y-101895000D01*
X114290224Y-101818463D01*
X114333579Y-101753579D01*
X114398463Y-101710224D01*
X114475000Y-101695000D01*
X115025000Y-101695000D01*
X115101537Y-101710224D01*
G37*
G36*
X178586104Y-101042127D02*
G01*
X178659099Y-101090901D01*
X178707873Y-101163896D01*
X178725000Y-101250000D01*
X178725000Y-101700000D01*
X178707873Y-101786104D01*
X178659099Y-101859099D01*
X178586104Y-101907873D01*
X178500000Y-101925000D01*
X178000000Y-101925000D01*
X177913896Y-101907873D01*
X177840901Y-101859099D01*
X177792127Y-101786104D01*
X177775000Y-101700000D01*
X177775000Y-101250000D01*
X177792127Y-101163896D01*
X177840901Y-101090901D01*
X177913896Y-101042127D01*
X178000000Y-101025000D01*
X178500000Y-101025000D01*
X178586104Y-101042127D01*
G37*
G36*
X180061104Y-101042127D02*
G01*
X180134099Y-101090901D01*
X180182873Y-101163896D01*
X180200000Y-101250000D01*
X180200000Y-101700000D01*
X180182873Y-101786104D01*
X180134099Y-101859099D01*
X180061104Y-101907873D01*
X179975000Y-101925000D01*
X179475000Y-101925000D01*
X179388896Y-101907873D01*
X179315901Y-101859099D01*
X179267127Y-101786104D01*
X179250000Y-101700000D01*
X179250000Y-101250000D01*
X179267127Y-101163896D01*
X179315901Y-101090901D01*
X179388896Y-101042127D01*
X179475000Y-101025000D01*
X179975000Y-101025000D01*
X180061104Y-101042127D01*
G37*
G36*
X125836104Y-101017127D02*
G01*
X125909099Y-101065901D01*
X125957873Y-101138896D01*
X125975000Y-101225000D01*
X125975000Y-101675000D01*
X125957873Y-101761104D01*
X125909099Y-101834099D01*
X125836104Y-101882873D01*
X125750000Y-101900000D01*
X125250000Y-101900000D01*
X125163896Y-101882873D01*
X125090901Y-101834099D01*
X125042127Y-101761104D01*
X125025000Y-101675000D01*
X125025000Y-101225000D01*
X125042127Y-101138896D01*
X125090901Y-101065901D01*
X125163896Y-101017127D01*
X125250000Y-101000000D01*
X125750000Y-101000000D01*
X125836104Y-101017127D01*
G37*
G36*
X130886104Y-101017127D02*
G01*
X130959099Y-101065901D01*
X131007873Y-101138896D01*
X131025000Y-101225000D01*
X131025000Y-101675000D01*
X131007873Y-101761104D01*
X130959099Y-101834099D01*
X130886104Y-101882873D01*
X130800000Y-101900000D01*
X130300000Y-101900000D01*
X130213896Y-101882873D01*
X130140901Y-101834099D01*
X130092127Y-101761104D01*
X130075000Y-101675000D01*
X130075000Y-101225000D01*
X130092127Y-101138896D01*
X130140901Y-101065901D01*
X130213896Y-101017127D01*
X130300000Y-101000000D01*
X130800000Y-101000000D01*
X130886104Y-101017127D01*
G37*
G36*
X128086103Y-101017126D02*
G01*
X128159098Y-101065900D01*
X128207872Y-101138895D01*
X128224999Y-101224999D01*
X128224999Y-101674999D01*
X128207872Y-101761103D01*
X128159098Y-101834098D01*
X128086103Y-101882872D01*
X127999999Y-101899999D01*
X127499999Y-101899999D01*
X127413895Y-101882872D01*
X127340900Y-101834098D01*
X127292126Y-101761103D01*
X127274999Y-101674999D01*
X127274999Y-101224999D01*
X127292126Y-101138895D01*
X127340900Y-101065900D01*
X127413895Y-101017126D01*
X127499999Y-100999999D01*
X127999999Y-100999999D01*
X128086103Y-101017126D01*
G37*
G36*
X172211104Y-100492127D02*
G01*
X172284099Y-100540901D01*
X172332873Y-100613896D01*
X172350000Y-100700000D01*
X172350000Y-101200000D01*
X172332873Y-101286104D01*
X172284099Y-101359099D01*
X172211104Y-101407873D01*
X172125000Y-101425000D01*
X171675000Y-101425000D01*
X171588896Y-101407873D01*
X171515901Y-101359099D01*
X171467127Y-101286104D01*
X171450000Y-101200000D01*
X171450000Y-100700000D01*
X171467127Y-100613896D01*
X171515901Y-100540901D01*
X171588896Y-100492127D01*
X171675000Y-100475000D01*
X172125000Y-100475000D01*
X172211104Y-100492127D01*
G37*
G36*
X173761104Y-100492127D02*
G01*
X173834099Y-100540901D01*
X173882873Y-100613896D01*
X173900000Y-100700000D01*
X173900000Y-101200000D01*
X173882873Y-101286104D01*
X173834099Y-101359099D01*
X173761104Y-101407873D01*
X173675000Y-101425000D01*
X173225000Y-101425000D01*
X173138896Y-101407873D01*
X173065901Y-101359099D01*
X173017127Y-101286104D01*
X173000000Y-101200000D01*
X173000000Y-100700000D01*
X173017127Y-100613896D01*
X173065901Y-100540901D01*
X173138896Y-100492127D01*
X173225000Y-100475000D01*
X173675000Y-100475000D01*
X173761104Y-100492127D01*
G37*
G36*
X177028946Y-100501228D02*
G01*
X177076798Y-100533202D01*
X177108772Y-100581054D01*
X177120000Y-100637500D01*
X177120000Y-100932500D01*
X177108772Y-100988946D01*
X177076798Y-101036798D01*
X177028946Y-101068772D01*
X176972500Y-101080000D01*
X176627500Y-101080000D01*
X176571054Y-101068772D01*
X176523202Y-101036798D01*
X176491228Y-100988946D01*
X176480000Y-100932500D01*
X176480000Y-100637500D01*
X176491228Y-100581054D01*
X176523202Y-100533202D01*
X176571054Y-100501228D01*
X176627500Y-100490000D01*
X176972500Y-100490000D01*
X177028946Y-100501228D01*
G37*
G36*
X114011100Y-100689500D02*
G01*
X112004500Y-100689500D01*
X112004500Y-98530500D01*
X114011100Y-98530500D01*
X114011100Y-100689500D01*
G37*
G36*
X117941100Y-100689500D02*
G01*
X115934500Y-100689500D01*
X115934500Y-98530500D01*
X117941100Y-98530500D01*
X117941100Y-100689500D01*
G37*
G36*
X120936104Y-99442127D02*
G01*
X121009099Y-99490901D01*
X121057873Y-99563896D01*
X121075000Y-99650000D01*
X121075000Y-100150000D01*
X121057873Y-100236104D01*
X121009099Y-100309099D01*
X120936104Y-100357873D01*
X120850000Y-100375000D01*
X120400000Y-100375000D01*
X120313896Y-100357873D01*
X120240901Y-100309099D01*
X120192127Y-100236104D01*
X120175000Y-100150000D01*
X120175000Y-99650000D01*
X120192127Y-99563896D01*
X120240901Y-99490901D01*
X120313896Y-99442127D01*
X120400000Y-99425000D01*
X120850000Y-99425000D01*
X120936104Y-99442127D01*
G37*
G36*
X122486104Y-99442127D02*
G01*
X122559099Y-99490901D01*
X122607873Y-99563896D01*
X122625000Y-99650000D01*
X122625000Y-100150000D01*
X122607873Y-100236104D01*
X122559099Y-100309099D01*
X122486104Y-100357873D01*
X122400000Y-100375000D01*
X121950000Y-100375000D01*
X121863896Y-100357873D01*
X121790901Y-100309099D01*
X121742127Y-100236104D01*
X121725000Y-100150000D01*
X121725000Y-99650000D01*
X121742127Y-99563896D01*
X121790901Y-99490901D01*
X121863896Y-99442127D01*
X121950000Y-99425000D01*
X122400000Y-99425000D01*
X122486104Y-99442127D01*
G37*
G36*
X178586104Y-99492127D02*
G01*
X178659099Y-99540901D01*
X178707873Y-99613896D01*
X178725000Y-99700000D01*
X178725000Y-100150000D01*
X178707873Y-100236104D01*
X178659099Y-100309099D01*
X178586104Y-100357873D01*
X178500000Y-100375000D01*
X178000000Y-100375000D01*
X177913896Y-100357873D01*
X177840901Y-100309099D01*
X177792127Y-100236104D01*
X177775000Y-100150000D01*
X177775000Y-99700000D01*
X177792127Y-99613896D01*
X177840901Y-99540901D01*
X177913896Y-99492127D01*
X178000000Y-99475000D01*
X178500000Y-99475000D01*
X178586104Y-99492127D01*
G37*
G36*
X180061104Y-99492127D02*
G01*
X180134099Y-99540901D01*
X180182873Y-99613896D01*
X180200000Y-99700000D01*
X180200000Y-100150000D01*
X180182873Y-100236104D01*
X180134099Y-100309099D01*
X180061104Y-100357873D01*
X179975000Y-100375000D01*
X179475000Y-100375000D01*
X179388896Y-100357873D01*
X179315901Y-100309099D01*
X179267127Y-100236104D01*
X179250000Y-100150000D01*
X179250000Y-99700000D01*
X179267127Y-99613896D01*
X179315901Y-99540901D01*
X179388896Y-99492127D01*
X179475000Y-99475000D01*
X179975000Y-99475000D01*
X180061104Y-99492127D01*
G37*
G36*
X125836104Y-99467127D02*
G01*
X125909099Y-99515901D01*
X125957873Y-99588896D01*
X125975000Y-99675000D01*
X125975000Y-100125000D01*
X125957873Y-100211104D01*
X125909099Y-100284099D01*
X125836104Y-100332873D01*
X125750000Y-100350000D01*
X125250000Y-100350000D01*
X125163896Y-100332873D01*
X125090901Y-100284099D01*
X125042127Y-100211104D01*
X125025000Y-100125000D01*
X125025000Y-99675000D01*
X125042127Y-99588896D01*
X125090901Y-99515901D01*
X125163896Y-99467127D01*
X125250000Y-99450000D01*
X125750000Y-99450000D01*
X125836104Y-99467127D01*
G37*
G36*
X130886104Y-99467127D02*
G01*
X130959099Y-99515901D01*
X131007873Y-99588896D01*
X131025000Y-99675000D01*
X131025000Y-100125000D01*
X131007873Y-100211104D01*
X130959099Y-100284099D01*
X130886104Y-100332873D01*
X130800000Y-100350000D01*
X130300000Y-100350000D01*
X130213896Y-100332873D01*
X130140901Y-100284099D01*
X130092127Y-100211104D01*
X130075000Y-100125000D01*
X130075000Y-99675000D01*
X130092127Y-99588896D01*
X130140901Y-99515901D01*
X130213896Y-99467127D01*
X130300000Y-99450000D01*
X130800000Y-99450000D01*
X130886104Y-99467127D01*
G37*
G36*
X128086103Y-99467126D02*
G01*
X128159098Y-99515900D01*
X128207872Y-99588895D01*
X128224999Y-99674999D01*
X128224999Y-100124999D01*
X128207872Y-100211103D01*
X128159098Y-100284098D01*
X128086103Y-100332872D01*
X127999999Y-100349999D01*
X127499999Y-100349999D01*
X127413895Y-100332872D01*
X127340900Y-100284098D01*
X127292126Y-100211103D01*
X127274999Y-100124999D01*
X127274999Y-99674999D01*
X127292126Y-99588895D01*
X127340900Y-99515900D01*
X127413895Y-99467126D01*
X127499999Y-99449999D01*
X127999999Y-99449999D01*
X128086103Y-99467126D01*
G37*
G36*
X123543946Y-99591228D02*
G01*
X123591798Y-99623202D01*
X123623772Y-99671054D01*
X123635000Y-99727500D01*
X123635000Y-100072500D01*
X123623772Y-100128946D01*
X123591798Y-100176798D01*
X123543946Y-100208772D01*
X123487500Y-100220000D01*
X123192500Y-100220000D01*
X123136054Y-100208772D01*
X123088202Y-100176798D01*
X123056228Y-100128946D01*
X123045000Y-100072500D01*
X123045000Y-99727500D01*
X123056228Y-99671054D01*
X123088202Y-99623202D01*
X123136054Y-99591228D01*
X123192500Y-99580000D01*
X123487500Y-99580000D01*
X123543946Y-99591228D01*
G37*
G36*
X124513946Y-99591228D02*
G01*
X124561798Y-99623202D01*
X124593772Y-99671054D01*
X124605000Y-99727500D01*
X124605000Y-100072500D01*
X124593772Y-100128946D01*
X124561798Y-100176798D01*
X124513946Y-100208772D01*
X124457500Y-100220000D01*
X124162500Y-100220000D01*
X124106054Y-100208772D01*
X124058202Y-100176798D01*
X124026228Y-100128946D01*
X124015000Y-100072500D01*
X124015000Y-99727500D01*
X124026228Y-99671054D01*
X124058202Y-99623202D01*
X124106054Y-99591228D01*
X124162500Y-99580000D01*
X124457500Y-99580000D01*
X124513946Y-99591228D01*
G37*
G36*
X177028946Y-99531228D02*
G01*
X177076798Y-99563202D01*
X177108772Y-99611054D01*
X177120000Y-99667500D01*
X177120000Y-99962500D01*
X177108772Y-100018946D01*
X177076798Y-100066798D01*
X177028946Y-100098772D01*
X176972500Y-100110000D01*
X176627500Y-100110000D01*
X176571054Y-100098772D01*
X176523202Y-100066798D01*
X176491228Y-100018946D01*
X176480000Y-99962500D01*
X176480000Y-99667500D01*
X176491228Y-99611054D01*
X176523202Y-99563202D01*
X176571054Y-99531228D01*
X176627500Y-99520000D01*
X176972500Y-99520000D01*
X177028946Y-99531228D01*
G37*
G36*
X172469134Y-98153806D02*
G01*
X172485355Y-98164645D01*
X172496194Y-98180866D01*
X172500000Y-98200000D01*
X172500000Y-98900000D01*
X172496194Y-98919134D01*
X172485355Y-98935355D01*
X172469134Y-98946194D01*
X172450000Y-98950000D01*
X172350000Y-98950000D01*
X172330866Y-98946194D01*
X172314645Y-98935355D01*
X172303806Y-98919134D01*
X172300000Y-98900000D01*
X172300000Y-98200000D01*
X172303806Y-98180866D01*
X172314645Y-98164645D01*
X172330866Y-98153806D01*
X172350000Y-98150000D01*
X172450000Y-98150000D01*
X172469134Y-98153806D01*
G37*
G36*
X172869134Y-98153806D02*
G01*
X172885355Y-98164645D01*
X172896194Y-98180866D01*
X172900000Y-98200000D01*
X172900000Y-98900000D01*
X172896194Y-98919134D01*
X172885355Y-98935355D01*
X172869134Y-98946194D01*
X172850000Y-98950000D01*
X172750000Y-98950000D01*
X172730866Y-98946194D01*
X172714645Y-98935355D01*
X172703806Y-98919134D01*
X172700000Y-98900000D01*
X172700000Y-98200000D01*
X172703806Y-98180866D01*
X172714645Y-98164645D01*
X172730866Y-98153806D01*
X172750000Y-98150000D01*
X172850000Y-98150000D01*
X172869134Y-98153806D01*
G37*
G36*
X173269134Y-98153806D02*
G01*
X173285355Y-98164645D01*
X173296194Y-98180866D01*
X173300000Y-98200000D01*
X173300000Y-98900000D01*
X173296194Y-98919134D01*
X173285355Y-98935355D01*
X173269134Y-98946194D01*
X173250000Y-98950000D01*
X173150000Y-98950000D01*
X173130866Y-98946194D01*
X173114645Y-98935355D01*
X173103806Y-98919134D01*
X173100000Y-98900000D01*
X173100000Y-98200000D01*
X173103806Y-98180866D01*
X173114645Y-98164645D01*
X173130866Y-98153806D01*
X173150000Y-98150000D01*
X173250000Y-98150000D01*
X173269134Y-98153806D01*
G37*
G36*
X173669134Y-98153806D02*
G01*
X173685355Y-98164645D01*
X173696194Y-98180866D01*
X173700000Y-98200000D01*
X173700000Y-98900000D01*
X173696194Y-98919134D01*
X173685355Y-98935355D01*
X173669134Y-98946194D01*
X173650000Y-98950000D01*
X173550000Y-98950000D01*
X173530866Y-98946194D01*
X173514645Y-98935355D01*
X173503806Y-98919134D01*
X173500000Y-98900000D01*
X173500000Y-98200000D01*
X173503806Y-98180866D01*
X173514645Y-98164645D01*
X173530866Y-98153806D01*
X173550000Y-98150000D01*
X173650000Y-98150000D01*
X173669134Y-98153806D01*
G37*
G36*
X174069134Y-98153806D02*
G01*
X174085355Y-98164645D01*
X174096194Y-98180866D01*
X174100000Y-98200000D01*
X174100000Y-98900000D01*
X174096194Y-98919134D01*
X174085355Y-98935355D01*
X174069134Y-98946194D01*
X174050000Y-98950000D01*
X173950000Y-98950000D01*
X173930866Y-98946194D01*
X173914645Y-98935355D01*
X173903806Y-98919134D01*
X173900000Y-98900000D01*
X173900000Y-98200000D01*
X173903806Y-98180866D01*
X173914645Y-98164645D01*
X173930866Y-98153806D01*
X173950000Y-98150000D01*
X174050000Y-98150000D01*
X174069134Y-98153806D01*
G37*
G36*
X174469134Y-98153806D02*
G01*
X174485355Y-98164645D01*
X174496194Y-98180866D01*
X174500000Y-98200000D01*
X174500000Y-98900000D01*
X174496194Y-98919134D01*
X174485355Y-98935355D01*
X174469134Y-98946194D01*
X174450000Y-98950000D01*
X174350000Y-98950000D01*
X174330866Y-98946194D01*
X174314645Y-98935355D01*
X174303806Y-98919134D01*
X174300000Y-98900000D01*
X174300000Y-98200000D01*
X174303806Y-98180866D01*
X174314645Y-98164645D01*
X174330866Y-98153806D01*
X174350000Y-98150000D01*
X174450000Y-98150000D01*
X174469134Y-98153806D01*
G37*
G36*
X174869134Y-98153806D02*
G01*
X174885355Y-98164645D01*
X174896194Y-98180866D01*
X174900000Y-98200000D01*
X174900000Y-98900000D01*
X174896194Y-98919134D01*
X174885355Y-98935355D01*
X174869134Y-98946194D01*
X174850000Y-98950000D01*
X174750000Y-98950000D01*
X174730866Y-98946194D01*
X174714645Y-98935355D01*
X174703806Y-98919134D01*
X174700000Y-98900000D01*
X174700000Y-98200000D01*
X174703806Y-98180866D01*
X174714645Y-98164645D01*
X174730866Y-98153806D01*
X174750000Y-98150000D01*
X174850000Y-98150000D01*
X174869134Y-98153806D01*
G37*
G36*
X175269134Y-98153806D02*
G01*
X175285355Y-98164645D01*
X175296194Y-98180866D01*
X175300000Y-98200000D01*
X175300000Y-98900000D01*
X175296194Y-98919134D01*
X175285355Y-98935355D01*
X175269134Y-98946194D01*
X175250000Y-98950000D01*
X175150000Y-98950000D01*
X175130866Y-98946194D01*
X175114645Y-98935355D01*
X175103806Y-98919134D01*
X175100000Y-98900000D01*
X175100000Y-98200000D01*
X175103806Y-98180866D01*
X175114645Y-98164645D01*
X175130866Y-98153806D01*
X175150000Y-98150000D01*
X175250000Y-98150000D01*
X175269134Y-98153806D01*
G37*
G36*
X175669134Y-98153806D02*
G01*
X175685355Y-98164645D01*
X175696194Y-98180866D01*
X175700000Y-98200000D01*
X175700000Y-98900000D01*
X175696194Y-98919134D01*
X175685355Y-98935355D01*
X175669134Y-98946194D01*
X175650000Y-98950000D01*
X175550000Y-98950000D01*
X175530866Y-98946194D01*
X175514645Y-98935355D01*
X175503806Y-98919134D01*
X175500000Y-98900000D01*
X175500000Y-98200000D01*
X175503806Y-98180866D01*
X175514645Y-98164645D01*
X175530866Y-98153806D01*
X175550000Y-98150000D01*
X175650000Y-98150000D01*
X175669134Y-98153806D01*
G37*
G36*
X176069134Y-98153806D02*
G01*
X176085355Y-98164645D01*
X176096194Y-98180866D01*
X176100000Y-98200000D01*
X176100000Y-98900000D01*
X176096194Y-98919134D01*
X176085355Y-98935355D01*
X176069134Y-98946194D01*
X176050000Y-98950000D01*
X175950000Y-98950000D01*
X175930866Y-98946194D01*
X175914645Y-98935355D01*
X175903806Y-98919134D01*
X175900000Y-98900000D01*
X175900000Y-98200000D01*
X175903806Y-98180866D01*
X175914645Y-98164645D01*
X175930866Y-98153806D01*
X175950000Y-98150000D01*
X176050000Y-98150000D01*
X176069134Y-98153806D01*
G37*
G36*
X176469134Y-98153806D02*
G01*
X176485355Y-98164645D01*
X176496194Y-98180866D01*
X176500000Y-98200000D01*
X176500000Y-98900000D01*
X176496194Y-98919134D01*
X176485355Y-98935355D01*
X176469134Y-98946194D01*
X176450000Y-98950000D01*
X176350000Y-98950000D01*
X176330866Y-98946194D01*
X176314645Y-98935355D01*
X176303806Y-98919134D01*
X176300000Y-98900000D01*
X176300000Y-98200000D01*
X176303806Y-98180866D01*
X176314645Y-98164645D01*
X176330866Y-98153806D01*
X176350000Y-98150000D01*
X176450000Y-98150000D01*
X176469134Y-98153806D01*
G37*
G36*
X176869134Y-98153806D02*
G01*
X176885355Y-98164645D01*
X176896194Y-98180866D01*
X176900000Y-98200000D01*
X176900000Y-98900000D01*
X176896194Y-98919134D01*
X176885355Y-98935355D01*
X176869134Y-98946194D01*
X176850000Y-98950000D01*
X176750000Y-98950000D01*
X176730866Y-98946194D01*
X176714645Y-98935355D01*
X176703806Y-98919134D01*
X176700000Y-98900000D01*
X176700000Y-98200000D01*
X176703806Y-98180866D01*
X176714645Y-98164645D01*
X176730866Y-98153806D01*
X176750000Y-98150000D01*
X176850000Y-98150000D01*
X176869134Y-98153806D01*
G37*
G36*
X177269134Y-98153806D02*
G01*
X177285355Y-98164645D01*
X177296194Y-98180866D01*
X177300000Y-98200000D01*
X177300000Y-98900000D01*
X177296194Y-98919134D01*
X177285355Y-98935355D01*
X177269134Y-98946194D01*
X177250000Y-98950000D01*
X177150000Y-98950000D01*
X177130866Y-98946194D01*
X177114645Y-98935355D01*
X177103806Y-98919134D01*
X177100000Y-98900000D01*
X177100000Y-98200000D01*
X177103806Y-98180866D01*
X177114645Y-98164645D01*
X177130866Y-98153806D01*
X177150000Y-98150000D01*
X177250000Y-98150000D01*
X177269134Y-98153806D01*
G37*
G36*
X177669134Y-98153806D02*
G01*
X177685355Y-98164645D01*
X177696194Y-98180866D01*
X177700000Y-98200000D01*
X177700000Y-98900000D01*
X177696194Y-98919134D01*
X177685355Y-98935355D01*
X177669134Y-98946194D01*
X177650000Y-98950000D01*
X177550000Y-98950000D01*
X177530866Y-98946194D01*
X177514645Y-98935355D01*
X177503806Y-98919134D01*
X177500000Y-98900000D01*
X177500000Y-98200000D01*
X177503806Y-98180866D01*
X177514645Y-98164645D01*
X177530866Y-98153806D01*
X177550000Y-98150000D01*
X177650000Y-98150000D01*
X177669134Y-98153806D01*
G37*
G36*
X180023576Y-98385657D02*
G01*
X180068995Y-98416005D01*
X180099343Y-98461424D01*
X180110000Y-98515000D01*
X180110000Y-98795000D01*
X180099343Y-98848576D01*
X180068995Y-98893995D01*
X180023576Y-98924343D01*
X179970000Y-98935000D01*
X179630000Y-98935000D01*
X179576424Y-98924343D01*
X179531005Y-98893995D01*
X179500657Y-98848576D01*
X179490000Y-98795000D01*
X179490000Y-98515000D01*
X179500657Y-98461424D01*
X179531005Y-98416005D01*
X179576424Y-98385657D01*
X179630000Y-98375000D01*
X179970000Y-98375000D01*
X180023576Y-98385657D01*
G37*
G36*
X182823576Y-98385657D02*
G01*
X182868995Y-98416005D01*
X182899343Y-98461424D01*
X182910000Y-98515000D01*
X182910000Y-98795000D01*
X182899343Y-98848576D01*
X182868995Y-98893995D01*
X182823576Y-98924343D01*
X182770000Y-98935000D01*
X182430000Y-98935000D01*
X182376424Y-98924343D01*
X182331005Y-98893995D01*
X182300657Y-98848576D01*
X182290000Y-98795000D01*
X182290000Y-98515000D01*
X182300657Y-98461424D01*
X182331005Y-98416005D01*
X182376424Y-98385657D01*
X182430000Y-98375000D01*
X182770000Y-98375000D01*
X182823576Y-98385657D01*
G37*
G36*
X128374900Y-98776700D02*
G01*
X127714500Y-98776700D01*
X127714500Y-98573500D01*
X128374900Y-98573500D01*
X128374900Y-98776700D01*
G37*
G36*
X130635500Y-98776700D02*
G01*
X129975100Y-98776700D01*
X129975100Y-98573500D01*
X130635500Y-98573500D01*
X130635500Y-98776700D01*
G37*
G36*
X129670300Y-98675100D02*
G01*
X128679700Y-98675100D01*
X128679700Y-97074900D01*
X129670300Y-97074900D01*
X129670300Y-98675100D01*
G37*
G36*
X132346104Y-97717127D02*
G01*
X132419099Y-97765901D01*
X132467873Y-97838896D01*
X132485000Y-97925000D01*
X132485000Y-98375000D01*
X132467873Y-98461104D01*
X132419099Y-98534099D01*
X132346104Y-98582873D01*
X132260000Y-98600000D01*
X131760000Y-98600000D01*
X131673896Y-98582873D01*
X131600901Y-98534099D01*
X131552127Y-98461104D01*
X131535000Y-98375000D01*
X131535000Y-97925000D01*
X131552127Y-97838896D01*
X131600901Y-97765901D01*
X131673896Y-97717127D01*
X131760000Y-97700000D01*
X132260000Y-97700000D01*
X132346104Y-97717127D01*
G37*
G36*
X128374900Y-98376650D02*
G01*
X127714500Y-98376650D01*
X127714500Y-98173450D01*
X128374900Y-98173450D01*
X128374900Y-98376650D01*
G37*
G36*
X130635500Y-98376650D02*
G01*
X129975100Y-98376650D01*
X129975100Y-98173450D01*
X130635500Y-98173450D01*
X130635500Y-98376650D01*
G37*
G36*
X180918946Y-97391228D02*
G01*
X180966798Y-97423202D01*
X180998772Y-97471054D01*
X181010000Y-97527500D01*
X181010000Y-97872500D01*
X180998772Y-97928946D01*
X180966798Y-97976798D01*
X180918946Y-98008772D01*
X180862500Y-98020000D01*
X180567500Y-98020000D01*
X180511054Y-98008772D01*
X180463202Y-97976798D01*
X180431228Y-97928946D01*
X180420000Y-97872500D01*
X180420000Y-97527500D01*
X180431228Y-97471054D01*
X180463202Y-97423202D01*
X180511054Y-97391228D01*
X180567500Y-97380000D01*
X180862500Y-97380000D01*
X180918946Y-97391228D01*
G37*
G36*
X181888946Y-97391228D02*
G01*
X181936798Y-97423202D01*
X181968772Y-97471054D01*
X181980000Y-97527500D01*
X181980000Y-97872500D01*
X181968772Y-97928946D01*
X181936798Y-97976798D01*
X181888946Y-98008772D01*
X181832500Y-98020000D01*
X181537500Y-98020000D01*
X181481054Y-98008772D01*
X181433202Y-97976798D01*
X181401228Y-97928946D01*
X181390000Y-97872500D01*
X181390000Y-97527500D01*
X181401228Y-97471054D01*
X181433202Y-97423202D01*
X181481054Y-97391228D01*
X181537500Y-97380000D01*
X181832500Y-97380000D01*
X181888946Y-97391228D01*
G37*
G36*
X118153000Y-98004800D02*
G01*
X117027000Y-98004800D01*
X117027000Y-97395200D01*
X118153000Y-97395200D01*
X118153000Y-98004800D01*
G37*
G36*
X151956104Y-97052127D02*
G01*
X152029099Y-97100901D01*
X152077873Y-97173896D01*
X152095000Y-97260000D01*
X152095000Y-97760000D01*
X152077873Y-97846104D01*
X152029099Y-97919099D01*
X151956104Y-97967873D01*
X151870000Y-97985000D01*
X151420000Y-97985000D01*
X151333896Y-97967873D01*
X151260901Y-97919099D01*
X151212127Y-97846104D01*
X151195000Y-97760000D01*
X151195000Y-97260000D01*
X151212127Y-97173896D01*
X151260901Y-97100901D01*
X151333896Y-97052127D01*
X151420000Y-97035000D01*
X151870000Y-97035000D01*
X151956104Y-97052127D01*
G37*
G36*
X153506104Y-97052127D02*
G01*
X153579099Y-97100901D01*
X153627873Y-97173896D01*
X153645000Y-97260000D01*
X153645000Y-97760000D01*
X153627873Y-97846104D01*
X153579099Y-97919099D01*
X153506104Y-97967873D01*
X153420000Y-97985000D01*
X152970000Y-97985000D01*
X152883896Y-97967873D01*
X152810901Y-97919099D01*
X152762127Y-97846104D01*
X152745000Y-97760000D01*
X152745000Y-97260000D01*
X152762127Y-97173896D01*
X152810901Y-97100901D01*
X152883896Y-97052127D01*
X152970000Y-97035000D01*
X153420000Y-97035000D01*
X153506104Y-97052127D01*
G37*
G36*
X128374900Y-97976600D02*
G01*
X127714500Y-97976600D01*
X127714500Y-97773400D01*
X128374900Y-97773400D01*
X128374900Y-97976600D01*
G37*
G36*
X130635500Y-97976600D02*
G01*
X129975100Y-97976600D01*
X129975100Y-97773400D01*
X130635500Y-97773400D01*
X130635500Y-97976600D01*
G37*
G36*
X180023576Y-97425657D02*
G01*
X180068995Y-97456005D01*
X180099343Y-97501424D01*
X180110000Y-97555000D01*
X180110000Y-97835000D01*
X180099343Y-97888576D01*
X180068995Y-97933995D01*
X180023576Y-97964343D01*
X179970000Y-97975000D01*
X179630000Y-97975000D01*
X179576424Y-97964343D01*
X179531005Y-97933995D01*
X179500657Y-97888576D01*
X179490000Y-97835000D01*
X179490000Y-97555000D01*
X179500657Y-97501424D01*
X179531005Y-97456005D01*
X179576424Y-97425657D01*
X179630000Y-97415000D01*
X179970000Y-97415000D01*
X180023576Y-97425657D01*
G37*
G36*
X182823576Y-97425657D02*
G01*
X182868995Y-97456005D01*
X182899343Y-97501424D01*
X182910000Y-97555000D01*
X182910000Y-97835000D01*
X182899343Y-97888576D01*
X182868995Y-97933995D01*
X182823576Y-97964343D01*
X182770000Y-97975000D01*
X182430000Y-97975000D01*
X182376424Y-97964343D01*
X182331005Y-97933995D01*
X182300657Y-97888576D01*
X182290000Y-97835000D01*
X182290000Y-97555000D01*
X182300657Y-97501424D01*
X182331005Y-97456005D01*
X182376424Y-97425657D01*
X182430000Y-97415000D01*
X182770000Y-97415000D01*
X182823576Y-97425657D01*
G37*
G36*
X171919134Y-97603806D02*
G01*
X171935355Y-97614645D01*
X171946194Y-97630866D01*
X171950000Y-97650000D01*
X171950000Y-97750000D01*
X171946194Y-97769134D01*
X171935355Y-97785355D01*
X171919134Y-97796194D01*
X171900000Y-97800000D01*
X171200000Y-97800000D01*
X171180866Y-97796194D01*
X171164645Y-97785355D01*
X171153806Y-97769134D01*
X171150000Y-97750000D01*
X171150000Y-97650000D01*
X171153806Y-97630866D01*
X171164645Y-97614645D01*
X171180866Y-97603806D01*
X171200000Y-97600000D01*
X171900000Y-97600000D01*
X171919134Y-97603806D01*
G37*
G36*
X178819134Y-97603806D02*
G01*
X178835355Y-97614645D01*
X178846194Y-97630866D01*
X178850000Y-97650000D01*
X178850000Y-97750000D01*
X178846194Y-97769134D01*
X178835355Y-97785355D01*
X178819134Y-97796194D01*
X178800000Y-97800000D01*
X178100000Y-97800000D01*
X178080866Y-97796194D01*
X178064645Y-97785355D01*
X178053806Y-97769134D01*
X178050000Y-97750000D01*
X178050000Y-97650000D01*
X178053806Y-97630866D01*
X178064645Y-97614645D01*
X178080866Y-97603806D01*
X178100000Y-97600000D01*
X178800000Y-97600000D01*
X178819134Y-97603806D01*
G37*
G36*
X149936104Y-96867127D02*
G01*
X150009099Y-96915901D01*
X150057873Y-96988896D01*
X150075000Y-97075000D01*
X150075000Y-97525000D01*
X150057873Y-97611104D01*
X150009099Y-97684099D01*
X149936104Y-97732873D01*
X149850000Y-97750000D01*
X149350000Y-97750000D01*
X149263896Y-97732873D01*
X149190901Y-97684099D01*
X149142127Y-97611104D01*
X149125000Y-97525000D01*
X149125000Y-97075000D01*
X149142127Y-96988896D01*
X149190901Y-96915901D01*
X149263896Y-96867127D01*
X149350000Y-96850000D01*
X149850000Y-96850000D01*
X149936104Y-96867127D01*
G37*
G36*
X116466319Y-97064817D02*
G01*
X116495139Y-97064817D01*
X116517341Y-97072897D01*
X116539686Y-97076437D01*
X116571247Y-97092518D01*
X116602900Y-97104039D01*
X116616878Y-97115768D01*
X116631591Y-97123265D01*
X116661728Y-97153402D01*
X116690748Y-97177753D01*
X116697126Y-97188800D01*
X116704535Y-97196209D01*
X116728056Y-97242372D01*
X116748087Y-97277066D01*
X116749332Y-97284128D01*
X116751363Y-97288114D01*
X116763086Y-97362132D01*
X116768000Y-97390001D01*
X116763085Y-97417872D01*
X116751363Y-97491887D01*
X116749332Y-97495871D01*
X116748087Y-97502936D01*
X116728052Y-97537636D01*
X116704535Y-97583792D01*
X116697127Y-97591199D01*
X116690748Y-97602249D01*
X116661722Y-97626604D01*
X116631591Y-97656736D01*
X116616881Y-97664230D01*
X116602900Y-97675963D01*
X116571240Y-97687486D01*
X116539686Y-97703564D01*
X116517345Y-97707102D01*
X116495139Y-97715185D01*
X116466313Y-97715185D01*
X116437800Y-97719701D01*
X116409287Y-97715185D01*
X116380461Y-97715185D01*
X116358254Y-97707102D01*
X116335913Y-97703564D01*
X116304356Y-97687484D01*
X116272700Y-97675963D01*
X116258719Y-97664231D01*
X116244008Y-97656736D01*
X116213871Y-97626599D01*
X116184852Y-97602249D01*
X116178473Y-97591201D01*
X116171064Y-97583792D01*
X116147539Y-97537621D01*
X116127513Y-97502936D01*
X116126267Y-97495874D01*
X116124236Y-97491887D01*
X116112504Y-97417816D01*
X116107600Y-97390001D01*
X116112504Y-97362188D01*
X116124236Y-97288114D01*
X116126268Y-97284125D01*
X116127513Y-97277066D01*
X116147534Y-97242387D01*
X116171064Y-97196209D01*
X116178475Y-97188797D01*
X116184852Y-97177753D01*
X116213865Y-97153407D01*
X116244008Y-97123265D01*
X116258722Y-97115767D01*
X116272700Y-97104039D01*
X116304349Y-97092519D01*
X116335913Y-97076437D01*
X116358259Y-97072897D01*
X116380461Y-97064817D01*
X116409280Y-97064817D01*
X116437800Y-97060300D01*
X116466319Y-97064817D01*
G37*
G36*
X128374900Y-97576550D02*
G01*
X127714500Y-97576550D01*
X127714500Y-97373350D01*
X128374900Y-97373350D01*
X128374900Y-97576550D01*
G37*
G36*
X130635500Y-97576550D02*
G01*
X129975100Y-97576550D01*
X129975100Y-97373350D01*
X130635500Y-97373350D01*
X130635500Y-97576550D01*
G37*
G36*
X171919134Y-97203806D02*
G01*
X171935355Y-97214645D01*
X171946194Y-97230866D01*
X171950000Y-97250000D01*
X171950000Y-97350000D01*
X171946194Y-97369134D01*
X171935355Y-97385355D01*
X171919134Y-97396194D01*
X171900000Y-97400000D01*
X171200000Y-97400000D01*
X171180866Y-97396194D01*
X171164645Y-97385355D01*
X171153806Y-97369134D01*
X171150000Y-97350000D01*
X171150000Y-97250000D01*
X171153806Y-97230866D01*
X171164645Y-97214645D01*
X171180866Y-97203806D01*
X171200000Y-97200000D01*
X171900000Y-97200000D01*
X171919134Y-97203806D01*
G37*
G36*
X178819134Y-97203806D02*
G01*
X178835355Y-97214645D01*
X178846194Y-97230866D01*
X178850000Y-97250000D01*
X178850000Y-97350000D01*
X178846194Y-97369134D01*
X178835355Y-97385355D01*
X178819134Y-97396194D01*
X178800000Y-97400000D01*
X178100000Y-97400000D01*
X178080866Y-97396194D01*
X178064645Y-97385355D01*
X178053806Y-97369134D01*
X178050000Y-97350000D01*
X178050000Y-97250000D01*
X178053806Y-97230866D01*
X178064645Y-97214645D01*
X178080866Y-97203806D01*
X178100000Y-97200000D01*
X178800000Y-97200000D01*
X178819134Y-97203806D01*
G37*
G36*
X125401535Y-96465225D02*
G01*
X125466419Y-96508580D01*
X125509774Y-96573464D01*
X125524998Y-96650001D01*
X125524998Y-97050001D01*
X125509774Y-97126538D01*
X125466419Y-97191422D01*
X125401535Y-97234777D01*
X125324998Y-97250001D01*
X124774998Y-97250001D01*
X124698461Y-97234777D01*
X124633577Y-97191422D01*
X124590222Y-97126538D01*
X124574998Y-97050001D01*
X124574998Y-96650001D01*
X124590222Y-96573464D01*
X124633577Y-96508580D01*
X124698461Y-96465225D01*
X124774998Y-96450001D01*
X125324998Y-96450001D01*
X125401535Y-96465225D01*
G37*
G36*
X126876536Y-96465223D02*
G01*
X126941420Y-96508578D01*
X126984775Y-96573462D01*
X126999999Y-96649999D01*
X126999999Y-97049999D01*
X126984775Y-97126536D01*
X126941420Y-97191420D01*
X126876536Y-97234775D01*
X126799999Y-97249999D01*
X126249999Y-97249999D01*
X126173462Y-97234775D01*
X126108578Y-97191420D01*
X126065223Y-97126536D01*
X126049999Y-97049999D01*
X126049999Y-96649999D01*
X126065223Y-96573462D01*
X126108578Y-96508578D01*
X126173462Y-96465223D01*
X126249999Y-96449999D01*
X126799999Y-96449999D01*
X126876536Y-96465223D01*
G37*
G36*
X118123000Y-97204800D02*
G01*
X116997000Y-97204800D01*
X116997000Y-96595200D01*
X118123000Y-96595200D01*
X118123000Y-97204800D01*
G37*
G36*
X128374900Y-97176500D02*
G01*
X127714500Y-97176500D01*
X127714500Y-96973300D01*
X128374900Y-96973300D01*
X128374900Y-97176500D01*
G37*
G36*
X130635500Y-97176500D02*
G01*
X129975100Y-97176500D01*
X129975100Y-96973300D01*
X130635500Y-96973300D01*
X130635500Y-97176500D01*
G37*
G36*
X174000000Y-97100000D02*
G01*
X173000000Y-97100000D01*
X173000000Y-96100000D01*
X174000000Y-96100000D01*
X174000000Y-97100000D01*
G37*
G36*
X175500000Y-97100000D02*
G01*
X174500000Y-97100000D01*
X174500000Y-96100000D01*
X175500000Y-96100000D01*
X175500000Y-97100000D01*
G37*
G36*
X177000000Y-97100000D02*
G01*
X176000000Y-97100000D01*
X176000000Y-96100000D01*
X177000000Y-96100000D01*
X177000000Y-97100000D01*
G37*
G36*
X132346104Y-96167127D02*
G01*
X132419099Y-96215901D01*
X132467873Y-96288896D01*
X132485000Y-96375000D01*
X132485000Y-96825000D01*
X132467873Y-96911104D01*
X132419099Y-96984099D01*
X132346104Y-97032873D01*
X132260000Y-97050000D01*
X131760000Y-97050000D01*
X131673896Y-97032873D01*
X131600901Y-96984099D01*
X131552127Y-96911104D01*
X131535000Y-96825000D01*
X131535000Y-96375000D01*
X131552127Y-96288896D01*
X131600901Y-96215901D01*
X131673896Y-96167127D01*
X131760000Y-96150000D01*
X132260000Y-96150000D01*
X132346104Y-96167127D01*
G37*
G36*
X171919134Y-96803806D02*
G01*
X171935355Y-96814645D01*
X171946194Y-96830866D01*
X171950000Y-96850000D01*
X171950000Y-96950000D01*
X171946194Y-96969134D01*
X171935355Y-96985355D01*
X171919134Y-96996194D01*
X171900000Y-97000000D01*
X171200000Y-97000000D01*
X171180866Y-96996194D01*
X171164645Y-96985355D01*
X171153806Y-96969134D01*
X171150000Y-96950000D01*
X171150000Y-96850000D01*
X171153806Y-96830866D01*
X171164645Y-96814645D01*
X171180866Y-96803806D01*
X171200000Y-96800000D01*
X171900000Y-96800000D01*
X171919134Y-96803806D01*
G37*
G36*
X178819134Y-96803806D02*
G01*
X178835355Y-96814645D01*
X178846194Y-96830866D01*
X178850000Y-96850000D01*
X178850000Y-96950000D01*
X178846194Y-96969134D01*
X178835355Y-96985355D01*
X178819134Y-96996194D01*
X178800000Y-97000000D01*
X178100000Y-97000000D01*
X178080866Y-96996194D01*
X178064645Y-96985355D01*
X178053806Y-96969134D01*
X178050000Y-96950000D01*
X178050000Y-96850000D01*
X178053806Y-96830866D01*
X178064645Y-96814645D01*
X178080866Y-96803806D01*
X178100000Y-96800000D01*
X178800000Y-96800000D01*
X178819134Y-96803806D01*
G37*
G36*
X171919134Y-96403806D02*
G01*
X171935355Y-96414645D01*
X171946194Y-96430866D01*
X171950000Y-96450000D01*
X171950000Y-96550000D01*
X171946194Y-96569134D01*
X171935355Y-96585355D01*
X171919134Y-96596194D01*
X171900000Y-96600000D01*
X171200000Y-96600000D01*
X171180866Y-96596194D01*
X171164645Y-96585355D01*
X171153806Y-96569134D01*
X171150000Y-96550000D01*
X171150000Y-96450000D01*
X171153806Y-96430866D01*
X171164645Y-96414645D01*
X171180866Y-96403806D01*
X171200000Y-96400000D01*
X171900000Y-96400000D01*
X171919134Y-96403806D01*
G37*
G36*
X178819134Y-96403806D02*
G01*
X178835355Y-96414645D01*
X178846194Y-96430866D01*
X178850000Y-96450000D01*
X178850000Y-96550000D01*
X178846194Y-96569134D01*
X178835355Y-96585355D01*
X178819134Y-96596194D01*
X178800000Y-96600000D01*
X178100000Y-96600000D01*
X178080866Y-96596194D01*
X178064645Y-96585355D01*
X178053806Y-96569134D01*
X178050000Y-96550000D01*
X178050000Y-96450000D01*
X178053806Y-96430866D01*
X178064645Y-96414645D01*
X178080866Y-96403806D01*
X178100000Y-96400000D01*
X178800000Y-96400000D01*
X178819134Y-96403806D01*
G37*
G36*
X181036104Y-95582127D02*
G01*
X181109099Y-95630901D01*
X181157873Y-95703896D01*
X181175000Y-95790000D01*
X181175000Y-96290000D01*
X181157873Y-96376104D01*
X181109099Y-96449099D01*
X181036104Y-96497873D01*
X180950000Y-96515000D01*
X180500000Y-96515000D01*
X180413896Y-96497873D01*
X180340901Y-96449099D01*
X180292127Y-96376104D01*
X180275000Y-96290000D01*
X180275000Y-95790000D01*
X180292127Y-95703896D01*
X180340901Y-95630901D01*
X180413896Y-95582127D01*
X180500000Y-95565000D01*
X180950000Y-95565000D01*
X181036104Y-95582127D01*
G37*
G36*
X182586104Y-95582127D02*
G01*
X182659099Y-95630901D01*
X182707873Y-95703896D01*
X182725000Y-95790000D01*
X182725000Y-96290000D01*
X182707873Y-96376104D01*
X182659099Y-96449099D01*
X182586104Y-96497873D01*
X182500000Y-96515000D01*
X182050000Y-96515000D01*
X181963896Y-96497873D01*
X181890901Y-96449099D01*
X181842127Y-96376104D01*
X181825000Y-96290000D01*
X181825000Y-95790000D01*
X181842127Y-95703896D01*
X181890901Y-95630901D01*
X181963896Y-95582127D01*
X182050000Y-95565000D01*
X182500000Y-95565000D01*
X182586104Y-95582127D01*
G37*
G36*
X118084300Y-96402399D02*
G01*
X116941300Y-96402399D01*
X116941300Y-96097599D01*
X118084300Y-96097599D01*
X118084300Y-96402399D01*
G37*
G36*
X151751599Y-96354200D02*
G01*
X151548401Y-96354200D01*
X151548401Y-95720000D01*
X151751599Y-95720000D01*
X151751599Y-96354200D01*
G37*
G36*
X152151601Y-96354200D02*
G01*
X151948401Y-96354200D01*
X151948401Y-95693800D01*
X152151601Y-95693800D01*
X152151601Y-96354200D01*
G37*
G36*
X152551600Y-96354200D02*
G01*
X152348400Y-96354200D01*
X152348400Y-95693800D01*
X152551600Y-95693800D01*
X152551600Y-96354200D01*
G37*
G36*
X152951600Y-96354200D02*
G01*
X152748400Y-96354200D01*
X152748400Y-95693800D01*
X152951600Y-95693800D01*
X152951600Y-96354200D01*
G37*
G36*
X153351599Y-96354200D02*
G01*
X153148399Y-96354200D01*
X153148399Y-95693800D01*
X153351599Y-95693800D01*
X153351599Y-96354200D01*
G37*
G36*
X153751601Y-96354200D02*
G01*
X153548401Y-96354200D01*
X153548401Y-95720000D01*
X153751601Y-95720000D01*
X153751601Y-96354200D01*
G37*
G36*
X128201537Y-95365224D02*
G01*
X128266421Y-95408579D01*
X128309776Y-95473463D01*
X128325000Y-95550000D01*
X128325000Y-96100000D01*
X128309776Y-96176537D01*
X128266421Y-96241421D01*
X128201537Y-96284776D01*
X128125000Y-96300000D01*
X127725000Y-96300000D01*
X127648463Y-96284776D01*
X127583579Y-96241421D01*
X127540224Y-96176537D01*
X127525000Y-96100000D01*
X127525000Y-95550000D01*
X127540224Y-95473463D01*
X127583579Y-95408579D01*
X127648463Y-95365224D01*
X127725000Y-95350000D01*
X128125000Y-95350000D01*
X128201537Y-95365224D01*
G37*
G36*
X129851537Y-95365224D02*
G01*
X129916421Y-95408579D01*
X129959776Y-95473463D01*
X129975000Y-95550000D01*
X129975000Y-96100000D01*
X129959776Y-96176537D01*
X129916421Y-96241421D01*
X129851537Y-96284776D01*
X129775000Y-96300000D01*
X129375000Y-96300000D01*
X129298463Y-96284776D01*
X129233579Y-96241421D01*
X129190224Y-96176537D01*
X129175000Y-96100000D01*
X129175000Y-95550000D01*
X129190224Y-95473463D01*
X129233579Y-95408579D01*
X129298463Y-95365224D01*
X129375000Y-95350000D01*
X129775000Y-95350000D01*
X129851537Y-95365224D01*
G37*
G36*
X149936104Y-95317127D02*
G01*
X150009099Y-95365901D01*
X150057873Y-95438896D01*
X150075000Y-95525000D01*
X150075000Y-95975000D01*
X150057873Y-96061104D01*
X150009099Y-96134099D01*
X149936104Y-96182873D01*
X149850000Y-96200000D01*
X149350000Y-96200000D01*
X149263896Y-96182873D01*
X149190901Y-96134099D01*
X149142127Y-96061104D01*
X149125000Y-95975000D01*
X149125000Y-95525000D01*
X149142127Y-95438896D01*
X149190901Y-95365901D01*
X149263896Y-95317127D01*
X149350000Y-95300000D01*
X149850000Y-95300000D01*
X149936104Y-95317127D01*
G37*
G36*
X171919134Y-96003806D02*
G01*
X171935355Y-96014645D01*
X171946194Y-96030866D01*
X171950000Y-96050000D01*
X171950000Y-96150000D01*
X171946194Y-96169134D01*
X171935355Y-96185355D01*
X171919134Y-96196194D01*
X171900000Y-96200000D01*
X171200000Y-96200000D01*
X171180866Y-96196194D01*
X171164645Y-96185355D01*
X171153806Y-96169134D01*
X171150000Y-96150000D01*
X171150000Y-96050000D01*
X171153806Y-96030866D01*
X171164645Y-96014645D01*
X171180866Y-96003806D01*
X171200000Y-96000000D01*
X171900000Y-96000000D01*
X171919134Y-96003806D01*
G37*
G36*
X178819134Y-96003806D02*
G01*
X178835355Y-96014645D01*
X178846194Y-96030866D01*
X178850000Y-96050000D01*
X178850000Y-96150000D01*
X178846194Y-96169134D01*
X178835355Y-96185355D01*
X178819134Y-96196194D01*
X178800000Y-96200000D01*
X178100000Y-96200000D01*
X178080866Y-96196194D01*
X178064645Y-96185355D01*
X178053806Y-96169134D01*
X178050000Y-96150000D01*
X178050000Y-96050000D01*
X178053806Y-96030866D01*
X178064645Y-96014645D01*
X178080866Y-96003806D01*
X178100000Y-96000000D01*
X178800000Y-96000000D01*
X178819134Y-96003806D01*
G37*
G36*
X118084300Y-95902400D02*
G01*
X116941300Y-95902400D01*
X116941300Y-95597600D01*
X118084300Y-95597600D01*
X118084300Y-95902400D01*
G37*
G36*
X171919134Y-95603806D02*
G01*
X171935355Y-95614645D01*
X171946194Y-95630866D01*
X171950000Y-95650000D01*
X171950000Y-95750000D01*
X171946194Y-95769134D01*
X171935355Y-95785355D01*
X171919134Y-95796194D01*
X171900000Y-95800000D01*
X171200000Y-95800000D01*
X171180866Y-95796194D01*
X171164645Y-95785355D01*
X171153806Y-95769134D01*
X171150000Y-95750000D01*
X171150000Y-95650000D01*
X171153806Y-95630866D01*
X171164645Y-95614645D01*
X171180866Y-95603806D01*
X171200000Y-95600000D01*
X171900000Y-95600000D01*
X171919134Y-95603806D01*
G37*
G36*
X178819134Y-95603806D02*
G01*
X178835355Y-95614645D01*
X178846194Y-95630866D01*
X178850000Y-95650000D01*
X178850000Y-95750000D01*
X178846194Y-95769134D01*
X178835355Y-95785355D01*
X178819134Y-95796194D01*
X178800000Y-95800000D01*
X178100000Y-95800000D01*
X178080866Y-95796194D01*
X178064645Y-95785355D01*
X178053806Y-95769134D01*
X178050000Y-95750000D01*
X178050000Y-95650000D01*
X178053806Y-95630866D01*
X178064645Y-95614645D01*
X178080866Y-95603806D01*
X178100000Y-95600000D01*
X178800000Y-95600000D01*
X178819134Y-95603806D01*
G37*
G36*
X154504200Y-95601601D02*
G01*
X153870000Y-95601601D01*
X153870000Y-95398401D01*
X154504200Y-95398401D01*
X154504200Y-95601601D01*
G37*
G36*
X125401535Y-94815225D02*
G01*
X125466419Y-94858580D01*
X125509774Y-94923464D01*
X125524998Y-95000001D01*
X125524998Y-95400001D01*
X125509774Y-95476538D01*
X125466419Y-95541422D01*
X125401535Y-95584777D01*
X125324998Y-95600001D01*
X124774998Y-95600001D01*
X124698461Y-95584777D01*
X124633577Y-95541422D01*
X124590222Y-95476538D01*
X124574998Y-95400001D01*
X124574998Y-95000001D01*
X124590222Y-94923464D01*
X124633577Y-94858580D01*
X124698461Y-94815225D01*
X124774998Y-94800001D01*
X125324998Y-94800001D01*
X125401535Y-94815225D01*
G37*
G36*
X174000000Y-95600000D02*
G01*
X173000000Y-95600000D01*
X173000000Y-94600000D01*
X174000000Y-94600000D01*
X174000000Y-95600000D01*
G37*
G36*
X175500000Y-95600000D02*
G01*
X174500000Y-95600000D01*
X174500000Y-94600000D01*
X175500000Y-94600000D01*
X175500000Y-95600000D01*
G37*
G36*
X177000000Y-95600000D02*
G01*
X176000000Y-95600000D01*
X176000000Y-94600000D01*
X177000000Y-94600000D01*
X177000000Y-95600000D01*
G37*
G36*
X126876536Y-94815223D02*
G01*
X126941420Y-94858578D01*
X126984775Y-94923462D01*
X126999999Y-94999999D01*
X126999999Y-95399999D01*
X126984775Y-95476536D01*
X126941420Y-95541420D01*
X126876536Y-95584775D01*
X126799999Y-95599999D01*
X126249999Y-95599999D01*
X126173462Y-95584775D01*
X126108578Y-95541420D01*
X126065223Y-95476536D01*
X126049999Y-95399999D01*
X126049999Y-94999999D01*
X126065223Y-94923462D01*
X126108578Y-94858578D01*
X126173462Y-94815223D01*
X126249999Y-94799999D01*
X126799999Y-94799999D01*
X126876536Y-94815223D01*
G37*
G36*
X151430000Y-95599999D02*
G01*
X150795800Y-95599999D01*
X150795800Y-95398401D01*
X151430000Y-95398401D01*
X151430000Y-95599999D01*
G37*
G36*
X161917835Y-94684515D02*
G01*
X161958388Y-94711612D01*
X161985485Y-94752165D01*
X161995000Y-94800000D01*
X161995000Y-95300000D01*
X161985485Y-95347835D01*
X161958388Y-95388388D01*
X161917835Y-95415485D01*
X161870000Y-95425000D01*
X161620000Y-95425000D01*
X161572165Y-95415485D01*
X161531612Y-95388388D01*
X161504515Y-95347835D01*
X161495000Y-95300000D01*
X161495000Y-94800000D01*
X161504515Y-94752165D01*
X161531612Y-94711612D01*
X161572165Y-94684515D01*
X161620000Y-94675000D01*
X161870000Y-94675000D01*
X161917835Y-94684515D01*
G37*
G36*
X163187835Y-94684515D02*
G01*
X163228388Y-94711612D01*
X163255485Y-94752165D01*
X163265000Y-94800000D01*
X163265000Y-95300000D01*
X163255485Y-95347835D01*
X163228388Y-95388388D01*
X163187835Y-95415485D01*
X163140000Y-95425000D01*
X162890000Y-95425000D01*
X162842165Y-95415485D01*
X162801612Y-95388388D01*
X162774515Y-95347835D01*
X162765000Y-95300000D01*
X162765000Y-94800000D01*
X162774515Y-94752165D01*
X162801612Y-94711612D01*
X162842165Y-94684515D01*
X162890000Y-94675000D01*
X163140000Y-94675000D01*
X163187835Y-94684515D01*
G37*
G36*
X164457835Y-94684515D02*
G01*
X164498388Y-94711612D01*
X164525485Y-94752165D01*
X164535000Y-94800000D01*
X164535000Y-95300000D01*
X164525485Y-95347835D01*
X164498388Y-95388388D01*
X164457835Y-95415485D01*
X164410000Y-95425000D01*
X164160000Y-95425000D01*
X164112165Y-95415485D01*
X164071612Y-95388388D01*
X164044515Y-95347835D01*
X164035000Y-95300000D01*
X164035000Y-94800000D01*
X164044515Y-94752165D01*
X164071612Y-94711612D01*
X164112165Y-94684515D01*
X164160000Y-94675000D01*
X164410000Y-94675000D01*
X164457835Y-94684515D01*
G37*
G36*
X165727835Y-94684515D02*
G01*
X165768388Y-94711612D01*
X165795485Y-94752165D01*
X165805000Y-94800000D01*
X165805000Y-95300000D01*
X165795485Y-95347835D01*
X165768388Y-95388388D01*
X165727835Y-95415485D01*
X165680000Y-95425000D01*
X165430000Y-95425000D01*
X165382165Y-95415485D01*
X165341612Y-95388388D01*
X165314515Y-95347835D01*
X165305000Y-95300000D01*
X165305000Y-94800000D01*
X165314515Y-94752165D01*
X165341612Y-94711612D01*
X165382165Y-94684515D01*
X165430000Y-94675000D01*
X165680000Y-94675000D01*
X165727835Y-94684515D01*
G37*
G36*
X168786662Y-94780276D02*
G01*
X168830459Y-94809541D01*
X168859724Y-94853338D01*
X168870000Y-94905000D01*
X168870000Y-95275000D01*
X168859724Y-95326662D01*
X168830459Y-95370459D01*
X168786662Y-95399724D01*
X168735000Y-95410000D01*
X168465000Y-95410000D01*
X168413338Y-95399724D01*
X168369541Y-95370459D01*
X168340276Y-95326662D01*
X168330000Y-95275000D01*
X168330000Y-94905000D01*
X168340276Y-94853338D01*
X168369541Y-94809541D01*
X168413338Y-94780276D01*
X168465000Y-94770000D01*
X168735000Y-94770000D01*
X168786662Y-94780276D01*
G37*
G36*
X169806662Y-94780276D02*
G01*
X169850459Y-94809541D01*
X169879724Y-94853338D01*
X169890000Y-94905000D01*
X169890000Y-95275000D01*
X169879724Y-95326662D01*
X169850459Y-95370459D01*
X169806662Y-95399724D01*
X169755000Y-95410000D01*
X169485000Y-95410000D01*
X169433338Y-95399724D01*
X169389541Y-95370459D01*
X169360276Y-95326662D01*
X169350000Y-95275000D01*
X169350000Y-94905000D01*
X169360276Y-94853338D01*
X169389541Y-94809541D01*
X169433338Y-94780276D01*
X169485000Y-94770000D01*
X169755000Y-94770000D01*
X169806662Y-94780276D01*
G37*
G36*
X118084300Y-95402401D02*
G01*
X116941300Y-95402401D01*
X116941300Y-95097601D01*
X118084300Y-95097601D01*
X118084300Y-95402401D01*
G37*
G36*
X171919134Y-95203806D02*
G01*
X171935355Y-95214645D01*
X171946194Y-95230866D01*
X171950000Y-95250000D01*
X171950000Y-95350000D01*
X171946194Y-95369134D01*
X171935355Y-95385355D01*
X171919134Y-95396194D01*
X171900000Y-95400000D01*
X171200000Y-95400000D01*
X171180866Y-95396194D01*
X171164645Y-95385355D01*
X171153806Y-95369134D01*
X171150000Y-95350000D01*
X171150000Y-95250000D01*
X171153806Y-95230866D01*
X171164645Y-95214645D01*
X171180866Y-95203806D01*
X171200000Y-95200000D01*
X171900000Y-95200000D01*
X171919134Y-95203806D01*
G37*
G36*
X178819134Y-95203806D02*
G01*
X178835355Y-95214645D01*
X178846194Y-95230866D01*
X178850000Y-95250000D01*
X178850000Y-95350000D01*
X178846194Y-95369134D01*
X178835355Y-95385355D01*
X178819134Y-95396194D01*
X178800000Y-95400000D01*
X178100000Y-95400000D01*
X178080866Y-95396194D01*
X178064645Y-95385355D01*
X178053806Y-95369134D01*
X178050000Y-95350000D01*
X178050000Y-95250000D01*
X178053806Y-95230866D01*
X178064645Y-95214645D01*
X178080866Y-95203806D01*
X178100000Y-95200000D01*
X178800000Y-95200000D01*
X178819134Y-95203806D01*
G37*
G36*
X151456200Y-95201599D02*
G01*
X150795800Y-95201599D01*
X150795800Y-94998399D01*
X151456200Y-94998399D01*
X151456200Y-95201599D01*
G37*
G36*
X154504200Y-95201599D02*
G01*
X153843800Y-95201599D01*
X153843800Y-94998399D01*
X154504200Y-94998399D01*
X154504200Y-95201599D01*
G37*
G36*
X180928946Y-94581228D02*
G01*
X180976798Y-94613202D01*
X181008772Y-94661054D01*
X181020000Y-94717500D01*
X181020000Y-95012500D01*
X181008772Y-95068946D01*
X180976798Y-95116798D01*
X180928946Y-95148772D01*
X180872500Y-95160000D01*
X180527500Y-95160000D01*
X180471054Y-95148772D01*
X180423202Y-95116798D01*
X180391228Y-95068946D01*
X180380000Y-95012500D01*
X180380000Y-94717500D01*
X180391228Y-94661054D01*
X180423202Y-94613202D01*
X180471054Y-94581228D01*
X180527500Y-94570000D01*
X180872500Y-94570000D01*
X180928946Y-94581228D01*
G37*
G36*
X171919134Y-94803806D02*
G01*
X171935355Y-94814645D01*
X171946194Y-94830866D01*
X171950000Y-94850000D01*
X171950000Y-94950000D01*
X171946194Y-94969134D01*
X171935355Y-94985355D01*
X171919134Y-94996194D01*
X171900000Y-95000000D01*
X171200000Y-95000000D01*
X171180866Y-94996194D01*
X171164645Y-94985355D01*
X171153806Y-94969134D01*
X171150000Y-94950000D01*
X171150000Y-94850000D01*
X171153806Y-94830866D01*
X171164645Y-94814645D01*
X171180866Y-94803806D01*
X171200000Y-94800000D01*
X171900000Y-94800000D01*
X171919134Y-94803806D01*
G37*
G36*
X178819134Y-94803806D02*
G01*
X178835355Y-94814645D01*
X178846194Y-94830866D01*
X178850000Y-94850000D01*
X178850000Y-94950000D01*
X178846194Y-94969134D01*
X178835355Y-94985355D01*
X178819134Y-94996194D01*
X178800000Y-95000000D01*
X178100000Y-95000000D01*
X178080866Y-94996194D01*
X178064645Y-94985355D01*
X178053806Y-94969134D01*
X178050000Y-94950000D01*
X178050000Y-94850000D01*
X178053806Y-94830866D01*
X178064645Y-94814645D01*
X178080866Y-94803806D01*
X178100000Y-94800000D01*
X178800000Y-94800000D01*
X178819134Y-94803806D01*
G37*
G36*
X118084300Y-94902400D02*
G01*
X116941300Y-94902400D01*
X116941300Y-94597600D01*
X118084300Y-94597600D01*
X118084300Y-94902400D01*
G37*
G36*
X151456200Y-94801600D02*
G01*
X150795800Y-94801600D01*
X150795800Y-94598400D01*
X151456200Y-94598400D01*
X151456200Y-94801600D01*
G37*
G36*
X154504200Y-94801600D02*
G01*
X153843800Y-94801600D01*
X153843800Y-94598400D01*
X154504200Y-94598400D01*
X154504200Y-94801600D01*
G37*
G36*
X156062932Y-94015224D02*
G01*
X156127816Y-94058579D01*
X156171171Y-94123463D01*
X156186395Y-94200000D01*
X156186395Y-94600000D01*
X156171171Y-94676537D01*
X156127816Y-94741421D01*
X156062932Y-94784776D01*
X155986395Y-94800000D01*
X155436395Y-94800000D01*
X155359858Y-94784776D01*
X155294974Y-94741421D01*
X155251619Y-94676537D01*
X155236395Y-94600000D01*
X155236395Y-94200000D01*
X155251619Y-94123463D01*
X155294974Y-94058579D01*
X155359858Y-94015224D01*
X155436395Y-94000000D01*
X155986395Y-94000000D01*
X156062932Y-94015224D01*
G37*
G36*
X157526537Y-94015224D02*
G01*
X157591421Y-94058579D01*
X157634776Y-94123463D01*
X157650000Y-94200000D01*
X157650000Y-94600000D01*
X157634776Y-94676537D01*
X157591421Y-94741421D01*
X157526537Y-94784776D01*
X157450000Y-94800000D01*
X156900000Y-94800000D01*
X156823463Y-94784776D01*
X156758579Y-94741421D01*
X156715224Y-94676537D01*
X156700000Y-94600000D01*
X156700000Y-94200000D01*
X156715224Y-94123463D01*
X156758579Y-94058579D01*
X156823463Y-94015224D01*
X156900000Y-94000000D01*
X157450000Y-94000000D01*
X157526537Y-94015224D01*
G37*
G36*
X120842127Y-94357136D02*
G01*
X120872541Y-94377459D01*
X120892864Y-94407873D01*
X120900000Y-94443750D01*
X120900000Y-94631250D01*
X120892864Y-94667127D01*
X120872541Y-94697541D01*
X120842127Y-94717864D01*
X120806250Y-94725000D01*
X120493750Y-94725000D01*
X120457873Y-94717864D01*
X120427459Y-94697541D01*
X120407136Y-94667127D01*
X120400000Y-94631250D01*
X120400000Y-94443750D01*
X120407136Y-94407873D01*
X120427459Y-94377459D01*
X120457873Y-94357136D01*
X120493750Y-94350000D01*
X120806250Y-94350000D01*
X120842127Y-94357136D01*
G37*
G36*
X122542127Y-94357136D02*
G01*
X122572541Y-94377459D01*
X122592864Y-94407873D01*
X122600000Y-94443750D01*
X122600000Y-94631250D01*
X122592864Y-94667127D01*
X122572541Y-94697541D01*
X122542127Y-94717864D01*
X122506250Y-94725000D01*
X122193750Y-94725000D01*
X122157873Y-94717864D01*
X122127459Y-94697541D01*
X122107136Y-94667127D01*
X122100000Y-94631250D01*
X122100000Y-94443750D01*
X122107136Y-94407873D01*
X122127459Y-94377459D01*
X122157873Y-94357136D01*
X122193750Y-94350000D01*
X122506250Y-94350000D01*
X122542127Y-94357136D01*
G37*
G36*
X171919134Y-94403806D02*
G01*
X171935355Y-94414645D01*
X171946194Y-94430866D01*
X171950000Y-94450000D01*
X171950000Y-94550000D01*
X171946194Y-94569134D01*
X171935355Y-94585355D01*
X171919134Y-94596194D01*
X171900000Y-94600000D01*
X171200000Y-94600000D01*
X171180866Y-94596194D01*
X171164645Y-94585355D01*
X171153806Y-94569134D01*
X171150000Y-94550000D01*
X171150000Y-94450000D01*
X171153806Y-94430866D01*
X171164645Y-94414645D01*
X171180866Y-94403806D01*
X171200000Y-94400000D01*
X171900000Y-94400000D01*
X171919134Y-94403806D01*
G37*
G36*
X178819134Y-94403806D02*
G01*
X178835355Y-94414645D01*
X178846194Y-94430866D01*
X178850000Y-94450000D01*
X178850000Y-94550000D01*
X178846194Y-94569134D01*
X178835355Y-94585355D01*
X178819134Y-94596194D01*
X178800000Y-94600000D01*
X178100000Y-94600000D01*
X178080866Y-94596194D01*
X178064645Y-94585355D01*
X178053806Y-94569134D01*
X178050000Y-94550000D01*
X178050000Y-94450000D01*
X178053806Y-94430866D01*
X178064645Y-94414645D01*
X178080866Y-94403806D01*
X178100000Y-94400000D01*
X178800000Y-94400000D01*
X178819134Y-94403806D01*
G37*
G36*
X118084300Y-94402400D02*
G01*
X116941300Y-94402400D01*
X116941300Y-94097600D01*
X118084300Y-94097600D01*
X118084300Y-94402400D01*
G37*
G36*
X151456200Y-94401600D02*
G01*
X150795800Y-94401600D01*
X150795800Y-94198400D01*
X151456200Y-94198400D01*
X151456200Y-94401600D01*
G37*
G36*
X154504200Y-94401600D02*
G01*
X153843800Y-94401600D01*
X153843800Y-94198400D01*
X154504200Y-94198400D01*
X154504200Y-94401600D01*
G37*
G36*
X168376662Y-93690276D02*
G01*
X168420459Y-93719541D01*
X168449724Y-93763338D01*
X168460000Y-93815000D01*
X168460000Y-94185000D01*
X168449724Y-94236662D01*
X168420459Y-94280459D01*
X168376662Y-94309724D01*
X168325000Y-94320000D01*
X168055000Y-94320000D01*
X168003338Y-94309724D01*
X167959541Y-94280459D01*
X167930276Y-94236662D01*
X167920000Y-94185000D01*
X167920000Y-93815000D01*
X167930276Y-93763338D01*
X167959541Y-93719541D01*
X168003338Y-93690276D01*
X168055000Y-93680000D01*
X168325000Y-93680000D01*
X168376662Y-93690276D01*
G37*
G36*
X169396662Y-93690276D02*
G01*
X169440459Y-93719541D01*
X169469724Y-93763338D01*
X169480000Y-93815000D01*
X169480000Y-94185000D01*
X169469724Y-94236662D01*
X169440459Y-94280459D01*
X169396662Y-94309724D01*
X169345000Y-94320000D01*
X169075000Y-94320000D01*
X169023338Y-94309724D01*
X168979541Y-94280459D01*
X168950276Y-94236662D01*
X168940000Y-94185000D01*
X168940000Y-93815000D01*
X168950276Y-93763338D01*
X168979541Y-93719541D01*
X169023338Y-93690276D01*
X169075000Y-93680000D01*
X169345000Y-93680000D01*
X169396662Y-93690276D01*
G37*
G36*
X149936104Y-93317127D02*
G01*
X150009099Y-93365901D01*
X150057873Y-93438896D01*
X150075000Y-93525000D01*
X150075000Y-93975000D01*
X150057873Y-94061104D01*
X150009099Y-94134099D01*
X149936104Y-94182873D01*
X149850000Y-94200000D01*
X149350000Y-94200000D01*
X149263896Y-94182873D01*
X149190901Y-94134099D01*
X149142127Y-94061104D01*
X149125000Y-93975000D01*
X149125000Y-93525000D01*
X149142127Y-93438896D01*
X149190901Y-93365901D01*
X149263896Y-93317127D01*
X149350000Y-93300000D01*
X149850000Y-93300000D01*
X149936104Y-93317127D01*
G37*
G36*
X171919134Y-94003806D02*
G01*
X171935355Y-94014645D01*
X171946194Y-94030866D01*
X171950000Y-94050000D01*
X171950000Y-94150000D01*
X171946194Y-94169134D01*
X171935355Y-94185355D01*
X171919134Y-94196194D01*
X171900000Y-94200000D01*
X171200000Y-94200000D01*
X171180866Y-94196194D01*
X171164645Y-94185355D01*
X171153806Y-94169134D01*
X171150000Y-94150000D01*
X171150000Y-94050000D01*
X171153806Y-94030866D01*
X171164645Y-94014645D01*
X171180866Y-94003806D01*
X171200000Y-94000000D01*
X171900000Y-94000000D01*
X171919134Y-94003806D01*
G37*
G36*
X178819134Y-94003806D02*
G01*
X178835355Y-94014645D01*
X178846194Y-94030866D01*
X178850000Y-94050000D01*
X178850000Y-94150000D01*
X178846194Y-94169134D01*
X178835355Y-94185355D01*
X178819134Y-94196194D01*
X178800000Y-94200000D01*
X178100000Y-94200000D01*
X178080866Y-94196194D01*
X178064645Y-94185355D01*
X178053806Y-94169134D01*
X178050000Y-94150000D01*
X178050000Y-94050000D01*
X178053806Y-94030866D01*
X178064645Y-94014645D01*
X178080866Y-94003806D01*
X178100000Y-94000000D01*
X178800000Y-94000000D01*
X178819134Y-94003806D01*
G37*
G36*
X180928946Y-93611228D02*
G01*
X180976798Y-93643202D01*
X181008772Y-93691054D01*
X181020000Y-93747500D01*
X181020000Y-94042500D01*
X181008772Y-94098946D01*
X180976798Y-94146798D01*
X180928946Y-94178772D01*
X180872500Y-94190000D01*
X180527500Y-94190000D01*
X180471054Y-94178772D01*
X180423202Y-94146798D01*
X180391228Y-94098946D01*
X180380000Y-94042500D01*
X180380000Y-93747500D01*
X180391228Y-93691054D01*
X180423202Y-93643202D01*
X180471054Y-93611228D01*
X180527500Y-93600000D01*
X180872500Y-93600000D01*
X180928946Y-93611228D01*
G37*
G36*
X120853701Y-93855709D02*
G01*
X120878033Y-93871967D01*
X120894291Y-93896299D01*
X120900000Y-93925000D01*
X120900000Y-94075000D01*
X120894291Y-94103701D01*
X120878033Y-94128033D01*
X120853701Y-94144291D01*
X120825000Y-94150000D01*
X120325000Y-94150000D01*
X120296299Y-94144291D01*
X120271967Y-94128033D01*
X120255709Y-94103701D01*
X120250000Y-94075000D01*
X120250000Y-93925000D01*
X120255709Y-93896299D01*
X120271967Y-93871967D01*
X120296299Y-93855709D01*
X120325000Y-93850000D01*
X120825000Y-93850000D01*
X120853701Y-93855709D01*
G37*
G36*
X122703701Y-93855709D02*
G01*
X122728033Y-93871967D01*
X122744291Y-93896299D01*
X122750000Y-93925000D01*
X122750000Y-94075000D01*
X122744291Y-94103701D01*
X122728033Y-94128033D01*
X122703701Y-94144291D01*
X122675000Y-94150000D01*
X122175000Y-94150000D01*
X122146299Y-94144291D01*
X122121967Y-94128033D01*
X122105709Y-94103701D01*
X122100000Y-94075000D01*
X122100000Y-93925000D01*
X122105709Y-93896299D01*
X122121967Y-93871967D01*
X122146299Y-93855709D01*
X122175000Y-93850000D01*
X122675000Y-93850000D01*
X122703701Y-93855709D01*
G37*
G36*
X174000000Y-94100000D02*
G01*
X173000000Y-94100000D01*
X173000000Y-93100000D01*
X174000000Y-93100000D01*
X174000000Y-94100000D01*
G37*
G36*
X175500000Y-94100000D02*
G01*
X174500000Y-94100000D01*
X174500000Y-93100000D01*
X175500000Y-93100000D01*
X175500000Y-94100000D01*
G37*
G36*
X177000000Y-94100000D02*
G01*
X176000000Y-94100000D01*
X176000000Y-93100000D01*
X177000000Y-93100000D01*
X177000000Y-94100000D01*
G37*
G36*
X135456104Y-93212127D02*
G01*
X135529099Y-93260901D01*
X135577873Y-93333896D01*
X135595000Y-93420000D01*
X135595000Y-93870000D01*
X135577873Y-93956104D01*
X135529099Y-94029099D01*
X135456104Y-94077873D01*
X135370000Y-94095000D01*
X134870000Y-94095000D01*
X134783896Y-94077873D01*
X134710901Y-94029099D01*
X134662127Y-93956104D01*
X134645000Y-93870000D01*
X134645000Y-93420000D01*
X134662127Y-93333896D01*
X134710901Y-93260901D01*
X134783896Y-93212127D01*
X134870000Y-93195000D01*
X135370000Y-93195000D01*
X135456104Y-93212127D01*
G37*
G36*
X163422500Y-94047500D02*
G01*
X161497500Y-94047500D01*
X161497500Y-92572500D01*
X163422500Y-92572500D01*
X163422500Y-94047500D01*
G37*
G36*
X165802500Y-94047500D02*
G01*
X163877500Y-94047500D01*
X163877500Y-92572500D01*
X165802500Y-92572500D01*
X165802500Y-94047500D01*
G37*
G36*
X151456200Y-94001601D02*
G01*
X150795800Y-94001601D01*
X150795800Y-93798401D01*
X151456200Y-93798401D01*
X151456200Y-94001601D01*
G37*
G36*
X154504200Y-94001601D02*
G01*
X153843800Y-94001601D01*
X153843800Y-93798401D01*
X154504200Y-93798401D01*
X154504200Y-94001601D01*
G37*
G36*
X131787500Y-94000000D02*
G01*
X131437500Y-94000000D01*
X131437500Y-93200000D01*
X131787500Y-93200000D01*
X131787500Y-94000000D01*
G37*
G36*
X132437500Y-94000000D02*
G01*
X132087500Y-94000000D01*
X132087500Y-93200000D01*
X132437500Y-93200000D01*
X132437500Y-94000000D01*
G37*
G36*
X133087500Y-94000000D02*
G01*
X132737500Y-94000000D01*
X132737500Y-93200000D01*
X133087500Y-93200000D01*
X133087500Y-94000000D01*
G37*
G36*
X133737500Y-94000000D02*
G01*
X133387500Y-94000000D01*
X133387500Y-93200000D01*
X133737500Y-93200000D01*
X133737500Y-94000000D01*
G37*
G36*
X118084300Y-93902399D02*
G01*
X116941300Y-93902399D01*
X116941300Y-93597599D01*
X118084300Y-93597599D01*
X118084300Y-93902399D01*
G37*
G36*
X171919134Y-93603806D02*
G01*
X171935355Y-93614645D01*
X171946194Y-93630866D01*
X171950000Y-93650000D01*
X171950000Y-93750000D01*
X171946194Y-93769134D01*
X171935355Y-93785355D01*
X171919134Y-93796194D01*
X171900000Y-93800000D01*
X171200000Y-93800000D01*
X171180866Y-93796194D01*
X171164645Y-93785355D01*
X171153806Y-93769134D01*
X171150000Y-93750000D01*
X171150000Y-93650000D01*
X171153806Y-93630866D01*
X171164645Y-93614645D01*
X171180866Y-93603806D01*
X171200000Y-93600000D01*
X171900000Y-93600000D01*
X171919134Y-93603806D01*
G37*
G36*
X178819134Y-93603806D02*
G01*
X178835355Y-93614645D01*
X178846194Y-93630866D01*
X178850000Y-93650000D01*
X178850000Y-93750000D01*
X178846194Y-93769134D01*
X178835355Y-93785355D01*
X178819134Y-93796194D01*
X178800000Y-93800000D01*
X178100000Y-93800000D01*
X178080866Y-93796194D01*
X178064645Y-93785355D01*
X178053806Y-93769134D01*
X178050000Y-93750000D01*
X178050000Y-93650000D01*
X178053806Y-93630866D01*
X178064645Y-93614645D01*
X178080866Y-93603806D01*
X178100000Y-93600000D01*
X178800000Y-93600000D01*
X178819134Y-93603806D01*
G37*
G36*
X145196104Y-92722127D02*
G01*
X145269099Y-92770901D01*
X145317873Y-92843896D01*
X145335000Y-92930000D01*
X145335000Y-93430000D01*
X145317873Y-93516104D01*
X145269099Y-93589099D01*
X145196104Y-93637873D01*
X145110000Y-93655000D01*
X144660000Y-93655000D01*
X144573896Y-93637873D01*
X144500901Y-93589099D01*
X144452127Y-93516104D01*
X144435000Y-93430000D01*
X144435000Y-92930000D01*
X144452127Y-92843896D01*
X144500901Y-92770901D01*
X144573896Y-92722127D01*
X144660000Y-92705000D01*
X145110000Y-92705000D01*
X145196104Y-92722127D01*
G37*
G36*
X146746104Y-92722127D02*
G01*
X146819099Y-92770901D01*
X146867873Y-92843896D01*
X146885000Y-92930000D01*
X146885000Y-93430000D01*
X146867873Y-93516104D01*
X146819099Y-93589099D01*
X146746104Y-93637873D01*
X146660000Y-93655000D01*
X146210000Y-93655000D01*
X146123896Y-93637873D01*
X146050901Y-93589099D01*
X146002127Y-93516104D01*
X145985000Y-93430000D01*
X145985000Y-92930000D01*
X146002127Y-92843896D01*
X146050901Y-92770901D01*
X146123896Y-92722127D01*
X146210000Y-92705000D01*
X146660000Y-92705000D01*
X146746104Y-92722127D01*
G37*
G36*
X120842127Y-93282136D02*
G01*
X120872541Y-93302459D01*
X120892864Y-93332873D01*
X120900000Y-93368750D01*
X120900000Y-93556250D01*
X120892864Y-93592127D01*
X120872541Y-93622541D01*
X120842127Y-93642864D01*
X120806250Y-93650000D01*
X120493750Y-93650000D01*
X120457873Y-93642864D01*
X120427459Y-93622541D01*
X120407136Y-93592127D01*
X120400000Y-93556250D01*
X120400000Y-93368750D01*
X120407136Y-93332873D01*
X120427459Y-93302459D01*
X120457873Y-93282136D01*
X120493750Y-93275000D01*
X120806250Y-93275000D01*
X120842127Y-93282136D01*
G37*
G36*
X122542127Y-93282136D02*
G01*
X122572541Y-93302459D01*
X122592864Y-93332873D01*
X122600000Y-93368750D01*
X122600000Y-93556250D01*
X122592864Y-93592127D01*
X122572541Y-93622541D01*
X122542127Y-93642864D01*
X122506250Y-93650000D01*
X122193750Y-93650000D01*
X122157873Y-93642864D01*
X122127459Y-93622541D01*
X122107136Y-93592127D01*
X122100000Y-93556250D01*
X122100000Y-93368750D01*
X122107136Y-93332873D01*
X122127459Y-93302459D01*
X122157873Y-93282136D01*
X122193750Y-93275000D01*
X122506250Y-93275000D01*
X122542127Y-93282136D01*
G37*
G36*
X151430000Y-93601599D02*
G01*
X150795800Y-93601599D01*
X150795800Y-93398399D01*
X151430000Y-93398399D01*
X151430000Y-93601599D01*
G37*
G36*
X154504200Y-93601599D02*
G01*
X153870000Y-93601599D01*
X153870000Y-93398399D01*
X154504200Y-93398399D01*
X154504200Y-93601599D01*
G37*
G36*
X118084300Y-93402400D02*
G01*
X116941300Y-93402400D01*
X116941300Y-93097600D01*
X118084300Y-93097600D01*
X118084300Y-93402400D01*
G37*
G36*
X171919134Y-93203806D02*
G01*
X171935355Y-93214645D01*
X171946194Y-93230866D01*
X171950000Y-93250000D01*
X171950000Y-93350000D01*
X171946194Y-93369134D01*
X171935355Y-93385355D01*
X171919134Y-93396194D01*
X171900000Y-93400000D01*
X171200000Y-93400000D01*
X171180866Y-93396194D01*
X171164645Y-93385355D01*
X171153806Y-93369134D01*
X171150000Y-93350000D01*
X171150000Y-93250000D01*
X171153806Y-93230866D01*
X171164645Y-93214645D01*
X171180866Y-93203806D01*
X171200000Y-93200000D01*
X171900000Y-93200000D01*
X171919134Y-93203806D01*
G37*
G36*
X178819134Y-93203806D02*
G01*
X178835355Y-93214645D01*
X178846194Y-93230866D01*
X178850000Y-93250000D01*
X178850000Y-93350000D01*
X178846194Y-93369134D01*
X178835355Y-93385355D01*
X178819134Y-93396194D01*
X178800000Y-93400000D01*
X178100000Y-93400000D01*
X178080866Y-93396194D01*
X178064645Y-93385355D01*
X178053806Y-93369134D01*
X178050000Y-93350000D01*
X178050000Y-93250000D01*
X178053806Y-93230866D01*
X178064645Y-93214645D01*
X178080866Y-93203806D01*
X178100000Y-93200000D01*
X178800000Y-93200000D01*
X178819134Y-93203806D01*
G37*
G36*
X168376662Y-92740276D02*
G01*
X168420459Y-92769541D01*
X168449724Y-92813338D01*
X168460000Y-92865000D01*
X168460000Y-93235000D01*
X168449724Y-93286662D01*
X168420459Y-93330459D01*
X168376662Y-93359724D01*
X168325000Y-93370000D01*
X168055000Y-93370000D01*
X168003338Y-93359724D01*
X167959541Y-93330459D01*
X167930276Y-93286662D01*
X167920000Y-93235000D01*
X167920000Y-92865000D01*
X167930276Y-92813338D01*
X167959541Y-92769541D01*
X168003338Y-92740276D01*
X168055000Y-92730000D01*
X168325000Y-92730000D01*
X168376662Y-92740276D01*
G37*
G36*
X169396662Y-92740276D02*
G01*
X169440459Y-92769541D01*
X169469724Y-92813338D01*
X169480000Y-92865000D01*
X169480000Y-93235000D01*
X169469724Y-93286662D01*
X169440459Y-93330459D01*
X169396662Y-93359724D01*
X169345000Y-93370000D01*
X169075000Y-93370000D01*
X169023338Y-93359724D01*
X168979541Y-93330459D01*
X168950276Y-93286662D01*
X168940000Y-93235000D01*
X168940000Y-92865000D01*
X168950276Y-92813338D01*
X168979541Y-92769541D01*
X169023338Y-92740276D01*
X169075000Y-92730000D01*
X169345000Y-92730000D01*
X169396662Y-92740276D01*
G37*
G36*
X152151601Y-93306200D02*
G01*
X151948401Y-93306200D01*
X151948401Y-92645800D01*
X152151601Y-92645800D01*
X152151601Y-93306200D01*
G37*
G36*
X152551600Y-93306200D02*
G01*
X152348400Y-93306200D01*
X152348400Y-92645800D01*
X152551600Y-92645800D01*
X152551600Y-93306200D01*
G37*
G36*
X152951600Y-93306200D02*
G01*
X152748400Y-93306200D01*
X152748400Y-92645800D01*
X152951600Y-92645800D01*
X152951600Y-93306200D01*
G37*
G36*
X153351599Y-93306200D02*
G01*
X153148399Y-93306200D01*
X153148399Y-92645800D01*
X153351599Y-92645800D01*
X153351599Y-93306200D01*
G37*
G36*
X151751599Y-93280000D02*
G01*
X151550001Y-93280000D01*
X151550001Y-92645800D01*
X151751599Y-92645800D01*
X151751599Y-93280000D01*
G37*
G36*
X153749999Y-93280000D02*
G01*
X153548401Y-93280000D01*
X153548401Y-92645800D01*
X153749999Y-92645800D01*
X153749999Y-93280000D01*
G37*
G36*
X181086104Y-92262127D02*
G01*
X181159099Y-92310901D01*
X181207873Y-92383896D01*
X181225000Y-92470000D01*
X181225000Y-92970000D01*
X181207873Y-93056104D01*
X181159099Y-93129099D01*
X181086104Y-93177873D01*
X181000000Y-93195000D01*
X180550000Y-93195000D01*
X180463896Y-93177873D01*
X180390901Y-93129099D01*
X180342127Y-93056104D01*
X180325000Y-92970000D01*
X180325000Y-92470000D01*
X180342127Y-92383896D01*
X180390901Y-92310901D01*
X180463896Y-92262127D01*
X180550000Y-92245000D01*
X181000000Y-92245000D01*
X181086104Y-92262127D01*
G37*
G36*
X182636104Y-92262127D02*
G01*
X182709099Y-92310901D01*
X182757873Y-92383896D01*
X182775000Y-92470000D01*
X182775000Y-92970000D01*
X182757873Y-93056104D01*
X182709099Y-93129099D01*
X182636104Y-93177873D01*
X182550000Y-93195000D01*
X182100000Y-93195000D01*
X182013896Y-93177873D01*
X181940901Y-93129099D01*
X181892127Y-93056104D01*
X181875000Y-92970000D01*
X181875000Y-92470000D01*
X181892127Y-92383896D01*
X181940901Y-92310901D01*
X182013896Y-92262127D01*
X182100000Y-92245000D01*
X182550000Y-92245000D01*
X182636104Y-92262127D01*
G37*
G36*
X156062932Y-92365224D02*
G01*
X156127816Y-92408579D01*
X156171171Y-92473463D01*
X156186395Y-92550000D01*
X156186395Y-92950000D01*
X156171171Y-93026537D01*
X156127816Y-93091421D01*
X156062932Y-93134776D01*
X155986395Y-93150000D01*
X155436395Y-93150000D01*
X155359858Y-93134776D01*
X155294974Y-93091421D01*
X155251619Y-93026537D01*
X155236395Y-92950000D01*
X155236395Y-92550000D01*
X155251619Y-92473463D01*
X155294974Y-92408579D01*
X155359858Y-92365224D01*
X155436395Y-92350000D01*
X155986395Y-92350000D01*
X156062932Y-92365224D01*
G37*
G36*
X157526537Y-92365224D02*
G01*
X157591421Y-92408579D01*
X157634776Y-92473463D01*
X157650000Y-92550000D01*
X157650000Y-92950000D01*
X157634776Y-93026537D01*
X157591421Y-93091421D01*
X157526537Y-93134776D01*
X157450000Y-93150000D01*
X156900000Y-93150000D01*
X156823463Y-93134776D01*
X156758579Y-93091421D01*
X156715224Y-93026537D01*
X156700000Y-92950000D01*
X156700000Y-92550000D01*
X156715224Y-92473463D01*
X156758579Y-92408579D01*
X156823463Y-92365224D01*
X156900000Y-92350000D01*
X157450000Y-92350000D01*
X157526537Y-92365224D01*
G37*
G36*
X171919134Y-92803806D02*
G01*
X171935355Y-92814645D01*
X171946194Y-92830866D01*
X171950000Y-92850000D01*
X171950000Y-92950000D01*
X171946194Y-92969134D01*
X171935355Y-92985355D01*
X171919134Y-92996194D01*
X171900000Y-93000000D01*
X171200000Y-93000000D01*
X171180866Y-92996194D01*
X171164645Y-92985355D01*
X171153806Y-92969134D01*
X171150000Y-92950000D01*
X171150000Y-92850000D01*
X171153806Y-92830866D01*
X171164645Y-92814645D01*
X171180866Y-92803806D01*
X171200000Y-92800000D01*
X171900000Y-92800000D01*
X171919134Y-92803806D01*
G37*
G36*
X178819134Y-92803806D02*
G01*
X178835355Y-92814645D01*
X178846194Y-92830866D01*
X178850000Y-92850000D01*
X178850000Y-92950000D01*
X178846194Y-92969134D01*
X178835355Y-92985355D01*
X178819134Y-92996194D01*
X178800000Y-93000000D01*
X178100000Y-93000000D01*
X178080866Y-92996194D01*
X178064645Y-92985355D01*
X178053806Y-92969134D01*
X178050000Y-92950000D01*
X178050000Y-92850000D01*
X178053806Y-92830866D01*
X178064645Y-92814645D01*
X178080866Y-92803806D01*
X178100000Y-92800000D01*
X178800000Y-92800000D01*
X178819134Y-92803806D01*
G37*
G36*
X133837500Y-92975000D02*
G01*
X131337500Y-92975000D01*
X131337500Y-91225000D01*
X133837500Y-91225000D01*
X133837500Y-92975000D01*
G37*
G36*
X118084300Y-92902401D02*
G01*
X116941300Y-92902401D01*
X116941300Y-92597601D01*
X118084300Y-92597601D01*
X118084300Y-92902401D01*
G37*
G36*
X149936104Y-91767127D02*
G01*
X150009099Y-91815901D01*
X150057873Y-91888896D01*
X150075000Y-91975000D01*
X150075000Y-92425000D01*
X150057873Y-92511104D01*
X150009099Y-92584099D01*
X149936104Y-92632873D01*
X149850000Y-92650000D01*
X149350000Y-92650000D01*
X149263896Y-92632873D01*
X149190901Y-92584099D01*
X149142127Y-92511104D01*
X149125000Y-92425000D01*
X149125000Y-91975000D01*
X149142127Y-91888896D01*
X149190901Y-91815901D01*
X149263896Y-91767127D01*
X149350000Y-91750000D01*
X149850000Y-91750000D01*
X149936104Y-91767127D01*
G37*
G36*
X158936104Y-91717127D02*
G01*
X159009099Y-91765901D01*
X159057873Y-91838896D01*
X159075000Y-91925000D01*
X159075000Y-92425000D01*
X159057873Y-92511104D01*
X159009099Y-92584099D01*
X158936104Y-92632873D01*
X158850000Y-92650000D01*
X158400000Y-92650000D01*
X158313896Y-92632873D01*
X158240901Y-92584099D01*
X158192127Y-92511104D01*
X158175000Y-92425000D01*
X158175000Y-91925000D01*
X158192127Y-91838896D01*
X158240901Y-91765901D01*
X158313896Y-91717127D01*
X158400000Y-91700000D01*
X158850000Y-91700000D01*
X158936104Y-91717127D01*
G37*
G36*
X160486104Y-91717127D02*
G01*
X160559099Y-91765901D01*
X160607873Y-91838896D01*
X160625000Y-91925000D01*
X160625000Y-92425000D01*
X160607873Y-92511104D01*
X160559099Y-92584099D01*
X160486104Y-92632873D01*
X160400000Y-92650000D01*
X159950000Y-92650000D01*
X159863896Y-92632873D01*
X159790901Y-92584099D01*
X159742127Y-92511104D01*
X159725000Y-92425000D01*
X159725000Y-91925000D01*
X159742127Y-91838896D01*
X159790901Y-91765901D01*
X159863896Y-91717127D01*
X159950000Y-91700000D01*
X160400000Y-91700000D01*
X160486104Y-91717127D01*
G37*
G36*
X171919134Y-92403806D02*
G01*
X171935355Y-92414645D01*
X171946194Y-92430866D01*
X171950000Y-92450000D01*
X171950000Y-92550000D01*
X171946194Y-92569134D01*
X171935355Y-92585355D01*
X171919134Y-92596194D01*
X171900000Y-92600000D01*
X171200000Y-92600000D01*
X171180866Y-92596194D01*
X171164645Y-92585355D01*
X171153806Y-92569134D01*
X171150000Y-92550000D01*
X171150000Y-92450000D01*
X171153806Y-92430866D01*
X171164645Y-92414645D01*
X171180866Y-92403806D01*
X171200000Y-92400000D01*
X171900000Y-92400000D01*
X171919134Y-92403806D01*
G37*
G36*
X178819134Y-92403806D02*
G01*
X178835355Y-92414645D01*
X178846194Y-92430866D01*
X178850000Y-92450000D01*
X178850000Y-92550000D01*
X178846194Y-92569134D01*
X178835355Y-92585355D01*
X178819134Y-92596194D01*
X178800000Y-92600000D01*
X178100000Y-92600000D01*
X178080866Y-92596194D01*
X178064645Y-92585355D01*
X178053806Y-92569134D01*
X178050000Y-92550000D01*
X178050000Y-92450000D01*
X178053806Y-92430866D01*
X178064645Y-92414645D01*
X178080866Y-92403806D01*
X178100000Y-92400000D01*
X178800000Y-92400000D01*
X178819134Y-92403806D01*
G37*
G36*
X135456104Y-91662127D02*
G01*
X135529099Y-91710901D01*
X135577873Y-91783896D01*
X135595000Y-91870000D01*
X135595000Y-92320000D01*
X135577873Y-92406104D01*
X135529099Y-92479099D01*
X135456104Y-92527873D01*
X135370000Y-92545000D01*
X134870000Y-92545000D01*
X134783896Y-92527873D01*
X134710901Y-92479099D01*
X134662127Y-92406104D01*
X134645000Y-92320000D01*
X134645000Y-91870000D01*
X134662127Y-91783896D01*
X134710901Y-91710901D01*
X134783896Y-91662127D01*
X134870000Y-91645000D01*
X135370000Y-91645000D01*
X135456104Y-91662127D01*
G37*
G36*
X118123000Y-92404800D02*
G01*
X116997000Y-92404800D01*
X116997000Y-91795200D01*
X118123000Y-91795200D01*
X118123000Y-92404800D01*
G37*
G36*
X168376662Y-91540276D02*
G01*
X168420459Y-91569541D01*
X168449724Y-91613338D01*
X168460000Y-91665000D01*
X168460000Y-92035000D01*
X168449724Y-92086662D01*
X168420459Y-92130459D01*
X168376662Y-92159724D01*
X168325000Y-92170000D01*
X168055000Y-92170000D01*
X168003338Y-92159724D01*
X167959541Y-92130459D01*
X167930276Y-92086662D01*
X167920000Y-92035000D01*
X167920000Y-91665000D01*
X167930276Y-91613338D01*
X167959541Y-91569541D01*
X168003338Y-91540276D01*
X168055000Y-91530000D01*
X168325000Y-91530000D01*
X168376662Y-91540276D01*
G37*
G36*
X169396662Y-91540276D02*
G01*
X169440459Y-91569541D01*
X169469724Y-91613338D01*
X169480000Y-91665000D01*
X169480000Y-92035000D01*
X169469724Y-92086662D01*
X169440459Y-92130459D01*
X169396662Y-92159724D01*
X169345000Y-92170000D01*
X169075000Y-92170000D01*
X169023338Y-92159724D01*
X168979541Y-92130459D01*
X168950276Y-92086662D01*
X168940000Y-92035000D01*
X168940000Y-91665000D01*
X168950276Y-91613338D01*
X168979541Y-91569541D01*
X169023338Y-91540276D01*
X169075000Y-91530000D01*
X169345000Y-91530000D01*
X169396662Y-91540276D01*
G37*
G36*
X163422500Y-92127500D02*
G01*
X161497500Y-92127500D01*
X161497500Y-90652500D01*
X163422500Y-90652500D01*
X163422500Y-92127500D01*
G37*
G36*
X165802500Y-92127500D02*
G01*
X163877500Y-92127500D01*
X163877500Y-90652500D01*
X165802500Y-90652500D01*
X165802500Y-92127500D01*
G37*
G36*
X172469134Y-91253806D02*
G01*
X172485355Y-91264645D01*
X172496194Y-91280866D01*
X172500000Y-91300000D01*
X172500000Y-92000000D01*
X172496194Y-92019134D01*
X172485355Y-92035355D01*
X172469134Y-92046194D01*
X172450000Y-92050000D01*
X172350000Y-92050000D01*
X172330866Y-92046194D01*
X172314645Y-92035355D01*
X172303806Y-92019134D01*
X172300000Y-92000000D01*
X172300000Y-91300000D01*
X172303806Y-91280866D01*
X172314645Y-91264645D01*
X172330866Y-91253806D01*
X172350000Y-91250000D01*
X172450000Y-91250000D01*
X172469134Y-91253806D01*
G37*
G36*
X172869134Y-91253806D02*
G01*
X172885355Y-91264645D01*
X172896194Y-91280866D01*
X172900000Y-91300000D01*
X172900000Y-92000000D01*
X172896194Y-92019134D01*
X172885355Y-92035355D01*
X172869134Y-92046194D01*
X172850000Y-92050000D01*
X172750000Y-92050000D01*
X172730866Y-92046194D01*
X172714645Y-92035355D01*
X172703806Y-92019134D01*
X172700000Y-92000000D01*
X172700000Y-91300000D01*
X172703806Y-91280866D01*
X172714645Y-91264645D01*
X172730866Y-91253806D01*
X172750000Y-91250000D01*
X172850000Y-91250000D01*
X172869134Y-91253806D01*
G37*
G36*
X173269134Y-91253806D02*
G01*
X173285355Y-91264645D01*
X173296194Y-91280866D01*
X173300000Y-91300000D01*
X173300000Y-92000000D01*
X173296194Y-92019134D01*
X173285355Y-92035355D01*
X173269134Y-92046194D01*
X173250000Y-92050000D01*
X173150000Y-92050000D01*
X173130866Y-92046194D01*
X173114645Y-92035355D01*
X173103806Y-92019134D01*
X173100000Y-92000000D01*
X173100000Y-91300000D01*
X173103806Y-91280866D01*
X173114645Y-91264645D01*
X173130866Y-91253806D01*
X173150000Y-91250000D01*
X173250000Y-91250000D01*
X173269134Y-91253806D01*
G37*
G36*
X173669134Y-91253806D02*
G01*
X173685355Y-91264645D01*
X173696194Y-91280866D01*
X173700000Y-91300000D01*
X173700000Y-92000000D01*
X173696194Y-92019134D01*
X173685355Y-92035355D01*
X173669134Y-92046194D01*
X173650000Y-92050000D01*
X173550000Y-92050000D01*
X173530866Y-92046194D01*
X173514645Y-92035355D01*
X173503806Y-92019134D01*
X173500000Y-92000000D01*
X173500000Y-91300000D01*
X173503806Y-91280866D01*
X173514645Y-91264645D01*
X173530866Y-91253806D01*
X173550000Y-91250000D01*
X173650000Y-91250000D01*
X173669134Y-91253806D01*
G37*
G36*
X174069134Y-91253806D02*
G01*
X174085355Y-91264645D01*
X174096194Y-91280866D01*
X174100000Y-91300000D01*
X174100000Y-92000000D01*
X174096194Y-92019134D01*
X174085355Y-92035355D01*
X174069134Y-92046194D01*
X174050000Y-92050000D01*
X173950000Y-92050000D01*
X173930866Y-92046194D01*
X173914645Y-92035355D01*
X173903806Y-92019134D01*
X173900000Y-92000000D01*
X173900000Y-91300000D01*
X173903806Y-91280866D01*
X173914645Y-91264645D01*
X173930866Y-91253806D01*
X173950000Y-91250000D01*
X174050000Y-91250000D01*
X174069134Y-91253806D01*
G37*
G36*
X174469134Y-91253806D02*
G01*
X174485355Y-91264645D01*
X174496194Y-91280866D01*
X174500000Y-91300000D01*
X174500000Y-92000000D01*
X174496194Y-92019134D01*
X174485355Y-92035355D01*
X174469134Y-92046194D01*
X174450000Y-92050000D01*
X174350000Y-92050000D01*
X174330866Y-92046194D01*
X174314645Y-92035355D01*
X174303806Y-92019134D01*
X174300000Y-92000000D01*
X174300000Y-91300000D01*
X174303806Y-91280866D01*
X174314645Y-91264645D01*
X174330866Y-91253806D01*
X174350000Y-91250000D01*
X174450000Y-91250000D01*
X174469134Y-91253806D01*
G37*
G36*
X174869134Y-91253806D02*
G01*
X174885355Y-91264645D01*
X174896194Y-91280866D01*
X174900000Y-91300000D01*
X174900000Y-92000000D01*
X174896194Y-92019134D01*
X174885355Y-92035355D01*
X174869134Y-92046194D01*
X174850000Y-92050000D01*
X174750000Y-92050000D01*
X174730866Y-92046194D01*
X174714645Y-92035355D01*
X174703806Y-92019134D01*
X174700000Y-92000000D01*
X174700000Y-91300000D01*
X174703806Y-91280866D01*
X174714645Y-91264645D01*
X174730866Y-91253806D01*
X174750000Y-91250000D01*
X174850000Y-91250000D01*
X174869134Y-91253806D01*
G37*
G36*
X175269134Y-91253806D02*
G01*
X175285355Y-91264645D01*
X175296194Y-91280866D01*
X175300000Y-91300000D01*
X175300000Y-92000000D01*
X175296194Y-92019134D01*
X175285355Y-92035355D01*
X175269134Y-92046194D01*
X175250000Y-92050000D01*
X175150000Y-92050000D01*
X175130866Y-92046194D01*
X175114645Y-92035355D01*
X175103806Y-92019134D01*
X175100000Y-92000000D01*
X175100000Y-91300000D01*
X175103806Y-91280866D01*
X175114645Y-91264645D01*
X175130866Y-91253806D01*
X175150000Y-91250000D01*
X175250000Y-91250000D01*
X175269134Y-91253806D01*
G37*
G36*
X175669134Y-91253806D02*
G01*
X175685355Y-91264645D01*
X175696194Y-91280866D01*
X175700000Y-91300000D01*
X175700000Y-92000000D01*
X175696194Y-92019134D01*
X175685355Y-92035355D01*
X175669134Y-92046194D01*
X175650000Y-92050000D01*
X175550000Y-92050000D01*
X175530866Y-92046194D01*
X175514645Y-92035355D01*
X175503806Y-92019134D01*
X175500000Y-92000000D01*
X175500000Y-91300000D01*
X175503806Y-91280866D01*
X175514645Y-91264645D01*
X175530866Y-91253806D01*
X175550000Y-91250000D01*
X175650000Y-91250000D01*
X175669134Y-91253806D01*
G37*
G36*
X176069134Y-91253806D02*
G01*
X176085355Y-91264645D01*
X176096194Y-91280866D01*
X176100000Y-91300000D01*
X176100000Y-92000000D01*
X176096194Y-92019134D01*
X176085355Y-92035355D01*
X176069134Y-92046194D01*
X176050000Y-92050000D01*
X175950000Y-92050000D01*
X175930866Y-92046194D01*
X175914645Y-92035355D01*
X175903806Y-92019134D01*
X175900000Y-92000000D01*
X175900000Y-91300000D01*
X175903806Y-91280866D01*
X175914645Y-91264645D01*
X175930866Y-91253806D01*
X175950000Y-91250000D01*
X176050000Y-91250000D01*
X176069134Y-91253806D01*
G37*
G36*
X176469134Y-91253806D02*
G01*
X176485355Y-91264645D01*
X176496194Y-91280866D01*
X176500000Y-91300000D01*
X176500000Y-92000000D01*
X176496194Y-92019134D01*
X176485355Y-92035355D01*
X176469134Y-92046194D01*
X176450000Y-92050000D01*
X176350000Y-92050000D01*
X176330866Y-92046194D01*
X176314645Y-92035355D01*
X176303806Y-92019134D01*
X176300000Y-92000000D01*
X176300000Y-91300000D01*
X176303806Y-91280866D01*
X176314645Y-91264645D01*
X176330866Y-91253806D01*
X176350000Y-91250000D01*
X176450000Y-91250000D01*
X176469134Y-91253806D01*
G37*
G36*
X176869134Y-91253806D02*
G01*
X176885355Y-91264645D01*
X176896194Y-91280866D01*
X176900000Y-91300000D01*
X176900000Y-92000000D01*
X176896194Y-92019134D01*
X176885355Y-92035355D01*
X176869134Y-92046194D01*
X176850000Y-92050000D01*
X176750000Y-92050000D01*
X176730866Y-92046194D01*
X176714645Y-92035355D01*
X176703806Y-92019134D01*
X176700000Y-92000000D01*
X176700000Y-91300000D01*
X176703806Y-91280866D01*
X176714645Y-91264645D01*
X176730866Y-91253806D01*
X176750000Y-91250000D01*
X176850000Y-91250000D01*
X176869134Y-91253806D01*
G37*
G36*
X177269134Y-91253806D02*
G01*
X177285355Y-91264645D01*
X177296194Y-91280866D01*
X177300000Y-91300000D01*
X177300000Y-92000000D01*
X177296194Y-92019134D01*
X177285355Y-92035355D01*
X177269134Y-92046194D01*
X177250000Y-92050000D01*
X177150000Y-92050000D01*
X177130866Y-92046194D01*
X177114645Y-92035355D01*
X177103806Y-92019134D01*
X177100000Y-92000000D01*
X177100000Y-91300000D01*
X177103806Y-91280866D01*
X177114645Y-91264645D01*
X177130866Y-91253806D01*
X177150000Y-91250000D01*
X177250000Y-91250000D01*
X177269134Y-91253806D01*
G37*
G36*
X177669134Y-91253806D02*
G01*
X177685355Y-91264645D01*
X177696194Y-91280866D01*
X177700000Y-91300000D01*
X177700000Y-92000000D01*
X177696194Y-92019134D01*
X177685355Y-92035355D01*
X177669134Y-92046194D01*
X177650000Y-92050000D01*
X177550000Y-92050000D01*
X177530866Y-92046194D01*
X177514645Y-92035355D01*
X177503806Y-92019134D01*
X177500000Y-92000000D01*
X177500000Y-91300000D01*
X177503806Y-91280866D01*
X177514645Y-91264645D01*
X177530866Y-91253806D01*
X177550000Y-91250000D01*
X177650000Y-91250000D01*
X177669134Y-91253806D01*
G37*
G36*
X116466319Y-91284815D02*
G01*
X116495139Y-91284815D01*
X116517341Y-91292895D01*
X116539686Y-91296435D01*
X116571247Y-91312516D01*
X116602900Y-91324037D01*
X116616878Y-91335766D01*
X116631591Y-91343263D01*
X116661728Y-91373400D01*
X116690748Y-91397751D01*
X116697126Y-91408798D01*
X116704535Y-91416207D01*
X116728056Y-91462370D01*
X116748087Y-91497064D01*
X116749332Y-91504126D01*
X116751363Y-91508112D01*
X116763086Y-91582130D01*
X116768000Y-91609999D01*
X116763085Y-91637870D01*
X116751363Y-91711885D01*
X116749332Y-91715869D01*
X116748087Y-91722934D01*
X116728052Y-91757634D01*
X116704535Y-91803790D01*
X116697127Y-91811197D01*
X116690748Y-91822247D01*
X116661722Y-91846602D01*
X116631591Y-91876734D01*
X116616881Y-91884228D01*
X116602900Y-91895961D01*
X116571240Y-91907484D01*
X116539686Y-91923562D01*
X116517345Y-91927100D01*
X116495139Y-91935183D01*
X116466313Y-91935183D01*
X116437800Y-91939699D01*
X116409287Y-91935183D01*
X116380461Y-91935183D01*
X116358254Y-91927100D01*
X116335913Y-91923562D01*
X116304356Y-91907482D01*
X116272700Y-91895961D01*
X116258719Y-91884229D01*
X116244008Y-91876734D01*
X116213871Y-91846597D01*
X116184852Y-91822247D01*
X116178473Y-91811199D01*
X116171064Y-91803790D01*
X116147539Y-91757619D01*
X116127513Y-91722934D01*
X116126267Y-91715872D01*
X116124236Y-91711885D01*
X116112504Y-91637814D01*
X116107600Y-91609999D01*
X116112504Y-91582186D01*
X116124236Y-91508112D01*
X116126268Y-91504123D01*
X116127513Y-91497064D01*
X116147534Y-91462385D01*
X116171064Y-91416207D01*
X116178475Y-91408795D01*
X116184852Y-91397751D01*
X116213865Y-91373405D01*
X116244008Y-91343263D01*
X116258722Y-91335765D01*
X116272700Y-91324037D01*
X116304349Y-91312517D01*
X116335913Y-91296435D01*
X116358259Y-91292895D01*
X116380461Y-91284815D01*
X116409280Y-91284815D01*
X116437800Y-91280298D01*
X116466319Y-91284815D01*
G37*
G36*
X181086104Y-90802127D02*
G01*
X181159099Y-90850901D01*
X181207873Y-90923896D01*
X181225000Y-91010000D01*
X181225000Y-91510000D01*
X181207873Y-91596104D01*
X181159099Y-91669099D01*
X181086104Y-91717873D01*
X181000000Y-91735000D01*
X180550000Y-91735000D01*
X180463896Y-91717873D01*
X180390901Y-91669099D01*
X180342127Y-91596104D01*
X180325000Y-91510000D01*
X180325000Y-91010000D01*
X180342127Y-90923896D01*
X180390901Y-90850901D01*
X180463896Y-90802127D01*
X180550000Y-90785000D01*
X181000000Y-90785000D01*
X181086104Y-90802127D01*
G37*
G36*
X182636104Y-90802127D02*
G01*
X182709099Y-90850901D01*
X182757873Y-90923896D01*
X182775000Y-91010000D01*
X182775000Y-91510000D01*
X182757873Y-91596104D01*
X182709099Y-91669099D01*
X182636104Y-91717873D01*
X182550000Y-91735000D01*
X182100000Y-91735000D01*
X182013896Y-91717873D01*
X181940901Y-91669099D01*
X181892127Y-91596104D01*
X181875000Y-91510000D01*
X181875000Y-91010000D01*
X181892127Y-90923896D01*
X181940901Y-90850901D01*
X182013896Y-90802127D01*
X182100000Y-90785000D01*
X182550000Y-90785000D01*
X182636104Y-90802127D01*
G37*
G36*
X118153000Y-91604799D02*
G01*
X117027000Y-91604799D01*
X117027000Y-90995199D01*
X118153000Y-90995199D01*
X118153000Y-91604799D01*
G37*
G36*
X151461104Y-90592127D02*
G01*
X151534099Y-90640901D01*
X151582873Y-90713896D01*
X151600000Y-90800000D01*
X151600000Y-91250000D01*
X151582873Y-91336104D01*
X151534099Y-91409099D01*
X151461104Y-91457873D01*
X151375000Y-91475000D01*
X150875000Y-91475000D01*
X150788896Y-91457873D01*
X150715901Y-91409099D01*
X150667127Y-91336104D01*
X150650000Y-91250000D01*
X150650000Y-90800000D01*
X150667127Y-90713896D01*
X150715901Y-90640901D01*
X150788896Y-90592127D01*
X150875000Y-90575000D01*
X151375000Y-90575000D01*
X151461104Y-90592127D01*
G37*
G36*
X140026537Y-90440224D02*
G01*
X140091421Y-90483579D01*
X140134776Y-90548463D01*
X140150000Y-90625000D01*
X140150000Y-91025000D01*
X140134776Y-91101537D01*
X140091421Y-91166421D01*
X140026537Y-91209776D01*
X139950000Y-91225000D01*
X139400000Y-91225000D01*
X139323463Y-91209776D01*
X139258579Y-91166421D01*
X139215224Y-91101537D01*
X139200000Y-91025000D01*
X139200000Y-90625000D01*
X139215224Y-90548463D01*
X139258579Y-90483579D01*
X139323463Y-90440224D01*
X139400000Y-90425000D01*
X139950000Y-90425000D01*
X140026537Y-90440224D01*
G37*
G36*
X141501535Y-90440224D02*
G01*
X141566419Y-90483579D01*
X141609774Y-90548463D01*
X141624998Y-90625000D01*
X141624998Y-91025000D01*
X141609774Y-91101537D01*
X141566419Y-91166421D01*
X141501535Y-91209776D01*
X141424998Y-91225000D01*
X140874998Y-91225000D01*
X140798461Y-91209776D01*
X140733577Y-91166421D01*
X140690222Y-91101537D01*
X140674998Y-91025000D01*
X140674998Y-90625000D01*
X140690222Y-90548463D01*
X140733577Y-90483579D01*
X140798461Y-90440224D01*
X140874998Y-90425000D01*
X141424998Y-90425000D01*
X141501535Y-90440224D01*
G37*
G36*
X142976537Y-90440224D02*
G01*
X143041421Y-90483579D01*
X143084776Y-90548463D01*
X143100000Y-90625000D01*
X143100000Y-91025000D01*
X143084776Y-91101537D01*
X143041421Y-91166421D01*
X142976537Y-91209776D01*
X142900000Y-91225000D01*
X142350000Y-91225000D01*
X142273463Y-91209776D01*
X142208579Y-91166421D01*
X142165224Y-91101537D01*
X142150000Y-91025000D01*
X142150000Y-90625000D01*
X142165224Y-90548463D01*
X142208579Y-90483579D01*
X142273463Y-90440224D01*
X142350000Y-90425000D01*
X142900000Y-90425000D01*
X142976537Y-90440224D01*
G37*
G36*
X145926537Y-90440224D02*
G01*
X145991421Y-90483579D01*
X146034776Y-90548463D01*
X146050000Y-90625000D01*
X146050000Y-91025000D01*
X146034776Y-91101537D01*
X145991421Y-91166421D01*
X145926537Y-91209776D01*
X145850000Y-91225000D01*
X145300000Y-91225000D01*
X145223463Y-91209776D01*
X145158579Y-91166421D01*
X145115224Y-91101537D01*
X145100000Y-91025000D01*
X145100000Y-90625000D01*
X145115224Y-90548463D01*
X145158579Y-90483579D01*
X145223463Y-90440224D01*
X145300000Y-90425000D01*
X145850000Y-90425000D01*
X145926537Y-90440224D01*
G37*
G36*
X147401536Y-90440224D02*
G01*
X147466420Y-90483579D01*
X147509775Y-90548463D01*
X147524999Y-90625000D01*
X147524999Y-91025000D01*
X147509775Y-91101537D01*
X147466420Y-91166421D01*
X147401536Y-91209776D01*
X147324999Y-91225000D01*
X146774999Y-91225000D01*
X146698462Y-91209776D01*
X146633578Y-91166421D01*
X146590223Y-91101537D01*
X146574999Y-91025000D01*
X146574999Y-90625000D01*
X146590223Y-90548463D01*
X146633578Y-90483579D01*
X146698462Y-90440224D01*
X146774999Y-90425000D01*
X147324999Y-90425000D01*
X147401536Y-90440224D01*
G37*
G36*
X148876537Y-90440224D02*
G01*
X148941421Y-90483579D01*
X148984776Y-90548463D01*
X149000000Y-90625000D01*
X149000000Y-91025000D01*
X148984776Y-91101537D01*
X148941421Y-91166421D01*
X148876537Y-91209776D01*
X148800000Y-91225000D01*
X148250000Y-91225000D01*
X148173463Y-91209776D01*
X148108579Y-91166421D01*
X148065224Y-91101537D01*
X148050000Y-91025000D01*
X148050000Y-90625000D01*
X148065224Y-90548463D01*
X148108579Y-90483579D01*
X148173463Y-90440224D01*
X148250000Y-90425000D01*
X148800000Y-90425000D01*
X148876537Y-90440224D01*
G37*
G36*
X168376662Y-90590276D02*
G01*
X168420459Y-90619541D01*
X168449724Y-90663338D01*
X168460000Y-90715000D01*
X168460000Y-91085000D01*
X168449724Y-91136662D01*
X168420459Y-91180459D01*
X168376662Y-91209724D01*
X168325000Y-91220000D01*
X168055000Y-91220000D01*
X168003338Y-91209724D01*
X167959541Y-91180459D01*
X167930276Y-91136662D01*
X167920000Y-91085000D01*
X167920000Y-90715000D01*
X167930276Y-90663338D01*
X167959541Y-90619541D01*
X168003338Y-90590276D01*
X168055000Y-90580000D01*
X168325000Y-90580000D01*
X168376662Y-90590276D01*
G37*
G36*
X169396662Y-90590276D02*
G01*
X169440459Y-90619541D01*
X169469724Y-90663338D01*
X169480000Y-90715000D01*
X169480000Y-91085000D01*
X169469724Y-91136662D01*
X169440459Y-91180459D01*
X169396662Y-91209724D01*
X169345000Y-91220000D01*
X169075000Y-91220000D01*
X169023338Y-91209724D01*
X168979541Y-91180459D01*
X168950276Y-91136662D01*
X168940000Y-91085000D01*
X168940000Y-90715000D01*
X168950276Y-90663338D01*
X168979541Y-90619541D01*
X169023338Y-90590276D01*
X169075000Y-90580000D01*
X169345000Y-90580000D01*
X169396662Y-90590276D01*
G37*
G36*
X131787500Y-91000000D02*
G01*
X131437500Y-91000000D01*
X131437500Y-90200000D01*
X131787500Y-90200000D01*
X131787500Y-91000000D01*
G37*
G36*
X132437500Y-91000000D02*
G01*
X132087500Y-91000000D01*
X132087500Y-90200000D01*
X132437500Y-90200000D01*
X132437500Y-91000000D01*
G37*
G36*
X133087500Y-91000000D02*
G01*
X132737500Y-91000000D01*
X132737500Y-90200000D01*
X133087500Y-90200000D01*
X133087500Y-91000000D01*
G37*
G36*
X133737500Y-91000000D02*
G01*
X133387500Y-91000000D01*
X133387500Y-90200000D01*
X133737500Y-90200000D01*
X133737500Y-91000000D01*
G37*
G36*
X158875002Y-90949999D02*
G01*
X158175000Y-90949999D01*
X158175000Y-90699999D01*
X158875002Y-90699999D01*
X158875002Y-90949999D01*
G37*
G36*
X160075000Y-90949999D02*
G01*
X159374998Y-90949999D01*
X159374998Y-90699999D01*
X160075000Y-90699999D01*
X160075000Y-90949999D01*
G37*
G36*
X152937500Y-90850000D02*
G01*
X152762500Y-90850000D01*
X152762500Y-90250000D01*
X152937500Y-90250000D01*
X152937500Y-90850000D01*
G37*
G36*
X153287500Y-90850000D02*
G01*
X153112500Y-90850000D01*
X153112500Y-90350000D01*
X153287500Y-90350000D01*
X153287500Y-90850000D01*
G37*
G36*
X153637500Y-90850000D02*
G01*
X153462500Y-90850000D01*
X153462500Y-90350000D01*
X153637500Y-90350000D01*
X153637500Y-90850000D01*
G37*
G36*
X153987500Y-90850000D02*
G01*
X153812500Y-90850000D01*
X153812500Y-90350000D01*
X153987500Y-90350000D01*
X153987500Y-90850000D01*
G37*
G36*
X114011100Y-90469500D02*
G01*
X112004500Y-90469500D01*
X112004500Y-88310500D01*
X114011100Y-88310500D01*
X114011100Y-90469500D01*
G37*
G36*
X117941100Y-90469500D02*
G01*
X115934500Y-90469500D01*
X115934500Y-88310500D01*
X117941100Y-88310500D01*
X117941100Y-90469500D01*
G37*
G36*
X157511104Y-89567127D02*
G01*
X157584099Y-89615901D01*
X157632873Y-89688896D01*
X157650000Y-89775000D01*
X157650000Y-90225000D01*
X157632873Y-90311104D01*
X157584099Y-90384099D01*
X157511104Y-90432873D01*
X157425000Y-90450000D01*
X156925000Y-90450000D01*
X156838896Y-90432873D01*
X156765901Y-90384099D01*
X156717127Y-90311104D01*
X156700000Y-90225000D01*
X156700000Y-89775000D01*
X156717127Y-89688896D01*
X156765901Y-89615901D01*
X156838896Y-89567127D01*
X156925000Y-89550000D01*
X157425000Y-89550000D01*
X157511104Y-89567127D01*
G37*
G36*
X158875002Y-90450000D02*
G01*
X158175000Y-90450000D01*
X158175000Y-90200000D01*
X158875002Y-90200000D01*
X158875002Y-90450000D01*
G37*
G36*
X160075000Y-90450000D02*
G01*
X159374998Y-90450000D01*
X159374998Y-90200000D01*
X160075000Y-90200000D01*
X160075000Y-90450000D01*
G37*
G36*
X181086104Y-89342127D02*
G01*
X181159099Y-89390901D01*
X181207873Y-89463896D01*
X181225000Y-89550000D01*
X181225000Y-90050000D01*
X181207873Y-90136104D01*
X181159099Y-90209099D01*
X181086104Y-90257873D01*
X181000000Y-90275000D01*
X180550000Y-90275000D01*
X180463896Y-90257873D01*
X180390901Y-90209099D01*
X180342127Y-90136104D01*
X180325000Y-90050000D01*
X180325000Y-89550000D01*
X180342127Y-89463896D01*
X180390901Y-89390901D01*
X180463896Y-89342127D01*
X180550000Y-89325000D01*
X181000000Y-89325000D01*
X181086104Y-89342127D01*
G37*
G36*
X182636104Y-89342127D02*
G01*
X182709099Y-89390901D01*
X182757873Y-89463896D01*
X182775000Y-89550000D01*
X182775000Y-90050000D01*
X182757873Y-90136104D01*
X182709099Y-90209099D01*
X182636104Y-90257873D01*
X182550000Y-90275000D01*
X182100000Y-90275000D01*
X182013896Y-90257873D01*
X181940901Y-90209099D01*
X181892127Y-90136104D01*
X181875000Y-90050000D01*
X181875000Y-89550000D01*
X181892127Y-89463896D01*
X181940901Y-89390901D01*
X182013896Y-89342127D01*
X182100000Y-89325000D01*
X182550000Y-89325000D01*
X182636104Y-89342127D01*
G37*
G36*
X161917835Y-89284515D02*
G01*
X161958388Y-89311612D01*
X161985485Y-89352165D01*
X161995000Y-89400000D01*
X161995000Y-89900000D01*
X161985485Y-89947835D01*
X161958388Y-89988388D01*
X161917835Y-90015485D01*
X161870000Y-90025000D01*
X161620000Y-90025000D01*
X161572165Y-90015485D01*
X161531612Y-89988388D01*
X161504515Y-89947835D01*
X161495000Y-89900000D01*
X161495000Y-89400000D01*
X161504515Y-89352165D01*
X161531612Y-89311612D01*
X161572165Y-89284515D01*
X161620000Y-89275000D01*
X161870000Y-89275000D01*
X161917835Y-89284515D01*
G37*
G36*
X163187835Y-89284515D02*
G01*
X163228388Y-89311612D01*
X163255485Y-89352165D01*
X163265000Y-89400000D01*
X163265000Y-89900000D01*
X163255485Y-89947835D01*
X163228388Y-89988388D01*
X163187835Y-90015485D01*
X163140000Y-90025000D01*
X162890000Y-90025000D01*
X162842165Y-90015485D01*
X162801612Y-89988388D01*
X162774515Y-89947835D01*
X162765000Y-89900000D01*
X162765000Y-89400000D01*
X162774515Y-89352165D01*
X162801612Y-89311612D01*
X162842165Y-89284515D01*
X162890000Y-89275000D01*
X163140000Y-89275000D01*
X163187835Y-89284515D01*
G37*
G36*
X164457835Y-89284515D02*
G01*
X164498388Y-89311612D01*
X164525485Y-89352165D01*
X164535000Y-89400000D01*
X164535000Y-89900000D01*
X164525485Y-89947835D01*
X164498388Y-89988388D01*
X164457835Y-90015485D01*
X164410000Y-90025000D01*
X164160000Y-90025000D01*
X164112165Y-90015485D01*
X164071612Y-89988388D01*
X164044515Y-89947835D01*
X164035000Y-89900000D01*
X164035000Y-89400000D01*
X164044515Y-89352165D01*
X164071612Y-89311612D01*
X164112165Y-89284515D01*
X164160000Y-89275000D01*
X164410000Y-89275000D01*
X164457835Y-89284515D01*
G37*
G36*
X165727835Y-89284515D02*
G01*
X165768388Y-89311612D01*
X165795485Y-89352165D01*
X165805000Y-89400000D01*
X165805000Y-89900000D01*
X165795485Y-89947835D01*
X165768388Y-89988388D01*
X165727835Y-90015485D01*
X165680000Y-90025000D01*
X165430000Y-90025000D01*
X165382165Y-90015485D01*
X165341612Y-89988388D01*
X165314515Y-89947835D01*
X165305000Y-89900000D01*
X165305000Y-89400000D01*
X165314515Y-89352165D01*
X165341612Y-89311612D01*
X165382165Y-89284515D01*
X165430000Y-89275000D01*
X165680000Y-89275000D01*
X165727835Y-89284515D01*
G37*
G36*
X160075000Y-89950001D02*
G01*
X159374998Y-89950001D01*
X159374998Y-89700001D01*
X160075000Y-89700001D01*
X160075000Y-89950001D01*
G37*
G36*
X152937500Y-89950000D02*
G01*
X152762500Y-89950000D01*
X152762500Y-89450000D01*
X152937500Y-89450000D01*
X152937500Y-89950000D01*
G37*
G36*
X153287500Y-89950000D02*
G01*
X153112500Y-89950000D01*
X153112500Y-89450000D01*
X153287500Y-89450000D01*
X153287500Y-89950000D01*
G37*
G36*
X153637500Y-89950000D02*
G01*
X153462500Y-89950000D01*
X153462500Y-89450000D01*
X153637500Y-89450000D01*
X153637500Y-89950000D01*
G37*
G36*
X153987500Y-89950000D02*
G01*
X153812500Y-89950000D01*
X153812500Y-89450000D01*
X153987500Y-89450000D01*
X153987500Y-89950000D01*
G37*
G36*
X158975000Y-89950000D02*
G01*
X158175000Y-89950000D01*
X158175000Y-89700000D01*
X158975000Y-89700000D01*
X158975000Y-89950000D01*
G37*
G36*
X151461104Y-89042127D02*
G01*
X151534099Y-89090901D01*
X151582873Y-89163896D01*
X151600000Y-89250000D01*
X151600000Y-89700000D01*
X151582873Y-89786104D01*
X151534099Y-89859099D01*
X151461104Y-89907873D01*
X151375000Y-89925000D01*
X150875000Y-89925000D01*
X150788896Y-89907873D01*
X150715901Y-89859099D01*
X150667127Y-89786104D01*
X150650000Y-89700000D01*
X150650000Y-89250000D01*
X150667127Y-89163896D01*
X150715901Y-89090901D01*
X150788896Y-89042127D01*
X150875000Y-89025000D01*
X151375000Y-89025000D01*
X151461104Y-89042127D01*
G37*
G36*
X175436104Y-88942127D02*
G01*
X175509099Y-88990901D01*
X175557873Y-89063896D01*
X175575000Y-89150000D01*
X175575000Y-89600000D01*
X175557873Y-89686104D01*
X175509099Y-89759099D01*
X175436104Y-89807873D01*
X175350000Y-89825000D01*
X174850000Y-89825000D01*
X174763896Y-89807873D01*
X174690901Y-89759099D01*
X174642127Y-89686104D01*
X174625000Y-89600000D01*
X174625000Y-89150000D01*
X174642127Y-89063896D01*
X174690901Y-88990901D01*
X174763896Y-88942127D01*
X174850000Y-88925000D01*
X175350000Y-88925000D01*
X175436104Y-88942127D01*
G37*
G36*
X176936104Y-88942127D02*
G01*
X177009099Y-88990901D01*
X177057873Y-89063896D01*
X177075000Y-89150000D01*
X177075000Y-89600000D01*
X177057873Y-89686104D01*
X177009099Y-89759099D01*
X176936104Y-89807873D01*
X176850000Y-89825000D01*
X176350000Y-89825000D01*
X176263896Y-89807873D01*
X176190901Y-89759099D01*
X176142127Y-89686104D01*
X176125000Y-89600000D01*
X176125000Y-89150000D01*
X176142127Y-89063896D01*
X176190901Y-88990901D01*
X176263896Y-88942127D01*
X176350000Y-88925000D01*
X176850000Y-88925000D01*
X176936104Y-88942127D01*
G37*
G36*
X131611104Y-88767127D02*
G01*
X131684099Y-88815901D01*
X131732873Y-88888896D01*
X131750000Y-88975000D01*
X131750000Y-89475000D01*
X131732873Y-89561104D01*
X131684099Y-89634099D01*
X131611104Y-89682873D01*
X131525000Y-89700000D01*
X131075000Y-89700000D01*
X130988896Y-89682873D01*
X130915901Y-89634099D01*
X130867127Y-89561104D01*
X130850000Y-89475000D01*
X130850000Y-88975000D01*
X130867127Y-88888896D01*
X130915901Y-88815901D01*
X130988896Y-88767127D01*
X131075000Y-88750000D01*
X131525000Y-88750000D01*
X131611104Y-88767127D01*
G37*
G36*
X133161104Y-88767127D02*
G01*
X133234099Y-88815901D01*
X133282873Y-88888896D01*
X133300000Y-88975000D01*
X133300000Y-89475000D01*
X133282873Y-89561104D01*
X133234099Y-89634099D01*
X133161104Y-89682873D01*
X133075000Y-89700000D01*
X132625000Y-89700000D01*
X132538896Y-89682873D01*
X132465901Y-89634099D01*
X132417127Y-89561104D01*
X132400000Y-89475000D01*
X132400000Y-88975000D01*
X132417127Y-88888896D01*
X132465901Y-88815901D01*
X132538896Y-88767127D01*
X132625000Y-88750000D01*
X133075000Y-88750000D01*
X133161104Y-88767127D01*
G37*
G36*
X134651537Y-88890224D02*
G01*
X134716421Y-88933579D01*
X134759776Y-88998463D01*
X134775000Y-89075000D01*
X134775000Y-89475000D01*
X134759776Y-89551537D01*
X134716421Y-89616421D01*
X134651537Y-89659776D01*
X134575000Y-89675000D01*
X134025000Y-89675000D01*
X133948463Y-89659776D01*
X133883579Y-89616421D01*
X133840224Y-89551537D01*
X133825000Y-89475000D01*
X133825000Y-89075000D01*
X133840224Y-88998463D01*
X133883579Y-88933579D01*
X133948463Y-88890224D01*
X134025000Y-88875000D01*
X134575000Y-88875000D01*
X134651537Y-88890224D01*
G37*
G36*
X136126538Y-88890224D02*
G01*
X136191422Y-88933579D01*
X136234777Y-88998463D01*
X136250001Y-89075000D01*
X136250001Y-89475000D01*
X136234777Y-89551537D01*
X136191422Y-89616421D01*
X136126538Y-89659776D01*
X136050001Y-89675000D01*
X135500001Y-89675000D01*
X135423464Y-89659776D01*
X135358580Y-89616421D01*
X135315225Y-89551537D01*
X135300001Y-89475000D01*
X135300001Y-89075000D01*
X135315225Y-88998463D01*
X135358580Y-88933579D01*
X135423464Y-88890224D01*
X135500001Y-88875000D01*
X136050001Y-88875000D01*
X136126538Y-88890224D01*
G37*
G36*
X144436104Y-88742127D02*
G01*
X144509099Y-88790901D01*
X144557873Y-88863896D01*
X144575000Y-88950000D01*
X144575000Y-89400000D01*
X144557873Y-89486104D01*
X144509099Y-89559099D01*
X144436104Y-89607873D01*
X144350000Y-89625000D01*
X143850000Y-89625000D01*
X143763896Y-89607873D01*
X143690901Y-89559099D01*
X143642127Y-89486104D01*
X143625000Y-89400000D01*
X143625000Y-88950000D01*
X143642127Y-88863896D01*
X143690901Y-88790901D01*
X143763896Y-88742127D01*
X143850000Y-88725000D01*
X144350000Y-88725000D01*
X144436104Y-88742127D01*
G37*
G36*
X140026537Y-88790224D02*
G01*
X140091421Y-88833579D01*
X140134776Y-88898463D01*
X140150000Y-88975000D01*
X140150000Y-89375000D01*
X140134776Y-89451537D01*
X140091421Y-89516421D01*
X140026537Y-89559776D01*
X139950000Y-89575000D01*
X139400000Y-89575000D01*
X139323463Y-89559776D01*
X139258579Y-89516421D01*
X139215224Y-89451537D01*
X139200000Y-89375000D01*
X139200000Y-88975000D01*
X139215224Y-88898463D01*
X139258579Y-88833579D01*
X139323463Y-88790224D01*
X139400000Y-88775000D01*
X139950000Y-88775000D01*
X140026537Y-88790224D01*
G37*
G36*
X141501535Y-88790224D02*
G01*
X141566419Y-88833579D01*
X141609774Y-88898463D01*
X141624998Y-88975000D01*
X141624998Y-89375000D01*
X141609774Y-89451537D01*
X141566419Y-89516421D01*
X141501535Y-89559776D01*
X141424998Y-89575000D01*
X140874998Y-89575000D01*
X140798461Y-89559776D01*
X140733577Y-89516421D01*
X140690222Y-89451537D01*
X140674998Y-89375000D01*
X140674998Y-88975000D01*
X140690222Y-88898463D01*
X140733577Y-88833579D01*
X140798461Y-88790224D01*
X140874998Y-88775000D01*
X141424998Y-88775000D01*
X141501535Y-88790224D01*
G37*
G36*
X142976537Y-88790224D02*
G01*
X143041421Y-88833579D01*
X143084776Y-88898463D01*
X143100000Y-88975000D01*
X143100000Y-89375000D01*
X143084776Y-89451537D01*
X143041421Y-89516421D01*
X142976537Y-89559776D01*
X142900000Y-89575000D01*
X142350000Y-89575000D01*
X142273463Y-89559776D01*
X142208579Y-89516421D01*
X142165224Y-89451537D01*
X142150000Y-89375000D01*
X142150000Y-88975000D01*
X142165224Y-88898463D01*
X142208579Y-88833579D01*
X142273463Y-88790224D01*
X142350000Y-88775000D01*
X142900000Y-88775000D01*
X142976537Y-88790224D01*
G37*
G36*
X145926537Y-88790224D02*
G01*
X145991421Y-88833579D01*
X146034776Y-88898463D01*
X146050000Y-88975000D01*
X146050000Y-89375000D01*
X146034776Y-89451537D01*
X145991421Y-89516421D01*
X145926537Y-89559776D01*
X145850000Y-89575000D01*
X145300000Y-89575000D01*
X145223463Y-89559776D01*
X145158579Y-89516421D01*
X145115224Y-89451537D01*
X145100000Y-89375000D01*
X145100000Y-88975000D01*
X145115224Y-88898463D01*
X145158579Y-88833579D01*
X145223463Y-88790224D01*
X145300000Y-88775000D01*
X145850000Y-88775000D01*
X145926537Y-88790224D01*
G37*
G36*
X147401536Y-88790224D02*
G01*
X147466420Y-88833579D01*
X147509775Y-88898463D01*
X147524999Y-88975000D01*
X147524999Y-89375000D01*
X147509775Y-89451537D01*
X147466420Y-89516421D01*
X147401536Y-89559776D01*
X147324999Y-89575000D01*
X146774999Y-89575000D01*
X146698462Y-89559776D01*
X146633578Y-89516421D01*
X146590223Y-89451537D01*
X146574999Y-89375000D01*
X146574999Y-88975000D01*
X146590223Y-88898463D01*
X146633578Y-88833579D01*
X146698462Y-88790224D01*
X146774999Y-88775000D01*
X147324999Y-88775000D01*
X147401536Y-88790224D01*
G37*
G36*
X148876537Y-88790224D02*
G01*
X148941421Y-88833579D01*
X148984776Y-88898463D01*
X149000000Y-88975000D01*
X149000000Y-89375000D01*
X148984776Y-89451537D01*
X148941421Y-89516421D01*
X148876537Y-89559776D01*
X148800000Y-89575000D01*
X148250000Y-89575000D01*
X148173463Y-89559776D01*
X148108579Y-89516421D01*
X148065224Y-89451537D01*
X148050000Y-89375000D01*
X148050000Y-88975000D01*
X148065224Y-88898463D01*
X148108579Y-88833579D01*
X148173463Y-88790224D01*
X148250000Y-88775000D01*
X148800000Y-88775000D01*
X148876537Y-88790224D01*
G37*
G36*
X157511104Y-88017127D02*
G01*
X157584099Y-88065901D01*
X157632873Y-88138896D01*
X157650000Y-88225000D01*
X157650000Y-88675000D01*
X157632873Y-88761104D01*
X157584099Y-88834099D01*
X157511104Y-88882873D01*
X157425000Y-88900000D01*
X156925000Y-88900000D01*
X156838896Y-88882873D01*
X156765901Y-88834099D01*
X156717127Y-88761104D01*
X156700000Y-88675000D01*
X156700000Y-88225000D01*
X156717127Y-88138896D01*
X156765901Y-88065901D01*
X156838896Y-88017127D01*
X156925000Y-88000000D01*
X157425000Y-88000000D01*
X157511104Y-88017127D01*
G37*
G36*
X160536104Y-87817127D02*
G01*
X160609099Y-87865901D01*
X160657873Y-87938896D01*
X160675000Y-88025000D01*
X160675000Y-88525000D01*
X160657873Y-88611104D01*
X160609099Y-88684099D01*
X160536104Y-88732873D01*
X160450000Y-88750000D01*
X160000000Y-88750000D01*
X159913896Y-88732873D01*
X159840901Y-88684099D01*
X159792127Y-88611104D01*
X159775000Y-88525000D01*
X159775000Y-88025000D01*
X159792127Y-87938896D01*
X159840901Y-87865901D01*
X159913896Y-87817127D01*
X160000000Y-87800000D01*
X160450000Y-87800000D01*
X160536104Y-87817127D01*
G37*
G36*
X162086104Y-87817127D02*
G01*
X162159099Y-87865901D01*
X162207873Y-87938896D01*
X162225000Y-88025000D01*
X162225000Y-88525000D01*
X162207873Y-88611104D01*
X162159099Y-88684099D01*
X162086104Y-88732873D01*
X162000000Y-88750000D01*
X161550000Y-88750000D01*
X161463896Y-88732873D01*
X161390901Y-88684099D01*
X161342127Y-88611104D01*
X161325000Y-88525000D01*
X161325000Y-88025000D01*
X161342127Y-87938896D01*
X161390901Y-87865901D01*
X161463896Y-87817127D01*
X161550000Y-87800000D01*
X162000000Y-87800000D01*
X162086104Y-87817127D01*
G37*
G36*
X180151537Y-87615224D02*
G01*
X180216421Y-87658579D01*
X180259776Y-87723463D01*
X180275000Y-87800000D01*
X180275000Y-88350000D01*
X180259776Y-88426537D01*
X180216421Y-88491421D01*
X180151537Y-88534776D01*
X180075000Y-88550000D01*
X179675000Y-88550000D01*
X179598463Y-88534776D01*
X179533579Y-88491421D01*
X179490224Y-88426537D01*
X179475000Y-88350000D01*
X179475000Y-87800000D01*
X179490224Y-87723463D01*
X179533579Y-87658579D01*
X179598463Y-87615224D01*
X179675000Y-87600000D01*
X180075000Y-87600000D01*
X180151537Y-87615224D01*
G37*
G36*
X181801537Y-87615224D02*
G01*
X181866421Y-87658579D01*
X181909776Y-87723463D01*
X181925000Y-87800000D01*
X181925000Y-88350000D01*
X181909776Y-88426537D01*
X181866421Y-88491421D01*
X181801537Y-88534776D01*
X181725000Y-88550000D01*
X181325000Y-88550000D01*
X181248463Y-88534776D01*
X181183579Y-88491421D01*
X181140224Y-88426537D01*
X181125000Y-88350000D01*
X181125000Y-87800000D01*
X181140224Y-87723463D01*
X181183579Y-87658579D01*
X181248463Y-87615224D01*
X181325000Y-87600000D01*
X181725000Y-87600000D01*
X181801537Y-87615224D01*
G37*
G36*
X151476537Y-87715224D02*
G01*
X151541421Y-87758579D01*
X151584776Y-87823463D01*
X151600000Y-87900000D01*
X151600000Y-88300000D01*
X151584776Y-88376537D01*
X151541421Y-88441421D01*
X151476537Y-88484776D01*
X151400000Y-88500000D01*
X150850000Y-88500000D01*
X150773463Y-88484776D01*
X150708579Y-88441421D01*
X150665224Y-88376537D01*
X150650000Y-88300000D01*
X150650000Y-87900000D01*
X150665224Y-87823463D01*
X150708579Y-87758579D01*
X150773463Y-87715224D01*
X150850000Y-87700000D01*
X151400000Y-87700000D01*
X151476537Y-87715224D01*
G37*
G36*
X152801537Y-87440224D02*
G01*
X152866421Y-87483579D01*
X152909776Y-87548463D01*
X152925000Y-87625000D01*
X152925000Y-88175000D01*
X152909776Y-88251537D01*
X152866421Y-88316421D01*
X152801537Y-88359776D01*
X152725000Y-88375000D01*
X152325000Y-88375000D01*
X152248463Y-88359776D01*
X152183579Y-88316421D01*
X152140224Y-88251537D01*
X152125000Y-88175000D01*
X152125000Y-87625000D01*
X152140224Y-87548463D01*
X152183579Y-87483579D01*
X152248463Y-87440224D01*
X152325000Y-87425000D01*
X152725000Y-87425000D01*
X152801537Y-87440224D01*
G37*
G36*
X154451537Y-87440224D02*
G01*
X154516421Y-87483579D01*
X154559776Y-87548463D01*
X154575000Y-87625000D01*
X154575000Y-88175000D01*
X154559776Y-88251537D01*
X154516421Y-88316421D01*
X154451537Y-88359776D01*
X154375000Y-88375000D01*
X153975000Y-88375000D01*
X153898463Y-88359776D01*
X153833579Y-88316421D01*
X153790224Y-88251537D01*
X153775000Y-88175000D01*
X153775000Y-87625000D01*
X153790224Y-87548463D01*
X153833579Y-87483579D01*
X153898463Y-87440224D01*
X153975000Y-87425000D01*
X154375000Y-87425000D01*
X154451537Y-87440224D01*
G37*
G36*
X175436104Y-87392127D02*
G01*
X175509099Y-87440901D01*
X175557873Y-87513896D01*
X175575000Y-87600000D01*
X175575000Y-88050000D01*
X175557873Y-88136104D01*
X175509099Y-88209099D01*
X175436104Y-88257873D01*
X175350000Y-88275000D01*
X174850000Y-88275000D01*
X174763896Y-88257873D01*
X174690901Y-88209099D01*
X174642127Y-88136104D01*
X174625000Y-88050000D01*
X174625000Y-87600000D01*
X174642127Y-87513896D01*
X174690901Y-87440901D01*
X174763896Y-87392127D01*
X174850000Y-87375000D01*
X175350000Y-87375000D01*
X175436104Y-87392127D01*
G37*
G36*
X176936104Y-87392127D02*
G01*
X177009099Y-87440901D01*
X177057873Y-87513896D01*
X177075000Y-87600000D01*
X177075000Y-88050000D01*
X177057873Y-88136104D01*
X177009099Y-88209099D01*
X176936104Y-88257873D01*
X176850000Y-88275000D01*
X176350000Y-88275000D01*
X176263896Y-88257873D01*
X176190901Y-88209099D01*
X176142127Y-88136104D01*
X176125000Y-88050000D01*
X176125000Y-87600000D01*
X176142127Y-87513896D01*
X176190901Y-87440901D01*
X176263896Y-87392127D01*
X176350000Y-87375000D01*
X176850000Y-87375000D01*
X176936104Y-87392127D01*
G37*
G36*
X144436104Y-87192127D02*
G01*
X144509099Y-87240901D01*
X144557873Y-87313896D01*
X144575000Y-87400000D01*
X144575000Y-87850000D01*
X144557873Y-87936104D01*
X144509099Y-88009099D01*
X144436104Y-88057873D01*
X144350000Y-88075000D01*
X143850000Y-88075000D01*
X143763896Y-88057873D01*
X143690901Y-88009099D01*
X143642127Y-87936104D01*
X143625000Y-87850000D01*
X143625000Y-87400000D01*
X143642127Y-87313896D01*
X143690901Y-87240901D01*
X143763896Y-87192127D01*
X143850000Y-87175000D01*
X144350000Y-87175000D01*
X144436104Y-87192127D01*
G37*
G36*
X134651537Y-87240224D02*
G01*
X134716421Y-87283579D01*
X134759776Y-87348463D01*
X134775000Y-87425000D01*
X134775000Y-87825000D01*
X134759776Y-87901537D01*
X134716421Y-87966421D01*
X134651537Y-88009776D01*
X134575000Y-88025000D01*
X134025000Y-88025000D01*
X133948463Y-88009776D01*
X133883579Y-87966421D01*
X133840224Y-87901537D01*
X133825000Y-87825000D01*
X133825000Y-87425000D01*
X133840224Y-87348463D01*
X133883579Y-87283579D01*
X133948463Y-87240224D01*
X134025000Y-87225000D01*
X134575000Y-87225000D01*
X134651537Y-87240224D01*
G37*
G36*
X136126538Y-87240224D02*
G01*
X136191422Y-87283579D01*
X136234777Y-87348463D01*
X136250001Y-87425000D01*
X136250001Y-87825000D01*
X136234777Y-87901537D01*
X136191422Y-87966421D01*
X136126538Y-88009776D01*
X136050001Y-88025000D01*
X135500001Y-88025000D01*
X135423464Y-88009776D01*
X135358580Y-87966421D01*
X135315225Y-87901537D01*
X135300001Y-87825000D01*
X135300001Y-87425000D01*
X135315225Y-87348463D01*
X135358580Y-87283579D01*
X135423464Y-87240224D01*
X135500001Y-87225000D01*
X136050001Y-87225000D01*
X136126538Y-87240224D01*
G37*
G36*
X142961537Y-87240224D02*
G01*
X143026421Y-87283579D01*
X143069776Y-87348463D01*
X143085000Y-87425000D01*
X143085000Y-87825000D01*
X143069776Y-87901537D01*
X143026421Y-87966421D01*
X142961537Y-88009776D01*
X142885000Y-88025000D01*
X142335000Y-88025000D01*
X142258463Y-88009776D01*
X142193579Y-87966421D01*
X142150224Y-87901537D01*
X142135000Y-87825000D01*
X142135000Y-87425000D01*
X142150224Y-87348463D01*
X142193579Y-87283579D01*
X142258463Y-87240224D01*
X142335000Y-87225000D01*
X142885000Y-87225000D01*
X142961537Y-87240224D01*
G37*
G36*
X115101537Y-86550224D02*
G01*
X115166421Y-86593579D01*
X115209776Y-86658463D01*
X115225000Y-86735000D01*
X115225000Y-87135000D01*
X115209776Y-87211537D01*
X115166421Y-87276421D01*
X115101537Y-87319776D01*
X115025000Y-87335000D01*
X114475000Y-87335000D01*
X114398463Y-87319776D01*
X114333579Y-87276421D01*
X114290224Y-87211537D01*
X114275000Y-87135000D01*
X114275000Y-86735000D01*
X114290224Y-86658463D01*
X114333579Y-86593579D01*
X114398463Y-86550224D01*
X114475000Y-86535000D01*
X115025000Y-86535000D01*
X115101537Y-86550224D01*
G37*
G36*
X160536104Y-86352127D02*
G01*
X160609099Y-86400901D01*
X160657873Y-86473896D01*
X160675000Y-86560000D01*
X160675000Y-87060000D01*
X160657873Y-87146104D01*
X160609099Y-87219099D01*
X160536104Y-87267873D01*
X160450000Y-87285000D01*
X160000000Y-87285000D01*
X159913896Y-87267873D01*
X159840901Y-87219099D01*
X159792127Y-87146104D01*
X159775000Y-87060000D01*
X159775000Y-86560000D01*
X159792127Y-86473896D01*
X159840901Y-86400901D01*
X159913896Y-86352127D01*
X160000000Y-86335000D01*
X160450000Y-86335000D01*
X160536104Y-86352127D01*
G37*
G36*
X162086104Y-86352127D02*
G01*
X162159099Y-86400901D01*
X162207873Y-86473896D01*
X162225000Y-86560000D01*
X162225000Y-87060000D01*
X162207873Y-87146104D01*
X162159099Y-87219099D01*
X162086104Y-87267873D01*
X162000000Y-87285000D01*
X161550000Y-87285000D01*
X161463896Y-87267873D01*
X161390901Y-87219099D01*
X161342127Y-87146104D01*
X161325000Y-87060000D01*
X161325000Y-86560000D01*
X161342127Y-86473896D01*
X161390901Y-86400901D01*
X161463896Y-86352127D01*
X161550000Y-86335000D01*
X162000000Y-86335000D01*
X162086104Y-86352127D01*
G37*
G36*
X180236104Y-86142127D02*
G01*
X180309099Y-86190901D01*
X180357873Y-86263896D01*
X180375000Y-86350000D01*
X180375000Y-86850000D01*
X180357873Y-86936104D01*
X180309099Y-87009099D01*
X180236104Y-87057873D01*
X180150000Y-87075000D01*
X179700000Y-87075000D01*
X179613896Y-87057873D01*
X179540901Y-87009099D01*
X179492127Y-86936104D01*
X179475000Y-86850000D01*
X179475000Y-86350000D01*
X179492127Y-86263896D01*
X179540901Y-86190901D01*
X179613896Y-86142127D01*
X179700000Y-86125000D01*
X180150000Y-86125000D01*
X180236104Y-86142127D01*
G37*
G36*
X181786104Y-86142127D02*
G01*
X181859099Y-86190901D01*
X181907873Y-86263896D01*
X181925000Y-86350000D01*
X181925000Y-86850000D01*
X181907873Y-86936104D01*
X181859099Y-87009099D01*
X181786104Y-87057873D01*
X181700000Y-87075000D01*
X181250000Y-87075000D01*
X181163896Y-87057873D01*
X181090901Y-87009099D01*
X181042127Y-86936104D01*
X181025000Y-86850000D01*
X181025000Y-86350000D01*
X181042127Y-86263896D01*
X181090901Y-86190901D01*
X181163896Y-86142127D01*
X181250000Y-86125000D01*
X181700000Y-86125000D01*
X181786104Y-86142127D01*
G37*
G36*
X152801537Y-85965224D02*
G01*
X152866421Y-86008579D01*
X152909776Y-86073463D01*
X152925000Y-86150000D01*
X152925000Y-86700000D01*
X152909776Y-86776537D01*
X152866421Y-86841421D01*
X152801537Y-86884776D01*
X152725000Y-86900000D01*
X152325000Y-86900000D01*
X152248463Y-86884776D01*
X152183579Y-86841421D01*
X152140224Y-86776537D01*
X152125000Y-86700000D01*
X152125000Y-86150000D01*
X152140224Y-86073463D01*
X152183579Y-86008579D01*
X152248463Y-85965224D01*
X152325000Y-85950000D01*
X152725000Y-85950000D01*
X152801537Y-85965224D01*
G37*
G36*
X154451537Y-85965224D02*
G01*
X154516421Y-86008579D01*
X154559776Y-86073463D01*
X154575000Y-86150000D01*
X154575000Y-86700000D01*
X154559776Y-86776537D01*
X154516421Y-86841421D01*
X154451537Y-86884776D01*
X154375000Y-86900000D01*
X153975000Y-86900000D01*
X153898463Y-86884776D01*
X153833579Y-86841421D01*
X153790224Y-86776537D01*
X153775000Y-86700000D01*
X153775000Y-86150000D01*
X153790224Y-86073463D01*
X153833579Y-86008579D01*
X153898463Y-85965224D01*
X153975000Y-85950000D01*
X154375000Y-85950000D01*
X154451537Y-85965224D01*
G37*
G36*
X151476537Y-86065224D02*
G01*
X151541421Y-86108579D01*
X151584776Y-86173463D01*
X151600000Y-86250000D01*
X151600000Y-86650000D01*
X151584776Y-86726537D01*
X151541421Y-86791421D01*
X151476537Y-86834776D01*
X151400000Y-86850000D01*
X150850000Y-86850000D01*
X150773463Y-86834776D01*
X150708579Y-86791421D01*
X150665224Y-86726537D01*
X150650000Y-86650000D01*
X150650000Y-86250000D01*
X150665224Y-86173463D01*
X150708579Y-86108579D01*
X150773463Y-86065224D01*
X150850000Y-86050000D01*
X151400000Y-86050000D01*
X151476537Y-86065224D01*
G37*
G36*
X142961537Y-85590224D02*
G01*
X143026421Y-85633579D01*
X143069776Y-85698463D01*
X143085000Y-85775000D01*
X143085000Y-86175000D01*
X143069776Y-86251537D01*
X143026421Y-86316421D01*
X142961537Y-86359776D01*
X142885000Y-86375000D01*
X142335000Y-86375000D01*
X142258463Y-86359776D01*
X142193579Y-86316421D01*
X142150224Y-86251537D01*
X142135000Y-86175000D01*
X142135000Y-85775000D01*
X142150224Y-85698463D01*
X142193579Y-85633579D01*
X142258463Y-85590224D01*
X142335000Y-85575000D01*
X142885000Y-85575000D01*
X142961537Y-85590224D01*
G37*
G36*
X173250000Y-86100000D02*
G01*
X172950000Y-86100000D01*
X172950000Y-85480000D01*
X173250000Y-85480000D01*
X173250000Y-86100000D01*
G37*
G36*
X173950000Y-86100000D02*
G01*
X173650000Y-86100000D01*
X173650000Y-85480000D01*
X173950000Y-85480000D01*
X173950000Y-86100000D01*
G37*
G36*
X174650000Y-86100000D02*
G01*
X174350000Y-86100000D01*
X174350000Y-85480000D01*
X174650000Y-85480000D01*
X174650000Y-86100000D01*
G37*
G36*
X175350000Y-86100000D02*
G01*
X175050000Y-86100000D01*
X175050000Y-85480000D01*
X175350000Y-85480000D01*
X175350000Y-86100000D01*
G37*
G36*
X176050000Y-86100000D02*
G01*
X175750000Y-86100000D01*
X175750000Y-85480000D01*
X176050000Y-85480000D01*
X176050000Y-86100000D01*
G37*
G36*
X170021104Y-84892127D02*
G01*
X170094099Y-84940901D01*
X170142873Y-85013896D01*
X170160000Y-85100000D01*
X170160000Y-85550000D01*
X170142873Y-85636104D01*
X170094099Y-85709099D01*
X170021104Y-85757873D01*
X169935000Y-85775000D01*
X169435000Y-85775000D01*
X169348896Y-85757873D01*
X169275901Y-85709099D01*
X169227127Y-85636104D01*
X169210000Y-85550000D01*
X169210000Y-85100000D01*
X169227127Y-85013896D01*
X169275901Y-84940901D01*
X169348896Y-84892127D01*
X169435000Y-84875000D01*
X169935000Y-84875000D01*
X170021104Y-84892127D01*
G37*
G36*
X171496104Y-84892127D02*
G01*
X171569099Y-84940901D01*
X171617873Y-85013896D01*
X171635000Y-85100000D01*
X171635000Y-85550000D01*
X171617873Y-85636104D01*
X171569099Y-85709099D01*
X171496104Y-85757873D01*
X171410000Y-85775000D01*
X170910000Y-85775000D01*
X170823896Y-85757873D01*
X170750901Y-85709099D01*
X170702127Y-85636104D01*
X170685000Y-85550000D01*
X170685000Y-85100000D01*
X170702127Y-85013896D01*
X170750901Y-84940901D01*
X170823896Y-84892127D01*
X170910000Y-84875000D01*
X171410000Y-84875000D01*
X171496104Y-84892127D01*
G37*
G36*
X115101537Y-84900224D02*
G01*
X115166421Y-84943579D01*
X115209776Y-85008463D01*
X115225000Y-85085000D01*
X115225000Y-85485000D01*
X115209776Y-85561537D01*
X115166421Y-85626421D01*
X115101537Y-85669776D01*
X115025000Y-85685000D01*
X114475000Y-85685000D01*
X114398463Y-85669776D01*
X114333579Y-85626421D01*
X114290224Y-85561537D01*
X114275000Y-85485000D01*
X114275000Y-85085000D01*
X114290224Y-85008463D01*
X114333579Y-84943579D01*
X114398463Y-84900224D01*
X114475000Y-84885000D01*
X115025000Y-84885000D01*
X115101537Y-84900224D01*
G37*
G36*
X179436104Y-84292127D02*
G01*
X179509099Y-84340901D01*
X179557873Y-84413896D01*
X179575000Y-84500000D01*
X179575000Y-85000000D01*
X179557873Y-85086104D01*
X179509099Y-85159099D01*
X179436104Y-85207873D01*
X179350000Y-85225000D01*
X178900000Y-85225000D01*
X178813896Y-85207873D01*
X178740901Y-85159099D01*
X178692127Y-85086104D01*
X178675000Y-85000000D01*
X178675000Y-84500000D01*
X178692127Y-84413896D01*
X178740901Y-84340901D01*
X178813896Y-84292127D01*
X178900000Y-84275000D01*
X179350000Y-84275000D01*
X179436104Y-84292127D01*
G37*
G36*
X180986104Y-84292127D02*
G01*
X181059099Y-84340901D01*
X181107873Y-84413896D01*
X181125000Y-84500000D01*
X181125000Y-85000000D01*
X181107873Y-85086104D01*
X181059099Y-85159099D01*
X180986104Y-85207873D01*
X180900000Y-85225000D01*
X180450000Y-85225000D01*
X180363896Y-85207873D01*
X180290901Y-85159099D01*
X180242127Y-85086104D01*
X180225000Y-85000000D01*
X180225000Y-84500000D01*
X180242127Y-84413896D01*
X180290901Y-84340901D01*
X180363896Y-84292127D01*
X180450000Y-84275000D01*
X180900000Y-84275000D01*
X180986104Y-84292127D01*
G37*
G36*
X170021104Y-83342127D02*
G01*
X170094099Y-83390901D01*
X170142873Y-83463896D01*
X170160000Y-83550000D01*
X170160000Y-84000000D01*
X170142873Y-84086104D01*
X170094099Y-84159099D01*
X170021104Y-84207873D01*
X169935000Y-84225000D01*
X169435000Y-84225000D01*
X169348896Y-84207873D01*
X169275901Y-84159099D01*
X169227127Y-84086104D01*
X169210000Y-84000000D01*
X169210000Y-83550000D01*
X169227127Y-83463896D01*
X169275901Y-83390901D01*
X169348896Y-83342127D01*
X169435000Y-83325000D01*
X169935000Y-83325000D01*
X170021104Y-83342127D01*
G37*
G36*
X171496104Y-83342127D02*
G01*
X171569099Y-83390901D01*
X171617873Y-83463896D01*
X171635000Y-83550000D01*
X171635000Y-84000000D01*
X171617873Y-84086104D01*
X171569099Y-84159099D01*
X171496104Y-84207873D01*
X171410000Y-84225000D01*
X170910000Y-84225000D01*
X170823896Y-84207873D01*
X170750901Y-84159099D01*
X170702127Y-84086104D01*
X170685000Y-84000000D01*
X170685000Y-83550000D01*
X170702127Y-83463896D01*
X170750901Y-83390901D01*
X170823896Y-83342127D01*
X170910000Y-83325000D01*
X171410000Y-83325000D01*
X171496104Y-83342127D01*
G37*
G36*
X173250000Y-84220000D02*
G01*
X172950000Y-84220000D01*
X172950000Y-83600000D01*
X173250000Y-83600000D01*
X173250000Y-84220000D01*
G37*
G36*
X173950000Y-84220000D02*
G01*
X173650000Y-84220000D01*
X173650000Y-83600000D01*
X173950000Y-83600000D01*
X173950000Y-84220000D01*
G37*
G36*
X174650000Y-84220000D02*
G01*
X174350000Y-84220000D01*
X174350000Y-83600000D01*
X174650000Y-83600000D01*
X174650000Y-84220000D01*
G37*
G36*
X175350000Y-84220000D02*
G01*
X175050000Y-84220000D01*
X175050000Y-83600000D01*
X175350000Y-83600000D01*
X175350000Y-84220000D01*
G37*
G36*
X176050000Y-84220000D02*
G01*
X175750000Y-84220000D01*
X175750000Y-83600000D01*
X176050000Y-83600000D01*
X176050000Y-84220000D01*
G37*
G36*
X118925000Y-83930000D02*
G01*
X116825000Y-83930000D01*
X116825000Y-82530000D01*
X118925000Y-82530000D01*
X118925000Y-83930000D01*
G37*
G36*
X128025000Y-83930000D02*
G01*
X125925000Y-83930000D01*
X125925000Y-82530000D01*
X128025000Y-82530000D01*
X128025000Y-83930000D01*
G37*
G36*
X132650000Y-81325000D02*
G01*
X131000000Y-81325000D01*
X131000000Y-79675000D01*
X132650000Y-79675000D01*
X132650000Y-81325000D01*
G37*
G36*
X135579939Y-79715378D02*
G01*
X135737500Y-79785529D01*
X135877033Y-79886906D01*
X135992439Y-80015077D01*
X136078675Y-80164442D01*
X136131972Y-80328473D01*
X136150000Y-80500000D01*
X136131972Y-80671527D01*
X136078675Y-80835558D01*
X135992439Y-80984923D01*
X135877033Y-81113094D01*
X135737500Y-81214471D01*
X135579939Y-81284622D01*
X135411236Y-81320481D01*
X135238764Y-81320481D01*
X135070061Y-81284622D01*
X134912500Y-81214471D01*
X134772967Y-81113094D01*
X134657561Y-80984923D01*
X134571325Y-80835558D01*
X134518028Y-80671527D01*
X134500000Y-80500000D01*
X134518028Y-80328473D01*
X134571325Y-80164442D01*
X134657561Y-80015077D01*
X134772967Y-79886906D01*
X134912500Y-79785529D01*
X135070061Y-79715378D01*
X135238764Y-79679519D01*
X135411236Y-79679519D01*
X135579939Y-79715378D01*
G37*
G36*
X114139412Y-77543876D02*
G01*
X114389347Y-77620971D01*
X114625000Y-77734456D01*
X114841107Y-77881795D01*
X115032841Y-78059698D01*
X115195918Y-78264190D01*
X115326696Y-78490703D01*
X115422252Y-78734178D01*
X115480454Y-78989176D01*
X115500000Y-79250000D01*
X115480454Y-79510824D01*
X115422252Y-79765822D01*
X115326696Y-80009297D01*
X115195918Y-80235810D01*
X115032841Y-80440302D01*
X114841107Y-80618205D01*
X114625000Y-80765544D01*
X114389347Y-80879029D01*
X114139412Y-80956124D01*
X113880778Y-80995107D01*
X113619222Y-80995107D01*
X113360588Y-80956124D01*
X113110653Y-80879029D01*
X112875000Y-80765544D01*
X112658893Y-80618205D01*
X112467159Y-80440302D01*
X112304082Y-80235810D01*
X112173304Y-80009297D01*
X112077748Y-79765822D01*
X112019546Y-79510824D01*
X112000000Y-79250000D01*
X112019546Y-78989176D01*
X112077748Y-78734178D01*
X112173304Y-78490703D01*
X112304082Y-78264190D01*
X112467159Y-78059698D01*
X112658893Y-77881795D01*
X112875000Y-77734456D01*
X113110653Y-77620971D01*
X113360588Y-77543876D01*
X113619222Y-77504893D01*
X113880778Y-77504893D01*
X114139412Y-77543876D01*
G37*
G36*
X183889412Y-77543876D02*
G01*
X184139347Y-77620971D01*
X184375000Y-77734456D01*
X184591107Y-77881795D01*
X184782841Y-78059698D01*
X184945918Y-78264190D01*
X185076696Y-78490703D01*
X185172252Y-78734178D01*
X185230454Y-78989176D01*
X185250000Y-79250000D01*
X185230454Y-79510824D01*
X185172252Y-79765822D01*
X185076696Y-80009297D01*
X184945918Y-80235810D01*
X184782841Y-80440302D01*
X184591107Y-80618205D01*
X184375000Y-80765544D01*
X184139347Y-80879029D01*
X183889412Y-80956124D01*
X183630778Y-80995107D01*
X183369222Y-80995107D01*
X183110588Y-80956124D01*
X182860653Y-80879029D01*
X182625000Y-80765544D01*
X182408893Y-80618205D01*
X182217159Y-80440302D01*
X182054082Y-80235810D01*
X181923304Y-80009297D01*
X181827748Y-79765822D01*
X181769546Y-79510824D01*
X181750000Y-79250000D01*
X181769546Y-78989176D01*
X181827748Y-78734178D01*
X181923304Y-78490703D01*
X182054082Y-78264190D01*
X182217159Y-78059698D01*
X182408893Y-77881795D01*
X182625000Y-77734456D01*
X182860653Y-77620971D01*
X183110588Y-77543876D01*
X183369222Y-77504893D01*
X183630778Y-77504893D01*
X183889412Y-77543876D01*
G37*
G36*
X139501537Y-79040224D02*
G01*
X139566421Y-79083579D01*
X139609776Y-79148463D01*
X139625000Y-79225000D01*
X139625000Y-79775000D01*
X139609776Y-79851537D01*
X139566421Y-79916421D01*
X139501537Y-79959776D01*
X139425000Y-79975000D01*
X139025000Y-79975000D01*
X138948463Y-79959776D01*
X138883579Y-79916421D01*
X138840224Y-79851537D01*
X138825000Y-79775000D01*
X138825000Y-79225000D01*
X138840224Y-79148463D01*
X138883579Y-79083579D01*
X138948463Y-79040224D01*
X139025000Y-79025000D01*
X139425000Y-79025000D01*
X139501537Y-79040224D01*
G37*
G36*
X141151537Y-79040224D02*
G01*
X141216421Y-79083579D01*
X141259776Y-79148463D01*
X141275000Y-79225000D01*
X141275000Y-79775000D01*
X141259776Y-79851537D01*
X141216421Y-79916421D01*
X141151537Y-79959776D01*
X141075000Y-79975000D01*
X140675000Y-79975000D01*
X140598463Y-79959776D01*
X140533579Y-79916421D01*
X140490224Y-79851537D01*
X140475000Y-79775000D01*
X140475000Y-79225000D01*
X140490224Y-79148463D01*
X140533579Y-79083579D01*
X140598463Y-79040224D01*
X140675000Y-79025000D01*
X141075000Y-79025000D01*
X141151537Y-79040224D01*
G37*
G36*
X142501537Y-79040224D02*
G01*
X142566421Y-79083579D01*
X142609776Y-79148463D01*
X142625000Y-79225000D01*
X142625000Y-79775000D01*
X142609776Y-79851537D01*
X142566421Y-79916421D01*
X142501537Y-79959776D01*
X142425000Y-79975000D01*
X142025000Y-79975000D01*
X141948463Y-79959776D01*
X141883579Y-79916421D01*
X141840224Y-79851537D01*
X141825000Y-79775000D01*
X141825000Y-79225000D01*
X141840224Y-79148463D01*
X141883579Y-79083579D01*
X141948463Y-79040224D01*
X142025000Y-79025000D01*
X142425000Y-79025000D01*
X142501537Y-79040224D01*
G37*
G36*
X144151537Y-79040224D02*
G01*
X144216421Y-79083579D01*
X144259776Y-79148463D01*
X144275000Y-79225000D01*
X144275000Y-79775000D01*
X144259776Y-79851537D01*
X144216421Y-79916421D01*
X144151537Y-79959776D01*
X144075000Y-79975000D01*
X143675000Y-79975000D01*
X143598463Y-79959776D01*
X143533579Y-79916421D01*
X143490224Y-79851537D01*
X143475000Y-79775000D01*
X143475000Y-79225000D01*
X143490224Y-79148463D01*
X143533579Y-79083579D01*
X143598463Y-79040224D01*
X143675000Y-79025000D01*
X144075000Y-79025000D01*
X144151537Y-79040224D01*
G37*
G36*
X172550000Y-79650000D02*
G01*
X170850000Y-79650000D01*
X170850000Y-77950000D01*
X172550000Y-77950000D01*
X172550000Y-79650000D01*
G37*
G36*
X174502664Y-77991602D02*
G01*
X174665000Y-78063878D01*
X174808761Y-78168327D01*
X174927664Y-78300383D01*
X175016514Y-78454274D01*
X175071425Y-78623275D01*
X175090000Y-78800000D01*
X175071425Y-78976725D01*
X175016514Y-79145726D01*
X174927664Y-79299617D01*
X174808761Y-79431673D01*
X174665000Y-79536122D01*
X174502664Y-79608398D01*
X174328849Y-79645344D01*
X174151151Y-79645344D01*
X173977336Y-79608398D01*
X173815000Y-79536122D01*
X173671239Y-79431673D01*
X173552336Y-79299617D01*
X173463486Y-79145726D01*
X173408575Y-78976725D01*
X173390000Y-78800000D01*
X173408575Y-78623275D01*
X173463486Y-78454274D01*
X173552336Y-78300383D01*
X173671239Y-78168327D01*
X173815000Y-78063878D01*
X173977336Y-77991602D01*
X174151151Y-77954656D01*
X174328849Y-77954656D01*
X174502664Y-77991602D01*
G37*
G36*
X177042664Y-77991602D02*
G01*
X177205000Y-78063878D01*
X177348761Y-78168327D01*
X177467664Y-78300383D01*
X177556514Y-78454274D01*
X177611425Y-78623275D01*
X177630000Y-78800000D01*
X177611425Y-78976725D01*
X177556514Y-79145726D01*
X177467664Y-79299617D01*
X177348761Y-79431673D01*
X177205000Y-79536122D01*
X177042664Y-79608398D01*
X176868849Y-79645344D01*
X176691151Y-79645344D01*
X176517336Y-79608398D01*
X176355000Y-79536122D01*
X176211239Y-79431673D01*
X176092336Y-79299617D01*
X176003486Y-79145726D01*
X175948575Y-78976725D01*
X175930000Y-78800000D01*
X175948575Y-78623275D01*
X176003486Y-78454274D01*
X176092336Y-78300383D01*
X176211239Y-78168327D01*
X176355000Y-78063878D01*
X176517336Y-77991602D01*
X176691151Y-77954656D01*
X176868849Y-77954656D01*
X177042664Y-77991602D01*
G37*
G36*
X179582664Y-77991602D02*
G01*
X179745000Y-78063878D01*
X179888761Y-78168327D01*
X180007664Y-78300383D01*
X180096514Y-78454274D01*
X180151425Y-78623275D01*
X180170000Y-78800000D01*
X180151425Y-78976725D01*
X180096514Y-79145726D01*
X180007664Y-79299617D01*
X179888761Y-79431673D01*
X179745000Y-79536122D01*
X179582664Y-79608398D01*
X179408849Y-79645344D01*
X179231151Y-79645344D01*
X179057336Y-79608398D01*
X178895000Y-79536122D01*
X178751239Y-79431673D01*
X178632336Y-79299617D01*
X178543486Y-79145726D01*
X178488575Y-78976725D01*
X178470000Y-78800000D01*
X178488575Y-78623275D01*
X178543486Y-78454274D01*
X178632336Y-78300383D01*
X178751239Y-78168327D01*
X178895000Y-78063878D01*
X179057336Y-77991602D01*
X179231151Y-77954656D01*
X179408849Y-77954656D01*
X179582664Y-77991602D01*
G37*
G36*
X118925000Y-79470000D02*
G01*
X116825000Y-79470000D01*
X116825000Y-78070000D01*
X118925000Y-78070000D01*
X118925000Y-79470000D01*
G37*
G36*
X128025000Y-79470000D02*
G01*
X125925000Y-79470000D01*
X125925000Y-78070000D01*
X128025000Y-78070000D01*
X128025000Y-79470000D01*
G37*
M02*
