%TF.GenerationSoftware,KiCad,Pcbnew,8.0.2*%
%TF.CreationDate,2024-06-21T01:26:05+01:00*%
%TF.ProjectId,ESP32S3_PCB_V1,45535033-3253-4335-9f50-43425f56312e,1*%
%TF.SameCoordinates,Original*%
%TF.FileFunction,Legend,Top*%
%TF.FilePolarity,Positive*%
%FSLAX46Y46*%
G04 Gerber Fmt 4.6, Leading zero omitted, Abs format (unit mm)*
G04 Created by KiCad (PCBNEW 8.0.2) date 2024-06-21 01:26:05*
%MOMM*%
%LPD*%
G01*
G04 APERTURE LIST*
%ADD10C,0.153000*%
%ADD11C,0.200000*%
%ADD12C,0.250000*%
%ADD13C,0.120000*%
%ADD14C,0.100000*%
%ADD15C,0.350000*%
%ADD16C,0.152400*%
%ADD17C,0.000000*%
%ADD18C,0.177800*%
G04 APERTURE END LIST*
D10*
X153560220Y-94500000D02*
X151739780Y-94500000D01*
X165360000Y-108370000D02*
X175330000Y-108370000D01*
X182090000Y-107580000D02*
X182090000Y-107140000D01*
X165360000Y-108690000D02*
X165360000Y-108370000D01*
X180920000Y-108720000D02*
X182090000Y-107580000D01*
D11*
X153560220Y-94500000D02*
G75*
G02*
X151739780Y-94500000I-910220J0D01*
G01*
X151739780Y-94500000D02*
G75*
G02*
X153560220Y-94500000I910220J0D01*
G01*
X186175000Y-77300000D02*
X186175000Y-111700000D01*
D10*
X175330000Y-108370000D02*
X175330000Y-108700000D01*
X152650000Y-95410220D02*
X152650000Y-93589780D01*
D11*
G36*
X176114404Y-107633513D02*
G01*
X175995291Y-107634401D01*
X175887447Y-107599801D01*
X175820307Y-107534314D01*
X175784686Y-107465707D01*
X175741207Y-107298142D01*
X175739801Y-107179335D01*
X175780041Y-107012062D01*
X175815963Y-106937392D01*
X175883271Y-106868386D01*
X175986453Y-106832691D01*
X176112893Y-106831748D01*
X176114404Y-107633513D01*
G37*
G36*
X178519056Y-107943891D02*
G01*
X175430168Y-107943891D01*
X175430168Y-107161352D01*
X175541279Y-107161352D01*
X175542906Y-107298925D01*
X175541397Y-107309070D01*
X175543168Y-107321048D01*
X175543200Y-107323718D01*
X175543764Y-107325081D01*
X175544265Y-107328463D01*
X175591769Y-107511542D01*
X175592449Y-107521098D01*
X175598040Y-107535710D01*
X175598479Y-107537399D01*
X175598909Y-107537979D01*
X175599455Y-107539406D01*
X175648795Y-107634435D01*
X175653370Y-107645480D01*
X175656526Y-107649326D01*
X175657517Y-107651234D01*
X175659511Y-107652963D01*
X175665806Y-107660634D01*
X175751750Y-107744462D01*
X175752756Y-107746473D01*
X175762285Y-107754738D01*
X175776198Y-107768308D01*
X175779516Y-107769682D01*
X175782232Y-107772038D01*
X175800132Y-107780029D01*
X175943216Y-107825935D01*
X175955103Y-107830859D01*
X175960095Y-107831350D01*
X175962104Y-107831995D01*
X175964738Y-107831807D01*
X175974612Y-107832780D01*
X176232216Y-107830859D01*
X176268264Y-107815927D01*
X176295854Y-107788337D01*
X176310786Y-107752289D01*
X176312707Y-107732780D01*
X176310823Y-106732780D01*
X176588898Y-106732780D01*
X176590819Y-107752289D01*
X176605751Y-107788337D01*
X176633341Y-107815927D01*
X176669389Y-107830859D01*
X176708407Y-107830859D01*
X176744455Y-107815927D01*
X176772045Y-107788337D01*
X176786977Y-107752289D01*
X176788898Y-107732780D01*
X176787717Y-107106036D01*
X177172215Y-107776354D01*
X177177179Y-107788337D01*
X177181658Y-107792816D01*
X177184849Y-107798379D01*
X177195365Y-107806523D01*
X177204769Y-107815927D01*
X177210656Y-107818365D01*
X177215698Y-107822270D01*
X177228530Y-107825769D01*
X177240817Y-107830859D01*
X177247193Y-107830859D01*
X177253342Y-107832536D01*
X177266535Y-107830859D01*
X177279835Y-107830859D01*
X177285723Y-107828419D01*
X177292048Y-107827616D01*
X177303597Y-107821015D01*
X177315883Y-107815927D01*
X177320390Y-107811419D01*
X177325925Y-107808257D01*
X177334069Y-107797740D01*
X177343473Y-107788337D01*
X177345911Y-107782449D01*
X177349816Y-107777408D01*
X177353315Y-107764575D01*
X177358405Y-107752289D01*
X177359387Y-107742311D01*
X177360082Y-107739765D01*
X177359831Y-107737797D01*
X177360326Y-107732780D01*
X177358621Y-106828019D01*
X177588898Y-106828019D01*
X177590819Y-107180861D01*
X177605751Y-107216909D01*
X177633341Y-107244499D01*
X177669389Y-107259431D01*
X177688898Y-107261352D01*
X177898883Y-107259431D01*
X177934931Y-107244499D01*
X177962521Y-107216909D01*
X177977453Y-107180861D01*
X177977453Y-107141843D01*
X177962521Y-107105795D01*
X177934931Y-107078205D01*
X177898883Y-107063273D01*
X177879374Y-107061352D01*
X177788358Y-107062184D01*
X177787310Y-106869775D01*
X177788939Y-106868072D01*
X177891549Y-106832576D01*
X177955036Y-106831513D01*
X178061776Y-106865759D01*
X178128917Y-106931247D01*
X178164537Y-106999851D01*
X178208016Y-107167418D01*
X178209422Y-107286226D01*
X178169182Y-107453498D01*
X178133260Y-107528168D01*
X178065953Y-107597174D01*
X177962614Y-107632921D01*
X177857413Y-107634166D01*
X177762930Y-107588712D01*
X177724010Y-107585946D01*
X177686994Y-107598285D01*
X177657517Y-107623849D01*
X177640068Y-107658748D01*
X177637302Y-107697668D01*
X177649641Y-107734684D01*
X177675205Y-107764161D01*
X177691796Y-107774604D01*
X177774813Y-107814542D01*
X177776198Y-107815927D01*
X177786947Y-107820379D01*
X177805342Y-107829229D01*
X177808925Y-107829483D01*
X177812246Y-107830859D01*
X177831755Y-107832780D01*
X177974415Y-107831092D01*
X177987119Y-107831995D01*
X177992004Y-107830884D01*
X177994121Y-107830859D01*
X177996563Y-107829847D01*
X178006235Y-107827648D01*
X178134609Y-107783240D01*
X178136978Y-107783240D01*
X178148974Y-107778270D01*
X178166992Y-107772038D01*
X178169707Y-107769682D01*
X178173026Y-107768308D01*
X178188180Y-107755872D01*
X178282191Y-107659487D01*
X178291707Y-107651235D01*
X178294374Y-107646996D01*
X178295854Y-107645480D01*
X178296863Y-107643042D01*
X178302150Y-107634644D01*
X178345578Y-107544372D01*
X178350745Y-107537399D01*
X178355973Y-107522764D01*
X178356775Y-107521098D01*
X178356826Y-107520377D01*
X178357340Y-107518939D01*
X178401919Y-107333626D01*
X178406024Y-107323718D01*
X178407216Y-107311608D01*
X178407827Y-107309070D01*
X178407609Y-107307611D01*
X178407945Y-107304209D01*
X178406317Y-107166635D01*
X178407827Y-107156491D01*
X178406055Y-107144512D01*
X178406024Y-107141843D01*
X178405459Y-107140479D01*
X178404959Y-107137098D01*
X178357454Y-106954018D01*
X178356775Y-106944463D01*
X178351182Y-106929847D01*
X178350745Y-106928162D01*
X178350315Y-106927582D01*
X178349769Y-106926154D01*
X178300426Y-106831120D01*
X178295854Y-106820081D01*
X178292698Y-106816236D01*
X178291707Y-106814326D01*
X178289709Y-106812593D01*
X178283418Y-106804927D01*
X178197473Y-106721099D01*
X178196469Y-106719089D01*
X178186939Y-106710823D01*
X178173026Y-106697253D01*
X178169707Y-106695878D01*
X178166993Y-106693524D01*
X178149093Y-106685532D01*
X178006008Y-106639625D01*
X177994121Y-106634701D01*
X177989128Y-106634209D01*
X177987120Y-106633565D01*
X177984485Y-106633752D01*
X177974612Y-106632780D01*
X177878468Y-106634389D01*
X177866866Y-106633565D01*
X177862030Y-106634664D01*
X177859865Y-106634701D01*
X177857423Y-106635712D01*
X177847751Y-106637912D01*
X177719375Y-106682322D01*
X177717008Y-106682322D01*
X177705012Y-106687290D01*
X177686993Y-106693524D01*
X177684278Y-106695877D01*
X177680959Y-106697253D01*
X177665806Y-106709690D01*
X177605751Y-106772462D01*
X177590819Y-106808510D01*
X177588898Y-106828019D01*
X177358621Y-106828019D01*
X177358405Y-106713271D01*
X177343473Y-106677223D01*
X177315883Y-106649633D01*
X177279835Y-106634701D01*
X177240817Y-106634701D01*
X177204769Y-106649633D01*
X177177179Y-106677223D01*
X177162247Y-106713271D01*
X177160326Y-106732780D01*
X177161506Y-107359523D01*
X176777008Y-106689205D01*
X176772045Y-106677223D01*
X176767565Y-106672743D01*
X176764375Y-106667181D01*
X176753860Y-106659038D01*
X176744455Y-106649633D01*
X176738564Y-106647193D01*
X176733526Y-106643291D01*
X176720697Y-106639792D01*
X176708407Y-106634701D01*
X176702032Y-106634701D01*
X176695883Y-106633024D01*
X176682690Y-106634701D01*
X176669389Y-106634701D01*
X176663500Y-106637140D01*
X176657176Y-106637944D01*
X176645626Y-106644544D01*
X176633341Y-106649633D01*
X176628833Y-106654140D01*
X176623299Y-106657303D01*
X176615156Y-106667817D01*
X176605751Y-106677223D01*
X176603311Y-106683113D01*
X176599409Y-106688152D01*
X176595910Y-106700980D01*
X176590819Y-106713271D01*
X176589836Y-106723248D01*
X176589142Y-106725795D01*
X176589392Y-106727762D01*
X176588898Y-106732780D01*
X176310823Y-106732780D01*
X176310786Y-106713271D01*
X176295854Y-106677223D01*
X176268264Y-106649633D01*
X176232216Y-106634701D01*
X176212707Y-106632780D01*
X175975905Y-106634545D01*
X175962104Y-106633565D01*
X175957176Y-106634685D01*
X175955103Y-106634701D01*
X175952661Y-106635712D01*
X175942989Y-106637912D01*
X175814616Y-106682321D01*
X175812246Y-106682321D01*
X175800242Y-106687293D01*
X175782231Y-106693524D01*
X175779516Y-106695878D01*
X175776198Y-106697253D01*
X175761044Y-106709689D01*
X175667027Y-106806078D01*
X175657517Y-106814327D01*
X175654850Y-106818563D01*
X175653370Y-106820081D01*
X175652359Y-106822520D01*
X175647074Y-106830917D01*
X175603645Y-106921188D01*
X175598479Y-106928162D01*
X175593251Y-106942794D01*
X175592449Y-106944463D01*
X175592397Y-106945185D01*
X175591884Y-106946623D01*
X175547304Y-107131933D01*
X175543200Y-107141843D01*
X175542007Y-107153952D01*
X175541397Y-107156491D01*
X175541614Y-107157949D01*
X175541279Y-107161352D01*
X175430168Y-107161352D01*
X175430168Y-106521669D01*
X178519056Y-106521669D01*
X178519056Y-107943891D01*
G37*
X142171101Y-108737219D02*
X141837768Y-108261028D01*
X141599673Y-108737219D02*
X141599673Y-107737219D01*
X141599673Y-107737219D02*
X141980625Y-107737219D01*
X141980625Y-107737219D02*
X142075863Y-107784838D01*
X142075863Y-107784838D02*
X142123482Y-107832457D01*
X142123482Y-107832457D02*
X142171101Y-107927695D01*
X142171101Y-107927695D02*
X142171101Y-108070552D01*
X142171101Y-108070552D02*
X142123482Y-108165790D01*
X142123482Y-108165790D02*
X142075863Y-108213409D01*
X142075863Y-108213409D02*
X141980625Y-108261028D01*
X141980625Y-108261028D02*
X141599673Y-108261028D01*
X142504435Y-107737219D02*
X143171101Y-108737219D01*
X143171101Y-107737219D02*
X142504435Y-108737219D01*
X161062457Y-107857945D02*
X161014838Y-107810326D01*
X161014838Y-107810326D02*
X160967219Y-107715088D01*
X160967219Y-107715088D02*
X160967219Y-107476993D01*
X160967219Y-107476993D02*
X161014838Y-107381755D01*
X161014838Y-107381755D02*
X161062457Y-107334136D01*
X161062457Y-107334136D02*
X161157695Y-107286517D01*
X161157695Y-107286517D02*
X161252933Y-107286517D01*
X161252933Y-107286517D02*
X161395790Y-107334136D01*
X161395790Y-107334136D02*
X161967219Y-107905564D01*
X161967219Y-107905564D02*
X161967219Y-107286517D01*
X161586266Y-106857945D02*
X161586266Y-106096041D01*
X161443409Y-105619850D02*
X161443409Y-105286517D01*
X161967219Y-105143660D02*
X161967219Y-105619850D01*
X161967219Y-105619850D02*
X160967219Y-105619850D01*
X160967219Y-105619850D02*
X160967219Y-105143660D01*
X161967219Y-104715088D02*
X160967219Y-104715088D01*
X160967219Y-104715088D02*
X161681504Y-104381755D01*
X161681504Y-104381755D02*
X160967219Y-104048422D01*
X160967219Y-104048422D02*
X161967219Y-104048422D01*
X163597219Y-107835564D02*
X163597219Y-107216517D01*
X163597219Y-107216517D02*
X163978171Y-107549850D01*
X163978171Y-107549850D02*
X163978171Y-107406993D01*
X163978171Y-107406993D02*
X164025790Y-107311755D01*
X164025790Y-107311755D02*
X164073409Y-107264136D01*
X164073409Y-107264136D02*
X164168647Y-107216517D01*
X164168647Y-107216517D02*
X164406742Y-107216517D01*
X164406742Y-107216517D02*
X164501980Y-107264136D01*
X164501980Y-107264136D02*
X164549600Y-107311755D01*
X164549600Y-107311755D02*
X164597219Y-107406993D01*
X164597219Y-107406993D02*
X164597219Y-107692707D01*
X164597219Y-107692707D02*
X164549600Y-107787945D01*
X164549600Y-107787945D02*
X164501980Y-107835564D01*
X164025790Y-106645088D02*
X163978171Y-106740326D01*
X163978171Y-106740326D02*
X163930552Y-106787945D01*
X163930552Y-106787945D02*
X163835314Y-106835564D01*
X163835314Y-106835564D02*
X163787695Y-106835564D01*
X163787695Y-106835564D02*
X163692457Y-106787945D01*
X163692457Y-106787945D02*
X163644838Y-106740326D01*
X163644838Y-106740326D02*
X163597219Y-106645088D01*
X163597219Y-106645088D02*
X163597219Y-106454612D01*
X163597219Y-106454612D02*
X163644838Y-106359374D01*
X163644838Y-106359374D02*
X163692457Y-106311755D01*
X163692457Y-106311755D02*
X163787695Y-106264136D01*
X163787695Y-106264136D02*
X163835314Y-106264136D01*
X163835314Y-106264136D02*
X163930552Y-106311755D01*
X163930552Y-106311755D02*
X163978171Y-106359374D01*
X163978171Y-106359374D02*
X164025790Y-106454612D01*
X164025790Y-106454612D02*
X164025790Y-106645088D01*
X164025790Y-106645088D02*
X164073409Y-106740326D01*
X164073409Y-106740326D02*
X164121028Y-106787945D01*
X164121028Y-106787945D02*
X164216266Y-106835564D01*
X164216266Y-106835564D02*
X164406742Y-106835564D01*
X164406742Y-106835564D02*
X164501980Y-106787945D01*
X164501980Y-106787945D02*
X164549600Y-106740326D01*
X164549600Y-106740326D02*
X164597219Y-106645088D01*
X164597219Y-106645088D02*
X164597219Y-106454612D01*
X164597219Y-106454612D02*
X164549600Y-106359374D01*
X164549600Y-106359374D02*
X164501980Y-106311755D01*
X164501980Y-106311755D02*
X164406742Y-106264136D01*
X164406742Y-106264136D02*
X164216266Y-106264136D01*
X164216266Y-106264136D02*
X164121028Y-106311755D01*
X164121028Y-106311755D02*
X164073409Y-106359374D01*
X164073409Y-106359374D02*
X164025790Y-106454612D01*
X172151980Y-107208898D02*
X172199600Y-107256517D01*
X172199600Y-107256517D02*
X172247219Y-107399374D01*
X172247219Y-107399374D02*
X172247219Y-107494612D01*
X172247219Y-107494612D02*
X172199600Y-107637469D01*
X172199600Y-107637469D02*
X172104361Y-107732707D01*
X172104361Y-107732707D02*
X172009123Y-107780326D01*
X172009123Y-107780326D02*
X171818647Y-107827945D01*
X171818647Y-107827945D02*
X171675790Y-107827945D01*
X171675790Y-107827945D02*
X171485314Y-107780326D01*
X171485314Y-107780326D02*
X171390076Y-107732707D01*
X171390076Y-107732707D02*
X171294838Y-107637469D01*
X171294838Y-107637469D02*
X171247219Y-107494612D01*
X171247219Y-107494612D02*
X171247219Y-107399374D01*
X171247219Y-107399374D02*
X171294838Y-107256517D01*
X171294838Y-107256517D02*
X171342457Y-107208898D01*
X172247219Y-106780326D02*
X171247219Y-106780326D01*
X172247219Y-106208898D02*
X171675790Y-106637469D01*
X171247219Y-106208898D02*
X171818647Y-106780326D01*
X131696266Y-85340326D02*
X131696266Y-84578422D01*
X132077219Y-84959374D02*
X131315314Y-84959374D01*
X179739600Y-83077945D02*
X179787219Y-82935088D01*
X179787219Y-82935088D02*
X179787219Y-82696993D01*
X179787219Y-82696993D02*
X179739600Y-82601755D01*
X179739600Y-82601755D02*
X179691980Y-82554136D01*
X179691980Y-82554136D02*
X179596742Y-82506517D01*
X179596742Y-82506517D02*
X179501504Y-82506517D01*
X179501504Y-82506517D02*
X179406266Y-82554136D01*
X179406266Y-82554136D02*
X179358647Y-82601755D01*
X179358647Y-82601755D02*
X179311028Y-82696993D01*
X179311028Y-82696993D02*
X179263409Y-82887469D01*
X179263409Y-82887469D02*
X179215790Y-82982707D01*
X179215790Y-82982707D02*
X179168171Y-83030326D01*
X179168171Y-83030326D02*
X179072933Y-83077945D01*
X179072933Y-83077945D02*
X178977695Y-83077945D01*
X178977695Y-83077945D02*
X178882457Y-83030326D01*
X178882457Y-83030326D02*
X178834838Y-82982707D01*
X178834838Y-82982707D02*
X178787219Y-82887469D01*
X178787219Y-82887469D02*
X178787219Y-82649374D01*
X178787219Y-82649374D02*
X178834838Y-82506517D01*
X179787219Y-82077945D02*
X178787219Y-82077945D01*
X178787219Y-82077945D02*
X178787219Y-81839850D01*
X178787219Y-81839850D02*
X178834838Y-81696993D01*
X178834838Y-81696993D02*
X178930076Y-81601755D01*
X178930076Y-81601755D02*
X179025314Y-81554136D01*
X179025314Y-81554136D02*
X179215790Y-81506517D01*
X179215790Y-81506517D02*
X179358647Y-81506517D01*
X179358647Y-81506517D02*
X179549123Y-81554136D01*
X179549123Y-81554136D02*
X179644361Y-81601755D01*
X179644361Y-81601755D02*
X179739600Y-81696993D01*
X179739600Y-81696993D02*
X179787219Y-81839850D01*
X179787219Y-81839850D02*
X179787219Y-82077945D01*
X179501504Y-81125564D02*
X179501504Y-80649374D01*
X179787219Y-81220802D02*
X178787219Y-80887469D01*
X178787219Y-80887469D02*
X179787219Y-80554136D01*
X174657219Y-107800326D02*
X173657219Y-107800326D01*
X173657219Y-107800326D02*
X174371504Y-107466993D01*
X174371504Y-107466993D02*
X173657219Y-107133660D01*
X173657219Y-107133660D02*
X174657219Y-107133660D01*
X174609600Y-106705088D02*
X174657219Y-106562231D01*
X174657219Y-106562231D02*
X174657219Y-106324136D01*
X174657219Y-106324136D02*
X174609600Y-106228898D01*
X174609600Y-106228898D02*
X174561980Y-106181279D01*
X174561980Y-106181279D02*
X174466742Y-106133660D01*
X174466742Y-106133660D02*
X174371504Y-106133660D01*
X174371504Y-106133660D02*
X174276266Y-106181279D01*
X174276266Y-106181279D02*
X174228647Y-106228898D01*
X174228647Y-106228898D02*
X174181028Y-106324136D01*
X174181028Y-106324136D02*
X174133409Y-106514612D01*
X174133409Y-106514612D02*
X174085790Y-106609850D01*
X174085790Y-106609850D02*
X174038171Y-106657469D01*
X174038171Y-106657469D02*
X173942933Y-106705088D01*
X173942933Y-106705088D02*
X173847695Y-106705088D01*
X173847695Y-106705088D02*
X173752457Y-106657469D01*
X173752457Y-106657469D02*
X173704838Y-106609850D01*
X173704838Y-106609850D02*
X173657219Y-106514612D01*
X173657219Y-106514612D02*
X173657219Y-106276517D01*
X173657219Y-106276517D02*
X173704838Y-106133660D01*
X181627219Y-106635564D02*
X181627219Y-106016517D01*
X181627219Y-106016517D02*
X182008171Y-106349850D01*
X182008171Y-106349850D02*
X182008171Y-106206993D01*
X182008171Y-106206993D02*
X182055790Y-106111755D01*
X182055790Y-106111755D02*
X182103409Y-106064136D01*
X182103409Y-106064136D02*
X182198647Y-106016517D01*
X182198647Y-106016517D02*
X182436742Y-106016517D01*
X182436742Y-106016517D02*
X182531980Y-106064136D01*
X182531980Y-106064136D02*
X182579600Y-106111755D01*
X182579600Y-106111755D02*
X182627219Y-106206993D01*
X182627219Y-106206993D02*
X182627219Y-106492707D01*
X182627219Y-106492707D02*
X182579600Y-106587945D01*
X182579600Y-106587945D02*
X182531980Y-106635564D01*
X181627219Y-105730802D02*
X182627219Y-105397469D01*
X182627219Y-105397469D02*
X181627219Y-105064136D01*
X181627219Y-104826040D02*
X181627219Y-104206993D01*
X181627219Y-104206993D02*
X182008171Y-104540326D01*
X182008171Y-104540326D02*
X182008171Y-104397469D01*
X182008171Y-104397469D02*
X182055790Y-104302231D01*
X182055790Y-104302231D02*
X182103409Y-104254612D01*
X182103409Y-104254612D02*
X182198647Y-104206993D01*
X182198647Y-104206993D02*
X182436742Y-104206993D01*
X182436742Y-104206993D02*
X182531980Y-104254612D01*
X182531980Y-104254612D02*
X182579600Y-104302231D01*
X182579600Y-104302231D02*
X182627219Y-104397469D01*
X182627219Y-104397469D02*
X182627219Y-104683183D01*
X182627219Y-104683183D02*
X182579600Y-104778421D01*
X182579600Y-104778421D02*
X182531980Y-104826040D01*
X134939673Y-104136266D02*
X135701578Y-104136266D01*
X167167219Y-107810326D02*
X166167219Y-107810326D01*
X166167219Y-107810326D02*
X166167219Y-107572231D01*
X166167219Y-107572231D02*
X166214838Y-107429374D01*
X166214838Y-107429374D02*
X166310076Y-107334136D01*
X166310076Y-107334136D02*
X166405314Y-107286517D01*
X166405314Y-107286517D02*
X166595790Y-107238898D01*
X166595790Y-107238898D02*
X166738647Y-107238898D01*
X166738647Y-107238898D02*
X166929123Y-107286517D01*
X166929123Y-107286517D02*
X167024361Y-107334136D01*
X167024361Y-107334136D02*
X167119600Y-107429374D01*
X167119600Y-107429374D02*
X167167219Y-107572231D01*
X167167219Y-107572231D02*
X167167219Y-107810326D01*
X166167219Y-106619850D02*
X166167219Y-106429374D01*
X166167219Y-106429374D02*
X166214838Y-106334136D01*
X166214838Y-106334136D02*
X166310076Y-106238898D01*
X166310076Y-106238898D02*
X166500552Y-106191279D01*
X166500552Y-106191279D02*
X166833885Y-106191279D01*
X166833885Y-106191279D02*
X167024361Y-106238898D01*
X167024361Y-106238898D02*
X167119600Y-106334136D01*
X167119600Y-106334136D02*
X167167219Y-106429374D01*
X167167219Y-106429374D02*
X167167219Y-106619850D01*
X167167219Y-106619850D02*
X167119600Y-106715088D01*
X167119600Y-106715088D02*
X167024361Y-106810326D01*
X167024361Y-106810326D02*
X166833885Y-106857945D01*
X166833885Y-106857945D02*
X166500552Y-106857945D01*
X166500552Y-106857945D02*
X166310076Y-106810326D01*
X166310076Y-106810326D02*
X166214838Y-106715088D01*
X166214838Y-106715088D02*
X166167219Y-106619850D01*
G36*
X143982551Y-110210198D02*
G01*
X144049692Y-110275685D01*
X144085312Y-110344289D01*
X144128791Y-110511856D01*
X144130197Y-110630664D01*
X144089957Y-110797936D01*
X144054035Y-110872606D01*
X143986726Y-110941614D01*
X143883544Y-110977307D01*
X143757105Y-110978250D01*
X143755594Y-110176485D01*
X143874706Y-110175597D01*
X143982551Y-110210198D01*
G37*
G36*
X144439831Y-111288330D02*
G01*
X141350943Y-111288330D01*
X141350943Y-110505790D01*
X141462054Y-110505790D01*
X141463681Y-110643363D01*
X141462172Y-110653508D01*
X141463943Y-110665486D01*
X141463975Y-110668156D01*
X141464539Y-110669519D01*
X141465040Y-110672901D01*
X141512544Y-110855980D01*
X141513224Y-110865536D01*
X141518815Y-110880148D01*
X141519254Y-110881837D01*
X141519684Y-110882417D01*
X141520230Y-110883844D01*
X141569566Y-110978866D01*
X141574144Y-110989918D01*
X141577302Y-110993766D01*
X141578292Y-110995672D01*
X141580286Y-110997401D01*
X141586581Y-111005071D01*
X141672526Y-111088902D01*
X141673531Y-111090912D01*
X141683055Y-111099172D01*
X141696972Y-111112747D01*
X141700291Y-111114122D01*
X141703007Y-111116477D01*
X141720907Y-111124468D01*
X141863991Y-111170374D01*
X141875878Y-111175298D01*
X141880870Y-111175789D01*
X141882879Y-111176434D01*
X141885513Y-111176246D01*
X141895387Y-111177219D01*
X141991529Y-111175609D01*
X142003132Y-111176434D01*
X142007968Y-111175334D01*
X142010134Y-111175298D01*
X142012576Y-111174286D01*
X142022248Y-111172087D01*
X142150625Y-111127678D01*
X142152992Y-111127678D01*
X142164984Y-111122710D01*
X142183005Y-111116477D01*
X142185720Y-111114122D01*
X142189040Y-111112747D01*
X142204193Y-111100310D01*
X142264249Y-111037537D01*
X142279180Y-111001488D01*
X142281101Y-110981980D01*
X142279180Y-110629138D01*
X142264248Y-110593090D01*
X142236658Y-110565500D01*
X142200610Y-110550568D01*
X142181101Y-110548647D01*
X141971116Y-110550568D01*
X141935068Y-110565500D01*
X141907478Y-110593090D01*
X141892546Y-110629138D01*
X141892546Y-110668156D01*
X141907478Y-110704204D01*
X141935068Y-110731794D01*
X141971116Y-110746726D01*
X141990625Y-110748647D01*
X142081640Y-110747814D01*
X142082688Y-110940224D01*
X142081059Y-110941927D01*
X141978448Y-110977422D01*
X141914961Y-110978485D01*
X141808221Y-110944240D01*
X141741082Y-110878752D01*
X141705461Y-110810145D01*
X141661982Y-110642580D01*
X141660576Y-110523773D01*
X141700816Y-110356500D01*
X141736738Y-110281830D01*
X141804045Y-110212824D01*
X141907384Y-110177077D01*
X142012585Y-110175832D01*
X142107069Y-110221287D01*
X142145989Y-110224053D01*
X142183005Y-110211714D01*
X142212482Y-110186149D01*
X142229931Y-110151251D01*
X142232696Y-110112331D01*
X142220993Y-110077219D01*
X142509673Y-110077219D01*
X142511594Y-111096728D01*
X142526526Y-111132776D01*
X142554116Y-111160366D01*
X142590164Y-111175298D01*
X142629182Y-111175298D01*
X142665230Y-111160366D01*
X142692820Y-111132776D01*
X142707752Y-111096728D01*
X142709673Y-111077219D01*
X142708492Y-110450475D01*
X143092990Y-111120793D01*
X143097954Y-111132776D01*
X143102433Y-111137255D01*
X143105624Y-111142818D01*
X143116140Y-111150962D01*
X143125544Y-111160366D01*
X143131431Y-111162804D01*
X143136473Y-111166709D01*
X143149305Y-111170208D01*
X143161592Y-111175298D01*
X143167968Y-111175298D01*
X143174117Y-111176975D01*
X143187310Y-111175298D01*
X143200610Y-111175298D01*
X143206498Y-111172858D01*
X143212823Y-111172055D01*
X143224372Y-111165454D01*
X143236658Y-111160366D01*
X143241165Y-111155858D01*
X143246700Y-111152696D01*
X143254844Y-111142179D01*
X143264248Y-111132776D01*
X143266686Y-111126888D01*
X143270591Y-111121847D01*
X143274090Y-111109014D01*
X143279180Y-111096728D01*
X143280162Y-111086750D01*
X143280857Y-111084204D01*
X143280606Y-111082236D01*
X143281101Y-111077219D01*
X143279217Y-110077219D01*
X143557292Y-110077219D01*
X143559213Y-111096728D01*
X143574145Y-111132776D01*
X143601735Y-111160366D01*
X143637783Y-111175298D01*
X143657292Y-111177219D01*
X143894092Y-111175453D01*
X143907894Y-111176434D01*
X143912821Y-111175313D01*
X143914896Y-111175298D01*
X143917338Y-111174286D01*
X143927010Y-111172087D01*
X144055387Y-111127678D01*
X144057754Y-111127678D01*
X144069746Y-111122710D01*
X144087767Y-111116477D01*
X144090482Y-111114122D01*
X144093802Y-111112747D01*
X144108955Y-111100310D01*
X144202972Y-111003920D01*
X144212482Y-110995673D01*
X144215148Y-110991437D01*
X144216630Y-110989918D01*
X144217641Y-110987476D01*
X144222925Y-110979082D01*
X144266353Y-110888810D01*
X144271520Y-110881837D01*
X144276748Y-110867202D01*
X144277550Y-110865536D01*
X144277601Y-110864815D01*
X144278115Y-110863377D01*
X144322694Y-110678064D01*
X144326799Y-110668156D01*
X144327991Y-110656046D01*
X144328602Y-110653508D01*
X144328384Y-110652049D01*
X144328720Y-110648647D01*
X144327092Y-110511073D01*
X144328602Y-110500929D01*
X144326830Y-110488950D01*
X144326799Y-110486281D01*
X144326234Y-110484917D01*
X144325734Y-110481536D01*
X144278229Y-110298456D01*
X144277550Y-110288901D01*
X144271957Y-110274285D01*
X144271520Y-110272600D01*
X144271090Y-110272020D01*
X144270544Y-110270592D01*
X144221201Y-110175558D01*
X144216629Y-110164519D01*
X144213473Y-110160674D01*
X144212482Y-110158764D01*
X144210484Y-110157031D01*
X144204193Y-110149365D01*
X144118248Y-110065536D01*
X144117243Y-110063526D01*
X144107713Y-110055260D01*
X144093801Y-110041691D01*
X144090482Y-110040316D01*
X144087767Y-110037961D01*
X144069866Y-110029970D01*
X143926786Y-109984065D01*
X143914896Y-109979140D01*
X143909902Y-109978648D01*
X143907894Y-109978004D01*
X143905260Y-109978191D01*
X143895387Y-109977219D01*
X143637783Y-109979140D01*
X143601735Y-109994072D01*
X143574145Y-110021662D01*
X143559213Y-110057710D01*
X143557292Y-110077219D01*
X143279217Y-110077219D01*
X143279180Y-110057710D01*
X143264248Y-110021662D01*
X143236658Y-109994072D01*
X143200610Y-109979140D01*
X143161592Y-109979140D01*
X143125544Y-109994072D01*
X143097954Y-110021662D01*
X143083022Y-110057710D01*
X143081101Y-110077219D01*
X143082281Y-110703962D01*
X142697783Y-110033644D01*
X142692820Y-110021662D01*
X142688340Y-110017182D01*
X142685150Y-110011620D01*
X142674635Y-110003477D01*
X142665230Y-109994072D01*
X142659339Y-109991632D01*
X142654301Y-109987730D01*
X142641472Y-109984231D01*
X142629182Y-109979140D01*
X142622807Y-109979140D01*
X142616658Y-109977463D01*
X142603465Y-109979140D01*
X142590164Y-109979140D01*
X142584275Y-109981579D01*
X142577951Y-109982383D01*
X142566401Y-109988983D01*
X142554116Y-109994072D01*
X142549608Y-109998579D01*
X142544074Y-110001742D01*
X142535931Y-110012256D01*
X142526526Y-110021662D01*
X142524086Y-110027552D01*
X142520184Y-110032591D01*
X142516685Y-110045419D01*
X142511594Y-110057710D01*
X142510611Y-110067687D01*
X142509917Y-110070234D01*
X142510167Y-110072201D01*
X142509673Y-110077219D01*
X142220993Y-110077219D01*
X142220358Y-110075315D01*
X142194793Y-110045838D01*
X142178203Y-110035395D01*
X142095185Y-109995456D01*
X142093801Y-109994072D01*
X142083051Y-109989619D01*
X142064657Y-109980770D01*
X142061073Y-109980515D01*
X142057753Y-109979140D01*
X142038244Y-109977219D01*
X141895583Y-109978906D01*
X141882879Y-109978004D01*
X141877993Y-109979114D01*
X141875878Y-109979140D01*
X141873436Y-109980151D01*
X141863764Y-109982351D01*
X141735390Y-110026759D01*
X141733021Y-110026759D01*
X141721024Y-110031728D01*
X141703007Y-110037961D01*
X141700291Y-110040316D01*
X141696973Y-110041691D01*
X141681819Y-110054127D01*
X141587802Y-110150516D01*
X141578292Y-110158765D01*
X141575625Y-110163001D01*
X141574145Y-110164519D01*
X141573134Y-110166958D01*
X141567849Y-110175355D01*
X141524420Y-110265626D01*
X141519254Y-110272600D01*
X141514026Y-110287232D01*
X141513224Y-110288901D01*
X141513172Y-110289623D01*
X141512659Y-110291061D01*
X141468079Y-110476371D01*
X141463975Y-110486281D01*
X141462782Y-110498390D01*
X141462172Y-110500929D01*
X141462389Y-110502387D01*
X141462054Y-110505790D01*
X141350943Y-110505790D01*
X141350943Y-109866108D01*
X144439831Y-109866108D01*
X144439831Y-111288330D01*
G37*
X141516816Y-103937219D02*
X142088244Y-103937219D01*
X141802530Y-104937219D02*
X141802530Y-103937219D01*
X142326340Y-103937219D02*
X142993006Y-104937219D01*
X142993006Y-103937219D02*
X142326340Y-104937219D01*
G36*
X174447936Y-80540041D02*
G01*
X174522607Y-80575964D01*
X174591613Y-80643272D01*
X174627307Y-80746454D01*
X174628250Y-80872893D01*
X173826485Y-80874404D01*
X173825597Y-80755292D01*
X173860198Y-80647447D01*
X173925685Y-80580306D01*
X173994289Y-80544686D01*
X174161856Y-80501207D01*
X174280663Y-80499801D01*
X174447936Y-80540041D01*
G37*
G36*
X174938330Y-83279056D02*
G01*
X173516108Y-83279056D01*
X173516108Y-82591755D01*
X173627219Y-82591755D01*
X173628906Y-82734415D01*
X173628004Y-82747119D01*
X173629114Y-82752004D01*
X173629140Y-82754121D01*
X173630151Y-82756563D01*
X173632351Y-82766235D01*
X173676759Y-82894609D01*
X173676759Y-82896978D01*
X173681728Y-82908974D01*
X173687961Y-82926992D01*
X173690316Y-82929707D01*
X173691691Y-82933026D01*
X173704127Y-82948180D01*
X173800511Y-83042191D01*
X173808764Y-83051707D01*
X173813002Y-83054374D01*
X173814519Y-83055854D01*
X173816956Y-83056863D01*
X173825355Y-83062150D01*
X173915626Y-83105578D01*
X173922600Y-83110745D01*
X173937234Y-83115973D01*
X173938901Y-83116775D01*
X173939621Y-83116826D01*
X173941060Y-83117340D01*
X174126372Y-83161919D01*
X174136281Y-83166024D01*
X174148390Y-83167216D01*
X174150929Y-83167827D01*
X174152387Y-83167609D01*
X174155790Y-83167945D01*
X174293363Y-83166317D01*
X174303508Y-83167827D01*
X174315486Y-83166055D01*
X174318156Y-83166024D01*
X174319519Y-83165459D01*
X174322901Y-83164959D01*
X174505980Y-83117454D01*
X174515536Y-83116775D01*
X174530148Y-83111183D01*
X174531837Y-83110745D01*
X174532417Y-83110314D01*
X174533844Y-83109769D01*
X174628866Y-83060432D01*
X174639918Y-83055855D01*
X174643766Y-83052696D01*
X174645672Y-83051707D01*
X174647401Y-83049712D01*
X174655071Y-83043418D01*
X174738902Y-82957472D01*
X174740912Y-82956468D01*
X174749172Y-82946943D01*
X174762747Y-82933027D01*
X174764122Y-82929707D01*
X174766477Y-82926992D01*
X174774468Y-82909092D01*
X174820374Y-82766007D01*
X174825298Y-82754121D01*
X174825789Y-82749128D01*
X174826434Y-82747120D01*
X174826246Y-82744485D01*
X174827219Y-82734612D01*
X174825609Y-82638468D01*
X174826434Y-82626866D01*
X174825334Y-82622030D01*
X174825298Y-82619865D01*
X174824286Y-82617423D01*
X174822087Y-82607751D01*
X174777678Y-82479373D01*
X174777678Y-82477007D01*
X174772710Y-82465014D01*
X174766477Y-82446994D01*
X174764122Y-82444278D01*
X174762747Y-82440959D01*
X174750310Y-82425805D01*
X174687537Y-82365750D01*
X174662046Y-82355192D01*
X174651489Y-82350819D01*
X174631980Y-82348898D01*
X174279138Y-82350819D01*
X174243090Y-82365751D01*
X174215500Y-82393341D01*
X174200568Y-82429389D01*
X174198647Y-82448898D01*
X174200568Y-82658883D01*
X174215500Y-82694931D01*
X174243090Y-82722521D01*
X174279138Y-82737453D01*
X174318156Y-82737453D01*
X174354204Y-82722521D01*
X174381794Y-82694931D01*
X174396726Y-82658883D01*
X174398647Y-82639374D01*
X174397814Y-82548358D01*
X174590224Y-82547310D01*
X174591926Y-82548938D01*
X174627422Y-82651550D01*
X174628485Y-82715037D01*
X174594240Y-82821777D01*
X174528752Y-82888916D01*
X174460145Y-82924537D01*
X174292580Y-82968016D01*
X174173772Y-82969422D01*
X174006500Y-82929182D01*
X173931830Y-82893260D01*
X173862824Y-82825953D01*
X173827077Y-82722614D01*
X173825832Y-82617413D01*
X173871287Y-82522930D01*
X173874053Y-82484010D01*
X173861714Y-82446994D01*
X173836149Y-82417517D01*
X173801251Y-82400068D01*
X173762331Y-82397303D01*
X173725315Y-82409641D01*
X173695838Y-82435206D01*
X173685395Y-82451796D01*
X173645456Y-82534813D01*
X173644072Y-82536198D01*
X173639619Y-82546947D01*
X173630770Y-82565342D01*
X173630515Y-82568925D01*
X173629140Y-82572246D01*
X173627219Y-82591755D01*
X173516108Y-82591755D01*
X173516108Y-82013341D01*
X173627463Y-82013341D01*
X173629140Y-82026534D01*
X173629140Y-82039835D01*
X173631579Y-82045723D01*
X173632383Y-82052048D01*
X173638983Y-82063597D01*
X173644072Y-82075883D01*
X173648579Y-82080390D01*
X173651742Y-82085925D01*
X173662256Y-82094067D01*
X173671662Y-82103473D01*
X173677552Y-82105912D01*
X173682591Y-82109815D01*
X173695419Y-82113313D01*
X173707710Y-82118405D01*
X173717687Y-82119387D01*
X173720234Y-82120082D01*
X173722201Y-82119831D01*
X173727219Y-82120326D01*
X174746728Y-82118405D01*
X174782776Y-82103473D01*
X174810366Y-82075883D01*
X174825298Y-82039835D01*
X174825298Y-82000817D01*
X174810366Y-81964769D01*
X174782776Y-81937179D01*
X174746728Y-81922247D01*
X174727219Y-81920326D01*
X174100475Y-81921506D01*
X174770793Y-81537008D01*
X174782776Y-81532045D01*
X174787255Y-81527565D01*
X174792818Y-81524375D01*
X174800962Y-81513858D01*
X174810366Y-81504455D01*
X174812804Y-81498567D01*
X174816709Y-81493526D01*
X174820208Y-81480693D01*
X174825298Y-81468407D01*
X174825298Y-81462031D01*
X174826975Y-81455882D01*
X174825298Y-81442688D01*
X174825298Y-81429389D01*
X174822858Y-81423500D01*
X174822055Y-81417176D01*
X174815454Y-81405626D01*
X174810366Y-81393341D01*
X174805858Y-81388833D01*
X174802696Y-81383299D01*
X174792179Y-81375154D01*
X174782776Y-81365751D01*
X174776888Y-81363312D01*
X174771847Y-81359408D01*
X174759014Y-81355908D01*
X174746728Y-81350819D01*
X174736750Y-81349836D01*
X174734204Y-81349142D01*
X174732236Y-81349392D01*
X174727219Y-81348898D01*
X173707710Y-81350819D01*
X173671662Y-81365751D01*
X173644072Y-81393341D01*
X173629140Y-81429389D01*
X173629140Y-81468407D01*
X173644072Y-81504455D01*
X173671662Y-81532045D01*
X173707710Y-81546977D01*
X173727219Y-81548898D01*
X174353962Y-81547717D01*
X173683644Y-81932215D01*
X173671662Y-81937179D01*
X173667182Y-81941658D01*
X173661620Y-81944849D01*
X173653477Y-81955363D01*
X173644072Y-81964769D01*
X173641632Y-81970659D01*
X173637730Y-81975698D01*
X173634231Y-81988526D01*
X173629140Y-82000817D01*
X173629140Y-82007192D01*
X173627463Y-82013341D01*
X173516108Y-82013341D01*
X173516108Y-80734612D01*
X173627219Y-80734612D01*
X173629140Y-80992216D01*
X173644072Y-81028264D01*
X173671662Y-81055854D01*
X173707710Y-81070786D01*
X173727219Y-81072707D01*
X174746728Y-81070786D01*
X174782776Y-81055854D01*
X174810366Y-81028264D01*
X174825298Y-80992216D01*
X174827219Y-80972707D01*
X174825453Y-80735905D01*
X174826434Y-80722104D01*
X174825313Y-80717176D01*
X174825298Y-80715103D01*
X174824286Y-80712661D01*
X174822087Y-80702989D01*
X174777679Y-80574614D01*
X174777679Y-80572246D01*
X174772708Y-80560247D01*
X174766477Y-80542232D01*
X174764122Y-80539516D01*
X174762747Y-80536197D01*
X174750311Y-80521044D01*
X174653915Y-80427021D01*
X174645672Y-80417517D01*
X174641438Y-80414852D01*
X174639918Y-80413369D01*
X174637474Y-80412356D01*
X174629082Y-80407074D01*
X174538810Y-80363645D01*
X174531837Y-80358479D01*
X174517204Y-80353251D01*
X174515536Y-80352449D01*
X174514813Y-80352397D01*
X174513376Y-80351884D01*
X174328065Y-80307304D01*
X174318156Y-80303200D01*
X174306046Y-80302007D01*
X174303508Y-80301397D01*
X174302049Y-80301614D01*
X174298647Y-80301279D01*
X174161073Y-80302906D01*
X174150929Y-80301397D01*
X174138950Y-80303168D01*
X174136281Y-80303200D01*
X174134917Y-80303764D01*
X174131536Y-80304265D01*
X173948456Y-80351769D01*
X173938901Y-80352449D01*
X173924285Y-80358041D01*
X173922600Y-80358479D01*
X173922020Y-80358908D01*
X173920592Y-80359455D01*
X173825558Y-80408797D01*
X173814519Y-80413370D01*
X173810674Y-80416525D01*
X173808764Y-80417517D01*
X173807031Y-80419514D01*
X173799365Y-80425806D01*
X173715536Y-80511750D01*
X173713526Y-80512756D01*
X173705260Y-80522285D01*
X173691691Y-80536198D01*
X173690316Y-80539516D01*
X173687961Y-80542232D01*
X173679970Y-80560133D01*
X173634065Y-80703212D01*
X173629140Y-80715103D01*
X173628648Y-80720096D01*
X173628004Y-80722105D01*
X173628191Y-80724738D01*
X173627219Y-80734612D01*
X173516108Y-80734612D01*
X173516108Y-80190168D01*
X174938330Y-80190168D01*
X174938330Y-83279056D01*
G37*
X131369673Y-104086266D02*
X132131578Y-104086266D01*
X131750625Y-104467219D02*
X131750625Y-103705314D01*
X158507219Y-107875564D02*
X158507219Y-107256517D01*
X158507219Y-107256517D02*
X158888171Y-107589850D01*
X158888171Y-107589850D02*
X158888171Y-107446993D01*
X158888171Y-107446993D02*
X158935790Y-107351755D01*
X158935790Y-107351755D02*
X158983409Y-107304136D01*
X158983409Y-107304136D02*
X159078647Y-107256517D01*
X159078647Y-107256517D02*
X159316742Y-107256517D01*
X159316742Y-107256517D02*
X159411980Y-107304136D01*
X159411980Y-107304136D02*
X159459600Y-107351755D01*
X159459600Y-107351755D02*
X159507219Y-107446993D01*
X159507219Y-107446993D02*
X159507219Y-107732707D01*
X159507219Y-107732707D02*
X159459600Y-107827945D01*
X159459600Y-107827945D02*
X159411980Y-107875564D01*
X177209600Y-83007945D02*
X177257219Y-82865088D01*
X177257219Y-82865088D02*
X177257219Y-82626993D01*
X177257219Y-82626993D02*
X177209600Y-82531755D01*
X177209600Y-82531755D02*
X177161980Y-82484136D01*
X177161980Y-82484136D02*
X177066742Y-82436517D01*
X177066742Y-82436517D02*
X176971504Y-82436517D01*
X176971504Y-82436517D02*
X176876266Y-82484136D01*
X176876266Y-82484136D02*
X176828647Y-82531755D01*
X176828647Y-82531755D02*
X176781028Y-82626993D01*
X176781028Y-82626993D02*
X176733409Y-82817469D01*
X176733409Y-82817469D02*
X176685790Y-82912707D01*
X176685790Y-82912707D02*
X176638171Y-82960326D01*
X176638171Y-82960326D02*
X176542933Y-83007945D01*
X176542933Y-83007945D02*
X176447695Y-83007945D01*
X176447695Y-83007945D02*
X176352457Y-82960326D01*
X176352457Y-82960326D02*
X176304838Y-82912707D01*
X176304838Y-82912707D02*
X176257219Y-82817469D01*
X176257219Y-82817469D02*
X176257219Y-82579374D01*
X176257219Y-82579374D02*
X176304838Y-82436517D01*
X177161980Y-81436517D02*
X177209600Y-81484136D01*
X177209600Y-81484136D02*
X177257219Y-81626993D01*
X177257219Y-81626993D02*
X177257219Y-81722231D01*
X177257219Y-81722231D02*
X177209600Y-81865088D01*
X177209600Y-81865088D02*
X177114361Y-81960326D01*
X177114361Y-81960326D02*
X177019123Y-82007945D01*
X177019123Y-82007945D02*
X176828647Y-82055564D01*
X176828647Y-82055564D02*
X176685790Y-82055564D01*
X176685790Y-82055564D02*
X176495314Y-82007945D01*
X176495314Y-82007945D02*
X176400076Y-81960326D01*
X176400076Y-81960326D02*
X176304838Y-81865088D01*
X176304838Y-81865088D02*
X176257219Y-81722231D01*
X176257219Y-81722231D02*
X176257219Y-81626993D01*
X176257219Y-81626993D02*
X176304838Y-81484136D01*
X176304838Y-81484136D02*
X176352457Y-81436517D01*
X177257219Y-80531755D02*
X177257219Y-81007945D01*
X177257219Y-81007945D02*
X176257219Y-81007945D01*
X141486816Y-101837219D02*
X141820149Y-102837219D01*
X141820149Y-102837219D02*
X142153482Y-101837219D01*
X142820149Y-102313409D02*
X142963006Y-102361028D01*
X142963006Y-102361028D02*
X143010625Y-102408647D01*
X143010625Y-102408647D02*
X143058244Y-102503885D01*
X143058244Y-102503885D02*
X143058244Y-102646742D01*
X143058244Y-102646742D02*
X143010625Y-102741980D01*
X143010625Y-102741980D02*
X142963006Y-102789600D01*
X142963006Y-102789600D02*
X142867768Y-102837219D01*
X142867768Y-102837219D02*
X142486816Y-102837219D01*
X142486816Y-102837219D02*
X142486816Y-101837219D01*
X142486816Y-101837219D02*
X142820149Y-101837219D01*
X142820149Y-101837219D02*
X142915387Y-101884838D01*
X142915387Y-101884838D02*
X142963006Y-101932457D01*
X142963006Y-101932457D02*
X143010625Y-102027695D01*
X143010625Y-102027695D02*
X143010625Y-102122933D01*
X143010625Y-102122933D02*
X142963006Y-102218171D01*
X142963006Y-102218171D02*
X142915387Y-102265790D01*
X142915387Y-102265790D02*
X142820149Y-102313409D01*
X142820149Y-102313409D02*
X142486816Y-102313409D01*
X143486816Y-101837219D02*
X143486816Y-102646742D01*
X143486816Y-102646742D02*
X143534435Y-102741980D01*
X143534435Y-102741980D02*
X143582054Y-102789600D01*
X143582054Y-102789600D02*
X143677292Y-102837219D01*
X143677292Y-102837219D02*
X143867768Y-102837219D01*
X143867768Y-102837219D02*
X143963006Y-102789600D01*
X143963006Y-102789600D02*
X144010625Y-102741980D01*
X144010625Y-102741980D02*
X144058244Y-102646742D01*
X144058244Y-102646742D02*
X144058244Y-101837219D01*
X144486816Y-102789600D02*
X144629673Y-102837219D01*
X144629673Y-102837219D02*
X144867768Y-102837219D01*
X144867768Y-102837219D02*
X144963006Y-102789600D01*
X144963006Y-102789600D02*
X145010625Y-102741980D01*
X145010625Y-102741980D02*
X145058244Y-102646742D01*
X145058244Y-102646742D02*
X145058244Y-102551504D01*
X145058244Y-102551504D02*
X145010625Y-102456266D01*
X145010625Y-102456266D02*
X144963006Y-102408647D01*
X144963006Y-102408647D02*
X144867768Y-102361028D01*
X144867768Y-102361028D02*
X144677292Y-102313409D01*
X144677292Y-102313409D02*
X144582054Y-102265790D01*
X144582054Y-102265790D02*
X144534435Y-102218171D01*
X144534435Y-102218171D02*
X144486816Y-102122933D01*
X144486816Y-102122933D02*
X144486816Y-102027695D01*
X144486816Y-102027695D02*
X144534435Y-101932457D01*
X144534435Y-101932457D02*
X144582054Y-101884838D01*
X144582054Y-101884838D02*
X144677292Y-101837219D01*
X144677292Y-101837219D02*
X144915387Y-101837219D01*
X144915387Y-101837219D02*
X145058244Y-101884838D01*
X171217219Y-82885564D02*
X171217219Y-82266517D01*
X171217219Y-82266517D02*
X171598171Y-82599850D01*
X171598171Y-82599850D02*
X171598171Y-82456993D01*
X171598171Y-82456993D02*
X171645790Y-82361755D01*
X171645790Y-82361755D02*
X171693409Y-82314136D01*
X171693409Y-82314136D02*
X171788647Y-82266517D01*
X171788647Y-82266517D02*
X172026742Y-82266517D01*
X172026742Y-82266517D02*
X172121980Y-82314136D01*
X172121980Y-82314136D02*
X172169600Y-82361755D01*
X172169600Y-82361755D02*
X172217219Y-82456993D01*
X172217219Y-82456993D02*
X172217219Y-82742707D01*
X172217219Y-82742707D02*
X172169600Y-82837945D01*
X172169600Y-82837945D02*
X172121980Y-82885564D01*
X171217219Y-81980802D02*
X172217219Y-81647469D01*
X172217219Y-81647469D02*
X171217219Y-81314136D01*
X171217219Y-81076040D02*
X171217219Y-80456993D01*
X171217219Y-80456993D02*
X171598171Y-80790326D01*
X171598171Y-80790326D02*
X171598171Y-80647469D01*
X171598171Y-80647469D02*
X171645790Y-80552231D01*
X171645790Y-80552231D02*
X171693409Y-80504612D01*
X171693409Y-80504612D02*
X171788647Y-80456993D01*
X171788647Y-80456993D02*
X172026742Y-80456993D01*
X172026742Y-80456993D02*
X172121980Y-80504612D01*
X172121980Y-80504612D02*
X172169600Y-80552231D01*
X172169600Y-80552231D02*
X172217219Y-80647469D01*
X172217219Y-80647469D02*
X172217219Y-80933183D01*
X172217219Y-80933183D02*
X172169600Y-81028421D01*
X172169600Y-81028421D02*
X172121980Y-81076040D01*
X169577219Y-107790326D02*
X168577219Y-107790326D01*
X168577219Y-107790326D02*
X168577219Y-107552231D01*
X168577219Y-107552231D02*
X168624838Y-107409374D01*
X168624838Y-107409374D02*
X168720076Y-107314136D01*
X168720076Y-107314136D02*
X168815314Y-107266517D01*
X168815314Y-107266517D02*
X169005790Y-107218898D01*
X169005790Y-107218898D02*
X169148647Y-107218898D01*
X169148647Y-107218898D02*
X169339123Y-107266517D01*
X169339123Y-107266517D02*
X169434361Y-107314136D01*
X169434361Y-107314136D02*
X169529600Y-107409374D01*
X169529600Y-107409374D02*
X169577219Y-107552231D01*
X169577219Y-107552231D02*
X169577219Y-107790326D01*
X169577219Y-106790326D02*
X168577219Y-106790326D01*
X135780326Y-85013733D02*
X135018422Y-85013733D01*
D12*
G36*
X148185589Y-107381025D02*
G01*
X148270248Y-107432292D01*
X148309806Y-107475005D01*
X148353969Y-107565505D01*
X148354667Y-107716482D01*
X148354139Y-107718441D01*
X148354696Y-107722734D01*
X148355499Y-107896352D01*
X147922403Y-107843007D01*
X147920773Y-107490346D01*
X147956461Y-107420874D01*
X147984148Y-107395525D01*
X148057970Y-107366543D01*
X148185589Y-107381025D01*
G37*
G36*
X149367066Y-108382861D02*
G01*
X147528460Y-108382861D01*
X147528460Y-107456003D01*
X147672904Y-107456003D01*
X147675163Y-107944748D01*
X147673228Y-107960232D01*
X147675269Y-107967655D01*
X147675306Y-107975627D01*
X147681717Y-107991105D01*
X147686159Y-108007259D01*
X147690970Y-108013445D01*
X147693970Y-108020687D01*
X147705817Y-108032534D01*
X147716103Y-108045759D01*
X147722916Y-108049633D01*
X147728458Y-108055175D01*
X147743934Y-108061585D01*
X147758500Y-108069868D01*
X147770470Y-108072576D01*
X147773518Y-108073839D01*
X147776049Y-108073839D01*
X147782400Y-108075276D01*
X148451373Y-108157674D01*
X148454471Y-108158958D01*
X148461790Y-108158958D01*
X149106895Y-108238417D01*
X149153922Y-108225486D01*
X149192422Y-108195542D01*
X149216531Y-108153145D01*
X149222580Y-108104750D01*
X149209649Y-108057723D01*
X149179705Y-108019223D01*
X149137308Y-107995114D01*
X149113408Y-107989706D01*
X148603350Y-107926881D01*
X148602762Y-107799514D01*
X149180156Y-107465009D01*
X149209916Y-107426368D01*
X149222622Y-107379279D01*
X149216341Y-107330913D01*
X149192030Y-107288632D01*
X149153389Y-107258872D01*
X149106299Y-107246166D01*
X149057933Y-107252447D01*
X149035596Y-107262520D01*
X148600552Y-107514556D01*
X148600309Y-107513971D01*
X148600169Y-107510985D01*
X148591959Y-107487897D01*
X148529452Y-107359806D01*
X148524784Y-107346350D01*
X148519006Y-107338400D01*
X148517497Y-107335307D01*
X148515316Y-107333322D01*
X148510378Y-107326528D01*
X148448159Y-107259348D01*
X148440704Y-107248893D01*
X148432918Y-107242890D01*
X148430477Y-107240255D01*
X148427841Y-107238976D01*
X148421297Y-107233932D01*
X148313541Y-107168678D01*
X148313039Y-107168032D01*
X148303781Y-107162767D01*
X148275536Y-107145663D01*
X148272936Y-107145227D01*
X148270642Y-107143923D01*
X148246742Y-107138515D01*
X148077814Y-107119344D01*
X148074053Y-107117635D01*
X148057928Y-107117088D01*
X148036531Y-107114660D01*
X148031018Y-107116175D01*
X148025308Y-107115982D01*
X148001632Y-107122295D01*
X147872549Y-107172972D01*
X147859336Y-107177442D01*
X147857105Y-107179036D01*
X147855833Y-107179536D01*
X147853964Y-107181282D01*
X147839402Y-107191692D01*
X147771900Y-107253493D01*
X147763110Y-107260721D01*
X147761705Y-107262827D01*
X147760726Y-107263724D01*
X147759631Y-107265938D01*
X147749515Y-107281108D01*
X147696797Y-107383729D01*
X147693970Y-107386557D01*
X147688246Y-107400376D01*
X147678254Y-107419827D01*
X147677657Y-107425939D01*
X147675306Y-107431617D01*
X147672904Y-107456003D01*
X147528460Y-107456003D01*
X147528460Y-106970216D01*
X149367066Y-106970216D01*
X149367066Y-108382861D01*
G37*
D11*
X151556267Y-102210326D02*
X151556267Y-101448422D01*
X151937220Y-101829374D02*
X151175315Y-101829374D01*
X150937220Y-101067469D02*
X151937220Y-100400803D01*
X150937220Y-100400803D02*
X151937220Y-101067469D01*
X148906266Y-104660326D02*
X148906266Y-103898422D01*
X149287219Y-104279374D02*
X148525314Y-104279374D01*
X148811028Y-103231755D02*
X149287219Y-103231755D01*
X148287219Y-103565088D02*
X148811028Y-103231755D01*
X148811028Y-103231755D02*
X148287219Y-102898422D01*
X154306266Y-108710326D02*
X154306266Y-107948422D01*
X154687219Y-108329374D02*
X153925314Y-108329374D01*
X153687219Y-107567469D02*
X153687219Y-106900803D01*
X153687219Y-106900803D02*
X154687219Y-107567469D01*
X154687219Y-107567469D02*
X154687219Y-106900803D01*
D10*
X153304663Y-92010799D02*
X153542758Y-92010799D01*
X153447520Y-92248894D02*
X153542758Y-92010799D01*
X153542758Y-92010799D02*
X153447520Y-91772704D01*
X153733234Y-92153656D02*
X153542758Y-92010799D01*
X153542758Y-92010799D02*
X153733234Y-91867942D01*
D11*
X121082857Y-103738409D02*
X121225714Y-103786028D01*
X121225714Y-103786028D02*
X121273333Y-103833647D01*
X121273333Y-103833647D02*
X121320952Y-103928885D01*
X121320952Y-103928885D02*
X121320952Y-104071742D01*
X121320952Y-104071742D02*
X121273333Y-104166980D01*
X121273333Y-104166980D02*
X121225714Y-104214600D01*
X121225714Y-104214600D02*
X121130476Y-104262219D01*
X121130476Y-104262219D02*
X120749524Y-104262219D01*
X120749524Y-104262219D02*
X120749524Y-103262219D01*
X120749524Y-103262219D02*
X121082857Y-103262219D01*
X121082857Y-103262219D02*
X121178095Y-103309838D01*
X121178095Y-103309838D02*
X121225714Y-103357457D01*
X121225714Y-103357457D02*
X121273333Y-103452695D01*
X121273333Y-103452695D02*
X121273333Y-103547933D01*
X121273333Y-103547933D02*
X121225714Y-103643171D01*
X121225714Y-103643171D02*
X121178095Y-103690790D01*
X121178095Y-103690790D02*
X121082857Y-103738409D01*
X121082857Y-103738409D02*
X120749524Y-103738409D01*
X121940000Y-103262219D02*
X122130476Y-103262219D01*
X122130476Y-103262219D02*
X122225714Y-103309838D01*
X122225714Y-103309838D02*
X122320952Y-103405076D01*
X122320952Y-103405076D02*
X122368571Y-103595552D01*
X122368571Y-103595552D02*
X122368571Y-103928885D01*
X122368571Y-103928885D02*
X122320952Y-104119361D01*
X122320952Y-104119361D02*
X122225714Y-104214600D01*
X122225714Y-104214600D02*
X122130476Y-104262219D01*
X122130476Y-104262219D02*
X121940000Y-104262219D01*
X121940000Y-104262219D02*
X121844762Y-104214600D01*
X121844762Y-104214600D02*
X121749524Y-104119361D01*
X121749524Y-104119361D02*
X121701905Y-103928885D01*
X121701905Y-103928885D02*
X121701905Y-103595552D01*
X121701905Y-103595552D02*
X121749524Y-103405076D01*
X121749524Y-103405076D02*
X121844762Y-103309838D01*
X121844762Y-103309838D02*
X121940000Y-103262219D01*
X122987619Y-103262219D02*
X123178095Y-103262219D01*
X123178095Y-103262219D02*
X123273333Y-103309838D01*
X123273333Y-103309838D02*
X123368571Y-103405076D01*
X123368571Y-103405076D02*
X123416190Y-103595552D01*
X123416190Y-103595552D02*
X123416190Y-103928885D01*
X123416190Y-103928885D02*
X123368571Y-104119361D01*
X123368571Y-104119361D02*
X123273333Y-104214600D01*
X123273333Y-104214600D02*
X123178095Y-104262219D01*
X123178095Y-104262219D02*
X122987619Y-104262219D01*
X122987619Y-104262219D02*
X122892381Y-104214600D01*
X122892381Y-104214600D02*
X122797143Y-104119361D01*
X122797143Y-104119361D02*
X122749524Y-103928885D01*
X122749524Y-103928885D02*
X122749524Y-103595552D01*
X122749524Y-103595552D02*
X122797143Y-103405076D01*
X122797143Y-103405076D02*
X122892381Y-103309838D01*
X122892381Y-103309838D02*
X122987619Y-103262219D01*
X123701905Y-103262219D02*
X124273333Y-103262219D01*
X123987619Y-104262219D02*
X123987619Y-103262219D01*
D12*
G36*
X149357024Y-86762861D02*
G01*
X147518647Y-86762861D01*
X147518647Y-85471418D01*
X147663091Y-85471418D01*
X147663363Y-85472480D01*
X147663228Y-85473565D01*
X147669403Y-85496025D01*
X147675211Y-85518661D01*
X147675869Y-85519537D01*
X147676159Y-85520592D01*
X147690478Y-85539002D01*
X147704488Y-85557669D01*
X147705670Y-85558535D01*
X147706103Y-85559092D01*
X147707560Y-85559920D01*
X147724252Y-85572154D01*
X148422251Y-85983088D01*
X147750775Y-86214301D01*
X147731886Y-86219496D01*
X147728862Y-86221847D01*
X147725190Y-86223112D01*
X147709687Y-86236760D01*
X147693386Y-86249440D01*
X147691479Y-86252792D01*
X147688584Y-86255342D01*
X147679484Y-86273886D01*
X147669277Y-86291837D01*
X147668798Y-86295664D01*
X147667099Y-86299128D01*
X147665789Y-86319741D01*
X147663228Y-86340232D01*
X147664250Y-86343951D01*
X147664006Y-86347803D01*
X147670684Y-86367348D01*
X147676159Y-86387259D01*
X147678527Y-86390304D01*
X147679775Y-86393955D01*
X147693423Y-86409457D01*
X147706103Y-86425759D01*
X147709455Y-86427665D01*
X147712005Y-86430561D01*
X147730549Y-86439660D01*
X147748500Y-86449868D01*
X147753793Y-86451065D01*
X147755791Y-86452046D01*
X147759036Y-86452252D01*
X147772400Y-86455276D01*
X149096895Y-86618417D01*
X149143922Y-86605486D01*
X149182422Y-86575542D01*
X149206531Y-86533145D01*
X149212580Y-86484750D01*
X149199649Y-86437723D01*
X149169705Y-86399223D01*
X149127308Y-86375114D01*
X149103408Y-86369706D01*
X148334998Y-86275059D01*
X148752412Y-86131328D01*
X148770563Y-86126672D01*
X148774485Y-86123727D01*
X148779190Y-86122108D01*
X148793895Y-86109159D01*
X148809571Y-86097395D01*
X148812086Y-86093142D01*
X148815795Y-86089878D01*
X148824426Y-86072287D01*
X148834407Y-86055420D01*
X148835104Y-86050527D01*
X148837281Y-86046092D01*
X148838523Y-86026537D01*
X148841289Y-86007135D01*
X148840060Y-86002347D01*
X148840374Y-85997417D01*
X148834040Y-85978879D01*
X148829169Y-85959892D01*
X148826201Y-85955938D01*
X148824605Y-85951265D01*
X148811654Y-85936556D01*
X148799892Y-85920884D01*
X148794151Y-85916676D01*
X148792375Y-85914659D01*
X148789419Y-85913209D01*
X148780128Y-85906399D01*
X148364142Y-85661495D01*
X149096895Y-85751750D01*
X149143922Y-85738819D01*
X149182422Y-85708875D01*
X149206531Y-85666478D01*
X149212580Y-85618083D01*
X149199649Y-85571056D01*
X149169705Y-85532556D01*
X149127308Y-85508447D01*
X149103408Y-85503039D01*
X147801799Y-85342717D01*
X147781060Y-85339761D01*
X147780002Y-85340032D01*
X147778913Y-85339898D01*
X147756452Y-85346073D01*
X147733817Y-85351881D01*
X147732940Y-85352539D01*
X147731886Y-85352829D01*
X147713475Y-85367148D01*
X147694809Y-85381158D01*
X147694251Y-85382099D01*
X147693386Y-85382773D01*
X147681847Y-85403063D01*
X147669973Y-85423133D01*
X147669818Y-85424217D01*
X147669277Y-85425170D01*
X147666385Y-85448302D01*
X147663091Y-85471418D01*
X147518647Y-85471418D01*
X147518647Y-85195317D01*
X149357024Y-85195317D01*
X149357024Y-86762861D01*
G37*
D11*
X148946266Y-83540326D02*
X148946266Y-82778422D01*
X149327219Y-83159374D02*
X148565314Y-83159374D01*
X148327219Y-82397469D02*
X148327219Y-81730803D01*
X148327219Y-81730803D02*
X149327219Y-82397469D01*
X149327219Y-82397469D02*
X149327219Y-81730803D01*
X151896266Y-80340326D02*
X151896266Y-79578422D01*
X152277219Y-79959374D02*
X151515314Y-79959374D01*
X151277219Y-79197469D02*
X152277219Y-78530803D01*
X151277219Y-78530803D02*
X152277219Y-79197469D01*
X154796266Y-82990325D02*
X154796266Y-82228421D01*
X155177219Y-82609373D02*
X154415314Y-82609373D01*
X154701028Y-81561754D02*
X155177219Y-81561754D01*
X154177219Y-81895087D02*
X154701028Y-81561754D01*
X154701028Y-81561754D02*
X154177219Y-81228421D01*
X128908409Y-81248095D02*
X128956028Y-81105238D01*
X128956028Y-81105238D02*
X129003647Y-81057619D01*
X129003647Y-81057619D02*
X129098885Y-81010000D01*
X129098885Y-81010000D02*
X129241742Y-81010000D01*
X129241742Y-81010000D02*
X129336980Y-81057619D01*
X129336980Y-81057619D02*
X129384600Y-81105238D01*
X129384600Y-81105238D02*
X129432219Y-81200476D01*
X129432219Y-81200476D02*
X129432219Y-81581428D01*
X129432219Y-81581428D02*
X128432219Y-81581428D01*
X128432219Y-81581428D02*
X128432219Y-81248095D01*
X128432219Y-81248095D02*
X128479838Y-81152857D01*
X128479838Y-81152857D02*
X128527457Y-81105238D01*
X128527457Y-81105238D02*
X128622695Y-81057619D01*
X128622695Y-81057619D02*
X128717933Y-81057619D01*
X128717933Y-81057619D02*
X128813171Y-81105238D01*
X128813171Y-81105238D02*
X128860790Y-81152857D01*
X128860790Y-81152857D02*
X128908409Y-81248095D01*
X128908409Y-81248095D02*
X128908409Y-81581428D01*
X129146504Y-80629047D02*
X129146504Y-80152857D01*
X129432219Y-80724285D02*
X128432219Y-80390952D01*
X128432219Y-80390952D02*
X129432219Y-80057619D01*
X128432219Y-79867142D02*
X128432219Y-79295714D01*
X129432219Y-79581428D02*
X128432219Y-79581428D01*
X121882380Y-85752219D02*
X121549047Y-85276028D01*
X121310952Y-85752219D02*
X121310952Y-84752219D01*
X121310952Y-84752219D02*
X121691904Y-84752219D01*
X121691904Y-84752219D02*
X121787142Y-84799838D01*
X121787142Y-84799838D02*
X121834761Y-84847457D01*
X121834761Y-84847457D02*
X121882380Y-84942695D01*
X121882380Y-84942695D02*
X121882380Y-85085552D01*
X121882380Y-85085552D02*
X121834761Y-85180790D01*
X121834761Y-85180790D02*
X121787142Y-85228409D01*
X121787142Y-85228409D02*
X121691904Y-85276028D01*
X121691904Y-85276028D02*
X121310952Y-85276028D01*
X122263333Y-85704600D02*
X122406190Y-85752219D01*
X122406190Y-85752219D02*
X122644285Y-85752219D01*
X122644285Y-85752219D02*
X122739523Y-85704600D01*
X122739523Y-85704600D02*
X122787142Y-85656980D01*
X122787142Y-85656980D02*
X122834761Y-85561742D01*
X122834761Y-85561742D02*
X122834761Y-85466504D01*
X122834761Y-85466504D02*
X122787142Y-85371266D01*
X122787142Y-85371266D02*
X122739523Y-85323647D01*
X122739523Y-85323647D02*
X122644285Y-85276028D01*
X122644285Y-85276028D02*
X122453809Y-85228409D01*
X122453809Y-85228409D02*
X122358571Y-85180790D01*
X122358571Y-85180790D02*
X122310952Y-85133171D01*
X122310952Y-85133171D02*
X122263333Y-85037933D01*
X122263333Y-85037933D02*
X122263333Y-84942695D01*
X122263333Y-84942695D02*
X122310952Y-84847457D01*
X122310952Y-84847457D02*
X122358571Y-84799838D01*
X122358571Y-84799838D02*
X122453809Y-84752219D01*
X122453809Y-84752219D02*
X122691904Y-84752219D01*
X122691904Y-84752219D02*
X122834761Y-84799838D01*
X123120476Y-84752219D02*
X123691904Y-84752219D01*
X123406190Y-85752219D02*
X123406190Y-84752219D01*
D10*
X118147663Y-87954999D02*
X118385758Y-87954999D01*
X118290520Y-88193094D02*
X118385758Y-87954999D01*
X118385758Y-87954999D02*
X118290520Y-87716904D01*
X118576234Y-88097856D02*
X118385758Y-87954999D01*
X118385758Y-87954999D02*
X118576234Y-87812142D01*
D11*
X129392219Y-109382857D02*
X129392219Y-109859047D01*
X129392219Y-109859047D02*
X128392219Y-109859047D01*
X128392219Y-108859047D02*
X128392219Y-108668571D01*
X128392219Y-108668571D02*
X128439838Y-108573333D01*
X128439838Y-108573333D02*
X128535076Y-108478095D01*
X128535076Y-108478095D02*
X128725552Y-108430476D01*
X128725552Y-108430476D02*
X129058885Y-108430476D01*
X129058885Y-108430476D02*
X129249361Y-108478095D01*
X129249361Y-108478095D02*
X129344600Y-108573333D01*
X129344600Y-108573333D02*
X129392219Y-108668571D01*
X129392219Y-108668571D02*
X129392219Y-108859047D01*
X129392219Y-108859047D02*
X129344600Y-108954285D01*
X129344600Y-108954285D02*
X129249361Y-109049523D01*
X129249361Y-109049523D02*
X129058885Y-109097142D01*
X129058885Y-109097142D02*
X128725552Y-109097142D01*
X128725552Y-109097142D02*
X128535076Y-109049523D01*
X128535076Y-109049523D02*
X128439838Y-108954285D01*
X128439838Y-108954285D02*
X128392219Y-108859047D01*
X129106504Y-108049523D02*
X129106504Y-107573333D01*
X129392219Y-108144761D02*
X128392219Y-107811428D01*
X128392219Y-107811428D02*
X129392219Y-107478095D01*
X129392219Y-107144761D02*
X128392219Y-107144761D01*
X128392219Y-107144761D02*
X128392219Y-106906666D01*
X128392219Y-106906666D02*
X128439838Y-106763809D01*
X128439838Y-106763809D02*
X128535076Y-106668571D01*
X128535076Y-106668571D02*
X128630314Y-106620952D01*
X128630314Y-106620952D02*
X128820790Y-106573333D01*
X128820790Y-106573333D02*
X128963647Y-106573333D01*
X128963647Y-106573333D02*
X129154123Y-106620952D01*
X129154123Y-106620952D02*
X129249361Y-106668571D01*
X129249361Y-106668571D02*
X129344600Y-106763809D01*
X129344600Y-106763809D02*
X129392219Y-106906666D01*
X129392219Y-106906666D02*
X129392219Y-107144761D01*
D13*
%TO.C,C11*%
X161140581Y-87765000D02*
X160859419Y-87765000D01*
X161140581Y-88785000D02*
X160859419Y-88785000D01*
%TO.C,R23*%
X150602500Y-87037742D02*
X150602500Y-87512258D01*
X151647500Y-87037742D02*
X151647500Y-87512258D01*
%TO.C,C16*%
X172815581Y-100440000D02*
X172534419Y-100440000D01*
X172815581Y-101460000D02*
X172534419Y-101460000D01*
%TO.C,R4*%
X133777500Y-88687258D02*
X133777500Y-88212742D01*
X134822500Y-88687258D02*
X134822500Y-88212742D01*
D14*
%TO.C,U4*%
X131087500Y-90600000D02*
X131087500Y-93600000D01*
X134087500Y-93600000D02*
X134087500Y-90600000D01*
D12*
X134362500Y-90200000D02*
G75*
G02*
X134112500Y-90200000I-125000J0D01*
G01*
X134112500Y-90200000D02*
G75*
G02*
X134362500Y-90200000I125000J0D01*
G01*
D10*
%TO.C,REF\u002A\u002A*%
X149170000Y-105530000D02*
X150170000Y-104930000D01*
X149170000Y-105530000D02*
X150170000Y-106130000D01*
X153020000Y-101730000D02*
X152420000Y-102730000D01*
X153020000Y-101730000D02*
X153620000Y-102730000D01*
X153020000Y-105530000D02*
X149170000Y-105530000D01*
X153020000Y-105530000D02*
X153020000Y-101730000D01*
X153833941Y-105530000D02*
G75*
G02*
X152206059Y-105530000I-813941J0D01*
G01*
X152206059Y-105530000D02*
G75*
G02*
X153833941Y-105530000I813941J0D01*
G01*
D15*
X153195000Y-105530000D02*
G75*
G02*
X152845000Y-105530000I-175000J0D01*
G01*
X152845000Y-105530000D02*
G75*
G02*
X153195000Y-105530000I175000J0D01*
G01*
D13*
%TO.C,C8*%
X130040000Y-100534419D02*
X130040000Y-100815581D01*
X131060000Y-100534419D02*
X131060000Y-100815581D01*
%TO.C,R12*%
X142087500Y-87037258D02*
X142087500Y-86562742D01*
X143132500Y-87037258D02*
X143132500Y-86562742D01*
%TO.C,C17*%
X152279419Y-97000000D02*
X152560581Y-97000000D01*
X152279419Y-98020000D02*
X152560581Y-98020000D01*
%TO.C,C10*%
X132215581Y-88715000D02*
X131934419Y-88715000D01*
X132215581Y-89735000D02*
X131934419Y-89735000D01*
D16*
%TO.C,U6*%
X150973600Y-92823600D02*
X150973600Y-93065659D01*
X150973600Y-95934341D02*
X150973600Y-96176400D01*
X150973600Y-96176400D02*
X151215659Y-96176400D01*
X151215659Y-92823600D02*
X150973600Y-92823600D01*
X154084341Y-96176400D02*
X154326400Y-96176400D01*
X154326400Y-92823600D02*
X154084341Y-92823600D01*
X154326400Y-93065659D02*
X154326400Y-92823600D01*
X154326400Y-96176400D02*
X154326400Y-95934341D01*
D17*
G36*
X150541800Y-94890500D02*
G01*
X150287800Y-94890500D01*
X150287800Y-94509500D01*
X150541800Y-94509500D01*
X150541800Y-94890500D01*
G37*
G36*
X155012200Y-95290499D02*
G01*
X154758200Y-95290499D01*
X154758200Y-94909499D01*
X155012200Y-94909499D01*
X155012200Y-95290499D01*
G37*
D13*
%TO.C,R16*%
X155188895Y-93812258D02*
X155188895Y-93337742D01*
X156233895Y-93812258D02*
X156233895Y-93337742D01*
%TO.C,R31*%
X153587258Y-87377500D02*
X153112742Y-87377500D01*
X153587258Y-88422500D02*
X153112742Y-88422500D01*
D11*
%TO.C,BOOT*%
X115725000Y-105769999D02*
X115725000Y-105769999D01*
X115925000Y-105770000D02*
X115925000Y-105770000D01*
D14*
X119425000Y-105000000D02*
X125425000Y-105000000D01*
X119425000Y-111000000D02*
X125425000Y-111000000D01*
D11*
X115725000Y-105769999D02*
G75*
G02*
X115925000Y-105770000I100000J-1D01*
G01*
X115925000Y-105770000D02*
G75*
G02*
X115725000Y-105769999I-100000J0D01*
G01*
D13*
%TO.C,C31*%
X169890000Y-107030580D02*
X169890000Y-106749420D01*
X170910000Y-107030580D02*
X170910000Y-106749420D01*
%TO.C,R18*%
X168853641Y-91470000D02*
X168546359Y-91470000D01*
X168853641Y-92230000D02*
X168546359Y-92230000D01*
%TO.C,C24*%
X181409419Y-92210000D02*
X181690581Y-92210000D01*
X181409419Y-93230000D02*
X181690581Y-93230000D01*
%TO.C,R7*%
X128987258Y-95302500D02*
X128512742Y-95302500D01*
X128987258Y-96347500D02*
X128512742Y-96347500D01*
%TO.C,C28*%
X170650000Y-84409420D02*
X170650000Y-84690580D01*
X171670000Y-84409420D02*
X171670000Y-84690580D01*
%TO.C,R28*%
X139152500Y-89762742D02*
X139152500Y-90237258D01*
X140197500Y-89762742D02*
X140197500Y-90237258D01*
D10*
%TO.C,REF\u002A\u002A*%
X150260000Y-84510000D02*
X151360000Y-83410000D01*
X150810000Y-80160000D02*
X150210000Y-81160000D01*
X150810000Y-80160000D02*
X151410000Y-81160000D01*
X150810000Y-83960000D02*
X150810000Y-80160000D01*
X150810000Y-83960000D02*
X154660000Y-83960000D01*
X151360000Y-84510000D02*
X150260000Y-83410000D01*
X154660000Y-83960000D02*
X153660000Y-83360000D01*
X154660000Y-83960000D02*
X153660000Y-84560000D01*
X151623941Y-83960000D02*
G75*
G02*
X149996059Y-83960000I-813941J0D01*
G01*
X149996059Y-83960000D02*
G75*
G02*
X151623941Y-83960000I813941J0D01*
G01*
D13*
%TO.C,R21*%
X169263641Y-94710000D02*
X168956359Y-94710000D01*
X169263641Y-95470000D02*
X168956359Y-95470000D01*
%TO.C,C12*%
X149090000Y-96384419D02*
X149090000Y-96665581D01*
X150110000Y-96384419D02*
X150110000Y-96665581D01*
%TO.C,R8*%
X124527498Y-96262259D02*
X124527498Y-95787743D01*
X125572498Y-96262259D02*
X125572498Y-95787743D01*
%TO.C,U7*%
X171390000Y-91490000D02*
X171390000Y-92140000D01*
X171390000Y-98710000D02*
X171390000Y-98060000D01*
X172040000Y-91490000D02*
X171390000Y-91490000D01*
X172040000Y-98710000D02*
X171390000Y-98710000D01*
X177960000Y-91490000D02*
X178610000Y-91490000D01*
X177960000Y-98710000D02*
X178310000Y-98710000D01*
X178610000Y-91490000D02*
X178610000Y-92140000D01*
X178610000Y-98060000D02*
X178610000Y-98470000D01*
X178850000Y-99040000D02*
X178370000Y-99040000D01*
X178610000Y-98710000D01*
X178850000Y-99040000D01*
G36*
X178850000Y-99040000D02*
G01*
X178370000Y-99040000D01*
X178610000Y-98710000D01*
X178850000Y-99040000D01*
G37*
%TO.C,R33*%
X153587258Y-85902500D02*
X153112742Y-85902500D01*
X153587258Y-86947500D02*
X153112742Y-86947500D01*
%TO.C,J4*%
X157670000Y-111530000D02*
X157670000Y-110200000D01*
X159000000Y-111530000D02*
X157670000Y-111530000D01*
X160270000Y-108870000D02*
X180650000Y-108870000D01*
X160270000Y-111530000D02*
X160270000Y-108870000D01*
X160270000Y-111530000D02*
X180650000Y-111530000D01*
X180650000Y-111530000D02*
X180650000Y-108870000D01*
%TO.C,C29*%
X169175000Y-84409420D02*
X169175000Y-84690580D01*
X170195000Y-84409420D02*
X170195000Y-84690580D01*
D18*
%TO.C,U5*%
X158224999Y-89400001D02*
X159125000Y-89400001D01*
X158224999Y-91249999D02*
X158424999Y-91249999D01*
X159825001Y-89400001D02*
X160025001Y-89400001D01*
X159825001Y-91249999D02*
X160025001Y-91249999D01*
D13*
%TO.C,C32*%
X180559420Y-86090000D02*
X180840580Y-86090000D01*
X180559420Y-87110000D02*
X180840580Y-87110000D01*
%TO.C,J2*%
X138495000Y-101267501D02*
X139825000Y-101267501D01*
X138495000Y-102597501D02*
X138495000Y-101267501D01*
X138495000Y-103867502D02*
X138495000Y-111547501D01*
X138495000Y-103867502D02*
X141155000Y-103867502D01*
X138495000Y-111547501D02*
X141155000Y-111547501D01*
X141155000Y-103867502D02*
X141155000Y-111547501D01*
%TO.C,R19*%
X168853641Y-92670000D02*
X168546359Y-92670000D01*
X168853641Y-93430000D02*
X168546359Y-93430000D01*
%TO.C,C25*%
X181409420Y-90750000D02*
X181690580Y-90750000D01*
X181409420Y-91770000D02*
X181690580Y-91770000D01*
%TO.C,C27*%
X178390000Y-104409419D02*
X178390000Y-104690581D01*
X179410000Y-104409419D02*
X179410000Y-104690581D01*
%TO.C,C9*%
X159259420Y-91665000D02*
X159540580Y-91665000D01*
X159259420Y-92685000D02*
X159540580Y-92685000D01*
%TO.C,C7*%
X179759420Y-84240000D02*
X180040580Y-84240000D01*
X179759420Y-85260000D02*
X180040580Y-85260000D01*
%TO.C,C14*%
X161140581Y-86300000D02*
X160859419Y-86300000D01*
X161140581Y-87320000D02*
X160859419Y-87320000D01*
%TO.C,C23*%
X181359419Y-95530000D02*
X181640581Y-95530000D01*
X181359419Y-96550000D02*
X181640581Y-96550000D01*
D14*
%TO.C,BAT*%
X137325000Y-84100000D02*
X129825000Y-84100000D01*
X129824999Y-77100000D01*
X137325000Y-77100000D01*
X137325000Y-84100000D01*
D13*
%TO.C,C4*%
X134610000Y-93010581D02*
X134610000Y-92729419D01*
X135630000Y-93010581D02*
X135630000Y-92729419D01*
%TO.C,R20*%
X168853641Y-93620000D02*
X168546359Y-93620000D01*
X168853641Y-94380000D02*
X168546359Y-94380000D01*
D14*
%TO.C,RST*%
X125425000Y-78000000D02*
X119425000Y-78000000D01*
X125425000Y-84000000D02*
X119425000Y-84000000D01*
D11*
X128925000Y-83230000D02*
X128925000Y-83230000D01*
X129125000Y-83230001D02*
X129125000Y-83230001D01*
X128925000Y-83230000D02*
G75*
G02*
X129125000Y-83230001I100000J0D01*
G01*
X129125000Y-83230001D02*
G75*
G02*
X128925000Y-83230000I-100000J1D01*
G01*
D13*
%TO.C,R29*%
X140627498Y-89762742D02*
X140627498Y-90237258D01*
X141672498Y-89762742D02*
X141672498Y-90237258D01*
%TO.C,R2*%
X114227500Y-86347258D02*
X114227500Y-85872742D01*
X115272500Y-86347258D02*
X115272500Y-85872742D01*
%TO.C,C21*%
X179440000Y-98067164D02*
X179440000Y-98282836D01*
X180160000Y-98067164D02*
X180160000Y-98282836D01*
D14*
%TO.C,Y2*%
X172900000Y-84450000D02*
X172900000Y-85250000D01*
X173100000Y-86450000D02*
X173100000Y-86450000D01*
X173100000Y-86550000D02*
X173100000Y-86550000D01*
X176100000Y-84450000D02*
X176100000Y-85250000D01*
X173100000Y-86450000D02*
G75*
G02*
X173100000Y-86550000I0J-50000D01*
G01*
X173100000Y-86550000D02*
G75*
G02*
X173100000Y-86450000I0J50000D01*
G01*
D13*
%TO.C,R24*%
X142102500Y-89762742D02*
X142102500Y-90237258D01*
X143147500Y-89762742D02*
X143147500Y-90237258D01*
%TO.C,C15*%
X174590000Y-88459420D02*
X174590000Y-88740580D01*
X175610000Y-88459420D02*
X175610000Y-88740580D01*
D16*
%TO.C,U3*%
X128555597Y-99056100D02*
X129794403Y-99056100D01*
X129794403Y-96693900D02*
X128555597Y-96693900D01*
X131187950Y-98675101D02*
G75*
G02*
X130984750Y-98675101I-101600J0D01*
G01*
X130984750Y-98675101D02*
G75*
G02*
X131187950Y-98675101I101600J0D01*
G01*
D14*
%TO.C,Y1*%
X174295000Y-105492500D02*
X174295000Y-105837500D01*
X174298750Y-103305000D02*
X174298750Y-103650000D01*
X174707500Y-105845000D02*
X174295000Y-105845000D01*
X174711250Y-103305000D02*
X174298750Y-103305000D01*
X176650000Y-102975000D02*
X176650000Y-102975000D01*
X176650000Y-103075000D02*
X176650000Y-103075000D01*
X176937500Y-105845000D02*
X177350000Y-105845000D01*
X176938750Y-103305000D02*
X177351250Y-103305000D01*
X177350000Y-105845000D02*
X177350000Y-105500000D01*
X177351250Y-103655000D02*
X177351250Y-103310000D01*
X176650000Y-102975000D02*
G75*
G02*
X176650000Y-103075000I0J-50000D01*
G01*
X176650000Y-103075000D02*
G75*
G02*
X176650000Y-102975000I0J50000D01*
G01*
D13*
%TO.C,C30*%
X172240000Y-104690581D02*
X172240000Y-104409419D01*
X173260000Y-104690581D02*
X173260000Y-104409419D01*
%TO.C,C20*%
X179215000Y-100559419D02*
X179215000Y-100840581D01*
X180235000Y-100559419D02*
X180235000Y-100840581D01*
%TO.C,C6*%
X131500000Y-97515581D02*
X131500000Y-97234419D01*
X132520000Y-97515581D02*
X132520000Y-97234419D01*
%TO.C,C13*%
X149090000Y-92834419D02*
X149090000Y-93115581D01*
X150110000Y-92834419D02*
X150110000Y-93115581D01*
%TO.C,U1*%
X143775000Y-105410000D02*
X142725000Y-105410000D01*
X143775000Y-107390000D02*
X142475000Y-107390000D01*
X142355000Y-105410000D02*
X142075000Y-105410000D01*
X142355000Y-105130000D01*
X142355000Y-105410000D01*
G36*
X142355000Y-105410000D02*
G01*
X142075000Y-105410000D01*
X142355000Y-105130000D01*
X142355000Y-105410000D01*
G37*
%TO.C,R26*%
X146527499Y-89762742D02*
X146527499Y-90237258D01*
X147572499Y-89762742D02*
X147572499Y-90237258D01*
D16*
%TO.C,J1*%
X114343840Y-100430900D02*
X115601760Y-100430900D01*
X115601760Y-88569100D02*
X114343840Y-88569100D01*
X118264800Y-90715671D02*
X118264800Y-88600000D01*
X118264800Y-100400000D02*
X118264800Y-98284326D01*
D14*
%TO.C,U8*%
X152650000Y-90375000D02*
X152650000Y-89925000D01*
D11*
X152850000Y-91050000D02*
X152850000Y-91050000D01*
X152850000Y-91150000D02*
X152850000Y-91150000D01*
X152850000Y-91150000D02*
X152850000Y-91150000D01*
D14*
X154100000Y-89900000D02*
X154100000Y-90375000D01*
D11*
X152850000Y-91050000D02*
G75*
G02*
X152850000Y-91150000I-1J-50000D01*
G01*
X152850000Y-91050000D02*
G75*
G02*
X152850000Y-91150000I-1J-50000D01*
G01*
X152850000Y-91150000D02*
G75*
G02*
X152850000Y-91050000I-1J50000D01*
G01*
D13*
%TO.C,R27*%
X148002500Y-89762742D02*
X148002500Y-90237258D01*
X149047500Y-89762742D02*
X149047500Y-90237258D01*
%TO.C,C35*%
X143590000Y-88540581D02*
X143590000Y-88259419D01*
X144610000Y-88540581D02*
X144610000Y-88259419D01*
%TO.C,R10*%
X139812742Y-78977500D02*
X140287258Y-78977500D01*
X139812742Y-80022500D02*
X140287258Y-80022500D01*
%TO.C,U2*%
X122150000Y-93010000D02*
X121100000Y-93010000D01*
X122150000Y-94990000D02*
X120850000Y-94990000D01*
X120730000Y-93010000D02*
X120450000Y-93010000D01*
X120730000Y-92730000D01*
X120730000Y-93010000D01*
G36*
X120730000Y-93010000D02*
G01*
X120450000Y-93010000D01*
X120730000Y-92730000D01*
X120730000Y-93010000D01*
G37*
%TO.C,C3*%
X127239999Y-100534418D02*
X127239999Y-100815580D01*
X128259999Y-100534418D02*
X128259999Y-100815580D01*
%TO.C,C19*%
X177740000Y-100559419D02*
X177740000Y-100840581D01*
X178760000Y-100559419D02*
X178760000Y-100840581D01*
%TO.C,C26*%
X181409420Y-89290000D02*
X181690580Y-89290000D01*
X181409420Y-90310000D02*
X181690580Y-90310000D01*
%TO.C,C5*%
X156665000Y-89084419D02*
X156665000Y-89365581D01*
X157685000Y-89084419D02*
X157685000Y-89365581D01*
%TO.C,R25*%
X145052500Y-89762742D02*
X145052500Y-90237258D01*
X146097500Y-89762742D02*
X146097500Y-90237258D01*
%TO.C,R17*%
X168853641Y-90520000D02*
X168546359Y-90520000D01*
X168853641Y-91280000D02*
X168546359Y-91280000D01*
%TO.C,R9*%
X126002499Y-96262257D02*
X126002499Y-95787741D01*
X127047499Y-96262257D02*
X127047499Y-95787741D01*
%TO.C,R34*%
X180237258Y-107127500D02*
X179762742Y-107127500D01*
X180237258Y-108172500D02*
X179762742Y-108172500D01*
D14*
%TO.C,LOAD*%
X137275000Y-111900000D02*
X129775000Y-111900000D01*
X129774999Y-104900000D01*
X137275000Y-104900000D01*
X137275000Y-111900000D01*
D13*
%TO.C,R15*%
X156652500Y-93812258D02*
X156652500Y-93337742D01*
X157697500Y-93812258D02*
X157697500Y-93337742D01*
%TO.C,R11*%
X142812742Y-78977500D02*
X143287258Y-78977500D01*
X142812742Y-80022500D02*
X143287258Y-80022500D01*
%TO.C,C34*%
X145519419Y-92670000D02*
X145800581Y-92670000D01*
X145519419Y-93690000D02*
X145800581Y-93690000D01*
%TO.C,U10*%
X161040000Y-95340000D02*
X161040000Y-89350000D01*
X166260000Y-95350000D02*
X166260000Y-89350000D01*
X161340000Y-96060000D02*
X160860000Y-95580000D01*
X161340000Y-95580000D01*
X161340000Y-96060000D01*
G36*
X161340000Y-96060000D02*
G01*
X160860000Y-95580000D01*
X161340000Y-95580000D01*
X161340000Y-96060000D01*
G37*
%TO.C,C22*%
X182240000Y-98067164D02*
X182240000Y-98282836D01*
X182960000Y-98067164D02*
X182960000Y-98282836D01*
%TO.C,C33*%
X150615000Y-90109420D02*
X150615000Y-90390580D01*
X151635000Y-90109420D02*
X151635000Y-90390580D01*
%TO.C,C18*%
X176090000Y-88740581D02*
X176090000Y-88459419D01*
X177110000Y-88740581D02*
X177110000Y-88459419D01*
%TO.C,C2*%
X124990000Y-100534419D02*
X124990000Y-100815581D01*
X126010000Y-100534419D02*
X126010000Y-100815581D01*
%TO.C,R3*%
X135252501Y-88687258D02*
X135252501Y-88212742D01*
X136297501Y-88687258D02*
X136297501Y-88212742D01*
%TO.C,J6*%
X170370000Y-80130000D02*
X170370000Y-78800000D01*
X171700000Y-80130000D02*
X170370000Y-80130000D01*
X172970000Y-77470000D02*
X180650000Y-77470000D01*
X172970000Y-80130000D02*
X172970000Y-77470000D01*
X172970000Y-80130000D02*
X180650000Y-80130000D01*
X180650000Y-80130000D02*
X180650000Y-77470000D01*
%TO.C,R35*%
X180937258Y-87552500D02*
X180462742Y-87552500D01*
X180937258Y-88597500D02*
X180462742Y-88597500D01*
%TO.C,C1*%
X121540581Y-99390000D02*
X121259419Y-99390000D01*
X121540581Y-100410000D02*
X121259419Y-100410000D01*
%TO.C,R1*%
X114227500Y-102682742D02*
X114227500Y-103157258D01*
X115272500Y-102682742D02*
X115272500Y-103157258D01*
%TO.C,R22*%
X169998303Y-102312770D02*
X169662770Y-102648303D01*
X170737230Y-103051697D02*
X170401697Y-103387230D01*
%TD*%
M02*
