%TF.GenerationSoftware,KiCad,Pcbnew,8.0.2*%
%TF.CreationDate,2024-06-21T01:26:22+01:00*%
%TF.ProjectId,ESP32S3_PCB_V1,45535033-3253-4335-9f50-43425f56312e,1*%
%TF.SameCoordinates,Original*%
%TF.FileFunction,Drillmap*%
%TF.FilePolarity,Positive*%
%FSLAX45Y45*%
G04 Gerber Fmt 4.5, Leading zero omitted, Abs format (unit mm)*
G04 Created by KiCad (PCBNEW 8.0.2) date 2024-06-21 01:26:22*
%MOMM*%
%LPD*%
G01*
G04 APERTURE LIST*
%ADD10C,0.050000*%
%ADD11C,0.200000*%
%ADD12C,0.100000*%
G04 APERTURE END LIST*
D10*
X11150000Y-7700000D02*
X19150000Y-7700000D01*
X19150000Y-11200000D01*
X11150000Y-11200000D01*
X11150000Y-7700000D01*
D11*
D12*
X11610760Y-9127980D02*
X11676800Y-9194020D01*
X11676800Y-9127980D02*
X11610760Y-9194020D01*
X11610760Y-9705980D02*
X11676800Y-9772020D01*
X11676800Y-9705980D02*
X11610760Y-9772020D01*
D11*
X11408277Y-11513984D02*
X11408277Y-11313984D01*
X11408277Y-11313984D02*
X11455896Y-11313984D01*
X11455896Y-11313984D02*
X11484467Y-11323508D01*
X11484467Y-11323508D02*
X11503515Y-11342555D01*
X11503515Y-11342555D02*
X11513039Y-11361603D01*
X11513039Y-11361603D02*
X11522562Y-11399698D01*
X11522562Y-11399698D02*
X11522562Y-11428269D01*
X11522562Y-11428269D02*
X11513039Y-11466365D01*
X11513039Y-11466365D02*
X11503515Y-11485412D01*
X11503515Y-11485412D02*
X11484467Y-11504460D01*
X11484467Y-11504460D02*
X11455896Y-11513984D01*
X11455896Y-11513984D02*
X11408277Y-11513984D01*
X11608277Y-11513984D02*
X11608277Y-11380650D01*
X11608277Y-11418746D02*
X11617801Y-11399698D01*
X11617801Y-11399698D02*
X11627324Y-11390174D01*
X11627324Y-11390174D02*
X11646372Y-11380650D01*
X11646372Y-11380650D02*
X11665420Y-11380650D01*
X11732086Y-11513984D02*
X11732086Y-11380650D01*
X11732086Y-11313984D02*
X11722562Y-11323508D01*
X11722562Y-11323508D02*
X11732086Y-11333031D01*
X11732086Y-11333031D02*
X11741610Y-11323508D01*
X11741610Y-11323508D02*
X11732086Y-11313984D01*
X11732086Y-11313984D02*
X11732086Y-11333031D01*
X11855896Y-11513984D02*
X11836848Y-11504460D01*
X11836848Y-11504460D02*
X11827324Y-11485412D01*
X11827324Y-11485412D02*
X11827324Y-11313984D01*
X11960658Y-11513984D02*
X11941610Y-11504460D01*
X11941610Y-11504460D02*
X11932086Y-11485412D01*
X11932086Y-11485412D02*
X11932086Y-11313984D01*
X12189229Y-11513984D02*
X12189229Y-11313984D01*
X12189229Y-11313984D02*
X12255896Y-11456841D01*
X12255896Y-11456841D02*
X12322562Y-11313984D01*
X12322562Y-11313984D02*
X12322562Y-11513984D01*
X12503515Y-11513984D02*
X12503515Y-11409222D01*
X12503515Y-11409222D02*
X12493991Y-11390174D01*
X12493991Y-11390174D02*
X12474943Y-11380650D01*
X12474943Y-11380650D02*
X12436848Y-11380650D01*
X12436848Y-11380650D02*
X12417801Y-11390174D01*
X12503515Y-11504460D02*
X12484467Y-11513984D01*
X12484467Y-11513984D02*
X12436848Y-11513984D01*
X12436848Y-11513984D02*
X12417801Y-11504460D01*
X12417801Y-11504460D02*
X12408277Y-11485412D01*
X12408277Y-11485412D02*
X12408277Y-11466365D01*
X12408277Y-11466365D02*
X12417801Y-11447317D01*
X12417801Y-11447317D02*
X12436848Y-11437793D01*
X12436848Y-11437793D02*
X12484467Y-11437793D01*
X12484467Y-11437793D02*
X12503515Y-11428269D01*
X12598753Y-11380650D02*
X12598753Y-11580650D01*
X12598753Y-11390174D02*
X12617801Y-11380650D01*
X12617801Y-11380650D02*
X12655896Y-11380650D01*
X12655896Y-11380650D02*
X12674943Y-11390174D01*
X12674943Y-11390174D02*
X12684467Y-11399698D01*
X12684467Y-11399698D02*
X12693991Y-11418746D01*
X12693991Y-11418746D02*
X12693991Y-11475888D01*
X12693991Y-11475888D02*
X12684467Y-11494936D01*
X12684467Y-11494936D02*
X12674943Y-11504460D01*
X12674943Y-11504460D02*
X12655896Y-11513984D01*
X12655896Y-11513984D02*
X12617801Y-11513984D01*
X12617801Y-11513984D02*
X12598753Y-11504460D01*
X12779705Y-11494936D02*
X12789229Y-11504460D01*
X12789229Y-11504460D02*
X12779705Y-11513984D01*
X12779705Y-11513984D02*
X12770182Y-11504460D01*
X12770182Y-11504460D02*
X12779705Y-11494936D01*
X12779705Y-11494936D02*
X12779705Y-11513984D01*
X12779705Y-11390174D02*
X12789229Y-11399698D01*
X12789229Y-11399698D02*
X12779705Y-11409222D01*
X12779705Y-11409222D02*
X12770182Y-11399698D01*
X12770182Y-11399698D02*
X12779705Y-11390174D01*
X12779705Y-11390174D02*
X12779705Y-11409222D01*
D12*
X11081460Y-11809480D02*
X11147500Y-11875520D01*
X11147500Y-11809480D02*
X11081460Y-11875520D01*
D11*
X11446372Y-11733984D02*
X11465420Y-11733984D01*
X11465420Y-11733984D02*
X11484467Y-11743508D01*
X11484467Y-11743508D02*
X11493991Y-11753031D01*
X11493991Y-11753031D02*
X11503515Y-11772079D01*
X11503515Y-11772079D02*
X11513039Y-11810174D01*
X11513039Y-11810174D02*
X11513039Y-11857793D01*
X11513039Y-11857793D02*
X11503515Y-11895888D01*
X11503515Y-11895888D02*
X11493991Y-11914936D01*
X11493991Y-11914936D02*
X11484467Y-11924460D01*
X11484467Y-11924460D02*
X11465420Y-11933984D01*
X11465420Y-11933984D02*
X11446372Y-11933984D01*
X11446372Y-11933984D02*
X11427324Y-11924460D01*
X11427324Y-11924460D02*
X11417801Y-11914936D01*
X11417801Y-11914936D02*
X11408277Y-11895888D01*
X11408277Y-11895888D02*
X11398753Y-11857793D01*
X11398753Y-11857793D02*
X11398753Y-11810174D01*
X11398753Y-11810174D02*
X11408277Y-11772079D01*
X11408277Y-11772079D02*
X11417801Y-11753031D01*
X11417801Y-11753031D02*
X11427324Y-11743508D01*
X11427324Y-11743508D02*
X11446372Y-11733984D01*
X11598753Y-11914936D02*
X11608277Y-11924460D01*
X11608277Y-11924460D02*
X11598753Y-11933984D01*
X11598753Y-11933984D02*
X11589229Y-11924460D01*
X11589229Y-11924460D02*
X11598753Y-11914936D01*
X11598753Y-11914936D02*
X11598753Y-11933984D01*
X11779705Y-11733984D02*
X11741610Y-11733984D01*
X11741610Y-11733984D02*
X11722562Y-11743508D01*
X11722562Y-11743508D02*
X11713039Y-11753031D01*
X11713039Y-11753031D02*
X11693991Y-11781603D01*
X11693991Y-11781603D02*
X11684467Y-11819698D01*
X11684467Y-11819698D02*
X11684467Y-11895888D01*
X11684467Y-11895888D02*
X11693991Y-11914936D01*
X11693991Y-11914936D02*
X11703515Y-11924460D01*
X11703515Y-11924460D02*
X11722562Y-11933984D01*
X11722562Y-11933984D02*
X11760658Y-11933984D01*
X11760658Y-11933984D02*
X11779705Y-11924460D01*
X11779705Y-11924460D02*
X11789229Y-11914936D01*
X11789229Y-11914936D02*
X11798753Y-11895888D01*
X11798753Y-11895888D02*
X11798753Y-11848269D01*
X11798753Y-11848269D02*
X11789229Y-11829222D01*
X11789229Y-11829222D02*
X11779705Y-11819698D01*
X11779705Y-11819698D02*
X11760658Y-11810174D01*
X11760658Y-11810174D02*
X11722562Y-11810174D01*
X11722562Y-11810174D02*
X11703515Y-11819698D01*
X11703515Y-11819698D02*
X11693991Y-11829222D01*
X11693991Y-11829222D02*
X11684467Y-11848269D01*
X11970182Y-11733984D02*
X11932086Y-11733984D01*
X11932086Y-11733984D02*
X11913039Y-11743508D01*
X11913039Y-11743508D02*
X11903515Y-11753031D01*
X11903515Y-11753031D02*
X11884467Y-11781603D01*
X11884467Y-11781603D02*
X11874943Y-11819698D01*
X11874943Y-11819698D02*
X11874943Y-11895888D01*
X11874943Y-11895888D02*
X11884467Y-11914936D01*
X11884467Y-11914936D02*
X11893991Y-11924460D01*
X11893991Y-11924460D02*
X11913039Y-11933984D01*
X11913039Y-11933984D02*
X11951134Y-11933984D01*
X11951134Y-11933984D02*
X11970182Y-11924460D01*
X11970182Y-11924460D02*
X11979705Y-11914936D01*
X11979705Y-11914936D02*
X11989229Y-11895888D01*
X11989229Y-11895888D02*
X11989229Y-11848269D01*
X11989229Y-11848269D02*
X11979705Y-11829222D01*
X11979705Y-11829222D02*
X11970182Y-11819698D01*
X11970182Y-11819698D02*
X11951134Y-11810174D01*
X11951134Y-11810174D02*
X11913039Y-11810174D01*
X11913039Y-11810174D02*
X11893991Y-11819698D01*
X11893991Y-11819698D02*
X11884467Y-11829222D01*
X11884467Y-11829222D02*
X11874943Y-11848269D01*
X12113039Y-11733984D02*
X12132086Y-11733984D01*
X12132086Y-11733984D02*
X12151134Y-11743508D01*
X12151134Y-11743508D02*
X12160658Y-11753031D01*
X12160658Y-11753031D02*
X12170182Y-11772079D01*
X12170182Y-11772079D02*
X12179705Y-11810174D01*
X12179705Y-11810174D02*
X12179705Y-11857793D01*
X12179705Y-11857793D02*
X12170182Y-11895888D01*
X12170182Y-11895888D02*
X12160658Y-11914936D01*
X12160658Y-11914936D02*
X12151134Y-11924460D01*
X12151134Y-11924460D02*
X12132086Y-11933984D01*
X12132086Y-11933984D02*
X12113039Y-11933984D01*
X12113039Y-11933984D02*
X12093991Y-11924460D01*
X12093991Y-11924460D02*
X12084467Y-11914936D01*
X12084467Y-11914936D02*
X12074943Y-11895888D01*
X12074943Y-11895888D02*
X12065420Y-11857793D01*
X12065420Y-11857793D02*
X12065420Y-11810174D01*
X12065420Y-11810174D02*
X12074943Y-11772079D01*
X12074943Y-11772079D02*
X12084467Y-11753031D01*
X12084467Y-11753031D02*
X12093991Y-11743508D01*
X12093991Y-11743508D02*
X12113039Y-11733984D01*
X12265420Y-11933984D02*
X12265420Y-11800650D01*
X12265420Y-11819698D02*
X12274943Y-11810174D01*
X12274943Y-11810174D02*
X12293991Y-11800650D01*
X12293991Y-11800650D02*
X12322563Y-11800650D01*
X12322563Y-11800650D02*
X12341610Y-11810174D01*
X12341610Y-11810174D02*
X12351134Y-11829222D01*
X12351134Y-11829222D02*
X12351134Y-11933984D01*
X12351134Y-11829222D02*
X12360658Y-11810174D01*
X12360658Y-11810174D02*
X12379705Y-11800650D01*
X12379705Y-11800650D02*
X12408277Y-11800650D01*
X12408277Y-11800650D02*
X12427324Y-11810174D01*
X12427324Y-11810174D02*
X12436848Y-11829222D01*
X12436848Y-11829222D02*
X12436848Y-11933984D01*
X12532086Y-11933984D02*
X12532086Y-11800650D01*
X12532086Y-11819698D02*
X12541610Y-11810174D01*
X12541610Y-11810174D02*
X12560658Y-11800650D01*
X12560658Y-11800650D02*
X12589229Y-11800650D01*
X12589229Y-11800650D02*
X12608277Y-11810174D01*
X12608277Y-11810174D02*
X12617801Y-11829222D01*
X12617801Y-11829222D02*
X12617801Y-11933984D01*
X12617801Y-11829222D02*
X12627324Y-11810174D01*
X12627324Y-11810174D02*
X12646372Y-11800650D01*
X12646372Y-11800650D02*
X12674943Y-11800650D01*
X12674943Y-11800650D02*
X12693991Y-11810174D01*
X12693991Y-11810174D02*
X12703515Y-11829222D01*
X12703515Y-11829222D02*
X12703515Y-11933984D01*
X13093991Y-11724460D02*
X12922563Y-11981603D01*
X13351134Y-11733984D02*
X13370182Y-11733984D01*
X13370182Y-11733984D02*
X13389229Y-11743508D01*
X13389229Y-11743508D02*
X13398753Y-11753031D01*
X13398753Y-11753031D02*
X13408277Y-11772079D01*
X13408277Y-11772079D02*
X13417801Y-11810174D01*
X13417801Y-11810174D02*
X13417801Y-11857793D01*
X13417801Y-11857793D02*
X13408277Y-11895888D01*
X13408277Y-11895888D02*
X13398753Y-11914936D01*
X13398753Y-11914936D02*
X13389229Y-11924460D01*
X13389229Y-11924460D02*
X13370182Y-11933984D01*
X13370182Y-11933984D02*
X13351134Y-11933984D01*
X13351134Y-11933984D02*
X13332086Y-11924460D01*
X13332086Y-11924460D02*
X13322563Y-11914936D01*
X13322563Y-11914936D02*
X13313039Y-11895888D01*
X13313039Y-11895888D02*
X13303515Y-11857793D01*
X13303515Y-11857793D02*
X13303515Y-11810174D01*
X13303515Y-11810174D02*
X13313039Y-11772079D01*
X13313039Y-11772079D02*
X13322563Y-11753031D01*
X13322563Y-11753031D02*
X13332086Y-11743508D01*
X13332086Y-11743508D02*
X13351134Y-11733984D01*
X13503515Y-11914936D02*
X13513039Y-11924460D01*
X13513039Y-11924460D02*
X13503515Y-11933984D01*
X13503515Y-11933984D02*
X13493991Y-11924460D01*
X13493991Y-11924460D02*
X13503515Y-11914936D01*
X13503515Y-11914936D02*
X13503515Y-11933984D01*
X13636848Y-11733984D02*
X13655896Y-11733984D01*
X13655896Y-11733984D02*
X13674944Y-11743508D01*
X13674944Y-11743508D02*
X13684467Y-11753031D01*
X13684467Y-11753031D02*
X13693991Y-11772079D01*
X13693991Y-11772079D02*
X13703515Y-11810174D01*
X13703515Y-11810174D02*
X13703515Y-11857793D01*
X13703515Y-11857793D02*
X13693991Y-11895888D01*
X13693991Y-11895888D02*
X13684467Y-11914936D01*
X13684467Y-11914936D02*
X13674944Y-11924460D01*
X13674944Y-11924460D02*
X13655896Y-11933984D01*
X13655896Y-11933984D02*
X13636848Y-11933984D01*
X13636848Y-11933984D02*
X13617801Y-11924460D01*
X13617801Y-11924460D02*
X13608277Y-11914936D01*
X13608277Y-11914936D02*
X13598753Y-11895888D01*
X13598753Y-11895888D02*
X13589229Y-11857793D01*
X13589229Y-11857793D02*
X13589229Y-11810174D01*
X13589229Y-11810174D02*
X13598753Y-11772079D01*
X13598753Y-11772079D02*
X13608277Y-11753031D01*
X13608277Y-11753031D02*
X13617801Y-11743508D01*
X13617801Y-11743508D02*
X13636848Y-11733984D01*
X13779706Y-11753031D02*
X13789229Y-11743508D01*
X13789229Y-11743508D02*
X13808277Y-11733984D01*
X13808277Y-11733984D02*
X13855896Y-11733984D01*
X13855896Y-11733984D02*
X13874944Y-11743508D01*
X13874944Y-11743508D02*
X13884467Y-11753031D01*
X13884467Y-11753031D02*
X13893991Y-11772079D01*
X13893991Y-11772079D02*
X13893991Y-11791127D01*
X13893991Y-11791127D02*
X13884467Y-11819698D01*
X13884467Y-11819698D02*
X13770182Y-11933984D01*
X13770182Y-11933984D02*
X13893991Y-11933984D01*
X14065420Y-11733984D02*
X14027325Y-11733984D01*
X14027325Y-11733984D02*
X14008277Y-11743508D01*
X14008277Y-11743508D02*
X13998753Y-11753031D01*
X13998753Y-11753031D02*
X13979706Y-11781603D01*
X13979706Y-11781603D02*
X13970182Y-11819698D01*
X13970182Y-11819698D02*
X13970182Y-11895888D01*
X13970182Y-11895888D02*
X13979706Y-11914936D01*
X13979706Y-11914936D02*
X13989229Y-11924460D01*
X13989229Y-11924460D02*
X14008277Y-11933984D01*
X14008277Y-11933984D02*
X14046372Y-11933984D01*
X14046372Y-11933984D02*
X14065420Y-11924460D01*
X14065420Y-11924460D02*
X14074944Y-11914936D01*
X14074944Y-11914936D02*
X14084467Y-11895888D01*
X14084467Y-11895888D02*
X14084467Y-11848269D01*
X14084467Y-11848269D02*
X14074944Y-11829222D01*
X14074944Y-11829222D02*
X14065420Y-11819698D01*
X14065420Y-11819698D02*
X14046372Y-11810174D01*
X14046372Y-11810174D02*
X14008277Y-11810174D01*
X14008277Y-11810174D02*
X13989229Y-11819698D01*
X13989229Y-11819698D02*
X13979706Y-11829222D01*
X13979706Y-11829222D02*
X13970182Y-11848269D01*
X14208277Y-11733984D02*
X14227325Y-11733984D01*
X14227325Y-11733984D02*
X14246372Y-11743508D01*
X14246372Y-11743508D02*
X14255896Y-11753031D01*
X14255896Y-11753031D02*
X14265420Y-11772079D01*
X14265420Y-11772079D02*
X14274944Y-11810174D01*
X14274944Y-11810174D02*
X14274944Y-11857793D01*
X14274944Y-11857793D02*
X14265420Y-11895888D01*
X14265420Y-11895888D02*
X14255896Y-11914936D01*
X14255896Y-11914936D02*
X14246372Y-11924460D01*
X14246372Y-11924460D02*
X14227325Y-11933984D01*
X14227325Y-11933984D02*
X14208277Y-11933984D01*
X14208277Y-11933984D02*
X14189229Y-11924460D01*
X14189229Y-11924460D02*
X14179706Y-11914936D01*
X14179706Y-11914936D02*
X14170182Y-11895888D01*
X14170182Y-11895888D02*
X14160658Y-11857793D01*
X14160658Y-11857793D02*
X14160658Y-11810174D01*
X14160658Y-11810174D02*
X14170182Y-11772079D01*
X14170182Y-11772079D02*
X14179706Y-11753031D01*
X14179706Y-11753031D02*
X14189229Y-11743508D01*
X14189229Y-11743508D02*
X14208277Y-11733984D01*
X14351134Y-11733984D02*
X14351134Y-11772079D01*
X14427325Y-11733984D02*
X14427325Y-11772079D01*
X14722563Y-12010174D02*
X14713039Y-12000650D01*
X14713039Y-12000650D02*
X14693991Y-11972079D01*
X14693991Y-11972079D02*
X14684468Y-11953031D01*
X14684468Y-11953031D02*
X14674944Y-11924460D01*
X14674944Y-11924460D02*
X14665420Y-11876841D01*
X14665420Y-11876841D02*
X14665420Y-11838746D01*
X14665420Y-11838746D02*
X14674944Y-11791127D01*
X14674944Y-11791127D02*
X14684468Y-11762555D01*
X14684468Y-11762555D02*
X14693991Y-11743508D01*
X14693991Y-11743508D02*
X14713039Y-11714936D01*
X14713039Y-11714936D02*
X14722563Y-11705412D01*
X14789229Y-11753031D02*
X14798753Y-11743508D01*
X14798753Y-11743508D02*
X14817801Y-11733984D01*
X14817801Y-11733984D02*
X14865420Y-11733984D01*
X14865420Y-11733984D02*
X14884468Y-11743508D01*
X14884468Y-11743508D02*
X14893991Y-11753031D01*
X14893991Y-11753031D02*
X14903515Y-11772079D01*
X14903515Y-11772079D02*
X14903515Y-11791127D01*
X14903515Y-11791127D02*
X14893991Y-11819698D01*
X14893991Y-11819698D02*
X14779706Y-11933984D01*
X14779706Y-11933984D02*
X14903515Y-11933984D01*
X15141610Y-11933984D02*
X15141610Y-11733984D01*
X15227325Y-11933984D02*
X15227325Y-11829222D01*
X15227325Y-11829222D02*
X15217801Y-11810174D01*
X15217801Y-11810174D02*
X15198753Y-11800650D01*
X15198753Y-11800650D02*
X15170182Y-11800650D01*
X15170182Y-11800650D02*
X15151134Y-11810174D01*
X15151134Y-11810174D02*
X15141610Y-11819698D01*
X15351134Y-11933984D02*
X15332087Y-11924460D01*
X15332087Y-11924460D02*
X15322563Y-11914936D01*
X15322563Y-11914936D02*
X15313039Y-11895888D01*
X15313039Y-11895888D02*
X15313039Y-11838746D01*
X15313039Y-11838746D02*
X15322563Y-11819698D01*
X15322563Y-11819698D02*
X15332087Y-11810174D01*
X15332087Y-11810174D02*
X15351134Y-11800650D01*
X15351134Y-11800650D02*
X15379706Y-11800650D01*
X15379706Y-11800650D02*
X15398753Y-11810174D01*
X15398753Y-11810174D02*
X15408277Y-11819698D01*
X15408277Y-11819698D02*
X15417801Y-11838746D01*
X15417801Y-11838746D02*
X15417801Y-11895888D01*
X15417801Y-11895888D02*
X15408277Y-11914936D01*
X15408277Y-11914936D02*
X15398753Y-11924460D01*
X15398753Y-11924460D02*
X15379706Y-11933984D01*
X15379706Y-11933984D02*
X15351134Y-11933984D01*
X15532087Y-11933984D02*
X15513039Y-11924460D01*
X15513039Y-11924460D02*
X15503515Y-11905412D01*
X15503515Y-11905412D02*
X15503515Y-11733984D01*
X15684468Y-11924460D02*
X15665420Y-11933984D01*
X15665420Y-11933984D02*
X15627325Y-11933984D01*
X15627325Y-11933984D02*
X15608277Y-11924460D01*
X15608277Y-11924460D02*
X15598753Y-11905412D01*
X15598753Y-11905412D02*
X15598753Y-11829222D01*
X15598753Y-11829222D02*
X15608277Y-11810174D01*
X15608277Y-11810174D02*
X15627325Y-11800650D01*
X15627325Y-11800650D02*
X15665420Y-11800650D01*
X15665420Y-11800650D02*
X15684468Y-11810174D01*
X15684468Y-11810174D02*
X15693991Y-11829222D01*
X15693991Y-11829222D02*
X15693991Y-11848269D01*
X15693991Y-11848269D02*
X15598753Y-11867317D01*
X15770182Y-11924460D02*
X15789230Y-11933984D01*
X15789230Y-11933984D02*
X15827325Y-11933984D01*
X15827325Y-11933984D02*
X15846372Y-11924460D01*
X15846372Y-11924460D02*
X15855896Y-11905412D01*
X15855896Y-11905412D02*
X15855896Y-11895888D01*
X15855896Y-11895888D02*
X15846372Y-11876841D01*
X15846372Y-11876841D02*
X15827325Y-11867317D01*
X15827325Y-11867317D02*
X15798753Y-11867317D01*
X15798753Y-11867317D02*
X15779706Y-11857793D01*
X15779706Y-11857793D02*
X15770182Y-11838746D01*
X15770182Y-11838746D02*
X15770182Y-11829222D01*
X15770182Y-11829222D02*
X15779706Y-11810174D01*
X15779706Y-11810174D02*
X15798753Y-11800650D01*
X15798753Y-11800650D02*
X15827325Y-11800650D01*
X15827325Y-11800650D02*
X15846372Y-11810174D01*
X15922563Y-12010174D02*
X15932087Y-12000650D01*
X15932087Y-12000650D02*
X15951134Y-11972079D01*
X15951134Y-11972079D02*
X15960658Y-11953031D01*
X15960658Y-11953031D02*
X15970182Y-11924460D01*
X15970182Y-11924460D02*
X15979706Y-11876841D01*
X15979706Y-11876841D02*
X15979706Y-11838746D01*
X15979706Y-11838746D02*
X15970182Y-11791127D01*
X15970182Y-11791127D02*
X15960658Y-11762555D01*
X15960658Y-11762555D02*
X15951134Y-11743508D01*
X15951134Y-11743508D02*
X15932087Y-11714936D01*
X15932087Y-11714936D02*
X15922563Y-11705412D01*
X16284468Y-12010174D02*
X16274944Y-12000650D01*
X16274944Y-12000650D02*
X16255896Y-11972079D01*
X16255896Y-11972079D02*
X16246372Y-11953031D01*
X16246372Y-11953031D02*
X16236849Y-11924460D01*
X16236849Y-11924460D02*
X16227325Y-11876841D01*
X16227325Y-11876841D02*
X16227325Y-11838746D01*
X16227325Y-11838746D02*
X16236849Y-11791127D01*
X16236849Y-11791127D02*
X16246372Y-11762555D01*
X16246372Y-11762555D02*
X16255896Y-11743508D01*
X16255896Y-11743508D02*
X16274944Y-11714936D01*
X16274944Y-11714936D02*
X16284468Y-11705412D01*
X16360658Y-11800650D02*
X16360658Y-11933984D01*
X16360658Y-11819698D02*
X16370182Y-11810174D01*
X16370182Y-11810174D02*
X16389230Y-11800650D01*
X16389230Y-11800650D02*
X16417801Y-11800650D01*
X16417801Y-11800650D02*
X16436849Y-11810174D01*
X16436849Y-11810174D02*
X16446372Y-11829222D01*
X16446372Y-11829222D02*
X16446372Y-11933984D01*
X16570182Y-11933984D02*
X16551134Y-11924460D01*
X16551134Y-11924460D02*
X16541611Y-11914936D01*
X16541611Y-11914936D02*
X16532087Y-11895888D01*
X16532087Y-11895888D02*
X16532087Y-11838746D01*
X16532087Y-11838746D02*
X16541611Y-11819698D01*
X16541611Y-11819698D02*
X16551134Y-11810174D01*
X16551134Y-11810174D02*
X16570182Y-11800650D01*
X16570182Y-11800650D02*
X16598753Y-11800650D01*
X16598753Y-11800650D02*
X16617801Y-11810174D01*
X16617801Y-11810174D02*
X16627325Y-11819698D01*
X16627325Y-11819698D02*
X16636849Y-11838746D01*
X16636849Y-11838746D02*
X16636849Y-11895888D01*
X16636849Y-11895888D02*
X16627325Y-11914936D01*
X16627325Y-11914936D02*
X16617801Y-11924460D01*
X16617801Y-11924460D02*
X16598753Y-11933984D01*
X16598753Y-11933984D02*
X16570182Y-11933984D01*
X16693992Y-11800650D02*
X16770182Y-11800650D01*
X16722563Y-11733984D02*
X16722563Y-11905412D01*
X16722563Y-11905412D02*
X16732087Y-11924460D01*
X16732087Y-11924460D02*
X16751134Y-11933984D01*
X16751134Y-11933984D02*
X16770182Y-11933984D01*
X16989230Y-11800650D02*
X16989230Y-12000650D01*
X16989230Y-11810174D02*
X17008277Y-11800650D01*
X17008277Y-11800650D02*
X17046373Y-11800650D01*
X17046373Y-11800650D02*
X17065420Y-11810174D01*
X17065420Y-11810174D02*
X17074944Y-11819698D01*
X17074944Y-11819698D02*
X17084468Y-11838746D01*
X17084468Y-11838746D02*
X17084468Y-11895888D01*
X17084468Y-11895888D02*
X17074944Y-11914936D01*
X17074944Y-11914936D02*
X17065420Y-11924460D01*
X17065420Y-11924460D02*
X17046373Y-11933984D01*
X17046373Y-11933984D02*
X17008277Y-11933984D01*
X17008277Y-11933984D02*
X16989230Y-11924460D01*
X17198754Y-11933984D02*
X17179706Y-11924460D01*
X17179706Y-11924460D02*
X17170182Y-11905412D01*
X17170182Y-11905412D02*
X17170182Y-11733984D01*
X17360658Y-11933984D02*
X17360658Y-11829222D01*
X17360658Y-11829222D02*
X17351135Y-11810174D01*
X17351135Y-11810174D02*
X17332087Y-11800650D01*
X17332087Y-11800650D02*
X17293992Y-11800650D01*
X17293992Y-11800650D02*
X17274944Y-11810174D01*
X17360658Y-11924460D02*
X17341611Y-11933984D01*
X17341611Y-11933984D02*
X17293992Y-11933984D01*
X17293992Y-11933984D02*
X17274944Y-11924460D01*
X17274944Y-11924460D02*
X17265420Y-11905412D01*
X17265420Y-11905412D02*
X17265420Y-11886365D01*
X17265420Y-11886365D02*
X17274944Y-11867317D01*
X17274944Y-11867317D02*
X17293992Y-11857793D01*
X17293992Y-11857793D02*
X17341611Y-11857793D01*
X17341611Y-11857793D02*
X17360658Y-11848269D01*
X17427325Y-11800650D02*
X17503515Y-11800650D01*
X17455896Y-11733984D02*
X17455896Y-11905412D01*
X17455896Y-11905412D02*
X17465420Y-11924460D01*
X17465420Y-11924460D02*
X17484468Y-11933984D01*
X17484468Y-11933984D02*
X17503515Y-11933984D01*
X17646373Y-11924460D02*
X17627325Y-11933984D01*
X17627325Y-11933984D02*
X17589230Y-11933984D01*
X17589230Y-11933984D02*
X17570182Y-11924460D01*
X17570182Y-11924460D02*
X17560658Y-11905412D01*
X17560658Y-11905412D02*
X17560658Y-11829222D01*
X17560658Y-11829222D02*
X17570182Y-11810174D01*
X17570182Y-11810174D02*
X17589230Y-11800650D01*
X17589230Y-11800650D02*
X17627325Y-11800650D01*
X17627325Y-11800650D02*
X17646373Y-11810174D01*
X17646373Y-11810174D02*
X17655896Y-11829222D01*
X17655896Y-11829222D02*
X17655896Y-11848269D01*
X17655896Y-11848269D02*
X17560658Y-11867317D01*
X17827325Y-11933984D02*
X17827325Y-11733984D01*
X17827325Y-11924460D02*
X17808277Y-11933984D01*
X17808277Y-11933984D02*
X17770182Y-11933984D01*
X17770182Y-11933984D02*
X17751135Y-11924460D01*
X17751135Y-11924460D02*
X17741611Y-11914936D01*
X17741611Y-11914936D02*
X17732087Y-11895888D01*
X17732087Y-11895888D02*
X17732087Y-11838746D01*
X17732087Y-11838746D02*
X17741611Y-11819698D01*
X17741611Y-11819698D02*
X17751135Y-11810174D01*
X17751135Y-11810174D02*
X17770182Y-11800650D01*
X17770182Y-11800650D02*
X17808277Y-11800650D01*
X17808277Y-11800650D02*
X17827325Y-11810174D01*
X17903516Y-12010174D02*
X17913039Y-12000650D01*
X17913039Y-12000650D02*
X17932087Y-11972079D01*
X17932087Y-11972079D02*
X17941611Y-11953031D01*
X17941611Y-11953031D02*
X17951135Y-11924460D01*
X17951135Y-11924460D02*
X17960658Y-11876841D01*
X17960658Y-11876841D02*
X17960658Y-11838746D01*
X17960658Y-11838746D02*
X17951135Y-11791127D01*
X17951135Y-11791127D02*
X17941611Y-11762555D01*
X17941611Y-11762555D02*
X17932087Y-11743508D01*
X17932087Y-11743508D02*
X17913039Y-11714936D01*
X17913039Y-11714936D02*
X17903516Y-11705412D01*
M02*
